G04 #@! TF.GenerationSoftware,KiCad,Pcbnew,(5.1.4)-1*
G04 #@! TF.CreationDate,2021-05-12T10:10:47-04:00*
G04 #@! TF.ProjectId,QAZ_IS31FL3746A_breakoutboard,51415a5f-4953-4333-9146-4c3337343641,rev?*
G04 #@! TF.SameCoordinates,Original*
G04 #@! TF.FileFunction,Soldermask,Top*
G04 #@! TF.FilePolarity,Negative*
%FSLAX46Y46*%
G04 Gerber Fmt 4.6, Leading zero omitted, Abs format (unit mm)*
G04 Created by KiCad (PCBNEW (5.1.4)-1) date 2021-05-12 10:10:47*
%MOMM*%
%LPD*%
G04 APERTURE LIST*
%ADD10C,0.100000*%
G04 APERTURE END LIST*
D10*
G36*
X150584464Y-76304006D02*
G01*
X150629004Y-76317517D01*
X150670046Y-76339455D01*
X150706021Y-76368979D01*
X150735545Y-76404954D01*
X150757483Y-76445996D01*
X150770994Y-76490536D01*
X150775800Y-76539333D01*
X150775800Y-77210667D01*
X150770994Y-77259464D01*
X150757483Y-77304004D01*
X150735545Y-77345046D01*
X150706021Y-77381021D01*
X150670046Y-77410545D01*
X150629004Y-77432483D01*
X150584464Y-77445994D01*
X150535667Y-77450800D01*
X149964333Y-77450800D01*
X149915536Y-77445994D01*
X149870996Y-77432483D01*
X149829954Y-77410545D01*
X149793979Y-77381021D01*
X149764455Y-77345046D01*
X149742517Y-77304004D01*
X149729006Y-77259464D01*
X149724200Y-77210667D01*
X149724200Y-76539333D01*
X149729006Y-76490536D01*
X149742517Y-76445996D01*
X149764455Y-76404954D01*
X149793979Y-76368979D01*
X149829954Y-76339455D01*
X149870996Y-76317517D01*
X149915536Y-76304006D01*
X149964333Y-76299200D01*
X150535667Y-76299200D01*
X150584464Y-76304006D01*
X150584464Y-76304006D01*
G37*
G36*
X148834464Y-76304006D02*
G01*
X148879004Y-76317517D01*
X148920046Y-76339455D01*
X148956021Y-76368979D01*
X148985545Y-76404954D01*
X149007483Y-76445996D01*
X149020994Y-76490536D01*
X149025800Y-76539333D01*
X149025800Y-77210667D01*
X149020994Y-77259464D01*
X149007483Y-77304004D01*
X148985545Y-77345046D01*
X148956021Y-77381021D01*
X148920046Y-77410545D01*
X148879004Y-77432483D01*
X148834464Y-77445994D01*
X148785667Y-77450800D01*
X148214333Y-77450800D01*
X148165536Y-77445994D01*
X148120996Y-77432483D01*
X148079954Y-77410545D01*
X148043979Y-77381021D01*
X148014455Y-77345046D01*
X147992517Y-77304004D01*
X147979006Y-77259464D01*
X147974200Y-77210667D01*
X147974200Y-76539333D01*
X147979006Y-76490536D01*
X147992517Y-76445996D01*
X148014455Y-76404954D01*
X148043979Y-76368979D01*
X148079954Y-76339455D01*
X148120996Y-76317517D01*
X148165536Y-76304006D01*
X148214333Y-76299200D01*
X148785667Y-76299200D01*
X148834464Y-76304006D01*
X148834464Y-76304006D01*
G37*
G36*
X145626588Y-75112234D02*
G01*
X145796389Y-75163743D01*
X145952879Y-75247389D01*
X146090043Y-75359957D01*
X146202611Y-75497121D01*
X146286257Y-75653611D01*
X146337766Y-75823412D01*
X146355158Y-76000000D01*
X146337766Y-76176588D01*
X146286257Y-76346389D01*
X146202611Y-76502879D01*
X146090043Y-76640043D01*
X145952879Y-76752611D01*
X145796389Y-76836257D01*
X145626588Y-76887766D01*
X145494249Y-76900800D01*
X145405751Y-76900800D01*
X145273412Y-76887766D01*
X145103611Y-76836257D01*
X144947121Y-76752611D01*
X144809957Y-76640043D01*
X144697389Y-76502879D01*
X144613743Y-76346389D01*
X144562234Y-76176588D01*
X144544842Y-76000000D01*
X144562234Y-75823412D01*
X144613743Y-75653611D01*
X144697389Y-75497121D01*
X144809957Y-75359957D01*
X144947121Y-75247389D01*
X145103611Y-75163743D01*
X145273412Y-75112234D01*
X145405751Y-75099200D01*
X145494249Y-75099200D01*
X145626588Y-75112234D01*
X145626588Y-75112234D01*
G37*
G36*
X143086588Y-75112234D02*
G01*
X143256389Y-75163743D01*
X143412879Y-75247389D01*
X143550043Y-75359957D01*
X143662611Y-75497121D01*
X143746257Y-75653611D01*
X143797766Y-75823412D01*
X143815158Y-76000000D01*
X143797766Y-76176588D01*
X143746257Y-76346389D01*
X143662611Y-76502879D01*
X143550043Y-76640043D01*
X143412879Y-76752611D01*
X143256389Y-76836257D01*
X143086588Y-76887766D01*
X142954249Y-76900800D01*
X142865751Y-76900800D01*
X142733412Y-76887766D01*
X142563611Y-76836257D01*
X142407121Y-76752611D01*
X142269957Y-76640043D01*
X142157389Y-76502879D01*
X142073743Y-76346389D01*
X142022234Y-76176588D01*
X142004842Y-76000000D01*
X142022234Y-75823412D01*
X142073743Y-75653611D01*
X142157389Y-75497121D01*
X142269957Y-75359957D01*
X142407121Y-75247389D01*
X142563611Y-75163743D01*
X142733412Y-75112234D01*
X142865751Y-75099200D01*
X142954249Y-75099200D01*
X143086588Y-75112234D01*
X143086588Y-75112234D01*
G37*
G36*
X140546588Y-75112234D02*
G01*
X140716389Y-75163743D01*
X140872879Y-75247389D01*
X141010043Y-75359957D01*
X141122611Y-75497121D01*
X141206257Y-75653611D01*
X141257766Y-75823412D01*
X141275158Y-76000000D01*
X141257766Y-76176588D01*
X141206257Y-76346389D01*
X141122611Y-76502879D01*
X141010043Y-76640043D01*
X140872879Y-76752611D01*
X140716389Y-76836257D01*
X140546588Y-76887766D01*
X140414249Y-76900800D01*
X140325751Y-76900800D01*
X140193412Y-76887766D01*
X140023611Y-76836257D01*
X139867121Y-76752611D01*
X139729957Y-76640043D01*
X139617389Y-76502879D01*
X139533743Y-76346389D01*
X139482234Y-76176588D01*
X139464842Y-76000000D01*
X139482234Y-75823412D01*
X139533743Y-75653611D01*
X139617389Y-75497121D01*
X139729957Y-75359957D01*
X139867121Y-75247389D01*
X140023611Y-75163743D01*
X140193412Y-75112234D01*
X140325751Y-75099200D01*
X140414249Y-75099200D01*
X140546588Y-75112234D01*
X140546588Y-75112234D01*
G37*
G36*
X138006588Y-75112234D02*
G01*
X138176389Y-75163743D01*
X138332879Y-75247389D01*
X138470043Y-75359957D01*
X138582611Y-75497121D01*
X138666257Y-75653611D01*
X138717766Y-75823412D01*
X138735158Y-76000000D01*
X138717766Y-76176588D01*
X138666257Y-76346389D01*
X138582611Y-76502879D01*
X138470043Y-76640043D01*
X138332879Y-76752611D01*
X138176389Y-76836257D01*
X138006588Y-76887766D01*
X137874249Y-76900800D01*
X137785751Y-76900800D01*
X137653412Y-76887766D01*
X137483611Y-76836257D01*
X137327121Y-76752611D01*
X137189957Y-76640043D01*
X137077389Y-76502879D01*
X136993743Y-76346389D01*
X136942234Y-76176588D01*
X136924842Y-76000000D01*
X136942234Y-75823412D01*
X136993743Y-75653611D01*
X137077389Y-75497121D01*
X137189957Y-75359957D01*
X137327121Y-75247389D01*
X137483611Y-75163743D01*
X137653412Y-75112234D01*
X137785751Y-75099200D01*
X137874249Y-75099200D01*
X138006588Y-75112234D01*
X138006588Y-75112234D01*
G37*
G36*
X135466588Y-75112234D02*
G01*
X135636389Y-75163743D01*
X135792879Y-75247389D01*
X135930043Y-75359957D01*
X136042611Y-75497121D01*
X136126257Y-75653611D01*
X136177766Y-75823412D01*
X136195158Y-76000000D01*
X136177766Y-76176588D01*
X136126257Y-76346389D01*
X136042611Y-76502879D01*
X135930043Y-76640043D01*
X135792879Y-76752611D01*
X135636389Y-76836257D01*
X135466588Y-76887766D01*
X135334249Y-76900800D01*
X135245751Y-76900800D01*
X135113412Y-76887766D01*
X134943611Y-76836257D01*
X134787121Y-76752611D01*
X134649957Y-76640043D01*
X134537389Y-76502879D01*
X134453743Y-76346389D01*
X134402234Y-76176588D01*
X134384842Y-76000000D01*
X134402234Y-75823412D01*
X134453743Y-75653611D01*
X134537389Y-75497121D01*
X134649957Y-75359957D01*
X134787121Y-75247389D01*
X134943611Y-75163743D01*
X135113412Y-75112234D01*
X135245751Y-75099200D01*
X135334249Y-75099200D01*
X135466588Y-75112234D01*
X135466588Y-75112234D01*
G37*
G36*
X133650800Y-76900800D02*
G01*
X131849200Y-76900800D01*
X131849200Y-75099200D01*
X133650800Y-75099200D01*
X133650800Y-76900800D01*
X133650800Y-76900800D01*
G37*
G36*
X148834464Y-74554006D02*
G01*
X148879004Y-74567517D01*
X148920046Y-74589455D01*
X148956021Y-74618979D01*
X148985545Y-74654954D01*
X149007483Y-74695996D01*
X149020994Y-74740536D01*
X149025800Y-74789333D01*
X149025800Y-75460667D01*
X149020994Y-75509464D01*
X149007483Y-75554004D01*
X148985545Y-75595046D01*
X148956021Y-75631021D01*
X148920046Y-75660545D01*
X148879004Y-75682483D01*
X148834464Y-75695994D01*
X148785667Y-75700800D01*
X148214333Y-75700800D01*
X148165536Y-75695994D01*
X148120996Y-75682483D01*
X148079954Y-75660545D01*
X148043979Y-75631021D01*
X148014455Y-75595046D01*
X147992517Y-75554004D01*
X147979006Y-75509464D01*
X147974200Y-75460667D01*
X147974200Y-74789333D01*
X147979006Y-74740536D01*
X147992517Y-74695996D01*
X148014455Y-74654954D01*
X148043979Y-74618979D01*
X148079954Y-74589455D01*
X148120996Y-74567517D01*
X148165536Y-74554006D01*
X148214333Y-74549200D01*
X148785667Y-74549200D01*
X148834464Y-74554006D01*
X148834464Y-74554006D01*
G37*
G36*
X150584464Y-74554006D02*
G01*
X150629004Y-74567517D01*
X150670046Y-74589455D01*
X150706021Y-74618979D01*
X150735545Y-74654954D01*
X150757483Y-74695996D01*
X150770994Y-74740536D01*
X150775800Y-74789333D01*
X150775800Y-75460667D01*
X150770994Y-75509464D01*
X150757483Y-75554004D01*
X150735545Y-75595046D01*
X150706021Y-75631021D01*
X150670046Y-75660545D01*
X150629004Y-75682483D01*
X150584464Y-75695994D01*
X150535667Y-75700800D01*
X149964333Y-75700800D01*
X149915536Y-75695994D01*
X149870996Y-75682483D01*
X149829954Y-75660545D01*
X149793979Y-75631021D01*
X149764455Y-75595046D01*
X149742517Y-75554004D01*
X149729006Y-75509464D01*
X149724200Y-75460667D01*
X149724200Y-74789333D01*
X149729006Y-74740536D01*
X149742517Y-74695996D01*
X149764455Y-74654954D01*
X149793979Y-74618979D01*
X149829954Y-74589455D01*
X149870996Y-74567517D01*
X149915536Y-74554006D01*
X149964333Y-74549200D01*
X150535667Y-74549200D01*
X150584464Y-74554006D01*
X150584464Y-74554006D01*
G37*
G36*
X143009464Y-72479006D02*
G01*
X143054004Y-72492517D01*
X143095046Y-72514455D01*
X143131021Y-72543979D01*
X143160545Y-72579954D01*
X143182483Y-72620996D01*
X143195994Y-72665536D01*
X143200800Y-72714333D01*
X143200800Y-73285667D01*
X143195994Y-73334464D01*
X143182483Y-73379004D01*
X143160545Y-73420046D01*
X143131021Y-73456021D01*
X143095046Y-73485545D01*
X143054004Y-73507483D01*
X143009464Y-73520994D01*
X142960667Y-73525800D01*
X142289333Y-73525800D01*
X142240536Y-73520994D01*
X142195996Y-73507483D01*
X142154954Y-73485545D01*
X142118979Y-73456021D01*
X142089455Y-73420046D01*
X142067517Y-73379004D01*
X142054006Y-73334464D01*
X142049200Y-73285667D01*
X142049200Y-72714333D01*
X142054006Y-72665536D01*
X142067517Y-72620996D01*
X142089455Y-72579954D01*
X142118979Y-72543979D01*
X142154954Y-72514455D01*
X142195996Y-72492517D01*
X142240536Y-72479006D01*
X142289333Y-72474200D01*
X142960667Y-72474200D01*
X143009464Y-72479006D01*
X143009464Y-72479006D01*
G37*
G36*
X141259464Y-72479006D02*
G01*
X141304004Y-72492517D01*
X141345046Y-72514455D01*
X141381021Y-72543979D01*
X141410545Y-72579954D01*
X141432483Y-72620996D01*
X141445994Y-72665536D01*
X141450800Y-72714333D01*
X141450800Y-73285667D01*
X141445994Y-73334464D01*
X141432483Y-73379004D01*
X141410545Y-73420046D01*
X141381021Y-73456021D01*
X141345046Y-73485545D01*
X141304004Y-73507483D01*
X141259464Y-73520994D01*
X141210667Y-73525800D01*
X140539333Y-73525800D01*
X140490536Y-73520994D01*
X140445996Y-73507483D01*
X140404954Y-73485545D01*
X140368979Y-73456021D01*
X140339455Y-73420046D01*
X140317517Y-73379004D01*
X140304006Y-73334464D01*
X140299200Y-73285667D01*
X140299200Y-72714333D01*
X140304006Y-72665536D01*
X140317517Y-72620996D01*
X140339455Y-72579954D01*
X140368979Y-72543979D01*
X140404954Y-72514455D01*
X140445996Y-72492517D01*
X140490536Y-72479006D01*
X140539333Y-72474200D01*
X141210667Y-72474200D01*
X141259464Y-72479006D01*
X141259464Y-72479006D01*
G37*
G36*
X135084464Y-72304006D02*
G01*
X135129004Y-72317517D01*
X135170046Y-72339455D01*
X135206021Y-72368979D01*
X135235545Y-72404954D01*
X135257483Y-72445996D01*
X135270994Y-72490536D01*
X135275800Y-72539333D01*
X135275800Y-73210667D01*
X135270994Y-73259464D01*
X135257483Y-73304004D01*
X135235545Y-73345046D01*
X135206021Y-73381021D01*
X135170046Y-73410545D01*
X135129004Y-73432483D01*
X135084464Y-73445994D01*
X135035667Y-73450800D01*
X134464333Y-73450800D01*
X134415536Y-73445994D01*
X134370996Y-73432483D01*
X134329954Y-73410545D01*
X134293979Y-73381021D01*
X134264455Y-73345046D01*
X134242517Y-73304004D01*
X134229006Y-73259464D01*
X134224200Y-73210667D01*
X134224200Y-72539333D01*
X134229006Y-72490536D01*
X134242517Y-72445996D01*
X134264455Y-72404954D01*
X134293979Y-72368979D01*
X134329954Y-72339455D01*
X134370996Y-72317517D01*
X134415536Y-72304006D01*
X134464333Y-72299200D01*
X135035667Y-72299200D01*
X135084464Y-72304006D01*
X135084464Y-72304006D01*
G37*
G36*
X133084464Y-72304006D02*
G01*
X133129004Y-72317517D01*
X133170046Y-72339455D01*
X133206021Y-72368979D01*
X133235545Y-72404954D01*
X133257483Y-72445996D01*
X133270994Y-72490536D01*
X133275800Y-72539333D01*
X133275800Y-73210667D01*
X133270994Y-73259464D01*
X133257483Y-73304004D01*
X133235545Y-73345046D01*
X133206021Y-73381021D01*
X133170046Y-73410545D01*
X133129004Y-73432483D01*
X133084464Y-73445994D01*
X133035667Y-73450800D01*
X132464333Y-73450800D01*
X132415536Y-73445994D01*
X132370996Y-73432483D01*
X132329954Y-73410545D01*
X132293979Y-73381021D01*
X132264455Y-73345046D01*
X132242517Y-73304004D01*
X132229006Y-73259464D01*
X132224200Y-73210667D01*
X132224200Y-72539333D01*
X132229006Y-72490536D01*
X132242517Y-72445996D01*
X132264455Y-72404954D01*
X132293979Y-72368979D01*
X132329954Y-72339455D01*
X132370996Y-72317517D01*
X132415536Y-72304006D01*
X132464333Y-72299200D01*
X133035667Y-72299200D01*
X133084464Y-72304006D01*
X133084464Y-72304006D01*
G37*
G36*
X146084464Y-70804006D02*
G01*
X146129004Y-70817517D01*
X146170046Y-70839455D01*
X146206021Y-70868979D01*
X146235545Y-70904954D01*
X146257483Y-70945996D01*
X146270994Y-70990536D01*
X146275800Y-71039333D01*
X146275800Y-71710667D01*
X146270994Y-71759464D01*
X146257483Y-71804004D01*
X146235545Y-71845046D01*
X146206021Y-71881021D01*
X146170046Y-71910545D01*
X146129004Y-71932483D01*
X146084464Y-71945994D01*
X146035667Y-71950800D01*
X145464333Y-71950800D01*
X145415536Y-71945994D01*
X145370996Y-71932483D01*
X145329954Y-71910545D01*
X145293979Y-71881021D01*
X145264455Y-71845046D01*
X145242517Y-71804004D01*
X145229006Y-71759464D01*
X145224200Y-71710667D01*
X145224200Y-71039333D01*
X145229006Y-70990536D01*
X145242517Y-70945996D01*
X145264455Y-70904954D01*
X145293979Y-70868979D01*
X145329954Y-70839455D01*
X145370996Y-70817517D01*
X145415536Y-70804006D01*
X145464333Y-70799200D01*
X146035667Y-70799200D01*
X146084464Y-70804006D01*
X146084464Y-70804006D01*
G37*
G36*
X135084464Y-70554006D02*
G01*
X135129004Y-70567517D01*
X135170046Y-70589455D01*
X135206021Y-70618979D01*
X135235545Y-70654954D01*
X135257483Y-70695996D01*
X135270994Y-70740536D01*
X135275800Y-70789333D01*
X135275800Y-71460667D01*
X135270994Y-71509464D01*
X135257483Y-71554004D01*
X135235545Y-71595046D01*
X135206021Y-71631021D01*
X135170046Y-71660545D01*
X135129004Y-71682483D01*
X135084464Y-71695994D01*
X135035667Y-71700800D01*
X134464333Y-71700800D01*
X134415536Y-71695994D01*
X134370996Y-71682483D01*
X134329954Y-71660545D01*
X134293979Y-71631021D01*
X134264455Y-71595046D01*
X134242517Y-71554004D01*
X134229006Y-71509464D01*
X134224200Y-71460667D01*
X134224200Y-70789333D01*
X134229006Y-70740536D01*
X134242517Y-70695996D01*
X134264455Y-70654954D01*
X134293979Y-70618979D01*
X134329954Y-70589455D01*
X134370996Y-70567517D01*
X134415536Y-70554006D01*
X134464333Y-70549200D01*
X135035667Y-70549200D01*
X135084464Y-70554006D01*
X135084464Y-70554006D01*
G37*
G36*
X133084464Y-70554006D02*
G01*
X133129004Y-70567517D01*
X133170046Y-70589455D01*
X133206021Y-70618979D01*
X133235545Y-70654954D01*
X133257483Y-70695996D01*
X133270994Y-70740536D01*
X133275800Y-70789333D01*
X133275800Y-71460667D01*
X133270994Y-71509464D01*
X133257483Y-71554004D01*
X133235545Y-71595046D01*
X133206021Y-71631021D01*
X133170046Y-71660545D01*
X133129004Y-71682483D01*
X133084464Y-71695994D01*
X133035667Y-71700800D01*
X132464333Y-71700800D01*
X132415536Y-71695994D01*
X132370996Y-71682483D01*
X132329954Y-71660545D01*
X132293979Y-71631021D01*
X132264455Y-71595046D01*
X132242517Y-71554004D01*
X132229006Y-71509464D01*
X132224200Y-71460667D01*
X132224200Y-70789333D01*
X132229006Y-70740536D01*
X132242517Y-70695996D01*
X132264455Y-70654954D01*
X132293979Y-70618979D01*
X132329954Y-70589455D01*
X132370996Y-70567517D01*
X132415536Y-70554006D01*
X132464333Y-70549200D01*
X133035667Y-70549200D01*
X133084464Y-70554006D01*
X133084464Y-70554006D01*
G37*
G36*
X143009464Y-70479006D02*
G01*
X143054004Y-70492517D01*
X143095046Y-70514455D01*
X143131021Y-70543979D01*
X143160545Y-70579954D01*
X143182483Y-70620996D01*
X143195994Y-70665536D01*
X143200800Y-70714333D01*
X143200800Y-71285667D01*
X143195994Y-71334464D01*
X143182483Y-71379004D01*
X143160545Y-71420046D01*
X143131021Y-71456021D01*
X143095046Y-71485545D01*
X143054004Y-71507483D01*
X143009464Y-71520994D01*
X142960667Y-71525800D01*
X142289333Y-71525800D01*
X142240536Y-71520994D01*
X142195996Y-71507483D01*
X142154954Y-71485545D01*
X142118979Y-71456021D01*
X142089455Y-71420046D01*
X142067517Y-71379004D01*
X142054006Y-71334464D01*
X142049200Y-71285667D01*
X142049200Y-70714333D01*
X142054006Y-70665536D01*
X142067517Y-70620996D01*
X142089455Y-70579954D01*
X142118979Y-70543979D01*
X142154954Y-70514455D01*
X142195996Y-70492517D01*
X142240536Y-70479006D01*
X142289333Y-70474200D01*
X142960667Y-70474200D01*
X143009464Y-70479006D01*
X143009464Y-70479006D01*
G37*
G36*
X141259464Y-70479006D02*
G01*
X141304004Y-70492517D01*
X141345046Y-70514455D01*
X141381021Y-70543979D01*
X141410545Y-70579954D01*
X141432483Y-70620996D01*
X141445994Y-70665536D01*
X141450800Y-70714333D01*
X141450800Y-71285667D01*
X141445994Y-71334464D01*
X141432483Y-71379004D01*
X141410545Y-71420046D01*
X141381021Y-71456021D01*
X141345046Y-71485545D01*
X141304004Y-71507483D01*
X141259464Y-71520994D01*
X141210667Y-71525800D01*
X140539333Y-71525800D01*
X140490536Y-71520994D01*
X140445996Y-71507483D01*
X140404954Y-71485545D01*
X140368979Y-71456021D01*
X140339455Y-71420046D01*
X140317517Y-71379004D01*
X140304006Y-71334464D01*
X140299200Y-71285667D01*
X140299200Y-70714333D01*
X140304006Y-70665536D01*
X140317517Y-70620996D01*
X140339455Y-70579954D01*
X140368979Y-70543979D01*
X140404954Y-70514455D01*
X140445996Y-70492517D01*
X140490536Y-70479006D01*
X140539333Y-70474200D01*
X141210667Y-70474200D01*
X141259464Y-70479006D01*
X141259464Y-70479006D01*
G37*
G36*
X146084464Y-69054006D02*
G01*
X146129004Y-69067517D01*
X146170046Y-69089455D01*
X146206021Y-69118979D01*
X146235545Y-69154954D01*
X146257483Y-69195996D01*
X146270994Y-69240536D01*
X146275800Y-69289333D01*
X146275800Y-69960667D01*
X146270994Y-70009464D01*
X146257483Y-70054004D01*
X146235545Y-70095046D01*
X146206021Y-70131021D01*
X146170046Y-70160545D01*
X146129004Y-70182483D01*
X146084464Y-70195994D01*
X146035667Y-70200800D01*
X145464333Y-70200800D01*
X145415536Y-70195994D01*
X145370996Y-70182483D01*
X145329954Y-70160545D01*
X145293979Y-70131021D01*
X145264455Y-70095046D01*
X145242517Y-70054004D01*
X145229006Y-70009464D01*
X145224200Y-69960667D01*
X145224200Y-69289333D01*
X145229006Y-69240536D01*
X145242517Y-69195996D01*
X145264455Y-69154954D01*
X145293979Y-69118979D01*
X145329954Y-69089455D01*
X145370996Y-69067517D01*
X145415536Y-69054006D01*
X145464333Y-69049200D01*
X146035667Y-69049200D01*
X146084464Y-69054006D01*
X146084464Y-69054006D01*
G37*
G36*
X138210387Y-67600404D02*
G01*
X138219750Y-67603244D01*
X138228377Y-67607855D01*
X138235939Y-67614061D01*
X138242145Y-67621623D01*
X138246756Y-67630250D01*
X138249596Y-67639613D01*
X138249744Y-67641111D01*
X138251676Y-67650820D01*
X138255464Y-67659966D01*
X138260964Y-67668197D01*
X138267964Y-67675197D01*
X138276195Y-67680697D01*
X138285341Y-67684486D01*
X138295050Y-67686417D01*
X138304950Y-67686417D01*
X138314659Y-67684485D01*
X138323805Y-67680697D01*
X138332036Y-67675197D01*
X138339036Y-67668197D01*
X138344536Y-67659966D01*
X138348325Y-67650820D01*
X138350256Y-67641111D01*
X138350404Y-67639613D01*
X138353244Y-67630250D01*
X138357855Y-67621623D01*
X138364061Y-67614061D01*
X138371623Y-67607855D01*
X138380250Y-67603244D01*
X138389613Y-67600404D01*
X138401833Y-67599200D01*
X138598167Y-67599200D01*
X138610387Y-67600404D01*
X138619750Y-67603244D01*
X138628377Y-67607855D01*
X138635939Y-67614061D01*
X138642145Y-67621623D01*
X138646756Y-67630250D01*
X138649596Y-67639613D01*
X138649744Y-67641111D01*
X138651676Y-67650820D01*
X138655464Y-67659966D01*
X138660964Y-67668197D01*
X138667964Y-67675197D01*
X138676195Y-67680697D01*
X138685341Y-67684486D01*
X138695050Y-67686417D01*
X138704950Y-67686417D01*
X138714659Y-67684485D01*
X138723805Y-67680697D01*
X138732036Y-67675197D01*
X138739036Y-67668197D01*
X138744536Y-67659966D01*
X138748325Y-67650820D01*
X138750256Y-67641111D01*
X138750404Y-67639613D01*
X138753244Y-67630250D01*
X138757855Y-67621623D01*
X138764061Y-67614061D01*
X138771623Y-67607855D01*
X138780250Y-67603244D01*
X138789613Y-67600404D01*
X138801833Y-67599200D01*
X138998167Y-67599200D01*
X139010387Y-67600404D01*
X139019750Y-67603244D01*
X139028377Y-67607855D01*
X139035939Y-67614061D01*
X139042145Y-67621623D01*
X139046756Y-67630250D01*
X139049596Y-67639613D01*
X139049744Y-67641111D01*
X139051676Y-67650820D01*
X139055464Y-67659966D01*
X139060964Y-67668197D01*
X139067964Y-67675197D01*
X139076195Y-67680697D01*
X139085341Y-67684486D01*
X139095050Y-67686417D01*
X139104950Y-67686417D01*
X139114659Y-67684485D01*
X139123805Y-67680697D01*
X139132036Y-67675197D01*
X139139036Y-67668197D01*
X139144536Y-67659966D01*
X139148325Y-67650820D01*
X139150256Y-67641111D01*
X139150404Y-67639613D01*
X139153244Y-67630250D01*
X139157855Y-67621623D01*
X139164061Y-67614061D01*
X139171623Y-67607855D01*
X139180250Y-67603244D01*
X139189613Y-67600404D01*
X139201833Y-67599200D01*
X139398167Y-67599200D01*
X139410387Y-67600404D01*
X139419750Y-67603244D01*
X139428377Y-67607855D01*
X139435939Y-67614061D01*
X139442145Y-67621623D01*
X139446756Y-67630250D01*
X139449596Y-67639613D01*
X139449744Y-67641111D01*
X139451676Y-67650820D01*
X139455464Y-67659966D01*
X139460964Y-67668197D01*
X139467964Y-67675197D01*
X139476195Y-67680697D01*
X139485341Y-67684486D01*
X139495050Y-67686417D01*
X139504950Y-67686417D01*
X139514659Y-67684485D01*
X139523805Y-67680697D01*
X139532036Y-67675197D01*
X139539036Y-67668197D01*
X139544536Y-67659966D01*
X139548325Y-67650820D01*
X139550256Y-67641111D01*
X139550404Y-67639613D01*
X139553244Y-67630250D01*
X139557855Y-67621623D01*
X139564061Y-67614061D01*
X139571623Y-67607855D01*
X139580250Y-67603244D01*
X139589613Y-67600404D01*
X139601833Y-67599200D01*
X139798167Y-67599200D01*
X139810387Y-67600404D01*
X139819750Y-67603244D01*
X139828377Y-67607855D01*
X139835939Y-67614061D01*
X139842145Y-67621623D01*
X139846756Y-67630250D01*
X139849596Y-67639613D01*
X139849744Y-67641111D01*
X139851676Y-67650820D01*
X139855464Y-67659966D01*
X139860964Y-67668197D01*
X139867964Y-67675197D01*
X139876195Y-67680697D01*
X139885341Y-67684486D01*
X139895050Y-67686417D01*
X139904950Y-67686417D01*
X139914659Y-67684485D01*
X139923805Y-67680697D01*
X139932036Y-67675197D01*
X139939036Y-67668197D01*
X139944536Y-67659966D01*
X139948325Y-67650820D01*
X139950256Y-67641111D01*
X139950404Y-67639613D01*
X139953244Y-67630250D01*
X139957855Y-67621623D01*
X139964061Y-67614061D01*
X139971623Y-67607855D01*
X139980250Y-67603244D01*
X139989613Y-67600404D01*
X140001833Y-67599200D01*
X140198167Y-67599200D01*
X140210387Y-67600404D01*
X140219750Y-67603244D01*
X140228377Y-67607855D01*
X140235939Y-67614061D01*
X140242145Y-67621623D01*
X140246756Y-67630250D01*
X140249596Y-67639613D01*
X140249744Y-67641111D01*
X140251676Y-67650820D01*
X140255464Y-67659966D01*
X140260964Y-67668197D01*
X140267964Y-67675197D01*
X140276195Y-67680697D01*
X140285341Y-67684486D01*
X140295050Y-67686417D01*
X140304950Y-67686417D01*
X140314659Y-67684485D01*
X140323805Y-67680697D01*
X140332036Y-67675197D01*
X140339036Y-67668197D01*
X140344536Y-67659966D01*
X140348325Y-67650820D01*
X140350256Y-67641111D01*
X140350404Y-67639613D01*
X140353244Y-67630250D01*
X140357855Y-67621623D01*
X140364061Y-67614061D01*
X140371623Y-67607855D01*
X140380250Y-67603244D01*
X140389613Y-67600404D01*
X140401833Y-67599200D01*
X140598167Y-67599200D01*
X140610387Y-67600404D01*
X140619750Y-67603244D01*
X140628377Y-67607855D01*
X140635939Y-67614061D01*
X140642145Y-67621623D01*
X140646756Y-67630250D01*
X140649596Y-67639613D01*
X140649744Y-67641111D01*
X140651676Y-67650820D01*
X140655464Y-67659966D01*
X140660964Y-67668197D01*
X140667964Y-67675197D01*
X140676195Y-67680697D01*
X140685341Y-67684486D01*
X140695050Y-67686417D01*
X140704950Y-67686417D01*
X140714659Y-67684485D01*
X140723805Y-67680697D01*
X140732036Y-67675197D01*
X140739036Y-67668197D01*
X140744536Y-67659966D01*
X140748325Y-67650820D01*
X140750256Y-67641111D01*
X140750404Y-67639613D01*
X140753244Y-67630250D01*
X140757855Y-67621623D01*
X140764061Y-67614061D01*
X140771623Y-67607855D01*
X140780250Y-67603244D01*
X140789613Y-67600404D01*
X140801833Y-67599200D01*
X140998167Y-67599200D01*
X141010387Y-67600404D01*
X141019750Y-67603244D01*
X141028377Y-67607855D01*
X141035939Y-67614061D01*
X141042145Y-67621623D01*
X141046756Y-67630250D01*
X141049596Y-67639613D01*
X141050800Y-67651833D01*
X141050800Y-69048167D01*
X141049596Y-69060387D01*
X141046756Y-69069750D01*
X141042145Y-69078377D01*
X141035939Y-69085939D01*
X141028377Y-69092145D01*
X141019750Y-69096756D01*
X141010387Y-69099596D01*
X140998167Y-69100800D01*
X140801833Y-69100800D01*
X140789613Y-69099596D01*
X140780250Y-69096756D01*
X140771623Y-69092145D01*
X140764061Y-69085939D01*
X140757855Y-69078377D01*
X140753244Y-69069750D01*
X140750404Y-69060387D01*
X140750256Y-69058889D01*
X140748324Y-69049180D01*
X140744536Y-69040034D01*
X140739036Y-69031803D01*
X140732036Y-69024803D01*
X140723805Y-69019303D01*
X140714659Y-69015514D01*
X140704950Y-69013583D01*
X140695050Y-69013583D01*
X140685341Y-69015515D01*
X140676195Y-69019303D01*
X140667964Y-69024803D01*
X140660964Y-69031803D01*
X140655464Y-69040034D01*
X140651675Y-69049180D01*
X140649744Y-69058889D01*
X140649596Y-69060387D01*
X140646756Y-69069750D01*
X140642145Y-69078377D01*
X140635939Y-69085939D01*
X140628377Y-69092145D01*
X140619750Y-69096756D01*
X140610387Y-69099596D01*
X140598167Y-69100800D01*
X140401833Y-69100800D01*
X140389613Y-69099596D01*
X140380250Y-69096756D01*
X140371623Y-69092145D01*
X140364061Y-69085939D01*
X140357855Y-69078377D01*
X140353244Y-69069750D01*
X140350404Y-69060387D01*
X140350256Y-69058889D01*
X140348324Y-69049180D01*
X140344536Y-69040034D01*
X140339036Y-69031803D01*
X140332036Y-69024803D01*
X140323805Y-69019303D01*
X140314659Y-69015514D01*
X140304950Y-69013583D01*
X140295050Y-69013583D01*
X140285341Y-69015515D01*
X140276195Y-69019303D01*
X140267964Y-69024803D01*
X140260964Y-69031803D01*
X140255464Y-69040034D01*
X140251675Y-69049180D01*
X140249744Y-69058889D01*
X140249596Y-69060387D01*
X140246756Y-69069750D01*
X140242145Y-69078377D01*
X140235939Y-69085939D01*
X140228377Y-69092145D01*
X140219750Y-69096756D01*
X140210387Y-69099596D01*
X140198167Y-69100800D01*
X140001833Y-69100800D01*
X139989613Y-69099596D01*
X139980250Y-69096756D01*
X139971623Y-69092145D01*
X139964061Y-69085939D01*
X139957855Y-69078377D01*
X139953244Y-69069750D01*
X139950404Y-69060387D01*
X139950256Y-69058889D01*
X139948324Y-69049180D01*
X139944536Y-69040034D01*
X139939036Y-69031803D01*
X139932036Y-69024803D01*
X139923805Y-69019303D01*
X139914659Y-69015514D01*
X139904950Y-69013583D01*
X139895050Y-69013583D01*
X139885341Y-69015515D01*
X139876195Y-69019303D01*
X139867964Y-69024803D01*
X139860964Y-69031803D01*
X139855464Y-69040034D01*
X139851675Y-69049180D01*
X139849744Y-69058889D01*
X139849596Y-69060387D01*
X139846756Y-69069750D01*
X139842145Y-69078377D01*
X139835939Y-69085939D01*
X139828377Y-69092145D01*
X139819750Y-69096756D01*
X139810387Y-69099596D01*
X139798167Y-69100800D01*
X139601833Y-69100800D01*
X139589613Y-69099596D01*
X139580250Y-69096756D01*
X139571623Y-69092145D01*
X139564061Y-69085939D01*
X139557855Y-69078377D01*
X139553244Y-69069750D01*
X139550404Y-69060387D01*
X139550256Y-69058889D01*
X139548324Y-69049180D01*
X139544536Y-69040034D01*
X139539036Y-69031803D01*
X139532036Y-69024803D01*
X139523805Y-69019303D01*
X139514659Y-69015514D01*
X139504950Y-69013583D01*
X139495050Y-69013583D01*
X139485341Y-69015515D01*
X139476195Y-69019303D01*
X139467964Y-69024803D01*
X139460964Y-69031803D01*
X139455464Y-69040034D01*
X139451675Y-69049180D01*
X139449744Y-69058889D01*
X139449596Y-69060387D01*
X139446756Y-69069750D01*
X139442145Y-69078377D01*
X139435939Y-69085939D01*
X139428377Y-69092145D01*
X139419750Y-69096756D01*
X139410387Y-69099596D01*
X139398167Y-69100800D01*
X139201833Y-69100800D01*
X139189613Y-69099596D01*
X139180250Y-69096756D01*
X139171623Y-69092145D01*
X139164061Y-69085939D01*
X139157855Y-69078377D01*
X139153244Y-69069750D01*
X139150404Y-69060387D01*
X139150256Y-69058889D01*
X139148324Y-69049180D01*
X139144536Y-69040034D01*
X139139036Y-69031803D01*
X139132036Y-69024803D01*
X139123805Y-69019303D01*
X139114659Y-69015514D01*
X139104950Y-69013583D01*
X139095050Y-69013583D01*
X139085341Y-69015515D01*
X139076195Y-69019303D01*
X139067964Y-69024803D01*
X139060964Y-69031803D01*
X139055464Y-69040034D01*
X139051675Y-69049180D01*
X139049744Y-69058889D01*
X139049596Y-69060387D01*
X139046756Y-69069750D01*
X139042145Y-69078377D01*
X139035939Y-69085939D01*
X139028377Y-69092145D01*
X139019750Y-69096756D01*
X139010387Y-69099596D01*
X138998167Y-69100800D01*
X138801833Y-69100800D01*
X138789613Y-69099596D01*
X138780250Y-69096756D01*
X138771623Y-69092145D01*
X138764061Y-69085939D01*
X138757855Y-69078377D01*
X138753244Y-69069750D01*
X138750404Y-69060387D01*
X138750256Y-69058889D01*
X138748324Y-69049180D01*
X138744536Y-69040034D01*
X138739036Y-69031803D01*
X138732036Y-69024803D01*
X138723805Y-69019303D01*
X138714659Y-69015514D01*
X138704950Y-69013583D01*
X138695050Y-69013583D01*
X138685341Y-69015515D01*
X138676195Y-69019303D01*
X138667964Y-69024803D01*
X138660964Y-69031803D01*
X138655464Y-69040034D01*
X138651675Y-69049180D01*
X138649744Y-69058889D01*
X138649596Y-69060387D01*
X138646756Y-69069750D01*
X138642145Y-69078377D01*
X138635939Y-69085939D01*
X138628377Y-69092145D01*
X138619750Y-69096756D01*
X138610387Y-69099596D01*
X138598167Y-69100800D01*
X138401833Y-69100800D01*
X138389613Y-69099596D01*
X138380250Y-69096756D01*
X138371623Y-69092145D01*
X138364061Y-69085939D01*
X138357855Y-69078377D01*
X138353244Y-69069750D01*
X138350404Y-69060387D01*
X138350256Y-69058889D01*
X138348324Y-69049180D01*
X138344536Y-69040034D01*
X138339036Y-69031803D01*
X138332036Y-69024803D01*
X138323805Y-69019303D01*
X138314659Y-69015514D01*
X138304950Y-69013583D01*
X138295050Y-69013583D01*
X138285341Y-69015515D01*
X138276195Y-69019303D01*
X138267964Y-69024803D01*
X138260964Y-69031803D01*
X138255464Y-69040034D01*
X138251675Y-69049180D01*
X138249744Y-69058889D01*
X138249596Y-69060387D01*
X138246756Y-69069750D01*
X138242145Y-69078377D01*
X138235939Y-69085939D01*
X138228377Y-69092145D01*
X138219750Y-69096756D01*
X138210387Y-69099596D01*
X138198167Y-69100800D01*
X138001833Y-69100800D01*
X137989613Y-69099596D01*
X137980250Y-69096756D01*
X137971623Y-69092145D01*
X137964061Y-69085939D01*
X137957855Y-69078377D01*
X137953244Y-69069750D01*
X137950404Y-69060387D01*
X137949200Y-69048167D01*
X137949200Y-67651833D01*
X137950404Y-67639613D01*
X137953244Y-67630250D01*
X137957855Y-67621623D01*
X137964061Y-67614061D01*
X137971623Y-67607855D01*
X137980250Y-67603244D01*
X137989613Y-67600404D01*
X138001833Y-67599200D01*
X138198167Y-67599200D01*
X138210387Y-67600404D01*
X138210387Y-67600404D01*
G37*
G36*
X133334464Y-66554006D02*
G01*
X133379004Y-66567517D01*
X133420046Y-66589455D01*
X133456021Y-66618979D01*
X133485545Y-66654954D01*
X133507483Y-66695996D01*
X133520994Y-66740536D01*
X133525800Y-66789333D01*
X133525800Y-67460667D01*
X133520994Y-67509464D01*
X133507483Y-67554004D01*
X133485545Y-67595046D01*
X133456021Y-67631021D01*
X133420046Y-67660545D01*
X133379004Y-67682483D01*
X133334464Y-67695994D01*
X133285667Y-67700800D01*
X132714333Y-67700800D01*
X132665536Y-67695994D01*
X132620996Y-67682483D01*
X132579954Y-67660545D01*
X132543979Y-67631021D01*
X132514455Y-67595046D01*
X132492517Y-67554004D01*
X132479006Y-67509464D01*
X132474200Y-67460667D01*
X132474200Y-66789333D01*
X132479006Y-66740536D01*
X132492517Y-66695996D01*
X132514455Y-66654954D01*
X132543979Y-66618979D01*
X132579954Y-66589455D01*
X132620996Y-66567517D01*
X132665536Y-66554006D01*
X132714333Y-66549200D01*
X133285667Y-66549200D01*
X133334464Y-66554006D01*
X133334464Y-66554006D01*
G37*
G36*
X142560387Y-64450404D02*
G01*
X142569750Y-64453244D01*
X142578377Y-64457855D01*
X142585939Y-64464061D01*
X142592145Y-64471623D01*
X142596756Y-64480250D01*
X142599596Y-64489613D01*
X142600800Y-64501833D01*
X142600800Y-64698167D01*
X142599596Y-64710387D01*
X142596756Y-64719750D01*
X142592145Y-64728377D01*
X142585939Y-64735939D01*
X142578377Y-64742145D01*
X142569750Y-64746756D01*
X142560387Y-64749596D01*
X142558889Y-64749744D01*
X142549180Y-64751676D01*
X142540034Y-64755464D01*
X142531803Y-64760964D01*
X142524803Y-64767964D01*
X142519303Y-64776195D01*
X142515514Y-64785341D01*
X142513583Y-64795050D01*
X142513583Y-64804950D01*
X142515515Y-64814659D01*
X142519303Y-64823805D01*
X142524803Y-64832036D01*
X142531803Y-64839036D01*
X142540034Y-64844536D01*
X142549180Y-64848325D01*
X142558889Y-64850256D01*
X142560387Y-64850404D01*
X142569750Y-64853244D01*
X142578377Y-64857855D01*
X142585939Y-64864061D01*
X142592145Y-64871623D01*
X142596756Y-64880250D01*
X142599596Y-64889613D01*
X142600800Y-64901833D01*
X142600800Y-65098167D01*
X142599596Y-65110387D01*
X142596756Y-65119750D01*
X142592145Y-65128377D01*
X142585939Y-65135939D01*
X142578377Y-65142145D01*
X142569750Y-65146756D01*
X142560387Y-65149596D01*
X142558889Y-65149744D01*
X142549180Y-65151676D01*
X142540034Y-65155464D01*
X142531803Y-65160964D01*
X142524803Y-65167964D01*
X142519303Y-65176195D01*
X142515514Y-65185341D01*
X142513583Y-65195050D01*
X142513583Y-65204950D01*
X142515515Y-65214659D01*
X142519303Y-65223805D01*
X142524803Y-65232036D01*
X142531803Y-65239036D01*
X142540034Y-65244536D01*
X142549180Y-65248325D01*
X142558889Y-65250256D01*
X142560387Y-65250404D01*
X142569750Y-65253244D01*
X142578377Y-65257855D01*
X142585939Y-65264061D01*
X142592145Y-65271623D01*
X142596756Y-65280250D01*
X142599596Y-65289613D01*
X142600800Y-65301833D01*
X142600800Y-65498167D01*
X142599596Y-65510387D01*
X142596756Y-65519750D01*
X142592145Y-65528377D01*
X142585939Y-65535939D01*
X142578377Y-65542145D01*
X142569750Y-65546756D01*
X142560387Y-65549596D01*
X142558889Y-65549744D01*
X142549180Y-65551676D01*
X142540034Y-65555464D01*
X142531803Y-65560964D01*
X142524803Y-65567964D01*
X142519303Y-65576195D01*
X142515514Y-65585341D01*
X142513583Y-65595050D01*
X142513583Y-65604950D01*
X142515515Y-65614659D01*
X142519303Y-65623805D01*
X142524803Y-65632036D01*
X142531803Y-65639036D01*
X142540034Y-65644536D01*
X142549180Y-65648325D01*
X142558889Y-65650256D01*
X142560387Y-65650404D01*
X142569750Y-65653244D01*
X142578377Y-65657855D01*
X142585939Y-65664061D01*
X142592145Y-65671623D01*
X142596756Y-65680250D01*
X142599596Y-65689613D01*
X142600800Y-65701833D01*
X142600800Y-65898167D01*
X142599596Y-65910387D01*
X142596756Y-65919750D01*
X142592145Y-65928377D01*
X142585939Y-65935939D01*
X142578377Y-65942145D01*
X142569750Y-65946756D01*
X142560387Y-65949596D01*
X142558889Y-65949744D01*
X142549180Y-65951676D01*
X142540034Y-65955464D01*
X142531803Y-65960964D01*
X142524803Y-65967964D01*
X142519303Y-65976195D01*
X142515514Y-65985341D01*
X142513583Y-65995050D01*
X142513583Y-66004950D01*
X142515515Y-66014659D01*
X142519303Y-66023805D01*
X142524803Y-66032036D01*
X142531803Y-66039036D01*
X142540034Y-66044536D01*
X142549180Y-66048325D01*
X142558889Y-66050256D01*
X142560387Y-66050404D01*
X142569750Y-66053244D01*
X142578377Y-66057855D01*
X142585939Y-66064061D01*
X142592145Y-66071623D01*
X142596756Y-66080250D01*
X142599596Y-66089613D01*
X142600800Y-66101833D01*
X142600800Y-66298167D01*
X142599596Y-66310387D01*
X142596756Y-66319750D01*
X142592145Y-66328377D01*
X142585939Y-66335939D01*
X142578377Y-66342145D01*
X142569750Y-66346756D01*
X142560387Y-66349596D01*
X142558889Y-66349744D01*
X142549180Y-66351676D01*
X142540034Y-66355464D01*
X142531803Y-66360964D01*
X142524803Y-66367964D01*
X142519303Y-66376195D01*
X142515514Y-66385341D01*
X142513583Y-66395050D01*
X142513583Y-66404950D01*
X142515515Y-66414659D01*
X142519303Y-66423805D01*
X142524803Y-66432036D01*
X142531803Y-66439036D01*
X142540034Y-66444536D01*
X142549180Y-66448325D01*
X142558889Y-66450256D01*
X142560387Y-66450404D01*
X142569750Y-66453244D01*
X142578377Y-66457855D01*
X142585939Y-66464061D01*
X142592145Y-66471623D01*
X142596756Y-66480250D01*
X142599596Y-66489613D01*
X142600800Y-66501833D01*
X142600800Y-66698167D01*
X142599596Y-66710387D01*
X142596756Y-66719750D01*
X142592145Y-66728377D01*
X142585939Y-66735939D01*
X142578377Y-66742145D01*
X142569750Y-66746756D01*
X142560387Y-66749596D01*
X142558889Y-66749744D01*
X142549180Y-66751676D01*
X142540034Y-66755464D01*
X142531803Y-66760964D01*
X142524803Y-66767964D01*
X142519303Y-66776195D01*
X142515514Y-66785341D01*
X142513583Y-66795050D01*
X142513583Y-66804950D01*
X142515515Y-66814659D01*
X142519303Y-66823805D01*
X142524803Y-66832036D01*
X142531803Y-66839036D01*
X142540034Y-66844536D01*
X142549180Y-66848325D01*
X142558889Y-66850256D01*
X142560387Y-66850404D01*
X142569750Y-66853244D01*
X142578377Y-66857855D01*
X142585939Y-66864061D01*
X142592145Y-66871623D01*
X142596756Y-66880250D01*
X142599596Y-66889613D01*
X142600800Y-66901833D01*
X142600800Y-67098167D01*
X142599596Y-67110387D01*
X142596756Y-67119750D01*
X142592145Y-67128377D01*
X142585939Y-67135939D01*
X142578377Y-67142145D01*
X142569750Y-67146756D01*
X142560387Y-67149596D01*
X142558889Y-67149744D01*
X142549180Y-67151676D01*
X142540034Y-67155464D01*
X142531803Y-67160964D01*
X142524803Y-67167964D01*
X142519303Y-67176195D01*
X142515514Y-67185341D01*
X142513583Y-67195050D01*
X142513583Y-67204950D01*
X142515515Y-67214659D01*
X142519303Y-67223805D01*
X142524803Y-67232036D01*
X142531803Y-67239036D01*
X142540034Y-67244536D01*
X142549180Y-67248325D01*
X142558889Y-67250256D01*
X142560387Y-67250404D01*
X142569750Y-67253244D01*
X142578377Y-67257855D01*
X142585939Y-67264061D01*
X142592145Y-67271623D01*
X142596756Y-67280250D01*
X142599596Y-67289613D01*
X142600800Y-67301833D01*
X142600800Y-67498167D01*
X142599596Y-67510387D01*
X142596756Y-67519750D01*
X142592145Y-67528377D01*
X142585939Y-67535939D01*
X142578377Y-67542145D01*
X142569750Y-67546756D01*
X142560387Y-67549596D01*
X142548167Y-67550800D01*
X141151833Y-67550800D01*
X141139613Y-67549596D01*
X141130250Y-67546756D01*
X141121623Y-67542145D01*
X141114061Y-67535939D01*
X141107855Y-67528377D01*
X141103244Y-67519750D01*
X141100404Y-67510387D01*
X141099200Y-67498167D01*
X141099200Y-67301833D01*
X141100404Y-67289613D01*
X141103244Y-67280250D01*
X141107855Y-67271623D01*
X141114061Y-67264061D01*
X141121623Y-67257855D01*
X141130250Y-67253244D01*
X141139613Y-67250404D01*
X141141111Y-67250256D01*
X141150820Y-67248324D01*
X141159966Y-67244536D01*
X141168197Y-67239036D01*
X141175197Y-67232036D01*
X141180697Y-67223805D01*
X141184486Y-67214659D01*
X141186417Y-67204950D01*
X141186417Y-67195050D01*
X141184485Y-67185341D01*
X141180697Y-67176195D01*
X141175197Y-67167964D01*
X141168197Y-67160964D01*
X141159966Y-67155464D01*
X141150820Y-67151675D01*
X141141111Y-67149744D01*
X141139613Y-67149596D01*
X141130250Y-67146756D01*
X141121623Y-67142145D01*
X141114061Y-67135939D01*
X141107855Y-67128377D01*
X141103244Y-67119750D01*
X141100404Y-67110387D01*
X141099200Y-67098167D01*
X141099200Y-66901833D01*
X141100404Y-66889613D01*
X141103244Y-66880250D01*
X141107855Y-66871623D01*
X141114061Y-66864061D01*
X141121623Y-66857855D01*
X141130250Y-66853244D01*
X141139613Y-66850404D01*
X141141111Y-66850256D01*
X141150820Y-66848324D01*
X141159966Y-66844536D01*
X141168197Y-66839036D01*
X141175197Y-66832036D01*
X141180697Y-66823805D01*
X141184486Y-66814659D01*
X141186417Y-66804950D01*
X141186417Y-66795050D01*
X141184485Y-66785341D01*
X141180697Y-66776195D01*
X141175197Y-66767964D01*
X141168197Y-66760964D01*
X141159966Y-66755464D01*
X141150820Y-66751675D01*
X141141111Y-66749744D01*
X141139613Y-66749596D01*
X141130250Y-66746756D01*
X141121623Y-66742145D01*
X141114061Y-66735939D01*
X141107855Y-66728377D01*
X141103244Y-66719750D01*
X141100404Y-66710387D01*
X141099200Y-66698167D01*
X141099200Y-66501833D01*
X141100404Y-66489613D01*
X141103244Y-66480250D01*
X141107855Y-66471623D01*
X141114061Y-66464061D01*
X141121623Y-66457855D01*
X141130250Y-66453244D01*
X141139613Y-66450404D01*
X141141111Y-66450256D01*
X141150820Y-66448324D01*
X141159966Y-66444536D01*
X141168197Y-66439036D01*
X141175197Y-66432036D01*
X141180697Y-66423805D01*
X141184486Y-66414659D01*
X141186417Y-66404950D01*
X141186417Y-66395050D01*
X141184485Y-66385341D01*
X141180697Y-66376195D01*
X141175197Y-66367964D01*
X141168197Y-66360964D01*
X141159966Y-66355464D01*
X141150820Y-66351675D01*
X141141111Y-66349744D01*
X141139613Y-66349596D01*
X141130250Y-66346756D01*
X141121623Y-66342145D01*
X141114061Y-66335939D01*
X141107855Y-66328377D01*
X141103244Y-66319750D01*
X141100404Y-66310387D01*
X141099200Y-66298167D01*
X141099200Y-66101833D01*
X141100404Y-66089613D01*
X141103244Y-66080250D01*
X141107855Y-66071623D01*
X141114061Y-66064061D01*
X141121623Y-66057855D01*
X141130250Y-66053244D01*
X141139613Y-66050404D01*
X141141111Y-66050256D01*
X141150820Y-66048324D01*
X141159966Y-66044536D01*
X141168197Y-66039036D01*
X141175197Y-66032036D01*
X141180697Y-66023805D01*
X141184486Y-66014659D01*
X141186417Y-66004950D01*
X141186417Y-65995050D01*
X141184485Y-65985341D01*
X141180697Y-65976195D01*
X141175197Y-65967964D01*
X141168197Y-65960964D01*
X141159966Y-65955464D01*
X141150820Y-65951675D01*
X141141111Y-65949744D01*
X141139613Y-65949596D01*
X141130250Y-65946756D01*
X141121623Y-65942145D01*
X141114061Y-65935939D01*
X141107855Y-65928377D01*
X141103244Y-65919750D01*
X141100404Y-65910387D01*
X141099200Y-65898167D01*
X141099200Y-65701833D01*
X141100404Y-65689613D01*
X141103244Y-65680250D01*
X141107855Y-65671623D01*
X141114061Y-65664061D01*
X141121623Y-65657855D01*
X141130250Y-65653244D01*
X141139613Y-65650404D01*
X141141111Y-65650256D01*
X141150820Y-65648324D01*
X141159966Y-65644536D01*
X141168197Y-65639036D01*
X141175197Y-65632036D01*
X141180697Y-65623805D01*
X141184486Y-65614659D01*
X141186417Y-65604950D01*
X141186417Y-65595050D01*
X141184485Y-65585341D01*
X141180697Y-65576195D01*
X141175197Y-65567964D01*
X141168197Y-65560964D01*
X141159966Y-65555464D01*
X141150820Y-65551675D01*
X141141111Y-65549744D01*
X141139613Y-65549596D01*
X141130250Y-65546756D01*
X141121623Y-65542145D01*
X141114061Y-65535939D01*
X141107855Y-65528377D01*
X141103244Y-65519750D01*
X141100404Y-65510387D01*
X141099200Y-65498167D01*
X141099200Y-65301833D01*
X141100404Y-65289613D01*
X141103244Y-65280250D01*
X141107855Y-65271623D01*
X141114061Y-65264061D01*
X141121623Y-65257855D01*
X141130250Y-65253244D01*
X141139613Y-65250404D01*
X141141111Y-65250256D01*
X141150820Y-65248324D01*
X141159966Y-65244536D01*
X141168197Y-65239036D01*
X141175197Y-65232036D01*
X141180697Y-65223805D01*
X141184486Y-65214659D01*
X141186417Y-65204950D01*
X141186417Y-65195050D01*
X141184485Y-65185341D01*
X141180697Y-65176195D01*
X141175197Y-65167964D01*
X141168197Y-65160964D01*
X141159966Y-65155464D01*
X141150820Y-65151675D01*
X141141111Y-65149744D01*
X141139613Y-65149596D01*
X141130250Y-65146756D01*
X141121623Y-65142145D01*
X141114061Y-65135939D01*
X141107855Y-65128377D01*
X141103244Y-65119750D01*
X141100404Y-65110387D01*
X141099200Y-65098167D01*
X141099200Y-64901833D01*
X141100404Y-64889613D01*
X141103244Y-64880250D01*
X141107855Y-64871623D01*
X141114061Y-64864061D01*
X141121623Y-64857855D01*
X141130250Y-64853244D01*
X141139613Y-64850404D01*
X141141111Y-64850256D01*
X141150820Y-64848324D01*
X141159966Y-64844536D01*
X141168197Y-64839036D01*
X141175197Y-64832036D01*
X141180697Y-64823805D01*
X141184486Y-64814659D01*
X141186417Y-64804950D01*
X141186417Y-64795050D01*
X141184485Y-64785341D01*
X141180697Y-64776195D01*
X141175197Y-64767964D01*
X141168197Y-64760964D01*
X141159966Y-64755464D01*
X141150820Y-64751675D01*
X141141111Y-64749744D01*
X141139613Y-64749596D01*
X141130250Y-64746756D01*
X141121623Y-64742145D01*
X141114061Y-64735939D01*
X141107855Y-64728377D01*
X141103244Y-64719750D01*
X141100404Y-64710387D01*
X141099200Y-64698167D01*
X141099200Y-64501833D01*
X141100404Y-64489613D01*
X141103244Y-64480250D01*
X141107855Y-64471623D01*
X141114061Y-64464061D01*
X141121623Y-64457855D01*
X141130250Y-64453244D01*
X141139613Y-64450404D01*
X141151833Y-64449200D01*
X142548167Y-64449200D01*
X142560387Y-64450404D01*
X142560387Y-64450404D01*
G37*
G36*
X137860387Y-64450404D02*
G01*
X137869750Y-64453244D01*
X137878377Y-64457855D01*
X137885939Y-64464061D01*
X137892145Y-64471623D01*
X137896756Y-64480250D01*
X137899596Y-64489613D01*
X137900800Y-64501833D01*
X137900800Y-64698167D01*
X137899596Y-64710387D01*
X137896756Y-64719750D01*
X137892145Y-64728377D01*
X137885939Y-64735939D01*
X137878377Y-64742145D01*
X137869750Y-64746756D01*
X137860387Y-64749596D01*
X137858889Y-64749744D01*
X137849180Y-64751676D01*
X137840034Y-64755464D01*
X137831803Y-64760964D01*
X137824803Y-64767964D01*
X137819303Y-64776195D01*
X137815514Y-64785341D01*
X137813583Y-64795050D01*
X137813583Y-64804950D01*
X137815515Y-64814659D01*
X137819303Y-64823805D01*
X137824803Y-64832036D01*
X137831803Y-64839036D01*
X137840034Y-64844536D01*
X137849180Y-64848325D01*
X137858889Y-64850256D01*
X137860387Y-64850404D01*
X137869750Y-64853244D01*
X137878377Y-64857855D01*
X137885939Y-64864061D01*
X137892145Y-64871623D01*
X137896756Y-64880250D01*
X137899596Y-64889613D01*
X137900800Y-64901833D01*
X137900800Y-65098167D01*
X137899596Y-65110387D01*
X137896756Y-65119750D01*
X137892145Y-65128377D01*
X137885939Y-65135939D01*
X137878377Y-65142145D01*
X137869750Y-65146756D01*
X137860387Y-65149596D01*
X137858889Y-65149744D01*
X137849180Y-65151676D01*
X137840034Y-65155464D01*
X137831803Y-65160964D01*
X137824803Y-65167964D01*
X137819303Y-65176195D01*
X137815514Y-65185341D01*
X137813583Y-65195050D01*
X137813583Y-65204950D01*
X137815515Y-65214659D01*
X137819303Y-65223805D01*
X137824803Y-65232036D01*
X137831803Y-65239036D01*
X137840034Y-65244536D01*
X137849180Y-65248325D01*
X137858889Y-65250256D01*
X137860387Y-65250404D01*
X137869750Y-65253244D01*
X137878377Y-65257855D01*
X137885939Y-65264061D01*
X137892145Y-65271623D01*
X137896756Y-65280250D01*
X137899596Y-65289613D01*
X137900800Y-65301833D01*
X137900800Y-65498167D01*
X137899596Y-65510387D01*
X137896756Y-65519750D01*
X137892145Y-65528377D01*
X137885939Y-65535939D01*
X137878377Y-65542145D01*
X137869750Y-65546756D01*
X137860387Y-65549596D01*
X137858889Y-65549744D01*
X137849180Y-65551676D01*
X137840034Y-65555464D01*
X137831803Y-65560964D01*
X137824803Y-65567964D01*
X137819303Y-65576195D01*
X137815514Y-65585341D01*
X137813583Y-65595050D01*
X137813583Y-65604950D01*
X137815515Y-65614659D01*
X137819303Y-65623805D01*
X137824803Y-65632036D01*
X137831803Y-65639036D01*
X137840034Y-65644536D01*
X137849180Y-65648325D01*
X137858889Y-65650256D01*
X137860387Y-65650404D01*
X137869750Y-65653244D01*
X137878377Y-65657855D01*
X137885939Y-65664061D01*
X137892145Y-65671623D01*
X137896756Y-65680250D01*
X137899596Y-65689613D01*
X137900800Y-65701833D01*
X137900800Y-65898167D01*
X137899596Y-65910387D01*
X137896756Y-65919750D01*
X137892145Y-65928377D01*
X137885939Y-65935939D01*
X137878377Y-65942145D01*
X137869750Y-65946756D01*
X137860387Y-65949596D01*
X137858889Y-65949744D01*
X137849180Y-65951676D01*
X137840034Y-65955464D01*
X137831803Y-65960964D01*
X137824803Y-65967964D01*
X137819303Y-65976195D01*
X137815514Y-65985341D01*
X137813583Y-65995050D01*
X137813583Y-66004950D01*
X137815515Y-66014659D01*
X137819303Y-66023805D01*
X137824803Y-66032036D01*
X137831803Y-66039036D01*
X137840034Y-66044536D01*
X137849180Y-66048325D01*
X137858889Y-66050256D01*
X137860387Y-66050404D01*
X137869750Y-66053244D01*
X137878377Y-66057855D01*
X137885939Y-66064061D01*
X137892145Y-66071623D01*
X137896756Y-66080250D01*
X137899596Y-66089613D01*
X137900800Y-66101833D01*
X137900800Y-66298167D01*
X137899596Y-66310387D01*
X137896756Y-66319750D01*
X137892145Y-66328377D01*
X137885939Y-66335939D01*
X137878377Y-66342145D01*
X137869750Y-66346756D01*
X137860387Y-66349596D01*
X137858889Y-66349744D01*
X137849180Y-66351676D01*
X137840034Y-66355464D01*
X137831803Y-66360964D01*
X137824803Y-66367964D01*
X137819303Y-66376195D01*
X137815514Y-66385341D01*
X137813583Y-66395050D01*
X137813583Y-66404950D01*
X137815515Y-66414659D01*
X137819303Y-66423805D01*
X137824803Y-66432036D01*
X137831803Y-66439036D01*
X137840034Y-66444536D01*
X137849180Y-66448325D01*
X137858889Y-66450256D01*
X137860387Y-66450404D01*
X137869750Y-66453244D01*
X137878377Y-66457855D01*
X137885939Y-66464061D01*
X137892145Y-66471623D01*
X137896756Y-66480250D01*
X137899596Y-66489613D01*
X137900800Y-66501833D01*
X137900800Y-66698167D01*
X137899596Y-66710387D01*
X137896756Y-66719750D01*
X137892145Y-66728377D01*
X137885939Y-66735939D01*
X137878377Y-66742145D01*
X137869750Y-66746756D01*
X137860387Y-66749596D01*
X137858889Y-66749744D01*
X137849180Y-66751676D01*
X137840034Y-66755464D01*
X137831803Y-66760964D01*
X137824803Y-66767964D01*
X137819303Y-66776195D01*
X137815514Y-66785341D01*
X137813583Y-66795050D01*
X137813583Y-66804950D01*
X137815515Y-66814659D01*
X137819303Y-66823805D01*
X137824803Y-66832036D01*
X137831803Y-66839036D01*
X137840034Y-66844536D01*
X137849180Y-66848325D01*
X137858889Y-66850256D01*
X137860387Y-66850404D01*
X137869750Y-66853244D01*
X137878377Y-66857855D01*
X137885939Y-66864061D01*
X137892145Y-66871623D01*
X137896756Y-66880250D01*
X137899596Y-66889613D01*
X137900800Y-66901833D01*
X137900800Y-67098167D01*
X137899596Y-67110387D01*
X137896756Y-67119750D01*
X137892145Y-67128377D01*
X137885939Y-67135939D01*
X137878377Y-67142145D01*
X137869750Y-67146756D01*
X137860387Y-67149596D01*
X137858889Y-67149744D01*
X137849180Y-67151676D01*
X137840034Y-67155464D01*
X137831803Y-67160964D01*
X137824803Y-67167964D01*
X137819303Y-67176195D01*
X137815514Y-67185341D01*
X137813583Y-67195050D01*
X137813583Y-67204950D01*
X137815515Y-67214659D01*
X137819303Y-67223805D01*
X137824803Y-67232036D01*
X137831803Y-67239036D01*
X137840034Y-67244536D01*
X137849180Y-67248325D01*
X137858889Y-67250256D01*
X137860387Y-67250404D01*
X137869750Y-67253244D01*
X137878377Y-67257855D01*
X137885939Y-67264061D01*
X137892145Y-67271623D01*
X137896756Y-67280250D01*
X137899596Y-67289613D01*
X137900800Y-67301833D01*
X137900800Y-67498167D01*
X137899596Y-67510387D01*
X137896756Y-67519750D01*
X137892145Y-67528377D01*
X137885939Y-67535939D01*
X137878377Y-67542145D01*
X137869750Y-67546756D01*
X137860387Y-67549596D01*
X137848167Y-67550800D01*
X136451833Y-67550800D01*
X136439613Y-67549596D01*
X136430250Y-67546756D01*
X136421623Y-67542145D01*
X136414061Y-67535939D01*
X136407855Y-67528377D01*
X136403244Y-67519750D01*
X136400404Y-67510387D01*
X136399200Y-67498167D01*
X136399200Y-67301833D01*
X136400404Y-67289613D01*
X136403244Y-67280250D01*
X136407855Y-67271623D01*
X136414061Y-67264061D01*
X136421623Y-67257855D01*
X136430250Y-67253244D01*
X136439613Y-67250404D01*
X136441111Y-67250256D01*
X136450820Y-67248324D01*
X136459966Y-67244536D01*
X136468197Y-67239036D01*
X136475197Y-67232036D01*
X136480697Y-67223805D01*
X136484486Y-67214659D01*
X136486417Y-67204950D01*
X136486417Y-67195050D01*
X136484485Y-67185341D01*
X136480697Y-67176195D01*
X136475197Y-67167964D01*
X136468197Y-67160964D01*
X136459966Y-67155464D01*
X136450820Y-67151675D01*
X136441111Y-67149744D01*
X136439613Y-67149596D01*
X136430250Y-67146756D01*
X136421623Y-67142145D01*
X136414061Y-67135939D01*
X136407855Y-67128377D01*
X136403244Y-67119750D01*
X136400404Y-67110387D01*
X136399200Y-67098167D01*
X136399200Y-66901833D01*
X136400404Y-66889613D01*
X136403244Y-66880250D01*
X136407855Y-66871623D01*
X136414061Y-66864061D01*
X136421623Y-66857855D01*
X136430250Y-66853244D01*
X136439613Y-66850404D01*
X136441111Y-66850256D01*
X136450820Y-66848324D01*
X136459966Y-66844536D01*
X136468197Y-66839036D01*
X136475197Y-66832036D01*
X136480697Y-66823805D01*
X136484486Y-66814659D01*
X136486417Y-66804950D01*
X136486417Y-66795050D01*
X136484485Y-66785341D01*
X136480697Y-66776195D01*
X136475197Y-66767964D01*
X136468197Y-66760964D01*
X136459966Y-66755464D01*
X136450820Y-66751675D01*
X136441111Y-66749744D01*
X136439613Y-66749596D01*
X136430250Y-66746756D01*
X136421623Y-66742145D01*
X136414061Y-66735939D01*
X136407855Y-66728377D01*
X136403244Y-66719750D01*
X136400404Y-66710387D01*
X136399200Y-66698167D01*
X136399200Y-66501833D01*
X136400404Y-66489613D01*
X136403244Y-66480250D01*
X136407855Y-66471623D01*
X136414061Y-66464061D01*
X136421623Y-66457855D01*
X136430250Y-66453244D01*
X136439613Y-66450404D01*
X136441111Y-66450256D01*
X136450820Y-66448324D01*
X136459966Y-66444536D01*
X136468197Y-66439036D01*
X136475197Y-66432036D01*
X136480697Y-66423805D01*
X136484486Y-66414659D01*
X136486417Y-66404950D01*
X136486417Y-66395050D01*
X136484485Y-66385341D01*
X136480697Y-66376195D01*
X136475197Y-66367964D01*
X136468197Y-66360964D01*
X136459966Y-66355464D01*
X136450820Y-66351675D01*
X136441111Y-66349744D01*
X136439613Y-66349596D01*
X136430250Y-66346756D01*
X136421623Y-66342145D01*
X136414061Y-66335939D01*
X136407855Y-66328377D01*
X136403244Y-66319750D01*
X136400404Y-66310387D01*
X136399200Y-66298167D01*
X136399200Y-66101833D01*
X136400404Y-66089613D01*
X136403244Y-66080250D01*
X136407855Y-66071623D01*
X136414061Y-66064061D01*
X136421623Y-66057855D01*
X136430250Y-66053244D01*
X136439613Y-66050404D01*
X136441111Y-66050256D01*
X136450820Y-66048324D01*
X136459966Y-66044536D01*
X136468197Y-66039036D01*
X136475197Y-66032036D01*
X136480697Y-66023805D01*
X136484486Y-66014659D01*
X136486417Y-66004950D01*
X136486417Y-65995050D01*
X136484485Y-65985341D01*
X136480697Y-65976195D01*
X136475197Y-65967964D01*
X136468197Y-65960964D01*
X136459966Y-65955464D01*
X136450820Y-65951675D01*
X136441111Y-65949744D01*
X136439613Y-65949596D01*
X136430250Y-65946756D01*
X136421623Y-65942145D01*
X136414061Y-65935939D01*
X136407855Y-65928377D01*
X136403244Y-65919750D01*
X136400404Y-65910387D01*
X136399200Y-65898167D01*
X136399200Y-65701833D01*
X136400404Y-65689613D01*
X136403244Y-65680250D01*
X136407855Y-65671623D01*
X136414061Y-65664061D01*
X136421623Y-65657855D01*
X136430250Y-65653244D01*
X136439613Y-65650404D01*
X136441111Y-65650256D01*
X136450820Y-65648324D01*
X136459966Y-65644536D01*
X136468197Y-65639036D01*
X136475197Y-65632036D01*
X136480697Y-65623805D01*
X136484486Y-65614659D01*
X136486417Y-65604950D01*
X136486417Y-65595050D01*
X136484485Y-65585341D01*
X136480697Y-65576195D01*
X136475197Y-65567964D01*
X136468197Y-65560964D01*
X136459966Y-65555464D01*
X136450820Y-65551675D01*
X136441111Y-65549744D01*
X136439613Y-65549596D01*
X136430250Y-65546756D01*
X136421623Y-65542145D01*
X136414061Y-65535939D01*
X136407855Y-65528377D01*
X136403244Y-65519750D01*
X136400404Y-65510387D01*
X136399200Y-65498167D01*
X136399200Y-65301833D01*
X136400404Y-65289613D01*
X136403244Y-65280250D01*
X136407855Y-65271623D01*
X136414061Y-65264061D01*
X136421623Y-65257855D01*
X136430250Y-65253244D01*
X136439613Y-65250404D01*
X136441111Y-65250256D01*
X136450820Y-65248324D01*
X136459966Y-65244536D01*
X136468197Y-65239036D01*
X136475197Y-65232036D01*
X136480697Y-65223805D01*
X136484486Y-65214659D01*
X136486417Y-65204950D01*
X136486417Y-65195050D01*
X136484485Y-65185341D01*
X136480697Y-65176195D01*
X136475197Y-65167964D01*
X136468197Y-65160964D01*
X136459966Y-65155464D01*
X136450820Y-65151675D01*
X136441111Y-65149744D01*
X136439613Y-65149596D01*
X136430250Y-65146756D01*
X136421623Y-65142145D01*
X136414061Y-65135939D01*
X136407855Y-65128377D01*
X136403244Y-65119750D01*
X136400404Y-65110387D01*
X136399200Y-65098167D01*
X136399200Y-64901833D01*
X136400404Y-64889613D01*
X136403244Y-64880250D01*
X136407855Y-64871623D01*
X136414061Y-64864061D01*
X136421623Y-64857855D01*
X136430250Y-64853244D01*
X136439613Y-64850404D01*
X136441111Y-64850256D01*
X136450820Y-64848324D01*
X136459966Y-64844536D01*
X136468197Y-64839036D01*
X136475197Y-64832036D01*
X136480697Y-64823805D01*
X136484486Y-64814659D01*
X136486417Y-64804950D01*
X136486417Y-64795050D01*
X136484485Y-64785341D01*
X136480697Y-64776195D01*
X136475197Y-64767964D01*
X136468197Y-64760964D01*
X136459966Y-64755464D01*
X136450820Y-64751675D01*
X136441111Y-64749744D01*
X136439613Y-64749596D01*
X136430250Y-64746756D01*
X136421623Y-64742145D01*
X136414061Y-64735939D01*
X136407855Y-64728377D01*
X136403244Y-64719750D01*
X136400404Y-64710387D01*
X136399200Y-64698167D01*
X136399200Y-64501833D01*
X136400404Y-64489613D01*
X136403244Y-64480250D01*
X136407855Y-64471623D01*
X136414061Y-64464061D01*
X136421623Y-64457855D01*
X136430250Y-64453244D01*
X136439613Y-64450404D01*
X136451833Y-64449200D01*
X137848167Y-64449200D01*
X137860387Y-64450404D01*
X137860387Y-64450404D01*
G37*
G36*
X140783552Y-64553431D02*
G01*
X140822478Y-64565239D01*
X140858343Y-64584409D01*
X140889786Y-64610214D01*
X140915591Y-64641657D01*
X140934761Y-64677522D01*
X140946569Y-64716448D01*
X140950800Y-64759407D01*
X140950800Y-67240593D01*
X140946569Y-67283552D01*
X140934761Y-67322478D01*
X140915591Y-67358343D01*
X140889786Y-67389786D01*
X140858343Y-67415591D01*
X140822478Y-67434761D01*
X140783552Y-67446569D01*
X140740593Y-67450800D01*
X138259407Y-67450800D01*
X138216448Y-67446569D01*
X138177522Y-67434761D01*
X138141657Y-67415591D01*
X138110214Y-67389786D01*
X138084409Y-67358343D01*
X138065239Y-67322478D01*
X138053431Y-67283552D01*
X138049200Y-67240593D01*
X138049200Y-64759407D01*
X138053431Y-64716448D01*
X138065239Y-64677522D01*
X138084409Y-64641657D01*
X138110214Y-64610214D01*
X138141657Y-64584409D01*
X138177522Y-64565239D01*
X138216448Y-64553431D01*
X138259407Y-64549200D01*
X140740593Y-64549200D01*
X140783552Y-64553431D01*
X140783552Y-64553431D01*
G37*
G36*
X133334464Y-64804006D02*
G01*
X133379004Y-64817517D01*
X133420046Y-64839455D01*
X133456021Y-64868979D01*
X133485545Y-64904954D01*
X133507483Y-64945996D01*
X133520994Y-64990536D01*
X133525800Y-65039333D01*
X133525800Y-65710667D01*
X133520994Y-65759464D01*
X133507483Y-65804004D01*
X133485545Y-65845046D01*
X133456021Y-65881021D01*
X133420046Y-65910545D01*
X133379004Y-65932483D01*
X133334464Y-65945994D01*
X133285667Y-65950800D01*
X132714333Y-65950800D01*
X132665536Y-65945994D01*
X132620996Y-65932483D01*
X132579954Y-65910545D01*
X132543979Y-65881021D01*
X132514455Y-65845046D01*
X132492517Y-65804004D01*
X132479006Y-65759464D01*
X132474200Y-65710667D01*
X132474200Y-65039333D01*
X132479006Y-64990536D01*
X132492517Y-64945996D01*
X132514455Y-64904954D01*
X132543979Y-64868979D01*
X132579954Y-64839455D01*
X132620996Y-64817517D01*
X132665536Y-64804006D01*
X132714333Y-64799200D01*
X133285667Y-64799200D01*
X133334464Y-64804006D01*
X133334464Y-64804006D01*
G37*
G36*
X138210387Y-62900404D02*
G01*
X138219750Y-62903244D01*
X138228377Y-62907855D01*
X138235939Y-62914061D01*
X138242145Y-62921623D01*
X138246756Y-62930250D01*
X138249596Y-62939613D01*
X138249744Y-62941111D01*
X138251676Y-62950820D01*
X138255464Y-62959966D01*
X138260964Y-62968197D01*
X138267964Y-62975197D01*
X138276195Y-62980697D01*
X138285341Y-62984486D01*
X138295050Y-62986417D01*
X138304950Y-62986417D01*
X138314659Y-62984485D01*
X138323805Y-62980697D01*
X138332036Y-62975197D01*
X138339036Y-62968197D01*
X138344536Y-62959966D01*
X138348325Y-62950820D01*
X138350256Y-62941111D01*
X138350404Y-62939613D01*
X138353244Y-62930250D01*
X138357855Y-62921623D01*
X138364061Y-62914061D01*
X138371623Y-62907855D01*
X138380250Y-62903244D01*
X138389613Y-62900404D01*
X138401833Y-62899200D01*
X138598167Y-62899200D01*
X138610387Y-62900404D01*
X138619750Y-62903244D01*
X138628377Y-62907855D01*
X138635939Y-62914061D01*
X138642145Y-62921623D01*
X138646756Y-62930250D01*
X138649596Y-62939613D01*
X138649744Y-62941111D01*
X138651676Y-62950820D01*
X138655464Y-62959966D01*
X138660964Y-62968197D01*
X138667964Y-62975197D01*
X138676195Y-62980697D01*
X138685341Y-62984486D01*
X138695050Y-62986417D01*
X138704950Y-62986417D01*
X138714659Y-62984485D01*
X138723805Y-62980697D01*
X138732036Y-62975197D01*
X138739036Y-62968197D01*
X138744536Y-62959966D01*
X138748325Y-62950820D01*
X138750256Y-62941111D01*
X138750404Y-62939613D01*
X138753244Y-62930250D01*
X138757855Y-62921623D01*
X138764061Y-62914061D01*
X138771623Y-62907855D01*
X138780250Y-62903244D01*
X138789613Y-62900404D01*
X138801833Y-62899200D01*
X138998167Y-62899200D01*
X139010387Y-62900404D01*
X139019750Y-62903244D01*
X139028377Y-62907855D01*
X139035939Y-62914061D01*
X139042145Y-62921623D01*
X139046756Y-62930250D01*
X139049596Y-62939613D01*
X139049744Y-62941111D01*
X139051676Y-62950820D01*
X139055464Y-62959966D01*
X139060964Y-62968197D01*
X139067964Y-62975197D01*
X139076195Y-62980697D01*
X139085341Y-62984486D01*
X139095050Y-62986417D01*
X139104950Y-62986417D01*
X139114659Y-62984485D01*
X139123805Y-62980697D01*
X139132036Y-62975197D01*
X139139036Y-62968197D01*
X139144536Y-62959966D01*
X139148325Y-62950820D01*
X139150256Y-62941111D01*
X139150404Y-62939613D01*
X139153244Y-62930250D01*
X139157855Y-62921623D01*
X139164061Y-62914061D01*
X139171623Y-62907855D01*
X139180250Y-62903244D01*
X139189613Y-62900404D01*
X139201833Y-62899200D01*
X139398167Y-62899200D01*
X139410387Y-62900404D01*
X139419750Y-62903244D01*
X139428377Y-62907855D01*
X139435939Y-62914061D01*
X139442145Y-62921623D01*
X139446756Y-62930250D01*
X139449596Y-62939613D01*
X139449744Y-62941111D01*
X139451676Y-62950820D01*
X139455464Y-62959966D01*
X139460964Y-62968197D01*
X139467964Y-62975197D01*
X139476195Y-62980697D01*
X139485341Y-62984486D01*
X139495050Y-62986417D01*
X139504950Y-62986417D01*
X139514659Y-62984485D01*
X139523805Y-62980697D01*
X139532036Y-62975197D01*
X139539036Y-62968197D01*
X139544536Y-62959966D01*
X139548325Y-62950820D01*
X139550256Y-62941111D01*
X139550404Y-62939613D01*
X139553244Y-62930250D01*
X139557855Y-62921623D01*
X139564061Y-62914061D01*
X139571623Y-62907855D01*
X139580250Y-62903244D01*
X139589613Y-62900404D01*
X139601833Y-62899200D01*
X139798167Y-62899200D01*
X139810387Y-62900404D01*
X139819750Y-62903244D01*
X139828377Y-62907855D01*
X139835939Y-62914061D01*
X139842145Y-62921623D01*
X139846756Y-62930250D01*
X139849596Y-62939613D01*
X139849744Y-62941111D01*
X139851676Y-62950820D01*
X139855464Y-62959966D01*
X139860964Y-62968197D01*
X139867964Y-62975197D01*
X139876195Y-62980697D01*
X139885341Y-62984486D01*
X139895050Y-62986417D01*
X139904950Y-62986417D01*
X139914659Y-62984485D01*
X139923805Y-62980697D01*
X139932036Y-62975197D01*
X139939036Y-62968197D01*
X139944536Y-62959966D01*
X139948325Y-62950820D01*
X139950256Y-62941111D01*
X139950404Y-62939613D01*
X139953244Y-62930250D01*
X139957855Y-62921623D01*
X139964061Y-62914061D01*
X139971623Y-62907855D01*
X139980250Y-62903244D01*
X139989613Y-62900404D01*
X140001833Y-62899200D01*
X140198167Y-62899200D01*
X140210387Y-62900404D01*
X140219750Y-62903244D01*
X140228377Y-62907855D01*
X140235939Y-62914061D01*
X140242145Y-62921623D01*
X140246756Y-62930250D01*
X140249596Y-62939613D01*
X140249744Y-62941111D01*
X140251676Y-62950820D01*
X140255464Y-62959966D01*
X140260964Y-62968197D01*
X140267964Y-62975197D01*
X140276195Y-62980697D01*
X140285341Y-62984486D01*
X140295050Y-62986417D01*
X140304950Y-62986417D01*
X140314659Y-62984485D01*
X140323805Y-62980697D01*
X140332036Y-62975197D01*
X140339036Y-62968197D01*
X140344536Y-62959966D01*
X140348325Y-62950820D01*
X140350256Y-62941111D01*
X140350404Y-62939613D01*
X140353244Y-62930250D01*
X140357855Y-62921623D01*
X140364061Y-62914061D01*
X140371623Y-62907855D01*
X140380250Y-62903244D01*
X140389613Y-62900404D01*
X140401833Y-62899200D01*
X140598167Y-62899200D01*
X140610387Y-62900404D01*
X140619750Y-62903244D01*
X140628377Y-62907855D01*
X140635939Y-62914061D01*
X140642145Y-62921623D01*
X140646756Y-62930250D01*
X140649596Y-62939613D01*
X140649744Y-62941111D01*
X140651676Y-62950820D01*
X140655464Y-62959966D01*
X140660964Y-62968197D01*
X140667964Y-62975197D01*
X140676195Y-62980697D01*
X140685341Y-62984486D01*
X140695050Y-62986417D01*
X140704950Y-62986417D01*
X140714659Y-62984485D01*
X140723805Y-62980697D01*
X140732036Y-62975197D01*
X140739036Y-62968197D01*
X140744536Y-62959966D01*
X140748325Y-62950820D01*
X140750256Y-62941111D01*
X140750404Y-62939613D01*
X140753244Y-62930250D01*
X140757855Y-62921623D01*
X140764061Y-62914061D01*
X140771623Y-62907855D01*
X140780250Y-62903244D01*
X140789613Y-62900404D01*
X140801833Y-62899200D01*
X140998167Y-62899200D01*
X141010387Y-62900404D01*
X141019750Y-62903244D01*
X141028377Y-62907855D01*
X141035939Y-62914061D01*
X141042145Y-62921623D01*
X141046756Y-62930250D01*
X141049596Y-62939613D01*
X141050800Y-62951833D01*
X141050800Y-64348167D01*
X141049596Y-64360387D01*
X141046756Y-64369750D01*
X141042145Y-64378377D01*
X141035939Y-64385939D01*
X141028377Y-64392145D01*
X141019750Y-64396756D01*
X141010387Y-64399596D01*
X140998167Y-64400800D01*
X140801833Y-64400800D01*
X140789613Y-64399596D01*
X140780250Y-64396756D01*
X140771623Y-64392145D01*
X140764061Y-64385939D01*
X140757855Y-64378377D01*
X140753244Y-64369750D01*
X140750404Y-64360387D01*
X140750256Y-64358889D01*
X140748324Y-64349180D01*
X140744536Y-64340034D01*
X140739036Y-64331803D01*
X140732036Y-64324803D01*
X140723805Y-64319303D01*
X140714659Y-64315514D01*
X140704950Y-64313583D01*
X140695050Y-64313583D01*
X140685341Y-64315515D01*
X140676195Y-64319303D01*
X140667964Y-64324803D01*
X140660964Y-64331803D01*
X140655464Y-64340034D01*
X140651675Y-64349180D01*
X140649744Y-64358889D01*
X140649596Y-64360387D01*
X140646756Y-64369750D01*
X140642145Y-64378377D01*
X140635939Y-64385939D01*
X140628377Y-64392145D01*
X140619750Y-64396756D01*
X140610387Y-64399596D01*
X140598167Y-64400800D01*
X140401833Y-64400800D01*
X140389613Y-64399596D01*
X140380250Y-64396756D01*
X140371623Y-64392145D01*
X140364061Y-64385939D01*
X140357855Y-64378377D01*
X140353244Y-64369750D01*
X140350404Y-64360387D01*
X140350256Y-64358889D01*
X140348324Y-64349180D01*
X140344536Y-64340034D01*
X140339036Y-64331803D01*
X140332036Y-64324803D01*
X140323805Y-64319303D01*
X140314659Y-64315514D01*
X140304950Y-64313583D01*
X140295050Y-64313583D01*
X140285341Y-64315515D01*
X140276195Y-64319303D01*
X140267964Y-64324803D01*
X140260964Y-64331803D01*
X140255464Y-64340034D01*
X140251675Y-64349180D01*
X140249744Y-64358889D01*
X140249596Y-64360387D01*
X140246756Y-64369750D01*
X140242145Y-64378377D01*
X140235939Y-64385939D01*
X140228377Y-64392145D01*
X140219750Y-64396756D01*
X140210387Y-64399596D01*
X140198167Y-64400800D01*
X140001833Y-64400800D01*
X139989613Y-64399596D01*
X139980250Y-64396756D01*
X139971623Y-64392145D01*
X139964061Y-64385939D01*
X139957855Y-64378377D01*
X139953244Y-64369750D01*
X139950404Y-64360387D01*
X139950256Y-64358889D01*
X139948324Y-64349180D01*
X139944536Y-64340034D01*
X139939036Y-64331803D01*
X139932036Y-64324803D01*
X139923805Y-64319303D01*
X139914659Y-64315514D01*
X139904950Y-64313583D01*
X139895050Y-64313583D01*
X139885341Y-64315515D01*
X139876195Y-64319303D01*
X139867964Y-64324803D01*
X139860964Y-64331803D01*
X139855464Y-64340034D01*
X139851675Y-64349180D01*
X139849744Y-64358889D01*
X139849596Y-64360387D01*
X139846756Y-64369750D01*
X139842145Y-64378377D01*
X139835939Y-64385939D01*
X139828377Y-64392145D01*
X139819750Y-64396756D01*
X139810387Y-64399596D01*
X139798167Y-64400800D01*
X139601833Y-64400800D01*
X139589613Y-64399596D01*
X139580250Y-64396756D01*
X139571623Y-64392145D01*
X139564061Y-64385939D01*
X139557855Y-64378377D01*
X139553244Y-64369750D01*
X139550404Y-64360387D01*
X139550256Y-64358889D01*
X139548324Y-64349180D01*
X139544536Y-64340034D01*
X139539036Y-64331803D01*
X139532036Y-64324803D01*
X139523805Y-64319303D01*
X139514659Y-64315514D01*
X139504950Y-64313583D01*
X139495050Y-64313583D01*
X139485341Y-64315515D01*
X139476195Y-64319303D01*
X139467964Y-64324803D01*
X139460964Y-64331803D01*
X139455464Y-64340034D01*
X139451675Y-64349180D01*
X139449744Y-64358889D01*
X139449596Y-64360387D01*
X139446756Y-64369750D01*
X139442145Y-64378377D01*
X139435939Y-64385939D01*
X139428377Y-64392145D01*
X139419750Y-64396756D01*
X139410387Y-64399596D01*
X139398167Y-64400800D01*
X139201833Y-64400800D01*
X139189613Y-64399596D01*
X139180250Y-64396756D01*
X139171623Y-64392145D01*
X139164061Y-64385939D01*
X139157855Y-64378377D01*
X139153244Y-64369750D01*
X139150404Y-64360387D01*
X139150256Y-64358889D01*
X139148324Y-64349180D01*
X139144536Y-64340034D01*
X139139036Y-64331803D01*
X139132036Y-64324803D01*
X139123805Y-64319303D01*
X139114659Y-64315514D01*
X139104950Y-64313583D01*
X139095050Y-64313583D01*
X139085341Y-64315515D01*
X139076195Y-64319303D01*
X139067964Y-64324803D01*
X139060964Y-64331803D01*
X139055464Y-64340034D01*
X139051675Y-64349180D01*
X139049744Y-64358889D01*
X139049596Y-64360387D01*
X139046756Y-64369750D01*
X139042145Y-64378377D01*
X139035939Y-64385939D01*
X139028377Y-64392145D01*
X139019750Y-64396756D01*
X139010387Y-64399596D01*
X138998167Y-64400800D01*
X138801833Y-64400800D01*
X138789613Y-64399596D01*
X138780250Y-64396756D01*
X138771623Y-64392145D01*
X138764061Y-64385939D01*
X138757855Y-64378377D01*
X138753244Y-64369750D01*
X138750404Y-64360387D01*
X138750256Y-64358889D01*
X138748324Y-64349180D01*
X138744536Y-64340034D01*
X138739036Y-64331803D01*
X138732036Y-64324803D01*
X138723805Y-64319303D01*
X138714659Y-64315514D01*
X138704950Y-64313583D01*
X138695050Y-64313583D01*
X138685341Y-64315515D01*
X138676195Y-64319303D01*
X138667964Y-64324803D01*
X138660964Y-64331803D01*
X138655464Y-64340034D01*
X138651675Y-64349180D01*
X138649744Y-64358889D01*
X138649596Y-64360387D01*
X138646756Y-64369750D01*
X138642145Y-64378377D01*
X138635939Y-64385939D01*
X138628377Y-64392145D01*
X138619750Y-64396756D01*
X138610387Y-64399596D01*
X138598167Y-64400800D01*
X138401833Y-64400800D01*
X138389613Y-64399596D01*
X138380250Y-64396756D01*
X138371623Y-64392145D01*
X138364061Y-64385939D01*
X138357855Y-64378377D01*
X138353244Y-64369750D01*
X138350404Y-64360387D01*
X138350256Y-64358889D01*
X138348324Y-64349180D01*
X138344536Y-64340034D01*
X138339036Y-64331803D01*
X138332036Y-64324803D01*
X138323805Y-64319303D01*
X138314659Y-64315514D01*
X138304950Y-64313583D01*
X138295050Y-64313583D01*
X138285341Y-64315515D01*
X138276195Y-64319303D01*
X138267964Y-64324803D01*
X138260964Y-64331803D01*
X138255464Y-64340034D01*
X138251675Y-64349180D01*
X138249744Y-64358889D01*
X138249596Y-64360387D01*
X138246756Y-64369750D01*
X138242145Y-64378377D01*
X138235939Y-64385939D01*
X138228377Y-64392145D01*
X138219750Y-64396756D01*
X138210387Y-64399596D01*
X138198167Y-64400800D01*
X138001833Y-64400800D01*
X137989613Y-64399596D01*
X137980250Y-64396756D01*
X137971623Y-64392145D01*
X137964061Y-64385939D01*
X137957855Y-64378377D01*
X137953244Y-64369750D01*
X137950404Y-64360387D01*
X137949200Y-64348167D01*
X137949200Y-62951833D01*
X137950404Y-62939613D01*
X137953244Y-62930250D01*
X137957855Y-62921623D01*
X137964061Y-62914061D01*
X137971623Y-62907855D01*
X137980250Y-62903244D01*
X137989613Y-62900404D01*
X138001833Y-62899200D01*
X138198167Y-62899200D01*
X138210387Y-62900404D01*
X138210387Y-62900404D01*
G37*
G36*
X140834464Y-57054006D02*
G01*
X140879004Y-57067517D01*
X140920046Y-57089455D01*
X140956021Y-57118979D01*
X140985545Y-57154954D01*
X141007483Y-57195996D01*
X141020994Y-57240536D01*
X141025800Y-57289333D01*
X141025800Y-57960667D01*
X141020994Y-58009464D01*
X141007483Y-58054004D01*
X140985545Y-58095046D01*
X140956021Y-58131021D01*
X140920046Y-58160545D01*
X140879004Y-58182483D01*
X140834464Y-58195994D01*
X140785667Y-58200800D01*
X140214333Y-58200800D01*
X140165536Y-58195994D01*
X140120996Y-58182483D01*
X140079954Y-58160545D01*
X140043979Y-58131021D01*
X140014455Y-58095046D01*
X139992517Y-58054004D01*
X139979006Y-58009464D01*
X139974200Y-57960667D01*
X139974200Y-57289333D01*
X139979006Y-57240536D01*
X139992517Y-57195996D01*
X140014455Y-57154954D01*
X140043979Y-57118979D01*
X140079954Y-57089455D01*
X140120996Y-57067517D01*
X140165536Y-57054006D01*
X140214333Y-57049200D01*
X140785667Y-57049200D01*
X140834464Y-57054006D01*
X140834464Y-57054006D01*
G37*
G36*
X136834464Y-57054006D02*
G01*
X136879004Y-57067517D01*
X136920046Y-57089455D01*
X136956021Y-57118979D01*
X136985545Y-57154954D01*
X137007483Y-57195996D01*
X137020994Y-57240536D01*
X137025800Y-57289333D01*
X137025800Y-57960667D01*
X137020994Y-58009464D01*
X137007483Y-58054004D01*
X136985545Y-58095046D01*
X136956021Y-58131021D01*
X136920046Y-58160545D01*
X136879004Y-58182483D01*
X136834464Y-58195994D01*
X136785667Y-58200800D01*
X136214333Y-58200800D01*
X136165536Y-58195994D01*
X136120996Y-58182483D01*
X136079954Y-58160545D01*
X136043979Y-58131021D01*
X136014455Y-58095046D01*
X135992517Y-58054004D01*
X135979006Y-58009464D01*
X135974200Y-57960667D01*
X135974200Y-57289333D01*
X135979006Y-57240536D01*
X135992517Y-57195996D01*
X136014455Y-57154954D01*
X136043979Y-57118979D01*
X136079954Y-57089455D01*
X136120996Y-57067517D01*
X136165536Y-57054006D01*
X136214333Y-57049200D01*
X136785667Y-57049200D01*
X136834464Y-57054006D01*
X136834464Y-57054006D01*
G37*
G36*
X134834464Y-57054006D02*
G01*
X134879004Y-57067517D01*
X134920046Y-57089455D01*
X134956021Y-57118979D01*
X134985545Y-57154954D01*
X135007483Y-57195996D01*
X135020994Y-57240536D01*
X135025800Y-57289333D01*
X135025800Y-57960667D01*
X135020994Y-58009464D01*
X135007483Y-58054004D01*
X134985545Y-58095046D01*
X134956021Y-58131021D01*
X134920046Y-58160545D01*
X134879004Y-58182483D01*
X134834464Y-58195994D01*
X134785667Y-58200800D01*
X134214333Y-58200800D01*
X134165536Y-58195994D01*
X134120996Y-58182483D01*
X134079954Y-58160545D01*
X134043979Y-58131021D01*
X134014455Y-58095046D01*
X133992517Y-58054004D01*
X133979006Y-58009464D01*
X133974200Y-57960667D01*
X133974200Y-57289333D01*
X133979006Y-57240536D01*
X133992517Y-57195996D01*
X134014455Y-57154954D01*
X134043979Y-57118979D01*
X134079954Y-57089455D01*
X134120996Y-57067517D01*
X134165536Y-57054006D01*
X134214333Y-57049200D01*
X134785667Y-57049200D01*
X134834464Y-57054006D01*
X134834464Y-57054006D01*
G37*
G36*
X132834464Y-57054006D02*
G01*
X132879004Y-57067517D01*
X132920046Y-57089455D01*
X132956021Y-57118979D01*
X132985545Y-57154954D01*
X133007483Y-57195996D01*
X133020994Y-57240536D01*
X133025800Y-57289333D01*
X133025800Y-57960667D01*
X133020994Y-58009464D01*
X133007483Y-58054004D01*
X132985545Y-58095046D01*
X132956021Y-58131021D01*
X132920046Y-58160545D01*
X132879004Y-58182483D01*
X132834464Y-58195994D01*
X132785667Y-58200800D01*
X132214333Y-58200800D01*
X132165536Y-58195994D01*
X132120996Y-58182483D01*
X132079954Y-58160545D01*
X132043979Y-58131021D01*
X132014455Y-58095046D01*
X131992517Y-58054004D01*
X131979006Y-58009464D01*
X131974200Y-57960667D01*
X131974200Y-57289333D01*
X131979006Y-57240536D01*
X131992517Y-57195996D01*
X132014455Y-57154954D01*
X132043979Y-57118979D01*
X132079954Y-57089455D01*
X132120996Y-57067517D01*
X132165536Y-57054006D01*
X132214333Y-57049200D01*
X132785667Y-57049200D01*
X132834464Y-57054006D01*
X132834464Y-57054006D01*
G37*
G36*
X130834464Y-57054006D02*
G01*
X130879004Y-57067517D01*
X130920046Y-57089455D01*
X130956021Y-57118979D01*
X130985545Y-57154954D01*
X131007483Y-57195996D01*
X131020994Y-57240536D01*
X131025800Y-57289333D01*
X131025800Y-57960667D01*
X131020994Y-58009464D01*
X131007483Y-58054004D01*
X130985545Y-58095046D01*
X130956021Y-58131021D01*
X130920046Y-58160545D01*
X130879004Y-58182483D01*
X130834464Y-58195994D01*
X130785667Y-58200800D01*
X130214333Y-58200800D01*
X130165536Y-58195994D01*
X130120996Y-58182483D01*
X130079954Y-58160545D01*
X130043979Y-58131021D01*
X130014455Y-58095046D01*
X129992517Y-58054004D01*
X129979006Y-58009464D01*
X129974200Y-57960667D01*
X129974200Y-57289333D01*
X129979006Y-57240536D01*
X129992517Y-57195996D01*
X130014455Y-57154954D01*
X130043979Y-57118979D01*
X130079954Y-57089455D01*
X130120996Y-57067517D01*
X130165536Y-57054006D01*
X130214333Y-57049200D01*
X130785667Y-57049200D01*
X130834464Y-57054006D01*
X130834464Y-57054006D01*
G37*
G36*
X128834464Y-57054006D02*
G01*
X128879004Y-57067517D01*
X128920046Y-57089455D01*
X128956021Y-57118979D01*
X128985545Y-57154954D01*
X129007483Y-57195996D01*
X129020994Y-57240536D01*
X129025800Y-57289333D01*
X129025800Y-57960667D01*
X129020994Y-58009464D01*
X129007483Y-58054004D01*
X128985545Y-58095046D01*
X128956021Y-58131021D01*
X128920046Y-58160545D01*
X128879004Y-58182483D01*
X128834464Y-58195994D01*
X128785667Y-58200800D01*
X128214333Y-58200800D01*
X128165536Y-58195994D01*
X128120996Y-58182483D01*
X128079954Y-58160545D01*
X128043979Y-58131021D01*
X128014455Y-58095046D01*
X127992517Y-58054004D01*
X127979006Y-58009464D01*
X127974200Y-57960667D01*
X127974200Y-57289333D01*
X127979006Y-57240536D01*
X127992517Y-57195996D01*
X128014455Y-57154954D01*
X128043979Y-57118979D01*
X128079954Y-57089455D01*
X128120996Y-57067517D01*
X128165536Y-57054006D01*
X128214333Y-57049200D01*
X128785667Y-57049200D01*
X128834464Y-57054006D01*
X128834464Y-57054006D01*
G37*
G36*
X144834464Y-57054006D02*
G01*
X144879004Y-57067517D01*
X144920046Y-57089455D01*
X144956021Y-57118979D01*
X144985545Y-57154954D01*
X145007483Y-57195996D01*
X145020994Y-57240536D01*
X145025800Y-57289333D01*
X145025800Y-57960667D01*
X145020994Y-58009464D01*
X145007483Y-58054004D01*
X144985545Y-58095046D01*
X144956021Y-58131021D01*
X144920046Y-58160545D01*
X144879004Y-58182483D01*
X144834464Y-58195994D01*
X144785667Y-58200800D01*
X144214333Y-58200800D01*
X144165536Y-58195994D01*
X144120996Y-58182483D01*
X144079954Y-58160545D01*
X144043979Y-58131021D01*
X144014455Y-58095046D01*
X143992517Y-58054004D01*
X143979006Y-58009464D01*
X143974200Y-57960667D01*
X143974200Y-57289333D01*
X143979006Y-57240536D01*
X143992517Y-57195996D01*
X144014455Y-57154954D01*
X144043979Y-57118979D01*
X144079954Y-57089455D01*
X144120996Y-57067517D01*
X144165536Y-57054006D01*
X144214333Y-57049200D01*
X144785667Y-57049200D01*
X144834464Y-57054006D01*
X144834464Y-57054006D01*
G37*
G36*
X146834464Y-57054006D02*
G01*
X146879004Y-57067517D01*
X146920046Y-57089455D01*
X146956021Y-57118979D01*
X146985545Y-57154954D01*
X147007483Y-57195996D01*
X147020994Y-57240536D01*
X147025800Y-57289333D01*
X147025800Y-57960667D01*
X147020994Y-58009464D01*
X147007483Y-58054004D01*
X146985545Y-58095046D01*
X146956021Y-58131021D01*
X146920046Y-58160545D01*
X146879004Y-58182483D01*
X146834464Y-58195994D01*
X146785667Y-58200800D01*
X146214333Y-58200800D01*
X146165536Y-58195994D01*
X146120996Y-58182483D01*
X146079954Y-58160545D01*
X146043979Y-58131021D01*
X146014455Y-58095046D01*
X145992517Y-58054004D01*
X145979006Y-58009464D01*
X145974200Y-57960667D01*
X145974200Y-57289333D01*
X145979006Y-57240536D01*
X145992517Y-57195996D01*
X146014455Y-57154954D01*
X146043979Y-57118979D01*
X146079954Y-57089455D01*
X146120996Y-57067517D01*
X146165536Y-57054006D01*
X146214333Y-57049200D01*
X146785667Y-57049200D01*
X146834464Y-57054006D01*
X146834464Y-57054006D01*
G37*
G36*
X148834464Y-57054006D02*
G01*
X148879004Y-57067517D01*
X148920046Y-57089455D01*
X148956021Y-57118979D01*
X148985545Y-57154954D01*
X149007483Y-57195996D01*
X149020994Y-57240536D01*
X149025800Y-57289333D01*
X149025800Y-57960667D01*
X149020994Y-58009464D01*
X149007483Y-58054004D01*
X148985545Y-58095046D01*
X148956021Y-58131021D01*
X148920046Y-58160545D01*
X148879004Y-58182483D01*
X148834464Y-58195994D01*
X148785667Y-58200800D01*
X148214333Y-58200800D01*
X148165536Y-58195994D01*
X148120996Y-58182483D01*
X148079954Y-58160545D01*
X148043979Y-58131021D01*
X148014455Y-58095046D01*
X147992517Y-58054004D01*
X147979006Y-58009464D01*
X147974200Y-57960667D01*
X147974200Y-57289333D01*
X147979006Y-57240536D01*
X147992517Y-57195996D01*
X148014455Y-57154954D01*
X148043979Y-57118979D01*
X148079954Y-57089455D01*
X148120996Y-57067517D01*
X148165536Y-57054006D01*
X148214333Y-57049200D01*
X148785667Y-57049200D01*
X148834464Y-57054006D01*
X148834464Y-57054006D01*
G37*
G36*
X150834464Y-57054006D02*
G01*
X150879004Y-57067517D01*
X150920046Y-57089455D01*
X150956021Y-57118979D01*
X150985545Y-57154954D01*
X151007483Y-57195996D01*
X151020994Y-57240536D01*
X151025800Y-57289333D01*
X151025800Y-57960667D01*
X151020994Y-58009464D01*
X151007483Y-58054004D01*
X150985545Y-58095046D01*
X150956021Y-58131021D01*
X150920046Y-58160545D01*
X150879004Y-58182483D01*
X150834464Y-58195994D01*
X150785667Y-58200800D01*
X150214333Y-58200800D01*
X150165536Y-58195994D01*
X150120996Y-58182483D01*
X150079954Y-58160545D01*
X150043979Y-58131021D01*
X150014455Y-58095046D01*
X149992517Y-58054004D01*
X149979006Y-58009464D01*
X149974200Y-57960667D01*
X149974200Y-57289333D01*
X149979006Y-57240536D01*
X149992517Y-57195996D01*
X150014455Y-57154954D01*
X150043979Y-57118979D01*
X150079954Y-57089455D01*
X150120996Y-57067517D01*
X150165536Y-57054006D01*
X150214333Y-57049200D01*
X150785667Y-57049200D01*
X150834464Y-57054006D01*
X150834464Y-57054006D01*
G37*
G36*
X138834464Y-57054006D02*
G01*
X138879004Y-57067517D01*
X138920046Y-57089455D01*
X138956021Y-57118979D01*
X138985545Y-57154954D01*
X139007483Y-57195996D01*
X139020994Y-57240536D01*
X139025800Y-57289333D01*
X139025800Y-57960667D01*
X139020994Y-58009464D01*
X139007483Y-58054004D01*
X138985545Y-58095046D01*
X138956021Y-58131021D01*
X138920046Y-58160545D01*
X138879004Y-58182483D01*
X138834464Y-58195994D01*
X138785667Y-58200800D01*
X138214333Y-58200800D01*
X138165536Y-58195994D01*
X138120996Y-58182483D01*
X138079954Y-58160545D01*
X138043979Y-58131021D01*
X138014455Y-58095046D01*
X137992517Y-58054004D01*
X137979006Y-58009464D01*
X137974200Y-57960667D01*
X137974200Y-57289333D01*
X137979006Y-57240536D01*
X137992517Y-57195996D01*
X138014455Y-57154954D01*
X138043979Y-57118979D01*
X138079954Y-57089455D01*
X138120996Y-57067517D01*
X138165536Y-57054006D01*
X138214333Y-57049200D01*
X138785667Y-57049200D01*
X138834464Y-57054006D01*
X138834464Y-57054006D01*
G37*
G36*
X142834464Y-57054006D02*
G01*
X142879004Y-57067517D01*
X142920046Y-57089455D01*
X142956021Y-57118979D01*
X142985545Y-57154954D01*
X143007483Y-57195996D01*
X143020994Y-57240536D01*
X143025800Y-57289333D01*
X143025800Y-57960667D01*
X143020994Y-58009464D01*
X143007483Y-58054004D01*
X142985545Y-58095046D01*
X142956021Y-58131021D01*
X142920046Y-58160545D01*
X142879004Y-58182483D01*
X142834464Y-58195994D01*
X142785667Y-58200800D01*
X142214333Y-58200800D01*
X142165536Y-58195994D01*
X142120996Y-58182483D01*
X142079954Y-58160545D01*
X142043979Y-58131021D01*
X142014455Y-58095046D01*
X141992517Y-58054004D01*
X141979006Y-58009464D01*
X141974200Y-57960667D01*
X141974200Y-57289333D01*
X141979006Y-57240536D01*
X141992517Y-57195996D01*
X142014455Y-57154954D01*
X142043979Y-57118979D01*
X142079954Y-57089455D01*
X142120996Y-57067517D01*
X142165536Y-57054006D01*
X142214333Y-57049200D01*
X142785667Y-57049200D01*
X142834464Y-57054006D01*
X142834464Y-57054006D01*
G37*
G36*
X142834464Y-55304006D02*
G01*
X142879004Y-55317517D01*
X142920046Y-55339455D01*
X142956021Y-55368979D01*
X142985545Y-55404954D01*
X143007483Y-55445996D01*
X143020994Y-55490536D01*
X143025800Y-55539333D01*
X143025800Y-56210667D01*
X143020994Y-56259464D01*
X143007483Y-56304004D01*
X142985545Y-56345046D01*
X142956021Y-56381021D01*
X142920046Y-56410545D01*
X142879004Y-56432483D01*
X142834464Y-56445994D01*
X142785667Y-56450800D01*
X142214333Y-56450800D01*
X142165536Y-56445994D01*
X142120996Y-56432483D01*
X142079954Y-56410545D01*
X142043979Y-56381021D01*
X142014455Y-56345046D01*
X141992517Y-56304004D01*
X141979006Y-56259464D01*
X141974200Y-56210667D01*
X141974200Y-55539333D01*
X141979006Y-55490536D01*
X141992517Y-55445996D01*
X142014455Y-55404954D01*
X142043979Y-55368979D01*
X142079954Y-55339455D01*
X142120996Y-55317517D01*
X142165536Y-55304006D01*
X142214333Y-55299200D01*
X142785667Y-55299200D01*
X142834464Y-55304006D01*
X142834464Y-55304006D01*
G37*
G36*
X128834464Y-55304006D02*
G01*
X128879004Y-55317517D01*
X128920046Y-55339455D01*
X128956021Y-55368979D01*
X128985545Y-55404954D01*
X129007483Y-55445996D01*
X129020994Y-55490536D01*
X129025800Y-55539333D01*
X129025800Y-56210667D01*
X129020994Y-56259464D01*
X129007483Y-56304004D01*
X128985545Y-56345046D01*
X128956021Y-56381021D01*
X128920046Y-56410545D01*
X128879004Y-56432483D01*
X128834464Y-56445994D01*
X128785667Y-56450800D01*
X128214333Y-56450800D01*
X128165536Y-56445994D01*
X128120996Y-56432483D01*
X128079954Y-56410545D01*
X128043979Y-56381021D01*
X128014455Y-56345046D01*
X127992517Y-56304004D01*
X127979006Y-56259464D01*
X127974200Y-56210667D01*
X127974200Y-55539333D01*
X127979006Y-55490536D01*
X127992517Y-55445996D01*
X128014455Y-55404954D01*
X128043979Y-55368979D01*
X128079954Y-55339455D01*
X128120996Y-55317517D01*
X128165536Y-55304006D01*
X128214333Y-55299200D01*
X128785667Y-55299200D01*
X128834464Y-55304006D01*
X128834464Y-55304006D01*
G37*
G36*
X130834464Y-55304006D02*
G01*
X130879004Y-55317517D01*
X130920046Y-55339455D01*
X130956021Y-55368979D01*
X130985545Y-55404954D01*
X131007483Y-55445996D01*
X131020994Y-55490536D01*
X131025800Y-55539333D01*
X131025800Y-56210667D01*
X131020994Y-56259464D01*
X131007483Y-56304004D01*
X130985545Y-56345046D01*
X130956021Y-56381021D01*
X130920046Y-56410545D01*
X130879004Y-56432483D01*
X130834464Y-56445994D01*
X130785667Y-56450800D01*
X130214333Y-56450800D01*
X130165536Y-56445994D01*
X130120996Y-56432483D01*
X130079954Y-56410545D01*
X130043979Y-56381021D01*
X130014455Y-56345046D01*
X129992517Y-56304004D01*
X129979006Y-56259464D01*
X129974200Y-56210667D01*
X129974200Y-55539333D01*
X129979006Y-55490536D01*
X129992517Y-55445996D01*
X130014455Y-55404954D01*
X130043979Y-55368979D01*
X130079954Y-55339455D01*
X130120996Y-55317517D01*
X130165536Y-55304006D01*
X130214333Y-55299200D01*
X130785667Y-55299200D01*
X130834464Y-55304006D01*
X130834464Y-55304006D01*
G37*
G36*
X132834464Y-55304006D02*
G01*
X132879004Y-55317517D01*
X132920046Y-55339455D01*
X132956021Y-55368979D01*
X132985545Y-55404954D01*
X133007483Y-55445996D01*
X133020994Y-55490536D01*
X133025800Y-55539333D01*
X133025800Y-56210667D01*
X133020994Y-56259464D01*
X133007483Y-56304004D01*
X132985545Y-56345046D01*
X132956021Y-56381021D01*
X132920046Y-56410545D01*
X132879004Y-56432483D01*
X132834464Y-56445994D01*
X132785667Y-56450800D01*
X132214333Y-56450800D01*
X132165536Y-56445994D01*
X132120996Y-56432483D01*
X132079954Y-56410545D01*
X132043979Y-56381021D01*
X132014455Y-56345046D01*
X131992517Y-56304004D01*
X131979006Y-56259464D01*
X131974200Y-56210667D01*
X131974200Y-55539333D01*
X131979006Y-55490536D01*
X131992517Y-55445996D01*
X132014455Y-55404954D01*
X132043979Y-55368979D01*
X132079954Y-55339455D01*
X132120996Y-55317517D01*
X132165536Y-55304006D01*
X132214333Y-55299200D01*
X132785667Y-55299200D01*
X132834464Y-55304006D01*
X132834464Y-55304006D01*
G37*
G36*
X134834464Y-55304006D02*
G01*
X134879004Y-55317517D01*
X134920046Y-55339455D01*
X134956021Y-55368979D01*
X134985545Y-55404954D01*
X135007483Y-55445996D01*
X135020994Y-55490536D01*
X135025800Y-55539333D01*
X135025800Y-56210667D01*
X135020994Y-56259464D01*
X135007483Y-56304004D01*
X134985545Y-56345046D01*
X134956021Y-56381021D01*
X134920046Y-56410545D01*
X134879004Y-56432483D01*
X134834464Y-56445994D01*
X134785667Y-56450800D01*
X134214333Y-56450800D01*
X134165536Y-56445994D01*
X134120996Y-56432483D01*
X134079954Y-56410545D01*
X134043979Y-56381021D01*
X134014455Y-56345046D01*
X133992517Y-56304004D01*
X133979006Y-56259464D01*
X133974200Y-56210667D01*
X133974200Y-55539333D01*
X133979006Y-55490536D01*
X133992517Y-55445996D01*
X134014455Y-55404954D01*
X134043979Y-55368979D01*
X134079954Y-55339455D01*
X134120996Y-55317517D01*
X134165536Y-55304006D01*
X134214333Y-55299200D01*
X134785667Y-55299200D01*
X134834464Y-55304006D01*
X134834464Y-55304006D01*
G37*
G36*
X136834464Y-55304006D02*
G01*
X136879004Y-55317517D01*
X136920046Y-55339455D01*
X136956021Y-55368979D01*
X136985545Y-55404954D01*
X137007483Y-55445996D01*
X137020994Y-55490536D01*
X137025800Y-55539333D01*
X137025800Y-56210667D01*
X137020994Y-56259464D01*
X137007483Y-56304004D01*
X136985545Y-56345046D01*
X136956021Y-56381021D01*
X136920046Y-56410545D01*
X136879004Y-56432483D01*
X136834464Y-56445994D01*
X136785667Y-56450800D01*
X136214333Y-56450800D01*
X136165536Y-56445994D01*
X136120996Y-56432483D01*
X136079954Y-56410545D01*
X136043979Y-56381021D01*
X136014455Y-56345046D01*
X135992517Y-56304004D01*
X135979006Y-56259464D01*
X135974200Y-56210667D01*
X135974200Y-55539333D01*
X135979006Y-55490536D01*
X135992517Y-55445996D01*
X136014455Y-55404954D01*
X136043979Y-55368979D01*
X136079954Y-55339455D01*
X136120996Y-55317517D01*
X136165536Y-55304006D01*
X136214333Y-55299200D01*
X136785667Y-55299200D01*
X136834464Y-55304006D01*
X136834464Y-55304006D01*
G37*
G36*
X138834464Y-55304006D02*
G01*
X138879004Y-55317517D01*
X138920046Y-55339455D01*
X138956021Y-55368979D01*
X138985545Y-55404954D01*
X139007483Y-55445996D01*
X139020994Y-55490536D01*
X139025800Y-55539333D01*
X139025800Y-56210667D01*
X139020994Y-56259464D01*
X139007483Y-56304004D01*
X138985545Y-56345046D01*
X138956021Y-56381021D01*
X138920046Y-56410545D01*
X138879004Y-56432483D01*
X138834464Y-56445994D01*
X138785667Y-56450800D01*
X138214333Y-56450800D01*
X138165536Y-56445994D01*
X138120996Y-56432483D01*
X138079954Y-56410545D01*
X138043979Y-56381021D01*
X138014455Y-56345046D01*
X137992517Y-56304004D01*
X137979006Y-56259464D01*
X137974200Y-56210667D01*
X137974200Y-55539333D01*
X137979006Y-55490536D01*
X137992517Y-55445996D01*
X138014455Y-55404954D01*
X138043979Y-55368979D01*
X138079954Y-55339455D01*
X138120996Y-55317517D01*
X138165536Y-55304006D01*
X138214333Y-55299200D01*
X138785667Y-55299200D01*
X138834464Y-55304006D01*
X138834464Y-55304006D01*
G37*
G36*
X140834464Y-55304006D02*
G01*
X140879004Y-55317517D01*
X140920046Y-55339455D01*
X140956021Y-55368979D01*
X140985545Y-55404954D01*
X141007483Y-55445996D01*
X141020994Y-55490536D01*
X141025800Y-55539333D01*
X141025800Y-56210667D01*
X141020994Y-56259464D01*
X141007483Y-56304004D01*
X140985545Y-56345046D01*
X140956021Y-56381021D01*
X140920046Y-56410545D01*
X140879004Y-56432483D01*
X140834464Y-56445994D01*
X140785667Y-56450800D01*
X140214333Y-56450800D01*
X140165536Y-56445994D01*
X140120996Y-56432483D01*
X140079954Y-56410545D01*
X140043979Y-56381021D01*
X140014455Y-56345046D01*
X139992517Y-56304004D01*
X139979006Y-56259464D01*
X139974200Y-56210667D01*
X139974200Y-55539333D01*
X139979006Y-55490536D01*
X139992517Y-55445996D01*
X140014455Y-55404954D01*
X140043979Y-55368979D01*
X140079954Y-55339455D01*
X140120996Y-55317517D01*
X140165536Y-55304006D01*
X140214333Y-55299200D01*
X140785667Y-55299200D01*
X140834464Y-55304006D01*
X140834464Y-55304006D01*
G37*
G36*
X146834464Y-55304006D02*
G01*
X146879004Y-55317517D01*
X146920046Y-55339455D01*
X146956021Y-55368979D01*
X146985545Y-55404954D01*
X147007483Y-55445996D01*
X147020994Y-55490536D01*
X147025800Y-55539333D01*
X147025800Y-56210667D01*
X147020994Y-56259464D01*
X147007483Y-56304004D01*
X146985545Y-56345046D01*
X146956021Y-56381021D01*
X146920046Y-56410545D01*
X146879004Y-56432483D01*
X146834464Y-56445994D01*
X146785667Y-56450800D01*
X146214333Y-56450800D01*
X146165536Y-56445994D01*
X146120996Y-56432483D01*
X146079954Y-56410545D01*
X146043979Y-56381021D01*
X146014455Y-56345046D01*
X145992517Y-56304004D01*
X145979006Y-56259464D01*
X145974200Y-56210667D01*
X145974200Y-55539333D01*
X145979006Y-55490536D01*
X145992517Y-55445996D01*
X146014455Y-55404954D01*
X146043979Y-55368979D01*
X146079954Y-55339455D01*
X146120996Y-55317517D01*
X146165536Y-55304006D01*
X146214333Y-55299200D01*
X146785667Y-55299200D01*
X146834464Y-55304006D01*
X146834464Y-55304006D01*
G37*
G36*
X148834464Y-55304006D02*
G01*
X148879004Y-55317517D01*
X148920046Y-55339455D01*
X148956021Y-55368979D01*
X148985545Y-55404954D01*
X149007483Y-55445996D01*
X149020994Y-55490536D01*
X149025800Y-55539333D01*
X149025800Y-56210667D01*
X149020994Y-56259464D01*
X149007483Y-56304004D01*
X148985545Y-56345046D01*
X148956021Y-56381021D01*
X148920046Y-56410545D01*
X148879004Y-56432483D01*
X148834464Y-56445994D01*
X148785667Y-56450800D01*
X148214333Y-56450800D01*
X148165536Y-56445994D01*
X148120996Y-56432483D01*
X148079954Y-56410545D01*
X148043979Y-56381021D01*
X148014455Y-56345046D01*
X147992517Y-56304004D01*
X147979006Y-56259464D01*
X147974200Y-56210667D01*
X147974200Y-55539333D01*
X147979006Y-55490536D01*
X147992517Y-55445996D01*
X148014455Y-55404954D01*
X148043979Y-55368979D01*
X148079954Y-55339455D01*
X148120996Y-55317517D01*
X148165536Y-55304006D01*
X148214333Y-55299200D01*
X148785667Y-55299200D01*
X148834464Y-55304006D01*
X148834464Y-55304006D01*
G37*
G36*
X150834464Y-55304006D02*
G01*
X150879004Y-55317517D01*
X150920046Y-55339455D01*
X150956021Y-55368979D01*
X150985545Y-55404954D01*
X151007483Y-55445996D01*
X151020994Y-55490536D01*
X151025800Y-55539333D01*
X151025800Y-56210667D01*
X151020994Y-56259464D01*
X151007483Y-56304004D01*
X150985545Y-56345046D01*
X150956021Y-56381021D01*
X150920046Y-56410545D01*
X150879004Y-56432483D01*
X150834464Y-56445994D01*
X150785667Y-56450800D01*
X150214333Y-56450800D01*
X150165536Y-56445994D01*
X150120996Y-56432483D01*
X150079954Y-56410545D01*
X150043979Y-56381021D01*
X150014455Y-56345046D01*
X149992517Y-56304004D01*
X149979006Y-56259464D01*
X149974200Y-56210667D01*
X149974200Y-55539333D01*
X149979006Y-55490536D01*
X149992517Y-55445996D01*
X150014455Y-55404954D01*
X150043979Y-55368979D01*
X150079954Y-55339455D01*
X150120996Y-55317517D01*
X150165536Y-55304006D01*
X150214333Y-55299200D01*
X150785667Y-55299200D01*
X150834464Y-55304006D01*
X150834464Y-55304006D01*
G37*
G36*
X144834464Y-55304006D02*
G01*
X144879004Y-55317517D01*
X144920046Y-55339455D01*
X144956021Y-55368979D01*
X144985545Y-55404954D01*
X145007483Y-55445996D01*
X145020994Y-55490536D01*
X145025800Y-55539333D01*
X145025800Y-56210667D01*
X145020994Y-56259464D01*
X145007483Y-56304004D01*
X144985545Y-56345046D01*
X144956021Y-56381021D01*
X144920046Y-56410545D01*
X144879004Y-56432483D01*
X144834464Y-56445994D01*
X144785667Y-56450800D01*
X144214333Y-56450800D01*
X144165536Y-56445994D01*
X144120996Y-56432483D01*
X144079954Y-56410545D01*
X144043979Y-56381021D01*
X144014455Y-56345046D01*
X143992517Y-56304004D01*
X143979006Y-56259464D01*
X143974200Y-56210667D01*
X143974200Y-55539333D01*
X143979006Y-55490536D01*
X143992517Y-55445996D01*
X144014455Y-55404954D01*
X144043979Y-55368979D01*
X144079954Y-55339455D01*
X144120996Y-55317517D01*
X144165536Y-55304006D01*
X144214333Y-55299200D01*
X144785667Y-55299200D01*
X144834464Y-55304006D01*
X144834464Y-55304006D01*
G37*
G36*
X141834464Y-53304006D02*
G01*
X141879004Y-53317517D01*
X141920046Y-53339455D01*
X141956021Y-53368979D01*
X141985545Y-53404954D01*
X142007483Y-53445996D01*
X142020994Y-53490536D01*
X142025800Y-53539333D01*
X142025800Y-54210667D01*
X142020994Y-54259464D01*
X142007483Y-54304004D01*
X141985545Y-54345046D01*
X141956021Y-54381021D01*
X141920046Y-54410545D01*
X141879004Y-54432483D01*
X141834464Y-54445994D01*
X141785667Y-54450800D01*
X141214333Y-54450800D01*
X141165536Y-54445994D01*
X141120996Y-54432483D01*
X141079954Y-54410545D01*
X141043979Y-54381021D01*
X141014455Y-54345046D01*
X140992517Y-54304004D01*
X140979006Y-54259464D01*
X140974200Y-54210667D01*
X140974200Y-53539333D01*
X140979006Y-53490536D01*
X140992517Y-53445996D01*
X141014455Y-53404954D01*
X141043979Y-53368979D01*
X141079954Y-53339455D01*
X141120996Y-53317517D01*
X141165536Y-53304006D01*
X141214333Y-53299200D01*
X141785667Y-53299200D01*
X141834464Y-53304006D01*
X141834464Y-53304006D01*
G37*
G36*
X133834464Y-53304006D02*
G01*
X133879004Y-53317517D01*
X133920046Y-53339455D01*
X133956021Y-53368979D01*
X133985545Y-53404954D01*
X134007483Y-53445996D01*
X134020994Y-53490536D01*
X134025800Y-53539333D01*
X134025800Y-54210667D01*
X134020994Y-54259464D01*
X134007483Y-54304004D01*
X133985545Y-54345046D01*
X133956021Y-54381021D01*
X133920046Y-54410545D01*
X133879004Y-54432483D01*
X133834464Y-54445994D01*
X133785667Y-54450800D01*
X133214333Y-54450800D01*
X133165536Y-54445994D01*
X133120996Y-54432483D01*
X133079954Y-54410545D01*
X133043979Y-54381021D01*
X133014455Y-54345046D01*
X132992517Y-54304004D01*
X132979006Y-54259464D01*
X132974200Y-54210667D01*
X132974200Y-53539333D01*
X132979006Y-53490536D01*
X132992517Y-53445996D01*
X133014455Y-53404954D01*
X133043979Y-53368979D01*
X133079954Y-53339455D01*
X133120996Y-53317517D01*
X133165536Y-53304006D01*
X133214333Y-53299200D01*
X133785667Y-53299200D01*
X133834464Y-53304006D01*
X133834464Y-53304006D01*
G37*
G36*
X137834464Y-53304006D02*
G01*
X137879004Y-53317517D01*
X137920046Y-53339455D01*
X137956021Y-53368979D01*
X137985545Y-53404954D01*
X138007483Y-53445996D01*
X138020994Y-53490536D01*
X138025800Y-53539333D01*
X138025800Y-54210667D01*
X138020994Y-54259464D01*
X138007483Y-54304004D01*
X137985545Y-54345046D01*
X137956021Y-54381021D01*
X137920046Y-54410545D01*
X137879004Y-54432483D01*
X137834464Y-54445994D01*
X137785667Y-54450800D01*
X137214333Y-54450800D01*
X137165536Y-54445994D01*
X137120996Y-54432483D01*
X137079954Y-54410545D01*
X137043979Y-54381021D01*
X137014455Y-54345046D01*
X136992517Y-54304004D01*
X136979006Y-54259464D01*
X136974200Y-54210667D01*
X136974200Y-53539333D01*
X136979006Y-53490536D01*
X136992517Y-53445996D01*
X137014455Y-53404954D01*
X137043979Y-53368979D01*
X137079954Y-53339455D01*
X137120996Y-53317517D01*
X137165536Y-53304006D01*
X137214333Y-53299200D01*
X137785667Y-53299200D01*
X137834464Y-53304006D01*
X137834464Y-53304006D01*
G37*
G36*
X129834464Y-53304006D02*
G01*
X129879004Y-53317517D01*
X129920046Y-53339455D01*
X129956021Y-53368979D01*
X129985545Y-53404954D01*
X130007483Y-53445996D01*
X130020994Y-53490536D01*
X130025800Y-53539333D01*
X130025800Y-54210667D01*
X130020994Y-54259464D01*
X130007483Y-54304004D01*
X129985545Y-54345046D01*
X129956021Y-54381021D01*
X129920046Y-54410545D01*
X129879004Y-54432483D01*
X129834464Y-54445994D01*
X129785667Y-54450800D01*
X129214333Y-54450800D01*
X129165536Y-54445994D01*
X129120996Y-54432483D01*
X129079954Y-54410545D01*
X129043979Y-54381021D01*
X129014455Y-54345046D01*
X128992517Y-54304004D01*
X128979006Y-54259464D01*
X128974200Y-54210667D01*
X128974200Y-53539333D01*
X128979006Y-53490536D01*
X128992517Y-53445996D01*
X129014455Y-53404954D01*
X129043979Y-53368979D01*
X129079954Y-53339455D01*
X129120996Y-53317517D01*
X129165536Y-53304006D01*
X129214333Y-53299200D01*
X129785667Y-53299200D01*
X129834464Y-53304006D01*
X129834464Y-53304006D01*
G37*
G36*
X145834464Y-53304006D02*
G01*
X145879004Y-53317517D01*
X145920046Y-53339455D01*
X145956021Y-53368979D01*
X145985545Y-53404954D01*
X146007483Y-53445996D01*
X146020994Y-53490536D01*
X146025800Y-53539333D01*
X146025800Y-54210667D01*
X146020994Y-54259464D01*
X146007483Y-54304004D01*
X145985545Y-54345046D01*
X145956021Y-54381021D01*
X145920046Y-54410545D01*
X145879004Y-54432483D01*
X145834464Y-54445994D01*
X145785667Y-54450800D01*
X145214333Y-54450800D01*
X145165536Y-54445994D01*
X145120996Y-54432483D01*
X145079954Y-54410545D01*
X145043979Y-54381021D01*
X145014455Y-54345046D01*
X144992517Y-54304004D01*
X144979006Y-54259464D01*
X144974200Y-54210667D01*
X144974200Y-53539333D01*
X144979006Y-53490536D01*
X144992517Y-53445996D01*
X145014455Y-53404954D01*
X145043979Y-53368979D01*
X145079954Y-53339455D01*
X145120996Y-53317517D01*
X145165536Y-53304006D01*
X145214333Y-53299200D01*
X145785667Y-53299200D01*
X145834464Y-53304006D01*
X145834464Y-53304006D01*
G37*
G36*
X149834464Y-53304006D02*
G01*
X149879004Y-53317517D01*
X149920046Y-53339455D01*
X149956021Y-53368979D01*
X149985545Y-53404954D01*
X150007483Y-53445996D01*
X150020994Y-53490536D01*
X150025800Y-53539333D01*
X150025800Y-54210667D01*
X150020994Y-54259464D01*
X150007483Y-54304004D01*
X149985545Y-54345046D01*
X149956021Y-54381021D01*
X149920046Y-54410545D01*
X149879004Y-54432483D01*
X149834464Y-54445994D01*
X149785667Y-54450800D01*
X149214333Y-54450800D01*
X149165536Y-54445994D01*
X149120996Y-54432483D01*
X149079954Y-54410545D01*
X149043979Y-54381021D01*
X149014455Y-54345046D01*
X148992517Y-54304004D01*
X148979006Y-54259464D01*
X148974200Y-54210667D01*
X148974200Y-53539333D01*
X148979006Y-53490536D01*
X148992517Y-53445996D01*
X149014455Y-53404954D01*
X149043979Y-53368979D01*
X149079954Y-53339455D01*
X149120996Y-53317517D01*
X149165536Y-53304006D01*
X149214333Y-53299200D01*
X149785667Y-53299200D01*
X149834464Y-53304006D01*
X149834464Y-53304006D01*
G37*
G36*
X137834464Y-51554006D02*
G01*
X137879004Y-51567517D01*
X137920046Y-51589455D01*
X137956021Y-51618979D01*
X137985545Y-51654954D01*
X138007483Y-51695996D01*
X138020994Y-51740536D01*
X138025800Y-51789333D01*
X138025800Y-52460667D01*
X138020994Y-52509464D01*
X138007483Y-52554004D01*
X137985545Y-52595046D01*
X137956021Y-52631021D01*
X137920046Y-52660545D01*
X137879004Y-52682483D01*
X137834464Y-52695994D01*
X137785667Y-52700800D01*
X137214333Y-52700800D01*
X137165536Y-52695994D01*
X137120996Y-52682483D01*
X137079954Y-52660545D01*
X137043979Y-52631021D01*
X137014455Y-52595046D01*
X136992517Y-52554004D01*
X136979006Y-52509464D01*
X136974200Y-52460667D01*
X136974200Y-51789333D01*
X136979006Y-51740536D01*
X136992517Y-51695996D01*
X137014455Y-51654954D01*
X137043979Y-51618979D01*
X137079954Y-51589455D01*
X137120996Y-51567517D01*
X137165536Y-51554006D01*
X137214333Y-51549200D01*
X137785667Y-51549200D01*
X137834464Y-51554006D01*
X137834464Y-51554006D01*
G37*
G36*
X141834464Y-51554006D02*
G01*
X141879004Y-51567517D01*
X141920046Y-51589455D01*
X141956021Y-51618979D01*
X141985545Y-51654954D01*
X142007483Y-51695996D01*
X142020994Y-51740536D01*
X142025800Y-51789333D01*
X142025800Y-52460667D01*
X142020994Y-52509464D01*
X142007483Y-52554004D01*
X141985545Y-52595046D01*
X141956021Y-52631021D01*
X141920046Y-52660545D01*
X141879004Y-52682483D01*
X141834464Y-52695994D01*
X141785667Y-52700800D01*
X141214333Y-52700800D01*
X141165536Y-52695994D01*
X141120996Y-52682483D01*
X141079954Y-52660545D01*
X141043979Y-52631021D01*
X141014455Y-52595046D01*
X140992517Y-52554004D01*
X140979006Y-52509464D01*
X140974200Y-52460667D01*
X140974200Y-51789333D01*
X140979006Y-51740536D01*
X140992517Y-51695996D01*
X141014455Y-51654954D01*
X141043979Y-51618979D01*
X141079954Y-51589455D01*
X141120996Y-51567517D01*
X141165536Y-51554006D01*
X141214333Y-51549200D01*
X141785667Y-51549200D01*
X141834464Y-51554006D01*
X141834464Y-51554006D01*
G37*
G36*
X145834464Y-51554006D02*
G01*
X145879004Y-51567517D01*
X145920046Y-51589455D01*
X145956021Y-51618979D01*
X145985545Y-51654954D01*
X146007483Y-51695996D01*
X146020994Y-51740536D01*
X146025800Y-51789333D01*
X146025800Y-52460667D01*
X146020994Y-52509464D01*
X146007483Y-52554004D01*
X145985545Y-52595046D01*
X145956021Y-52631021D01*
X145920046Y-52660545D01*
X145879004Y-52682483D01*
X145834464Y-52695994D01*
X145785667Y-52700800D01*
X145214333Y-52700800D01*
X145165536Y-52695994D01*
X145120996Y-52682483D01*
X145079954Y-52660545D01*
X145043979Y-52631021D01*
X145014455Y-52595046D01*
X144992517Y-52554004D01*
X144979006Y-52509464D01*
X144974200Y-52460667D01*
X144974200Y-51789333D01*
X144979006Y-51740536D01*
X144992517Y-51695996D01*
X145014455Y-51654954D01*
X145043979Y-51618979D01*
X145079954Y-51589455D01*
X145120996Y-51567517D01*
X145165536Y-51554006D01*
X145214333Y-51549200D01*
X145785667Y-51549200D01*
X145834464Y-51554006D01*
X145834464Y-51554006D01*
G37*
G36*
X133834464Y-51554006D02*
G01*
X133879004Y-51567517D01*
X133920046Y-51589455D01*
X133956021Y-51618979D01*
X133985545Y-51654954D01*
X134007483Y-51695996D01*
X134020994Y-51740536D01*
X134025800Y-51789333D01*
X134025800Y-52460667D01*
X134020994Y-52509464D01*
X134007483Y-52554004D01*
X133985545Y-52595046D01*
X133956021Y-52631021D01*
X133920046Y-52660545D01*
X133879004Y-52682483D01*
X133834464Y-52695994D01*
X133785667Y-52700800D01*
X133214333Y-52700800D01*
X133165536Y-52695994D01*
X133120996Y-52682483D01*
X133079954Y-52660545D01*
X133043979Y-52631021D01*
X133014455Y-52595046D01*
X132992517Y-52554004D01*
X132979006Y-52509464D01*
X132974200Y-52460667D01*
X132974200Y-51789333D01*
X132979006Y-51740536D01*
X132992517Y-51695996D01*
X133014455Y-51654954D01*
X133043979Y-51618979D01*
X133079954Y-51589455D01*
X133120996Y-51567517D01*
X133165536Y-51554006D01*
X133214333Y-51549200D01*
X133785667Y-51549200D01*
X133834464Y-51554006D01*
X133834464Y-51554006D01*
G37*
G36*
X149834464Y-51554006D02*
G01*
X149879004Y-51567517D01*
X149920046Y-51589455D01*
X149956021Y-51618979D01*
X149985545Y-51654954D01*
X150007483Y-51695996D01*
X150020994Y-51740536D01*
X150025800Y-51789333D01*
X150025800Y-52460667D01*
X150020994Y-52509464D01*
X150007483Y-52554004D01*
X149985545Y-52595046D01*
X149956021Y-52631021D01*
X149920046Y-52660545D01*
X149879004Y-52682483D01*
X149834464Y-52695994D01*
X149785667Y-52700800D01*
X149214333Y-52700800D01*
X149165536Y-52695994D01*
X149120996Y-52682483D01*
X149079954Y-52660545D01*
X149043979Y-52631021D01*
X149014455Y-52595046D01*
X148992517Y-52554004D01*
X148979006Y-52509464D01*
X148974200Y-52460667D01*
X148974200Y-51789333D01*
X148979006Y-51740536D01*
X148992517Y-51695996D01*
X149014455Y-51654954D01*
X149043979Y-51618979D01*
X149079954Y-51589455D01*
X149120996Y-51567517D01*
X149165536Y-51554006D01*
X149214333Y-51549200D01*
X149785667Y-51549200D01*
X149834464Y-51554006D01*
X149834464Y-51554006D01*
G37*
G36*
X129834464Y-51554006D02*
G01*
X129879004Y-51567517D01*
X129920046Y-51589455D01*
X129956021Y-51618979D01*
X129985545Y-51654954D01*
X130007483Y-51695996D01*
X130020994Y-51740536D01*
X130025800Y-51789333D01*
X130025800Y-52460667D01*
X130020994Y-52509464D01*
X130007483Y-52554004D01*
X129985545Y-52595046D01*
X129956021Y-52631021D01*
X129920046Y-52660545D01*
X129879004Y-52682483D01*
X129834464Y-52695994D01*
X129785667Y-52700800D01*
X129214333Y-52700800D01*
X129165536Y-52695994D01*
X129120996Y-52682483D01*
X129079954Y-52660545D01*
X129043979Y-52631021D01*
X129014455Y-52595046D01*
X128992517Y-52554004D01*
X128979006Y-52509464D01*
X128974200Y-52460667D01*
X128974200Y-51789333D01*
X128979006Y-51740536D01*
X128992517Y-51695996D01*
X129014455Y-51654954D01*
X129043979Y-51618979D01*
X129079954Y-51589455D01*
X129120996Y-51567517D01*
X129165536Y-51554006D01*
X129214333Y-51549200D01*
X129785667Y-51549200D01*
X129834464Y-51554006D01*
X129834464Y-51554006D01*
G37*
G36*
X149424836Y-41057676D02*
G01*
X149535259Y-41091173D01*
X149586143Y-41118371D01*
X149637028Y-41145569D01*
X149726227Y-41218773D01*
X149799431Y-41307971D01*
X149799432Y-41307973D01*
X149853827Y-41409740D01*
X149887324Y-41520163D01*
X149895800Y-41606225D01*
X149895800Y-42393775D01*
X149887324Y-42479837D01*
X149853827Y-42590260D01*
X149826629Y-42641144D01*
X149799431Y-42692029D01*
X149726227Y-42781227D01*
X149637029Y-42854431D01*
X149586144Y-42881629D01*
X149535260Y-42908827D01*
X149424837Y-42942324D01*
X149310000Y-42953634D01*
X149195164Y-42942324D01*
X149084741Y-42908827D01*
X149033857Y-42881629D01*
X148982972Y-42854431D01*
X148893774Y-42781227D01*
X148820570Y-42692029D01*
X148766174Y-42590260D01*
X148766174Y-42590259D01*
X148732676Y-42479837D01*
X148725255Y-42404487D01*
X148723325Y-42394783D01*
X148719536Y-42385637D01*
X148714036Y-42377406D01*
X148707036Y-42370406D01*
X148698805Y-42364906D01*
X148689659Y-42361118D01*
X148679950Y-42359186D01*
X148670050Y-42359186D01*
X148660341Y-42361117D01*
X148651195Y-42364906D01*
X148642964Y-42370406D01*
X148635964Y-42377406D01*
X148630464Y-42385637D01*
X148626676Y-42394783D01*
X148624745Y-42404487D01*
X148617324Y-42479837D01*
X148583827Y-42590260D01*
X148556629Y-42641144D01*
X148529431Y-42692029D01*
X148456227Y-42781227D01*
X148367029Y-42854431D01*
X148316144Y-42881629D01*
X148265260Y-42908827D01*
X148154837Y-42942324D01*
X148040000Y-42953634D01*
X147925164Y-42942324D01*
X147814741Y-42908827D01*
X147763857Y-42881629D01*
X147712972Y-42854431D01*
X147623774Y-42781227D01*
X147550570Y-42692029D01*
X147496174Y-42590260D01*
X147496174Y-42590259D01*
X147462676Y-42479837D01*
X147455255Y-42404487D01*
X147453325Y-42394783D01*
X147449536Y-42385637D01*
X147444036Y-42377406D01*
X147437036Y-42370406D01*
X147428805Y-42364906D01*
X147419659Y-42361118D01*
X147409950Y-42359186D01*
X147400050Y-42359186D01*
X147390341Y-42361117D01*
X147381195Y-42364906D01*
X147372964Y-42370406D01*
X147365964Y-42377406D01*
X147360464Y-42385637D01*
X147356676Y-42394783D01*
X147354745Y-42404487D01*
X147347324Y-42479837D01*
X147313827Y-42590260D01*
X147286629Y-42641144D01*
X147259431Y-42692029D01*
X147186227Y-42781227D01*
X147097029Y-42854431D01*
X147046144Y-42881629D01*
X146995260Y-42908827D01*
X146884837Y-42942324D01*
X146770000Y-42953634D01*
X146655164Y-42942324D01*
X146544741Y-42908827D01*
X146493857Y-42881629D01*
X146442972Y-42854431D01*
X146353774Y-42781227D01*
X146280570Y-42692029D01*
X146226174Y-42590260D01*
X146226174Y-42590259D01*
X146192676Y-42479837D01*
X146186554Y-42417677D01*
X146184624Y-42407973D01*
X146180835Y-42398827D01*
X146175335Y-42390596D01*
X146168335Y-42383596D01*
X146160104Y-42378096D01*
X146150958Y-42374308D01*
X146141249Y-42372376D01*
X146131349Y-42372376D01*
X146121640Y-42374307D01*
X146112494Y-42378096D01*
X146104263Y-42383596D01*
X146097263Y-42390596D01*
X146091763Y-42398827D01*
X146087975Y-42407973D01*
X146086043Y-42417682D01*
X146085800Y-42422632D01*
X146085800Y-42950800D01*
X144914200Y-42950800D01*
X144914200Y-41049200D01*
X146085800Y-41049200D01*
X146085800Y-41577369D01*
X146086770Y-41587221D01*
X146089644Y-41596694D01*
X146094311Y-41605425D01*
X146100591Y-41613077D01*
X146108243Y-41619357D01*
X146116974Y-41624024D01*
X146126447Y-41626898D01*
X146136299Y-41627868D01*
X146146151Y-41626898D01*
X146155624Y-41624024D01*
X146164355Y-41619357D01*
X146172007Y-41613077D01*
X146178287Y-41605425D01*
X146182954Y-41596694D01*
X146185828Y-41587221D01*
X146186555Y-41582319D01*
X146192676Y-41520164D01*
X146226173Y-41409741D01*
X146253371Y-41358857D01*
X146280569Y-41307972D01*
X146353773Y-41218773D01*
X146442971Y-41145569D01*
X146493856Y-41118371D01*
X146544740Y-41091173D01*
X146655163Y-41057676D01*
X146770000Y-41046366D01*
X146884836Y-41057676D01*
X146995259Y-41091173D01*
X147046143Y-41118371D01*
X147097028Y-41145569D01*
X147186227Y-41218773D01*
X147259431Y-41307971D01*
X147259432Y-41307973D01*
X147313827Y-41409740D01*
X147347324Y-41520163D01*
X147354745Y-41595513D01*
X147356675Y-41605217D01*
X147360464Y-41614363D01*
X147365964Y-41622594D01*
X147372964Y-41629594D01*
X147381195Y-41635094D01*
X147390341Y-41638882D01*
X147400050Y-41640814D01*
X147409950Y-41640814D01*
X147419659Y-41638883D01*
X147428805Y-41635094D01*
X147437036Y-41629594D01*
X147444036Y-41622594D01*
X147449536Y-41614363D01*
X147453324Y-41605217D01*
X147455256Y-41595508D01*
X147456555Y-41582319D01*
X147462676Y-41520164D01*
X147496173Y-41409741D01*
X147523371Y-41358857D01*
X147550569Y-41307972D01*
X147623773Y-41218773D01*
X147712971Y-41145569D01*
X147763856Y-41118371D01*
X147814740Y-41091173D01*
X147925163Y-41057676D01*
X148040000Y-41046366D01*
X148154836Y-41057676D01*
X148265259Y-41091173D01*
X148316143Y-41118371D01*
X148367028Y-41145569D01*
X148456227Y-41218773D01*
X148529431Y-41307971D01*
X148529432Y-41307973D01*
X148583827Y-41409740D01*
X148617324Y-41520163D01*
X148624745Y-41595513D01*
X148626675Y-41605217D01*
X148630464Y-41614363D01*
X148635964Y-41622594D01*
X148642964Y-41629594D01*
X148651195Y-41635094D01*
X148660341Y-41638882D01*
X148670050Y-41640814D01*
X148679950Y-41640814D01*
X148689659Y-41638883D01*
X148698805Y-41635094D01*
X148707036Y-41629594D01*
X148714036Y-41622594D01*
X148719536Y-41614363D01*
X148723324Y-41605217D01*
X148725256Y-41595508D01*
X148726555Y-41582319D01*
X148732676Y-41520164D01*
X148766173Y-41409741D01*
X148793371Y-41358857D01*
X148820569Y-41307972D01*
X148893773Y-41218773D01*
X148982971Y-41145569D01*
X149033856Y-41118371D01*
X149084740Y-41091173D01*
X149195163Y-41057676D01*
X149310000Y-41046366D01*
X149424836Y-41057676D01*
X149424836Y-41057676D01*
G37*
G36*
X133424836Y-41057676D02*
G01*
X133535259Y-41091173D01*
X133586143Y-41118371D01*
X133637028Y-41145569D01*
X133726227Y-41218773D01*
X133799431Y-41307971D01*
X133799432Y-41307973D01*
X133853827Y-41409740D01*
X133887324Y-41520163D01*
X133895800Y-41606225D01*
X133895800Y-42393775D01*
X133887324Y-42479837D01*
X133853827Y-42590260D01*
X133826629Y-42641144D01*
X133799431Y-42692029D01*
X133726227Y-42781227D01*
X133637029Y-42854431D01*
X133586144Y-42881629D01*
X133535260Y-42908827D01*
X133424837Y-42942324D01*
X133310000Y-42953634D01*
X133195164Y-42942324D01*
X133084741Y-42908827D01*
X133033857Y-42881629D01*
X132982972Y-42854431D01*
X132893774Y-42781227D01*
X132820570Y-42692029D01*
X132766174Y-42590260D01*
X132766174Y-42590259D01*
X132732676Y-42479837D01*
X132725255Y-42404487D01*
X132723325Y-42394783D01*
X132719536Y-42385637D01*
X132714036Y-42377406D01*
X132707036Y-42370406D01*
X132698805Y-42364906D01*
X132689659Y-42361118D01*
X132679950Y-42359186D01*
X132670050Y-42359186D01*
X132660341Y-42361117D01*
X132651195Y-42364906D01*
X132642964Y-42370406D01*
X132635964Y-42377406D01*
X132630464Y-42385637D01*
X132626676Y-42394783D01*
X132624745Y-42404487D01*
X132617324Y-42479837D01*
X132583827Y-42590260D01*
X132556629Y-42641144D01*
X132529431Y-42692029D01*
X132456227Y-42781227D01*
X132367029Y-42854431D01*
X132316144Y-42881629D01*
X132265260Y-42908827D01*
X132154837Y-42942324D01*
X132040000Y-42953634D01*
X131925164Y-42942324D01*
X131814741Y-42908827D01*
X131763857Y-42881629D01*
X131712972Y-42854431D01*
X131623774Y-42781227D01*
X131550570Y-42692029D01*
X131496174Y-42590260D01*
X131496174Y-42590259D01*
X131462676Y-42479837D01*
X131455255Y-42404487D01*
X131453325Y-42394783D01*
X131449536Y-42385637D01*
X131444036Y-42377406D01*
X131437036Y-42370406D01*
X131428805Y-42364906D01*
X131419659Y-42361118D01*
X131409950Y-42359186D01*
X131400050Y-42359186D01*
X131390341Y-42361117D01*
X131381195Y-42364906D01*
X131372964Y-42370406D01*
X131365964Y-42377406D01*
X131360464Y-42385637D01*
X131356676Y-42394783D01*
X131354745Y-42404487D01*
X131347324Y-42479837D01*
X131313827Y-42590260D01*
X131286629Y-42641144D01*
X131259431Y-42692029D01*
X131186227Y-42781227D01*
X131097029Y-42854431D01*
X131046144Y-42881629D01*
X130995260Y-42908827D01*
X130884837Y-42942324D01*
X130770000Y-42953634D01*
X130655164Y-42942324D01*
X130544741Y-42908827D01*
X130493857Y-42881629D01*
X130442972Y-42854431D01*
X130353774Y-42781227D01*
X130280570Y-42692029D01*
X130226174Y-42590260D01*
X130226174Y-42590259D01*
X130192676Y-42479837D01*
X130186554Y-42417677D01*
X130184624Y-42407973D01*
X130180835Y-42398827D01*
X130175335Y-42390596D01*
X130168335Y-42383596D01*
X130160104Y-42378096D01*
X130150958Y-42374308D01*
X130141249Y-42372376D01*
X130131349Y-42372376D01*
X130121640Y-42374307D01*
X130112494Y-42378096D01*
X130104263Y-42383596D01*
X130097263Y-42390596D01*
X130091763Y-42398827D01*
X130087975Y-42407973D01*
X130086043Y-42417682D01*
X130085800Y-42422632D01*
X130085800Y-42950800D01*
X128914200Y-42950800D01*
X128914200Y-41049200D01*
X130085800Y-41049200D01*
X130085800Y-41577369D01*
X130086770Y-41587221D01*
X130089644Y-41596694D01*
X130094311Y-41605425D01*
X130100591Y-41613077D01*
X130108243Y-41619357D01*
X130116974Y-41624024D01*
X130126447Y-41626898D01*
X130136299Y-41627868D01*
X130146151Y-41626898D01*
X130155624Y-41624024D01*
X130164355Y-41619357D01*
X130172007Y-41613077D01*
X130178287Y-41605425D01*
X130182954Y-41596694D01*
X130185828Y-41587221D01*
X130186555Y-41582319D01*
X130192676Y-41520164D01*
X130226173Y-41409741D01*
X130253371Y-41358857D01*
X130280569Y-41307972D01*
X130353773Y-41218773D01*
X130442971Y-41145569D01*
X130493856Y-41118371D01*
X130544740Y-41091173D01*
X130655163Y-41057676D01*
X130770000Y-41046366D01*
X130884836Y-41057676D01*
X130995259Y-41091173D01*
X131046143Y-41118371D01*
X131097028Y-41145569D01*
X131186227Y-41218773D01*
X131259431Y-41307971D01*
X131259432Y-41307973D01*
X131313827Y-41409740D01*
X131347324Y-41520163D01*
X131354745Y-41595513D01*
X131356675Y-41605217D01*
X131360464Y-41614363D01*
X131365964Y-41622594D01*
X131372964Y-41629594D01*
X131381195Y-41635094D01*
X131390341Y-41638882D01*
X131400050Y-41640814D01*
X131409950Y-41640814D01*
X131419659Y-41638883D01*
X131428805Y-41635094D01*
X131437036Y-41629594D01*
X131444036Y-41622594D01*
X131449536Y-41614363D01*
X131453324Y-41605217D01*
X131455256Y-41595508D01*
X131456555Y-41582319D01*
X131462676Y-41520164D01*
X131496173Y-41409741D01*
X131523371Y-41358857D01*
X131550569Y-41307972D01*
X131623773Y-41218773D01*
X131712971Y-41145569D01*
X131763856Y-41118371D01*
X131814740Y-41091173D01*
X131925163Y-41057676D01*
X132040000Y-41046366D01*
X132154836Y-41057676D01*
X132265259Y-41091173D01*
X132316143Y-41118371D01*
X132367028Y-41145569D01*
X132456227Y-41218773D01*
X132529431Y-41307971D01*
X132529432Y-41307973D01*
X132583827Y-41409740D01*
X132617324Y-41520163D01*
X132624745Y-41595513D01*
X132626675Y-41605217D01*
X132630464Y-41614363D01*
X132635964Y-41622594D01*
X132642964Y-41629594D01*
X132651195Y-41635094D01*
X132660341Y-41638882D01*
X132670050Y-41640814D01*
X132679950Y-41640814D01*
X132689659Y-41638883D01*
X132698805Y-41635094D01*
X132707036Y-41629594D01*
X132714036Y-41622594D01*
X132719536Y-41614363D01*
X132723324Y-41605217D01*
X132725256Y-41595508D01*
X132726555Y-41582319D01*
X132732676Y-41520164D01*
X132766173Y-41409741D01*
X132793371Y-41358857D01*
X132820569Y-41307972D01*
X132893773Y-41218773D01*
X132982971Y-41145569D01*
X133033856Y-41118371D01*
X133084740Y-41091173D01*
X133195163Y-41057676D01*
X133310000Y-41046366D01*
X133424836Y-41057676D01*
X133424836Y-41057676D01*
G37*
G36*
X141424836Y-41057676D02*
G01*
X141535259Y-41091173D01*
X141586143Y-41118371D01*
X141637028Y-41145569D01*
X141726227Y-41218773D01*
X141799431Y-41307971D01*
X141799432Y-41307973D01*
X141853827Y-41409740D01*
X141887324Y-41520163D01*
X141895800Y-41606225D01*
X141895800Y-42393775D01*
X141887324Y-42479837D01*
X141853827Y-42590260D01*
X141826629Y-42641144D01*
X141799431Y-42692029D01*
X141726227Y-42781227D01*
X141637029Y-42854431D01*
X141586144Y-42881629D01*
X141535260Y-42908827D01*
X141424837Y-42942324D01*
X141310000Y-42953634D01*
X141195164Y-42942324D01*
X141084741Y-42908827D01*
X141033857Y-42881629D01*
X140982972Y-42854431D01*
X140893774Y-42781227D01*
X140820570Y-42692029D01*
X140766174Y-42590260D01*
X140766174Y-42590259D01*
X140732676Y-42479837D01*
X140725255Y-42404487D01*
X140723325Y-42394783D01*
X140719536Y-42385637D01*
X140714036Y-42377406D01*
X140707036Y-42370406D01*
X140698805Y-42364906D01*
X140689659Y-42361118D01*
X140679950Y-42359186D01*
X140670050Y-42359186D01*
X140660341Y-42361117D01*
X140651195Y-42364906D01*
X140642964Y-42370406D01*
X140635964Y-42377406D01*
X140630464Y-42385637D01*
X140626676Y-42394783D01*
X140624745Y-42404487D01*
X140617324Y-42479837D01*
X140583827Y-42590260D01*
X140556629Y-42641144D01*
X140529431Y-42692029D01*
X140456227Y-42781227D01*
X140367029Y-42854431D01*
X140316144Y-42881629D01*
X140265260Y-42908827D01*
X140154837Y-42942324D01*
X140040000Y-42953634D01*
X139925164Y-42942324D01*
X139814741Y-42908827D01*
X139763857Y-42881629D01*
X139712972Y-42854431D01*
X139623774Y-42781227D01*
X139550570Y-42692029D01*
X139496174Y-42590260D01*
X139496174Y-42590259D01*
X139462676Y-42479837D01*
X139455255Y-42404487D01*
X139453325Y-42394783D01*
X139449536Y-42385637D01*
X139444036Y-42377406D01*
X139437036Y-42370406D01*
X139428805Y-42364906D01*
X139419659Y-42361118D01*
X139409950Y-42359186D01*
X139400050Y-42359186D01*
X139390341Y-42361117D01*
X139381195Y-42364906D01*
X139372964Y-42370406D01*
X139365964Y-42377406D01*
X139360464Y-42385637D01*
X139356676Y-42394783D01*
X139354745Y-42404487D01*
X139347324Y-42479837D01*
X139313827Y-42590260D01*
X139286629Y-42641144D01*
X139259431Y-42692029D01*
X139186227Y-42781227D01*
X139097029Y-42854431D01*
X139046144Y-42881629D01*
X138995260Y-42908827D01*
X138884837Y-42942324D01*
X138770000Y-42953634D01*
X138655164Y-42942324D01*
X138544741Y-42908827D01*
X138493857Y-42881629D01*
X138442972Y-42854431D01*
X138353774Y-42781227D01*
X138280570Y-42692029D01*
X138226174Y-42590260D01*
X138226174Y-42590259D01*
X138192676Y-42479837D01*
X138186554Y-42417677D01*
X138184624Y-42407973D01*
X138180835Y-42398827D01*
X138175335Y-42390596D01*
X138168335Y-42383596D01*
X138160104Y-42378096D01*
X138150958Y-42374308D01*
X138141249Y-42372376D01*
X138131349Y-42372376D01*
X138121640Y-42374307D01*
X138112494Y-42378096D01*
X138104263Y-42383596D01*
X138097263Y-42390596D01*
X138091763Y-42398827D01*
X138087975Y-42407973D01*
X138086043Y-42417682D01*
X138085800Y-42422632D01*
X138085800Y-42950800D01*
X136914200Y-42950800D01*
X136914200Y-41049200D01*
X138085800Y-41049200D01*
X138085800Y-41577369D01*
X138086770Y-41587221D01*
X138089644Y-41596694D01*
X138094311Y-41605425D01*
X138100591Y-41613077D01*
X138108243Y-41619357D01*
X138116974Y-41624024D01*
X138126447Y-41626898D01*
X138136299Y-41627868D01*
X138146151Y-41626898D01*
X138155624Y-41624024D01*
X138164355Y-41619357D01*
X138172007Y-41613077D01*
X138178287Y-41605425D01*
X138182954Y-41596694D01*
X138185828Y-41587221D01*
X138186555Y-41582319D01*
X138192676Y-41520164D01*
X138226173Y-41409741D01*
X138253371Y-41358857D01*
X138280569Y-41307972D01*
X138353773Y-41218773D01*
X138442971Y-41145569D01*
X138493856Y-41118371D01*
X138544740Y-41091173D01*
X138655163Y-41057676D01*
X138770000Y-41046366D01*
X138884836Y-41057676D01*
X138995259Y-41091173D01*
X139046143Y-41118371D01*
X139097028Y-41145569D01*
X139186227Y-41218773D01*
X139259431Y-41307971D01*
X139259432Y-41307973D01*
X139313827Y-41409740D01*
X139347324Y-41520163D01*
X139354745Y-41595513D01*
X139356675Y-41605217D01*
X139360464Y-41614363D01*
X139365964Y-41622594D01*
X139372964Y-41629594D01*
X139381195Y-41635094D01*
X139390341Y-41638882D01*
X139400050Y-41640814D01*
X139409950Y-41640814D01*
X139419659Y-41638883D01*
X139428805Y-41635094D01*
X139437036Y-41629594D01*
X139444036Y-41622594D01*
X139449536Y-41614363D01*
X139453324Y-41605217D01*
X139455256Y-41595508D01*
X139456555Y-41582319D01*
X139462676Y-41520164D01*
X139496173Y-41409741D01*
X139523371Y-41358857D01*
X139550569Y-41307972D01*
X139623773Y-41218773D01*
X139712971Y-41145569D01*
X139763856Y-41118371D01*
X139814740Y-41091173D01*
X139925163Y-41057676D01*
X140040000Y-41046366D01*
X140154836Y-41057676D01*
X140265259Y-41091173D01*
X140316143Y-41118371D01*
X140367028Y-41145569D01*
X140456227Y-41218773D01*
X140529431Y-41307971D01*
X140529432Y-41307973D01*
X140583827Y-41409740D01*
X140617324Y-41520163D01*
X140624745Y-41595513D01*
X140626675Y-41605217D01*
X140630464Y-41614363D01*
X140635964Y-41622594D01*
X140642964Y-41629594D01*
X140651195Y-41635094D01*
X140660341Y-41638882D01*
X140670050Y-41640814D01*
X140679950Y-41640814D01*
X140689659Y-41638883D01*
X140698805Y-41635094D01*
X140707036Y-41629594D01*
X140714036Y-41622594D01*
X140719536Y-41614363D01*
X140723324Y-41605217D01*
X140725256Y-41595508D01*
X140726555Y-41582319D01*
X140732676Y-41520164D01*
X140766173Y-41409741D01*
X140793371Y-41358857D01*
X140820569Y-41307972D01*
X140893773Y-41218773D01*
X140982971Y-41145569D01*
X141033856Y-41118371D01*
X141084740Y-41091173D01*
X141195163Y-41057676D01*
X141310000Y-41046366D01*
X141424836Y-41057676D01*
X141424836Y-41057676D01*
G37*
G36*
X149424836Y-33057676D02*
G01*
X149535259Y-33091173D01*
X149586143Y-33118371D01*
X149637028Y-33145569D01*
X149726227Y-33218773D01*
X149799431Y-33307971D01*
X149799432Y-33307973D01*
X149853827Y-33409740D01*
X149887324Y-33520163D01*
X149895800Y-33606225D01*
X149895800Y-34393775D01*
X149887324Y-34479837D01*
X149853827Y-34590260D01*
X149826629Y-34641144D01*
X149799431Y-34692029D01*
X149726227Y-34781227D01*
X149637029Y-34854431D01*
X149586144Y-34881629D01*
X149535260Y-34908827D01*
X149424837Y-34942324D01*
X149310000Y-34953634D01*
X149195164Y-34942324D01*
X149084741Y-34908827D01*
X149033857Y-34881629D01*
X148982972Y-34854431D01*
X148893774Y-34781227D01*
X148820570Y-34692029D01*
X148766174Y-34590260D01*
X148766174Y-34590259D01*
X148732676Y-34479837D01*
X148725255Y-34404487D01*
X148723325Y-34394783D01*
X148719536Y-34385637D01*
X148714036Y-34377406D01*
X148707036Y-34370406D01*
X148698805Y-34364906D01*
X148689659Y-34361118D01*
X148679950Y-34359186D01*
X148670050Y-34359186D01*
X148660341Y-34361117D01*
X148651195Y-34364906D01*
X148642964Y-34370406D01*
X148635964Y-34377406D01*
X148630464Y-34385637D01*
X148626676Y-34394783D01*
X148624745Y-34404487D01*
X148617324Y-34479837D01*
X148583827Y-34590260D01*
X148556629Y-34641144D01*
X148529431Y-34692029D01*
X148456227Y-34781227D01*
X148367029Y-34854431D01*
X148316144Y-34881629D01*
X148265260Y-34908827D01*
X148154837Y-34942324D01*
X148040000Y-34953634D01*
X147925164Y-34942324D01*
X147814741Y-34908827D01*
X147763857Y-34881629D01*
X147712972Y-34854431D01*
X147623774Y-34781227D01*
X147550570Y-34692029D01*
X147496174Y-34590260D01*
X147496174Y-34590259D01*
X147462676Y-34479837D01*
X147455255Y-34404487D01*
X147453325Y-34394783D01*
X147449536Y-34385637D01*
X147444036Y-34377406D01*
X147437036Y-34370406D01*
X147428805Y-34364906D01*
X147419659Y-34361118D01*
X147409950Y-34359186D01*
X147400050Y-34359186D01*
X147390341Y-34361117D01*
X147381195Y-34364906D01*
X147372964Y-34370406D01*
X147365964Y-34377406D01*
X147360464Y-34385637D01*
X147356676Y-34394783D01*
X147354745Y-34404487D01*
X147347324Y-34479837D01*
X147313827Y-34590260D01*
X147286629Y-34641144D01*
X147259431Y-34692029D01*
X147186227Y-34781227D01*
X147097029Y-34854431D01*
X147046144Y-34881629D01*
X146995260Y-34908827D01*
X146884837Y-34942324D01*
X146770000Y-34953634D01*
X146655164Y-34942324D01*
X146544741Y-34908827D01*
X146493857Y-34881629D01*
X146442972Y-34854431D01*
X146353774Y-34781227D01*
X146280570Y-34692029D01*
X146226174Y-34590260D01*
X146226174Y-34590259D01*
X146192676Y-34479837D01*
X146186554Y-34417677D01*
X146184624Y-34407973D01*
X146180835Y-34398827D01*
X146175335Y-34390596D01*
X146168335Y-34383596D01*
X146160104Y-34378096D01*
X146150958Y-34374308D01*
X146141249Y-34372376D01*
X146131349Y-34372376D01*
X146121640Y-34374307D01*
X146112494Y-34378096D01*
X146104263Y-34383596D01*
X146097263Y-34390596D01*
X146091763Y-34398827D01*
X146087975Y-34407973D01*
X146086043Y-34417682D01*
X146085800Y-34422632D01*
X146085800Y-34950800D01*
X144914200Y-34950800D01*
X144914200Y-33049200D01*
X146085800Y-33049200D01*
X146085800Y-33577369D01*
X146086770Y-33587221D01*
X146089644Y-33596694D01*
X146094311Y-33605425D01*
X146100591Y-33613077D01*
X146108243Y-33619357D01*
X146116974Y-33624024D01*
X146126447Y-33626898D01*
X146136299Y-33627868D01*
X146146151Y-33626898D01*
X146155624Y-33624024D01*
X146164355Y-33619357D01*
X146172007Y-33613077D01*
X146178287Y-33605425D01*
X146182954Y-33596694D01*
X146185828Y-33587221D01*
X146186555Y-33582319D01*
X146192676Y-33520164D01*
X146226173Y-33409741D01*
X146253371Y-33358857D01*
X146280569Y-33307972D01*
X146353773Y-33218773D01*
X146442971Y-33145569D01*
X146493856Y-33118371D01*
X146544740Y-33091173D01*
X146655163Y-33057676D01*
X146770000Y-33046366D01*
X146884836Y-33057676D01*
X146995259Y-33091173D01*
X147046143Y-33118371D01*
X147097028Y-33145569D01*
X147186227Y-33218773D01*
X147259431Y-33307971D01*
X147259432Y-33307973D01*
X147313827Y-33409740D01*
X147347324Y-33520163D01*
X147354745Y-33595513D01*
X147356675Y-33605217D01*
X147360464Y-33614363D01*
X147365964Y-33622594D01*
X147372964Y-33629594D01*
X147381195Y-33635094D01*
X147390341Y-33638882D01*
X147400050Y-33640814D01*
X147409950Y-33640814D01*
X147419659Y-33638883D01*
X147428805Y-33635094D01*
X147437036Y-33629594D01*
X147444036Y-33622594D01*
X147449536Y-33614363D01*
X147453324Y-33605217D01*
X147455256Y-33595508D01*
X147456555Y-33582319D01*
X147462676Y-33520164D01*
X147496173Y-33409741D01*
X147523371Y-33358857D01*
X147550569Y-33307972D01*
X147623773Y-33218773D01*
X147712971Y-33145569D01*
X147763856Y-33118371D01*
X147814740Y-33091173D01*
X147925163Y-33057676D01*
X148040000Y-33046366D01*
X148154836Y-33057676D01*
X148265259Y-33091173D01*
X148316143Y-33118371D01*
X148367028Y-33145569D01*
X148456227Y-33218773D01*
X148529431Y-33307971D01*
X148529432Y-33307973D01*
X148583827Y-33409740D01*
X148617324Y-33520163D01*
X148624745Y-33595513D01*
X148626675Y-33605217D01*
X148630464Y-33614363D01*
X148635964Y-33622594D01*
X148642964Y-33629594D01*
X148651195Y-33635094D01*
X148660341Y-33638882D01*
X148670050Y-33640814D01*
X148679950Y-33640814D01*
X148689659Y-33638883D01*
X148698805Y-33635094D01*
X148707036Y-33629594D01*
X148714036Y-33622594D01*
X148719536Y-33614363D01*
X148723324Y-33605217D01*
X148725256Y-33595508D01*
X148726555Y-33582319D01*
X148732676Y-33520164D01*
X148766173Y-33409741D01*
X148793371Y-33358857D01*
X148820569Y-33307972D01*
X148893773Y-33218773D01*
X148982971Y-33145569D01*
X149033856Y-33118371D01*
X149084740Y-33091173D01*
X149195163Y-33057676D01*
X149310000Y-33046366D01*
X149424836Y-33057676D01*
X149424836Y-33057676D01*
G37*
G36*
X141424836Y-33057676D02*
G01*
X141535259Y-33091173D01*
X141586143Y-33118371D01*
X141637028Y-33145569D01*
X141726227Y-33218773D01*
X141799431Y-33307971D01*
X141799432Y-33307973D01*
X141853827Y-33409740D01*
X141887324Y-33520163D01*
X141895800Y-33606225D01*
X141895800Y-34393775D01*
X141887324Y-34479837D01*
X141853827Y-34590260D01*
X141826629Y-34641144D01*
X141799431Y-34692029D01*
X141726227Y-34781227D01*
X141637029Y-34854431D01*
X141586144Y-34881629D01*
X141535260Y-34908827D01*
X141424837Y-34942324D01*
X141310000Y-34953634D01*
X141195164Y-34942324D01*
X141084741Y-34908827D01*
X141033857Y-34881629D01*
X140982972Y-34854431D01*
X140893774Y-34781227D01*
X140820570Y-34692029D01*
X140766174Y-34590260D01*
X140766174Y-34590259D01*
X140732676Y-34479837D01*
X140725255Y-34404487D01*
X140723325Y-34394783D01*
X140719536Y-34385637D01*
X140714036Y-34377406D01*
X140707036Y-34370406D01*
X140698805Y-34364906D01*
X140689659Y-34361118D01*
X140679950Y-34359186D01*
X140670050Y-34359186D01*
X140660341Y-34361117D01*
X140651195Y-34364906D01*
X140642964Y-34370406D01*
X140635964Y-34377406D01*
X140630464Y-34385637D01*
X140626676Y-34394783D01*
X140624745Y-34404487D01*
X140617324Y-34479837D01*
X140583827Y-34590260D01*
X140556629Y-34641144D01*
X140529431Y-34692029D01*
X140456227Y-34781227D01*
X140367029Y-34854431D01*
X140316144Y-34881629D01*
X140265260Y-34908827D01*
X140154837Y-34942324D01*
X140040000Y-34953634D01*
X139925164Y-34942324D01*
X139814741Y-34908827D01*
X139763857Y-34881629D01*
X139712972Y-34854431D01*
X139623774Y-34781227D01*
X139550570Y-34692029D01*
X139496174Y-34590260D01*
X139496174Y-34590259D01*
X139462676Y-34479837D01*
X139455255Y-34404487D01*
X139453325Y-34394783D01*
X139449536Y-34385637D01*
X139444036Y-34377406D01*
X139437036Y-34370406D01*
X139428805Y-34364906D01*
X139419659Y-34361118D01*
X139409950Y-34359186D01*
X139400050Y-34359186D01*
X139390341Y-34361117D01*
X139381195Y-34364906D01*
X139372964Y-34370406D01*
X139365964Y-34377406D01*
X139360464Y-34385637D01*
X139356676Y-34394783D01*
X139354745Y-34404487D01*
X139347324Y-34479837D01*
X139313827Y-34590260D01*
X139286629Y-34641144D01*
X139259431Y-34692029D01*
X139186227Y-34781227D01*
X139097029Y-34854431D01*
X139046144Y-34881629D01*
X138995260Y-34908827D01*
X138884837Y-34942324D01*
X138770000Y-34953634D01*
X138655164Y-34942324D01*
X138544741Y-34908827D01*
X138493857Y-34881629D01*
X138442972Y-34854431D01*
X138353774Y-34781227D01*
X138280570Y-34692029D01*
X138226174Y-34590260D01*
X138226174Y-34590259D01*
X138192676Y-34479837D01*
X138186554Y-34417677D01*
X138184624Y-34407973D01*
X138180835Y-34398827D01*
X138175335Y-34390596D01*
X138168335Y-34383596D01*
X138160104Y-34378096D01*
X138150958Y-34374308D01*
X138141249Y-34372376D01*
X138131349Y-34372376D01*
X138121640Y-34374307D01*
X138112494Y-34378096D01*
X138104263Y-34383596D01*
X138097263Y-34390596D01*
X138091763Y-34398827D01*
X138087975Y-34407973D01*
X138086043Y-34417682D01*
X138085800Y-34422632D01*
X138085800Y-34950800D01*
X136914200Y-34950800D01*
X136914200Y-33049200D01*
X138085800Y-33049200D01*
X138085800Y-33577369D01*
X138086770Y-33587221D01*
X138089644Y-33596694D01*
X138094311Y-33605425D01*
X138100591Y-33613077D01*
X138108243Y-33619357D01*
X138116974Y-33624024D01*
X138126447Y-33626898D01*
X138136299Y-33627868D01*
X138146151Y-33626898D01*
X138155624Y-33624024D01*
X138164355Y-33619357D01*
X138172007Y-33613077D01*
X138178287Y-33605425D01*
X138182954Y-33596694D01*
X138185828Y-33587221D01*
X138186555Y-33582319D01*
X138192676Y-33520164D01*
X138226173Y-33409741D01*
X138253371Y-33358857D01*
X138280569Y-33307972D01*
X138353773Y-33218773D01*
X138442971Y-33145569D01*
X138493856Y-33118371D01*
X138544740Y-33091173D01*
X138655163Y-33057676D01*
X138770000Y-33046366D01*
X138884836Y-33057676D01*
X138995259Y-33091173D01*
X139046143Y-33118371D01*
X139097028Y-33145569D01*
X139186227Y-33218773D01*
X139259431Y-33307971D01*
X139259432Y-33307973D01*
X139313827Y-33409740D01*
X139347324Y-33520163D01*
X139354745Y-33595513D01*
X139356675Y-33605217D01*
X139360464Y-33614363D01*
X139365964Y-33622594D01*
X139372964Y-33629594D01*
X139381195Y-33635094D01*
X139390341Y-33638882D01*
X139400050Y-33640814D01*
X139409950Y-33640814D01*
X139419659Y-33638883D01*
X139428805Y-33635094D01*
X139437036Y-33629594D01*
X139444036Y-33622594D01*
X139449536Y-33614363D01*
X139453324Y-33605217D01*
X139455256Y-33595508D01*
X139456555Y-33582319D01*
X139462676Y-33520164D01*
X139496173Y-33409741D01*
X139523371Y-33358857D01*
X139550569Y-33307972D01*
X139623773Y-33218773D01*
X139712971Y-33145569D01*
X139763856Y-33118371D01*
X139814740Y-33091173D01*
X139925163Y-33057676D01*
X140040000Y-33046366D01*
X140154836Y-33057676D01*
X140265259Y-33091173D01*
X140316143Y-33118371D01*
X140367028Y-33145569D01*
X140456227Y-33218773D01*
X140529431Y-33307971D01*
X140529432Y-33307973D01*
X140583827Y-33409740D01*
X140617324Y-33520163D01*
X140624745Y-33595513D01*
X140626675Y-33605217D01*
X140630464Y-33614363D01*
X140635964Y-33622594D01*
X140642964Y-33629594D01*
X140651195Y-33635094D01*
X140660341Y-33638882D01*
X140670050Y-33640814D01*
X140679950Y-33640814D01*
X140689659Y-33638883D01*
X140698805Y-33635094D01*
X140707036Y-33629594D01*
X140714036Y-33622594D01*
X140719536Y-33614363D01*
X140723324Y-33605217D01*
X140725256Y-33595508D01*
X140726555Y-33582319D01*
X140732676Y-33520164D01*
X140766173Y-33409741D01*
X140793371Y-33358857D01*
X140820569Y-33307972D01*
X140893773Y-33218773D01*
X140982971Y-33145569D01*
X141033856Y-33118371D01*
X141084740Y-33091173D01*
X141195163Y-33057676D01*
X141310000Y-33046366D01*
X141424836Y-33057676D01*
X141424836Y-33057676D01*
G37*
G36*
X133424836Y-33057676D02*
G01*
X133535259Y-33091173D01*
X133586143Y-33118371D01*
X133637028Y-33145569D01*
X133726227Y-33218773D01*
X133799431Y-33307971D01*
X133799432Y-33307973D01*
X133853827Y-33409740D01*
X133887324Y-33520163D01*
X133895800Y-33606225D01*
X133895800Y-34393775D01*
X133887324Y-34479837D01*
X133853827Y-34590260D01*
X133826629Y-34641144D01*
X133799431Y-34692029D01*
X133726227Y-34781227D01*
X133637029Y-34854431D01*
X133586144Y-34881629D01*
X133535260Y-34908827D01*
X133424837Y-34942324D01*
X133310000Y-34953634D01*
X133195164Y-34942324D01*
X133084741Y-34908827D01*
X133033857Y-34881629D01*
X132982972Y-34854431D01*
X132893774Y-34781227D01*
X132820570Y-34692029D01*
X132766174Y-34590260D01*
X132766174Y-34590259D01*
X132732676Y-34479837D01*
X132725255Y-34404487D01*
X132723325Y-34394783D01*
X132719536Y-34385637D01*
X132714036Y-34377406D01*
X132707036Y-34370406D01*
X132698805Y-34364906D01*
X132689659Y-34361118D01*
X132679950Y-34359186D01*
X132670050Y-34359186D01*
X132660341Y-34361117D01*
X132651195Y-34364906D01*
X132642964Y-34370406D01*
X132635964Y-34377406D01*
X132630464Y-34385637D01*
X132626676Y-34394783D01*
X132624745Y-34404487D01*
X132617324Y-34479837D01*
X132583827Y-34590260D01*
X132556629Y-34641144D01*
X132529431Y-34692029D01*
X132456227Y-34781227D01*
X132367029Y-34854431D01*
X132316144Y-34881629D01*
X132265260Y-34908827D01*
X132154837Y-34942324D01*
X132040000Y-34953634D01*
X131925164Y-34942324D01*
X131814741Y-34908827D01*
X131763857Y-34881629D01*
X131712972Y-34854431D01*
X131623774Y-34781227D01*
X131550570Y-34692029D01*
X131496174Y-34590260D01*
X131496174Y-34590259D01*
X131462676Y-34479837D01*
X131455255Y-34404487D01*
X131453325Y-34394783D01*
X131449536Y-34385637D01*
X131444036Y-34377406D01*
X131437036Y-34370406D01*
X131428805Y-34364906D01*
X131419659Y-34361118D01*
X131409950Y-34359186D01*
X131400050Y-34359186D01*
X131390341Y-34361117D01*
X131381195Y-34364906D01*
X131372964Y-34370406D01*
X131365964Y-34377406D01*
X131360464Y-34385637D01*
X131356676Y-34394783D01*
X131354745Y-34404487D01*
X131347324Y-34479837D01*
X131313827Y-34590260D01*
X131286629Y-34641144D01*
X131259431Y-34692029D01*
X131186227Y-34781227D01*
X131097029Y-34854431D01*
X131046144Y-34881629D01*
X130995260Y-34908827D01*
X130884837Y-34942324D01*
X130770000Y-34953634D01*
X130655164Y-34942324D01*
X130544741Y-34908827D01*
X130493857Y-34881629D01*
X130442972Y-34854431D01*
X130353774Y-34781227D01*
X130280570Y-34692029D01*
X130226174Y-34590260D01*
X130226174Y-34590259D01*
X130192676Y-34479837D01*
X130186554Y-34417677D01*
X130184624Y-34407973D01*
X130180835Y-34398827D01*
X130175335Y-34390596D01*
X130168335Y-34383596D01*
X130160104Y-34378096D01*
X130150958Y-34374308D01*
X130141249Y-34372376D01*
X130131349Y-34372376D01*
X130121640Y-34374307D01*
X130112494Y-34378096D01*
X130104263Y-34383596D01*
X130097263Y-34390596D01*
X130091763Y-34398827D01*
X130087975Y-34407973D01*
X130086043Y-34417682D01*
X130085800Y-34422632D01*
X130085800Y-34950800D01*
X128914200Y-34950800D01*
X128914200Y-33049200D01*
X130085800Y-33049200D01*
X130085800Y-33577369D01*
X130086770Y-33587221D01*
X130089644Y-33596694D01*
X130094311Y-33605425D01*
X130100591Y-33613077D01*
X130108243Y-33619357D01*
X130116974Y-33624024D01*
X130126447Y-33626898D01*
X130136299Y-33627868D01*
X130146151Y-33626898D01*
X130155624Y-33624024D01*
X130164355Y-33619357D01*
X130172007Y-33613077D01*
X130178287Y-33605425D01*
X130182954Y-33596694D01*
X130185828Y-33587221D01*
X130186555Y-33582319D01*
X130192676Y-33520164D01*
X130226173Y-33409741D01*
X130253371Y-33358857D01*
X130280569Y-33307972D01*
X130353773Y-33218773D01*
X130442971Y-33145569D01*
X130493856Y-33118371D01*
X130544740Y-33091173D01*
X130655163Y-33057676D01*
X130770000Y-33046366D01*
X130884836Y-33057676D01*
X130995259Y-33091173D01*
X131046143Y-33118371D01*
X131097028Y-33145569D01*
X131186227Y-33218773D01*
X131259431Y-33307971D01*
X131259432Y-33307973D01*
X131313827Y-33409740D01*
X131347324Y-33520163D01*
X131354745Y-33595513D01*
X131356675Y-33605217D01*
X131360464Y-33614363D01*
X131365964Y-33622594D01*
X131372964Y-33629594D01*
X131381195Y-33635094D01*
X131390341Y-33638882D01*
X131400050Y-33640814D01*
X131409950Y-33640814D01*
X131419659Y-33638883D01*
X131428805Y-33635094D01*
X131437036Y-33629594D01*
X131444036Y-33622594D01*
X131449536Y-33614363D01*
X131453324Y-33605217D01*
X131455256Y-33595508D01*
X131456555Y-33582319D01*
X131462676Y-33520164D01*
X131496173Y-33409741D01*
X131523371Y-33358857D01*
X131550569Y-33307972D01*
X131623773Y-33218773D01*
X131712971Y-33145569D01*
X131763856Y-33118371D01*
X131814740Y-33091173D01*
X131925163Y-33057676D01*
X132040000Y-33046366D01*
X132154836Y-33057676D01*
X132265259Y-33091173D01*
X132316143Y-33118371D01*
X132367028Y-33145569D01*
X132456227Y-33218773D01*
X132529431Y-33307971D01*
X132529432Y-33307973D01*
X132583827Y-33409740D01*
X132617324Y-33520163D01*
X132624745Y-33595513D01*
X132626675Y-33605217D01*
X132630464Y-33614363D01*
X132635964Y-33622594D01*
X132642964Y-33629594D01*
X132651195Y-33635094D01*
X132660341Y-33638882D01*
X132670050Y-33640814D01*
X132679950Y-33640814D01*
X132689659Y-33638883D01*
X132698805Y-33635094D01*
X132707036Y-33629594D01*
X132714036Y-33622594D01*
X132719536Y-33614363D01*
X132723324Y-33605217D01*
X132725256Y-33595508D01*
X132726555Y-33582319D01*
X132732676Y-33520164D01*
X132766173Y-33409741D01*
X132793371Y-33358857D01*
X132820569Y-33307972D01*
X132893773Y-33218773D01*
X132982971Y-33145569D01*
X133033856Y-33118371D01*
X133084740Y-33091173D01*
X133195163Y-33057676D01*
X133310000Y-33046366D01*
X133424836Y-33057676D01*
X133424836Y-33057676D01*
G37*
M02*
