G04 #@! TF.GenerationSoftware,KiCad,Pcbnew,(5.1.4)-1*
G04 #@! TF.CreationDate,2021-05-12T10:10:47-04:00*
G04 #@! TF.ProjectId,QAZ_IS31FL3746A_breakoutboard,51415a5f-4953-4333-9146-4c3337343641,rev?*
G04 #@! TF.SameCoordinates,Original*
G04 #@! TF.FileFunction,Copper,L1,Top*
G04 #@! TF.FilePolarity,Positive*
%FSLAX46Y46*%
G04 Gerber Fmt 4.6, Leading zero omitted, Abs format (unit mm)*
G04 Created by KiCad (PCBNEW (5.1.4)-1) date 2021-05-12 10:10:47*
%MOMM*%
%LPD*%
G04 APERTURE LIST*
%ADD10O,1.700000X1.700000*%
%ADD11R,1.700000X1.700000*%
%ADD12C,1.524000*%
%ADD13C,0.100000*%
%ADD14C,0.200000*%
%ADD15C,2.800000*%
%ADD16C,0.950000*%
%ADD17O,1.070000X1.800000*%
%ADD18R,1.070000X1.800000*%
%ADD19C,0.800000*%
%ADD20C,0.600000*%
%ADD21C,0.250000*%
%ADD22C,0.400000*%
%ADD23C,0.254000*%
G04 APERTURE END LIST*
D10*
X145450000Y-76000000D03*
X142910000Y-76000000D03*
X140370000Y-76000000D03*
X137830000Y-76000000D03*
X135290000Y-76000000D03*
D11*
X132750000Y-76000000D03*
D12*
X139500000Y-66000000D03*
D13*
G36*
X137804901Y-66500241D02*
G01*
X137809755Y-66500961D01*
X137814514Y-66502153D01*
X137819134Y-66503806D01*
X137823570Y-66505904D01*
X137827779Y-66508427D01*
X137831720Y-66511349D01*
X137835355Y-66514645D01*
X137838651Y-66518280D01*
X137841573Y-66522221D01*
X137844096Y-66526430D01*
X137846194Y-66530866D01*
X137847847Y-66535486D01*
X137849039Y-66540245D01*
X137849759Y-66545099D01*
X137850000Y-66550000D01*
X137850000Y-66650000D01*
X137849759Y-66654901D01*
X137849039Y-66659755D01*
X137847847Y-66664514D01*
X137846194Y-66669134D01*
X137844096Y-66673570D01*
X137841573Y-66677779D01*
X137838651Y-66681720D01*
X137835355Y-66685355D01*
X137831720Y-66688651D01*
X137827779Y-66691573D01*
X137823570Y-66694096D01*
X137819134Y-66696194D01*
X137814514Y-66697847D01*
X137809755Y-66699039D01*
X137804901Y-66699759D01*
X137800000Y-66700000D01*
X136500000Y-66700000D01*
X136495099Y-66699759D01*
X136490245Y-66699039D01*
X136485486Y-66697847D01*
X136480866Y-66696194D01*
X136476430Y-66694096D01*
X136472221Y-66691573D01*
X136468280Y-66688651D01*
X136464645Y-66685355D01*
X136461349Y-66681720D01*
X136458427Y-66677779D01*
X136455904Y-66673570D01*
X136453806Y-66669134D01*
X136452153Y-66664514D01*
X136450961Y-66659755D01*
X136450241Y-66654901D01*
X136450000Y-66650000D01*
X136450000Y-66550000D01*
X136450241Y-66545099D01*
X136450961Y-66540245D01*
X136452153Y-66535486D01*
X136453806Y-66530866D01*
X136455904Y-66526430D01*
X136458427Y-66522221D01*
X136461349Y-66518280D01*
X136464645Y-66514645D01*
X136468280Y-66511349D01*
X136472221Y-66508427D01*
X136476430Y-66505904D01*
X136480866Y-66503806D01*
X136485486Y-66502153D01*
X136490245Y-66500961D01*
X136495099Y-66500241D01*
X136500000Y-66500000D01*
X137800000Y-66500000D01*
X137804901Y-66500241D01*
X137804901Y-66500241D01*
G37*
D14*
X137150000Y-66600000D03*
D13*
G36*
X138554901Y-67650241D02*
G01*
X138559755Y-67650961D01*
X138564514Y-67652153D01*
X138569134Y-67653806D01*
X138573570Y-67655904D01*
X138577779Y-67658427D01*
X138581720Y-67661349D01*
X138585355Y-67664645D01*
X138588651Y-67668280D01*
X138591573Y-67672221D01*
X138594096Y-67676430D01*
X138596194Y-67680866D01*
X138597847Y-67685486D01*
X138599039Y-67690245D01*
X138599759Y-67695099D01*
X138600000Y-67700000D01*
X138600000Y-69000000D01*
X138599759Y-69004901D01*
X138599039Y-69009755D01*
X138597847Y-69014514D01*
X138596194Y-69019134D01*
X138594096Y-69023570D01*
X138591573Y-69027779D01*
X138588651Y-69031720D01*
X138585355Y-69035355D01*
X138581720Y-69038651D01*
X138577779Y-69041573D01*
X138573570Y-69044096D01*
X138569134Y-69046194D01*
X138564514Y-69047847D01*
X138559755Y-69049039D01*
X138554901Y-69049759D01*
X138550000Y-69050000D01*
X138450000Y-69050000D01*
X138445099Y-69049759D01*
X138440245Y-69049039D01*
X138435486Y-69047847D01*
X138430866Y-69046194D01*
X138426430Y-69044096D01*
X138422221Y-69041573D01*
X138418280Y-69038651D01*
X138414645Y-69035355D01*
X138411349Y-69031720D01*
X138408427Y-69027779D01*
X138405904Y-69023570D01*
X138403806Y-69019134D01*
X138402153Y-69014514D01*
X138400961Y-69009755D01*
X138400241Y-69004901D01*
X138400000Y-69000000D01*
X138400000Y-67700000D01*
X138400241Y-67695099D01*
X138400961Y-67690245D01*
X138402153Y-67685486D01*
X138403806Y-67680866D01*
X138405904Y-67676430D01*
X138408427Y-67672221D01*
X138411349Y-67668280D01*
X138414645Y-67664645D01*
X138418280Y-67661349D01*
X138422221Y-67658427D01*
X138426430Y-67655904D01*
X138430866Y-67653806D01*
X138435486Y-67652153D01*
X138440245Y-67650961D01*
X138445099Y-67650241D01*
X138450000Y-67650000D01*
X138550000Y-67650000D01*
X138554901Y-67650241D01*
X138554901Y-67650241D01*
G37*
D14*
X138500000Y-68350000D03*
D13*
G36*
X139754901Y-67650241D02*
G01*
X139759755Y-67650961D01*
X139764514Y-67652153D01*
X139769134Y-67653806D01*
X139773570Y-67655904D01*
X139777779Y-67658427D01*
X139781720Y-67661349D01*
X139785355Y-67664645D01*
X139788651Y-67668280D01*
X139791573Y-67672221D01*
X139794096Y-67676430D01*
X139796194Y-67680866D01*
X139797847Y-67685486D01*
X139799039Y-67690245D01*
X139799759Y-67695099D01*
X139800000Y-67700000D01*
X139800000Y-69000000D01*
X139799759Y-69004901D01*
X139799039Y-69009755D01*
X139797847Y-69014514D01*
X139796194Y-69019134D01*
X139794096Y-69023570D01*
X139791573Y-69027779D01*
X139788651Y-69031720D01*
X139785355Y-69035355D01*
X139781720Y-69038651D01*
X139777779Y-69041573D01*
X139773570Y-69044096D01*
X139769134Y-69046194D01*
X139764514Y-69047847D01*
X139759755Y-69049039D01*
X139754901Y-69049759D01*
X139750000Y-69050000D01*
X139650000Y-69050000D01*
X139645099Y-69049759D01*
X139640245Y-69049039D01*
X139635486Y-69047847D01*
X139630866Y-69046194D01*
X139626430Y-69044096D01*
X139622221Y-69041573D01*
X139618280Y-69038651D01*
X139614645Y-69035355D01*
X139611349Y-69031720D01*
X139608427Y-69027779D01*
X139605904Y-69023570D01*
X139603806Y-69019134D01*
X139602153Y-69014514D01*
X139600961Y-69009755D01*
X139600241Y-69004901D01*
X139600000Y-69000000D01*
X139600000Y-67700000D01*
X139600241Y-67695099D01*
X139600961Y-67690245D01*
X139602153Y-67685486D01*
X139603806Y-67680866D01*
X139605904Y-67676430D01*
X139608427Y-67672221D01*
X139611349Y-67668280D01*
X139614645Y-67664645D01*
X139618280Y-67661349D01*
X139622221Y-67658427D01*
X139626430Y-67655904D01*
X139630866Y-67653806D01*
X139635486Y-67652153D01*
X139640245Y-67650961D01*
X139645099Y-67650241D01*
X139650000Y-67650000D01*
X139750000Y-67650000D01*
X139754901Y-67650241D01*
X139754901Y-67650241D01*
G37*
D14*
X139700000Y-68350000D03*
D13*
G36*
X140154901Y-67650241D02*
G01*
X140159755Y-67650961D01*
X140164514Y-67652153D01*
X140169134Y-67653806D01*
X140173570Y-67655904D01*
X140177779Y-67658427D01*
X140181720Y-67661349D01*
X140185355Y-67664645D01*
X140188651Y-67668280D01*
X140191573Y-67672221D01*
X140194096Y-67676430D01*
X140196194Y-67680866D01*
X140197847Y-67685486D01*
X140199039Y-67690245D01*
X140199759Y-67695099D01*
X140200000Y-67700000D01*
X140200000Y-69000000D01*
X140199759Y-69004901D01*
X140199039Y-69009755D01*
X140197847Y-69014514D01*
X140196194Y-69019134D01*
X140194096Y-69023570D01*
X140191573Y-69027779D01*
X140188651Y-69031720D01*
X140185355Y-69035355D01*
X140181720Y-69038651D01*
X140177779Y-69041573D01*
X140173570Y-69044096D01*
X140169134Y-69046194D01*
X140164514Y-69047847D01*
X140159755Y-69049039D01*
X140154901Y-69049759D01*
X140150000Y-69050000D01*
X140050000Y-69050000D01*
X140045099Y-69049759D01*
X140040245Y-69049039D01*
X140035486Y-69047847D01*
X140030866Y-69046194D01*
X140026430Y-69044096D01*
X140022221Y-69041573D01*
X140018280Y-69038651D01*
X140014645Y-69035355D01*
X140011349Y-69031720D01*
X140008427Y-69027779D01*
X140005904Y-69023570D01*
X140003806Y-69019134D01*
X140002153Y-69014514D01*
X140000961Y-69009755D01*
X140000241Y-69004901D01*
X140000000Y-69000000D01*
X140000000Y-67700000D01*
X140000241Y-67695099D01*
X140000961Y-67690245D01*
X140002153Y-67685486D01*
X140003806Y-67680866D01*
X140005904Y-67676430D01*
X140008427Y-67672221D01*
X140011349Y-67668280D01*
X140014645Y-67664645D01*
X140018280Y-67661349D01*
X140022221Y-67658427D01*
X140026430Y-67655904D01*
X140030866Y-67653806D01*
X140035486Y-67652153D01*
X140040245Y-67650961D01*
X140045099Y-67650241D01*
X140050000Y-67650000D01*
X140150000Y-67650000D01*
X140154901Y-67650241D01*
X140154901Y-67650241D01*
G37*
D14*
X140100000Y-68350000D03*
D13*
G36*
X142504901Y-66100241D02*
G01*
X142509755Y-66100961D01*
X142514514Y-66102153D01*
X142519134Y-66103806D01*
X142523570Y-66105904D01*
X142527779Y-66108427D01*
X142531720Y-66111349D01*
X142535355Y-66114645D01*
X142538651Y-66118280D01*
X142541573Y-66122221D01*
X142544096Y-66126430D01*
X142546194Y-66130866D01*
X142547847Y-66135486D01*
X142549039Y-66140245D01*
X142549759Y-66145099D01*
X142550000Y-66150000D01*
X142550000Y-66250000D01*
X142549759Y-66254901D01*
X142549039Y-66259755D01*
X142547847Y-66264514D01*
X142546194Y-66269134D01*
X142544096Y-66273570D01*
X142541573Y-66277779D01*
X142538651Y-66281720D01*
X142535355Y-66285355D01*
X142531720Y-66288651D01*
X142527779Y-66291573D01*
X142523570Y-66294096D01*
X142519134Y-66296194D01*
X142514514Y-66297847D01*
X142509755Y-66299039D01*
X142504901Y-66299759D01*
X142500000Y-66300000D01*
X141200000Y-66300000D01*
X141195099Y-66299759D01*
X141190245Y-66299039D01*
X141185486Y-66297847D01*
X141180866Y-66296194D01*
X141176430Y-66294096D01*
X141172221Y-66291573D01*
X141168280Y-66288651D01*
X141164645Y-66285355D01*
X141161349Y-66281720D01*
X141158427Y-66277779D01*
X141155904Y-66273570D01*
X141153806Y-66269134D01*
X141152153Y-66264514D01*
X141150961Y-66259755D01*
X141150241Y-66254901D01*
X141150000Y-66250000D01*
X141150000Y-66150000D01*
X141150241Y-66145099D01*
X141150961Y-66140245D01*
X141152153Y-66135486D01*
X141153806Y-66130866D01*
X141155904Y-66126430D01*
X141158427Y-66122221D01*
X141161349Y-66118280D01*
X141164645Y-66114645D01*
X141168280Y-66111349D01*
X141172221Y-66108427D01*
X141176430Y-66105904D01*
X141180866Y-66103806D01*
X141185486Y-66102153D01*
X141190245Y-66100961D01*
X141195099Y-66100241D01*
X141200000Y-66100000D01*
X142500000Y-66100000D01*
X142504901Y-66100241D01*
X142504901Y-66100241D01*
G37*
D14*
X141850000Y-66200000D03*
D13*
G36*
X142504901Y-64900241D02*
G01*
X142509755Y-64900961D01*
X142514514Y-64902153D01*
X142519134Y-64903806D01*
X142523570Y-64905904D01*
X142527779Y-64908427D01*
X142531720Y-64911349D01*
X142535355Y-64914645D01*
X142538651Y-64918280D01*
X142541573Y-64922221D01*
X142544096Y-64926430D01*
X142546194Y-64930866D01*
X142547847Y-64935486D01*
X142549039Y-64940245D01*
X142549759Y-64945099D01*
X142550000Y-64950000D01*
X142550000Y-65050000D01*
X142549759Y-65054901D01*
X142549039Y-65059755D01*
X142547847Y-65064514D01*
X142546194Y-65069134D01*
X142544096Y-65073570D01*
X142541573Y-65077779D01*
X142538651Y-65081720D01*
X142535355Y-65085355D01*
X142531720Y-65088651D01*
X142527779Y-65091573D01*
X142523570Y-65094096D01*
X142519134Y-65096194D01*
X142514514Y-65097847D01*
X142509755Y-65099039D01*
X142504901Y-65099759D01*
X142500000Y-65100000D01*
X141200000Y-65100000D01*
X141195099Y-65099759D01*
X141190245Y-65099039D01*
X141185486Y-65097847D01*
X141180866Y-65096194D01*
X141176430Y-65094096D01*
X141172221Y-65091573D01*
X141168280Y-65088651D01*
X141164645Y-65085355D01*
X141161349Y-65081720D01*
X141158427Y-65077779D01*
X141155904Y-65073570D01*
X141153806Y-65069134D01*
X141152153Y-65064514D01*
X141150961Y-65059755D01*
X141150241Y-65054901D01*
X141150000Y-65050000D01*
X141150000Y-64950000D01*
X141150241Y-64945099D01*
X141150961Y-64940245D01*
X141152153Y-64935486D01*
X141153806Y-64930866D01*
X141155904Y-64926430D01*
X141158427Y-64922221D01*
X141161349Y-64918280D01*
X141164645Y-64914645D01*
X141168280Y-64911349D01*
X141172221Y-64908427D01*
X141176430Y-64905904D01*
X141180866Y-64903806D01*
X141185486Y-64902153D01*
X141190245Y-64900961D01*
X141195099Y-64900241D01*
X141200000Y-64900000D01*
X142500000Y-64900000D01*
X142504901Y-64900241D01*
X142504901Y-64900241D01*
G37*
D14*
X141850000Y-65000000D03*
D13*
G36*
X140154901Y-62950241D02*
G01*
X140159755Y-62950961D01*
X140164514Y-62952153D01*
X140169134Y-62953806D01*
X140173570Y-62955904D01*
X140177779Y-62958427D01*
X140181720Y-62961349D01*
X140185355Y-62964645D01*
X140188651Y-62968280D01*
X140191573Y-62972221D01*
X140194096Y-62976430D01*
X140196194Y-62980866D01*
X140197847Y-62985486D01*
X140199039Y-62990245D01*
X140199759Y-62995099D01*
X140200000Y-63000000D01*
X140200000Y-64300000D01*
X140199759Y-64304901D01*
X140199039Y-64309755D01*
X140197847Y-64314514D01*
X140196194Y-64319134D01*
X140194096Y-64323570D01*
X140191573Y-64327779D01*
X140188651Y-64331720D01*
X140185355Y-64335355D01*
X140181720Y-64338651D01*
X140177779Y-64341573D01*
X140173570Y-64344096D01*
X140169134Y-64346194D01*
X140164514Y-64347847D01*
X140159755Y-64349039D01*
X140154901Y-64349759D01*
X140150000Y-64350000D01*
X140050000Y-64350000D01*
X140045099Y-64349759D01*
X140040245Y-64349039D01*
X140035486Y-64347847D01*
X140030866Y-64346194D01*
X140026430Y-64344096D01*
X140022221Y-64341573D01*
X140018280Y-64338651D01*
X140014645Y-64335355D01*
X140011349Y-64331720D01*
X140008427Y-64327779D01*
X140005904Y-64323570D01*
X140003806Y-64319134D01*
X140002153Y-64314514D01*
X140000961Y-64309755D01*
X140000241Y-64304901D01*
X140000000Y-64300000D01*
X140000000Y-63000000D01*
X140000241Y-62995099D01*
X140000961Y-62990245D01*
X140002153Y-62985486D01*
X140003806Y-62980866D01*
X140005904Y-62976430D01*
X140008427Y-62972221D01*
X140011349Y-62968280D01*
X140014645Y-62964645D01*
X140018280Y-62961349D01*
X140022221Y-62958427D01*
X140026430Y-62955904D01*
X140030866Y-62953806D01*
X140035486Y-62952153D01*
X140040245Y-62950961D01*
X140045099Y-62950241D01*
X140050000Y-62950000D01*
X140150000Y-62950000D01*
X140154901Y-62950241D01*
X140154901Y-62950241D01*
G37*
D14*
X140100000Y-63650000D03*
D13*
G36*
X139354901Y-62950241D02*
G01*
X139359755Y-62950961D01*
X139364514Y-62952153D01*
X139369134Y-62953806D01*
X139373570Y-62955904D01*
X139377779Y-62958427D01*
X139381720Y-62961349D01*
X139385355Y-62964645D01*
X139388651Y-62968280D01*
X139391573Y-62972221D01*
X139394096Y-62976430D01*
X139396194Y-62980866D01*
X139397847Y-62985486D01*
X139399039Y-62990245D01*
X139399759Y-62995099D01*
X139400000Y-63000000D01*
X139400000Y-64300000D01*
X139399759Y-64304901D01*
X139399039Y-64309755D01*
X139397847Y-64314514D01*
X139396194Y-64319134D01*
X139394096Y-64323570D01*
X139391573Y-64327779D01*
X139388651Y-64331720D01*
X139385355Y-64335355D01*
X139381720Y-64338651D01*
X139377779Y-64341573D01*
X139373570Y-64344096D01*
X139369134Y-64346194D01*
X139364514Y-64347847D01*
X139359755Y-64349039D01*
X139354901Y-64349759D01*
X139350000Y-64350000D01*
X139250000Y-64350000D01*
X139245099Y-64349759D01*
X139240245Y-64349039D01*
X139235486Y-64347847D01*
X139230866Y-64346194D01*
X139226430Y-64344096D01*
X139222221Y-64341573D01*
X139218280Y-64338651D01*
X139214645Y-64335355D01*
X139211349Y-64331720D01*
X139208427Y-64327779D01*
X139205904Y-64323570D01*
X139203806Y-64319134D01*
X139202153Y-64314514D01*
X139200961Y-64309755D01*
X139200241Y-64304901D01*
X139200000Y-64300000D01*
X139200000Y-63000000D01*
X139200241Y-62995099D01*
X139200961Y-62990245D01*
X139202153Y-62985486D01*
X139203806Y-62980866D01*
X139205904Y-62976430D01*
X139208427Y-62972221D01*
X139211349Y-62968280D01*
X139214645Y-62964645D01*
X139218280Y-62961349D01*
X139222221Y-62958427D01*
X139226430Y-62955904D01*
X139230866Y-62953806D01*
X139235486Y-62952153D01*
X139240245Y-62950961D01*
X139245099Y-62950241D01*
X139250000Y-62950000D01*
X139350000Y-62950000D01*
X139354901Y-62950241D01*
X139354901Y-62950241D01*
G37*
D14*
X139300000Y-63650000D03*
D13*
G36*
X137804901Y-64500241D02*
G01*
X137809755Y-64500961D01*
X137814514Y-64502153D01*
X137819134Y-64503806D01*
X137823570Y-64505904D01*
X137827779Y-64508427D01*
X137831720Y-64511349D01*
X137835355Y-64514645D01*
X137838651Y-64518280D01*
X137841573Y-64522221D01*
X137844096Y-64526430D01*
X137846194Y-64530866D01*
X137847847Y-64535486D01*
X137849039Y-64540245D01*
X137849759Y-64545099D01*
X137850000Y-64550000D01*
X137850000Y-64650000D01*
X137849759Y-64654901D01*
X137849039Y-64659755D01*
X137847847Y-64664514D01*
X137846194Y-64669134D01*
X137844096Y-64673570D01*
X137841573Y-64677779D01*
X137838651Y-64681720D01*
X137835355Y-64685355D01*
X137831720Y-64688651D01*
X137827779Y-64691573D01*
X137823570Y-64694096D01*
X137819134Y-64696194D01*
X137814514Y-64697847D01*
X137809755Y-64699039D01*
X137804901Y-64699759D01*
X137800000Y-64700000D01*
X136500000Y-64700000D01*
X136495099Y-64699759D01*
X136490245Y-64699039D01*
X136485486Y-64697847D01*
X136480866Y-64696194D01*
X136476430Y-64694096D01*
X136472221Y-64691573D01*
X136468280Y-64688651D01*
X136464645Y-64685355D01*
X136461349Y-64681720D01*
X136458427Y-64677779D01*
X136455904Y-64673570D01*
X136453806Y-64669134D01*
X136452153Y-64664514D01*
X136450961Y-64659755D01*
X136450241Y-64654901D01*
X136450000Y-64650000D01*
X136450000Y-64550000D01*
X136450241Y-64545099D01*
X136450961Y-64540245D01*
X136452153Y-64535486D01*
X136453806Y-64530866D01*
X136455904Y-64526430D01*
X136458427Y-64522221D01*
X136461349Y-64518280D01*
X136464645Y-64514645D01*
X136468280Y-64511349D01*
X136472221Y-64508427D01*
X136476430Y-64505904D01*
X136480866Y-64503806D01*
X136485486Y-64502153D01*
X136490245Y-64500961D01*
X136495099Y-64500241D01*
X136500000Y-64500000D01*
X137800000Y-64500000D01*
X137804901Y-64500241D01*
X137804901Y-64500241D01*
G37*
D14*
X137150000Y-64600000D03*
D13*
G36*
X137804901Y-65700241D02*
G01*
X137809755Y-65700961D01*
X137814514Y-65702153D01*
X137819134Y-65703806D01*
X137823570Y-65705904D01*
X137827779Y-65708427D01*
X137831720Y-65711349D01*
X137835355Y-65714645D01*
X137838651Y-65718280D01*
X137841573Y-65722221D01*
X137844096Y-65726430D01*
X137846194Y-65730866D01*
X137847847Y-65735486D01*
X137849039Y-65740245D01*
X137849759Y-65745099D01*
X137850000Y-65750000D01*
X137850000Y-65850000D01*
X137849759Y-65854901D01*
X137849039Y-65859755D01*
X137847847Y-65864514D01*
X137846194Y-65869134D01*
X137844096Y-65873570D01*
X137841573Y-65877779D01*
X137838651Y-65881720D01*
X137835355Y-65885355D01*
X137831720Y-65888651D01*
X137827779Y-65891573D01*
X137823570Y-65894096D01*
X137819134Y-65896194D01*
X137814514Y-65897847D01*
X137809755Y-65899039D01*
X137804901Y-65899759D01*
X137800000Y-65900000D01*
X136500000Y-65900000D01*
X136495099Y-65899759D01*
X136490245Y-65899039D01*
X136485486Y-65897847D01*
X136480866Y-65896194D01*
X136476430Y-65894096D01*
X136472221Y-65891573D01*
X136468280Y-65888651D01*
X136464645Y-65885355D01*
X136461349Y-65881720D01*
X136458427Y-65877779D01*
X136455904Y-65873570D01*
X136453806Y-65869134D01*
X136452153Y-65864514D01*
X136450961Y-65859755D01*
X136450241Y-65854901D01*
X136450000Y-65850000D01*
X136450000Y-65750000D01*
X136450241Y-65745099D01*
X136450961Y-65740245D01*
X136452153Y-65735486D01*
X136453806Y-65730866D01*
X136455904Y-65726430D01*
X136458427Y-65722221D01*
X136461349Y-65718280D01*
X136464645Y-65714645D01*
X136468280Y-65711349D01*
X136472221Y-65708427D01*
X136476430Y-65705904D01*
X136480866Y-65703806D01*
X136485486Y-65702153D01*
X136490245Y-65700961D01*
X136495099Y-65700241D01*
X136500000Y-65700000D01*
X137800000Y-65700000D01*
X137804901Y-65700241D01*
X137804901Y-65700241D01*
G37*
D14*
X137150000Y-65800000D03*
D13*
G36*
X139754901Y-62950241D02*
G01*
X139759755Y-62950961D01*
X139764514Y-62952153D01*
X139769134Y-62953806D01*
X139773570Y-62955904D01*
X139777779Y-62958427D01*
X139781720Y-62961349D01*
X139785355Y-62964645D01*
X139788651Y-62968280D01*
X139791573Y-62972221D01*
X139794096Y-62976430D01*
X139796194Y-62980866D01*
X139797847Y-62985486D01*
X139799039Y-62990245D01*
X139799759Y-62995099D01*
X139800000Y-63000000D01*
X139800000Y-64300000D01*
X139799759Y-64304901D01*
X139799039Y-64309755D01*
X139797847Y-64314514D01*
X139796194Y-64319134D01*
X139794096Y-64323570D01*
X139791573Y-64327779D01*
X139788651Y-64331720D01*
X139785355Y-64335355D01*
X139781720Y-64338651D01*
X139777779Y-64341573D01*
X139773570Y-64344096D01*
X139769134Y-64346194D01*
X139764514Y-64347847D01*
X139759755Y-64349039D01*
X139754901Y-64349759D01*
X139750000Y-64350000D01*
X139650000Y-64350000D01*
X139645099Y-64349759D01*
X139640245Y-64349039D01*
X139635486Y-64347847D01*
X139630866Y-64346194D01*
X139626430Y-64344096D01*
X139622221Y-64341573D01*
X139618280Y-64338651D01*
X139614645Y-64335355D01*
X139611349Y-64331720D01*
X139608427Y-64327779D01*
X139605904Y-64323570D01*
X139603806Y-64319134D01*
X139602153Y-64314514D01*
X139600961Y-64309755D01*
X139600241Y-64304901D01*
X139600000Y-64300000D01*
X139600000Y-63000000D01*
X139600241Y-62995099D01*
X139600961Y-62990245D01*
X139602153Y-62985486D01*
X139603806Y-62980866D01*
X139605904Y-62976430D01*
X139608427Y-62972221D01*
X139611349Y-62968280D01*
X139614645Y-62964645D01*
X139618280Y-62961349D01*
X139622221Y-62958427D01*
X139626430Y-62955904D01*
X139630866Y-62953806D01*
X139635486Y-62952153D01*
X139640245Y-62950961D01*
X139645099Y-62950241D01*
X139650000Y-62950000D01*
X139750000Y-62950000D01*
X139754901Y-62950241D01*
X139754901Y-62950241D01*
G37*
D14*
X139700000Y-63650000D03*
D13*
G36*
X137804901Y-66900241D02*
G01*
X137809755Y-66900961D01*
X137814514Y-66902153D01*
X137819134Y-66903806D01*
X137823570Y-66905904D01*
X137827779Y-66908427D01*
X137831720Y-66911349D01*
X137835355Y-66914645D01*
X137838651Y-66918280D01*
X137841573Y-66922221D01*
X137844096Y-66926430D01*
X137846194Y-66930866D01*
X137847847Y-66935486D01*
X137849039Y-66940245D01*
X137849759Y-66945099D01*
X137850000Y-66950000D01*
X137850000Y-67050000D01*
X137849759Y-67054901D01*
X137849039Y-67059755D01*
X137847847Y-67064514D01*
X137846194Y-67069134D01*
X137844096Y-67073570D01*
X137841573Y-67077779D01*
X137838651Y-67081720D01*
X137835355Y-67085355D01*
X137831720Y-67088651D01*
X137827779Y-67091573D01*
X137823570Y-67094096D01*
X137819134Y-67096194D01*
X137814514Y-67097847D01*
X137809755Y-67099039D01*
X137804901Y-67099759D01*
X137800000Y-67100000D01*
X136500000Y-67100000D01*
X136495099Y-67099759D01*
X136490245Y-67099039D01*
X136485486Y-67097847D01*
X136480866Y-67096194D01*
X136476430Y-67094096D01*
X136472221Y-67091573D01*
X136468280Y-67088651D01*
X136464645Y-67085355D01*
X136461349Y-67081720D01*
X136458427Y-67077779D01*
X136455904Y-67073570D01*
X136453806Y-67069134D01*
X136452153Y-67064514D01*
X136450961Y-67059755D01*
X136450241Y-67054901D01*
X136450000Y-67050000D01*
X136450000Y-66950000D01*
X136450241Y-66945099D01*
X136450961Y-66940245D01*
X136452153Y-66935486D01*
X136453806Y-66930866D01*
X136455904Y-66926430D01*
X136458427Y-66922221D01*
X136461349Y-66918280D01*
X136464645Y-66914645D01*
X136468280Y-66911349D01*
X136472221Y-66908427D01*
X136476430Y-66905904D01*
X136480866Y-66903806D01*
X136485486Y-66902153D01*
X136490245Y-66900961D01*
X136495099Y-66900241D01*
X136500000Y-66900000D01*
X137800000Y-66900000D01*
X137804901Y-66900241D01*
X137804901Y-66900241D01*
G37*
D14*
X137150000Y-67000000D03*
D13*
G36*
X137804901Y-67300241D02*
G01*
X137809755Y-67300961D01*
X137814514Y-67302153D01*
X137819134Y-67303806D01*
X137823570Y-67305904D01*
X137827779Y-67308427D01*
X137831720Y-67311349D01*
X137835355Y-67314645D01*
X137838651Y-67318280D01*
X137841573Y-67322221D01*
X137844096Y-67326430D01*
X137846194Y-67330866D01*
X137847847Y-67335486D01*
X137849039Y-67340245D01*
X137849759Y-67345099D01*
X137850000Y-67350000D01*
X137850000Y-67450000D01*
X137849759Y-67454901D01*
X137849039Y-67459755D01*
X137847847Y-67464514D01*
X137846194Y-67469134D01*
X137844096Y-67473570D01*
X137841573Y-67477779D01*
X137838651Y-67481720D01*
X137835355Y-67485355D01*
X137831720Y-67488651D01*
X137827779Y-67491573D01*
X137823570Y-67494096D01*
X137819134Y-67496194D01*
X137814514Y-67497847D01*
X137809755Y-67499039D01*
X137804901Y-67499759D01*
X137800000Y-67500000D01*
X136500000Y-67500000D01*
X136495099Y-67499759D01*
X136490245Y-67499039D01*
X136485486Y-67497847D01*
X136480866Y-67496194D01*
X136476430Y-67494096D01*
X136472221Y-67491573D01*
X136468280Y-67488651D01*
X136464645Y-67485355D01*
X136461349Y-67481720D01*
X136458427Y-67477779D01*
X136455904Y-67473570D01*
X136453806Y-67469134D01*
X136452153Y-67464514D01*
X136450961Y-67459755D01*
X136450241Y-67454901D01*
X136450000Y-67450000D01*
X136450000Y-67350000D01*
X136450241Y-67345099D01*
X136450961Y-67340245D01*
X136452153Y-67335486D01*
X136453806Y-67330866D01*
X136455904Y-67326430D01*
X136458427Y-67322221D01*
X136461349Y-67318280D01*
X136464645Y-67314645D01*
X136468280Y-67311349D01*
X136472221Y-67308427D01*
X136476430Y-67305904D01*
X136480866Y-67303806D01*
X136485486Y-67302153D01*
X136490245Y-67300961D01*
X136495099Y-67300241D01*
X136500000Y-67300000D01*
X137800000Y-67300000D01*
X137804901Y-67300241D01*
X137804901Y-67300241D01*
G37*
D14*
X137150000Y-67400000D03*
D13*
G36*
X138154901Y-67650241D02*
G01*
X138159755Y-67650961D01*
X138164514Y-67652153D01*
X138169134Y-67653806D01*
X138173570Y-67655904D01*
X138177779Y-67658427D01*
X138181720Y-67661349D01*
X138185355Y-67664645D01*
X138188651Y-67668280D01*
X138191573Y-67672221D01*
X138194096Y-67676430D01*
X138196194Y-67680866D01*
X138197847Y-67685486D01*
X138199039Y-67690245D01*
X138199759Y-67695099D01*
X138200000Y-67700000D01*
X138200000Y-69000000D01*
X138199759Y-69004901D01*
X138199039Y-69009755D01*
X138197847Y-69014514D01*
X138196194Y-69019134D01*
X138194096Y-69023570D01*
X138191573Y-69027779D01*
X138188651Y-69031720D01*
X138185355Y-69035355D01*
X138181720Y-69038651D01*
X138177779Y-69041573D01*
X138173570Y-69044096D01*
X138169134Y-69046194D01*
X138164514Y-69047847D01*
X138159755Y-69049039D01*
X138154901Y-69049759D01*
X138150000Y-69050000D01*
X138050000Y-69050000D01*
X138045099Y-69049759D01*
X138040245Y-69049039D01*
X138035486Y-69047847D01*
X138030866Y-69046194D01*
X138026430Y-69044096D01*
X138022221Y-69041573D01*
X138018280Y-69038651D01*
X138014645Y-69035355D01*
X138011349Y-69031720D01*
X138008427Y-69027779D01*
X138005904Y-69023570D01*
X138003806Y-69019134D01*
X138002153Y-69014514D01*
X138000961Y-69009755D01*
X138000241Y-69004901D01*
X138000000Y-69000000D01*
X138000000Y-67700000D01*
X138000241Y-67695099D01*
X138000961Y-67690245D01*
X138002153Y-67685486D01*
X138003806Y-67680866D01*
X138005904Y-67676430D01*
X138008427Y-67672221D01*
X138011349Y-67668280D01*
X138014645Y-67664645D01*
X138018280Y-67661349D01*
X138022221Y-67658427D01*
X138026430Y-67655904D01*
X138030866Y-67653806D01*
X138035486Y-67652153D01*
X138040245Y-67650961D01*
X138045099Y-67650241D01*
X138050000Y-67650000D01*
X138150000Y-67650000D01*
X138154901Y-67650241D01*
X138154901Y-67650241D01*
G37*
D14*
X138100000Y-68350000D03*
D13*
G36*
X140954901Y-67650241D02*
G01*
X140959755Y-67650961D01*
X140964514Y-67652153D01*
X140969134Y-67653806D01*
X140973570Y-67655904D01*
X140977779Y-67658427D01*
X140981720Y-67661349D01*
X140985355Y-67664645D01*
X140988651Y-67668280D01*
X140991573Y-67672221D01*
X140994096Y-67676430D01*
X140996194Y-67680866D01*
X140997847Y-67685486D01*
X140999039Y-67690245D01*
X140999759Y-67695099D01*
X141000000Y-67700000D01*
X141000000Y-69000000D01*
X140999759Y-69004901D01*
X140999039Y-69009755D01*
X140997847Y-69014514D01*
X140996194Y-69019134D01*
X140994096Y-69023570D01*
X140991573Y-69027779D01*
X140988651Y-69031720D01*
X140985355Y-69035355D01*
X140981720Y-69038651D01*
X140977779Y-69041573D01*
X140973570Y-69044096D01*
X140969134Y-69046194D01*
X140964514Y-69047847D01*
X140959755Y-69049039D01*
X140954901Y-69049759D01*
X140950000Y-69050000D01*
X140850000Y-69050000D01*
X140845099Y-69049759D01*
X140840245Y-69049039D01*
X140835486Y-69047847D01*
X140830866Y-69046194D01*
X140826430Y-69044096D01*
X140822221Y-69041573D01*
X140818280Y-69038651D01*
X140814645Y-69035355D01*
X140811349Y-69031720D01*
X140808427Y-69027779D01*
X140805904Y-69023570D01*
X140803806Y-69019134D01*
X140802153Y-69014514D01*
X140800961Y-69009755D01*
X140800241Y-69004901D01*
X140800000Y-69000000D01*
X140800000Y-67700000D01*
X140800241Y-67695099D01*
X140800961Y-67690245D01*
X140802153Y-67685486D01*
X140803806Y-67680866D01*
X140805904Y-67676430D01*
X140808427Y-67672221D01*
X140811349Y-67668280D01*
X140814645Y-67664645D01*
X140818280Y-67661349D01*
X140822221Y-67658427D01*
X140826430Y-67655904D01*
X140830866Y-67653806D01*
X140835486Y-67652153D01*
X140840245Y-67650961D01*
X140845099Y-67650241D01*
X140850000Y-67650000D01*
X140950000Y-67650000D01*
X140954901Y-67650241D01*
X140954901Y-67650241D01*
G37*
D14*
X140900000Y-68350000D03*
D13*
G36*
X142504901Y-64500241D02*
G01*
X142509755Y-64500961D01*
X142514514Y-64502153D01*
X142519134Y-64503806D01*
X142523570Y-64505904D01*
X142527779Y-64508427D01*
X142531720Y-64511349D01*
X142535355Y-64514645D01*
X142538651Y-64518280D01*
X142541573Y-64522221D01*
X142544096Y-64526430D01*
X142546194Y-64530866D01*
X142547847Y-64535486D01*
X142549039Y-64540245D01*
X142549759Y-64545099D01*
X142550000Y-64550000D01*
X142550000Y-64650000D01*
X142549759Y-64654901D01*
X142549039Y-64659755D01*
X142547847Y-64664514D01*
X142546194Y-64669134D01*
X142544096Y-64673570D01*
X142541573Y-64677779D01*
X142538651Y-64681720D01*
X142535355Y-64685355D01*
X142531720Y-64688651D01*
X142527779Y-64691573D01*
X142523570Y-64694096D01*
X142519134Y-64696194D01*
X142514514Y-64697847D01*
X142509755Y-64699039D01*
X142504901Y-64699759D01*
X142500000Y-64700000D01*
X141200000Y-64700000D01*
X141195099Y-64699759D01*
X141190245Y-64699039D01*
X141185486Y-64697847D01*
X141180866Y-64696194D01*
X141176430Y-64694096D01*
X141172221Y-64691573D01*
X141168280Y-64688651D01*
X141164645Y-64685355D01*
X141161349Y-64681720D01*
X141158427Y-64677779D01*
X141155904Y-64673570D01*
X141153806Y-64669134D01*
X141152153Y-64664514D01*
X141150961Y-64659755D01*
X141150241Y-64654901D01*
X141150000Y-64650000D01*
X141150000Y-64550000D01*
X141150241Y-64545099D01*
X141150961Y-64540245D01*
X141152153Y-64535486D01*
X141153806Y-64530866D01*
X141155904Y-64526430D01*
X141158427Y-64522221D01*
X141161349Y-64518280D01*
X141164645Y-64514645D01*
X141168280Y-64511349D01*
X141172221Y-64508427D01*
X141176430Y-64505904D01*
X141180866Y-64503806D01*
X141185486Y-64502153D01*
X141190245Y-64500961D01*
X141195099Y-64500241D01*
X141200000Y-64500000D01*
X142500000Y-64500000D01*
X142504901Y-64500241D01*
X142504901Y-64500241D01*
G37*
D14*
X141850000Y-64600000D03*
D13*
G36*
X140554901Y-62950241D02*
G01*
X140559755Y-62950961D01*
X140564514Y-62952153D01*
X140569134Y-62953806D01*
X140573570Y-62955904D01*
X140577779Y-62958427D01*
X140581720Y-62961349D01*
X140585355Y-62964645D01*
X140588651Y-62968280D01*
X140591573Y-62972221D01*
X140594096Y-62976430D01*
X140596194Y-62980866D01*
X140597847Y-62985486D01*
X140599039Y-62990245D01*
X140599759Y-62995099D01*
X140600000Y-63000000D01*
X140600000Y-64300000D01*
X140599759Y-64304901D01*
X140599039Y-64309755D01*
X140597847Y-64314514D01*
X140596194Y-64319134D01*
X140594096Y-64323570D01*
X140591573Y-64327779D01*
X140588651Y-64331720D01*
X140585355Y-64335355D01*
X140581720Y-64338651D01*
X140577779Y-64341573D01*
X140573570Y-64344096D01*
X140569134Y-64346194D01*
X140564514Y-64347847D01*
X140559755Y-64349039D01*
X140554901Y-64349759D01*
X140550000Y-64350000D01*
X140450000Y-64350000D01*
X140445099Y-64349759D01*
X140440245Y-64349039D01*
X140435486Y-64347847D01*
X140430866Y-64346194D01*
X140426430Y-64344096D01*
X140422221Y-64341573D01*
X140418280Y-64338651D01*
X140414645Y-64335355D01*
X140411349Y-64331720D01*
X140408427Y-64327779D01*
X140405904Y-64323570D01*
X140403806Y-64319134D01*
X140402153Y-64314514D01*
X140400961Y-64309755D01*
X140400241Y-64304901D01*
X140400000Y-64300000D01*
X140400000Y-63000000D01*
X140400241Y-62995099D01*
X140400961Y-62990245D01*
X140402153Y-62985486D01*
X140403806Y-62980866D01*
X140405904Y-62976430D01*
X140408427Y-62972221D01*
X140411349Y-62968280D01*
X140414645Y-62964645D01*
X140418280Y-62961349D01*
X140422221Y-62958427D01*
X140426430Y-62955904D01*
X140430866Y-62953806D01*
X140435486Y-62952153D01*
X140440245Y-62950961D01*
X140445099Y-62950241D01*
X140450000Y-62950000D01*
X140550000Y-62950000D01*
X140554901Y-62950241D01*
X140554901Y-62950241D01*
G37*
D14*
X140500000Y-63650000D03*
D13*
G36*
X142504901Y-66500241D02*
G01*
X142509755Y-66500961D01*
X142514514Y-66502153D01*
X142519134Y-66503806D01*
X142523570Y-66505904D01*
X142527779Y-66508427D01*
X142531720Y-66511349D01*
X142535355Y-66514645D01*
X142538651Y-66518280D01*
X142541573Y-66522221D01*
X142544096Y-66526430D01*
X142546194Y-66530866D01*
X142547847Y-66535486D01*
X142549039Y-66540245D01*
X142549759Y-66545099D01*
X142550000Y-66550000D01*
X142550000Y-66650000D01*
X142549759Y-66654901D01*
X142549039Y-66659755D01*
X142547847Y-66664514D01*
X142546194Y-66669134D01*
X142544096Y-66673570D01*
X142541573Y-66677779D01*
X142538651Y-66681720D01*
X142535355Y-66685355D01*
X142531720Y-66688651D01*
X142527779Y-66691573D01*
X142523570Y-66694096D01*
X142519134Y-66696194D01*
X142514514Y-66697847D01*
X142509755Y-66699039D01*
X142504901Y-66699759D01*
X142500000Y-66700000D01*
X141200000Y-66700000D01*
X141195099Y-66699759D01*
X141190245Y-66699039D01*
X141185486Y-66697847D01*
X141180866Y-66696194D01*
X141176430Y-66694096D01*
X141172221Y-66691573D01*
X141168280Y-66688651D01*
X141164645Y-66685355D01*
X141161349Y-66681720D01*
X141158427Y-66677779D01*
X141155904Y-66673570D01*
X141153806Y-66669134D01*
X141152153Y-66664514D01*
X141150961Y-66659755D01*
X141150241Y-66654901D01*
X141150000Y-66650000D01*
X141150000Y-66550000D01*
X141150241Y-66545099D01*
X141150961Y-66540245D01*
X141152153Y-66535486D01*
X141153806Y-66530866D01*
X141155904Y-66526430D01*
X141158427Y-66522221D01*
X141161349Y-66518280D01*
X141164645Y-66514645D01*
X141168280Y-66511349D01*
X141172221Y-66508427D01*
X141176430Y-66505904D01*
X141180866Y-66503806D01*
X141185486Y-66502153D01*
X141190245Y-66500961D01*
X141195099Y-66500241D01*
X141200000Y-66500000D01*
X142500000Y-66500000D01*
X142504901Y-66500241D01*
X142504901Y-66500241D01*
G37*
D14*
X141850000Y-66600000D03*
D13*
G36*
X138154901Y-62950241D02*
G01*
X138159755Y-62950961D01*
X138164514Y-62952153D01*
X138169134Y-62953806D01*
X138173570Y-62955904D01*
X138177779Y-62958427D01*
X138181720Y-62961349D01*
X138185355Y-62964645D01*
X138188651Y-62968280D01*
X138191573Y-62972221D01*
X138194096Y-62976430D01*
X138196194Y-62980866D01*
X138197847Y-62985486D01*
X138199039Y-62990245D01*
X138199759Y-62995099D01*
X138200000Y-63000000D01*
X138200000Y-64300000D01*
X138199759Y-64304901D01*
X138199039Y-64309755D01*
X138197847Y-64314514D01*
X138196194Y-64319134D01*
X138194096Y-64323570D01*
X138191573Y-64327779D01*
X138188651Y-64331720D01*
X138185355Y-64335355D01*
X138181720Y-64338651D01*
X138177779Y-64341573D01*
X138173570Y-64344096D01*
X138169134Y-64346194D01*
X138164514Y-64347847D01*
X138159755Y-64349039D01*
X138154901Y-64349759D01*
X138150000Y-64350000D01*
X138050000Y-64350000D01*
X138045099Y-64349759D01*
X138040245Y-64349039D01*
X138035486Y-64347847D01*
X138030866Y-64346194D01*
X138026430Y-64344096D01*
X138022221Y-64341573D01*
X138018280Y-64338651D01*
X138014645Y-64335355D01*
X138011349Y-64331720D01*
X138008427Y-64327779D01*
X138005904Y-64323570D01*
X138003806Y-64319134D01*
X138002153Y-64314514D01*
X138000961Y-64309755D01*
X138000241Y-64304901D01*
X138000000Y-64300000D01*
X138000000Y-63000000D01*
X138000241Y-62995099D01*
X138000961Y-62990245D01*
X138002153Y-62985486D01*
X138003806Y-62980866D01*
X138005904Y-62976430D01*
X138008427Y-62972221D01*
X138011349Y-62968280D01*
X138014645Y-62964645D01*
X138018280Y-62961349D01*
X138022221Y-62958427D01*
X138026430Y-62955904D01*
X138030866Y-62953806D01*
X138035486Y-62952153D01*
X138040245Y-62950961D01*
X138045099Y-62950241D01*
X138050000Y-62950000D01*
X138150000Y-62950000D01*
X138154901Y-62950241D01*
X138154901Y-62950241D01*
G37*
D14*
X138100000Y-63650000D03*
D13*
G36*
X138954901Y-67650241D02*
G01*
X138959755Y-67650961D01*
X138964514Y-67652153D01*
X138969134Y-67653806D01*
X138973570Y-67655904D01*
X138977779Y-67658427D01*
X138981720Y-67661349D01*
X138985355Y-67664645D01*
X138988651Y-67668280D01*
X138991573Y-67672221D01*
X138994096Y-67676430D01*
X138996194Y-67680866D01*
X138997847Y-67685486D01*
X138999039Y-67690245D01*
X138999759Y-67695099D01*
X139000000Y-67700000D01*
X139000000Y-69000000D01*
X138999759Y-69004901D01*
X138999039Y-69009755D01*
X138997847Y-69014514D01*
X138996194Y-69019134D01*
X138994096Y-69023570D01*
X138991573Y-69027779D01*
X138988651Y-69031720D01*
X138985355Y-69035355D01*
X138981720Y-69038651D01*
X138977779Y-69041573D01*
X138973570Y-69044096D01*
X138969134Y-69046194D01*
X138964514Y-69047847D01*
X138959755Y-69049039D01*
X138954901Y-69049759D01*
X138950000Y-69050000D01*
X138850000Y-69050000D01*
X138845099Y-69049759D01*
X138840245Y-69049039D01*
X138835486Y-69047847D01*
X138830866Y-69046194D01*
X138826430Y-69044096D01*
X138822221Y-69041573D01*
X138818280Y-69038651D01*
X138814645Y-69035355D01*
X138811349Y-69031720D01*
X138808427Y-69027779D01*
X138805904Y-69023570D01*
X138803806Y-69019134D01*
X138802153Y-69014514D01*
X138800961Y-69009755D01*
X138800241Y-69004901D01*
X138800000Y-69000000D01*
X138800000Y-67700000D01*
X138800241Y-67695099D01*
X138800961Y-67690245D01*
X138802153Y-67685486D01*
X138803806Y-67680866D01*
X138805904Y-67676430D01*
X138808427Y-67672221D01*
X138811349Y-67668280D01*
X138814645Y-67664645D01*
X138818280Y-67661349D01*
X138822221Y-67658427D01*
X138826430Y-67655904D01*
X138830866Y-67653806D01*
X138835486Y-67652153D01*
X138840245Y-67650961D01*
X138845099Y-67650241D01*
X138850000Y-67650000D01*
X138950000Y-67650000D01*
X138954901Y-67650241D01*
X138954901Y-67650241D01*
G37*
D14*
X138900000Y-68350000D03*
D13*
G36*
X139354901Y-67650241D02*
G01*
X139359755Y-67650961D01*
X139364514Y-67652153D01*
X139369134Y-67653806D01*
X139373570Y-67655904D01*
X139377779Y-67658427D01*
X139381720Y-67661349D01*
X139385355Y-67664645D01*
X139388651Y-67668280D01*
X139391573Y-67672221D01*
X139394096Y-67676430D01*
X139396194Y-67680866D01*
X139397847Y-67685486D01*
X139399039Y-67690245D01*
X139399759Y-67695099D01*
X139400000Y-67700000D01*
X139400000Y-69000000D01*
X139399759Y-69004901D01*
X139399039Y-69009755D01*
X139397847Y-69014514D01*
X139396194Y-69019134D01*
X139394096Y-69023570D01*
X139391573Y-69027779D01*
X139388651Y-69031720D01*
X139385355Y-69035355D01*
X139381720Y-69038651D01*
X139377779Y-69041573D01*
X139373570Y-69044096D01*
X139369134Y-69046194D01*
X139364514Y-69047847D01*
X139359755Y-69049039D01*
X139354901Y-69049759D01*
X139350000Y-69050000D01*
X139250000Y-69050000D01*
X139245099Y-69049759D01*
X139240245Y-69049039D01*
X139235486Y-69047847D01*
X139230866Y-69046194D01*
X139226430Y-69044096D01*
X139222221Y-69041573D01*
X139218280Y-69038651D01*
X139214645Y-69035355D01*
X139211349Y-69031720D01*
X139208427Y-69027779D01*
X139205904Y-69023570D01*
X139203806Y-69019134D01*
X139202153Y-69014514D01*
X139200961Y-69009755D01*
X139200241Y-69004901D01*
X139200000Y-69000000D01*
X139200000Y-67700000D01*
X139200241Y-67695099D01*
X139200961Y-67690245D01*
X139202153Y-67685486D01*
X139203806Y-67680866D01*
X139205904Y-67676430D01*
X139208427Y-67672221D01*
X139211349Y-67668280D01*
X139214645Y-67664645D01*
X139218280Y-67661349D01*
X139222221Y-67658427D01*
X139226430Y-67655904D01*
X139230866Y-67653806D01*
X139235486Y-67652153D01*
X139240245Y-67650961D01*
X139245099Y-67650241D01*
X139250000Y-67650000D01*
X139350000Y-67650000D01*
X139354901Y-67650241D01*
X139354901Y-67650241D01*
G37*
D14*
X139300000Y-68350000D03*
D13*
G36*
X140554901Y-67650241D02*
G01*
X140559755Y-67650961D01*
X140564514Y-67652153D01*
X140569134Y-67653806D01*
X140573570Y-67655904D01*
X140577779Y-67658427D01*
X140581720Y-67661349D01*
X140585355Y-67664645D01*
X140588651Y-67668280D01*
X140591573Y-67672221D01*
X140594096Y-67676430D01*
X140596194Y-67680866D01*
X140597847Y-67685486D01*
X140599039Y-67690245D01*
X140599759Y-67695099D01*
X140600000Y-67700000D01*
X140600000Y-69000000D01*
X140599759Y-69004901D01*
X140599039Y-69009755D01*
X140597847Y-69014514D01*
X140596194Y-69019134D01*
X140594096Y-69023570D01*
X140591573Y-69027779D01*
X140588651Y-69031720D01*
X140585355Y-69035355D01*
X140581720Y-69038651D01*
X140577779Y-69041573D01*
X140573570Y-69044096D01*
X140569134Y-69046194D01*
X140564514Y-69047847D01*
X140559755Y-69049039D01*
X140554901Y-69049759D01*
X140550000Y-69050000D01*
X140450000Y-69050000D01*
X140445099Y-69049759D01*
X140440245Y-69049039D01*
X140435486Y-69047847D01*
X140430866Y-69046194D01*
X140426430Y-69044096D01*
X140422221Y-69041573D01*
X140418280Y-69038651D01*
X140414645Y-69035355D01*
X140411349Y-69031720D01*
X140408427Y-69027779D01*
X140405904Y-69023570D01*
X140403806Y-69019134D01*
X140402153Y-69014514D01*
X140400961Y-69009755D01*
X140400241Y-69004901D01*
X140400000Y-69000000D01*
X140400000Y-67700000D01*
X140400241Y-67695099D01*
X140400961Y-67690245D01*
X140402153Y-67685486D01*
X140403806Y-67680866D01*
X140405904Y-67676430D01*
X140408427Y-67672221D01*
X140411349Y-67668280D01*
X140414645Y-67664645D01*
X140418280Y-67661349D01*
X140422221Y-67658427D01*
X140426430Y-67655904D01*
X140430866Y-67653806D01*
X140435486Y-67652153D01*
X140440245Y-67650961D01*
X140445099Y-67650241D01*
X140450000Y-67650000D01*
X140550000Y-67650000D01*
X140554901Y-67650241D01*
X140554901Y-67650241D01*
G37*
D14*
X140500000Y-68350000D03*
D13*
G36*
X142504901Y-65700241D02*
G01*
X142509755Y-65700961D01*
X142514514Y-65702153D01*
X142519134Y-65703806D01*
X142523570Y-65705904D01*
X142527779Y-65708427D01*
X142531720Y-65711349D01*
X142535355Y-65714645D01*
X142538651Y-65718280D01*
X142541573Y-65722221D01*
X142544096Y-65726430D01*
X142546194Y-65730866D01*
X142547847Y-65735486D01*
X142549039Y-65740245D01*
X142549759Y-65745099D01*
X142550000Y-65750000D01*
X142550000Y-65850000D01*
X142549759Y-65854901D01*
X142549039Y-65859755D01*
X142547847Y-65864514D01*
X142546194Y-65869134D01*
X142544096Y-65873570D01*
X142541573Y-65877779D01*
X142538651Y-65881720D01*
X142535355Y-65885355D01*
X142531720Y-65888651D01*
X142527779Y-65891573D01*
X142523570Y-65894096D01*
X142519134Y-65896194D01*
X142514514Y-65897847D01*
X142509755Y-65899039D01*
X142504901Y-65899759D01*
X142500000Y-65900000D01*
X141200000Y-65900000D01*
X141195099Y-65899759D01*
X141190245Y-65899039D01*
X141185486Y-65897847D01*
X141180866Y-65896194D01*
X141176430Y-65894096D01*
X141172221Y-65891573D01*
X141168280Y-65888651D01*
X141164645Y-65885355D01*
X141161349Y-65881720D01*
X141158427Y-65877779D01*
X141155904Y-65873570D01*
X141153806Y-65869134D01*
X141152153Y-65864514D01*
X141150961Y-65859755D01*
X141150241Y-65854901D01*
X141150000Y-65850000D01*
X141150000Y-65750000D01*
X141150241Y-65745099D01*
X141150961Y-65740245D01*
X141152153Y-65735486D01*
X141153806Y-65730866D01*
X141155904Y-65726430D01*
X141158427Y-65722221D01*
X141161349Y-65718280D01*
X141164645Y-65714645D01*
X141168280Y-65711349D01*
X141172221Y-65708427D01*
X141176430Y-65705904D01*
X141180866Y-65703806D01*
X141185486Y-65702153D01*
X141190245Y-65700961D01*
X141195099Y-65700241D01*
X141200000Y-65700000D01*
X142500000Y-65700000D01*
X142504901Y-65700241D01*
X142504901Y-65700241D01*
G37*
D14*
X141850000Y-65800000D03*
D13*
G36*
X137804901Y-64900241D02*
G01*
X137809755Y-64900961D01*
X137814514Y-64902153D01*
X137819134Y-64903806D01*
X137823570Y-64905904D01*
X137827779Y-64908427D01*
X137831720Y-64911349D01*
X137835355Y-64914645D01*
X137838651Y-64918280D01*
X137841573Y-64922221D01*
X137844096Y-64926430D01*
X137846194Y-64930866D01*
X137847847Y-64935486D01*
X137849039Y-64940245D01*
X137849759Y-64945099D01*
X137850000Y-64950000D01*
X137850000Y-65050000D01*
X137849759Y-65054901D01*
X137849039Y-65059755D01*
X137847847Y-65064514D01*
X137846194Y-65069134D01*
X137844096Y-65073570D01*
X137841573Y-65077779D01*
X137838651Y-65081720D01*
X137835355Y-65085355D01*
X137831720Y-65088651D01*
X137827779Y-65091573D01*
X137823570Y-65094096D01*
X137819134Y-65096194D01*
X137814514Y-65097847D01*
X137809755Y-65099039D01*
X137804901Y-65099759D01*
X137800000Y-65100000D01*
X136500000Y-65100000D01*
X136495099Y-65099759D01*
X136490245Y-65099039D01*
X136485486Y-65097847D01*
X136480866Y-65096194D01*
X136476430Y-65094096D01*
X136472221Y-65091573D01*
X136468280Y-65088651D01*
X136464645Y-65085355D01*
X136461349Y-65081720D01*
X136458427Y-65077779D01*
X136455904Y-65073570D01*
X136453806Y-65069134D01*
X136452153Y-65064514D01*
X136450961Y-65059755D01*
X136450241Y-65054901D01*
X136450000Y-65050000D01*
X136450000Y-64950000D01*
X136450241Y-64945099D01*
X136450961Y-64940245D01*
X136452153Y-64935486D01*
X136453806Y-64930866D01*
X136455904Y-64926430D01*
X136458427Y-64922221D01*
X136461349Y-64918280D01*
X136464645Y-64914645D01*
X136468280Y-64911349D01*
X136472221Y-64908427D01*
X136476430Y-64905904D01*
X136480866Y-64903806D01*
X136485486Y-64902153D01*
X136490245Y-64900961D01*
X136495099Y-64900241D01*
X136500000Y-64900000D01*
X137800000Y-64900000D01*
X137804901Y-64900241D01*
X137804901Y-64900241D01*
G37*
D14*
X137150000Y-65000000D03*
D13*
G36*
X142504901Y-67300241D02*
G01*
X142509755Y-67300961D01*
X142514514Y-67302153D01*
X142519134Y-67303806D01*
X142523570Y-67305904D01*
X142527779Y-67308427D01*
X142531720Y-67311349D01*
X142535355Y-67314645D01*
X142538651Y-67318280D01*
X142541573Y-67322221D01*
X142544096Y-67326430D01*
X142546194Y-67330866D01*
X142547847Y-67335486D01*
X142549039Y-67340245D01*
X142549759Y-67345099D01*
X142550000Y-67350000D01*
X142550000Y-67450000D01*
X142549759Y-67454901D01*
X142549039Y-67459755D01*
X142547847Y-67464514D01*
X142546194Y-67469134D01*
X142544096Y-67473570D01*
X142541573Y-67477779D01*
X142538651Y-67481720D01*
X142535355Y-67485355D01*
X142531720Y-67488651D01*
X142527779Y-67491573D01*
X142523570Y-67494096D01*
X142519134Y-67496194D01*
X142514514Y-67497847D01*
X142509755Y-67499039D01*
X142504901Y-67499759D01*
X142500000Y-67500000D01*
X141200000Y-67500000D01*
X141195099Y-67499759D01*
X141190245Y-67499039D01*
X141185486Y-67497847D01*
X141180866Y-67496194D01*
X141176430Y-67494096D01*
X141172221Y-67491573D01*
X141168280Y-67488651D01*
X141164645Y-67485355D01*
X141161349Y-67481720D01*
X141158427Y-67477779D01*
X141155904Y-67473570D01*
X141153806Y-67469134D01*
X141152153Y-67464514D01*
X141150961Y-67459755D01*
X141150241Y-67454901D01*
X141150000Y-67450000D01*
X141150000Y-67350000D01*
X141150241Y-67345099D01*
X141150961Y-67340245D01*
X141152153Y-67335486D01*
X141153806Y-67330866D01*
X141155904Y-67326430D01*
X141158427Y-67322221D01*
X141161349Y-67318280D01*
X141164645Y-67314645D01*
X141168280Y-67311349D01*
X141172221Y-67308427D01*
X141176430Y-67305904D01*
X141180866Y-67303806D01*
X141185486Y-67302153D01*
X141190245Y-67300961D01*
X141195099Y-67300241D01*
X141200000Y-67300000D01*
X142500000Y-67300000D01*
X142504901Y-67300241D01*
X142504901Y-67300241D01*
G37*
D14*
X141850000Y-67400000D03*
D13*
G36*
X138954901Y-62950241D02*
G01*
X138959755Y-62950961D01*
X138964514Y-62952153D01*
X138969134Y-62953806D01*
X138973570Y-62955904D01*
X138977779Y-62958427D01*
X138981720Y-62961349D01*
X138985355Y-62964645D01*
X138988651Y-62968280D01*
X138991573Y-62972221D01*
X138994096Y-62976430D01*
X138996194Y-62980866D01*
X138997847Y-62985486D01*
X138999039Y-62990245D01*
X138999759Y-62995099D01*
X139000000Y-63000000D01*
X139000000Y-64300000D01*
X138999759Y-64304901D01*
X138999039Y-64309755D01*
X138997847Y-64314514D01*
X138996194Y-64319134D01*
X138994096Y-64323570D01*
X138991573Y-64327779D01*
X138988651Y-64331720D01*
X138985355Y-64335355D01*
X138981720Y-64338651D01*
X138977779Y-64341573D01*
X138973570Y-64344096D01*
X138969134Y-64346194D01*
X138964514Y-64347847D01*
X138959755Y-64349039D01*
X138954901Y-64349759D01*
X138950000Y-64350000D01*
X138850000Y-64350000D01*
X138845099Y-64349759D01*
X138840245Y-64349039D01*
X138835486Y-64347847D01*
X138830866Y-64346194D01*
X138826430Y-64344096D01*
X138822221Y-64341573D01*
X138818280Y-64338651D01*
X138814645Y-64335355D01*
X138811349Y-64331720D01*
X138808427Y-64327779D01*
X138805904Y-64323570D01*
X138803806Y-64319134D01*
X138802153Y-64314514D01*
X138800961Y-64309755D01*
X138800241Y-64304901D01*
X138800000Y-64300000D01*
X138800000Y-63000000D01*
X138800241Y-62995099D01*
X138800961Y-62990245D01*
X138802153Y-62985486D01*
X138803806Y-62980866D01*
X138805904Y-62976430D01*
X138808427Y-62972221D01*
X138811349Y-62968280D01*
X138814645Y-62964645D01*
X138818280Y-62961349D01*
X138822221Y-62958427D01*
X138826430Y-62955904D01*
X138830866Y-62953806D01*
X138835486Y-62952153D01*
X138840245Y-62950961D01*
X138845099Y-62950241D01*
X138850000Y-62950000D01*
X138950000Y-62950000D01*
X138954901Y-62950241D01*
X138954901Y-62950241D01*
G37*
D14*
X138900000Y-63650000D03*
D13*
G36*
X142504901Y-66900241D02*
G01*
X142509755Y-66900961D01*
X142514514Y-66902153D01*
X142519134Y-66903806D01*
X142523570Y-66905904D01*
X142527779Y-66908427D01*
X142531720Y-66911349D01*
X142535355Y-66914645D01*
X142538651Y-66918280D01*
X142541573Y-66922221D01*
X142544096Y-66926430D01*
X142546194Y-66930866D01*
X142547847Y-66935486D01*
X142549039Y-66940245D01*
X142549759Y-66945099D01*
X142550000Y-66950000D01*
X142550000Y-67050000D01*
X142549759Y-67054901D01*
X142549039Y-67059755D01*
X142547847Y-67064514D01*
X142546194Y-67069134D01*
X142544096Y-67073570D01*
X142541573Y-67077779D01*
X142538651Y-67081720D01*
X142535355Y-67085355D01*
X142531720Y-67088651D01*
X142527779Y-67091573D01*
X142523570Y-67094096D01*
X142519134Y-67096194D01*
X142514514Y-67097847D01*
X142509755Y-67099039D01*
X142504901Y-67099759D01*
X142500000Y-67100000D01*
X141200000Y-67100000D01*
X141195099Y-67099759D01*
X141190245Y-67099039D01*
X141185486Y-67097847D01*
X141180866Y-67096194D01*
X141176430Y-67094096D01*
X141172221Y-67091573D01*
X141168280Y-67088651D01*
X141164645Y-67085355D01*
X141161349Y-67081720D01*
X141158427Y-67077779D01*
X141155904Y-67073570D01*
X141153806Y-67069134D01*
X141152153Y-67064514D01*
X141150961Y-67059755D01*
X141150241Y-67054901D01*
X141150000Y-67050000D01*
X141150000Y-66950000D01*
X141150241Y-66945099D01*
X141150961Y-66940245D01*
X141152153Y-66935486D01*
X141153806Y-66930866D01*
X141155904Y-66926430D01*
X141158427Y-66922221D01*
X141161349Y-66918280D01*
X141164645Y-66914645D01*
X141168280Y-66911349D01*
X141172221Y-66908427D01*
X141176430Y-66905904D01*
X141180866Y-66903806D01*
X141185486Y-66902153D01*
X141190245Y-66900961D01*
X141195099Y-66900241D01*
X141200000Y-66900000D01*
X142500000Y-66900000D01*
X142504901Y-66900241D01*
X142504901Y-66900241D01*
G37*
D14*
X141850000Y-67000000D03*
D13*
G36*
X138554901Y-62950241D02*
G01*
X138559755Y-62950961D01*
X138564514Y-62952153D01*
X138569134Y-62953806D01*
X138573570Y-62955904D01*
X138577779Y-62958427D01*
X138581720Y-62961349D01*
X138585355Y-62964645D01*
X138588651Y-62968280D01*
X138591573Y-62972221D01*
X138594096Y-62976430D01*
X138596194Y-62980866D01*
X138597847Y-62985486D01*
X138599039Y-62990245D01*
X138599759Y-62995099D01*
X138600000Y-63000000D01*
X138600000Y-64300000D01*
X138599759Y-64304901D01*
X138599039Y-64309755D01*
X138597847Y-64314514D01*
X138596194Y-64319134D01*
X138594096Y-64323570D01*
X138591573Y-64327779D01*
X138588651Y-64331720D01*
X138585355Y-64335355D01*
X138581720Y-64338651D01*
X138577779Y-64341573D01*
X138573570Y-64344096D01*
X138569134Y-64346194D01*
X138564514Y-64347847D01*
X138559755Y-64349039D01*
X138554901Y-64349759D01*
X138550000Y-64350000D01*
X138450000Y-64350000D01*
X138445099Y-64349759D01*
X138440245Y-64349039D01*
X138435486Y-64347847D01*
X138430866Y-64346194D01*
X138426430Y-64344096D01*
X138422221Y-64341573D01*
X138418280Y-64338651D01*
X138414645Y-64335355D01*
X138411349Y-64331720D01*
X138408427Y-64327779D01*
X138405904Y-64323570D01*
X138403806Y-64319134D01*
X138402153Y-64314514D01*
X138400961Y-64309755D01*
X138400241Y-64304901D01*
X138400000Y-64300000D01*
X138400000Y-63000000D01*
X138400241Y-62995099D01*
X138400961Y-62990245D01*
X138402153Y-62985486D01*
X138403806Y-62980866D01*
X138405904Y-62976430D01*
X138408427Y-62972221D01*
X138411349Y-62968280D01*
X138414645Y-62964645D01*
X138418280Y-62961349D01*
X138422221Y-62958427D01*
X138426430Y-62955904D01*
X138430866Y-62953806D01*
X138435486Y-62952153D01*
X138440245Y-62950961D01*
X138445099Y-62950241D01*
X138450000Y-62950000D01*
X138550000Y-62950000D01*
X138554901Y-62950241D01*
X138554901Y-62950241D01*
G37*
D14*
X138500000Y-63650000D03*
D13*
G36*
X137804901Y-66100241D02*
G01*
X137809755Y-66100961D01*
X137814514Y-66102153D01*
X137819134Y-66103806D01*
X137823570Y-66105904D01*
X137827779Y-66108427D01*
X137831720Y-66111349D01*
X137835355Y-66114645D01*
X137838651Y-66118280D01*
X137841573Y-66122221D01*
X137844096Y-66126430D01*
X137846194Y-66130866D01*
X137847847Y-66135486D01*
X137849039Y-66140245D01*
X137849759Y-66145099D01*
X137850000Y-66150000D01*
X137850000Y-66250000D01*
X137849759Y-66254901D01*
X137849039Y-66259755D01*
X137847847Y-66264514D01*
X137846194Y-66269134D01*
X137844096Y-66273570D01*
X137841573Y-66277779D01*
X137838651Y-66281720D01*
X137835355Y-66285355D01*
X137831720Y-66288651D01*
X137827779Y-66291573D01*
X137823570Y-66294096D01*
X137819134Y-66296194D01*
X137814514Y-66297847D01*
X137809755Y-66299039D01*
X137804901Y-66299759D01*
X137800000Y-66300000D01*
X136500000Y-66300000D01*
X136495099Y-66299759D01*
X136490245Y-66299039D01*
X136485486Y-66297847D01*
X136480866Y-66296194D01*
X136476430Y-66294096D01*
X136472221Y-66291573D01*
X136468280Y-66288651D01*
X136464645Y-66285355D01*
X136461349Y-66281720D01*
X136458427Y-66277779D01*
X136455904Y-66273570D01*
X136453806Y-66269134D01*
X136452153Y-66264514D01*
X136450961Y-66259755D01*
X136450241Y-66254901D01*
X136450000Y-66250000D01*
X136450000Y-66150000D01*
X136450241Y-66145099D01*
X136450961Y-66140245D01*
X136452153Y-66135486D01*
X136453806Y-66130866D01*
X136455904Y-66126430D01*
X136458427Y-66122221D01*
X136461349Y-66118280D01*
X136464645Y-66114645D01*
X136468280Y-66111349D01*
X136472221Y-66108427D01*
X136476430Y-66105904D01*
X136480866Y-66103806D01*
X136485486Y-66102153D01*
X136490245Y-66100961D01*
X136495099Y-66100241D01*
X136500000Y-66100000D01*
X137800000Y-66100000D01*
X137804901Y-66100241D01*
X137804901Y-66100241D01*
G37*
D14*
X137150000Y-66200000D03*
D13*
G36*
X140682803Y-64601160D02*
G01*
X140706179Y-64604627D01*
X140729101Y-64610369D01*
X140751351Y-64618330D01*
X140772713Y-64628433D01*
X140792982Y-64640582D01*
X140811962Y-64654659D01*
X140829472Y-64670528D01*
X140845341Y-64688038D01*
X140859418Y-64707018D01*
X140871567Y-64727287D01*
X140881670Y-64748649D01*
X140889631Y-64770899D01*
X140895373Y-64793821D01*
X140898840Y-64817197D01*
X140900000Y-64840799D01*
X140900000Y-67159201D01*
X140898840Y-67182803D01*
X140895373Y-67206179D01*
X140889631Y-67229101D01*
X140881670Y-67251351D01*
X140871567Y-67272713D01*
X140859418Y-67292982D01*
X140845341Y-67311962D01*
X140829472Y-67329472D01*
X140811962Y-67345341D01*
X140792982Y-67359418D01*
X140772713Y-67371567D01*
X140751351Y-67381670D01*
X140729101Y-67389631D01*
X140706179Y-67395373D01*
X140682803Y-67398840D01*
X140659201Y-67400000D01*
X138340799Y-67400000D01*
X138317197Y-67398840D01*
X138293821Y-67395373D01*
X138270899Y-67389631D01*
X138248649Y-67381670D01*
X138227287Y-67371567D01*
X138207018Y-67359418D01*
X138188038Y-67345341D01*
X138170528Y-67329472D01*
X138154659Y-67311962D01*
X138140582Y-67292982D01*
X138128433Y-67272713D01*
X138118330Y-67251351D01*
X138110369Y-67229101D01*
X138104627Y-67206179D01*
X138101160Y-67182803D01*
X138100000Y-67159201D01*
X138100000Y-64840799D01*
X138101160Y-64817197D01*
X138104627Y-64793821D01*
X138110369Y-64770899D01*
X138118330Y-64748649D01*
X138128433Y-64727287D01*
X138140582Y-64707018D01*
X138154659Y-64688038D01*
X138170528Y-64670528D01*
X138188038Y-64654659D01*
X138207018Y-64640582D01*
X138227287Y-64628433D01*
X138248649Y-64618330D01*
X138270899Y-64610369D01*
X138293821Y-64604627D01*
X138317197Y-64601160D01*
X138340799Y-64600000D01*
X140659201Y-64600000D01*
X140682803Y-64601160D01*
X140682803Y-64601160D01*
G37*
D15*
X139500000Y-66000000D03*
D13*
G36*
X142504901Y-65300241D02*
G01*
X142509755Y-65300961D01*
X142514514Y-65302153D01*
X142519134Y-65303806D01*
X142523570Y-65305904D01*
X142527779Y-65308427D01*
X142531720Y-65311349D01*
X142535355Y-65314645D01*
X142538651Y-65318280D01*
X142541573Y-65322221D01*
X142544096Y-65326430D01*
X142546194Y-65330866D01*
X142547847Y-65335486D01*
X142549039Y-65340245D01*
X142549759Y-65345099D01*
X142550000Y-65350000D01*
X142550000Y-65450000D01*
X142549759Y-65454901D01*
X142549039Y-65459755D01*
X142547847Y-65464514D01*
X142546194Y-65469134D01*
X142544096Y-65473570D01*
X142541573Y-65477779D01*
X142538651Y-65481720D01*
X142535355Y-65485355D01*
X142531720Y-65488651D01*
X142527779Y-65491573D01*
X142523570Y-65494096D01*
X142519134Y-65496194D01*
X142514514Y-65497847D01*
X142509755Y-65499039D01*
X142504901Y-65499759D01*
X142500000Y-65500000D01*
X141200000Y-65500000D01*
X141195099Y-65499759D01*
X141190245Y-65499039D01*
X141185486Y-65497847D01*
X141180866Y-65496194D01*
X141176430Y-65494096D01*
X141172221Y-65491573D01*
X141168280Y-65488651D01*
X141164645Y-65485355D01*
X141161349Y-65481720D01*
X141158427Y-65477779D01*
X141155904Y-65473570D01*
X141153806Y-65469134D01*
X141152153Y-65464514D01*
X141150961Y-65459755D01*
X141150241Y-65454901D01*
X141150000Y-65450000D01*
X141150000Y-65350000D01*
X141150241Y-65345099D01*
X141150961Y-65340245D01*
X141152153Y-65335486D01*
X141153806Y-65330866D01*
X141155904Y-65326430D01*
X141158427Y-65322221D01*
X141161349Y-65318280D01*
X141164645Y-65314645D01*
X141168280Y-65311349D01*
X141172221Y-65308427D01*
X141176430Y-65305904D01*
X141180866Y-65303806D01*
X141185486Y-65302153D01*
X141190245Y-65300961D01*
X141195099Y-65300241D01*
X141200000Y-65300000D01*
X142500000Y-65300000D01*
X142504901Y-65300241D01*
X142504901Y-65300241D01*
G37*
D14*
X141850000Y-65400000D03*
D13*
G36*
X140954901Y-62950241D02*
G01*
X140959755Y-62950961D01*
X140964514Y-62952153D01*
X140969134Y-62953806D01*
X140973570Y-62955904D01*
X140977779Y-62958427D01*
X140981720Y-62961349D01*
X140985355Y-62964645D01*
X140988651Y-62968280D01*
X140991573Y-62972221D01*
X140994096Y-62976430D01*
X140996194Y-62980866D01*
X140997847Y-62985486D01*
X140999039Y-62990245D01*
X140999759Y-62995099D01*
X141000000Y-63000000D01*
X141000000Y-64300000D01*
X140999759Y-64304901D01*
X140999039Y-64309755D01*
X140997847Y-64314514D01*
X140996194Y-64319134D01*
X140994096Y-64323570D01*
X140991573Y-64327779D01*
X140988651Y-64331720D01*
X140985355Y-64335355D01*
X140981720Y-64338651D01*
X140977779Y-64341573D01*
X140973570Y-64344096D01*
X140969134Y-64346194D01*
X140964514Y-64347847D01*
X140959755Y-64349039D01*
X140954901Y-64349759D01*
X140950000Y-64350000D01*
X140850000Y-64350000D01*
X140845099Y-64349759D01*
X140840245Y-64349039D01*
X140835486Y-64347847D01*
X140830866Y-64346194D01*
X140826430Y-64344096D01*
X140822221Y-64341573D01*
X140818280Y-64338651D01*
X140814645Y-64335355D01*
X140811349Y-64331720D01*
X140808427Y-64327779D01*
X140805904Y-64323570D01*
X140803806Y-64319134D01*
X140802153Y-64314514D01*
X140800961Y-64309755D01*
X140800241Y-64304901D01*
X140800000Y-64300000D01*
X140800000Y-63000000D01*
X140800241Y-62995099D01*
X140800961Y-62990245D01*
X140802153Y-62985486D01*
X140803806Y-62980866D01*
X140805904Y-62976430D01*
X140808427Y-62972221D01*
X140811349Y-62968280D01*
X140814645Y-62964645D01*
X140818280Y-62961349D01*
X140822221Y-62958427D01*
X140826430Y-62955904D01*
X140830866Y-62953806D01*
X140835486Y-62952153D01*
X140840245Y-62950961D01*
X140845099Y-62950241D01*
X140850000Y-62950000D01*
X140950000Y-62950000D01*
X140954901Y-62950241D01*
X140954901Y-62950241D01*
G37*
D14*
X140900000Y-63650000D03*
D13*
G36*
X137804901Y-65300241D02*
G01*
X137809755Y-65300961D01*
X137814514Y-65302153D01*
X137819134Y-65303806D01*
X137823570Y-65305904D01*
X137827779Y-65308427D01*
X137831720Y-65311349D01*
X137835355Y-65314645D01*
X137838651Y-65318280D01*
X137841573Y-65322221D01*
X137844096Y-65326430D01*
X137846194Y-65330866D01*
X137847847Y-65335486D01*
X137849039Y-65340245D01*
X137849759Y-65345099D01*
X137850000Y-65350000D01*
X137850000Y-65450000D01*
X137849759Y-65454901D01*
X137849039Y-65459755D01*
X137847847Y-65464514D01*
X137846194Y-65469134D01*
X137844096Y-65473570D01*
X137841573Y-65477779D01*
X137838651Y-65481720D01*
X137835355Y-65485355D01*
X137831720Y-65488651D01*
X137827779Y-65491573D01*
X137823570Y-65494096D01*
X137819134Y-65496194D01*
X137814514Y-65497847D01*
X137809755Y-65499039D01*
X137804901Y-65499759D01*
X137800000Y-65500000D01*
X136500000Y-65500000D01*
X136495099Y-65499759D01*
X136490245Y-65499039D01*
X136485486Y-65497847D01*
X136480866Y-65496194D01*
X136476430Y-65494096D01*
X136472221Y-65491573D01*
X136468280Y-65488651D01*
X136464645Y-65485355D01*
X136461349Y-65481720D01*
X136458427Y-65477779D01*
X136455904Y-65473570D01*
X136453806Y-65469134D01*
X136452153Y-65464514D01*
X136450961Y-65459755D01*
X136450241Y-65454901D01*
X136450000Y-65450000D01*
X136450000Y-65350000D01*
X136450241Y-65345099D01*
X136450961Y-65340245D01*
X136452153Y-65335486D01*
X136453806Y-65330866D01*
X136455904Y-65326430D01*
X136458427Y-65322221D01*
X136461349Y-65318280D01*
X136464645Y-65314645D01*
X136468280Y-65311349D01*
X136472221Y-65308427D01*
X136476430Y-65305904D01*
X136480866Y-65303806D01*
X136485486Y-65302153D01*
X136490245Y-65300961D01*
X136495099Y-65300241D01*
X136500000Y-65300000D01*
X137800000Y-65300000D01*
X137804901Y-65300241D01*
X137804901Y-65300241D01*
G37*
D14*
X137150000Y-65400000D03*
D13*
G36*
X150760779Y-57101144D02*
G01*
X150783834Y-57104563D01*
X150806443Y-57110227D01*
X150828387Y-57118079D01*
X150849457Y-57128044D01*
X150869448Y-57140026D01*
X150888168Y-57153910D01*
X150905438Y-57169562D01*
X150921090Y-57186832D01*
X150934974Y-57205552D01*
X150946956Y-57225543D01*
X150956921Y-57246613D01*
X150964773Y-57268557D01*
X150970437Y-57291166D01*
X150973856Y-57314221D01*
X150975000Y-57337500D01*
X150975000Y-57912500D01*
X150973856Y-57935779D01*
X150970437Y-57958834D01*
X150964773Y-57981443D01*
X150956921Y-58003387D01*
X150946956Y-58024457D01*
X150934974Y-58044448D01*
X150921090Y-58063168D01*
X150905438Y-58080438D01*
X150888168Y-58096090D01*
X150869448Y-58109974D01*
X150849457Y-58121956D01*
X150828387Y-58131921D01*
X150806443Y-58139773D01*
X150783834Y-58145437D01*
X150760779Y-58148856D01*
X150737500Y-58150000D01*
X150262500Y-58150000D01*
X150239221Y-58148856D01*
X150216166Y-58145437D01*
X150193557Y-58139773D01*
X150171613Y-58131921D01*
X150150543Y-58121956D01*
X150130552Y-58109974D01*
X150111832Y-58096090D01*
X150094562Y-58080438D01*
X150078910Y-58063168D01*
X150065026Y-58044448D01*
X150053044Y-58024457D01*
X150043079Y-58003387D01*
X150035227Y-57981443D01*
X150029563Y-57958834D01*
X150026144Y-57935779D01*
X150025000Y-57912500D01*
X150025000Y-57337500D01*
X150026144Y-57314221D01*
X150029563Y-57291166D01*
X150035227Y-57268557D01*
X150043079Y-57246613D01*
X150053044Y-57225543D01*
X150065026Y-57205552D01*
X150078910Y-57186832D01*
X150094562Y-57169562D01*
X150111832Y-57153910D01*
X150130552Y-57140026D01*
X150150543Y-57128044D01*
X150171613Y-57118079D01*
X150193557Y-57110227D01*
X150216166Y-57104563D01*
X150239221Y-57101144D01*
X150262500Y-57100000D01*
X150737500Y-57100000D01*
X150760779Y-57101144D01*
X150760779Y-57101144D01*
G37*
D16*
X150500000Y-57625000D03*
D13*
G36*
X150760779Y-55351144D02*
G01*
X150783834Y-55354563D01*
X150806443Y-55360227D01*
X150828387Y-55368079D01*
X150849457Y-55378044D01*
X150869448Y-55390026D01*
X150888168Y-55403910D01*
X150905438Y-55419562D01*
X150921090Y-55436832D01*
X150934974Y-55455552D01*
X150946956Y-55475543D01*
X150956921Y-55496613D01*
X150964773Y-55518557D01*
X150970437Y-55541166D01*
X150973856Y-55564221D01*
X150975000Y-55587500D01*
X150975000Y-56162500D01*
X150973856Y-56185779D01*
X150970437Y-56208834D01*
X150964773Y-56231443D01*
X150956921Y-56253387D01*
X150946956Y-56274457D01*
X150934974Y-56294448D01*
X150921090Y-56313168D01*
X150905438Y-56330438D01*
X150888168Y-56346090D01*
X150869448Y-56359974D01*
X150849457Y-56371956D01*
X150828387Y-56381921D01*
X150806443Y-56389773D01*
X150783834Y-56395437D01*
X150760779Y-56398856D01*
X150737500Y-56400000D01*
X150262500Y-56400000D01*
X150239221Y-56398856D01*
X150216166Y-56395437D01*
X150193557Y-56389773D01*
X150171613Y-56381921D01*
X150150543Y-56371956D01*
X150130552Y-56359974D01*
X150111832Y-56346090D01*
X150094562Y-56330438D01*
X150078910Y-56313168D01*
X150065026Y-56294448D01*
X150053044Y-56274457D01*
X150043079Y-56253387D01*
X150035227Y-56231443D01*
X150029563Y-56208834D01*
X150026144Y-56185779D01*
X150025000Y-56162500D01*
X150025000Y-55587500D01*
X150026144Y-55564221D01*
X150029563Y-55541166D01*
X150035227Y-55518557D01*
X150043079Y-55496613D01*
X150053044Y-55475543D01*
X150065026Y-55455552D01*
X150078910Y-55436832D01*
X150094562Y-55419562D01*
X150111832Y-55403910D01*
X150130552Y-55390026D01*
X150150543Y-55378044D01*
X150171613Y-55368079D01*
X150193557Y-55360227D01*
X150216166Y-55354563D01*
X150239221Y-55351144D01*
X150262500Y-55350000D01*
X150737500Y-55350000D01*
X150760779Y-55351144D01*
X150760779Y-55351144D01*
G37*
D16*
X150500000Y-55875000D03*
D13*
G36*
X149760779Y-53351144D02*
G01*
X149783834Y-53354563D01*
X149806443Y-53360227D01*
X149828387Y-53368079D01*
X149849457Y-53378044D01*
X149869448Y-53390026D01*
X149888168Y-53403910D01*
X149905438Y-53419562D01*
X149921090Y-53436832D01*
X149934974Y-53455552D01*
X149946956Y-53475543D01*
X149956921Y-53496613D01*
X149964773Y-53518557D01*
X149970437Y-53541166D01*
X149973856Y-53564221D01*
X149975000Y-53587500D01*
X149975000Y-54162500D01*
X149973856Y-54185779D01*
X149970437Y-54208834D01*
X149964773Y-54231443D01*
X149956921Y-54253387D01*
X149946956Y-54274457D01*
X149934974Y-54294448D01*
X149921090Y-54313168D01*
X149905438Y-54330438D01*
X149888168Y-54346090D01*
X149869448Y-54359974D01*
X149849457Y-54371956D01*
X149828387Y-54381921D01*
X149806443Y-54389773D01*
X149783834Y-54395437D01*
X149760779Y-54398856D01*
X149737500Y-54400000D01*
X149262500Y-54400000D01*
X149239221Y-54398856D01*
X149216166Y-54395437D01*
X149193557Y-54389773D01*
X149171613Y-54381921D01*
X149150543Y-54371956D01*
X149130552Y-54359974D01*
X149111832Y-54346090D01*
X149094562Y-54330438D01*
X149078910Y-54313168D01*
X149065026Y-54294448D01*
X149053044Y-54274457D01*
X149043079Y-54253387D01*
X149035227Y-54231443D01*
X149029563Y-54208834D01*
X149026144Y-54185779D01*
X149025000Y-54162500D01*
X149025000Y-53587500D01*
X149026144Y-53564221D01*
X149029563Y-53541166D01*
X149035227Y-53518557D01*
X149043079Y-53496613D01*
X149053044Y-53475543D01*
X149065026Y-53455552D01*
X149078910Y-53436832D01*
X149094562Y-53419562D01*
X149111832Y-53403910D01*
X149130552Y-53390026D01*
X149150543Y-53378044D01*
X149171613Y-53368079D01*
X149193557Y-53360227D01*
X149216166Y-53354563D01*
X149239221Y-53351144D01*
X149262500Y-53350000D01*
X149737500Y-53350000D01*
X149760779Y-53351144D01*
X149760779Y-53351144D01*
G37*
D16*
X149500000Y-53875000D03*
D13*
G36*
X149760779Y-51601144D02*
G01*
X149783834Y-51604563D01*
X149806443Y-51610227D01*
X149828387Y-51618079D01*
X149849457Y-51628044D01*
X149869448Y-51640026D01*
X149888168Y-51653910D01*
X149905438Y-51669562D01*
X149921090Y-51686832D01*
X149934974Y-51705552D01*
X149946956Y-51725543D01*
X149956921Y-51746613D01*
X149964773Y-51768557D01*
X149970437Y-51791166D01*
X149973856Y-51814221D01*
X149975000Y-51837500D01*
X149975000Y-52412500D01*
X149973856Y-52435779D01*
X149970437Y-52458834D01*
X149964773Y-52481443D01*
X149956921Y-52503387D01*
X149946956Y-52524457D01*
X149934974Y-52544448D01*
X149921090Y-52563168D01*
X149905438Y-52580438D01*
X149888168Y-52596090D01*
X149869448Y-52609974D01*
X149849457Y-52621956D01*
X149828387Y-52631921D01*
X149806443Y-52639773D01*
X149783834Y-52645437D01*
X149760779Y-52648856D01*
X149737500Y-52650000D01*
X149262500Y-52650000D01*
X149239221Y-52648856D01*
X149216166Y-52645437D01*
X149193557Y-52639773D01*
X149171613Y-52631921D01*
X149150543Y-52621956D01*
X149130552Y-52609974D01*
X149111832Y-52596090D01*
X149094562Y-52580438D01*
X149078910Y-52563168D01*
X149065026Y-52544448D01*
X149053044Y-52524457D01*
X149043079Y-52503387D01*
X149035227Y-52481443D01*
X149029563Y-52458834D01*
X149026144Y-52435779D01*
X149025000Y-52412500D01*
X149025000Y-51837500D01*
X149026144Y-51814221D01*
X149029563Y-51791166D01*
X149035227Y-51768557D01*
X149043079Y-51746613D01*
X149053044Y-51725543D01*
X149065026Y-51705552D01*
X149078910Y-51686832D01*
X149094562Y-51669562D01*
X149111832Y-51653910D01*
X149130552Y-51640026D01*
X149150543Y-51628044D01*
X149171613Y-51618079D01*
X149193557Y-51610227D01*
X149216166Y-51604563D01*
X149239221Y-51601144D01*
X149262500Y-51600000D01*
X149737500Y-51600000D01*
X149760779Y-51601144D01*
X149760779Y-51601144D01*
G37*
D16*
X149500000Y-52125000D03*
D13*
G36*
X148760779Y-57101144D02*
G01*
X148783834Y-57104563D01*
X148806443Y-57110227D01*
X148828387Y-57118079D01*
X148849457Y-57128044D01*
X148869448Y-57140026D01*
X148888168Y-57153910D01*
X148905438Y-57169562D01*
X148921090Y-57186832D01*
X148934974Y-57205552D01*
X148946956Y-57225543D01*
X148956921Y-57246613D01*
X148964773Y-57268557D01*
X148970437Y-57291166D01*
X148973856Y-57314221D01*
X148975000Y-57337500D01*
X148975000Y-57912500D01*
X148973856Y-57935779D01*
X148970437Y-57958834D01*
X148964773Y-57981443D01*
X148956921Y-58003387D01*
X148946956Y-58024457D01*
X148934974Y-58044448D01*
X148921090Y-58063168D01*
X148905438Y-58080438D01*
X148888168Y-58096090D01*
X148869448Y-58109974D01*
X148849457Y-58121956D01*
X148828387Y-58131921D01*
X148806443Y-58139773D01*
X148783834Y-58145437D01*
X148760779Y-58148856D01*
X148737500Y-58150000D01*
X148262500Y-58150000D01*
X148239221Y-58148856D01*
X148216166Y-58145437D01*
X148193557Y-58139773D01*
X148171613Y-58131921D01*
X148150543Y-58121956D01*
X148130552Y-58109974D01*
X148111832Y-58096090D01*
X148094562Y-58080438D01*
X148078910Y-58063168D01*
X148065026Y-58044448D01*
X148053044Y-58024457D01*
X148043079Y-58003387D01*
X148035227Y-57981443D01*
X148029563Y-57958834D01*
X148026144Y-57935779D01*
X148025000Y-57912500D01*
X148025000Y-57337500D01*
X148026144Y-57314221D01*
X148029563Y-57291166D01*
X148035227Y-57268557D01*
X148043079Y-57246613D01*
X148053044Y-57225543D01*
X148065026Y-57205552D01*
X148078910Y-57186832D01*
X148094562Y-57169562D01*
X148111832Y-57153910D01*
X148130552Y-57140026D01*
X148150543Y-57128044D01*
X148171613Y-57118079D01*
X148193557Y-57110227D01*
X148216166Y-57104563D01*
X148239221Y-57101144D01*
X148262500Y-57100000D01*
X148737500Y-57100000D01*
X148760779Y-57101144D01*
X148760779Y-57101144D01*
G37*
D16*
X148500000Y-57625000D03*
D13*
G36*
X148760779Y-55351144D02*
G01*
X148783834Y-55354563D01*
X148806443Y-55360227D01*
X148828387Y-55368079D01*
X148849457Y-55378044D01*
X148869448Y-55390026D01*
X148888168Y-55403910D01*
X148905438Y-55419562D01*
X148921090Y-55436832D01*
X148934974Y-55455552D01*
X148946956Y-55475543D01*
X148956921Y-55496613D01*
X148964773Y-55518557D01*
X148970437Y-55541166D01*
X148973856Y-55564221D01*
X148975000Y-55587500D01*
X148975000Y-56162500D01*
X148973856Y-56185779D01*
X148970437Y-56208834D01*
X148964773Y-56231443D01*
X148956921Y-56253387D01*
X148946956Y-56274457D01*
X148934974Y-56294448D01*
X148921090Y-56313168D01*
X148905438Y-56330438D01*
X148888168Y-56346090D01*
X148869448Y-56359974D01*
X148849457Y-56371956D01*
X148828387Y-56381921D01*
X148806443Y-56389773D01*
X148783834Y-56395437D01*
X148760779Y-56398856D01*
X148737500Y-56400000D01*
X148262500Y-56400000D01*
X148239221Y-56398856D01*
X148216166Y-56395437D01*
X148193557Y-56389773D01*
X148171613Y-56381921D01*
X148150543Y-56371956D01*
X148130552Y-56359974D01*
X148111832Y-56346090D01*
X148094562Y-56330438D01*
X148078910Y-56313168D01*
X148065026Y-56294448D01*
X148053044Y-56274457D01*
X148043079Y-56253387D01*
X148035227Y-56231443D01*
X148029563Y-56208834D01*
X148026144Y-56185779D01*
X148025000Y-56162500D01*
X148025000Y-55587500D01*
X148026144Y-55564221D01*
X148029563Y-55541166D01*
X148035227Y-55518557D01*
X148043079Y-55496613D01*
X148053044Y-55475543D01*
X148065026Y-55455552D01*
X148078910Y-55436832D01*
X148094562Y-55419562D01*
X148111832Y-55403910D01*
X148130552Y-55390026D01*
X148150543Y-55378044D01*
X148171613Y-55368079D01*
X148193557Y-55360227D01*
X148216166Y-55354563D01*
X148239221Y-55351144D01*
X148262500Y-55350000D01*
X148737500Y-55350000D01*
X148760779Y-55351144D01*
X148760779Y-55351144D01*
G37*
D16*
X148500000Y-55875000D03*
D13*
G36*
X146760779Y-57101144D02*
G01*
X146783834Y-57104563D01*
X146806443Y-57110227D01*
X146828387Y-57118079D01*
X146849457Y-57128044D01*
X146869448Y-57140026D01*
X146888168Y-57153910D01*
X146905438Y-57169562D01*
X146921090Y-57186832D01*
X146934974Y-57205552D01*
X146946956Y-57225543D01*
X146956921Y-57246613D01*
X146964773Y-57268557D01*
X146970437Y-57291166D01*
X146973856Y-57314221D01*
X146975000Y-57337500D01*
X146975000Y-57912500D01*
X146973856Y-57935779D01*
X146970437Y-57958834D01*
X146964773Y-57981443D01*
X146956921Y-58003387D01*
X146946956Y-58024457D01*
X146934974Y-58044448D01*
X146921090Y-58063168D01*
X146905438Y-58080438D01*
X146888168Y-58096090D01*
X146869448Y-58109974D01*
X146849457Y-58121956D01*
X146828387Y-58131921D01*
X146806443Y-58139773D01*
X146783834Y-58145437D01*
X146760779Y-58148856D01*
X146737500Y-58150000D01*
X146262500Y-58150000D01*
X146239221Y-58148856D01*
X146216166Y-58145437D01*
X146193557Y-58139773D01*
X146171613Y-58131921D01*
X146150543Y-58121956D01*
X146130552Y-58109974D01*
X146111832Y-58096090D01*
X146094562Y-58080438D01*
X146078910Y-58063168D01*
X146065026Y-58044448D01*
X146053044Y-58024457D01*
X146043079Y-58003387D01*
X146035227Y-57981443D01*
X146029563Y-57958834D01*
X146026144Y-57935779D01*
X146025000Y-57912500D01*
X146025000Y-57337500D01*
X146026144Y-57314221D01*
X146029563Y-57291166D01*
X146035227Y-57268557D01*
X146043079Y-57246613D01*
X146053044Y-57225543D01*
X146065026Y-57205552D01*
X146078910Y-57186832D01*
X146094562Y-57169562D01*
X146111832Y-57153910D01*
X146130552Y-57140026D01*
X146150543Y-57128044D01*
X146171613Y-57118079D01*
X146193557Y-57110227D01*
X146216166Y-57104563D01*
X146239221Y-57101144D01*
X146262500Y-57100000D01*
X146737500Y-57100000D01*
X146760779Y-57101144D01*
X146760779Y-57101144D01*
G37*
D16*
X146500000Y-57625000D03*
D13*
G36*
X146760779Y-55351144D02*
G01*
X146783834Y-55354563D01*
X146806443Y-55360227D01*
X146828387Y-55368079D01*
X146849457Y-55378044D01*
X146869448Y-55390026D01*
X146888168Y-55403910D01*
X146905438Y-55419562D01*
X146921090Y-55436832D01*
X146934974Y-55455552D01*
X146946956Y-55475543D01*
X146956921Y-55496613D01*
X146964773Y-55518557D01*
X146970437Y-55541166D01*
X146973856Y-55564221D01*
X146975000Y-55587500D01*
X146975000Y-56162500D01*
X146973856Y-56185779D01*
X146970437Y-56208834D01*
X146964773Y-56231443D01*
X146956921Y-56253387D01*
X146946956Y-56274457D01*
X146934974Y-56294448D01*
X146921090Y-56313168D01*
X146905438Y-56330438D01*
X146888168Y-56346090D01*
X146869448Y-56359974D01*
X146849457Y-56371956D01*
X146828387Y-56381921D01*
X146806443Y-56389773D01*
X146783834Y-56395437D01*
X146760779Y-56398856D01*
X146737500Y-56400000D01*
X146262500Y-56400000D01*
X146239221Y-56398856D01*
X146216166Y-56395437D01*
X146193557Y-56389773D01*
X146171613Y-56381921D01*
X146150543Y-56371956D01*
X146130552Y-56359974D01*
X146111832Y-56346090D01*
X146094562Y-56330438D01*
X146078910Y-56313168D01*
X146065026Y-56294448D01*
X146053044Y-56274457D01*
X146043079Y-56253387D01*
X146035227Y-56231443D01*
X146029563Y-56208834D01*
X146026144Y-56185779D01*
X146025000Y-56162500D01*
X146025000Y-55587500D01*
X146026144Y-55564221D01*
X146029563Y-55541166D01*
X146035227Y-55518557D01*
X146043079Y-55496613D01*
X146053044Y-55475543D01*
X146065026Y-55455552D01*
X146078910Y-55436832D01*
X146094562Y-55419562D01*
X146111832Y-55403910D01*
X146130552Y-55390026D01*
X146150543Y-55378044D01*
X146171613Y-55368079D01*
X146193557Y-55360227D01*
X146216166Y-55354563D01*
X146239221Y-55351144D01*
X146262500Y-55350000D01*
X146737500Y-55350000D01*
X146760779Y-55351144D01*
X146760779Y-55351144D01*
G37*
D16*
X146500000Y-55875000D03*
D13*
G36*
X145760779Y-53351144D02*
G01*
X145783834Y-53354563D01*
X145806443Y-53360227D01*
X145828387Y-53368079D01*
X145849457Y-53378044D01*
X145869448Y-53390026D01*
X145888168Y-53403910D01*
X145905438Y-53419562D01*
X145921090Y-53436832D01*
X145934974Y-53455552D01*
X145946956Y-53475543D01*
X145956921Y-53496613D01*
X145964773Y-53518557D01*
X145970437Y-53541166D01*
X145973856Y-53564221D01*
X145975000Y-53587500D01*
X145975000Y-54162500D01*
X145973856Y-54185779D01*
X145970437Y-54208834D01*
X145964773Y-54231443D01*
X145956921Y-54253387D01*
X145946956Y-54274457D01*
X145934974Y-54294448D01*
X145921090Y-54313168D01*
X145905438Y-54330438D01*
X145888168Y-54346090D01*
X145869448Y-54359974D01*
X145849457Y-54371956D01*
X145828387Y-54381921D01*
X145806443Y-54389773D01*
X145783834Y-54395437D01*
X145760779Y-54398856D01*
X145737500Y-54400000D01*
X145262500Y-54400000D01*
X145239221Y-54398856D01*
X145216166Y-54395437D01*
X145193557Y-54389773D01*
X145171613Y-54381921D01*
X145150543Y-54371956D01*
X145130552Y-54359974D01*
X145111832Y-54346090D01*
X145094562Y-54330438D01*
X145078910Y-54313168D01*
X145065026Y-54294448D01*
X145053044Y-54274457D01*
X145043079Y-54253387D01*
X145035227Y-54231443D01*
X145029563Y-54208834D01*
X145026144Y-54185779D01*
X145025000Y-54162500D01*
X145025000Y-53587500D01*
X145026144Y-53564221D01*
X145029563Y-53541166D01*
X145035227Y-53518557D01*
X145043079Y-53496613D01*
X145053044Y-53475543D01*
X145065026Y-53455552D01*
X145078910Y-53436832D01*
X145094562Y-53419562D01*
X145111832Y-53403910D01*
X145130552Y-53390026D01*
X145150543Y-53378044D01*
X145171613Y-53368079D01*
X145193557Y-53360227D01*
X145216166Y-53354563D01*
X145239221Y-53351144D01*
X145262500Y-53350000D01*
X145737500Y-53350000D01*
X145760779Y-53351144D01*
X145760779Y-53351144D01*
G37*
D16*
X145500000Y-53875000D03*
D13*
G36*
X145760779Y-51601144D02*
G01*
X145783834Y-51604563D01*
X145806443Y-51610227D01*
X145828387Y-51618079D01*
X145849457Y-51628044D01*
X145869448Y-51640026D01*
X145888168Y-51653910D01*
X145905438Y-51669562D01*
X145921090Y-51686832D01*
X145934974Y-51705552D01*
X145946956Y-51725543D01*
X145956921Y-51746613D01*
X145964773Y-51768557D01*
X145970437Y-51791166D01*
X145973856Y-51814221D01*
X145975000Y-51837500D01*
X145975000Y-52412500D01*
X145973856Y-52435779D01*
X145970437Y-52458834D01*
X145964773Y-52481443D01*
X145956921Y-52503387D01*
X145946956Y-52524457D01*
X145934974Y-52544448D01*
X145921090Y-52563168D01*
X145905438Y-52580438D01*
X145888168Y-52596090D01*
X145869448Y-52609974D01*
X145849457Y-52621956D01*
X145828387Y-52631921D01*
X145806443Y-52639773D01*
X145783834Y-52645437D01*
X145760779Y-52648856D01*
X145737500Y-52650000D01*
X145262500Y-52650000D01*
X145239221Y-52648856D01*
X145216166Y-52645437D01*
X145193557Y-52639773D01*
X145171613Y-52631921D01*
X145150543Y-52621956D01*
X145130552Y-52609974D01*
X145111832Y-52596090D01*
X145094562Y-52580438D01*
X145078910Y-52563168D01*
X145065026Y-52544448D01*
X145053044Y-52524457D01*
X145043079Y-52503387D01*
X145035227Y-52481443D01*
X145029563Y-52458834D01*
X145026144Y-52435779D01*
X145025000Y-52412500D01*
X145025000Y-51837500D01*
X145026144Y-51814221D01*
X145029563Y-51791166D01*
X145035227Y-51768557D01*
X145043079Y-51746613D01*
X145053044Y-51725543D01*
X145065026Y-51705552D01*
X145078910Y-51686832D01*
X145094562Y-51669562D01*
X145111832Y-51653910D01*
X145130552Y-51640026D01*
X145150543Y-51628044D01*
X145171613Y-51618079D01*
X145193557Y-51610227D01*
X145216166Y-51604563D01*
X145239221Y-51601144D01*
X145262500Y-51600000D01*
X145737500Y-51600000D01*
X145760779Y-51601144D01*
X145760779Y-51601144D01*
G37*
D16*
X145500000Y-52125000D03*
D13*
G36*
X144760779Y-57101144D02*
G01*
X144783834Y-57104563D01*
X144806443Y-57110227D01*
X144828387Y-57118079D01*
X144849457Y-57128044D01*
X144869448Y-57140026D01*
X144888168Y-57153910D01*
X144905438Y-57169562D01*
X144921090Y-57186832D01*
X144934974Y-57205552D01*
X144946956Y-57225543D01*
X144956921Y-57246613D01*
X144964773Y-57268557D01*
X144970437Y-57291166D01*
X144973856Y-57314221D01*
X144975000Y-57337500D01*
X144975000Y-57912500D01*
X144973856Y-57935779D01*
X144970437Y-57958834D01*
X144964773Y-57981443D01*
X144956921Y-58003387D01*
X144946956Y-58024457D01*
X144934974Y-58044448D01*
X144921090Y-58063168D01*
X144905438Y-58080438D01*
X144888168Y-58096090D01*
X144869448Y-58109974D01*
X144849457Y-58121956D01*
X144828387Y-58131921D01*
X144806443Y-58139773D01*
X144783834Y-58145437D01*
X144760779Y-58148856D01*
X144737500Y-58150000D01*
X144262500Y-58150000D01*
X144239221Y-58148856D01*
X144216166Y-58145437D01*
X144193557Y-58139773D01*
X144171613Y-58131921D01*
X144150543Y-58121956D01*
X144130552Y-58109974D01*
X144111832Y-58096090D01*
X144094562Y-58080438D01*
X144078910Y-58063168D01*
X144065026Y-58044448D01*
X144053044Y-58024457D01*
X144043079Y-58003387D01*
X144035227Y-57981443D01*
X144029563Y-57958834D01*
X144026144Y-57935779D01*
X144025000Y-57912500D01*
X144025000Y-57337500D01*
X144026144Y-57314221D01*
X144029563Y-57291166D01*
X144035227Y-57268557D01*
X144043079Y-57246613D01*
X144053044Y-57225543D01*
X144065026Y-57205552D01*
X144078910Y-57186832D01*
X144094562Y-57169562D01*
X144111832Y-57153910D01*
X144130552Y-57140026D01*
X144150543Y-57128044D01*
X144171613Y-57118079D01*
X144193557Y-57110227D01*
X144216166Y-57104563D01*
X144239221Y-57101144D01*
X144262500Y-57100000D01*
X144737500Y-57100000D01*
X144760779Y-57101144D01*
X144760779Y-57101144D01*
G37*
D16*
X144500000Y-57625000D03*
D13*
G36*
X144760779Y-55351144D02*
G01*
X144783834Y-55354563D01*
X144806443Y-55360227D01*
X144828387Y-55368079D01*
X144849457Y-55378044D01*
X144869448Y-55390026D01*
X144888168Y-55403910D01*
X144905438Y-55419562D01*
X144921090Y-55436832D01*
X144934974Y-55455552D01*
X144946956Y-55475543D01*
X144956921Y-55496613D01*
X144964773Y-55518557D01*
X144970437Y-55541166D01*
X144973856Y-55564221D01*
X144975000Y-55587500D01*
X144975000Y-56162500D01*
X144973856Y-56185779D01*
X144970437Y-56208834D01*
X144964773Y-56231443D01*
X144956921Y-56253387D01*
X144946956Y-56274457D01*
X144934974Y-56294448D01*
X144921090Y-56313168D01*
X144905438Y-56330438D01*
X144888168Y-56346090D01*
X144869448Y-56359974D01*
X144849457Y-56371956D01*
X144828387Y-56381921D01*
X144806443Y-56389773D01*
X144783834Y-56395437D01*
X144760779Y-56398856D01*
X144737500Y-56400000D01*
X144262500Y-56400000D01*
X144239221Y-56398856D01*
X144216166Y-56395437D01*
X144193557Y-56389773D01*
X144171613Y-56381921D01*
X144150543Y-56371956D01*
X144130552Y-56359974D01*
X144111832Y-56346090D01*
X144094562Y-56330438D01*
X144078910Y-56313168D01*
X144065026Y-56294448D01*
X144053044Y-56274457D01*
X144043079Y-56253387D01*
X144035227Y-56231443D01*
X144029563Y-56208834D01*
X144026144Y-56185779D01*
X144025000Y-56162500D01*
X144025000Y-55587500D01*
X144026144Y-55564221D01*
X144029563Y-55541166D01*
X144035227Y-55518557D01*
X144043079Y-55496613D01*
X144053044Y-55475543D01*
X144065026Y-55455552D01*
X144078910Y-55436832D01*
X144094562Y-55419562D01*
X144111832Y-55403910D01*
X144130552Y-55390026D01*
X144150543Y-55378044D01*
X144171613Y-55368079D01*
X144193557Y-55360227D01*
X144216166Y-55354563D01*
X144239221Y-55351144D01*
X144262500Y-55350000D01*
X144737500Y-55350000D01*
X144760779Y-55351144D01*
X144760779Y-55351144D01*
G37*
D16*
X144500000Y-55875000D03*
D13*
G36*
X142760779Y-57101144D02*
G01*
X142783834Y-57104563D01*
X142806443Y-57110227D01*
X142828387Y-57118079D01*
X142849457Y-57128044D01*
X142869448Y-57140026D01*
X142888168Y-57153910D01*
X142905438Y-57169562D01*
X142921090Y-57186832D01*
X142934974Y-57205552D01*
X142946956Y-57225543D01*
X142956921Y-57246613D01*
X142964773Y-57268557D01*
X142970437Y-57291166D01*
X142973856Y-57314221D01*
X142975000Y-57337500D01*
X142975000Y-57912500D01*
X142973856Y-57935779D01*
X142970437Y-57958834D01*
X142964773Y-57981443D01*
X142956921Y-58003387D01*
X142946956Y-58024457D01*
X142934974Y-58044448D01*
X142921090Y-58063168D01*
X142905438Y-58080438D01*
X142888168Y-58096090D01*
X142869448Y-58109974D01*
X142849457Y-58121956D01*
X142828387Y-58131921D01*
X142806443Y-58139773D01*
X142783834Y-58145437D01*
X142760779Y-58148856D01*
X142737500Y-58150000D01*
X142262500Y-58150000D01*
X142239221Y-58148856D01*
X142216166Y-58145437D01*
X142193557Y-58139773D01*
X142171613Y-58131921D01*
X142150543Y-58121956D01*
X142130552Y-58109974D01*
X142111832Y-58096090D01*
X142094562Y-58080438D01*
X142078910Y-58063168D01*
X142065026Y-58044448D01*
X142053044Y-58024457D01*
X142043079Y-58003387D01*
X142035227Y-57981443D01*
X142029563Y-57958834D01*
X142026144Y-57935779D01*
X142025000Y-57912500D01*
X142025000Y-57337500D01*
X142026144Y-57314221D01*
X142029563Y-57291166D01*
X142035227Y-57268557D01*
X142043079Y-57246613D01*
X142053044Y-57225543D01*
X142065026Y-57205552D01*
X142078910Y-57186832D01*
X142094562Y-57169562D01*
X142111832Y-57153910D01*
X142130552Y-57140026D01*
X142150543Y-57128044D01*
X142171613Y-57118079D01*
X142193557Y-57110227D01*
X142216166Y-57104563D01*
X142239221Y-57101144D01*
X142262500Y-57100000D01*
X142737500Y-57100000D01*
X142760779Y-57101144D01*
X142760779Y-57101144D01*
G37*
D16*
X142500000Y-57625000D03*
D13*
G36*
X142760779Y-55351144D02*
G01*
X142783834Y-55354563D01*
X142806443Y-55360227D01*
X142828387Y-55368079D01*
X142849457Y-55378044D01*
X142869448Y-55390026D01*
X142888168Y-55403910D01*
X142905438Y-55419562D01*
X142921090Y-55436832D01*
X142934974Y-55455552D01*
X142946956Y-55475543D01*
X142956921Y-55496613D01*
X142964773Y-55518557D01*
X142970437Y-55541166D01*
X142973856Y-55564221D01*
X142975000Y-55587500D01*
X142975000Y-56162500D01*
X142973856Y-56185779D01*
X142970437Y-56208834D01*
X142964773Y-56231443D01*
X142956921Y-56253387D01*
X142946956Y-56274457D01*
X142934974Y-56294448D01*
X142921090Y-56313168D01*
X142905438Y-56330438D01*
X142888168Y-56346090D01*
X142869448Y-56359974D01*
X142849457Y-56371956D01*
X142828387Y-56381921D01*
X142806443Y-56389773D01*
X142783834Y-56395437D01*
X142760779Y-56398856D01*
X142737500Y-56400000D01*
X142262500Y-56400000D01*
X142239221Y-56398856D01*
X142216166Y-56395437D01*
X142193557Y-56389773D01*
X142171613Y-56381921D01*
X142150543Y-56371956D01*
X142130552Y-56359974D01*
X142111832Y-56346090D01*
X142094562Y-56330438D01*
X142078910Y-56313168D01*
X142065026Y-56294448D01*
X142053044Y-56274457D01*
X142043079Y-56253387D01*
X142035227Y-56231443D01*
X142029563Y-56208834D01*
X142026144Y-56185779D01*
X142025000Y-56162500D01*
X142025000Y-55587500D01*
X142026144Y-55564221D01*
X142029563Y-55541166D01*
X142035227Y-55518557D01*
X142043079Y-55496613D01*
X142053044Y-55475543D01*
X142065026Y-55455552D01*
X142078910Y-55436832D01*
X142094562Y-55419562D01*
X142111832Y-55403910D01*
X142130552Y-55390026D01*
X142150543Y-55378044D01*
X142171613Y-55368079D01*
X142193557Y-55360227D01*
X142216166Y-55354563D01*
X142239221Y-55351144D01*
X142262500Y-55350000D01*
X142737500Y-55350000D01*
X142760779Y-55351144D01*
X142760779Y-55351144D01*
G37*
D16*
X142500000Y-55875000D03*
D13*
G36*
X141760779Y-53351144D02*
G01*
X141783834Y-53354563D01*
X141806443Y-53360227D01*
X141828387Y-53368079D01*
X141849457Y-53378044D01*
X141869448Y-53390026D01*
X141888168Y-53403910D01*
X141905438Y-53419562D01*
X141921090Y-53436832D01*
X141934974Y-53455552D01*
X141946956Y-53475543D01*
X141956921Y-53496613D01*
X141964773Y-53518557D01*
X141970437Y-53541166D01*
X141973856Y-53564221D01*
X141975000Y-53587500D01*
X141975000Y-54162500D01*
X141973856Y-54185779D01*
X141970437Y-54208834D01*
X141964773Y-54231443D01*
X141956921Y-54253387D01*
X141946956Y-54274457D01*
X141934974Y-54294448D01*
X141921090Y-54313168D01*
X141905438Y-54330438D01*
X141888168Y-54346090D01*
X141869448Y-54359974D01*
X141849457Y-54371956D01*
X141828387Y-54381921D01*
X141806443Y-54389773D01*
X141783834Y-54395437D01*
X141760779Y-54398856D01*
X141737500Y-54400000D01*
X141262500Y-54400000D01*
X141239221Y-54398856D01*
X141216166Y-54395437D01*
X141193557Y-54389773D01*
X141171613Y-54381921D01*
X141150543Y-54371956D01*
X141130552Y-54359974D01*
X141111832Y-54346090D01*
X141094562Y-54330438D01*
X141078910Y-54313168D01*
X141065026Y-54294448D01*
X141053044Y-54274457D01*
X141043079Y-54253387D01*
X141035227Y-54231443D01*
X141029563Y-54208834D01*
X141026144Y-54185779D01*
X141025000Y-54162500D01*
X141025000Y-53587500D01*
X141026144Y-53564221D01*
X141029563Y-53541166D01*
X141035227Y-53518557D01*
X141043079Y-53496613D01*
X141053044Y-53475543D01*
X141065026Y-53455552D01*
X141078910Y-53436832D01*
X141094562Y-53419562D01*
X141111832Y-53403910D01*
X141130552Y-53390026D01*
X141150543Y-53378044D01*
X141171613Y-53368079D01*
X141193557Y-53360227D01*
X141216166Y-53354563D01*
X141239221Y-53351144D01*
X141262500Y-53350000D01*
X141737500Y-53350000D01*
X141760779Y-53351144D01*
X141760779Y-53351144D01*
G37*
D16*
X141500000Y-53875000D03*
D13*
G36*
X141760779Y-51601144D02*
G01*
X141783834Y-51604563D01*
X141806443Y-51610227D01*
X141828387Y-51618079D01*
X141849457Y-51628044D01*
X141869448Y-51640026D01*
X141888168Y-51653910D01*
X141905438Y-51669562D01*
X141921090Y-51686832D01*
X141934974Y-51705552D01*
X141946956Y-51725543D01*
X141956921Y-51746613D01*
X141964773Y-51768557D01*
X141970437Y-51791166D01*
X141973856Y-51814221D01*
X141975000Y-51837500D01*
X141975000Y-52412500D01*
X141973856Y-52435779D01*
X141970437Y-52458834D01*
X141964773Y-52481443D01*
X141956921Y-52503387D01*
X141946956Y-52524457D01*
X141934974Y-52544448D01*
X141921090Y-52563168D01*
X141905438Y-52580438D01*
X141888168Y-52596090D01*
X141869448Y-52609974D01*
X141849457Y-52621956D01*
X141828387Y-52631921D01*
X141806443Y-52639773D01*
X141783834Y-52645437D01*
X141760779Y-52648856D01*
X141737500Y-52650000D01*
X141262500Y-52650000D01*
X141239221Y-52648856D01*
X141216166Y-52645437D01*
X141193557Y-52639773D01*
X141171613Y-52631921D01*
X141150543Y-52621956D01*
X141130552Y-52609974D01*
X141111832Y-52596090D01*
X141094562Y-52580438D01*
X141078910Y-52563168D01*
X141065026Y-52544448D01*
X141053044Y-52524457D01*
X141043079Y-52503387D01*
X141035227Y-52481443D01*
X141029563Y-52458834D01*
X141026144Y-52435779D01*
X141025000Y-52412500D01*
X141025000Y-51837500D01*
X141026144Y-51814221D01*
X141029563Y-51791166D01*
X141035227Y-51768557D01*
X141043079Y-51746613D01*
X141053044Y-51725543D01*
X141065026Y-51705552D01*
X141078910Y-51686832D01*
X141094562Y-51669562D01*
X141111832Y-51653910D01*
X141130552Y-51640026D01*
X141150543Y-51628044D01*
X141171613Y-51618079D01*
X141193557Y-51610227D01*
X141216166Y-51604563D01*
X141239221Y-51601144D01*
X141262500Y-51600000D01*
X141737500Y-51600000D01*
X141760779Y-51601144D01*
X141760779Y-51601144D01*
G37*
D16*
X141500000Y-52125000D03*
D13*
G36*
X140760779Y-57101144D02*
G01*
X140783834Y-57104563D01*
X140806443Y-57110227D01*
X140828387Y-57118079D01*
X140849457Y-57128044D01*
X140869448Y-57140026D01*
X140888168Y-57153910D01*
X140905438Y-57169562D01*
X140921090Y-57186832D01*
X140934974Y-57205552D01*
X140946956Y-57225543D01*
X140956921Y-57246613D01*
X140964773Y-57268557D01*
X140970437Y-57291166D01*
X140973856Y-57314221D01*
X140975000Y-57337500D01*
X140975000Y-57912500D01*
X140973856Y-57935779D01*
X140970437Y-57958834D01*
X140964773Y-57981443D01*
X140956921Y-58003387D01*
X140946956Y-58024457D01*
X140934974Y-58044448D01*
X140921090Y-58063168D01*
X140905438Y-58080438D01*
X140888168Y-58096090D01*
X140869448Y-58109974D01*
X140849457Y-58121956D01*
X140828387Y-58131921D01*
X140806443Y-58139773D01*
X140783834Y-58145437D01*
X140760779Y-58148856D01*
X140737500Y-58150000D01*
X140262500Y-58150000D01*
X140239221Y-58148856D01*
X140216166Y-58145437D01*
X140193557Y-58139773D01*
X140171613Y-58131921D01*
X140150543Y-58121956D01*
X140130552Y-58109974D01*
X140111832Y-58096090D01*
X140094562Y-58080438D01*
X140078910Y-58063168D01*
X140065026Y-58044448D01*
X140053044Y-58024457D01*
X140043079Y-58003387D01*
X140035227Y-57981443D01*
X140029563Y-57958834D01*
X140026144Y-57935779D01*
X140025000Y-57912500D01*
X140025000Y-57337500D01*
X140026144Y-57314221D01*
X140029563Y-57291166D01*
X140035227Y-57268557D01*
X140043079Y-57246613D01*
X140053044Y-57225543D01*
X140065026Y-57205552D01*
X140078910Y-57186832D01*
X140094562Y-57169562D01*
X140111832Y-57153910D01*
X140130552Y-57140026D01*
X140150543Y-57128044D01*
X140171613Y-57118079D01*
X140193557Y-57110227D01*
X140216166Y-57104563D01*
X140239221Y-57101144D01*
X140262500Y-57100000D01*
X140737500Y-57100000D01*
X140760779Y-57101144D01*
X140760779Y-57101144D01*
G37*
D16*
X140500000Y-57625000D03*
D13*
G36*
X140760779Y-55351144D02*
G01*
X140783834Y-55354563D01*
X140806443Y-55360227D01*
X140828387Y-55368079D01*
X140849457Y-55378044D01*
X140869448Y-55390026D01*
X140888168Y-55403910D01*
X140905438Y-55419562D01*
X140921090Y-55436832D01*
X140934974Y-55455552D01*
X140946956Y-55475543D01*
X140956921Y-55496613D01*
X140964773Y-55518557D01*
X140970437Y-55541166D01*
X140973856Y-55564221D01*
X140975000Y-55587500D01*
X140975000Y-56162500D01*
X140973856Y-56185779D01*
X140970437Y-56208834D01*
X140964773Y-56231443D01*
X140956921Y-56253387D01*
X140946956Y-56274457D01*
X140934974Y-56294448D01*
X140921090Y-56313168D01*
X140905438Y-56330438D01*
X140888168Y-56346090D01*
X140869448Y-56359974D01*
X140849457Y-56371956D01*
X140828387Y-56381921D01*
X140806443Y-56389773D01*
X140783834Y-56395437D01*
X140760779Y-56398856D01*
X140737500Y-56400000D01*
X140262500Y-56400000D01*
X140239221Y-56398856D01*
X140216166Y-56395437D01*
X140193557Y-56389773D01*
X140171613Y-56381921D01*
X140150543Y-56371956D01*
X140130552Y-56359974D01*
X140111832Y-56346090D01*
X140094562Y-56330438D01*
X140078910Y-56313168D01*
X140065026Y-56294448D01*
X140053044Y-56274457D01*
X140043079Y-56253387D01*
X140035227Y-56231443D01*
X140029563Y-56208834D01*
X140026144Y-56185779D01*
X140025000Y-56162500D01*
X140025000Y-55587500D01*
X140026144Y-55564221D01*
X140029563Y-55541166D01*
X140035227Y-55518557D01*
X140043079Y-55496613D01*
X140053044Y-55475543D01*
X140065026Y-55455552D01*
X140078910Y-55436832D01*
X140094562Y-55419562D01*
X140111832Y-55403910D01*
X140130552Y-55390026D01*
X140150543Y-55378044D01*
X140171613Y-55368079D01*
X140193557Y-55360227D01*
X140216166Y-55354563D01*
X140239221Y-55351144D01*
X140262500Y-55350000D01*
X140737500Y-55350000D01*
X140760779Y-55351144D01*
X140760779Y-55351144D01*
G37*
D16*
X140500000Y-55875000D03*
D13*
G36*
X138760779Y-57101144D02*
G01*
X138783834Y-57104563D01*
X138806443Y-57110227D01*
X138828387Y-57118079D01*
X138849457Y-57128044D01*
X138869448Y-57140026D01*
X138888168Y-57153910D01*
X138905438Y-57169562D01*
X138921090Y-57186832D01*
X138934974Y-57205552D01*
X138946956Y-57225543D01*
X138956921Y-57246613D01*
X138964773Y-57268557D01*
X138970437Y-57291166D01*
X138973856Y-57314221D01*
X138975000Y-57337500D01*
X138975000Y-57912500D01*
X138973856Y-57935779D01*
X138970437Y-57958834D01*
X138964773Y-57981443D01*
X138956921Y-58003387D01*
X138946956Y-58024457D01*
X138934974Y-58044448D01*
X138921090Y-58063168D01*
X138905438Y-58080438D01*
X138888168Y-58096090D01*
X138869448Y-58109974D01*
X138849457Y-58121956D01*
X138828387Y-58131921D01*
X138806443Y-58139773D01*
X138783834Y-58145437D01*
X138760779Y-58148856D01*
X138737500Y-58150000D01*
X138262500Y-58150000D01*
X138239221Y-58148856D01*
X138216166Y-58145437D01*
X138193557Y-58139773D01*
X138171613Y-58131921D01*
X138150543Y-58121956D01*
X138130552Y-58109974D01*
X138111832Y-58096090D01*
X138094562Y-58080438D01*
X138078910Y-58063168D01*
X138065026Y-58044448D01*
X138053044Y-58024457D01*
X138043079Y-58003387D01*
X138035227Y-57981443D01*
X138029563Y-57958834D01*
X138026144Y-57935779D01*
X138025000Y-57912500D01*
X138025000Y-57337500D01*
X138026144Y-57314221D01*
X138029563Y-57291166D01*
X138035227Y-57268557D01*
X138043079Y-57246613D01*
X138053044Y-57225543D01*
X138065026Y-57205552D01*
X138078910Y-57186832D01*
X138094562Y-57169562D01*
X138111832Y-57153910D01*
X138130552Y-57140026D01*
X138150543Y-57128044D01*
X138171613Y-57118079D01*
X138193557Y-57110227D01*
X138216166Y-57104563D01*
X138239221Y-57101144D01*
X138262500Y-57100000D01*
X138737500Y-57100000D01*
X138760779Y-57101144D01*
X138760779Y-57101144D01*
G37*
D16*
X138500000Y-57625000D03*
D13*
G36*
X138760779Y-55351144D02*
G01*
X138783834Y-55354563D01*
X138806443Y-55360227D01*
X138828387Y-55368079D01*
X138849457Y-55378044D01*
X138869448Y-55390026D01*
X138888168Y-55403910D01*
X138905438Y-55419562D01*
X138921090Y-55436832D01*
X138934974Y-55455552D01*
X138946956Y-55475543D01*
X138956921Y-55496613D01*
X138964773Y-55518557D01*
X138970437Y-55541166D01*
X138973856Y-55564221D01*
X138975000Y-55587500D01*
X138975000Y-56162500D01*
X138973856Y-56185779D01*
X138970437Y-56208834D01*
X138964773Y-56231443D01*
X138956921Y-56253387D01*
X138946956Y-56274457D01*
X138934974Y-56294448D01*
X138921090Y-56313168D01*
X138905438Y-56330438D01*
X138888168Y-56346090D01*
X138869448Y-56359974D01*
X138849457Y-56371956D01*
X138828387Y-56381921D01*
X138806443Y-56389773D01*
X138783834Y-56395437D01*
X138760779Y-56398856D01*
X138737500Y-56400000D01*
X138262500Y-56400000D01*
X138239221Y-56398856D01*
X138216166Y-56395437D01*
X138193557Y-56389773D01*
X138171613Y-56381921D01*
X138150543Y-56371956D01*
X138130552Y-56359974D01*
X138111832Y-56346090D01*
X138094562Y-56330438D01*
X138078910Y-56313168D01*
X138065026Y-56294448D01*
X138053044Y-56274457D01*
X138043079Y-56253387D01*
X138035227Y-56231443D01*
X138029563Y-56208834D01*
X138026144Y-56185779D01*
X138025000Y-56162500D01*
X138025000Y-55587500D01*
X138026144Y-55564221D01*
X138029563Y-55541166D01*
X138035227Y-55518557D01*
X138043079Y-55496613D01*
X138053044Y-55475543D01*
X138065026Y-55455552D01*
X138078910Y-55436832D01*
X138094562Y-55419562D01*
X138111832Y-55403910D01*
X138130552Y-55390026D01*
X138150543Y-55378044D01*
X138171613Y-55368079D01*
X138193557Y-55360227D01*
X138216166Y-55354563D01*
X138239221Y-55351144D01*
X138262500Y-55350000D01*
X138737500Y-55350000D01*
X138760779Y-55351144D01*
X138760779Y-55351144D01*
G37*
D16*
X138500000Y-55875000D03*
D13*
G36*
X137760779Y-53351144D02*
G01*
X137783834Y-53354563D01*
X137806443Y-53360227D01*
X137828387Y-53368079D01*
X137849457Y-53378044D01*
X137869448Y-53390026D01*
X137888168Y-53403910D01*
X137905438Y-53419562D01*
X137921090Y-53436832D01*
X137934974Y-53455552D01*
X137946956Y-53475543D01*
X137956921Y-53496613D01*
X137964773Y-53518557D01*
X137970437Y-53541166D01*
X137973856Y-53564221D01*
X137975000Y-53587500D01*
X137975000Y-54162500D01*
X137973856Y-54185779D01*
X137970437Y-54208834D01*
X137964773Y-54231443D01*
X137956921Y-54253387D01*
X137946956Y-54274457D01*
X137934974Y-54294448D01*
X137921090Y-54313168D01*
X137905438Y-54330438D01*
X137888168Y-54346090D01*
X137869448Y-54359974D01*
X137849457Y-54371956D01*
X137828387Y-54381921D01*
X137806443Y-54389773D01*
X137783834Y-54395437D01*
X137760779Y-54398856D01*
X137737500Y-54400000D01*
X137262500Y-54400000D01*
X137239221Y-54398856D01*
X137216166Y-54395437D01*
X137193557Y-54389773D01*
X137171613Y-54381921D01*
X137150543Y-54371956D01*
X137130552Y-54359974D01*
X137111832Y-54346090D01*
X137094562Y-54330438D01*
X137078910Y-54313168D01*
X137065026Y-54294448D01*
X137053044Y-54274457D01*
X137043079Y-54253387D01*
X137035227Y-54231443D01*
X137029563Y-54208834D01*
X137026144Y-54185779D01*
X137025000Y-54162500D01*
X137025000Y-53587500D01*
X137026144Y-53564221D01*
X137029563Y-53541166D01*
X137035227Y-53518557D01*
X137043079Y-53496613D01*
X137053044Y-53475543D01*
X137065026Y-53455552D01*
X137078910Y-53436832D01*
X137094562Y-53419562D01*
X137111832Y-53403910D01*
X137130552Y-53390026D01*
X137150543Y-53378044D01*
X137171613Y-53368079D01*
X137193557Y-53360227D01*
X137216166Y-53354563D01*
X137239221Y-53351144D01*
X137262500Y-53350000D01*
X137737500Y-53350000D01*
X137760779Y-53351144D01*
X137760779Y-53351144D01*
G37*
D16*
X137500000Y-53875000D03*
D13*
G36*
X137760779Y-51601144D02*
G01*
X137783834Y-51604563D01*
X137806443Y-51610227D01*
X137828387Y-51618079D01*
X137849457Y-51628044D01*
X137869448Y-51640026D01*
X137888168Y-51653910D01*
X137905438Y-51669562D01*
X137921090Y-51686832D01*
X137934974Y-51705552D01*
X137946956Y-51725543D01*
X137956921Y-51746613D01*
X137964773Y-51768557D01*
X137970437Y-51791166D01*
X137973856Y-51814221D01*
X137975000Y-51837500D01*
X137975000Y-52412500D01*
X137973856Y-52435779D01*
X137970437Y-52458834D01*
X137964773Y-52481443D01*
X137956921Y-52503387D01*
X137946956Y-52524457D01*
X137934974Y-52544448D01*
X137921090Y-52563168D01*
X137905438Y-52580438D01*
X137888168Y-52596090D01*
X137869448Y-52609974D01*
X137849457Y-52621956D01*
X137828387Y-52631921D01*
X137806443Y-52639773D01*
X137783834Y-52645437D01*
X137760779Y-52648856D01*
X137737500Y-52650000D01*
X137262500Y-52650000D01*
X137239221Y-52648856D01*
X137216166Y-52645437D01*
X137193557Y-52639773D01*
X137171613Y-52631921D01*
X137150543Y-52621956D01*
X137130552Y-52609974D01*
X137111832Y-52596090D01*
X137094562Y-52580438D01*
X137078910Y-52563168D01*
X137065026Y-52544448D01*
X137053044Y-52524457D01*
X137043079Y-52503387D01*
X137035227Y-52481443D01*
X137029563Y-52458834D01*
X137026144Y-52435779D01*
X137025000Y-52412500D01*
X137025000Y-51837500D01*
X137026144Y-51814221D01*
X137029563Y-51791166D01*
X137035227Y-51768557D01*
X137043079Y-51746613D01*
X137053044Y-51725543D01*
X137065026Y-51705552D01*
X137078910Y-51686832D01*
X137094562Y-51669562D01*
X137111832Y-51653910D01*
X137130552Y-51640026D01*
X137150543Y-51628044D01*
X137171613Y-51618079D01*
X137193557Y-51610227D01*
X137216166Y-51604563D01*
X137239221Y-51601144D01*
X137262500Y-51600000D01*
X137737500Y-51600000D01*
X137760779Y-51601144D01*
X137760779Y-51601144D01*
G37*
D16*
X137500000Y-52125000D03*
D13*
G36*
X136760779Y-57101144D02*
G01*
X136783834Y-57104563D01*
X136806443Y-57110227D01*
X136828387Y-57118079D01*
X136849457Y-57128044D01*
X136869448Y-57140026D01*
X136888168Y-57153910D01*
X136905438Y-57169562D01*
X136921090Y-57186832D01*
X136934974Y-57205552D01*
X136946956Y-57225543D01*
X136956921Y-57246613D01*
X136964773Y-57268557D01*
X136970437Y-57291166D01*
X136973856Y-57314221D01*
X136975000Y-57337500D01*
X136975000Y-57912500D01*
X136973856Y-57935779D01*
X136970437Y-57958834D01*
X136964773Y-57981443D01*
X136956921Y-58003387D01*
X136946956Y-58024457D01*
X136934974Y-58044448D01*
X136921090Y-58063168D01*
X136905438Y-58080438D01*
X136888168Y-58096090D01*
X136869448Y-58109974D01*
X136849457Y-58121956D01*
X136828387Y-58131921D01*
X136806443Y-58139773D01*
X136783834Y-58145437D01*
X136760779Y-58148856D01*
X136737500Y-58150000D01*
X136262500Y-58150000D01*
X136239221Y-58148856D01*
X136216166Y-58145437D01*
X136193557Y-58139773D01*
X136171613Y-58131921D01*
X136150543Y-58121956D01*
X136130552Y-58109974D01*
X136111832Y-58096090D01*
X136094562Y-58080438D01*
X136078910Y-58063168D01*
X136065026Y-58044448D01*
X136053044Y-58024457D01*
X136043079Y-58003387D01*
X136035227Y-57981443D01*
X136029563Y-57958834D01*
X136026144Y-57935779D01*
X136025000Y-57912500D01*
X136025000Y-57337500D01*
X136026144Y-57314221D01*
X136029563Y-57291166D01*
X136035227Y-57268557D01*
X136043079Y-57246613D01*
X136053044Y-57225543D01*
X136065026Y-57205552D01*
X136078910Y-57186832D01*
X136094562Y-57169562D01*
X136111832Y-57153910D01*
X136130552Y-57140026D01*
X136150543Y-57128044D01*
X136171613Y-57118079D01*
X136193557Y-57110227D01*
X136216166Y-57104563D01*
X136239221Y-57101144D01*
X136262500Y-57100000D01*
X136737500Y-57100000D01*
X136760779Y-57101144D01*
X136760779Y-57101144D01*
G37*
D16*
X136500000Y-57625000D03*
D13*
G36*
X136760779Y-55351144D02*
G01*
X136783834Y-55354563D01*
X136806443Y-55360227D01*
X136828387Y-55368079D01*
X136849457Y-55378044D01*
X136869448Y-55390026D01*
X136888168Y-55403910D01*
X136905438Y-55419562D01*
X136921090Y-55436832D01*
X136934974Y-55455552D01*
X136946956Y-55475543D01*
X136956921Y-55496613D01*
X136964773Y-55518557D01*
X136970437Y-55541166D01*
X136973856Y-55564221D01*
X136975000Y-55587500D01*
X136975000Y-56162500D01*
X136973856Y-56185779D01*
X136970437Y-56208834D01*
X136964773Y-56231443D01*
X136956921Y-56253387D01*
X136946956Y-56274457D01*
X136934974Y-56294448D01*
X136921090Y-56313168D01*
X136905438Y-56330438D01*
X136888168Y-56346090D01*
X136869448Y-56359974D01*
X136849457Y-56371956D01*
X136828387Y-56381921D01*
X136806443Y-56389773D01*
X136783834Y-56395437D01*
X136760779Y-56398856D01*
X136737500Y-56400000D01*
X136262500Y-56400000D01*
X136239221Y-56398856D01*
X136216166Y-56395437D01*
X136193557Y-56389773D01*
X136171613Y-56381921D01*
X136150543Y-56371956D01*
X136130552Y-56359974D01*
X136111832Y-56346090D01*
X136094562Y-56330438D01*
X136078910Y-56313168D01*
X136065026Y-56294448D01*
X136053044Y-56274457D01*
X136043079Y-56253387D01*
X136035227Y-56231443D01*
X136029563Y-56208834D01*
X136026144Y-56185779D01*
X136025000Y-56162500D01*
X136025000Y-55587500D01*
X136026144Y-55564221D01*
X136029563Y-55541166D01*
X136035227Y-55518557D01*
X136043079Y-55496613D01*
X136053044Y-55475543D01*
X136065026Y-55455552D01*
X136078910Y-55436832D01*
X136094562Y-55419562D01*
X136111832Y-55403910D01*
X136130552Y-55390026D01*
X136150543Y-55378044D01*
X136171613Y-55368079D01*
X136193557Y-55360227D01*
X136216166Y-55354563D01*
X136239221Y-55351144D01*
X136262500Y-55350000D01*
X136737500Y-55350000D01*
X136760779Y-55351144D01*
X136760779Y-55351144D01*
G37*
D16*
X136500000Y-55875000D03*
D13*
G36*
X134760779Y-57101144D02*
G01*
X134783834Y-57104563D01*
X134806443Y-57110227D01*
X134828387Y-57118079D01*
X134849457Y-57128044D01*
X134869448Y-57140026D01*
X134888168Y-57153910D01*
X134905438Y-57169562D01*
X134921090Y-57186832D01*
X134934974Y-57205552D01*
X134946956Y-57225543D01*
X134956921Y-57246613D01*
X134964773Y-57268557D01*
X134970437Y-57291166D01*
X134973856Y-57314221D01*
X134975000Y-57337500D01*
X134975000Y-57912500D01*
X134973856Y-57935779D01*
X134970437Y-57958834D01*
X134964773Y-57981443D01*
X134956921Y-58003387D01*
X134946956Y-58024457D01*
X134934974Y-58044448D01*
X134921090Y-58063168D01*
X134905438Y-58080438D01*
X134888168Y-58096090D01*
X134869448Y-58109974D01*
X134849457Y-58121956D01*
X134828387Y-58131921D01*
X134806443Y-58139773D01*
X134783834Y-58145437D01*
X134760779Y-58148856D01*
X134737500Y-58150000D01*
X134262500Y-58150000D01*
X134239221Y-58148856D01*
X134216166Y-58145437D01*
X134193557Y-58139773D01*
X134171613Y-58131921D01*
X134150543Y-58121956D01*
X134130552Y-58109974D01*
X134111832Y-58096090D01*
X134094562Y-58080438D01*
X134078910Y-58063168D01*
X134065026Y-58044448D01*
X134053044Y-58024457D01*
X134043079Y-58003387D01*
X134035227Y-57981443D01*
X134029563Y-57958834D01*
X134026144Y-57935779D01*
X134025000Y-57912500D01*
X134025000Y-57337500D01*
X134026144Y-57314221D01*
X134029563Y-57291166D01*
X134035227Y-57268557D01*
X134043079Y-57246613D01*
X134053044Y-57225543D01*
X134065026Y-57205552D01*
X134078910Y-57186832D01*
X134094562Y-57169562D01*
X134111832Y-57153910D01*
X134130552Y-57140026D01*
X134150543Y-57128044D01*
X134171613Y-57118079D01*
X134193557Y-57110227D01*
X134216166Y-57104563D01*
X134239221Y-57101144D01*
X134262500Y-57100000D01*
X134737500Y-57100000D01*
X134760779Y-57101144D01*
X134760779Y-57101144D01*
G37*
D16*
X134500000Y-57625000D03*
D13*
G36*
X134760779Y-55351144D02*
G01*
X134783834Y-55354563D01*
X134806443Y-55360227D01*
X134828387Y-55368079D01*
X134849457Y-55378044D01*
X134869448Y-55390026D01*
X134888168Y-55403910D01*
X134905438Y-55419562D01*
X134921090Y-55436832D01*
X134934974Y-55455552D01*
X134946956Y-55475543D01*
X134956921Y-55496613D01*
X134964773Y-55518557D01*
X134970437Y-55541166D01*
X134973856Y-55564221D01*
X134975000Y-55587500D01*
X134975000Y-56162500D01*
X134973856Y-56185779D01*
X134970437Y-56208834D01*
X134964773Y-56231443D01*
X134956921Y-56253387D01*
X134946956Y-56274457D01*
X134934974Y-56294448D01*
X134921090Y-56313168D01*
X134905438Y-56330438D01*
X134888168Y-56346090D01*
X134869448Y-56359974D01*
X134849457Y-56371956D01*
X134828387Y-56381921D01*
X134806443Y-56389773D01*
X134783834Y-56395437D01*
X134760779Y-56398856D01*
X134737500Y-56400000D01*
X134262500Y-56400000D01*
X134239221Y-56398856D01*
X134216166Y-56395437D01*
X134193557Y-56389773D01*
X134171613Y-56381921D01*
X134150543Y-56371956D01*
X134130552Y-56359974D01*
X134111832Y-56346090D01*
X134094562Y-56330438D01*
X134078910Y-56313168D01*
X134065026Y-56294448D01*
X134053044Y-56274457D01*
X134043079Y-56253387D01*
X134035227Y-56231443D01*
X134029563Y-56208834D01*
X134026144Y-56185779D01*
X134025000Y-56162500D01*
X134025000Y-55587500D01*
X134026144Y-55564221D01*
X134029563Y-55541166D01*
X134035227Y-55518557D01*
X134043079Y-55496613D01*
X134053044Y-55475543D01*
X134065026Y-55455552D01*
X134078910Y-55436832D01*
X134094562Y-55419562D01*
X134111832Y-55403910D01*
X134130552Y-55390026D01*
X134150543Y-55378044D01*
X134171613Y-55368079D01*
X134193557Y-55360227D01*
X134216166Y-55354563D01*
X134239221Y-55351144D01*
X134262500Y-55350000D01*
X134737500Y-55350000D01*
X134760779Y-55351144D01*
X134760779Y-55351144D01*
G37*
D16*
X134500000Y-55875000D03*
D13*
G36*
X133760779Y-53351144D02*
G01*
X133783834Y-53354563D01*
X133806443Y-53360227D01*
X133828387Y-53368079D01*
X133849457Y-53378044D01*
X133869448Y-53390026D01*
X133888168Y-53403910D01*
X133905438Y-53419562D01*
X133921090Y-53436832D01*
X133934974Y-53455552D01*
X133946956Y-53475543D01*
X133956921Y-53496613D01*
X133964773Y-53518557D01*
X133970437Y-53541166D01*
X133973856Y-53564221D01*
X133975000Y-53587500D01*
X133975000Y-54162500D01*
X133973856Y-54185779D01*
X133970437Y-54208834D01*
X133964773Y-54231443D01*
X133956921Y-54253387D01*
X133946956Y-54274457D01*
X133934974Y-54294448D01*
X133921090Y-54313168D01*
X133905438Y-54330438D01*
X133888168Y-54346090D01*
X133869448Y-54359974D01*
X133849457Y-54371956D01*
X133828387Y-54381921D01*
X133806443Y-54389773D01*
X133783834Y-54395437D01*
X133760779Y-54398856D01*
X133737500Y-54400000D01*
X133262500Y-54400000D01*
X133239221Y-54398856D01*
X133216166Y-54395437D01*
X133193557Y-54389773D01*
X133171613Y-54381921D01*
X133150543Y-54371956D01*
X133130552Y-54359974D01*
X133111832Y-54346090D01*
X133094562Y-54330438D01*
X133078910Y-54313168D01*
X133065026Y-54294448D01*
X133053044Y-54274457D01*
X133043079Y-54253387D01*
X133035227Y-54231443D01*
X133029563Y-54208834D01*
X133026144Y-54185779D01*
X133025000Y-54162500D01*
X133025000Y-53587500D01*
X133026144Y-53564221D01*
X133029563Y-53541166D01*
X133035227Y-53518557D01*
X133043079Y-53496613D01*
X133053044Y-53475543D01*
X133065026Y-53455552D01*
X133078910Y-53436832D01*
X133094562Y-53419562D01*
X133111832Y-53403910D01*
X133130552Y-53390026D01*
X133150543Y-53378044D01*
X133171613Y-53368079D01*
X133193557Y-53360227D01*
X133216166Y-53354563D01*
X133239221Y-53351144D01*
X133262500Y-53350000D01*
X133737500Y-53350000D01*
X133760779Y-53351144D01*
X133760779Y-53351144D01*
G37*
D16*
X133500000Y-53875000D03*
D13*
G36*
X133760779Y-51601144D02*
G01*
X133783834Y-51604563D01*
X133806443Y-51610227D01*
X133828387Y-51618079D01*
X133849457Y-51628044D01*
X133869448Y-51640026D01*
X133888168Y-51653910D01*
X133905438Y-51669562D01*
X133921090Y-51686832D01*
X133934974Y-51705552D01*
X133946956Y-51725543D01*
X133956921Y-51746613D01*
X133964773Y-51768557D01*
X133970437Y-51791166D01*
X133973856Y-51814221D01*
X133975000Y-51837500D01*
X133975000Y-52412500D01*
X133973856Y-52435779D01*
X133970437Y-52458834D01*
X133964773Y-52481443D01*
X133956921Y-52503387D01*
X133946956Y-52524457D01*
X133934974Y-52544448D01*
X133921090Y-52563168D01*
X133905438Y-52580438D01*
X133888168Y-52596090D01*
X133869448Y-52609974D01*
X133849457Y-52621956D01*
X133828387Y-52631921D01*
X133806443Y-52639773D01*
X133783834Y-52645437D01*
X133760779Y-52648856D01*
X133737500Y-52650000D01*
X133262500Y-52650000D01*
X133239221Y-52648856D01*
X133216166Y-52645437D01*
X133193557Y-52639773D01*
X133171613Y-52631921D01*
X133150543Y-52621956D01*
X133130552Y-52609974D01*
X133111832Y-52596090D01*
X133094562Y-52580438D01*
X133078910Y-52563168D01*
X133065026Y-52544448D01*
X133053044Y-52524457D01*
X133043079Y-52503387D01*
X133035227Y-52481443D01*
X133029563Y-52458834D01*
X133026144Y-52435779D01*
X133025000Y-52412500D01*
X133025000Y-51837500D01*
X133026144Y-51814221D01*
X133029563Y-51791166D01*
X133035227Y-51768557D01*
X133043079Y-51746613D01*
X133053044Y-51725543D01*
X133065026Y-51705552D01*
X133078910Y-51686832D01*
X133094562Y-51669562D01*
X133111832Y-51653910D01*
X133130552Y-51640026D01*
X133150543Y-51628044D01*
X133171613Y-51618079D01*
X133193557Y-51610227D01*
X133216166Y-51604563D01*
X133239221Y-51601144D01*
X133262500Y-51600000D01*
X133737500Y-51600000D01*
X133760779Y-51601144D01*
X133760779Y-51601144D01*
G37*
D16*
X133500000Y-52125000D03*
D13*
G36*
X132760779Y-57101144D02*
G01*
X132783834Y-57104563D01*
X132806443Y-57110227D01*
X132828387Y-57118079D01*
X132849457Y-57128044D01*
X132869448Y-57140026D01*
X132888168Y-57153910D01*
X132905438Y-57169562D01*
X132921090Y-57186832D01*
X132934974Y-57205552D01*
X132946956Y-57225543D01*
X132956921Y-57246613D01*
X132964773Y-57268557D01*
X132970437Y-57291166D01*
X132973856Y-57314221D01*
X132975000Y-57337500D01*
X132975000Y-57912500D01*
X132973856Y-57935779D01*
X132970437Y-57958834D01*
X132964773Y-57981443D01*
X132956921Y-58003387D01*
X132946956Y-58024457D01*
X132934974Y-58044448D01*
X132921090Y-58063168D01*
X132905438Y-58080438D01*
X132888168Y-58096090D01*
X132869448Y-58109974D01*
X132849457Y-58121956D01*
X132828387Y-58131921D01*
X132806443Y-58139773D01*
X132783834Y-58145437D01*
X132760779Y-58148856D01*
X132737500Y-58150000D01*
X132262500Y-58150000D01*
X132239221Y-58148856D01*
X132216166Y-58145437D01*
X132193557Y-58139773D01*
X132171613Y-58131921D01*
X132150543Y-58121956D01*
X132130552Y-58109974D01*
X132111832Y-58096090D01*
X132094562Y-58080438D01*
X132078910Y-58063168D01*
X132065026Y-58044448D01*
X132053044Y-58024457D01*
X132043079Y-58003387D01*
X132035227Y-57981443D01*
X132029563Y-57958834D01*
X132026144Y-57935779D01*
X132025000Y-57912500D01*
X132025000Y-57337500D01*
X132026144Y-57314221D01*
X132029563Y-57291166D01*
X132035227Y-57268557D01*
X132043079Y-57246613D01*
X132053044Y-57225543D01*
X132065026Y-57205552D01*
X132078910Y-57186832D01*
X132094562Y-57169562D01*
X132111832Y-57153910D01*
X132130552Y-57140026D01*
X132150543Y-57128044D01*
X132171613Y-57118079D01*
X132193557Y-57110227D01*
X132216166Y-57104563D01*
X132239221Y-57101144D01*
X132262500Y-57100000D01*
X132737500Y-57100000D01*
X132760779Y-57101144D01*
X132760779Y-57101144D01*
G37*
D16*
X132500000Y-57625000D03*
D13*
G36*
X132760779Y-55351144D02*
G01*
X132783834Y-55354563D01*
X132806443Y-55360227D01*
X132828387Y-55368079D01*
X132849457Y-55378044D01*
X132869448Y-55390026D01*
X132888168Y-55403910D01*
X132905438Y-55419562D01*
X132921090Y-55436832D01*
X132934974Y-55455552D01*
X132946956Y-55475543D01*
X132956921Y-55496613D01*
X132964773Y-55518557D01*
X132970437Y-55541166D01*
X132973856Y-55564221D01*
X132975000Y-55587500D01*
X132975000Y-56162500D01*
X132973856Y-56185779D01*
X132970437Y-56208834D01*
X132964773Y-56231443D01*
X132956921Y-56253387D01*
X132946956Y-56274457D01*
X132934974Y-56294448D01*
X132921090Y-56313168D01*
X132905438Y-56330438D01*
X132888168Y-56346090D01*
X132869448Y-56359974D01*
X132849457Y-56371956D01*
X132828387Y-56381921D01*
X132806443Y-56389773D01*
X132783834Y-56395437D01*
X132760779Y-56398856D01*
X132737500Y-56400000D01*
X132262500Y-56400000D01*
X132239221Y-56398856D01*
X132216166Y-56395437D01*
X132193557Y-56389773D01*
X132171613Y-56381921D01*
X132150543Y-56371956D01*
X132130552Y-56359974D01*
X132111832Y-56346090D01*
X132094562Y-56330438D01*
X132078910Y-56313168D01*
X132065026Y-56294448D01*
X132053044Y-56274457D01*
X132043079Y-56253387D01*
X132035227Y-56231443D01*
X132029563Y-56208834D01*
X132026144Y-56185779D01*
X132025000Y-56162500D01*
X132025000Y-55587500D01*
X132026144Y-55564221D01*
X132029563Y-55541166D01*
X132035227Y-55518557D01*
X132043079Y-55496613D01*
X132053044Y-55475543D01*
X132065026Y-55455552D01*
X132078910Y-55436832D01*
X132094562Y-55419562D01*
X132111832Y-55403910D01*
X132130552Y-55390026D01*
X132150543Y-55378044D01*
X132171613Y-55368079D01*
X132193557Y-55360227D01*
X132216166Y-55354563D01*
X132239221Y-55351144D01*
X132262500Y-55350000D01*
X132737500Y-55350000D01*
X132760779Y-55351144D01*
X132760779Y-55351144D01*
G37*
D16*
X132500000Y-55875000D03*
D13*
G36*
X130760779Y-57101144D02*
G01*
X130783834Y-57104563D01*
X130806443Y-57110227D01*
X130828387Y-57118079D01*
X130849457Y-57128044D01*
X130869448Y-57140026D01*
X130888168Y-57153910D01*
X130905438Y-57169562D01*
X130921090Y-57186832D01*
X130934974Y-57205552D01*
X130946956Y-57225543D01*
X130956921Y-57246613D01*
X130964773Y-57268557D01*
X130970437Y-57291166D01*
X130973856Y-57314221D01*
X130975000Y-57337500D01*
X130975000Y-57912500D01*
X130973856Y-57935779D01*
X130970437Y-57958834D01*
X130964773Y-57981443D01*
X130956921Y-58003387D01*
X130946956Y-58024457D01*
X130934974Y-58044448D01*
X130921090Y-58063168D01*
X130905438Y-58080438D01*
X130888168Y-58096090D01*
X130869448Y-58109974D01*
X130849457Y-58121956D01*
X130828387Y-58131921D01*
X130806443Y-58139773D01*
X130783834Y-58145437D01*
X130760779Y-58148856D01*
X130737500Y-58150000D01*
X130262500Y-58150000D01*
X130239221Y-58148856D01*
X130216166Y-58145437D01*
X130193557Y-58139773D01*
X130171613Y-58131921D01*
X130150543Y-58121956D01*
X130130552Y-58109974D01*
X130111832Y-58096090D01*
X130094562Y-58080438D01*
X130078910Y-58063168D01*
X130065026Y-58044448D01*
X130053044Y-58024457D01*
X130043079Y-58003387D01*
X130035227Y-57981443D01*
X130029563Y-57958834D01*
X130026144Y-57935779D01*
X130025000Y-57912500D01*
X130025000Y-57337500D01*
X130026144Y-57314221D01*
X130029563Y-57291166D01*
X130035227Y-57268557D01*
X130043079Y-57246613D01*
X130053044Y-57225543D01*
X130065026Y-57205552D01*
X130078910Y-57186832D01*
X130094562Y-57169562D01*
X130111832Y-57153910D01*
X130130552Y-57140026D01*
X130150543Y-57128044D01*
X130171613Y-57118079D01*
X130193557Y-57110227D01*
X130216166Y-57104563D01*
X130239221Y-57101144D01*
X130262500Y-57100000D01*
X130737500Y-57100000D01*
X130760779Y-57101144D01*
X130760779Y-57101144D01*
G37*
D16*
X130500000Y-57625000D03*
D13*
G36*
X130760779Y-55351144D02*
G01*
X130783834Y-55354563D01*
X130806443Y-55360227D01*
X130828387Y-55368079D01*
X130849457Y-55378044D01*
X130869448Y-55390026D01*
X130888168Y-55403910D01*
X130905438Y-55419562D01*
X130921090Y-55436832D01*
X130934974Y-55455552D01*
X130946956Y-55475543D01*
X130956921Y-55496613D01*
X130964773Y-55518557D01*
X130970437Y-55541166D01*
X130973856Y-55564221D01*
X130975000Y-55587500D01*
X130975000Y-56162500D01*
X130973856Y-56185779D01*
X130970437Y-56208834D01*
X130964773Y-56231443D01*
X130956921Y-56253387D01*
X130946956Y-56274457D01*
X130934974Y-56294448D01*
X130921090Y-56313168D01*
X130905438Y-56330438D01*
X130888168Y-56346090D01*
X130869448Y-56359974D01*
X130849457Y-56371956D01*
X130828387Y-56381921D01*
X130806443Y-56389773D01*
X130783834Y-56395437D01*
X130760779Y-56398856D01*
X130737500Y-56400000D01*
X130262500Y-56400000D01*
X130239221Y-56398856D01*
X130216166Y-56395437D01*
X130193557Y-56389773D01*
X130171613Y-56381921D01*
X130150543Y-56371956D01*
X130130552Y-56359974D01*
X130111832Y-56346090D01*
X130094562Y-56330438D01*
X130078910Y-56313168D01*
X130065026Y-56294448D01*
X130053044Y-56274457D01*
X130043079Y-56253387D01*
X130035227Y-56231443D01*
X130029563Y-56208834D01*
X130026144Y-56185779D01*
X130025000Y-56162500D01*
X130025000Y-55587500D01*
X130026144Y-55564221D01*
X130029563Y-55541166D01*
X130035227Y-55518557D01*
X130043079Y-55496613D01*
X130053044Y-55475543D01*
X130065026Y-55455552D01*
X130078910Y-55436832D01*
X130094562Y-55419562D01*
X130111832Y-55403910D01*
X130130552Y-55390026D01*
X130150543Y-55378044D01*
X130171613Y-55368079D01*
X130193557Y-55360227D01*
X130216166Y-55354563D01*
X130239221Y-55351144D01*
X130262500Y-55350000D01*
X130737500Y-55350000D01*
X130760779Y-55351144D01*
X130760779Y-55351144D01*
G37*
D16*
X130500000Y-55875000D03*
D13*
G36*
X129760779Y-53351144D02*
G01*
X129783834Y-53354563D01*
X129806443Y-53360227D01*
X129828387Y-53368079D01*
X129849457Y-53378044D01*
X129869448Y-53390026D01*
X129888168Y-53403910D01*
X129905438Y-53419562D01*
X129921090Y-53436832D01*
X129934974Y-53455552D01*
X129946956Y-53475543D01*
X129956921Y-53496613D01*
X129964773Y-53518557D01*
X129970437Y-53541166D01*
X129973856Y-53564221D01*
X129975000Y-53587500D01*
X129975000Y-54162500D01*
X129973856Y-54185779D01*
X129970437Y-54208834D01*
X129964773Y-54231443D01*
X129956921Y-54253387D01*
X129946956Y-54274457D01*
X129934974Y-54294448D01*
X129921090Y-54313168D01*
X129905438Y-54330438D01*
X129888168Y-54346090D01*
X129869448Y-54359974D01*
X129849457Y-54371956D01*
X129828387Y-54381921D01*
X129806443Y-54389773D01*
X129783834Y-54395437D01*
X129760779Y-54398856D01*
X129737500Y-54400000D01*
X129262500Y-54400000D01*
X129239221Y-54398856D01*
X129216166Y-54395437D01*
X129193557Y-54389773D01*
X129171613Y-54381921D01*
X129150543Y-54371956D01*
X129130552Y-54359974D01*
X129111832Y-54346090D01*
X129094562Y-54330438D01*
X129078910Y-54313168D01*
X129065026Y-54294448D01*
X129053044Y-54274457D01*
X129043079Y-54253387D01*
X129035227Y-54231443D01*
X129029563Y-54208834D01*
X129026144Y-54185779D01*
X129025000Y-54162500D01*
X129025000Y-53587500D01*
X129026144Y-53564221D01*
X129029563Y-53541166D01*
X129035227Y-53518557D01*
X129043079Y-53496613D01*
X129053044Y-53475543D01*
X129065026Y-53455552D01*
X129078910Y-53436832D01*
X129094562Y-53419562D01*
X129111832Y-53403910D01*
X129130552Y-53390026D01*
X129150543Y-53378044D01*
X129171613Y-53368079D01*
X129193557Y-53360227D01*
X129216166Y-53354563D01*
X129239221Y-53351144D01*
X129262500Y-53350000D01*
X129737500Y-53350000D01*
X129760779Y-53351144D01*
X129760779Y-53351144D01*
G37*
D16*
X129500000Y-53875000D03*
D13*
G36*
X129760779Y-51601144D02*
G01*
X129783834Y-51604563D01*
X129806443Y-51610227D01*
X129828387Y-51618079D01*
X129849457Y-51628044D01*
X129869448Y-51640026D01*
X129888168Y-51653910D01*
X129905438Y-51669562D01*
X129921090Y-51686832D01*
X129934974Y-51705552D01*
X129946956Y-51725543D01*
X129956921Y-51746613D01*
X129964773Y-51768557D01*
X129970437Y-51791166D01*
X129973856Y-51814221D01*
X129975000Y-51837500D01*
X129975000Y-52412500D01*
X129973856Y-52435779D01*
X129970437Y-52458834D01*
X129964773Y-52481443D01*
X129956921Y-52503387D01*
X129946956Y-52524457D01*
X129934974Y-52544448D01*
X129921090Y-52563168D01*
X129905438Y-52580438D01*
X129888168Y-52596090D01*
X129869448Y-52609974D01*
X129849457Y-52621956D01*
X129828387Y-52631921D01*
X129806443Y-52639773D01*
X129783834Y-52645437D01*
X129760779Y-52648856D01*
X129737500Y-52650000D01*
X129262500Y-52650000D01*
X129239221Y-52648856D01*
X129216166Y-52645437D01*
X129193557Y-52639773D01*
X129171613Y-52631921D01*
X129150543Y-52621956D01*
X129130552Y-52609974D01*
X129111832Y-52596090D01*
X129094562Y-52580438D01*
X129078910Y-52563168D01*
X129065026Y-52544448D01*
X129053044Y-52524457D01*
X129043079Y-52503387D01*
X129035227Y-52481443D01*
X129029563Y-52458834D01*
X129026144Y-52435779D01*
X129025000Y-52412500D01*
X129025000Y-51837500D01*
X129026144Y-51814221D01*
X129029563Y-51791166D01*
X129035227Y-51768557D01*
X129043079Y-51746613D01*
X129053044Y-51725543D01*
X129065026Y-51705552D01*
X129078910Y-51686832D01*
X129094562Y-51669562D01*
X129111832Y-51653910D01*
X129130552Y-51640026D01*
X129150543Y-51628044D01*
X129171613Y-51618079D01*
X129193557Y-51610227D01*
X129216166Y-51604563D01*
X129239221Y-51601144D01*
X129262500Y-51600000D01*
X129737500Y-51600000D01*
X129760779Y-51601144D01*
X129760779Y-51601144D01*
G37*
D16*
X129500000Y-52125000D03*
D13*
G36*
X128760779Y-57101144D02*
G01*
X128783834Y-57104563D01*
X128806443Y-57110227D01*
X128828387Y-57118079D01*
X128849457Y-57128044D01*
X128869448Y-57140026D01*
X128888168Y-57153910D01*
X128905438Y-57169562D01*
X128921090Y-57186832D01*
X128934974Y-57205552D01*
X128946956Y-57225543D01*
X128956921Y-57246613D01*
X128964773Y-57268557D01*
X128970437Y-57291166D01*
X128973856Y-57314221D01*
X128975000Y-57337500D01*
X128975000Y-57912500D01*
X128973856Y-57935779D01*
X128970437Y-57958834D01*
X128964773Y-57981443D01*
X128956921Y-58003387D01*
X128946956Y-58024457D01*
X128934974Y-58044448D01*
X128921090Y-58063168D01*
X128905438Y-58080438D01*
X128888168Y-58096090D01*
X128869448Y-58109974D01*
X128849457Y-58121956D01*
X128828387Y-58131921D01*
X128806443Y-58139773D01*
X128783834Y-58145437D01*
X128760779Y-58148856D01*
X128737500Y-58150000D01*
X128262500Y-58150000D01*
X128239221Y-58148856D01*
X128216166Y-58145437D01*
X128193557Y-58139773D01*
X128171613Y-58131921D01*
X128150543Y-58121956D01*
X128130552Y-58109974D01*
X128111832Y-58096090D01*
X128094562Y-58080438D01*
X128078910Y-58063168D01*
X128065026Y-58044448D01*
X128053044Y-58024457D01*
X128043079Y-58003387D01*
X128035227Y-57981443D01*
X128029563Y-57958834D01*
X128026144Y-57935779D01*
X128025000Y-57912500D01*
X128025000Y-57337500D01*
X128026144Y-57314221D01*
X128029563Y-57291166D01*
X128035227Y-57268557D01*
X128043079Y-57246613D01*
X128053044Y-57225543D01*
X128065026Y-57205552D01*
X128078910Y-57186832D01*
X128094562Y-57169562D01*
X128111832Y-57153910D01*
X128130552Y-57140026D01*
X128150543Y-57128044D01*
X128171613Y-57118079D01*
X128193557Y-57110227D01*
X128216166Y-57104563D01*
X128239221Y-57101144D01*
X128262500Y-57100000D01*
X128737500Y-57100000D01*
X128760779Y-57101144D01*
X128760779Y-57101144D01*
G37*
D16*
X128500000Y-57625000D03*
D13*
G36*
X128760779Y-55351144D02*
G01*
X128783834Y-55354563D01*
X128806443Y-55360227D01*
X128828387Y-55368079D01*
X128849457Y-55378044D01*
X128869448Y-55390026D01*
X128888168Y-55403910D01*
X128905438Y-55419562D01*
X128921090Y-55436832D01*
X128934974Y-55455552D01*
X128946956Y-55475543D01*
X128956921Y-55496613D01*
X128964773Y-55518557D01*
X128970437Y-55541166D01*
X128973856Y-55564221D01*
X128975000Y-55587500D01*
X128975000Y-56162500D01*
X128973856Y-56185779D01*
X128970437Y-56208834D01*
X128964773Y-56231443D01*
X128956921Y-56253387D01*
X128946956Y-56274457D01*
X128934974Y-56294448D01*
X128921090Y-56313168D01*
X128905438Y-56330438D01*
X128888168Y-56346090D01*
X128869448Y-56359974D01*
X128849457Y-56371956D01*
X128828387Y-56381921D01*
X128806443Y-56389773D01*
X128783834Y-56395437D01*
X128760779Y-56398856D01*
X128737500Y-56400000D01*
X128262500Y-56400000D01*
X128239221Y-56398856D01*
X128216166Y-56395437D01*
X128193557Y-56389773D01*
X128171613Y-56381921D01*
X128150543Y-56371956D01*
X128130552Y-56359974D01*
X128111832Y-56346090D01*
X128094562Y-56330438D01*
X128078910Y-56313168D01*
X128065026Y-56294448D01*
X128053044Y-56274457D01*
X128043079Y-56253387D01*
X128035227Y-56231443D01*
X128029563Y-56208834D01*
X128026144Y-56185779D01*
X128025000Y-56162500D01*
X128025000Y-55587500D01*
X128026144Y-55564221D01*
X128029563Y-55541166D01*
X128035227Y-55518557D01*
X128043079Y-55496613D01*
X128053044Y-55475543D01*
X128065026Y-55455552D01*
X128078910Y-55436832D01*
X128094562Y-55419562D01*
X128111832Y-55403910D01*
X128130552Y-55390026D01*
X128150543Y-55378044D01*
X128171613Y-55368079D01*
X128193557Y-55360227D01*
X128216166Y-55354563D01*
X128239221Y-55351144D01*
X128262500Y-55350000D01*
X128737500Y-55350000D01*
X128760779Y-55351144D01*
X128760779Y-55351144D01*
G37*
D16*
X128500000Y-55875000D03*
D13*
G36*
X150510779Y-74601144D02*
G01*
X150533834Y-74604563D01*
X150556443Y-74610227D01*
X150578387Y-74618079D01*
X150599457Y-74628044D01*
X150619448Y-74640026D01*
X150638168Y-74653910D01*
X150655438Y-74669562D01*
X150671090Y-74686832D01*
X150684974Y-74705552D01*
X150696956Y-74725543D01*
X150706921Y-74746613D01*
X150714773Y-74768557D01*
X150720437Y-74791166D01*
X150723856Y-74814221D01*
X150725000Y-74837500D01*
X150725000Y-75412500D01*
X150723856Y-75435779D01*
X150720437Y-75458834D01*
X150714773Y-75481443D01*
X150706921Y-75503387D01*
X150696956Y-75524457D01*
X150684974Y-75544448D01*
X150671090Y-75563168D01*
X150655438Y-75580438D01*
X150638168Y-75596090D01*
X150619448Y-75609974D01*
X150599457Y-75621956D01*
X150578387Y-75631921D01*
X150556443Y-75639773D01*
X150533834Y-75645437D01*
X150510779Y-75648856D01*
X150487500Y-75650000D01*
X150012500Y-75650000D01*
X149989221Y-75648856D01*
X149966166Y-75645437D01*
X149943557Y-75639773D01*
X149921613Y-75631921D01*
X149900543Y-75621956D01*
X149880552Y-75609974D01*
X149861832Y-75596090D01*
X149844562Y-75580438D01*
X149828910Y-75563168D01*
X149815026Y-75544448D01*
X149803044Y-75524457D01*
X149793079Y-75503387D01*
X149785227Y-75481443D01*
X149779563Y-75458834D01*
X149776144Y-75435779D01*
X149775000Y-75412500D01*
X149775000Y-74837500D01*
X149776144Y-74814221D01*
X149779563Y-74791166D01*
X149785227Y-74768557D01*
X149793079Y-74746613D01*
X149803044Y-74725543D01*
X149815026Y-74705552D01*
X149828910Y-74686832D01*
X149844562Y-74669562D01*
X149861832Y-74653910D01*
X149880552Y-74640026D01*
X149900543Y-74628044D01*
X149921613Y-74618079D01*
X149943557Y-74610227D01*
X149966166Y-74604563D01*
X149989221Y-74601144D01*
X150012500Y-74600000D01*
X150487500Y-74600000D01*
X150510779Y-74601144D01*
X150510779Y-74601144D01*
G37*
D16*
X150250000Y-75125000D03*
D13*
G36*
X150510779Y-76351144D02*
G01*
X150533834Y-76354563D01*
X150556443Y-76360227D01*
X150578387Y-76368079D01*
X150599457Y-76378044D01*
X150619448Y-76390026D01*
X150638168Y-76403910D01*
X150655438Y-76419562D01*
X150671090Y-76436832D01*
X150684974Y-76455552D01*
X150696956Y-76475543D01*
X150706921Y-76496613D01*
X150714773Y-76518557D01*
X150720437Y-76541166D01*
X150723856Y-76564221D01*
X150725000Y-76587500D01*
X150725000Y-77162500D01*
X150723856Y-77185779D01*
X150720437Y-77208834D01*
X150714773Y-77231443D01*
X150706921Y-77253387D01*
X150696956Y-77274457D01*
X150684974Y-77294448D01*
X150671090Y-77313168D01*
X150655438Y-77330438D01*
X150638168Y-77346090D01*
X150619448Y-77359974D01*
X150599457Y-77371956D01*
X150578387Y-77381921D01*
X150556443Y-77389773D01*
X150533834Y-77395437D01*
X150510779Y-77398856D01*
X150487500Y-77400000D01*
X150012500Y-77400000D01*
X149989221Y-77398856D01*
X149966166Y-77395437D01*
X149943557Y-77389773D01*
X149921613Y-77381921D01*
X149900543Y-77371956D01*
X149880552Y-77359974D01*
X149861832Y-77346090D01*
X149844562Y-77330438D01*
X149828910Y-77313168D01*
X149815026Y-77294448D01*
X149803044Y-77274457D01*
X149793079Y-77253387D01*
X149785227Y-77231443D01*
X149779563Y-77208834D01*
X149776144Y-77185779D01*
X149775000Y-77162500D01*
X149775000Y-76587500D01*
X149776144Y-76564221D01*
X149779563Y-76541166D01*
X149785227Y-76518557D01*
X149793079Y-76496613D01*
X149803044Y-76475543D01*
X149815026Y-76455552D01*
X149828910Y-76436832D01*
X149844562Y-76419562D01*
X149861832Y-76403910D01*
X149880552Y-76390026D01*
X149900543Y-76378044D01*
X149921613Y-76368079D01*
X149943557Y-76360227D01*
X149966166Y-76354563D01*
X149989221Y-76351144D01*
X150012500Y-76350000D01*
X150487500Y-76350000D01*
X150510779Y-76351144D01*
X150510779Y-76351144D01*
G37*
D16*
X150250000Y-76875000D03*
D13*
G36*
X146010779Y-70851144D02*
G01*
X146033834Y-70854563D01*
X146056443Y-70860227D01*
X146078387Y-70868079D01*
X146099457Y-70878044D01*
X146119448Y-70890026D01*
X146138168Y-70903910D01*
X146155438Y-70919562D01*
X146171090Y-70936832D01*
X146184974Y-70955552D01*
X146196956Y-70975543D01*
X146206921Y-70996613D01*
X146214773Y-71018557D01*
X146220437Y-71041166D01*
X146223856Y-71064221D01*
X146225000Y-71087500D01*
X146225000Y-71662500D01*
X146223856Y-71685779D01*
X146220437Y-71708834D01*
X146214773Y-71731443D01*
X146206921Y-71753387D01*
X146196956Y-71774457D01*
X146184974Y-71794448D01*
X146171090Y-71813168D01*
X146155438Y-71830438D01*
X146138168Y-71846090D01*
X146119448Y-71859974D01*
X146099457Y-71871956D01*
X146078387Y-71881921D01*
X146056443Y-71889773D01*
X146033834Y-71895437D01*
X146010779Y-71898856D01*
X145987500Y-71900000D01*
X145512500Y-71900000D01*
X145489221Y-71898856D01*
X145466166Y-71895437D01*
X145443557Y-71889773D01*
X145421613Y-71881921D01*
X145400543Y-71871956D01*
X145380552Y-71859974D01*
X145361832Y-71846090D01*
X145344562Y-71830438D01*
X145328910Y-71813168D01*
X145315026Y-71794448D01*
X145303044Y-71774457D01*
X145293079Y-71753387D01*
X145285227Y-71731443D01*
X145279563Y-71708834D01*
X145276144Y-71685779D01*
X145275000Y-71662500D01*
X145275000Y-71087500D01*
X145276144Y-71064221D01*
X145279563Y-71041166D01*
X145285227Y-71018557D01*
X145293079Y-70996613D01*
X145303044Y-70975543D01*
X145315026Y-70955552D01*
X145328910Y-70936832D01*
X145344562Y-70919562D01*
X145361832Y-70903910D01*
X145380552Y-70890026D01*
X145400543Y-70878044D01*
X145421613Y-70868079D01*
X145443557Y-70860227D01*
X145466166Y-70854563D01*
X145489221Y-70851144D01*
X145512500Y-70850000D01*
X145987500Y-70850000D01*
X146010779Y-70851144D01*
X146010779Y-70851144D01*
G37*
D16*
X145750000Y-71375000D03*
D13*
G36*
X146010779Y-69101144D02*
G01*
X146033834Y-69104563D01*
X146056443Y-69110227D01*
X146078387Y-69118079D01*
X146099457Y-69128044D01*
X146119448Y-69140026D01*
X146138168Y-69153910D01*
X146155438Y-69169562D01*
X146171090Y-69186832D01*
X146184974Y-69205552D01*
X146196956Y-69225543D01*
X146206921Y-69246613D01*
X146214773Y-69268557D01*
X146220437Y-69291166D01*
X146223856Y-69314221D01*
X146225000Y-69337500D01*
X146225000Y-69912500D01*
X146223856Y-69935779D01*
X146220437Y-69958834D01*
X146214773Y-69981443D01*
X146206921Y-70003387D01*
X146196956Y-70024457D01*
X146184974Y-70044448D01*
X146171090Y-70063168D01*
X146155438Y-70080438D01*
X146138168Y-70096090D01*
X146119448Y-70109974D01*
X146099457Y-70121956D01*
X146078387Y-70131921D01*
X146056443Y-70139773D01*
X146033834Y-70145437D01*
X146010779Y-70148856D01*
X145987500Y-70150000D01*
X145512500Y-70150000D01*
X145489221Y-70148856D01*
X145466166Y-70145437D01*
X145443557Y-70139773D01*
X145421613Y-70131921D01*
X145400543Y-70121956D01*
X145380552Y-70109974D01*
X145361832Y-70096090D01*
X145344562Y-70080438D01*
X145328910Y-70063168D01*
X145315026Y-70044448D01*
X145303044Y-70024457D01*
X145293079Y-70003387D01*
X145285227Y-69981443D01*
X145279563Y-69958834D01*
X145276144Y-69935779D01*
X145275000Y-69912500D01*
X145275000Y-69337500D01*
X145276144Y-69314221D01*
X145279563Y-69291166D01*
X145285227Y-69268557D01*
X145293079Y-69246613D01*
X145303044Y-69225543D01*
X145315026Y-69205552D01*
X145328910Y-69186832D01*
X145344562Y-69169562D01*
X145361832Y-69153910D01*
X145380552Y-69140026D01*
X145400543Y-69128044D01*
X145421613Y-69118079D01*
X145443557Y-69110227D01*
X145466166Y-69104563D01*
X145489221Y-69101144D01*
X145512500Y-69100000D01*
X145987500Y-69100000D01*
X146010779Y-69101144D01*
X146010779Y-69101144D01*
G37*
D16*
X145750000Y-69625000D03*
D13*
G36*
X133010779Y-72351144D02*
G01*
X133033834Y-72354563D01*
X133056443Y-72360227D01*
X133078387Y-72368079D01*
X133099457Y-72378044D01*
X133119448Y-72390026D01*
X133138168Y-72403910D01*
X133155438Y-72419562D01*
X133171090Y-72436832D01*
X133184974Y-72455552D01*
X133196956Y-72475543D01*
X133206921Y-72496613D01*
X133214773Y-72518557D01*
X133220437Y-72541166D01*
X133223856Y-72564221D01*
X133225000Y-72587500D01*
X133225000Y-73162500D01*
X133223856Y-73185779D01*
X133220437Y-73208834D01*
X133214773Y-73231443D01*
X133206921Y-73253387D01*
X133196956Y-73274457D01*
X133184974Y-73294448D01*
X133171090Y-73313168D01*
X133155438Y-73330438D01*
X133138168Y-73346090D01*
X133119448Y-73359974D01*
X133099457Y-73371956D01*
X133078387Y-73381921D01*
X133056443Y-73389773D01*
X133033834Y-73395437D01*
X133010779Y-73398856D01*
X132987500Y-73400000D01*
X132512500Y-73400000D01*
X132489221Y-73398856D01*
X132466166Y-73395437D01*
X132443557Y-73389773D01*
X132421613Y-73381921D01*
X132400543Y-73371956D01*
X132380552Y-73359974D01*
X132361832Y-73346090D01*
X132344562Y-73330438D01*
X132328910Y-73313168D01*
X132315026Y-73294448D01*
X132303044Y-73274457D01*
X132293079Y-73253387D01*
X132285227Y-73231443D01*
X132279563Y-73208834D01*
X132276144Y-73185779D01*
X132275000Y-73162500D01*
X132275000Y-72587500D01*
X132276144Y-72564221D01*
X132279563Y-72541166D01*
X132285227Y-72518557D01*
X132293079Y-72496613D01*
X132303044Y-72475543D01*
X132315026Y-72455552D01*
X132328910Y-72436832D01*
X132344562Y-72419562D01*
X132361832Y-72403910D01*
X132380552Y-72390026D01*
X132400543Y-72378044D01*
X132421613Y-72368079D01*
X132443557Y-72360227D01*
X132466166Y-72354563D01*
X132489221Y-72351144D01*
X132512500Y-72350000D01*
X132987500Y-72350000D01*
X133010779Y-72351144D01*
X133010779Y-72351144D01*
G37*
D16*
X132750000Y-72875000D03*
D13*
G36*
X133010779Y-70601144D02*
G01*
X133033834Y-70604563D01*
X133056443Y-70610227D01*
X133078387Y-70618079D01*
X133099457Y-70628044D01*
X133119448Y-70640026D01*
X133138168Y-70653910D01*
X133155438Y-70669562D01*
X133171090Y-70686832D01*
X133184974Y-70705552D01*
X133196956Y-70725543D01*
X133206921Y-70746613D01*
X133214773Y-70768557D01*
X133220437Y-70791166D01*
X133223856Y-70814221D01*
X133225000Y-70837500D01*
X133225000Y-71412500D01*
X133223856Y-71435779D01*
X133220437Y-71458834D01*
X133214773Y-71481443D01*
X133206921Y-71503387D01*
X133196956Y-71524457D01*
X133184974Y-71544448D01*
X133171090Y-71563168D01*
X133155438Y-71580438D01*
X133138168Y-71596090D01*
X133119448Y-71609974D01*
X133099457Y-71621956D01*
X133078387Y-71631921D01*
X133056443Y-71639773D01*
X133033834Y-71645437D01*
X133010779Y-71648856D01*
X132987500Y-71650000D01*
X132512500Y-71650000D01*
X132489221Y-71648856D01*
X132466166Y-71645437D01*
X132443557Y-71639773D01*
X132421613Y-71631921D01*
X132400543Y-71621956D01*
X132380552Y-71609974D01*
X132361832Y-71596090D01*
X132344562Y-71580438D01*
X132328910Y-71563168D01*
X132315026Y-71544448D01*
X132303044Y-71524457D01*
X132293079Y-71503387D01*
X132285227Y-71481443D01*
X132279563Y-71458834D01*
X132276144Y-71435779D01*
X132275000Y-71412500D01*
X132275000Y-70837500D01*
X132276144Y-70814221D01*
X132279563Y-70791166D01*
X132285227Y-70768557D01*
X132293079Y-70746613D01*
X132303044Y-70725543D01*
X132315026Y-70705552D01*
X132328910Y-70686832D01*
X132344562Y-70669562D01*
X132361832Y-70653910D01*
X132380552Y-70640026D01*
X132400543Y-70628044D01*
X132421613Y-70618079D01*
X132443557Y-70610227D01*
X132466166Y-70604563D01*
X132489221Y-70601144D01*
X132512500Y-70600000D01*
X132987500Y-70600000D01*
X133010779Y-70601144D01*
X133010779Y-70601144D01*
G37*
D16*
X132750000Y-71125000D03*
D13*
G36*
X135010779Y-72351144D02*
G01*
X135033834Y-72354563D01*
X135056443Y-72360227D01*
X135078387Y-72368079D01*
X135099457Y-72378044D01*
X135119448Y-72390026D01*
X135138168Y-72403910D01*
X135155438Y-72419562D01*
X135171090Y-72436832D01*
X135184974Y-72455552D01*
X135196956Y-72475543D01*
X135206921Y-72496613D01*
X135214773Y-72518557D01*
X135220437Y-72541166D01*
X135223856Y-72564221D01*
X135225000Y-72587500D01*
X135225000Y-73162500D01*
X135223856Y-73185779D01*
X135220437Y-73208834D01*
X135214773Y-73231443D01*
X135206921Y-73253387D01*
X135196956Y-73274457D01*
X135184974Y-73294448D01*
X135171090Y-73313168D01*
X135155438Y-73330438D01*
X135138168Y-73346090D01*
X135119448Y-73359974D01*
X135099457Y-73371956D01*
X135078387Y-73381921D01*
X135056443Y-73389773D01*
X135033834Y-73395437D01*
X135010779Y-73398856D01*
X134987500Y-73400000D01*
X134512500Y-73400000D01*
X134489221Y-73398856D01*
X134466166Y-73395437D01*
X134443557Y-73389773D01*
X134421613Y-73381921D01*
X134400543Y-73371956D01*
X134380552Y-73359974D01*
X134361832Y-73346090D01*
X134344562Y-73330438D01*
X134328910Y-73313168D01*
X134315026Y-73294448D01*
X134303044Y-73274457D01*
X134293079Y-73253387D01*
X134285227Y-73231443D01*
X134279563Y-73208834D01*
X134276144Y-73185779D01*
X134275000Y-73162500D01*
X134275000Y-72587500D01*
X134276144Y-72564221D01*
X134279563Y-72541166D01*
X134285227Y-72518557D01*
X134293079Y-72496613D01*
X134303044Y-72475543D01*
X134315026Y-72455552D01*
X134328910Y-72436832D01*
X134344562Y-72419562D01*
X134361832Y-72403910D01*
X134380552Y-72390026D01*
X134400543Y-72378044D01*
X134421613Y-72368079D01*
X134443557Y-72360227D01*
X134466166Y-72354563D01*
X134489221Y-72351144D01*
X134512500Y-72350000D01*
X134987500Y-72350000D01*
X135010779Y-72351144D01*
X135010779Y-72351144D01*
G37*
D16*
X134750000Y-72875000D03*
D13*
G36*
X135010779Y-70601144D02*
G01*
X135033834Y-70604563D01*
X135056443Y-70610227D01*
X135078387Y-70618079D01*
X135099457Y-70628044D01*
X135119448Y-70640026D01*
X135138168Y-70653910D01*
X135155438Y-70669562D01*
X135171090Y-70686832D01*
X135184974Y-70705552D01*
X135196956Y-70725543D01*
X135206921Y-70746613D01*
X135214773Y-70768557D01*
X135220437Y-70791166D01*
X135223856Y-70814221D01*
X135225000Y-70837500D01*
X135225000Y-71412500D01*
X135223856Y-71435779D01*
X135220437Y-71458834D01*
X135214773Y-71481443D01*
X135206921Y-71503387D01*
X135196956Y-71524457D01*
X135184974Y-71544448D01*
X135171090Y-71563168D01*
X135155438Y-71580438D01*
X135138168Y-71596090D01*
X135119448Y-71609974D01*
X135099457Y-71621956D01*
X135078387Y-71631921D01*
X135056443Y-71639773D01*
X135033834Y-71645437D01*
X135010779Y-71648856D01*
X134987500Y-71650000D01*
X134512500Y-71650000D01*
X134489221Y-71648856D01*
X134466166Y-71645437D01*
X134443557Y-71639773D01*
X134421613Y-71631921D01*
X134400543Y-71621956D01*
X134380552Y-71609974D01*
X134361832Y-71596090D01*
X134344562Y-71580438D01*
X134328910Y-71563168D01*
X134315026Y-71544448D01*
X134303044Y-71524457D01*
X134293079Y-71503387D01*
X134285227Y-71481443D01*
X134279563Y-71458834D01*
X134276144Y-71435779D01*
X134275000Y-71412500D01*
X134275000Y-70837500D01*
X134276144Y-70814221D01*
X134279563Y-70791166D01*
X134285227Y-70768557D01*
X134293079Y-70746613D01*
X134303044Y-70725543D01*
X134315026Y-70705552D01*
X134328910Y-70686832D01*
X134344562Y-70669562D01*
X134361832Y-70653910D01*
X134380552Y-70640026D01*
X134400543Y-70628044D01*
X134421613Y-70618079D01*
X134443557Y-70610227D01*
X134466166Y-70604563D01*
X134489221Y-70601144D01*
X134512500Y-70600000D01*
X134987500Y-70600000D01*
X135010779Y-70601144D01*
X135010779Y-70601144D01*
G37*
D16*
X134750000Y-71125000D03*
D17*
X149310000Y-42000000D03*
X148040000Y-42000000D03*
X146770000Y-42000000D03*
D18*
X145500000Y-42000000D03*
D17*
X149310000Y-34000000D03*
X148040000Y-34000000D03*
X146770000Y-34000000D03*
D18*
X145500000Y-34000000D03*
D17*
X141310000Y-42000000D03*
X140040000Y-42000000D03*
X138770000Y-42000000D03*
D18*
X137500000Y-42000000D03*
D17*
X141310000Y-34000000D03*
X140040000Y-34000000D03*
X138770000Y-34000000D03*
D18*
X137500000Y-34000000D03*
D17*
X133310000Y-42000000D03*
X132040000Y-42000000D03*
X130770000Y-42000000D03*
D18*
X129500000Y-42000000D03*
D17*
X133310000Y-34000000D03*
X132040000Y-34000000D03*
X130770000Y-34000000D03*
D18*
X129500000Y-34000000D03*
D13*
G36*
X148760779Y-74601144D02*
G01*
X148783834Y-74604563D01*
X148806443Y-74610227D01*
X148828387Y-74618079D01*
X148849457Y-74628044D01*
X148869448Y-74640026D01*
X148888168Y-74653910D01*
X148905438Y-74669562D01*
X148921090Y-74686832D01*
X148934974Y-74705552D01*
X148946956Y-74725543D01*
X148956921Y-74746613D01*
X148964773Y-74768557D01*
X148970437Y-74791166D01*
X148973856Y-74814221D01*
X148975000Y-74837500D01*
X148975000Y-75412500D01*
X148973856Y-75435779D01*
X148970437Y-75458834D01*
X148964773Y-75481443D01*
X148956921Y-75503387D01*
X148946956Y-75524457D01*
X148934974Y-75544448D01*
X148921090Y-75563168D01*
X148905438Y-75580438D01*
X148888168Y-75596090D01*
X148869448Y-75609974D01*
X148849457Y-75621956D01*
X148828387Y-75631921D01*
X148806443Y-75639773D01*
X148783834Y-75645437D01*
X148760779Y-75648856D01*
X148737500Y-75650000D01*
X148262500Y-75650000D01*
X148239221Y-75648856D01*
X148216166Y-75645437D01*
X148193557Y-75639773D01*
X148171613Y-75631921D01*
X148150543Y-75621956D01*
X148130552Y-75609974D01*
X148111832Y-75596090D01*
X148094562Y-75580438D01*
X148078910Y-75563168D01*
X148065026Y-75544448D01*
X148053044Y-75524457D01*
X148043079Y-75503387D01*
X148035227Y-75481443D01*
X148029563Y-75458834D01*
X148026144Y-75435779D01*
X148025000Y-75412500D01*
X148025000Y-74837500D01*
X148026144Y-74814221D01*
X148029563Y-74791166D01*
X148035227Y-74768557D01*
X148043079Y-74746613D01*
X148053044Y-74725543D01*
X148065026Y-74705552D01*
X148078910Y-74686832D01*
X148094562Y-74669562D01*
X148111832Y-74653910D01*
X148130552Y-74640026D01*
X148150543Y-74628044D01*
X148171613Y-74618079D01*
X148193557Y-74610227D01*
X148216166Y-74604563D01*
X148239221Y-74601144D01*
X148262500Y-74600000D01*
X148737500Y-74600000D01*
X148760779Y-74601144D01*
X148760779Y-74601144D01*
G37*
D16*
X148500000Y-75125000D03*
D13*
G36*
X148760779Y-76351144D02*
G01*
X148783834Y-76354563D01*
X148806443Y-76360227D01*
X148828387Y-76368079D01*
X148849457Y-76378044D01*
X148869448Y-76390026D01*
X148888168Y-76403910D01*
X148905438Y-76419562D01*
X148921090Y-76436832D01*
X148934974Y-76455552D01*
X148946956Y-76475543D01*
X148956921Y-76496613D01*
X148964773Y-76518557D01*
X148970437Y-76541166D01*
X148973856Y-76564221D01*
X148975000Y-76587500D01*
X148975000Y-77162500D01*
X148973856Y-77185779D01*
X148970437Y-77208834D01*
X148964773Y-77231443D01*
X148956921Y-77253387D01*
X148946956Y-77274457D01*
X148934974Y-77294448D01*
X148921090Y-77313168D01*
X148905438Y-77330438D01*
X148888168Y-77346090D01*
X148869448Y-77359974D01*
X148849457Y-77371956D01*
X148828387Y-77381921D01*
X148806443Y-77389773D01*
X148783834Y-77395437D01*
X148760779Y-77398856D01*
X148737500Y-77400000D01*
X148262500Y-77400000D01*
X148239221Y-77398856D01*
X148216166Y-77395437D01*
X148193557Y-77389773D01*
X148171613Y-77381921D01*
X148150543Y-77371956D01*
X148130552Y-77359974D01*
X148111832Y-77346090D01*
X148094562Y-77330438D01*
X148078910Y-77313168D01*
X148065026Y-77294448D01*
X148053044Y-77274457D01*
X148043079Y-77253387D01*
X148035227Y-77231443D01*
X148029563Y-77208834D01*
X148026144Y-77185779D01*
X148025000Y-77162500D01*
X148025000Y-76587500D01*
X148026144Y-76564221D01*
X148029563Y-76541166D01*
X148035227Y-76518557D01*
X148043079Y-76496613D01*
X148053044Y-76475543D01*
X148065026Y-76455552D01*
X148078910Y-76436832D01*
X148094562Y-76419562D01*
X148111832Y-76403910D01*
X148130552Y-76390026D01*
X148150543Y-76378044D01*
X148171613Y-76368079D01*
X148193557Y-76360227D01*
X148216166Y-76354563D01*
X148239221Y-76351144D01*
X148262500Y-76350000D01*
X148737500Y-76350000D01*
X148760779Y-76351144D01*
X148760779Y-76351144D01*
G37*
D16*
X148500000Y-76875000D03*
D13*
G36*
X142935779Y-70526144D02*
G01*
X142958834Y-70529563D01*
X142981443Y-70535227D01*
X143003387Y-70543079D01*
X143024457Y-70553044D01*
X143044448Y-70565026D01*
X143063168Y-70578910D01*
X143080438Y-70594562D01*
X143096090Y-70611832D01*
X143109974Y-70630552D01*
X143121956Y-70650543D01*
X143131921Y-70671613D01*
X143139773Y-70693557D01*
X143145437Y-70716166D01*
X143148856Y-70739221D01*
X143150000Y-70762500D01*
X143150000Y-71237500D01*
X143148856Y-71260779D01*
X143145437Y-71283834D01*
X143139773Y-71306443D01*
X143131921Y-71328387D01*
X143121956Y-71349457D01*
X143109974Y-71369448D01*
X143096090Y-71388168D01*
X143080438Y-71405438D01*
X143063168Y-71421090D01*
X143044448Y-71434974D01*
X143024457Y-71446956D01*
X143003387Y-71456921D01*
X142981443Y-71464773D01*
X142958834Y-71470437D01*
X142935779Y-71473856D01*
X142912500Y-71475000D01*
X142337500Y-71475000D01*
X142314221Y-71473856D01*
X142291166Y-71470437D01*
X142268557Y-71464773D01*
X142246613Y-71456921D01*
X142225543Y-71446956D01*
X142205552Y-71434974D01*
X142186832Y-71421090D01*
X142169562Y-71405438D01*
X142153910Y-71388168D01*
X142140026Y-71369448D01*
X142128044Y-71349457D01*
X142118079Y-71328387D01*
X142110227Y-71306443D01*
X142104563Y-71283834D01*
X142101144Y-71260779D01*
X142100000Y-71237500D01*
X142100000Y-70762500D01*
X142101144Y-70739221D01*
X142104563Y-70716166D01*
X142110227Y-70693557D01*
X142118079Y-70671613D01*
X142128044Y-70650543D01*
X142140026Y-70630552D01*
X142153910Y-70611832D01*
X142169562Y-70594562D01*
X142186832Y-70578910D01*
X142205552Y-70565026D01*
X142225543Y-70553044D01*
X142246613Y-70543079D01*
X142268557Y-70535227D01*
X142291166Y-70529563D01*
X142314221Y-70526144D01*
X142337500Y-70525000D01*
X142912500Y-70525000D01*
X142935779Y-70526144D01*
X142935779Y-70526144D01*
G37*
D16*
X142625000Y-71000000D03*
D13*
G36*
X141185779Y-70526144D02*
G01*
X141208834Y-70529563D01*
X141231443Y-70535227D01*
X141253387Y-70543079D01*
X141274457Y-70553044D01*
X141294448Y-70565026D01*
X141313168Y-70578910D01*
X141330438Y-70594562D01*
X141346090Y-70611832D01*
X141359974Y-70630552D01*
X141371956Y-70650543D01*
X141381921Y-70671613D01*
X141389773Y-70693557D01*
X141395437Y-70716166D01*
X141398856Y-70739221D01*
X141400000Y-70762500D01*
X141400000Y-71237500D01*
X141398856Y-71260779D01*
X141395437Y-71283834D01*
X141389773Y-71306443D01*
X141381921Y-71328387D01*
X141371956Y-71349457D01*
X141359974Y-71369448D01*
X141346090Y-71388168D01*
X141330438Y-71405438D01*
X141313168Y-71421090D01*
X141294448Y-71434974D01*
X141274457Y-71446956D01*
X141253387Y-71456921D01*
X141231443Y-71464773D01*
X141208834Y-71470437D01*
X141185779Y-71473856D01*
X141162500Y-71475000D01*
X140587500Y-71475000D01*
X140564221Y-71473856D01*
X140541166Y-71470437D01*
X140518557Y-71464773D01*
X140496613Y-71456921D01*
X140475543Y-71446956D01*
X140455552Y-71434974D01*
X140436832Y-71421090D01*
X140419562Y-71405438D01*
X140403910Y-71388168D01*
X140390026Y-71369448D01*
X140378044Y-71349457D01*
X140368079Y-71328387D01*
X140360227Y-71306443D01*
X140354563Y-71283834D01*
X140351144Y-71260779D01*
X140350000Y-71237500D01*
X140350000Y-70762500D01*
X140351144Y-70739221D01*
X140354563Y-70716166D01*
X140360227Y-70693557D01*
X140368079Y-70671613D01*
X140378044Y-70650543D01*
X140390026Y-70630552D01*
X140403910Y-70611832D01*
X140419562Y-70594562D01*
X140436832Y-70578910D01*
X140455552Y-70565026D01*
X140475543Y-70553044D01*
X140496613Y-70543079D01*
X140518557Y-70535227D01*
X140541166Y-70529563D01*
X140564221Y-70526144D01*
X140587500Y-70525000D01*
X141162500Y-70525000D01*
X141185779Y-70526144D01*
X141185779Y-70526144D01*
G37*
D16*
X140875000Y-71000000D03*
D13*
G36*
X133260779Y-64851144D02*
G01*
X133283834Y-64854563D01*
X133306443Y-64860227D01*
X133328387Y-64868079D01*
X133349457Y-64878044D01*
X133369448Y-64890026D01*
X133388168Y-64903910D01*
X133405438Y-64919562D01*
X133421090Y-64936832D01*
X133434974Y-64955552D01*
X133446956Y-64975543D01*
X133456921Y-64996613D01*
X133464773Y-65018557D01*
X133470437Y-65041166D01*
X133473856Y-65064221D01*
X133475000Y-65087500D01*
X133475000Y-65662500D01*
X133473856Y-65685779D01*
X133470437Y-65708834D01*
X133464773Y-65731443D01*
X133456921Y-65753387D01*
X133446956Y-65774457D01*
X133434974Y-65794448D01*
X133421090Y-65813168D01*
X133405438Y-65830438D01*
X133388168Y-65846090D01*
X133369448Y-65859974D01*
X133349457Y-65871956D01*
X133328387Y-65881921D01*
X133306443Y-65889773D01*
X133283834Y-65895437D01*
X133260779Y-65898856D01*
X133237500Y-65900000D01*
X132762500Y-65900000D01*
X132739221Y-65898856D01*
X132716166Y-65895437D01*
X132693557Y-65889773D01*
X132671613Y-65881921D01*
X132650543Y-65871956D01*
X132630552Y-65859974D01*
X132611832Y-65846090D01*
X132594562Y-65830438D01*
X132578910Y-65813168D01*
X132565026Y-65794448D01*
X132553044Y-65774457D01*
X132543079Y-65753387D01*
X132535227Y-65731443D01*
X132529563Y-65708834D01*
X132526144Y-65685779D01*
X132525000Y-65662500D01*
X132525000Y-65087500D01*
X132526144Y-65064221D01*
X132529563Y-65041166D01*
X132535227Y-65018557D01*
X132543079Y-64996613D01*
X132553044Y-64975543D01*
X132565026Y-64955552D01*
X132578910Y-64936832D01*
X132594562Y-64919562D01*
X132611832Y-64903910D01*
X132630552Y-64890026D01*
X132650543Y-64878044D01*
X132671613Y-64868079D01*
X132693557Y-64860227D01*
X132716166Y-64854563D01*
X132739221Y-64851144D01*
X132762500Y-64850000D01*
X133237500Y-64850000D01*
X133260779Y-64851144D01*
X133260779Y-64851144D01*
G37*
D16*
X133000000Y-65375000D03*
D13*
G36*
X133260779Y-66601144D02*
G01*
X133283834Y-66604563D01*
X133306443Y-66610227D01*
X133328387Y-66618079D01*
X133349457Y-66628044D01*
X133369448Y-66640026D01*
X133388168Y-66653910D01*
X133405438Y-66669562D01*
X133421090Y-66686832D01*
X133434974Y-66705552D01*
X133446956Y-66725543D01*
X133456921Y-66746613D01*
X133464773Y-66768557D01*
X133470437Y-66791166D01*
X133473856Y-66814221D01*
X133475000Y-66837500D01*
X133475000Y-67412500D01*
X133473856Y-67435779D01*
X133470437Y-67458834D01*
X133464773Y-67481443D01*
X133456921Y-67503387D01*
X133446956Y-67524457D01*
X133434974Y-67544448D01*
X133421090Y-67563168D01*
X133405438Y-67580438D01*
X133388168Y-67596090D01*
X133369448Y-67609974D01*
X133349457Y-67621956D01*
X133328387Y-67631921D01*
X133306443Y-67639773D01*
X133283834Y-67645437D01*
X133260779Y-67648856D01*
X133237500Y-67650000D01*
X132762500Y-67650000D01*
X132739221Y-67648856D01*
X132716166Y-67645437D01*
X132693557Y-67639773D01*
X132671613Y-67631921D01*
X132650543Y-67621956D01*
X132630552Y-67609974D01*
X132611832Y-67596090D01*
X132594562Y-67580438D01*
X132578910Y-67563168D01*
X132565026Y-67544448D01*
X132553044Y-67524457D01*
X132543079Y-67503387D01*
X132535227Y-67481443D01*
X132529563Y-67458834D01*
X132526144Y-67435779D01*
X132525000Y-67412500D01*
X132525000Y-66837500D01*
X132526144Y-66814221D01*
X132529563Y-66791166D01*
X132535227Y-66768557D01*
X132543079Y-66746613D01*
X132553044Y-66725543D01*
X132565026Y-66705552D01*
X132578910Y-66686832D01*
X132594562Y-66669562D01*
X132611832Y-66653910D01*
X132630552Y-66640026D01*
X132650543Y-66628044D01*
X132671613Y-66618079D01*
X132693557Y-66610227D01*
X132716166Y-66604563D01*
X132739221Y-66601144D01*
X132762500Y-66600000D01*
X133237500Y-66600000D01*
X133260779Y-66601144D01*
X133260779Y-66601144D01*
G37*
D16*
X133000000Y-67125000D03*
D13*
G36*
X142935779Y-72526144D02*
G01*
X142958834Y-72529563D01*
X142981443Y-72535227D01*
X143003387Y-72543079D01*
X143024457Y-72553044D01*
X143044448Y-72565026D01*
X143063168Y-72578910D01*
X143080438Y-72594562D01*
X143096090Y-72611832D01*
X143109974Y-72630552D01*
X143121956Y-72650543D01*
X143131921Y-72671613D01*
X143139773Y-72693557D01*
X143145437Y-72716166D01*
X143148856Y-72739221D01*
X143150000Y-72762500D01*
X143150000Y-73237500D01*
X143148856Y-73260779D01*
X143145437Y-73283834D01*
X143139773Y-73306443D01*
X143131921Y-73328387D01*
X143121956Y-73349457D01*
X143109974Y-73369448D01*
X143096090Y-73388168D01*
X143080438Y-73405438D01*
X143063168Y-73421090D01*
X143044448Y-73434974D01*
X143024457Y-73446956D01*
X143003387Y-73456921D01*
X142981443Y-73464773D01*
X142958834Y-73470437D01*
X142935779Y-73473856D01*
X142912500Y-73475000D01*
X142337500Y-73475000D01*
X142314221Y-73473856D01*
X142291166Y-73470437D01*
X142268557Y-73464773D01*
X142246613Y-73456921D01*
X142225543Y-73446956D01*
X142205552Y-73434974D01*
X142186832Y-73421090D01*
X142169562Y-73405438D01*
X142153910Y-73388168D01*
X142140026Y-73369448D01*
X142128044Y-73349457D01*
X142118079Y-73328387D01*
X142110227Y-73306443D01*
X142104563Y-73283834D01*
X142101144Y-73260779D01*
X142100000Y-73237500D01*
X142100000Y-72762500D01*
X142101144Y-72739221D01*
X142104563Y-72716166D01*
X142110227Y-72693557D01*
X142118079Y-72671613D01*
X142128044Y-72650543D01*
X142140026Y-72630552D01*
X142153910Y-72611832D01*
X142169562Y-72594562D01*
X142186832Y-72578910D01*
X142205552Y-72565026D01*
X142225543Y-72553044D01*
X142246613Y-72543079D01*
X142268557Y-72535227D01*
X142291166Y-72529563D01*
X142314221Y-72526144D01*
X142337500Y-72525000D01*
X142912500Y-72525000D01*
X142935779Y-72526144D01*
X142935779Y-72526144D01*
G37*
D16*
X142625000Y-73000000D03*
D13*
G36*
X141185779Y-72526144D02*
G01*
X141208834Y-72529563D01*
X141231443Y-72535227D01*
X141253387Y-72543079D01*
X141274457Y-72553044D01*
X141294448Y-72565026D01*
X141313168Y-72578910D01*
X141330438Y-72594562D01*
X141346090Y-72611832D01*
X141359974Y-72630552D01*
X141371956Y-72650543D01*
X141381921Y-72671613D01*
X141389773Y-72693557D01*
X141395437Y-72716166D01*
X141398856Y-72739221D01*
X141400000Y-72762500D01*
X141400000Y-73237500D01*
X141398856Y-73260779D01*
X141395437Y-73283834D01*
X141389773Y-73306443D01*
X141381921Y-73328387D01*
X141371956Y-73349457D01*
X141359974Y-73369448D01*
X141346090Y-73388168D01*
X141330438Y-73405438D01*
X141313168Y-73421090D01*
X141294448Y-73434974D01*
X141274457Y-73446956D01*
X141253387Y-73456921D01*
X141231443Y-73464773D01*
X141208834Y-73470437D01*
X141185779Y-73473856D01*
X141162500Y-73475000D01*
X140587500Y-73475000D01*
X140564221Y-73473856D01*
X140541166Y-73470437D01*
X140518557Y-73464773D01*
X140496613Y-73456921D01*
X140475543Y-73446956D01*
X140455552Y-73434974D01*
X140436832Y-73421090D01*
X140419562Y-73405438D01*
X140403910Y-73388168D01*
X140390026Y-73369448D01*
X140378044Y-73349457D01*
X140368079Y-73328387D01*
X140360227Y-73306443D01*
X140354563Y-73283834D01*
X140351144Y-73260779D01*
X140350000Y-73237500D01*
X140350000Y-72762500D01*
X140351144Y-72739221D01*
X140354563Y-72716166D01*
X140360227Y-72693557D01*
X140368079Y-72671613D01*
X140378044Y-72650543D01*
X140390026Y-72630552D01*
X140403910Y-72611832D01*
X140419562Y-72594562D01*
X140436832Y-72578910D01*
X140455552Y-72565026D01*
X140475543Y-72553044D01*
X140496613Y-72543079D01*
X140518557Y-72535227D01*
X140541166Y-72529563D01*
X140564221Y-72526144D01*
X140587500Y-72525000D01*
X141162500Y-72525000D01*
X141185779Y-72526144D01*
X141185779Y-72526144D01*
G37*
D16*
X140875000Y-73000000D03*
D19*
X145500000Y-73000000D03*
X148500000Y-73500000D03*
X150250000Y-73500000D03*
X144250000Y-73500000D03*
X144250000Y-72500000D03*
X144250000Y-71500000D03*
D20*
X135250000Y-66000000D03*
X136500000Y-68500000D03*
D19*
X139000000Y-69750000D03*
D20*
X135250000Y-66750000D03*
D19*
X131500000Y-72000000D03*
D21*
X150250000Y-75125000D02*
X150250000Y-73500000D01*
X148500000Y-75125000D02*
X148500000Y-73500000D01*
X148500000Y-73500000D02*
X148500000Y-73500000D01*
X150250000Y-73500000D02*
X150250000Y-73500000D01*
X138100000Y-67400000D02*
X139500000Y-66000000D01*
X137150000Y-67400000D02*
X138100000Y-67400000D01*
X140100000Y-66600000D02*
X139500000Y-66000000D01*
X137150000Y-66600000D02*
X136350000Y-66600000D01*
X136150000Y-66600000D02*
X136350000Y-66600000D01*
X135450000Y-67300000D02*
X135250000Y-67500000D01*
X140900000Y-64600000D02*
X139500000Y-66000000D01*
X140900000Y-63650000D02*
X140900000Y-64600000D01*
X135450000Y-67300000D02*
X136150000Y-66600000D01*
X135250000Y-67500000D02*
X134500000Y-67500000D01*
X141850000Y-70225000D02*
X142625000Y-71000000D01*
X138900000Y-66600000D02*
X139500000Y-66000000D01*
X137150000Y-66600000D02*
X138900000Y-66600000D01*
X140100000Y-68350000D02*
X140100000Y-69600000D01*
X140100000Y-69600000D02*
X140500000Y-70000000D01*
X141625000Y-70000000D02*
X141850000Y-70225000D01*
X140500000Y-70000000D02*
X141625000Y-70000000D01*
D22*
X140875000Y-71000000D02*
X140875000Y-73000000D01*
D21*
X137150000Y-65400000D02*
X135350000Y-65400000D01*
X132750000Y-71125000D02*
X134750000Y-71125000D01*
X134875000Y-71000000D02*
X134750000Y-71125000D01*
X139700000Y-68350000D02*
X139700000Y-70425000D01*
D22*
X140875000Y-71000000D02*
X140250000Y-71000000D01*
X139700000Y-70450000D02*
X139700000Y-70425000D01*
X140250000Y-71000000D02*
X139700000Y-70450000D01*
X141410000Y-74500000D02*
X142910000Y-76000000D01*
X140875000Y-73000000D02*
X140875000Y-73965000D01*
X140875000Y-73965000D02*
X141410000Y-74500000D01*
X135350000Y-65400000D02*
X135325000Y-65375000D01*
X135325000Y-65375000D02*
X133000000Y-65375000D01*
X131375000Y-65375000D02*
X133000000Y-65375000D01*
X130500000Y-66250000D02*
X131375000Y-65375000D01*
X132750000Y-76000000D02*
X131500000Y-76000000D01*
X131500000Y-76000000D02*
X130500000Y-75000000D01*
D21*
X130625000Y-71125000D02*
X130500000Y-71250000D01*
X132750000Y-71125000D02*
X130625000Y-71125000D01*
D22*
X130500000Y-75000000D02*
X130500000Y-71250000D01*
X130500000Y-71250000D02*
X130500000Y-66250000D01*
D21*
X150250000Y-76875000D02*
X148500000Y-76875000D01*
X135424992Y-65825008D02*
X135250000Y-66000000D01*
X136324992Y-65825008D02*
X135424992Y-65825008D01*
X136350000Y-65800000D02*
X136324992Y-65825008D01*
X137150000Y-65800000D02*
X136350000Y-65800000D01*
X148500000Y-76875000D02*
X147625000Y-77750000D01*
X142120000Y-77750000D02*
X140370000Y-76000000D01*
X147625000Y-77750000D02*
X142120000Y-77750000D01*
X137000000Y-69000000D02*
X136500000Y-68500000D01*
X140370000Y-76000000D02*
X137000000Y-72630000D01*
X137000000Y-72630000D02*
X137000000Y-69000000D01*
D22*
X131500000Y-36500000D02*
X133310000Y-34690000D01*
X133310000Y-34690000D02*
X133310000Y-34000000D01*
X129500000Y-52000000D02*
X128000000Y-50500000D01*
X128000000Y-50500000D02*
X128000000Y-37500000D01*
X128000000Y-37500000D02*
X129000000Y-36500000D01*
X129500000Y-52125000D02*
X129500000Y-52000000D01*
X129000000Y-36500000D02*
X131500000Y-36500000D01*
X132500000Y-32000000D02*
X132040000Y-32460000D01*
X133500000Y-32000000D02*
X132500000Y-32000000D01*
X134500000Y-33000000D02*
X133500000Y-32000000D01*
X130500000Y-51500000D02*
X128500000Y-49500000D01*
X128500000Y-49500000D02*
X128500000Y-38500000D01*
X131500000Y-38000000D02*
X134500000Y-35000000D01*
X130500000Y-55875000D02*
X130500000Y-51500000D01*
X132040000Y-32460000D02*
X132040000Y-34000000D01*
X134500000Y-35000000D02*
X134500000Y-33000000D01*
X128500000Y-38500000D02*
X129000000Y-38000000D01*
X129000000Y-38000000D02*
X131500000Y-38000000D01*
D21*
X139300000Y-68350000D02*
X139300000Y-69450000D01*
X139300000Y-69450000D02*
X139000000Y-69750000D01*
X139000000Y-69750000D02*
X139000000Y-69750000D01*
D22*
X128500000Y-55875000D02*
X128500000Y-54500000D01*
X128500000Y-54500000D02*
X127500000Y-53500000D01*
X127500000Y-36000000D02*
X129500000Y-34000000D01*
X127500000Y-53500000D02*
X127500000Y-36000000D01*
X133500000Y-42190000D02*
X133310000Y-42000000D01*
X133500000Y-52125000D02*
X133500000Y-42190000D01*
X132040000Y-40460000D02*
X132040000Y-42000000D01*
X132500000Y-40000000D02*
X132040000Y-40460000D01*
X133500000Y-40000000D02*
X132500000Y-40000000D01*
X134500000Y-55875000D02*
X134500000Y-41000000D01*
X134500000Y-41000000D02*
X133500000Y-40000000D01*
X132500000Y-55875000D02*
X132500000Y-52000000D01*
X129500000Y-49000000D02*
X129500000Y-42000000D01*
X132500000Y-52000000D02*
X129500000Y-49000000D01*
X141310000Y-34690000D02*
X141310000Y-34000000D01*
X139500000Y-36500000D02*
X141310000Y-34690000D01*
X137000000Y-36500000D02*
X139500000Y-36500000D01*
X137500000Y-50500000D02*
X135500000Y-48500000D01*
X137500000Y-52125000D02*
X137500000Y-50500000D01*
X135500000Y-48500000D02*
X135500000Y-38000000D01*
X135500000Y-38000000D02*
X137000000Y-36500000D01*
X140500000Y-32000000D02*
X140040000Y-32460000D01*
X142500000Y-35000000D02*
X142500000Y-33000000D01*
X139500000Y-38000000D02*
X142500000Y-35000000D01*
X138500000Y-50500000D02*
X136000000Y-48000000D01*
X142500000Y-33000000D02*
X141500000Y-32000000D01*
X138500000Y-55875000D02*
X138500000Y-50500000D01*
X141500000Y-32000000D02*
X140500000Y-32000000D01*
X136000000Y-39000000D02*
X137000000Y-38000000D01*
X136000000Y-48000000D02*
X136000000Y-39000000D01*
X137000000Y-38000000D02*
X139500000Y-38000000D01*
X140040000Y-32460000D02*
X140040000Y-34000000D01*
X135500000Y-36000000D02*
X137500000Y-34000000D01*
X135000000Y-36500000D02*
X135500000Y-36000000D01*
X135000000Y-49000000D02*
X135000000Y-36500000D01*
X136500000Y-55875000D02*
X136500000Y-50500000D01*
X136500000Y-50500000D02*
X135000000Y-49000000D01*
X141500000Y-52125000D02*
X141500000Y-42190000D01*
X142500000Y-55875000D02*
X142500000Y-41000000D01*
X140500000Y-40000000D02*
X140040000Y-40460000D01*
X140040000Y-40460000D02*
X140040000Y-42000000D01*
X142500000Y-41000000D02*
X141500000Y-40000000D01*
X141500000Y-40000000D02*
X140500000Y-40000000D01*
X140500000Y-55875000D02*
X140500000Y-51250000D01*
X140500000Y-51250000D02*
X137500000Y-48250000D01*
X137500000Y-48250000D02*
X137500000Y-42000000D01*
X147500000Y-36500000D02*
X149310000Y-34690000D01*
X145000000Y-36500000D02*
X147500000Y-36500000D01*
X143500000Y-38000000D02*
X145000000Y-36500000D01*
X149310000Y-34690000D02*
X149310000Y-34000000D01*
X145500000Y-52125000D02*
X145500000Y-51000000D01*
X143500000Y-49000000D02*
X143500000Y-48000000D01*
X145500000Y-51000000D02*
X143500000Y-49000000D01*
X143500000Y-48500000D02*
X143500000Y-48000000D01*
X143500000Y-48000000D02*
X143500000Y-38000000D01*
X148500000Y-32000000D02*
X148040000Y-32460000D01*
X149500000Y-32000000D02*
X148500000Y-32000000D01*
X147500000Y-38000000D02*
X150500000Y-35000000D01*
X150500000Y-33000000D02*
X149500000Y-32000000D01*
X146500000Y-51000000D02*
X144000000Y-48500000D01*
X146500000Y-55875000D02*
X146500000Y-51000000D01*
X148040000Y-32460000D02*
X148040000Y-34000000D01*
X144000000Y-48500000D02*
X144000000Y-39000000D01*
X144000000Y-39000000D02*
X145000000Y-38000000D01*
X150500000Y-35000000D02*
X150500000Y-33000000D01*
X145000000Y-38000000D02*
X147500000Y-38000000D01*
X143000000Y-49500000D02*
X143000000Y-36500000D01*
X143500000Y-36000000D02*
X145500000Y-34000000D01*
X143000000Y-36500000D02*
X143500000Y-36000000D01*
X144500000Y-51000000D02*
X143000000Y-49500000D01*
X144500000Y-55875000D02*
X144500000Y-51000000D01*
X149500000Y-52125000D02*
X149500000Y-42190000D01*
X150500000Y-55875000D02*
X150500000Y-41000000D01*
X148500000Y-40000000D02*
X148040000Y-40460000D01*
X148040000Y-40460000D02*
X148040000Y-42000000D01*
X150500000Y-41000000D02*
X149500000Y-40000000D01*
X149500000Y-40000000D02*
X148500000Y-40000000D01*
X148500000Y-52000000D02*
X145500000Y-49000000D01*
X148500000Y-55875000D02*
X148500000Y-52000000D01*
X145500000Y-49000000D02*
X145500000Y-42000000D01*
D21*
X132750000Y-73460000D02*
X132750000Y-72875000D01*
X135290000Y-76000000D02*
X132750000Y-73460000D01*
X135800000Y-66200000D02*
X135250000Y-66750000D01*
X137150000Y-66200000D02*
X135800000Y-66200000D01*
X131875000Y-72000000D02*
X132750000Y-72875000D01*
X131500000Y-72000000D02*
X131875000Y-72000000D01*
X134750000Y-72920000D02*
X134750000Y-72875000D01*
X137830000Y-76000000D02*
X134750000Y-72920000D01*
X135750000Y-71875000D02*
X134750000Y-72875000D01*
X135750000Y-67494988D02*
X135750000Y-71875000D01*
X137150000Y-67000000D02*
X136244988Y-67000000D01*
X136244988Y-67000000D02*
X135750000Y-67494988D01*
X140875000Y-69625000D02*
X145750000Y-69625000D01*
X140500000Y-68350000D02*
X140500000Y-69250000D01*
X140500000Y-69250000D02*
X140875000Y-69625000D01*
X137150000Y-65000000D02*
X136450000Y-65000000D01*
X136450000Y-65000000D02*
X135750000Y-65000000D01*
X135750000Y-65000000D02*
X135250000Y-64500000D01*
D22*
X128500000Y-57750000D02*
X128500000Y-57625000D01*
X135250000Y-64500000D02*
X128500000Y-57750000D01*
D21*
X137150000Y-64600000D02*
X136100000Y-64600000D01*
X136100000Y-64600000D02*
X135750000Y-64250000D01*
D22*
X135750000Y-64250000D02*
X129500000Y-58000000D01*
X129500000Y-58000000D02*
X129500000Y-53875000D01*
D21*
X138100000Y-63650000D02*
X137150000Y-63650000D01*
D22*
X137150000Y-63650000D02*
X135857120Y-63650000D01*
X130500000Y-58292880D02*
X130500000Y-57625000D01*
X135857120Y-63650000D02*
X130500000Y-58292880D01*
D21*
X138500000Y-63650000D02*
X138500000Y-62500000D01*
X138500000Y-62500000D02*
X138250000Y-62250000D01*
X138250000Y-62250000D02*
X138000000Y-62000000D01*
D22*
X138000000Y-62000000D02*
X137750000Y-61750000D01*
X136625008Y-61750008D02*
X132500000Y-57625000D01*
X136625016Y-61750000D02*
X136625008Y-61750008D01*
X137750000Y-61750000D02*
X136625016Y-61750000D01*
D21*
X138850010Y-63550010D02*
X138850010Y-62350010D01*
X138900000Y-63650000D02*
X138900000Y-63600000D01*
X138900000Y-63600000D02*
X138850010Y-63550010D01*
X138850010Y-62350010D02*
X138850010Y-62100010D01*
D22*
X136832120Y-61250000D02*
X133500000Y-57917880D01*
X138000000Y-61250000D02*
X136832120Y-61250000D01*
X133500000Y-57917880D02*
X133500000Y-53875000D01*
D21*
X138850010Y-62100010D02*
X138500000Y-61750000D01*
D22*
X138000000Y-61250000D02*
X138500000Y-61750000D01*
D21*
X139300000Y-63650000D02*
X139300000Y-61550000D01*
X139300000Y-61550000D02*
X138750000Y-61000000D01*
D22*
X138499990Y-60749990D02*
X137039230Y-60749990D01*
X138750000Y-61000000D02*
X138499990Y-60749990D01*
X134500000Y-58210760D02*
X134500000Y-57625000D01*
X137039230Y-60749990D02*
X134500000Y-58210760D01*
D21*
X139700000Y-63650000D02*
X139700000Y-60950000D01*
X139700000Y-60950000D02*
X139000000Y-60250000D01*
D22*
X136500000Y-57750000D02*
X136500000Y-57625000D01*
X139000000Y-60250000D02*
X136500000Y-57750000D01*
D21*
X140100000Y-63650000D02*
X140100000Y-61151054D01*
X140100000Y-61151054D02*
X140100000Y-60600000D01*
D22*
X137500000Y-58000000D02*
X137500000Y-53875000D01*
D21*
X140100000Y-60600000D02*
X139750000Y-60250000D01*
D22*
X139750000Y-60250000D02*
X137500000Y-58000000D01*
D21*
X140500000Y-63650000D02*
X140500000Y-60250000D01*
X140500000Y-60250000D02*
X140000000Y-59750000D01*
D22*
X138500000Y-58250000D02*
X138500000Y-57625000D01*
X140000000Y-59750000D02*
X138500000Y-58250000D01*
D21*
X141850000Y-64600000D02*
X141850000Y-63600000D01*
D22*
X141850000Y-63600000D02*
X141850000Y-60850000D01*
X140500000Y-59500000D02*
X140500000Y-57625000D01*
X141850000Y-60850000D02*
X140500000Y-59500000D01*
D21*
X141850000Y-65000000D02*
X142550000Y-65000000D01*
X142550000Y-65000000D02*
X142750000Y-65000000D01*
X142750000Y-65000000D02*
X143000000Y-65000000D01*
X143000000Y-65000000D02*
X143250000Y-64750000D01*
D22*
X143250000Y-64250000D02*
X142350010Y-63350010D01*
X142350010Y-60642890D02*
X141500000Y-59792880D01*
X143250000Y-64750000D02*
X143250000Y-64250000D01*
X141500000Y-58250000D02*
X141500000Y-53875000D01*
X142350010Y-63350010D02*
X142350010Y-60642890D01*
X141500000Y-59792880D02*
X141500000Y-58250000D01*
D21*
X141850000Y-65400000D02*
X143600000Y-65400000D01*
X143600000Y-65400000D02*
X144000000Y-65000000D01*
D22*
X144000000Y-65000000D02*
X144000000Y-64292880D01*
X144000000Y-64292880D02*
X142850020Y-63142900D01*
X142850020Y-60435780D02*
X142500000Y-60085760D01*
X142850020Y-63142900D02*
X142850020Y-60435780D01*
X142500000Y-60085760D02*
X142500000Y-57625000D01*
D21*
X141850000Y-65800000D02*
X144200000Y-65800000D01*
X144200000Y-65800000D02*
X144500000Y-65500000D01*
D22*
X144500000Y-65500000D02*
X144500000Y-57625000D01*
D21*
X141850000Y-66200000D02*
X144800000Y-66200000D01*
X144800000Y-66200000D02*
X145000000Y-66000000D01*
D22*
X145000000Y-66000000D02*
X145000000Y-59750000D01*
X145000000Y-59750000D02*
X145500000Y-59250000D01*
X145500000Y-59250000D02*
X145500000Y-53875000D01*
D21*
X141850000Y-66600000D02*
X145150000Y-66600000D01*
X145150000Y-66600000D02*
X145500000Y-66250000D01*
D22*
X146500000Y-58957120D02*
X146500000Y-57625000D01*
X145500000Y-59957120D02*
X146500000Y-58957120D01*
X145500000Y-66250000D02*
X145500000Y-59957120D01*
D21*
X141850000Y-67000000D02*
X145750000Y-67000000D01*
X145750000Y-67000000D02*
X146250000Y-66500000D01*
D22*
X148500000Y-64250000D02*
X148500000Y-57625000D01*
X146250000Y-66500000D02*
X148500000Y-64250000D01*
D21*
X141850000Y-67400000D02*
X145700010Y-67400000D01*
X145700010Y-67400000D02*
X145900000Y-67400000D01*
X145900000Y-67400000D02*
X146150000Y-67400000D01*
D22*
X146150000Y-67350000D02*
X147500000Y-66000000D01*
X147500000Y-66000000D02*
X149000000Y-64500000D01*
X149000000Y-64500000D02*
X149000000Y-64457120D01*
X149000000Y-64500000D02*
X149000000Y-59500000D01*
X149000000Y-59500000D02*
X149500000Y-59000000D01*
X149500000Y-55589844D02*
X149500000Y-53875000D01*
X149500000Y-59000000D02*
X149500000Y-55589844D01*
D21*
X140900000Y-68350000D02*
X142650000Y-68350000D01*
D22*
X145857120Y-68350000D02*
X149500010Y-64707110D01*
X142650000Y-68350000D02*
X145857120Y-68350000D01*
X150500000Y-58707120D02*
X150500000Y-57625000D01*
X149500010Y-59707110D02*
X150500000Y-58707120D01*
X149500010Y-64707110D02*
X149500010Y-59707110D01*
D23*
G36*
X131899188Y-66475518D02*
G01*
X131886928Y-66600000D01*
X131890000Y-66839250D01*
X132048750Y-66998000D01*
X132873000Y-66998000D01*
X132873000Y-66978000D01*
X133127000Y-66978000D01*
X133127000Y-66998000D01*
X133951250Y-66998000D01*
X134110000Y-66839250D01*
X134113072Y-66600000D01*
X134100812Y-66475518D01*
X134070927Y-66377000D01*
X134186500Y-66377000D01*
X134332228Y-66571303D01*
X134315000Y-66657911D01*
X134315000Y-66842089D01*
X134350932Y-67022729D01*
X134421414Y-67192889D01*
X134523738Y-67346028D01*
X134653972Y-67476262D01*
X134807111Y-67578586D01*
X134873000Y-67605878D01*
X134873000Y-68873000D01*
X131877000Y-68873000D01*
X131877000Y-67650000D01*
X131886928Y-67650000D01*
X131899188Y-67774482D01*
X131935498Y-67894180D01*
X131994463Y-68004494D01*
X132073815Y-68101185D01*
X132170506Y-68180537D01*
X132280820Y-68239502D01*
X132400518Y-68275812D01*
X132525000Y-68288072D01*
X132714250Y-68285000D01*
X132873000Y-68126250D01*
X132873000Y-67252000D01*
X133127000Y-67252000D01*
X133127000Y-68126250D01*
X133285750Y-68285000D01*
X133475000Y-68288072D01*
X133599482Y-68275812D01*
X133719180Y-68239502D01*
X133829494Y-68180537D01*
X133926185Y-68101185D01*
X134005537Y-68004494D01*
X134064502Y-67894180D01*
X134100812Y-67774482D01*
X134113072Y-67650000D01*
X134110000Y-67410750D01*
X133951250Y-67252000D01*
X133127000Y-67252000D01*
X132873000Y-67252000D01*
X132048750Y-67252000D01*
X131890000Y-67410750D01*
X131886928Y-67650000D01*
X131877000Y-67650000D01*
X131877000Y-66377000D01*
X131929073Y-66377000D01*
X131899188Y-66475518D01*
X131899188Y-66475518D01*
G37*
X131899188Y-66475518D02*
X131886928Y-66600000D01*
X131890000Y-66839250D01*
X132048750Y-66998000D01*
X132873000Y-66998000D01*
X132873000Y-66978000D01*
X133127000Y-66978000D01*
X133127000Y-66998000D01*
X133951250Y-66998000D01*
X134110000Y-66839250D01*
X134113072Y-66600000D01*
X134100812Y-66475518D01*
X134070927Y-66377000D01*
X134186500Y-66377000D01*
X134332228Y-66571303D01*
X134315000Y-66657911D01*
X134315000Y-66842089D01*
X134350932Y-67022729D01*
X134421414Y-67192889D01*
X134523738Y-67346028D01*
X134653972Y-67476262D01*
X134807111Y-67578586D01*
X134873000Y-67605878D01*
X134873000Y-68873000D01*
X131877000Y-68873000D01*
X131877000Y-67650000D01*
X131886928Y-67650000D01*
X131899188Y-67774482D01*
X131935498Y-67894180D01*
X131994463Y-68004494D01*
X132073815Y-68101185D01*
X132170506Y-68180537D01*
X132280820Y-68239502D01*
X132400518Y-68275812D01*
X132525000Y-68288072D01*
X132714250Y-68285000D01*
X132873000Y-68126250D01*
X132873000Y-67252000D01*
X133127000Y-67252000D01*
X133127000Y-68126250D01*
X133285750Y-68285000D01*
X133475000Y-68288072D01*
X133599482Y-68275812D01*
X133719180Y-68239502D01*
X133829494Y-68180537D01*
X133926185Y-68101185D01*
X134005537Y-68004494D01*
X134064502Y-67894180D01*
X134100812Y-67774482D01*
X134113072Y-67650000D01*
X134110000Y-67410750D01*
X133951250Y-67252000D01*
X133127000Y-67252000D01*
X132873000Y-67252000D01*
X132048750Y-67252000D01*
X131890000Y-67410750D01*
X131886928Y-67650000D01*
X131877000Y-67650000D01*
X131877000Y-66377000D01*
X131929073Y-66377000D01*
X131899188Y-66475518D01*
G36*
X144649188Y-70725518D02*
G01*
X144636928Y-70850000D01*
X144640000Y-71089250D01*
X144798750Y-71248000D01*
X145623000Y-71248000D01*
X145623000Y-71228000D01*
X145877000Y-71228000D01*
X145877000Y-71248000D01*
X145897000Y-71248000D01*
X145897000Y-71502000D01*
X145877000Y-71502000D01*
X145877000Y-72376250D01*
X146035750Y-72535000D01*
X146225000Y-72538072D01*
X146349482Y-72525812D01*
X146373000Y-72518678D01*
X146373000Y-74123000D01*
X142213867Y-74123000D01*
X142202621Y-74111754D01*
X142339250Y-74110000D01*
X142498000Y-73951250D01*
X142498000Y-73127000D01*
X142752000Y-73127000D01*
X142752000Y-73951250D01*
X142910750Y-74110000D01*
X143150000Y-74113072D01*
X143274482Y-74100812D01*
X143394180Y-74064502D01*
X143504494Y-74005537D01*
X143601185Y-73926185D01*
X143680537Y-73829494D01*
X143739502Y-73719180D01*
X143775812Y-73599482D01*
X143788072Y-73475000D01*
X143785000Y-73285750D01*
X143626250Y-73127000D01*
X142752000Y-73127000D01*
X142498000Y-73127000D01*
X142478000Y-73127000D01*
X142478000Y-72873000D01*
X142498000Y-72873000D01*
X142498000Y-72048750D01*
X142449250Y-72000000D01*
X142498000Y-71951250D01*
X142498000Y-71127000D01*
X142752000Y-71127000D01*
X142752000Y-71951250D01*
X142800750Y-72000000D01*
X142752000Y-72048750D01*
X142752000Y-72873000D01*
X143626250Y-72873000D01*
X143785000Y-72714250D01*
X143788072Y-72525000D01*
X143775812Y-72400518D01*
X143739502Y-72280820D01*
X143680537Y-72170506D01*
X143601185Y-72073815D01*
X143511241Y-72000000D01*
X143601185Y-71926185D01*
X143622674Y-71900000D01*
X144636928Y-71900000D01*
X144649188Y-72024482D01*
X144685498Y-72144180D01*
X144744463Y-72254494D01*
X144823815Y-72351185D01*
X144920506Y-72430537D01*
X145030820Y-72489502D01*
X145150518Y-72525812D01*
X145275000Y-72538072D01*
X145464250Y-72535000D01*
X145623000Y-72376250D01*
X145623000Y-71502000D01*
X144798750Y-71502000D01*
X144640000Y-71660750D01*
X144636928Y-71900000D01*
X143622674Y-71900000D01*
X143680537Y-71829494D01*
X143739502Y-71719180D01*
X143775812Y-71599482D01*
X143788072Y-71475000D01*
X143785000Y-71285750D01*
X143626250Y-71127000D01*
X142752000Y-71127000D01*
X142498000Y-71127000D01*
X142478000Y-71127000D01*
X142478000Y-70873000D01*
X142498000Y-70873000D01*
X142498000Y-70853000D01*
X142752000Y-70853000D01*
X142752000Y-70873000D01*
X143626250Y-70873000D01*
X143785000Y-70714250D01*
X143786416Y-70627000D01*
X144679073Y-70627000D01*
X144649188Y-70725518D01*
X144649188Y-70725518D01*
G37*
X144649188Y-70725518D02*
X144636928Y-70850000D01*
X144640000Y-71089250D01*
X144798750Y-71248000D01*
X145623000Y-71248000D01*
X145623000Y-71228000D01*
X145877000Y-71228000D01*
X145877000Y-71248000D01*
X145897000Y-71248000D01*
X145897000Y-71502000D01*
X145877000Y-71502000D01*
X145877000Y-72376250D01*
X146035750Y-72535000D01*
X146225000Y-72538072D01*
X146349482Y-72525812D01*
X146373000Y-72518678D01*
X146373000Y-74123000D01*
X142213867Y-74123000D01*
X142202621Y-74111754D01*
X142339250Y-74110000D01*
X142498000Y-73951250D01*
X142498000Y-73127000D01*
X142752000Y-73127000D01*
X142752000Y-73951250D01*
X142910750Y-74110000D01*
X143150000Y-74113072D01*
X143274482Y-74100812D01*
X143394180Y-74064502D01*
X143504494Y-74005537D01*
X143601185Y-73926185D01*
X143680537Y-73829494D01*
X143739502Y-73719180D01*
X143775812Y-73599482D01*
X143788072Y-73475000D01*
X143785000Y-73285750D01*
X143626250Y-73127000D01*
X142752000Y-73127000D01*
X142498000Y-73127000D01*
X142478000Y-73127000D01*
X142478000Y-72873000D01*
X142498000Y-72873000D01*
X142498000Y-72048750D01*
X142449250Y-72000000D01*
X142498000Y-71951250D01*
X142498000Y-71127000D01*
X142752000Y-71127000D01*
X142752000Y-71951250D01*
X142800750Y-72000000D01*
X142752000Y-72048750D01*
X142752000Y-72873000D01*
X143626250Y-72873000D01*
X143785000Y-72714250D01*
X143788072Y-72525000D01*
X143775812Y-72400518D01*
X143739502Y-72280820D01*
X143680537Y-72170506D01*
X143601185Y-72073815D01*
X143511241Y-72000000D01*
X143601185Y-71926185D01*
X143622674Y-71900000D01*
X144636928Y-71900000D01*
X144649188Y-72024482D01*
X144685498Y-72144180D01*
X144744463Y-72254494D01*
X144823815Y-72351185D01*
X144920506Y-72430537D01*
X145030820Y-72489502D01*
X145150518Y-72525812D01*
X145275000Y-72538072D01*
X145464250Y-72535000D01*
X145623000Y-72376250D01*
X145623000Y-71502000D01*
X144798750Y-71502000D01*
X144640000Y-71660750D01*
X144636928Y-71900000D01*
X143622674Y-71900000D01*
X143680537Y-71829494D01*
X143739502Y-71719180D01*
X143775812Y-71599482D01*
X143788072Y-71475000D01*
X143785000Y-71285750D01*
X143626250Y-71127000D01*
X142752000Y-71127000D01*
X142498000Y-71127000D01*
X142478000Y-71127000D01*
X142478000Y-70873000D01*
X142498000Y-70873000D01*
X142498000Y-70853000D01*
X142752000Y-70853000D01*
X142752000Y-70873000D01*
X143626250Y-70873000D01*
X143785000Y-70714250D01*
X143786416Y-70627000D01*
X144679073Y-70627000D01*
X144649188Y-70725518D01*
M02*
