M48
; DRILL file {KiCad (5.1.4)-1} date 5/12/2021 10:10:43 AM
; FORMAT={-:-/ absolute / inch / decimal}
; #@! TF.CreationDate,2021-05-12T10:10:43-04:00
; #@! TF.GenerationSoftware,Kicad,Pcbnew,(5.1.4)-1
; #@! TF.FileFunction,Plated,1,2,PTH
FMAT,2
INCH
T1C0.0118
T2C0.0157
T3C0.0300
T4C0.0354
T5C0.0394
%
G90
G05
T1
X5.3248Y-2.5984
X5.3248Y-2.628
X5.374Y-2.6969
T2
X5.1772Y-2.8346
X5.4724Y-2.7461
X5.6791Y-2.815
X5.6791Y-2.8543
X5.6791Y-2.8937
X5.7283Y-2.874
X5.8465Y-2.8937
X5.9154Y-2.8937
T3
X5.4921Y-2.5984
T4
X5.7283Y-1.3386
X5.7783Y-1.3386
X5.8283Y-1.3386
X5.8783Y-1.3386
X5.0984Y-1.6535
X5.1484Y-1.6535
X5.1984Y-1.6535
X5.2484Y-1.6535
X5.4134Y-1.6535
X5.4634Y-1.6535
X5.5134Y-1.6535
X5.5634Y-1.6535
X5.0984Y-1.3386
X5.1484Y-1.3386
X5.1984Y-1.3386
X5.2484Y-1.3386
X5.7283Y-1.6535
X5.7783Y-1.6535
X5.8283Y-1.6535
X5.8783Y-1.6535
X5.4134Y-1.3386
X5.4634Y-1.3386
X5.5134Y-1.3386
X5.5634Y-1.3386
T5
X5.2264Y-2.9921
X5.3264Y-2.9921
X5.4264Y-2.9921
X5.5264Y-2.9921
X5.6264Y-2.9921
X5.7264Y-2.9921
T0
M30
