G04 #@! TF.GenerationSoftware,KiCad,Pcbnew,(5.1.4)-1*
G04 #@! TF.CreationDate,2021-05-12T10:10:47-04:00*
G04 #@! TF.ProjectId,QAZ_IS31FL3746A_breakoutboard,51415a5f-4953-4333-9146-4c3337343641,rev?*
G04 #@! TF.SameCoordinates,Original*
G04 #@! TF.FileFunction,Copper,L2,Bot*
G04 #@! TF.FilePolarity,Positive*
%FSLAX46Y46*%
G04 Gerber Fmt 4.6, Leading zero omitted, Abs format (unit mm)*
G04 Created by KiCad (PCBNEW (5.1.4)-1) date 2021-05-12 10:10:47*
%MOMM*%
%LPD*%
G04 APERTURE LIST*
%ADD10O,1.700000X1.700000*%
%ADD11R,1.700000X1.700000*%
%ADD12C,1.524000*%
%ADD13O,1.070000X1.800000*%
%ADD14R,1.070000X1.800000*%
%ADD15C,0.800000*%
%ADD16C,0.600000*%
%ADD17C,0.250000*%
%ADD18C,0.400000*%
%ADD19C,0.254000*%
G04 APERTURE END LIST*
D10*
X145450000Y-76000000D03*
X142910000Y-76000000D03*
X140370000Y-76000000D03*
X137830000Y-76000000D03*
X135290000Y-76000000D03*
D11*
X132750000Y-76000000D03*
D12*
X139500000Y-66000000D03*
D13*
X149310000Y-42000000D03*
X148040000Y-42000000D03*
X146770000Y-42000000D03*
D14*
X145500000Y-42000000D03*
D13*
X149310000Y-34000000D03*
X148040000Y-34000000D03*
X146770000Y-34000000D03*
D14*
X145500000Y-34000000D03*
D13*
X141310000Y-42000000D03*
X140040000Y-42000000D03*
X138770000Y-42000000D03*
D14*
X137500000Y-42000000D03*
D13*
X141310000Y-34000000D03*
X140040000Y-34000000D03*
X138770000Y-34000000D03*
D14*
X137500000Y-34000000D03*
D13*
X133310000Y-42000000D03*
X132040000Y-42000000D03*
X130770000Y-42000000D03*
D14*
X129500000Y-42000000D03*
D13*
X133310000Y-34000000D03*
X132040000Y-34000000D03*
X130770000Y-34000000D03*
D14*
X129500000Y-34000000D03*
D15*
X145500000Y-73000000D03*
X148500000Y-73500000D03*
X150250000Y-73500000D03*
X144250000Y-73500000D03*
X144250000Y-72500000D03*
X144250000Y-71500000D03*
D16*
X135250000Y-66000000D03*
X136500000Y-68500000D03*
D15*
X139000000Y-69750000D03*
D16*
X135250000Y-66750000D03*
D15*
X131500000Y-72000000D03*
D17*
X136000000Y-68000000D02*
X136000000Y-66500000D01*
X136000000Y-66500000D02*
X135500000Y-66000000D01*
X135500000Y-66000000D02*
X135250000Y-66000000D01*
X136000000Y-68000000D02*
X136500000Y-68500000D01*
D18*
X139000000Y-69750000D02*
X136750000Y-67500000D01*
X138770000Y-43300000D02*
X138770000Y-42000000D01*
X138770000Y-42000000D02*
X138770000Y-34000000D01*
X146770000Y-42000000D02*
X146770000Y-34000000D01*
X130770000Y-42000000D02*
X130770000Y-34000000D01*
X136750000Y-67500000D02*
X136750000Y-53000000D01*
X136750000Y-53000000D02*
X138770000Y-50980000D01*
X146770000Y-43300000D02*
X146770000Y-42000000D01*
X138770000Y-46520000D02*
X143550000Y-46520000D01*
X143550000Y-46520000D02*
X146770000Y-43300000D01*
X138770000Y-46520000D02*
X138770000Y-42000000D01*
X138770000Y-50980000D02*
X138770000Y-46520000D01*
X130770000Y-43300000D02*
X130770000Y-42000000D01*
X133990000Y-46520000D02*
X130770000Y-43300000D01*
X138770000Y-46520000D02*
X133990000Y-46520000D01*
D17*
X135250000Y-66750000D02*
X135250000Y-66750000D01*
X134950001Y-67049999D02*
X134950001Y-68549999D01*
X135250000Y-66750000D02*
X134950001Y-67049999D01*
X134950001Y-68549999D02*
X131500000Y-72000000D01*
X131500000Y-72000000D02*
X131500000Y-72000000D01*
D19*
G36*
X135915000Y-65342710D02*
G01*
X135846028Y-65273738D01*
X135692889Y-65171414D01*
X135522729Y-65100932D01*
X135342089Y-65065000D01*
X135157911Y-65065000D01*
X134977271Y-65100932D01*
X134807111Y-65171414D01*
X134653972Y-65273738D01*
X134523738Y-65403972D01*
X134421414Y-65557111D01*
X134350932Y-65727271D01*
X134315000Y-65907911D01*
X134315000Y-66092089D01*
X134350932Y-66272729D01*
X134393294Y-66375000D01*
X134350932Y-66477271D01*
X134323442Y-66615469D01*
X134315027Y-66625723D01*
X134249132Y-66749003D01*
X134244455Y-66757753D01*
X134200998Y-66901014D01*
X134190001Y-67012667D01*
X134190001Y-67012677D01*
X134186325Y-67049999D01*
X134190001Y-67087322D01*
X134190002Y-68235196D01*
X131460199Y-70965000D01*
X131398061Y-70965000D01*
X131198102Y-71004774D01*
X131009744Y-71082795D01*
X130840226Y-71196063D01*
X130696063Y-71340226D01*
X130582795Y-71509744D01*
X130504774Y-71698102D01*
X130465000Y-71898061D01*
X130465000Y-72101939D01*
X130504774Y-72301898D01*
X130582795Y-72490256D01*
X130696063Y-72659774D01*
X130840226Y-72803937D01*
X131009744Y-72917205D01*
X131198102Y-72995226D01*
X131398061Y-73035000D01*
X131601939Y-73035000D01*
X131801898Y-72995226D01*
X131990256Y-72917205D01*
X132159774Y-72803937D01*
X132303937Y-72659774D01*
X132417205Y-72490256D01*
X132495226Y-72301898D01*
X132535000Y-72101939D01*
X132535000Y-72039801D01*
X135461004Y-69113798D01*
X135490002Y-69090000D01*
X135584975Y-68974275D01*
X135641000Y-68869462D01*
X135671414Y-68942889D01*
X135773738Y-69096028D01*
X135903972Y-69226262D01*
X136057111Y-69328586D01*
X136227271Y-69399068D01*
X136407911Y-69435000D01*
X136592089Y-69435000D01*
X136772729Y-69399068D01*
X136942889Y-69328586D01*
X137096028Y-69226262D01*
X137195711Y-69126579D01*
X137975908Y-69906776D01*
X138004774Y-70051898D01*
X138082795Y-70240256D01*
X138196063Y-70409774D01*
X138340226Y-70553937D01*
X138509744Y-70667205D01*
X138698102Y-70745226D01*
X138898061Y-70785000D01*
X139101939Y-70785000D01*
X139301898Y-70745226D01*
X139490256Y-70667205D01*
X139659774Y-70553937D01*
X139803937Y-70409774D01*
X139917205Y-70240256D01*
X139995226Y-70051898D01*
X140035000Y-69851939D01*
X140035000Y-69648061D01*
X139995226Y-69448102D01*
X139917205Y-69259744D01*
X139803937Y-69090226D01*
X139659774Y-68946063D01*
X139490256Y-68832795D01*
X139301898Y-68754774D01*
X139156776Y-68725908D01*
X137585000Y-67154133D01*
X137585000Y-66965565D01*
X138714040Y-66965565D01*
X138781020Y-67205656D01*
X139030048Y-67322756D01*
X139297135Y-67389023D01*
X139572017Y-67401910D01*
X139844133Y-67360922D01*
X140103023Y-67267636D01*
X140218980Y-67205656D01*
X140285960Y-66965565D01*
X139500000Y-66179605D01*
X138714040Y-66965565D01*
X137585000Y-66965565D01*
X137585000Y-66072017D01*
X138098090Y-66072017D01*
X138139078Y-66344133D01*
X138232364Y-66603023D01*
X138294344Y-66718980D01*
X138534435Y-66785960D01*
X139320395Y-66000000D01*
X139679605Y-66000000D01*
X140465565Y-66785960D01*
X140705656Y-66718980D01*
X140822756Y-66469952D01*
X140889023Y-66202865D01*
X140901910Y-65927983D01*
X140860922Y-65655867D01*
X140767636Y-65396977D01*
X140705656Y-65281020D01*
X140465565Y-65214040D01*
X139679605Y-66000000D01*
X139320395Y-66000000D01*
X138534435Y-65214040D01*
X138294344Y-65281020D01*
X138177244Y-65530048D01*
X138110977Y-65797135D01*
X138098090Y-66072017D01*
X137585000Y-66072017D01*
X137585000Y-65034435D01*
X138714040Y-65034435D01*
X139500000Y-65820395D01*
X140285960Y-65034435D01*
X140218980Y-64794344D01*
X139969952Y-64677244D01*
X139702865Y-64610977D01*
X139427983Y-64598090D01*
X139155867Y-64639078D01*
X138896977Y-64732364D01*
X138781020Y-64794344D01*
X138714040Y-65034435D01*
X137585000Y-65034435D01*
X137585000Y-60627000D01*
X151340000Y-60627000D01*
X151340001Y-73967572D01*
X151340000Y-73967582D01*
X151340001Y-76467711D01*
X151301853Y-76856776D01*
X151198238Y-77199964D01*
X151029939Y-77516489D01*
X150803365Y-77794296D01*
X150527146Y-78022805D01*
X150211803Y-78193310D01*
X149869344Y-78299319D01*
X149482288Y-78340000D01*
X129532279Y-78340000D01*
X129143224Y-78301853D01*
X128800036Y-78198238D01*
X128483511Y-78029939D01*
X128205704Y-77803365D01*
X127977195Y-77527146D01*
X127806690Y-77211803D01*
X127700681Y-76869344D01*
X127660000Y-76482288D01*
X127660000Y-75150000D01*
X131261928Y-75150000D01*
X131261928Y-76850000D01*
X131274188Y-76974482D01*
X131310498Y-77094180D01*
X131369463Y-77204494D01*
X131448815Y-77301185D01*
X131545506Y-77380537D01*
X131655820Y-77439502D01*
X131775518Y-77475812D01*
X131900000Y-77488072D01*
X133600000Y-77488072D01*
X133724482Y-77475812D01*
X133844180Y-77439502D01*
X133954494Y-77380537D01*
X134051185Y-77301185D01*
X134130537Y-77204494D01*
X134189502Y-77094180D01*
X134210393Y-77025313D01*
X134234866Y-77055134D01*
X134460986Y-77240706D01*
X134718966Y-77378599D01*
X134998889Y-77463513D01*
X135217050Y-77485000D01*
X135362950Y-77485000D01*
X135581111Y-77463513D01*
X135861034Y-77378599D01*
X136119014Y-77240706D01*
X136345134Y-77055134D01*
X136530706Y-76829014D01*
X136560000Y-76774209D01*
X136589294Y-76829014D01*
X136774866Y-77055134D01*
X137000986Y-77240706D01*
X137258966Y-77378599D01*
X137538889Y-77463513D01*
X137757050Y-77485000D01*
X137902950Y-77485000D01*
X138121111Y-77463513D01*
X138401034Y-77378599D01*
X138659014Y-77240706D01*
X138885134Y-77055134D01*
X139070706Y-76829014D01*
X139100000Y-76774209D01*
X139129294Y-76829014D01*
X139314866Y-77055134D01*
X139540986Y-77240706D01*
X139798966Y-77378599D01*
X140078889Y-77463513D01*
X140297050Y-77485000D01*
X140442950Y-77485000D01*
X140661111Y-77463513D01*
X140941034Y-77378599D01*
X141199014Y-77240706D01*
X141425134Y-77055134D01*
X141610706Y-76829014D01*
X141640000Y-76774209D01*
X141669294Y-76829014D01*
X141854866Y-77055134D01*
X142080986Y-77240706D01*
X142338966Y-77378599D01*
X142618889Y-77463513D01*
X142837050Y-77485000D01*
X142982950Y-77485000D01*
X143201111Y-77463513D01*
X143481034Y-77378599D01*
X143739014Y-77240706D01*
X143965134Y-77055134D01*
X144150706Y-76829014D01*
X144185201Y-76764477D01*
X144254822Y-76881355D01*
X144449731Y-77097588D01*
X144683080Y-77271641D01*
X144945901Y-77396825D01*
X145093110Y-77441476D01*
X145323000Y-77320155D01*
X145323000Y-76127000D01*
X145577000Y-76127000D01*
X145577000Y-77320155D01*
X145806890Y-77441476D01*
X145954099Y-77396825D01*
X146216920Y-77271641D01*
X146450269Y-77097588D01*
X146645178Y-76881355D01*
X146794157Y-76631252D01*
X146891481Y-76356891D01*
X146770814Y-76127000D01*
X145577000Y-76127000D01*
X145323000Y-76127000D01*
X145303000Y-76127000D01*
X145303000Y-75873000D01*
X145323000Y-75873000D01*
X145323000Y-74679845D01*
X145577000Y-74679845D01*
X145577000Y-75873000D01*
X146770814Y-75873000D01*
X146891481Y-75643109D01*
X146794157Y-75368748D01*
X146645178Y-75118645D01*
X146450269Y-74902412D01*
X146216920Y-74728359D01*
X145954099Y-74603175D01*
X145806890Y-74558524D01*
X145577000Y-74679845D01*
X145323000Y-74679845D01*
X145093110Y-74558524D01*
X144945901Y-74603175D01*
X144683080Y-74728359D01*
X144449731Y-74902412D01*
X144254822Y-75118645D01*
X144185201Y-75235523D01*
X144150706Y-75170986D01*
X143965134Y-74944866D01*
X143739014Y-74759294D01*
X143481034Y-74621401D01*
X143201111Y-74536487D01*
X142982950Y-74515000D01*
X142837050Y-74515000D01*
X142618889Y-74536487D01*
X142338966Y-74621401D01*
X142080986Y-74759294D01*
X141854866Y-74944866D01*
X141669294Y-75170986D01*
X141640000Y-75225791D01*
X141610706Y-75170986D01*
X141425134Y-74944866D01*
X141199014Y-74759294D01*
X140941034Y-74621401D01*
X140661111Y-74536487D01*
X140442950Y-74515000D01*
X140297050Y-74515000D01*
X140078889Y-74536487D01*
X139798966Y-74621401D01*
X139540986Y-74759294D01*
X139314866Y-74944866D01*
X139129294Y-75170986D01*
X139100000Y-75225791D01*
X139070706Y-75170986D01*
X138885134Y-74944866D01*
X138659014Y-74759294D01*
X138401034Y-74621401D01*
X138121111Y-74536487D01*
X137902950Y-74515000D01*
X137757050Y-74515000D01*
X137538889Y-74536487D01*
X137258966Y-74621401D01*
X137000986Y-74759294D01*
X136774866Y-74944866D01*
X136589294Y-75170986D01*
X136560000Y-75225791D01*
X136530706Y-75170986D01*
X136345134Y-74944866D01*
X136119014Y-74759294D01*
X135861034Y-74621401D01*
X135581111Y-74536487D01*
X135362950Y-74515000D01*
X135217050Y-74515000D01*
X134998889Y-74536487D01*
X134718966Y-74621401D01*
X134460986Y-74759294D01*
X134234866Y-74944866D01*
X134210393Y-74974687D01*
X134189502Y-74905820D01*
X134130537Y-74795506D01*
X134051185Y-74698815D01*
X133954494Y-74619463D01*
X133844180Y-74560498D01*
X133724482Y-74524188D01*
X133600000Y-74511928D01*
X131900000Y-74511928D01*
X131775518Y-74524188D01*
X131655820Y-74560498D01*
X131545506Y-74619463D01*
X131448815Y-74698815D01*
X131369463Y-74795506D01*
X131310498Y-74905820D01*
X131274188Y-75025518D01*
X131261928Y-75150000D01*
X127660000Y-75150000D01*
X127660000Y-60627000D01*
X135915000Y-60627000D01*
X135915000Y-65342710D01*
X135915000Y-65342710D01*
G37*
X135915000Y-65342710D02*
X135846028Y-65273738D01*
X135692889Y-65171414D01*
X135522729Y-65100932D01*
X135342089Y-65065000D01*
X135157911Y-65065000D01*
X134977271Y-65100932D01*
X134807111Y-65171414D01*
X134653972Y-65273738D01*
X134523738Y-65403972D01*
X134421414Y-65557111D01*
X134350932Y-65727271D01*
X134315000Y-65907911D01*
X134315000Y-66092089D01*
X134350932Y-66272729D01*
X134393294Y-66375000D01*
X134350932Y-66477271D01*
X134323442Y-66615469D01*
X134315027Y-66625723D01*
X134249132Y-66749003D01*
X134244455Y-66757753D01*
X134200998Y-66901014D01*
X134190001Y-67012667D01*
X134190001Y-67012677D01*
X134186325Y-67049999D01*
X134190001Y-67087322D01*
X134190002Y-68235196D01*
X131460199Y-70965000D01*
X131398061Y-70965000D01*
X131198102Y-71004774D01*
X131009744Y-71082795D01*
X130840226Y-71196063D01*
X130696063Y-71340226D01*
X130582795Y-71509744D01*
X130504774Y-71698102D01*
X130465000Y-71898061D01*
X130465000Y-72101939D01*
X130504774Y-72301898D01*
X130582795Y-72490256D01*
X130696063Y-72659774D01*
X130840226Y-72803937D01*
X131009744Y-72917205D01*
X131198102Y-72995226D01*
X131398061Y-73035000D01*
X131601939Y-73035000D01*
X131801898Y-72995226D01*
X131990256Y-72917205D01*
X132159774Y-72803937D01*
X132303937Y-72659774D01*
X132417205Y-72490256D01*
X132495226Y-72301898D01*
X132535000Y-72101939D01*
X132535000Y-72039801D01*
X135461004Y-69113798D01*
X135490002Y-69090000D01*
X135584975Y-68974275D01*
X135641000Y-68869462D01*
X135671414Y-68942889D01*
X135773738Y-69096028D01*
X135903972Y-69226262D01*
X136057111Y-69328586D01*
X136227271Y-69399068D01*
X136407911Y-69435000D01*
X136592089Y-69435000D01*
X136772729Y-69399068D01*
X136942889Y-69328586D01*
X137096028Y-69226262D01*
X137195711Y-69126579D01*
X137975908Y-69906776D01*
X138004774Y-70051898D01*
X138082795Y-70240256D01*
X138196063Y-70409774D01*
X138340226Y-70553937D01*
X138509744Y-70667205D01*
X138698102Y-70745226D01*
X138898061Y-70785000D01*
X139101939Y-70785000D01*
X139301898Y-70745226D01*
X139490256Y-70667205D01*
X139659774Y-70553937D01*
X139803937Y-70409774D01*
X139917205Y-70240256D01*
X139995226Y-70051898D01*
X140035000Y-69851939D01*
X140035000Y-69648061D01*
X139995226Y-69448102D01*
X139917205Y-69259744D01*
X139803937Y-69090226D01*
X139659774Y-68946063D01*
X139490256Y-68832795D01*
X139301898Y-68754774D01*
X139156776Y-68725908D01*
X137585000Y-67154133D01*
X137585000Y-66965565D01*
X138714040Y-66965565D01*
X138781020Y-67205656D01*
X139030048Y-67322756D01*
X139297135Y-67389023D01*
X139572017Y-67401910D01*
X139844133Y-67360922D01*
X140103023Y-67267636D01*
X140218980Y-67205656D01*
X140285960Y-66965565D01*
X139500000Y-66179605D01*
X138714040Y-66965565D01*
X137585000Y-66965565D01*
X137585000Y-66072017D01*
X138098090Y-66072017D01*
X138139078Y-66344133D01*
X138232364Y-66603023D01*
X138294344Y-66718980D01*
X138534435Y-66785960D01*
X139320395Y-66000000D01*
X139679605Y-66000000D01*
X140465565Y-66785960D01*
X140705656Y-66718980D01*
X140822756Y-66469952D01*
X140889023Y-66202865D01*
X140901910Y-65927983D01*
X140860922Y-65655867D01*
X140767636Y-65396977D01*
X140705656Y-65281020D01*
X140465565Y-65214040D01*
X139679605Y-66000000D01*
X139320395Y-66000000D01*
X138534435Y-65214040D01*
X138294344Y-65281020D01*
X138177244Y-65530048D01*
X138110977Y-65797135D01*
X138098090Y-66072017D01*
X137585000Y-66072017D01*
X137585000Y-65034435D01*
X138714040Y-65034435D01*
X139500000Y-65820395D01*
X140285960Y-65034435D01*
X140218980Y-64794344D01*
X139969952Y-64677244D01*
X139702865Y-64610977D01*
X139427983Y-64598090D01*
X139155867Y-64639078D01*
X138896977Y-64732364D01*
X138781020Y-64794344D01*
X138714040Y-65034435D01*
X137585000Y-65034435D01*
X137585000Y-60627000D01*
X151340000Y-60627000D01*
X151340001Y-73967572D01*
X151340000Y-73967582D01*
X151340001Y-76467711D01*
X151301853Y-76856776D01*
X151198238Y-77199964D01*
X151029939Y-77516489D01*
X150803365Y-77794296D01*
X150527146Y-78022805D01*
X150211803Y-78193310D01*
X149869344Y-78299319D01*
X149482288Y-78340000D01*
X129532279Y-78340000D01*
X129143224Y-78301853D01*
X128800036Y-78198238D01*
X128483511Y-78029939D01*
X128205704Y-77803365D01*
X127977195Y-77527146D01*
X127806690Y-77211803D01*
X127700681Y-76869344D01*
X127660000Y-76482288D01*
X127660000Y-75150000D01*
X131261928Y-75150000D01*
X131261928Y-76850000D01*
X131274188Y-76974482D01*
X131310498Y-77094180D01*
X131369463Y-77204494D01*
X131448815Y-77301185D01*
X131545506Y-77380537D01*
X131655820Y-77439502D01*
X131775518Y-77475812D01*
X131900000Y-77488072D01*
X133600000Y-77488072D01*
X133724482Y-77475812D01*
X133844180Y-77439502D01*
X133954494Y-77380537D01*
X134051185Y-77301185D01*
X134130537Y-77204494D01*
X134189502Y-77094180D01*
X134210393Y-77025313D01*
X134234866Y-77055134D01*
X134460986Y-77240706D01*
X134718966Y-77378599D01*
X134998889Y-77463513D01*
X135217050Y-77485000D01*
X135362950Y-77485000D01*
X135581111Y-77463513D01*
X135861034Y-77378599D01*
X136119014Y-77240706D01*
X136345134Y-77055134D01*
X136530706Y-76829014D01*
X136560000Y-76774209D01*
X136589294Y-76829014D01*
X136774866Y-77055134D01*
X137000986Y-77240706D01*
X137258966Y-77378599D01*
X137538889Y-77463513D01*
X137757050Y-77485000D01*
X137902950Y-77485000D01*
X138121111Y-77463513D01*
X138401034Y-77378599D01*
X138659014Y-77240706D01*
X138885134Y-77055134D01*
X139070706Y-76829014D01*
X139100000Y-76774209D01*
X139129294Y-76829014D01*
X139314866Y-77055134D01*
X139540986Y-77240706D01*
X139798966Y-77378599D01*
X140078889Y-77463513D01*
X140297050Y-77485000D01*
X140442950Y-77485000D01*
X140661111Y-77463513D01*
X140941034Y-77378599D01*
X141199014Y-77240706D01*
X141425134Y-77055134D01*
X141610706Y-76829014D01*
X141640000Y-76774209D01*
X141669294Y-76829014D01*
X141854866Y-77055134D01*
X142080986Y-77240706D01*
X142338966Y-77378599D01*
X142618889Y-77463513D01*
X142837050Y-77485000D01*
X142982950Y-77485000D01*
X143201111Y-77463513D01*
X143481034Y-77378599D01*
X143739014Y-77240706D01*
X143965134Y-77055134D01*
X144150706Y-76829014D01*
X144185201Y-76764477D01*
X144254822Y-76881355D01*
X144449731Y-77097588D01*
X144683080Y-77271641D01*
X144945901Y-77396825D01*
X145093110Y-77441476D01*
X145323000Y-77320155D01*
X145323000Y-76127000D01*
X145577000Y-76127000D01*
X145577000Y-77320155D01*
X145806890Y-77441476D01*
X145954099Y-77396825D01*
X146216920Y-77271641D01*
X146450269Y-77097588D01*
X146645178Y-76881355D01*
X146794157Y-76631252D01*
X146891481Y-76356891D01*
X146770814Y-76127000D01*
X145577000Y-76127000D01*
X145323000Y-76127000D01*
X145303000Y-76127000D01*
X145303000Y-75873000D01*
X145323000Y-75873000D01*
X145323000Y-74679845D01*
X145577000Y-74679845D01*
X145577000Y-75873000D01*
X146770814Y-75873000D01*
X146891481Y-75643109D01*
X146794157Y-75368748D01*
X146645178Y-75118645D01*
X146450269Y-74902412D01*
X146216920Y-74728359D01*
X145954099Y-74603175D01*
X145806890Y-74558524D01*
X145577000Y-74679845D01*
X145323000Y-74679845D01*
X145093110Y-74558524D01*
X144945901Y-74603175D01*
X144683080Y-74728359D01*
X144449731Y-74902412D01*
X144254822Y-75118645D01*
X144185201Y-75235523D01*
X144150706Y-75170986D01*
X143965134Y-74944866D01*
X143739014Y-74759294D01*
X143481034Y-74621401D01*
X143201111Y-74536487D01*
X142982950Y-74515000D01*
X142837050Y-74515000D01*
X142618889Y-74536487D01*
X142338966Y-74621401D01*
X142080986Y-74759294D01*
X141854866Y-74944866D01*
X141669294Y-75170986D01*
X141640000Y-75225791D01*
X141610706Y-75170986D01*
X141425134Y-74944866D01*
X141199014Y-74759294D01*
X140941034Y-74621401D01*
X140661111Y-74536487D01*
X140442950Y-74515000D01*
X140297050Y-74515000D01*
X140078889Y-74536487D01*
X139798966Y-74621401D01*
X139540986Y-74759294D01*
X139314866Y-74944866D01*
X139129294Y-75170986D01*
X139100000Y-75225791D01*
X139070706Y-75170986D01*
X138885134Y-74944866D01*
X138659014Y-74759294D01*
X138401034Y-74621401D01*
X138121111Y-74536487D01*
X137902950Y-74515000D01*
X137757050Y-74515000D01*
X137538889Y-74536487D01*
X137258966Y-74621401D01*
X137000986Y-74759294D01*
X136774866Y-74944866D01*
X136589294Y-75170986D01*
X136560000Y-75225791D01*
X136530706Y-75170986D01*
X136345134Y-74944866D01*
X136119014Y-74759294D01*
X135861034Y-74621401D01*
X135581111Y-74536487D01*
X135362950Y-74515000D01*
X135217050Y-74515000D01*
X134998889Y-74536487D01*
X134718966Y-74621401D01*
X134460986Y-74759294D01*
X134234866Y-74944866D01*
X134210393Y-74974687D01*
X134189502Y-74905820D01*
X134130537Y-74795506D01*
X134051185Y-74698815D01*
X133954494Y-74619463D01*
X133844180Y-74560498D01*
X133724482Y-74524188D01*
X133600000Y-74511928D01*
X131900000Y-74511928D01*
X131775518Y-74524188D01*
X131655820Y-74560498D01*
X131545506Y-74619463D01*
X131448815Y-74698815D01*
X131369463Y-74795506D01*
X131310498Y-74905820D01*
X131274188Y-75025518D01*
X131261928Y-75150000D01*
X127660000Y-75150000D01*
X127660000Y-60627000D01*
X135915000Y-60627000D01*
X135915000Y-65342710D01*
M02*
