G04 #@! TF.GenerationSoftware,KiCad,Pcbnew,(5.1.4)-1*
G04 #@! TF.CreationDate,2021-05-12T10:10:47-04:00*
G04 #@! TF.ProjectId,QAZ_IS31FL3746A_breakoutboard,51415a5f-4953-4333-9146-4c3337343641,rev?*
G04 #@! TF.SameCoordinates,Original*
G04 #@! TF.FileFunction,Soldermask,Bot*
G04 #@! TF.FilePolarity,Negative*
%FSLAX46Y46*%
G04 Gerber Fmt 4.6, Leading zero omitted, Abs format (unit mm)*
G04 Created by KiCad (PCBNEW (5.1.4)-1) date 2021-05-12 10:10:47*
%MOMM*%
%LPD*%
G04 APERTURE LIST*
%ADD10C,0.100000*%
G04 APERTURE END LIST*
D10*
G36*
X145626588Y-75112234D02*
G01*
X145796389Y-75163743D01*
X145952879Y-75247389D01*
X146090043Y-75359957D01*
X146202611Y-75497121D01*
X146286257Y-75653611D01*
X146337766Y-75823412D01*
X146355158Y-76000000D01*
X146337766Y-76176588D01*
X146286257Y-76346389D01*
X146202611Y-76502879D01*
X146090043Y-76640043D01*
X145952879Y-76752611D01*
X145796389Y-76836257D01*
X145626588Y-76887766D01*
X145494249Y-76900800D01*
X145405751Y-76900800D01*
X145273412Y-76887766D01*
X145103611Y-76836257D01*
X144947121Y-76752611D01*
X144809957Y-76640043D01*
X144697389Y-76502879D01*
X144613743Y-76346389D01*
X144562234Y-76176588D01*
X144544842Y-76000000D01*
X144562234Y-75823412D01*
X144613743Y-75653611D01*
X144697389Y-75497121D01*
X144809957Y-75359957D01*
X144947121Y-75247389D01*
X145103611Y-75163743D01*
X145273412Y-75112234D01*
X145405751Y-75099200D01*
X145494249Y-75099200D01*
X145626588Y-75112234D01*
X145626588Y-75112234D01*
G37*
G36*
X140546588Y-75112234D02*
G01*
X140716389Y-75163743D01*
X140872879Y-75247389D01*
X141010043Y-75359957D01*
X141122611Y-75497121D01*
X141206257Y-75653611D01*
X141257766Y-75823412D01*
X141275158Y-76000000D01*
X141257766Y-76176588D01*
X141206257Y-76346389D01*
X141122611Y-76502879D01*
X141010043Y-76640043D01*
X140872879Y-76752611D01*
X140716389Y-76836257D01*
X140546588Y-76887766D01*
X140414249Y-76900800D01*
X140325751Y-76900800D01*
X140193412Y-76887766D01*
X140023611Y-76836257D01*
X139867121Y-76752611D01*
X139729957Y-76640043D01*
X139617389Y-76502879D01*
X139533743Y-76346389D01*
X139482234Y-76176588D01*
X139464842Y-76000000D01*
X139482234Y-75823412D01*
X139533743Y-75653611D01*
X139617389Y-75497121D01*
X139729957Y-75359957D01*
X139867121Y-75247389D01*
X140023611Y-75163743D01*
X140193412Y-75112234D01*
X140325751Y-75099200D01*
X140414249Y-75099200D01*
X140546588Y-75112234D01*
X140546588Y-75112234D01*
G37*
G36*
X138006588Y-75112234D02*
G01*
X138176389Y-75163743D01*
X138332879Y-75247389D01*
X138470043Y-75359957D01*
X138582611Y-75497121D01*
X138666257Y-75653611D01*
X138717766Y-75823412D01*
X138735158Y-76000000D01*
X138717766Y-76176588D01*
X138666257Y-76346389D01*
X138582611Y-76502879D01*
X138470043Y-76640043D01*
X138332879Y-76752611D01*
X138176389Y-76836257D01*
X138006588Y-76887766D01*
X137874249Y-76900800D01*
X137785751Y-76900800D01*
X137653412Y-76887766D01*
X137483611Y-76836257D01*
X137327121Y-76752611D01*
X137189957Y-76640043D01*
X137077389Y-76502879D01*
X136993743Y-76346389D01*
X136942234Y-76176588D01*
X136924842Y-76000000D01*
X136942234Y-75823412D01*
X136993743Y-75653611D01*
X137077389Y-75497121D01*
X137189957Y-75359957D01*
X137327121Y-75247389D01*
X137483611Y-75163743D01*
X137653412Y-75112234D01*
X137785751Y-75099200D01*
X137874249Y-75099200D01*
X138006588Y-75112234D01*
X138006588Y-75112234D01*
G37*
G36*
X135466588Y-75112234D02*
G01*
X135636389Y-75163743D01*
X135792879Y-75247389D01*
X135930043Y-75359957D01*
X136042611Y-75497121D01*
X136126257Y-75653611D01*
X136177766Y-75823412D01*
X136195158Y-76000000D01*
X136177766Y-76176588D01*
X136126257Y-76346389D01*
X136042611Y-76502879D01*
X135930043Y-76640043D01*
X135792879Y-76752611D01*
X135636389Y-76836257D01*
X135466588Y-76887766D01*
X135334249Y-76900800D01*
X135245751Y-76900800D01*
X135113412Y-76887766D01*
X134943611Y-76836257D01*
X134787121Y-76752611D01*
X134649957Y-76640043D01*
X134537389Y-76502879D01*
X134453743Y-76346389D01*
X134402234Y-76176588D01*
X134384842Y-76000000D01*
X134402234Y-75823412D01*
X134453743Y-75653611D01*
X134537389Y-75497121D01*
X134649957Y-75359957D01*
X134787121Y-75247389D01*
X134943611Y-75163743D01*
X135113412Y-75112234D01*
X135245751Y-75099200D01*
X135334249Y-75099200D01*
X135466588Y-75112234D01*
X135466588Y-75112234D01*
G37*
G36*
X133650800Y-76900800D02*
G01*
X131849200Y-76900800D01*
X131849200Y-75099200D01*
X133650800Y-75099200D01*
X133650800Y-76900800D01*
X133650800Y-76900800D01*
G37*
G36*
X143086588Y-75112234D02*
G01*
X143256389Y-75163743D01*
X143412879Y-75247389D01*
X143550043Y-75359957D01*
X143662611Y-75497121D01*
X143746257Y-75653611D01*
X143797766Y-75823412D01*
X143815158Y-76000000D01*
X143797766Y-76176588D01*
X143746257Y-76346389D01*
X143662611Y-76502879D01*
X143550043Y-76640043D01*
X143412879Y-76752611D01*
X143256389Y-76836257D01*
X143086588Y-76887766D01*
X142954249Y-76900800D01*
X142865751Y-76900800D01*
X142733412Y-76887766D01*
X142563611Y-76836257D01*
X142407121Y-76752611D01*
X142269957Y-76640043D01*
X142157389Y-76502879D01*
X142073743Y-76346389D01*
X142022234Y-76176588D01*
X142004842Y-76000000D01*
X142022234Y-75823412D01*
X142073743Y-75653611D01*
X142157389Y-75497121D01*
X142269957Y-75359957D01*
X142407121Y-75247389D01*
X142563611Y-75163743D01*
X142733412Y-75112234D01*
X142865751Y-75099200D01*
X142954249Y-75099200D01*
X143086588Y-75112234D01*
X143086588Y-75112234D01*
G37*
G36*
X139737085Y-65218435D02*
G01*
X139885005Y-65279706D01*
X140018130Y-65368657D01*
X140131343Y-65481870D01*
X140220294Y-65614995D01*
X140281565Y-65762915D01*
X140312800Y-65919946D01*
X140312800Y-66080054D01*
X140281565Y-66237085D01*
X140220294Y-66385005D01*
X140131343Y-66518130D01*
X140018130Y-66631343D01*
X139885005Y-66720294D01*
X139737085Y-66781565D01*
X139580054Y-66812800D01*
X139419946Y-66812800D01*
X139262915Y-66781565D01*
X139114995Y-66720294D01*
X138981870Y-66631343D01*
X138868657Y-66518130D01*
X138779706Y-66385005D01*
X138718435Y-66237085D01*
X138687200Y-66080054D01*
X138687200Y-65919946D01*
X138718435Y-65762915D01*
X138779706Y-65614995D01*
X138868657Y-65481870D01*
X138981870Y-65368657D01*
X139114995Y-65279706D01*
X139262915Y-65218435D01*
X139419946Y-65187200D01*
X139580054Y-65187200D01*
X139737085Y-65218435D01*
X139737085Y-65218435D01*
G37*
G36*
X149424836Y-41057676D02*
G01*
X149535259Y-41091173D01*
X149586143Y-41118371D01*
X149637028Y-41145569D01*
X149726227Y-41218773D01*
X149799431Y-41307971D01*
X149799432Y-41307973D01*
X149853827Y-41409740D01*
X149887324Y-41520163D01*
X149895800Y-41606225D01*
X149895800Y-42393775D01*
X149887324Y-42479837D01*
X149853827Y-42590260D01*
X149826629Y-42641144D01*
X149799431Y-42692029D01*
X149726227Y-42781227D01*
X149637029Y-42854431D01*
X149586144Y-42881629D01*
X149535260Y-42908827D01*
X149424837Y-42942324D01*
X149310000Y-42953634D01*
X149195164Y-42942324D01*
X149084741Y-42908827D01*
X149033857Y-42881629D01*
X148982972Y-42854431D01*
X148893774Y-42781227D01*
X148820570Y-42692029D01*
X148766174Y-42590260D01*
X148766174Y-42590259D01*
X148732676Y-42479837D01*
X148725255Y-42404487D01*
X148723325Y-42394783D01*
X148719536Y-42385637D01*
X148714036Y-42377406D01*
X148707036Y-42370406D01*
X148698805Y-42364906D01*
X148689659Y-42361118D01*
X148679950Y-42359186D01*
X148670050Y-42359186D01*
X148660341Y-42361117D01*
X148651195Y-42364906D01*
X148642964Y-42370406D01*
X148635964Y-42377406D01*
X148630464Y-42385637D01*
X148626676Y-42394783D01*
X148624745Y-42404487D01*
X148617324Y-42479837D01*
X148583827Y-42590260D01*
X148556629Y-42641144D01*
X148529431Y-42692029D01*
X148456227Y-42781227D01*
X148367029Y-42854431D01*
X148316144Y-42881629D01*
X148265260Y-42908827D01*
X148154837Y-42942324D01*
X148040000Y-42953634D01*
X147925164Y-42942324D01*
X147814741Y-42908827D01*
X147763857Y-42881629D01*
X147712972Y-42854431D01*
X147623774Y-42781227D01*
X147550570Y-42692029D01*
X147496174Y-42590260D01*
X147496174Y-42590259D01*
X147462676Y-42479837D01*
X147455255Y-42404487D01*
X147453325Y-42394783D01*
X147449536Y-42385637D01*
X147444036Y-42377406D01*
X147437036Y-42370406D01*
X147428805Y-42364906D01*
X147419659Y-42361118D01*
X147409950Y-42359186D01*
X147400050Y-42359186D01*
X147390341Y-42361117D01*
X147381195Y-42364906D01*
X147372964Y-42370406D01*
X147365964Y-42377406D01*
X147360464Y-42385637D01*
X147356676Y-42394783D01*
X147354745Y-42404487D01*
X147347324Y-42479837D01*
X147313827Y-42590260D01*
X147286629Y-42641144D01*
X147259431Y-42692029D01*
X147186227Y-42781227D01*
X147097029Y-42854431D01*
X147046144Y-42881629D01*
X146995260Y-42908827D01*
X146884837Y-42942324D01*
X146770000Y-42953634D01*
X146655164Y-42942324D01*
X146544741Y-42908827D01*
X146493857Y-42881629D01*
X146442972Y-42854431D01*
X146353774Y-42781227D01*
X146280570Y-42692029D01*
X146226174Y-42590260D01*
X146226174Y-42590259D01*
X146192676Y-42479837D01*
X146186554Y-42417677D01*
X146184624Y-42407973D01*
X146180835Y-42398827D01*
X146175335Y-42390596D01*
X146168335Y-42383596D01*
X146160104Y-42378096D01*
X146150958Y-42374308D01*
X146141249Y-42372376D01*
X146131349Y-42372376D01*
X146121640Y-42374307D01*
X146112494Y-42378096D01*
X146104263Y-42383596D01*
X146097263Y-42390596D01*
X146091763Y-42398827D01*
X146087975Y-42407973D01*
X146086043Y-42417682D01*
X146085800Y-42422632D01*
X146085800Y-42950800D01*
X144914200Y-42950800D01*
X144914200Y-41049200D01*
X146085800Y-41049200D01*
X146085800Y-41577369D01*
X146086770Y-41587221D01*
X146089644Y-41596694D01*
X146094311Y-41605425D01*
X146100591Y-41613077D01*
X146108243Y-41619357D01*
X146116974Y-41624024D01*
X146126447Y-41626898D01*
X146136299Y-41627868D01*
X146146151Y-41626898D01*
X146155624Y-41624024D01*
X146164355Y-41619357D01*
X146172007Y-41613077D01*
X146178287Y-41605425D01*
X146182954Y-41596694D01*
X146185828Y-41587221D01*
X146186555Y-41582319D01*
X146192676Y-41520164D01*
X146226173Y-41409741D01*
X146253371Y-41358857D01*
X146280569Y-41307972D01*
X146353773Y-41218773D01*
X146442971Y-41145569D01*
X146493856Y-41118371D01*
X146544740Y-41091173D01*
X146655163Y-41057676D01*
X146770000Y-41046366D01*
X146884836Y-41057676D01*
X146995259Y-41091173D01*
X147046143Y-41118371D01*
X147097028Y-41145569D01*
X147186227Y-41218773D01*
X147259431Y-41307971D01*
X147259432Y-41307973D01*
X147313827Y-41409740D01*
X147347324Y-41520163D01*
X147354745Y-41595513D01*
X147356675Y-41605217D01*
X147360464Y-41614363D01*
X147365964Y-41622594D01*
X147372964Y-41629594D01*
X147381195Y-41635094D01*
X147390341Y-41638882D01*
X147400050Y-41640814D01*
X147409950Y-41640814D01*
X147419659Y-41638883D01*
X147428805Y-41635094D01*
X147437036Y-41629594D01*
X147444036Y-41622594D01*
X147449536Y-41614363D01*
X147453324Y-41605217D01*
X147455256Y-41595508D01*
X147456555Y-41582319D01*
X147462676Y-41520164D01*
X147496173Y-41409741D01*
X147523371Y-41358857D01*
X147550569Y-41307972D01*
X147623773Y-41218773D01*
X147712971Y-41145569D01*
X147763856Y-41118371D01*
X147814740Y-41091173D01*
X147925163Y-41057676D01*
X148040000Y-41046366D01*
X148154836Y-41057676D01*
X148265259Y-41091173D01*
X148316143Y-41118371D01*
X148367028Y-41145569D01*
X148456227Y-41218773D01*
X148529431Y-41307971D01*
X148529432Y-41307973D01*
X148583827Y-41409740D01*
X148617324Y-41520163D01*
X148624745Y-41595513D01*
X148626675Y-41605217D01*
X148630464Y-41614363D01*
X148635964Y-41622594D01*
X148642964Y-41629594D01*
X148651195Y-41635094D01*
X148660341Y-41638882D01*
X148670050Y-41640814D01*
X148679950Y-41640814D01*
X148689659Y-41638883D01*
X148698805Y-41635094D01*
X148707036Y-41629594D01*
X148714036Y-41622594D01*
X148719536Y-41614363D01*
X148723324Y-41605217D01*
X148725256Y-41595508D01*
X148726555Y-41582319D01*
X148732676Y-41520164D01*
X148766173Y-41409741D01*
X148793371Y-41358857D01*
X148820569Y-41307972D01*
X148893773Y-41218773D01*
X148982971Y-41145569D01*
X149033856Y-41118371D01*
X149084740Y-41091173D01*
X149195163Y-41057676D01*
X149310000Y-41046366D01*
X149424836Y-41057676D01*
X149424836Y-41057676D01*
G37*
G36*
X133424836Y-41057676D02*
G01*
X133535259Y-41091173D01*
X133586143Y-41118371D01*
X133637028Y-41145569D01*
X133726227Y-41218773D01*
X133799431Y-41307971D01*
X133799432Y-41307973D01*
X133853827Y-41409740D01*
X133887324Y-41520163D01*
X133895800Y-41606225D01*
X133895800Y-42393775D01*
X133887324Y-42479837D01*
X133853827Y-42590260D01*
X133826629Y-42641144D01*
X133799431Y-42692029D01*
X133726227Y-42781227D01*
X133637029Y-42854431D01*
X133586144Y-42881629D01*
X133535260Y-42908827D01*
X133424837Y-42942324D01*
X133310000Y-42953634D01*
X133195164Y-42942324D01*
X133084741Y-42908827D01*
X133033857Y-42881629D01*
X132982972Y-42854431D01*
X132893774Y-42781227D01*
X132820570Y-42692029D01*
X132766174Y-42590260D01*
X132766174Y-42590259D01*
X132732676Y-42479837D01*
X132725255Y-42404487D01*
X132723325Y-42394783D01*
X132719536Y-42385637D01*
X132714036Y-42377406D01*
X132707036Y-42370406D01*
X132698805Y-42364906D01*
X132689659Y-42361118D01*
X132679950Y-42359186D01*
X132670050Y-42359186D01*
X132660341Y-42361117D01*
X132651195Y-42364906D01*
X132642964Y-42370406D01*
X132635964Y-42377406D01*
X132630464Y-42385637D01*
X132626676Y-42394783D01*
X132624745Y-42404487D01*
X132617324Y-42479837D01*
X132583827Y-42590260D01*
X132556629Y-42641144D01*
X132529431Y-42692029D01*
X132456227Y-42781227D01*
X132367029Y-42854431D01*
X132316144Y-42881629D01*
X132265260Y-42908827D01*
X132154837Y-42942324D01*
X132040000Y-42953634D01*
X131925164Y-42942324D01*
X131814741Y-42908827D01*
X131763857Y-42881629D01*
X131712972Y-42854431D01*
X131623774Y-42781227D01*
X131550570Y-42692029D01*
X131496174Y-42590260D01*
X131496174Y-42590259D01*
X131462676Y-42479837D01*
X131455255Y-42404487D01*
X131453325Y-42394783D01*
X131449536Y-42385637D01*
X131444036Y-42377406D01*
X131437036Y-42370406D01*
X131428805Y-42364906D01*
X131419659Y-42361118D01*
X131409950Y-42359186D01*
X131400050Y-42359186D01*
X131390341Y-42361117D01*
X131381195Y-42364906D01*
X131372964Y-42370406D01*
X131365964Y-42377406D01*
X131360464Y-42385637D01*
X131356676Y-42394783D01*
X131354745Y-42404487D01*
X131347324Y-42479837D01*
X131313827Y-42590260D01*
X131286629Y-42641144D01*
X131259431Y-42692029D01*
X131186227Y-42781227D01*
X131097029Y-42854431D01*
X131046144Y-42881629D01*
X130995260Y-42908827D01*
X130884837Y-42942324D01*
X130770000Y-42953634D01*
X130655164Y-42942324D01*
X130544741Y-42908827D01*
X130493857Y-42881629D01*
X130442972Y-42854431D01*
X130353774Y-42781227D01*
X130280570Y-42692029D01*
X130226174Y-42590260D01*
X130226174Y-42590259D01*
X130192676Y-42479837D01*
X130186554Y-42417677D01*
X130184624Y-42407973D01*
X130180835Y-42398827D01*
X130175335Y-42390596D01*
X130168335Y-42383596D01*
X130160104Y-42378096D01*
X130150958Y-42374308D01*
X130141249Y-42372376D01*
X130131349Y-42372376D01*
X130121640Y-42374307D01*
X130112494Y-42378096D01*
X130104263Y-42383596D01*
X130097263Y-42390596D01*
X130091763Y-42398827D01*
X130087975Y-42407973D01*
X130086043Y-42417682D01*
X130085800Y-42422632D01*
X130085800Y-42950800D01*
X128914200Y-42950800D01*
X128914200Y-41049200D01*
X130085800Y-41049200D01*
X130085800Y-41577369D01*
X130086770Y-41587221D01*
X130089644Y-41596694D01*
X130094311Y-41605425D01*
X130100591Y-41613077D01*
X130108243Y-41619357D01*
X130116974Y-41624024D01*
X130126447Y-41626898D01*
X130136299Y-41627868D01*
X130146151Y-41626898D01*
X130155624Y-41624024D01*
X130164355Y-41619357D01*
X130172007Y-41613077D01*
X130178287Y-41605425D01*
X130182954Y-41596694D01*
X130185828Y-41587221D01*
X130186555Y-41582319D01*
X130192676Y-41520164D01*
X130226173Y-41409741D01*
X130253371Y-41358857D01*
X130280569Y-41307972D01*
X130353773Y-41218773D01*
X130442971Y-41145569D01*
X130493856Y-41118371D01*
X130544740Y-41091173D01*
X130655163Y-41057676D01*
X130770000Y-41046366D01*
X130884836Y-41057676D01*
X130995259Y-41091173D01*
X131046143Y-41118371D01*
X131097028Y-41145569D01*
X131186227Y-41218773D01*
X131259431Y-41307971D01*
X131259432Y-41307973D01*
X131313827Y-41409740D01*
X131347324Y-41520163D01*
X131354745Y-41595513D01*
X131356675Y-41605217D01*
X131360464Y-41614363D01*
X131365964Y-41622594D01*
X131372964Y-41629594D01*
X131381195Y-41635094D01*
X131390341Y-41638882D01*
X131400050Y-41640814D01*
X131409950Y-41640814D01*
X131419659Y-41638883D01*
X131428805Y-41635094D01*
X131437036Y-41629594D01*
X131444036Y-41622594D01*
X131449536Y-41614363D01*
X131453324Y-41605217D01*
X131455256Y-41595508D01*
X131456555Y-41582319D01*
X131462676Y-41520164D01*
X131496173Y-41409741D01*
X131523371Y-41358857D01*
X131550569Y-41307972D01*
X131623773Y-41218773D01*
X131712971Y-41145569D01*
X131763856Y-41118371D01*
X131814740Y-41091173D01*
X131925163Y-41057676D01*
X132040000Y-41046366D01*
X132154836Y-41057676D01*
X132265259Y-41091173D01*
X132316143Y-41118371D01*
X132367028Y-41145569D01*
X132456227Y-41218773D01*
X132529431Y-41307971D01*
X132529432Y-41307973D01*
X132583827Y-41409740D01*
X132617324Y-41520163D01*
X132624745Y-41595513D01*
X132626675Y-41605217D01*
X132630464Y-41614363D01*
X132635964Y-41622594D01*
X132642964Y-41629594D01*
X132651195Y-41635094D01*
X132660341Y-41638882D01*
X132670050Y-41640814D01*
X132679950Y-41640814D01*
X132689659Y-41638883D01*
X132698805Y-41635094D01*
X132707036Y-41629594D01*
X132714036Y-41622594D01*
X132719536Y-41614363D01*
X132723324Y-41605217D01*
X132725256Y-41595508D01*
X132726555Y-41582319D01*
X132732676Y-41520164D01*
X132766173Y-41409741D01*
X132793371Y-41358857D01*
X132820569Y-41307972D01*
X132893773Y-41218773D01*
X132982971Y-41145569D01*
X133033856Y-41118371D01*
X133084740Y-41091173D01*
X133195163Y-41057676D01*
X133310000Y-41046366D01*
X133424836Y-41057676D01*
X133424836Y-41057676D01*
G37*
G36*
X141424836Y-41057676D02*
G01*
X141535259Y-41091173D01*
X141586143Y-41118371D01*
X141637028Y-41145569D01*
X141726227Y-41218773D01*
X141799431Y-41307971D01*
X141799432Y-41307973D01*
X141853827Y-41409740D01*
X141887324Y-41520163D01*
X141895800Y-41606225D01*
X141895800Y-42393775D01*
X141887324Y-42479837D01*
X141853827Y-42590260D01*
X141826629Y-42641144D01*
X141799431Y-42692029D01*
X141726227Y-42781227D01*
X141637029Y-42854431D01*
X141586144Y-42881629D01*
X141535260Y-42908827D01*
X141424837Y-42942324D01*
X141310000Y-42953634D01*
X141195164Y-42942324D01*
X141084741Y-42908827D01*
X141033857Y-42881629D01*
X140982972Y-42854431D01*
X140893774Y-42781227D01*
X140820570Y-42692029D01*
X140766174Y-42590260D01*
X140766174Y-42590259D01*
X140732676Y-42479837D01*
X140725255Y-42404487D01*
X140723325Y-42394783D01*
X140719536Y-42385637D01*
X140714036Y-42377406D01*
X140707036Y-42370406D01*
X140698805Y-42364906D01*
X140689659Y-42361118D01*
X140679950Y-42359186D01*
X140670050Y-42359186D01*
X140660341Y-42361117D01*
X140651195Y-42364906D01*
X140642964Y-42370406D01*
X140635964Y-42377406D01*
X140630464Y-42385637D01*
X140626676Y-42394783D01*
X140624745Y-42404487D01*
X140617324Y-42479837D01*
X140583827Y-42590260D01*
X140556629Y-42641144D01*
X140529431Y-42692029D01*
X140456227Y-42781227D01*
X140367029Y-42854431D01*
X140316144Y-42881629D01*
X140265260Y-42908827D01*
X140154837Y-42942324D01*
X140040000Y-42953634D01*
X139925164Y-42942324D01*
X139814741Y-42908827D01*
X139763857Y-42881629D01*
X139712972Y-42854431D01*
X139623774Y-42781227D01*
X139550570Y-42692029D01*
X139496174Y-42590260D01*
X139496174Y-42590259D01*
X139462676Y-42479837D01*
X139455255Y-42404487D01*
X139453325Y-42394783D01*
X139449536Y-42385637D01*
X139444036Y-42377406D01*
X139437036Y-42370406D01*
X139428805Y-42364906D01*
X139419659Y-42361118D01*
X139409950Y-42359186D01*
X139400050Y-42359186D01*
X139390341Y-42361117D01*
X139381195Y-42364906D01*
X139372964Y-42370406D01*
X139365964Y-42377406D01*
X139360464Y-42385637D01*
X139356676Y-42394783D01*
X139354745Y-42404487D01*
X139347324Y-42479837D01*
X139313827Y-42590260D01*
X139286629Y-42641144D01*
X139259431Y-42692029D01*
X139186227Y-42781227D01*
X139097029Y-42854431D01*
X139046144Y-42881629D01*
X138995260Y-42908827D01*
X138884837Y-42942324D01*
X138770000Y-42953634D01*
X138655164Y-42942324D01*
X138544741Y-42908827D01*
X138493857Y-42881629D01*
X138442972Y-42854431D01*
X138353774Y-42781227D01*
X138280570Y-42692029D01*
X138226174Y-42590260D01*
X138226174Y-42590259D01*
X138192676Y-42479837D01*
X138186554Y-42417677D01*
X138184624Y-42407973D01*
X138180835Y-42398827D01*
X138175335Y-42390596D01*
X138168335Y-42383596D01*
X138160104Y-42378096D01*
X138150958Y-42374308D01*
X138141249Y-42372376D01*
X138131349Y-42372376D01*
X138121640Y-42374307D01*
X138112494Y-42378096D01*
X138104263Y-42383596D01*
X138097263Y-42390596D01*
X138091763Y-42398827D01*
X138087975Y-42407973D01*
X138086043Y-42417682D01*
X138085800Y-42422632D01*
X138085800Y-42950800D01*
X136914200Y-42950800D01*
X136914200Y-41049200D01*
X138085800Y-41049200D01*
X138085800Y-41577369D01*
X138086770Y-41587221D01*
X138089644Y-41596694D01*
X138094311Y-41605425D01*
X138100591Y-41613077D01*
X138108243Y-41619357D01*
X138116974Y-41624024D01*
X138126447Y-41626898D01*
X138136299Y-41627868D01*
X138146151Y-41626898D01*
X138155624Y-41624024D01*
X138164355Y-41619357D01*
X138172007Y-41613077D01*
X138178287Y-41605425D01*
X138182954Y-41596694D01*
X138185828Y-41587221D01*
X138186555Y-41582319D01*
X138192676Y-41520164D01*
X138226173Y-41409741D01*
X138253371Y-41358857D01*
X138280569Y-41307972D01*
X138353773Y-41218773D01*
X138442971Y-41145569D01*
X138493856Y-41118371D01*
X138544740Y-41091173D01*
X138655163Y-41057676D01*
X138770000Y-41046366D01*
X138884836Y-41057676D01*
X138995259Y-41091173D01*
X139046143Y-41118371D01*
X139097028Y-41145569D01*
X139186227Y-41218773D01*
X139259431Y-41307971D01*
X139259432Y-41307973D01*
X139313827Y-41409740D01*
X139347324Y-41520163D01*
X139354745Y-41595513D01*
X139356675Y-41605217D01*
X139360464Y-41614363D01*
X139365964Y-41622594D01*
X139372964Y-41629594D01*
X139381195Y-41635094D01*
X139390341Y-41638882D01*
X139400050Y-41640814D01*
X139409950Y-41640814D01*
X139419659Y-41638883D01*
X139428805Y-41635094D01*
X139437036Y-41629594D01*
X139444036Y-41622594D01*
X139449536Y-41614363D01*
X139453324Y-41605217D01*
X139455256Y-41595508D01*
X139456555Y-41582319D01*
X139462676Y-41520164D01*
X139496173Y-41409741D01*
X139523371Y-41358857D01*
X139550569Y-41307972D01*
X139623773Y-41218773D01*
X139712971Y-41145569D01*
X139763856Y-41118371D01*
X139814740Y-41091173D01*
X139925163Y-41057676D01*
X140040000Y-41046366D01*
X140154836Y-41057676D01*
X140265259Y-41091173D01*
X140316143Y-41118371D01*
X140367028Y-41145569D01*
X140456227Y-41218773D01*
X140529431Y-41307971D01*
X140529432Y-41307973D01*
X140583827Y-41409740D01*
X140617324Y-41520163D01*
X140624745Y-41595513D01*
X140626675Y-41605217D01*
X140630464Y-41614363D01*
X140635964Y-41622594D01*
X140642964Y-41629594D01*
X140651195Y-41635094D01*
X140660341Y-41638882D01*
X140670050Y-41640814D01*
X140679950Y-41640814D01*
X140689659Y-41638883D01*
X140698805Y-41635094D01*
X140707036Y-41629594D01*
X140714036Y-41622594D01*
X140719536Y-41614363D01*
X140723324Y-41605217D01*
X140725256Y-41595508D01*
X140726555Y-41582319D01*
X140732676Y-41520164D01*
X140766173Y-41409741D01*
X140793371Y-41358857D01*
X140820569Y-41307972D01*
X140893773Y-41218773D01*
X140982971Y-41145569D01*
X141033856Y-41118371D01*
X141084740Y-41091173D01*
X141195163Y-41057676D01*
X141310000Y-41046366D01*
X141424836Y-41057676D01*
X141424836Y-41057676D01*
G37*
G36*
X149424836Y-33057676D02*
G01*
X149535259Y-33091173D01*
X149586143Y-33118371D01*
X149637028Y-33145569D01*
X149726227Y-33218773D01*
X149799431Y-33307971D01*
X149799432Y-33307973D01*
X149853827Y-33409740D01*
X149887324Y-33520163D01*
X149895800Y-33606225D01*
X149895800Y-34393775D01*
X149887324Y-34479837D01*
X149853827Y-34590260D01*
X149826629Y-34641144D01*
X149799431Y-34692029D01*
X149726227Y-34781227D01*
X149637029Y-34854431D01*
X149586144Y-34881629D01*
X149535260Y-34908827D01*
X149424837Y-34942324D01*
X149310000Y-34953634D01*
X149195164Y-34942324D01*
X149084741Y-34908827D01*
X149033857Y-34881629D01*
X148982972Y-34854431D01*
X148893774Y-34781227D01*
X148820570Y-34692029D01*
X148766174Y-34590260D01*
X148766174Y-34590259D01*
X148732676Y-34479837D01*
X148725255Y-34404487D01*
X148723325Y-34394783D01*
X148719536Y-34385637D01*
X148714036Y-34377406D01*
X148707036Y-34370406D01*
X148698805Y-34364906D01*
X148689659Y-34361118D01*
X148679950Y-34359186D01*
X148670050Y-34359186D01*
X148660341Y-34361117D01*
X148651195Y-34364906D01*
X148642964Y-34370406D01*
X148635964Y-34377406D01*
X148630464Y-34385637D01*
X148626676Y-34394783D01*
X148624745Y-34404487D01*
X148617324Y-34479837D01*
X148583827Y-34590260D01*
X148556629Y-34641144D01*
X148529431Y-34692029D01*
X148456227Y-34781227D01*
X148367029Y-34854431D01*
X148316144Y-34881629D01*
X148265260Y-34908827D01*
X148154837Y-34942324D01*
X148040000Y-34953634D01*
X147925164Y-34942324D01*
X147814741Y-34908827D01*
X147763857Y-34881629D01*
X147712972Y-34854431D01*
X147623774Y-34781227D01*
X147550570Y-34692029D01*
X147496174Y-34590260D01*
X147496174Y-34590259D01*
X147462676Y-34479837D01*
X147455255Y-34404487D01*
X147453325Y-34394783D01*
X147449536Y-34385637D01*
X147444036Y-34377406D01*
X147437036Y-34370406D01*
X147428805Y-34364906D01*
X147419659Y-34361118D01*
X147409950Y-34359186D01*
X147400050Y-34359186D01*
X147390341Y-34361117D01*
X147381195Y-34364906D01*
X147372964Y-34370406D01*
X147365964Y-34377406D01*
X147360464Y-34385637D01*
X147356676Y-34394783D01*
X147354745Y-34404487D01*
X147347324Y-34479837D01*
X147313827Y-34590260D01*
X147286629Y-34641144D01*
X147259431Y-34692029D01*
X147186227Y-34781227D01*
X147097029Y-34854431D01*
X147046144Y-34881629D01*
X146995260Y-34908827D01*
X146884837Y-34942324D01*
X146770000Y-34953634D01*
X146655164Y-34942324D01*
X146544741Y-34908827D01*
X146493857Y-34881629D01*
X146442972Y-34854431D01*
X146353774Y-34781227D01*
X146280570Y-34692029D01*
X146226174Y-34590260D01*
X146226174Y-34590259D01*
X146192676Y-34479837D01*
X146186554Y-34417677D01*
X146184624Y-34407973D01*
X146180835Y-34398827D01*
X146175335Y-34390596D01*
X146168335Y-34383596D01*
X146160104Y-34378096D01*
X146150958Y-34374308D01*
X146141249Y-34372376D01*
X146131349Y-34372376D01*
X146121640Y-34374307D01*
X146112494Y-34378096D01*
X146104263Y-34383596D01*
X146097263Y-34390596D01*
X146091763Y-34398827D01*
X146087975Y-34407973D01*
X146086043Y-34417682D01*
X146085800Y-34422632D01*
X146085800Y-34950800D01*
X144914200Y-34950800D01*
X144914200Y-33049200D01*
X146085800Y-33049200D01*
X146085800Y-33577369D01*
X146086770Y-33587221D01*
X146089644Y-33596694D01*
X146094311Y-33605425D01*
X146100591Y-33613077D01*
X146108243Y-33619357D01*
X146116974Y-33624024D01*
X146126447Y-33626898D01*
X146136299Y-33627868D01*
X146146151Y-33626898D01*
X146155624Y-33624024D01*
X146164355Y-33619357D01*
X146172007Y-33613077D01*
X146178287Y-33605425D01*
X146182954Y-33596694D01*
X146185828Y-33587221D01*
X146186555Y-33582319D01*
X146192676Y-33520164D01*
X146226173Y-33409741D01*
X146253371Y-33358857D01*
X146280569Y-33307972D01*
X146353773Y-33218773D01*
X146442971Y-33145569D01*
X146493856Y-33118371D01*
X146544740Y-33091173D01*
X146655163Y-33057676D01*
X146770000Y-33046366D01*
X146884836Y-33057676D01*
X146995259Y-33091173D01*
X147046143Y-33118371D01*
X147097028Y-33145569D01*
X147186227Y-33218773D01*
X147259431Y-33307971D01*
X147259432Y-33307973D01*
X147313827Y-33409740D01*
X147347324Y-33520163D01*
X147354745Y-33595513D01*
X147356675Y-33605217D01*
X147360464Y-33614363D01*
X147365964Y-33622594D01*
X147372964Y-33629594D01*
X147381195Y-33635094D01*
X147390341Y-33638882D01*
X147400050Y-33640814D01*
X147409950Y-33640814D01*
X147419659Y-33638883D01*
X147428805Y-33635094D01*
X147437036Y-33629594D01*
X147444036Y-33622594D01*
X147449536Y-33614363D01*
X147453324Y-33605217D01*
X147455256Y-33595508D01*
X147456555Y-33582319D01*
X147462676Y-33520164D01*
X147496173Y-33409741D01*
X147523371Y-33358857D01*
X147550569Y-33307972D01*
X147623773Y-33218773D01*
X147712971Y-33145569D01*
X147763856Y-33118371D01*
X147814740Y-33091173D01*
X147925163Y-33057676D01*
X148040000Y-33046366D01*
X148154836Y-33057676D01*
X148265259Y-33091173D01*
X148316143Y-33118371D01*
X148367028Y-33145569D01*
X148456227Y-33218773D01*
X148529431Y-33307971D01*
X148529432Y-33307973D01*
X148583827Y-33409740D01*
X148617324Y-33520163D01*
X148624745Y-33595513D01*
X148626675Y-33605217D01*
X148630464Y-33614363D01*
X148635964Y-33622594D01*
X148642964Y-33629594D01*
X148651195Y-33635094D01*
X148660341Y-33638882D01*
X148670050Y-33640814D01*
X148679950Y-33640814D01*
X148689659Y-33638883D01*
X148698805Y-33635094D01*
X148707036Y-33629594D01*
X148714036Y-33622594D01*
X148719536Y-33614363D01*
X148723324Y-33605217D01*
X148725256Y-33595508D01*
X148726555Y-33582319D01*
X148732676Y-33520164D01*
X148766173Y-33409741D01*
X148793371Y-33358857D01*
X148820569Y-33307972D01*
X148893773Y-33218773D01*
X148982971Y-33145569D01*
X149033856Y-33118371D01*
X149084740Y-33091173D01*
X149195163Y-33057676D01*
X149310000Y-33046366D01*
X149424836Y-33057676D01*
X149424836Y-33057676D01*
G37*
G36*
X133424836Y-33057676D02*
G01*
X133535259Y-33091173D01*
X133586143Y-33118371D01*
X133637028Y-33145569D01*
X133726227Y-33218773D01*
X133799431Y-33307971D01*
X133799432Y-33307973D01*
X133853827Y-33409740D01*
X133887324Y-33520163D01*
X133895800Y-33606225D01*
X133895800Y-34393775D01*
X133887324Y-34479837D01*
X133853827Y-34590260D01*
X133826629Y-34641144D01*
X133799431Y-34692029D01*
X133726227Y-34781227D01*
X133637029Y-34854431D01*
X133586144Y-34881629D01*
X133535260Y-34908827D01*
X133424837Y-34942324D01*
X133310000Y-34953634D01*
X133195164Y-34942324D01*
X133084741Y-34908827D01*
X133033857Y-34881629D01*
X132982972Y-34854431D01*
X132893774Y-34781227D01*
X132820570Y-34692029D01*
X132766174Y-34590260D01*
X132766174Y-34590259D01*
X132732676Y-34479837D01*
X132725255Y-34404487D01*
X132723325Y-34394783D01*
X132719536Y-34385637D01*
X132714036Y-34377406D01*
X132707036Y-34370406D01*
X132698805Y-34364906D01*
X132689659Y-34361118D01*
X132679950Y-34359186D01*
X132670050Y-34359186D01*
X132660341Y-34361117D01*
X132651195Y-34364906D01*
X132642964Y-34370406D01*
X132635964Y-34377406D01*
X132630464Y-34385637D01*
X132626676Y-34394783D01*
X132624745Y-34404487D01*
X132617324Y-34479837D01*
X132583827Y-34590260D01*
X132556629Y-34641144D01*
X132529431Y-34692029D01*
X132456227Y-34781227D01*
X132367029Y-34854431D01*
X132316144Y-34881629D01*
X132265260Y-34908827D01*
X132154837Y-34942324D01*
X132040000Y-34953634D01*
X131925164Y-34942324D01*
X131814741Y-34908827D01*
X131763857Y-34881629D01*
X131712972Y-34854431D01*
X131623774Y-34781227D01*
X131550570Y-34692029D01*
X131496174Y-34590260D01*
X131496174Y-34590259D01*
X131462676Y-34479837D01*
X131455255Y-34404487D01*
X131453325Y-34394783D01*
X131449536Y-34385637D01*
X131444036Y-34377406D01*
X131437036Y-34370406D01*
X131428805Y-34364906D01*
X131419659Y-34361118D01*
X131409950Y-34359186D01*
X131400050Y-34359186D01*
X131390341Y-34361117D01*
X131381195Y-34364906D01*
X131372964Y-34370406D01*
X131365964Y-34377406D01*
X131360464Y-34385637D01*
X131356676Y-34394783D01*
X131354745Y-34404487D01*
X131347324Y-34479837D01*
X131313827Y-34590260D01*
X131286629Y-34641144D01*
X131259431Y-34692029D01*
X131186227Y-34781227D01*
X131097029Y-34854431D01*
X131046144Y-34881629D01*
X130995260Y-34908827D01*
X130884837Y-34942324D01*
X130770000Y-34953634D01*
X130655164Y-34942324D01*
X130544741Y-34908827D01*
X130493857Y-34881629D01*
X130442972Y-34854431D01*
X130353774Y-34781227D01*
X130280570Y-34692029D01*
X130226174Y-34590260D01*
X130226174Y-34590259D01*
X130192676Y-34479837D01*
X130186554Y-34417677D01*
X130184624Y-34407973D01*
X130180835Y-34398827D01*
X130175335Y-34390596D01*
X130168335Y-34383596D01*
X130160104Y-34378096D01*
X130150958Y-34374308D01*
X130141249Y-34372376D01*
X130131349Y-34372376D01*
X130121640Y-34374307D01*
X130112494Y-34378096D01*
X130104263Y-34383596D01*
X130097263Y-34390596D01*
X130091763Y-34398827D01*
X130087975Y-34407973D01*
X130086043Y-34417682D01*
X130085800Y-34422632D01*
X130085800Y-34950800D01*
X128914200Y-34950800D01*
X128914200Y-33049200D01*
X130085800Y-33049200D01*
X130085800Y-33577369D01*
X130086770Y-33587221D01*
X130089644Y-33596694D01*
X130094311Y-33605425D01*
X130100591Y-33613077D01*
X130108243Y-33619357D01*
X130116974Y-33624024D01*
X130126447Y-33626898D01*
X130136299Y-33627868D01*
X130146151Y-33626898D01*
X130155624Y-33624024D01*
X130164355Y-33619357D01*
X130172007Y-33613077D01*
X130178287Y-33605425D01*
X130182954Y-33596694D01*
X130185828Y-33587221D01*
X130186555Y-33582319D01*
X130192676Y-33520164D01*
X130226173Y-33409741D01*
X130253371Y-33358857D01*
X130280569Y-33307972D01*
X130353773Y-33218773D01*
X130442971Y-33145569D01*
X130493856Y-33118371D01*
X130544740Y-33091173D01*
X130655163Y-33057676D01*
X130770000Y-33046366D01*
X130884836Y-33057676D01*
X130995259Y-33091173D01*
X131046143Y-33118371D01*
X131097028Y-33145569D01*
X131186227Y-33218773D01*
X131259431Y-33307971D01*
X131259432Y-33307973D01*
X131313827Y-33409740D01*
X131347324Y-33520163D01*
X131354745Y-33595513D01*
X131356675Y-33605217D01*
X131360464Y-33614363D01*
X131365964Y-33622594D01*
X131372964Y-33629594D01*
X131381195Y-33635094D01*
X131390341Y-33638882D01*
X131400050Y-33640814D01*
X131409950Y-33640814D01*
X131419659Y-33638883D01*
X131428805Y-33635094D01*
X131437036Y-33629594D01*
X131444036Y-33622594D01*
X131449536Y-33614363D01*
X131453324Y-33605217D01*
X131455256Y-33595508D01*
X131456555Y-33582319D01*
X131462676Y-33520164D01*
X131496173Y-33409741D01*
X131523371Y-33358857D01*
X131550569Y-33307972D01*
X131623773Y-33218773D01*
X131712971Y-33145569D01*
X131763856Y-33118371D01*
X131814740Y-33091173D01*
X131925163Y-33057676D01*
X132040000Y-33046366D01*
X132154836Y-33057676D01*
X132265259Y-33091173D01*
X132316143Y-33118371D01*
X132367028Y-33145569D01*
X132456227Y-33218773D01*
X132529431Y-33307971D01*
X132529432Y-33307973D01*
X132583827Y-33409740D01*
X132617324Y-33520163D01*
X132624745Y-33595513D01*
X132626675Y-33605217D01*
X132630464Y-33614363D01*
X132635964Y-33622594D01*
X132642964Y-33629594D01*
X132651195Y-33635094D01*
X132660341Y-33638882D01*
X132670050Y-33640814D01*
X132679950Y-33640814D01*
X132689659Y-33638883D01*
X132698805Y-33635094D01*
X132707036Y-33629594D01*
X132714036Y-33622594D01*
X132719536Y-33614363D01*
X132723324Y-33605217D01*
X132725256Y-33595508D01*
X132726555Y-33582319D01*
X132732676Y-33520164D01*
X132766173Y-33409741D01*
X132793371Y-33358857D01*
X132820569Y-33307972D01*
X132893773Y-33218773D01*
X132982971Y-33145569D01*
X133033856Y-33118371D01*
X133084740Y-33091173D01*
X133195163Y-33057676D01*
X133310000Y-33046366D01*
X133424836Y-33057676D01*
X133424836Y-33057676D01*
G37*
G36*
X141424836Y-33057676D02*
G01*
X141535259Y-33091173D01*
X141586143Y-33118371D01*
X141637028Y-33145569D01*
X141726227Y-33218773D01*
X141799431Y-33307971D01*
X141799432Y-33307973D01*
X141853827Y-33409740D01*
X141887324Y-33520163D01*
X141895800Y-33606225D01*
X141895800Y-34393775D01*
X141887324Y-34479837D01*
X141853827Y-34590260D01*
X141826629Y-34641144D01*
X141799431Y-34692029D01*
X141726227Y-34781227D01*
X141637029Y-34854431D01*
X141586144Y-34881629D01*
X141535260Y-34908827D01*
X141424837Y-34942324D01*
X141310000Y-34953634D01*
X141195164Y-34942324D01*
X141084741Y-34908827D01*
X141033857Y-34881629D01*
X140982972Y-34854431D01*
X140893774Y-34781227D01*
X140820570Y-34692029D01*
X140766174Y-34590260D01*
X140766174Y-34590259D01*
X140732676Y-34479837D01*
X140725255Y-34404487D01*
X140723325Y-34394783D01*
X140719536Y-34385637D01*
X140714036Y-34377406D01*
X140707036Y-34370406D01*
X140698805Y-34364906D01*
X140689659Y-34361118D01*
X140679950Y-34359186D01*
X140670050Y-34359186D01*
X140660341Y-34361117D01*
X140651195Y-34364906D01*
X140642964Y-34370406D01*
X140635964Y-34377406D01*
X140630464Y-34385637D01*
X140626676Y-34394783D01*
X140624745Y-34404487D01*
X140617324Y-34479837D01*
X140583827Y-34590260D01*
X140556629Y-34641144D01*
X140529431Y-34692029D01*
X140456227Y-34781227D01*
X140367029Y-34854431D01*
X140316144Y-34881629D01*
X140265260Y-34908827D01*
X140154837Y-34942324D01*
X140040000Y-34953634D01*
X139925164Y-34942324D01*
X139814741Y-34908827D01*
X139763857Y-34881629D01*
X139712972Y-34854431D01*
X139623774Y-34781227D01*
X139550570Y-34692029D01*
X139496174Y-34590260D01*
X139496174Y-34590259D01*
X139462676Y-34479837D01*
X139455255Y-34404487D01*
X139453325Y-34394783D01*
X139449536Y-34385637D01*
X139444036Y-34377406D01*
X139437036Y-34370406D01*
X139428805Y-34364906D01*
X139419659Y-34361118D01*
X139409950Y-34359186D01*
X139400050Y-34359186D01*
X139390341Y-34361117D01*
X139381195Y-34364906D01*
X139372964Y-34370406D01*
X139365964Y-34377406D01*
X139360464Y-34385637D01*
X139356676Y-34394783D01*
X139354745Y-34404487D01*
X139347324Y-34479837D01*
X139313827Y-34590260D01*
X139286629Y-34641144D01*
X139259431Y-34692029D01*
X139186227Y-34781227D01*
X139097029Y-34854431D01*
X139046144Y-34881629D01*
X138995260Y-34908827D01*
X138884837Y-34942324D01*
X138770000Y-34953634D01*
X138655164Y-34942324D01*
X138544741Y-34908827D01*
X138493857Y-34881629D01*
X138442972Y-34854431D01*
X138353774Y-34781227D01*
X138280570Y-34692029D01*
X138226174Y-34590260D01*
X138226174Y-34590259D01*
X138192676Y-34479837D01*
X138186554Y-34417677D01*
X138184624Y-34407973D01*
X138180835Y-34398827D01*
X138175335Y-34390596D01*
X138168335Y-34383596D01*
X138160104Y-34378096D01*
X138150958Y-34374308D01*
X138141249Y-34372376D01*
X138131349Y-34372376D01*
X138121640Y-34374307D01*
X138112494Y-34378096D01*
X138104263Y-34383596D01*
X138097263Y-34390596D01*
X138091763Y-34398827D01*
X138087975Y-34407973D01*
X138086043Y-34417682D01*
X138085800Y-34422632D01*
X138085800Y-34950800D01*
X136914200Y-34950800D01*
X136914200Y-33049200D01*
X138085800Y-33049200D01*
X138085800Y-33577369D01*
X138086770Y-33587221D01*
X138089644Y-33596694D01*
X138094311Y-33605425D01*
X138100591Y-33613077D01*
X138108243Y-33619357D01*
X138116974Y-33624024D01*
X138126447Y-33626898D01*
X138136299Y-33627868D01*
X138146151Y-33626898D01*
X138155624Y-33624024D01*
X138164355Y-33619357D01*
X138172007Y-33613077D01*
X138178287Y-33605425D01*
X138182954Y-33596694D01*
X138185828Y-33587221D01*
X138186555Y-33582319D01*
X138192676Y-33520164D01*
X138226173Y-33409741D01*
X138253371Y-33358857D01*
X138280569Y-33307972D01*
X138353773Y-33218773D01*
X138442971Y-33145569D01*
X138493856Y-33118371D01*
X138544740Y-33091173D01*
X138655163Y-33057676D01*
X138770000Y-33046366D01*
X138884836Y-33057676D01*
X138995259Y-33091173D01*
X139046143Y-33118371D01*
X139097028Y-33145569D01*
X139186227Y-33218773D01*
X139259431Y-33307971D01*
X139259432Y-33307973D01*
X139313827Y-33409740D01*
X139347324Y-33520163D01*
X139354745Y-33595513D01*
X139356675Y-33605217D01*
X139360464Y-33614363D01*
X139365964Y-33622594D01*
X139372964Y-33629594D01*
X139381195Y-33635094D01*
X139390341Y-33638882D01*
X139400050Y-33640814D01*
X139409950Y-33640814D01*
X139419659Y-33638883D01*
X139428805Y-33635094D01*
X139437036Y-33629594D01*
X139444036Y-33622594D01*
X139449536Y-33614363D01*
X139453324Y-33605217D01*
X139455256Y-33595508D01*
X139456555Y-33582319D01*
X139462676Y-33520164D01*
X139496173Y-33409741D01*
X139523371Y-33358857D01*
X139550569Y-33307972D01*
X139623773Y-33218773D01*
X139712971Y-33145569D01*
X139763856Y-33118371D01*
X139814740Y-33091173D01*
X139925163Y-33057676D01*
X140040000Y-33046366D01*
X140154836Y-33057676D01*
X140265259Y-33091173D01*
X140316143Y-33118371D01*
X140367028Y-33145569D01*
X140456227Y-33218773D01*
X140529431Y-33307971D01*
X140529432Y-33307973D01*
X140583827Y-33409740D01*
X140617324Y-33520163D01*
X140624745Y-33595513D01*
X140626675Y-33605217D01*
X140630464Y-33614363D01*
X140635964Y-33622594D01*
X140642964Y-33629594D01*
X140651195Y-33635094D01*
X140660341Y-33638882D01*
X140670050Y-33640814D01*
X140679950Y-33640814D01*
X140689659Y-33638883D01*
X140698805Y-33635094D01*
X140707036Y-33629594D01*
X140714036Y-33622594D01*
X140719536Y-33614363D01*
X140723324Y-33605217D01*
X140725256Y-33595508D01*
X140726555Y-33582319D01*
X140732676Y-33520164D01*
X140766173Y-33409741D01*
X140793371Y-33358857D01*
X140820569Y-33307972D01*
X140893773Y-33218773D01*
X140982971Y-33145569D01*
X141033856Y-33118371D01*
X141084740Y-33091173D01*
X141195163Y-33057676D01*
X141310000Y-33046366D01*
X141424836Y-33057676D01*
X141424836Y-33057676D01*
G37*
M02*
