G04 #@! TF.GenerationSoftware,KiCad,Pcbnew,(5.1.4)-1*
G04 #@! TF.CreationDate,2021-05-12T10:10:47-04:00*
G04 #@! TF.ProjectId,QAZ_IS31FL3746A_breakoutboard,51415a5f-4953-4333-9146-4c3337343641,rev?*
G04 #@! TF.SameCoordinates,Original*
G04 #@! TF.FileFunction,Legend,Top*
G04 #@! TF.FilePolarity,Positive*
%FSLAX46Y46*%
G04 Gerber Fmt 4.6, Leading zero omitted, Abs format (unit mm)*
G04 Created by KiCad (PCBNEW (5.1.4)-1) date 2021-05-12 10:10:47*
%MOMM*%
%LPD*%
G04 APERTURE LIST*
%ADD10C,0.150000*%
%ADD11C,0.120000*%
G04 APERTURE END LIST*
D10*
X129190476Y-49202380D02*
X129190476Y-48202380D01*
X129619047Y-49154761D02*
X129761904Y-49202380D01*
X130000000Y-49202380D01*
X130095238Y-49154761D01*
X130142857Y-49107142D01*
X130190476Y-49011904D01*
X130190476Y-48916666D01*
X130142857Y-48821428D01*
X130095238Y-48773809D01*
X130000000Y-48726190D01*
X129809523Y-48678571D01*
X129714285Y-48630952D01*
X129666666Y-48583333D01*
X129619047Y-48488095D01*
X129619047Y-48392857D01*
X129666666Y-48297619D01*
X129714285Y-48250000D01*
X129809523Y-48202380D01*
X130047619Y-48202380D01*
X130190476Y-48250000D01*
X130523809Y-48202380D02*
X131142857Y-48202380D01*
X130809523Y-48583333D01*
X130952380Y-48583333D01*
X131047619Y-48630952D01*
X131095238Y-48678571D01*
X131142857Y-48773809D01*
X131142857Y-49011904D01*
X131095238Y-49107142D01*
X131047619Y-49154761D01*
X130952380Y-49202380D01*
X130666666Y-49202380D01*
X130571428Y-49154761D01*
X130523809Y-49107142D01*
X132095238Y-49202380D02*
X131523809Y-49202380D01*
X131809523Y-49202380D02*
X131809523Y-48202380D01*
X131714285Y-48345238D01*
X131619047Y-48440476D01*
X131523809Y-48488095D01*
X132857142Y-48678571D02*
X132523809Y-48678571D01*
X132523809Y-49202380D02*
X132523809Y-48202380D01*
X133000000Y-48202380D01*
X133857142Y-49202380D02*
X133380952Y-49202380D01*
X133380952Y-48202380D01*
X134095238Y-48202380D02*
X134714285Y-48202380D01*
X134380952Y-48583333D01*
X134523809Y-48583333D01*
X134619047Y-48630952D01*
X134666666Y-48678571D01*
X134714285Y-48773809D01*
X134714285Y-49011904D01*
X134666666Y-49107142D01*
X134619047Y-49154761D01*
X134523809Y-49202380D01*
X134238095Y-49202380D01*
X134142857Y-49154761D01*
X134095238Y-49107142D01*
X135047619Y-48202380D02*
X135714285Y-48202380D01*
X135285714Y-49202380D01*
X136523809Y-48535714D02*
X136523809Y-49202380D01*
X136285714Y-48154761D02*
X136047619Y-48869047D01*
X136666666Y-48869047D01*
X137476190Y-48202380D02*
X137285714Y-48202380D01*
X137190476Y-48250000D01*
X137142857Y-48297619D01*
X137047619Y-48440476D01*
X137000000Y-48630952D01*
X137000000Y-49011904D01*
X137047619Y-49107142D01*
X137095238Y-49154761D01*
X137190476Y-49202380D01*
X137380952Y-49202380D01*
X137476190Y-49154761D01*
X137523809Y-49107142D01*
X137571428Y-49011904D01*
X137571428Y-48773809D01*
X137523809Y-48678571D01*
X137476190Y-48630952D01*
X137380952Y-48583333D01*
X137190476Y-48583333D01*
X137095238Y-48630952D01*
X137047619Y-48678571D01*
X137000000Y-48773809D01*
X137952380Y-48916666D02*
X138428571Y-48916666D01*
X137857142Y-49202380D02*
X138190476Y-48202380D01*
X138523809Y-49202380D01*
X139952380Y-48678571D02*
X140095238Y-48726190D01*
X140142857Y-48773809D01*
X140190476Y-48869047D01*
X140190476Y-49011904D01*
X140142857Y-49107142D01*
X140095238Y-49154761D01*
X140000000Y-49202380D01*
X139619047Y-49202380D01*
X139619047Y-48202380D01*
X139952380Y-48202380D01*
X140047619Y-48250000D01*
X140095238Y-48297619D01*
X140142857Y-48392857D01*
X140142857Y-48488095D01*
X140095238Y-48583333D01*
X140047619Y-48630952D01*
X139952380Y-48678571D01*
X139619047Y-48678571D01*
X140619047Y-49202380D02*
X140619047Y-48535714D01*
X140619047Y-48726190D02*
X140666666Y-48630952D01*
X140714285Y-48583333D01*
X140809523Y-48535714D01*
X140904761Y-48535714D01*
X141619047Y-49154761D02*
X141523809Y-49202380D01*
X141333333Y-49202380D01*
X141238095Y-49154761D01*
X141190476Y-49059523D01*
X141190476Y-48678571D01*
X141238095Y-48583333D01*
X141333333Y-48535714D01*
X141523809Y-48535714D01*
X141619047Y-48583333D01*
X141666666Y-48678571D01*
X141666666Y-48773809D01*
X141190476Y-48869047D01*
X142523809Y-49202380D02*
X142523809Y-48678571D01*
X142476190Y-48583333D01*
X142380952Y-48535714D01*
X142190476Y-48535714D01*
X142095238Y-48583333D01*
X142523809Y-49154761D02*
X142428571Y-49202380D01*
X142190476Y-49202380D01*
X142095238Y-49154761D01*
X142047619Y-49059523D01*
X142047619Y-48964285D01*
X142095238Y-48869047D01*
X142190476Y-48821428D01*
X142428571Y-48821428D01*
X142523809Y-48773809D01*
X143000000Y-49202380D02*
X143000000Y-48202380D01*
X143095238Y-48821428D02*
X143380952Y-49202380D01*
X143380952Y-48535714D02*
X143000000Y-48916666D01*
X143952380Y-49202380D02*
X143857142Y-49154761D01*
X143809523Y-49107142D01*
X143761904Y-49011904D01*
X143761904Y-48726190D01*
X143809523Y-48630952D01*
X143857142Y-48583333D01*
X143952380Y-48535714D01*
X144095238Y-48535714D01*
X144190476Y-48583333D01*
X144238095Y-48630952D01*
X144285714Y-48726190D01*
X144285714Y-49011904D01*
X144238095Y-49107142D01*
X144190476Y-49154761D01*
X144095238Y-49202380D01*
X143952380Y-49202380D01*
X145142857Y-48535714D02*
X145142857Y-49202380D01*
X144714285Y-48535714D02*
X144714285Y-49059523D01*
X144761904Y-49154761D01*
X144857142Y-49202380D01*
X145000000Y-49202380D01*
X145095238Y-49154761D01*
X145142857Y-49107142D01*
X145476190Y-48535714D02*
X145857142Y-48535714D01*
X145619047Y-48202380D02*
X145619047Y-49059523D01*
X145666666Y-49154761D01*
X145761904Y-49202380D01*
X145857142Y-49202380D01*
X147285714Y-48678571D02*
X147428571Y-48726190D01*
X147476190Y-48773809D01*
X147523809Y-48869047D01*
X147523809Y-49011904D01*
X147476190Y-49107142D01*
X147428571Y-49154761D01*
X147333333Y-49202380D01*
X146952380Y-49202380D01*
X146952380Y-48202380D01*
X147285714Y-48202380D01*
X147380952Y-48250000D01*
X147428571Y-48297619D01*
X147476190Y-48392857D01*
X147476190Y-48488095D01*
X147428571Y-48583333D01*
X147380952Y-48630952D01*
X147285714Y-48678571D01*
X146952380Y-48678571D01*
X148095238Y-49202380D02*
X148000000Y-49154761D01*
X147952380Y-49107142D01*
X147904761Y-49011904D01*
X147904761Y-48726190D01*
X147952380Y-48630952D01*
X148000000Y-48583333D01*
X148095238Y-48535714D01*
X148238095Y-48535714D01*
X148333333Y-48583333D01*
X148380952Y-48630952D01*
X148428571Y-48726190D01*
X148428571Y-49011904D01*
X148380952Y-49107142D01*
X148333333Y-49154761D01*
X148238095Y-49202380D01*
X148095238Y-49202380D01*
X149285714Y-49202380D02*
X149285714Y-48678571D01*
X149238095Y-48583333D01*
X149142857Y-48535714D01*
X148952380Y-48535714D01*
X148857142Y-48583333D01*
X149285714Y-49154761D02*
X149190476Y-49202380D01*
X148952380Y-49202380D01*
X148857142Y-49154761D01*
X148809523Y-49059523D01*
X148809523Y-48964285D01*
X148857142Y-48869047D01*
X148952380Y-48821428D01*
X149190476Y-48821428D01*
X149285714Y-48773809D01*
X149761904Y-49202380D02*
X149761904Y-48535714D01*
X149761904Y-48726190D02*
X149809523Y-48630952D01*
X149857142Y-48583333D01*
X149952380Y-48535714D01*
X150047619Y-48535714D01*
X150809523Y-49202380D02*
X150809523Y-48202380D01*
X150809523Y-49154761D02*
X150714285Y-49202380D01*
X150523809Y-49202380D01*
X150428571Y-49154761D01*
X150380952Y-49107142D01*
X150333333Y-49011904D01*
X150333333Y-48726190D01*
X150380952Y-48630952D01*
X150428571Y-48583333D01*
X150523809Y-48535714D01*
X150714285Y-48535714D01*
X150809523Y-48583333D01*
D11*
X146780000Y-77330000D02*
X146780000Y-74670000D01*
X134020000Y-77330000D02*
X146780000Y-77330000D01*
X134020000Y-74670000D02*
X146780000Y-74670000D01*
X134020000Y-77330000D02*
X134020000Y-74670000D01*
X132750000Y-77330000D02*
X131420000Y-77330000D01*
X131420000Y-77330000D02*
X131420000Y-76000000D01*
X141260000Y-63890000D02*
X141610000Y-63890000D01*
X137740000Y-68110000D02*
X137390000Y-68110000D01*
X137390000Y-68110000D02*
X137390000Y-67760000D01*
X137740000Y-63890000D02*
X137390000Y-63890000D01*
X141260000Y-68110000D02*
X141610000Y-68110000D01*
X141610000Y-63890000D02*
X141610000Y-64240000D01*
X137390000Y-63890000D02*
X137390000Y-64240000D01*
X151010000Y-56578733D02*
X151010000Y-56921267D01*
X149990000Y-56578733D02*
X149990000Y-56921267D01*
X150010000Y-52828733D02*
X150010000Y-53171267D01*
X148990000Y-52828733D02*
X148990000Y-53171267D01*
X149010000Y-56578733D02*
X149010000Y-56921267D01*
X147990000Y-56578733D02*
X147990000Y-56921267D01*
X147010000Y-56578733D02*
X147010000Y-56921267D01*
X145990000Y-56578733D02*
X145990000Y-56921267D01*
X146010000Y-52828733D02*
X146010000Y-53171267D01*
X144990000Y-52828733D02*
X144990000Y-53171267D01*
X145010000Y-56578733D02*
X145010000Y-56921267D01*
X143990000Y-56578733D02*
X143990000Y-56921267D01*
X143010000Y-56578733D02*
X143010000Y-56921267D01*
X141990000Y-56578733D02*
X141990000Y-56921267D01*
X142010000Y-52828733D02*
X142010000Y-53171267D01*
X140990000Y-52828733D02*
X140990000Y-53171267D01*
X141010000Y-56578733D02*
X141010000Y-56921267D01*
X139990000Y-56578733D02*
X139990000Y-56921267D01*
X139010000Y-56578733D02*
X139010000Y-56921267D01*
X137990000Y-56578733D02*
X137990000Y-56921267D01*
X138010000Y-52828733D02*
X138010000Y-53171267D01*
X136990000Y-52828733D02*
X136990000Y-53171267D01*
X137010000Y-56578733D02*
X137010000Y-56921267D01*
X135990000Y-56578733D02*
X135990000Y-56921267D01*
X135010000Y-56578733D02*
X135010000Y-56921267D01*
X133990000Y-56578733D02*
X133990000Y-56921267D01*
X134010000Y-52828733D02*
X134010000Y-53171267D01*
X132990000Y-52828733D02*
X132990000Y-53171267D01*
X133010000Y-56578733D02*
X133010000Y-56921267D01*
X131990000Y-56578733D02*
X131990000Y-56921267D01*
X131010000Y-56578733D02*
X131010000Y-56921267D01*
X129990000Y-56578733D02*
X129990000Y-56921267D01*
X130010000Y-52828733D02*
X130010000Y-53171267D01*
X128990000Y-52828733D02*
X128990000Y-53171267D01*
X129010000Y-56578733D02*
X129010000Y-56921267D01*
X127990000Y-56578733D02*
X127990000Y-56921267D01*
X149740000Y-76171267D02*
X149740000Y-75828733D01*
X150760000Y-76171267D02*
X150760000Y-75828733D01*
X146260000Y-70328733D02*
X146260000Y-70671267D01*
X145240000Y-70328733D02*
X145240000Y-70671267D01*
X133260000Y-71828733D02*
X133260000Y-72171267D01*
X132240000Y-71828733D02*
X132240000Y-72171267D01*
X135260000Y-71828733D02*
X135260000Y-72171267D01*
X134240000Y-71828733D02*
X134240000Y-72171267D01*
X144845000Y-40455000D02*
X144845000Y-40920000D01*
X144845000Y-43080000D02*
X144845000Y-43545000D01*
X149659479Y-43080429D02*
G75*
G02X145150316Y-43080000I-2254479J1080429D01*
G01*
X149659479Y-40919571D02*
G75*
G03X145150316Y-40920000I-2254479J-1080429D01*
G01*
X150192815Y-43080827D02*
G75*
G02X144845000Y-43544830I-2787815J1080827D01*
G01*
X150192815Y-40919173D02*
G75*
G03X144845000Y-40455170I-2787815J-1080827D01*
G01*
X144845000Y-32455000D02*
X144845000Y-32920000D01*
X144845000Y-35080000D02*
X144845000Y-35545000D01*
X149659479Y-35080429D02*
G75*
G02X145150316Y-35080000I-2254479J1080429D01*
G01*
X149659479Y-32919571D02*
G75*
G03X145150316Y-32920000I-2254479J-1080429D01*
G01*
X150192815Y-35080827D02*
G75*
G02X144845000Y-35544830I-2787815J1080827D01*
G01*
X150192815Y-32919173D02*
G75*
G03X144845000Y-32455170I-2787815J-1080827D01*
G01*
X136845000Y-40455000D02*
X136845000Y-40920000D01*
X136845000Y-43080000D02*
X136845000Y-43545000D01*
X141659479Y-43080429D02*
G75*
G02X137150316Y-43080000I-2254479J1080429D01*
G01*
X141659479Y-40919571D02*
G75*
G03X137150316Y-40920000I-2254479J-1080429D01*
G01*
X142192815Y-43080827D02*
G75*
G02X136845000Y-43544830I-2787815J1080827D01*
G01*
X142192815Y-40919173D02*
G75*
G03X136845000Y-40455170I-2787815J-1080827D01*
G01*
X136845000Y-32455000D02*
X136845000Y-32920000D01*
X136845000Y-35080000D02*
X136845000Y-35545000D01*
X141659479Y-35080429D02*
G75*
G02X137150316Y-35080000I-2254479J1080429D01*
G01*
X141659479Y-32919571D02*
G75*
G03X137150316Y-32920000I-2254479J-1080429D01*
G01*
X142192815Y-35080827D02*
G75*
G02X136845000Y-35544830I-2787815J1080827D01*
G01*
X142192815Y-32919173D02*
G75*
G03X136845000Y-32455170I-2787815J-1080827D01*
G01*
X128845000Y-40455000D02*
X128845000Y-40920000D01*
X128845000Y-43080000D02*
X128845000Y-43545000D01*
X133659479Y-43080429D02*
G75*
G02X129150316Y-43080000I-2254479J1080429D01*
G01*
X133659479Y-40919571D02*
G75*
G03X129150316Y-40920000I-2254479J-1080429D01*
G01*
X134192815Y-43080827D02*
G75*
G02X128845000Y-43544830I-2787815J1080827D01*
G01*
X134192815Y-40919173D02*
G75*
G03X128845000Y-40455170I-2787815J-1080827D01*
G01*
X128845000Y-32455000D02*
X128845000Y-32920000D01*
X128845000Y-35080000D02*
X128845000Y-35545000D01*
X133659479Y-35080429D02*
G75*
G02X129150316Y-35080000I-2254479J1080429D01*
G01*
X133659479Y-32919571D02*
G75*
G03X129150316Y-32920000I-2254479J-1080429D01*
G01*
X134192815Y-35080827D02*
G75*
G02X128845000Y-35544830I-2787815J1080827D01*
G01*
X134192815Y-32919173D02*
G75*
G03X128845000Y-32455170I-2787815J-1080827D01*
G01*
X147990000Y-76171267D02*
X147990000Y-75828733D01*
X149010000Y-76171267D02*
X149010000Y-75828733D01*
X141578733Y-70490000D02*
X141921267Y-70490000D01*
X141578733Y-71510000D02*
X141921267Y-71510000D01*
X132490000Y-66078733D02*
X132490000Y-66421267D01*
X133510000Y-66078733D02*
X133510000Y-66421267D01*
X141578733Y-72490000D02*
X141921267Y-72490000D01*
X141578733Y-73510000D02*
X141921267Y-73510000D01*
D10*
X129666666Y-75452380D02*
X129666666Y-76166666D01*
X129619047Y-76309523D01*
X129523809Y-76404761D01*
X129380952Y-76452380D01*
X129285714Y-76452380D01*
X130666666Y-76452380D02*
X130095238Y-76452380D01*
X130380952Y-76452380D02*
X130380952Y-75452380D01*
X130285714Y-75595238D01*
X130190476Y-75690476D01*
X130095238Y-75738095D01*
X138738095Y-64952380D02*
X138738095Y-65761904D01*
X138785714Y-65857142D01*
X138833333Y-65904761D01*
X138928571Y-65952380D01*
X139119047Y-65952380D01*
X139214285Y-65904761D01*
X139261904Y-65857142D01*
X139309523Y-65761904D01*
X139309523Y-64952380D01*
X140309523Y-65952380D02*
X139738095Y-65952380D01*
X140023809Y-65952380D02*
X140023809Y-64952380D01*
X139928571Y-65095238D01*
X139833333Y-65190476D01*
X139738095Y-65238095D01*
X141488095Y-61952380D02*
X141488095Y-62761904D01*
X141535714Y-62857142D01*
X141583333Y-62904761D01*
X141678571Y-62952380D01*
X141869047Y-62952380D01*
X141964285Y-62904761D01*
X142011904Y-62857142D01*
X142059523Y-62761904D01*
X142059523Y-61952380D01*
X143059523Y-62952380D02*
X142488095Y-62952380D01*
X142773809Y-62952380D02*
X142773809Y-61952380D01*
X142678571Y-62095238D01*
X142583333Y-62190476D01*
X142488095Y-62238095D01*
X150952380Y-60642857D02*
X150476190Y-60976190D01*
X150952380Y-61214285D02*
X149952380Y-61214285D01*
X149952380Y-60833333D01*
X150000000Y-60738095D01*
X150047619Y-60690476D01*
X150142857Y-60642857D01*
X150285714Y-60642857D01*
X150380952Y-60690476D01*
X150428571Y-60738095D01*
X150476190Y-60833333D01*
X150476190Y-61214285D01*
X150047619Y-60261904D02*
X150000000Y-60214285D01*
X149952380Y-60119047D01*
X149952380Y-59880952D01*
X150000000Y-59785714D01*
X150047619Y-59738095D01*
X150142857Y-59690476D01*
X150238095Y-59690476D01*
X150380952Y-59738095D01*
X150952380Y-60309523D01*
X150952380Y-59690476D01*
X150047619Y-59309523D02*
X150000000Y-59261904D01*
X149952380Y-59166666D01*
X149952380Y-58928571D01*
X150000000Y-58833333D01*
X150047619Y-58785714D01*
X150142857Y-58738095D01*
X150238095Y-58738095D01*
X150380952Y-58785714D01*
X150952380Y-59357142D01*
X150952380Y-58738095D01*
X151382380Y-53642857D02*
X150906190Y-53976190D01*
X151382380Y-54214285D02*
X150382380Y-54214285D01*
X150382380Y-53833333D01*
X150430000Y-53738095D01*
X150477619Y-53690476D01*
X150572857Y-53642857D01*
X150715714Y-53642857D01*
X150810952Y-53690476D01*
X150858571Y-53738095D01*
X150906190Y-53833333D01*
X150906190Y-54214285D01*
X150477619Y-53261904D02*
X150430000Y-53214285D01*
X150382380Y-53119047D01*
X150382380Y-52880952D01*
X150430000Y-52785714D01*
X150477619Y-52738095D01*
X150572857Y-52690476D01*
X150668095Y-52690476D01*
X150810952Y-52738095D01*
X151382380Y-53309523D01*
X151382380Y-52690476D01*
X151382380Y-51738095D02*
X151382380Y-52309523D01*
X151382380Y-52023809D02*
X150382380Y-52023809D01*
X150525238Y-52119047D01*
X150620476Y-52214285D01*
X150668095Y-52309523D01*
X148952380Y-60642857D02*
X148476190Y-60976190D01*
X148952380Y-61214285D02*
X147952380Y-61214285D01*
X147952380Y-60833333D01*
X148000000Y-60738095D01*
X148047619Y-60690476D01*
X148142857Y-60642857D01*
X148285714Y-60642857D01*
X148380952Y-60690476D01*
X148428571Y-60738095D01*
X148476190Y-60833333D01*
X148476190Y-61214285D01*
X148047619Y-60261904D02*
X148000000Y-60214285D01*
X147952380Y-60119047D01*
X147952380Y-59880952D01*
X148000000Y-59785714D01*
X148047619Y-59738095D01*
X148142857Y-59690476D01*
X148238095Y-59690476D01*
X148380952Y-59738095D01*
X148952380Y-60309523D01*
X148952380Y-59690476D01*
X147952380Y-59071428D02*
X147952380Y-58976190D01*
X148000000Y-58880952D01*
X148047619Y-58833333D01*
X148142857Y-58785714D01*
X148333333Y-58738095D01*
X148571428Y-58738095D01*
X148761904Y-58785714D01*
X148857142Y-58833333D01*
X148904761Y-58880952D01*
X148952380Y-58976190D01*
X148952380Y-59071428D01*
X148904761Y-59166666D01*
X148857142Y-59214285D01*
X148761904Y-59261904D01*
X148571428Y-59309523D01*
X148333333Y-59309523D01*
X148142857Y-59261904D01*
X148047619Y-59214285D01*
X148000000Y-59166666D01*
X147952380Y-59071428D01*
X146952380Y-60642857D02*
X146476190Y-60976190D01*
X146952380Y-61214285D02*
X145952380Y-61214285D01*
X145952380Y-60833333D01*
X146000000Y-60738095D01*
X146047619Y-60690476D01*
X146142857Y-60642857D01*
X146285714Y-60642857D01*
X146380952Y-60690476D01*
X146428571Y-60738095D01*
X146476190Y-60833333D01*
X146476190Y-61214285D01*
X146952380Y-59690476D02*
X146952380Y-60261904D01*
X146952380Y-59976190D02*
X145952380Y-59976190D01*
X146095238Y-60071428D01*
X146190476Y-60166666D01*
X146238095Y-60261904D01*
X146952380Y-59214285D02*
X146952380Y-59023809D01*
X146904761Y-58928571D01*
X146857142Y-58880952D01*
X146714285Y-58785714D01*
X146523809Y-58738095D01*
X146142857Y-58738095D01*
X146047619Y-58785714D01*
X146000000Y-58833333D01*
X145952380Y-58928571D01*
X145952380Y-59119047D01*
X146000000Y-59214285D01*
X146047619Y-59261904D01*
X146142857Y-59309523D01*
X146380952Y-59309523D01*
X146476190Y-59261904D01*
X146523809Y-59214285D01*
X146571428Y-59119047D01*
X146571428Y-58928571D01*
X146523809Y-58833333D01*
X146476190Y-58785714D01*
X146380952Y-58738095D01*
X147382380Y-53642857D02*
X146906190Y-53976190D01*
X147382380Y-54214285D02*
X146382380Y-54214285D01*
X146382380Y-53833333D01*
X146430000Y-53738095D01*
X146477619Y-53690476D01*
X146572857Y-53642857D01*
X146715714Y-53642857D01*
X146810952Y-53690476D01*
X146858571Y-53738095D01*
X146906190Y-53833333D01*
X146906190Y-54214285D01*
X147382380Y-52690476D02*
X147382380Y-53261904D01*
X147382380Y-52976190D02*
X146382380Y-52976190D01*
X146525238Y-53071428D01*
X146620476Y-53166666D01*
X146668095Y-53261904D01*
X146810952Y-52119047D02*
X146763333Y-52214285D01*
X146715714Y-52261904D01*
X146620476Y-52309523D01*
X146572857Y-52309523D01*
X146477619Y-52261904D01*
X146430000Y-52214285D01*
X146382380Y-52119047D01*
X146382380Y-51928571D01*
X146430000Y-51833333D01*
X146477619Y-51785714D01*
X146572857Y-51738095D01*
X146620476Y-51738095D01*
X146715714Y-51785714D01*
X146763333Y-51833333D01*
X146810952Y-51928571D01*
X146810952Y-52119047D01*
X146858571Y-52214285D01*
X146906190Y-52261904D01*
X147001428Y-52309523D01*
X147191904Y-52309523D01*
X147287142Y-52261904D01*
X147334761Y-52214285D01*
X147382380Y-52119047D01*
X147382380Y-51928571D01*
X147334761Y-51833333D01*
X147287142Y-51785714D01*
X147191904Y-51738095D01*
X147001428Y-51738095D01*
X146906190Y-51785714D01*
X146858571Y-51833333D01*
X146810952Y-51928571D01*
X144952380Y-60642857D02*
X144476190Y-60976190D01*
X144952380Y-61214285D02*
X143952380Y-61214285D01*
X143952380Y-60833333D01*
X144000000Y-60738095D01*
X144047619Y-60690476D01*
X144142857Y-60642857D01*
X144285714Y-60642857D01*
X144380952Y-60690476D01*
X144428571Y-60738095D01*
X144476190Y-60833333D01*
X144476190Y-61214285D01*
X144952380Y-59690476D02*
X144952380Y-60261904D01*
X144952380Y-59976190D02*
X143952380Y-59976190D01*
X144095238Y-60071428D01*
X144190476Y-60166666D01*
X144238095Y-60261904D01*
X143952380Y-59357142D02*
X143952380Y-58690476D01*
X144952380Y-59119047D01*
X142952380Y-60642857D02*
X142476190Y-60976190D01*
X142952380Y-61214285D02*
X141952380Y-61214285D01*
X141952380Y-60833333D01*
X142000000Y-60738095D01*
X142047619Y-60690476D01*
X142142857Y-60642857D01*
X142285714Y-60642857D01*
X142380952Y-60690476D01*
X142428571Y-60738095D01*
X142476190Y-60833333D01*
X142476190Y-61214285D01*
X142952380Y-59690476D02*
X142952380Y-60261904D01*
X142952380Y-59976190D02*
X141952380Y-59976190D01*
X142095238Y-60071428D01*
X142190476Y-60166666D01*
X142238095Y-60261904D01*
X141952380Y-58833333D02*
X141952380Y-59023809D01*
X142000000Y-59119047D01*
X142047619Y-59166666D01*
X142190476Y-59261904D01*
X142380952Y-59309523D01*
X142761904Y-59309523D01*
X142857142Y-59261904D01*
X142904761Y-59214285D01*
X142952380Y-59119047D01*
X142952380Y-58928571D01*
X142904761Y-58833333D01*
X142857142Y-58785714D01*
X142761904Y-58738095D01*
X142523809Y-58738095D01*
X142428571Y-58785714D01*
X142380952Y-58833333D01*
X142333333Y-58928571D01*
X142333333Y-59119047D01*
X142380952Y-59214285D01*
X142428571Y-59261904D01*
X142523809Y-59309523D01*
X143382380Y-53642857D02*
X142906190Y-53976190D01*
X143382380Y-54214285D02*
X142382380Y-54214285D01*
X142382380Y-53833333D01*
X142430000Y-53738095D01*
X142477619Y-53690476D01*
X142572857Y-53642857D01*
X142715714Y-53642857D01*
X142810952Y-53690476D01*
X142858571Y-53738095D01*
X142906190Y-53833333D01*
X142906190Y-54214285D01*
X143382380Y-52690476D02*
X143382380Y-53261904D01*
X143382380Y-52976190D02*
X142382380Y-52976190D01*
X142525238Y-53071428D01*
X142620476Y-53166666D01*
X142668095Y-53261904D01*
X142382380Y-51785714D02*
X142382380Y-52261904D01*
X142858571Y-52309523D01*
X142810952Y-52261904D01*
X142763333Y-52166666D01*
X142763333Y-51928571D01*
X142810952Y-51833333D01*
X142858571Y-51785714D01*
X142953809Y-51738095D01*
X143191904Y-51738095D01*
X143287142Y-51785714D01*
X143334761Y-51833333D01*
X143382380Y-51928571D01*
X143382380Y-52166666D01*
X143334761Y-52261904D01*
X143287142Y-52309523D01*
X140952380Y-60642857D02*
X140476190Y-60976190D01*
X140952380Y-61214285D02*
X139952380Y-61214285D01*
X139952380Y-60833333D01*
X140000000Y-60738095D01*
X140047619Y-60690476D01*
X140142857Y-60642857D01*
X140285714Y-60642857D01*
X140380952Y-60690476D01*
X140428571Y-60738095D01*
X140476190Y-60833333D01*
X140476190Y-61214285D01*
X140952380Y-59690476D02*
X140952380Y-60261904D01*
X140952380Y-59976190D02*
X139952380Y-59976190D01*
X140095238Y-60071428D01*
X140190476Y-60166666D01*
X140238095Y-60261904D01*
X140285714Y-58833333D02*
X140952380Y-58833333D01*
X139904761Y-59071428D02*
X140619047Y-59309523D01*
X140619047Y-58690476D01*
X138952380Y-60642857D02*
X138476190Y-60976190D01*
X138952380Y-61214285D02*
X137952380Y-61214285D01*
X137952380Y-60833333D01*
X138000000Y-60738095D01*
X138047619Y-60690476D01*
X138142857Y-60642857D01*
X138285714Y-60642857D01*
X138380952Y-60690476D01*
X138428571Y-60738095D01*
X138476190Y-60833333D01*
X138476190Y-61214285D01*
X138952380Y-59690476D02*
X138952380Y-60261904D01*
X138952380Y-59976190D02*
X137952380Y-59976190D01*
X138095238Y-60071428D01*
X138190476Y-60166666D01*
X138238095Y-60261904D01*
X137952380Y-59357142D02*
X137952380Y-58738095D01*
X138333333Y-59071428D01*
X138333333Y-58928571D01*
X138380952Y-58833333D01*
X138428571Y-58785714D01*
X138523809Y-58738095D01*
X138761904Y-58738095D01*
X138857142Y-58785714D01*
X138904761Y-58833333D01*
X138952380Y-58928571D01*
X138952380Y-59214285D01*
X138904761Y-59309523D01*
X138857142Y-59357142D01*
X139382380Y-53642857D02*
X138906190Y-53976190D01*
X139382380Y-54214285D02*
X138382380Y-54214285D01*
X138382380Y-53833333D01*
X138430000Y-53738095D01*
X138477619Y-53690476D01*
X138572857Y-53642857D01*
X138715714Y-53642857D01*
X138810952Y-53690476D01*
X138858571Y-53738095D01*
X138906190Y-53833333D01*
X138906190Y-54214285D01*
X139382380Y-52690476D02*
X139382380Y-53261904D01*
X139382380Y-52976190D02*
X138382380Y-52976190D01*
X138525238Y-53071428D01*
X138620476Y-53166666D01*
X138668095Y-53261904D01*
X138477619Y-52309523D02*
X138430000Y-52261904D01*
X138382380Y-52166666D01*
X138382380Y-51928571D01*
X138430000Y-51833333D01*
X138477619Y-51785714D01*
X138572857Y-51738095D01*
X138668095Y-51738095D01*
X138810952Y-51785714D01*
X139382380Y-52357142D01*
X139382380Y-51738095D01*
X136952380Y-60392857D02*
X136476190Y-60726190D01*
X136952380Y-60964285D02*
X135952380Y-60964285D01*
X135952380Y-60583333D01*
X136000000Y-60488095D01*
X136047619Y-60440476D01*
X136142857Y-60392857D01*
X136285714Y-60392857D01*
X136380952Y-60440476D01*
X136428571Y-60488095D01*
X136476190Y-60583333D01*
X136476190Y-60964285D01*
X136952380Y-59440476D02*
X136952380Y-60011904D01*
X136952380Y-59726190D02*
X135952380Y-59726190D01*
X136095238Y-59821428D01*
X136190476Y-59916666D01*
X136238095Y-60011904D01*
X136952380Y-58488095D02*
X136952380Y-59059523D01*
X136952380Y-58773809D02*
X135952380Y-58773809D01*
X136095238Y-58869047D01*
X136190476Y-58964285D01*
X136238095Y-59059523D01*
X134952380Y-60642857D02*
X134476190Y-60976190D01*
X134952380Y-61214285D02*
X133952380Y-61214285D01*
X133952380Y-60833333D01*
X134000000Y-60738095D01*
X134047619Y-60690476D01*
X134142857Y-60642857D01*
X134285714Y-60642857D01*
X134380952Y-60690476D01*
X134428571Y-60738095D01*
X134476190Y-60833333D01*
X134476190Y-61214285D01*
X134952380Y-59690476D02*
X134952380Y-60261904D01*
X134952380Y-59976190D02*
X133952380Y-59976190D01*
X134095238Y-60071428D01*
X134190476Y-60166666D01*
X134238095Y-60261904D01*
X133952380Y-59071428D02*
X133952380Y-58976190D01*
X134000000Y-58880952D01*
X134047619Y-58833333D01*
X134142857Y-58785714D01*
X134333333Y-58738095D01*
X134571428Y-58738095D01*
X134761904Y-58785714D01*
X134857142Y-58833333D01*
X134904761Y-58880952D01*
X134952380Y-58976190D01*
X134952380Y-59071428D01*
X134904761Y-59166666D01*
X134857142Y-59214285D01*
X134761904Y-59261904D01*
X134571428Y-59309523D01*
X134333333Y-59309523D01*
X134142857Y-59261904D01*
X134047619Y-59214285D01*
X134000000Y-59166666D01*
X133952380Y-59071428D01*
X135382380Y-53166666D02*
X134906190Y-53500000D01*
X135382380Y-53738095D02*
X134382380Y-53738095D01*
X134382380Y-53357142D01*
X134430000Y-53261904D01*
X134477619Y-53214285D01*
X134572857Y-53166666D01*
X134715714Y-53166666D01*
X134810952Y-53214285D01*
X134858571Y-53261904D01*
X134906190Y-53357142D01*
X134906190Y-53738095D01*
X135382380Y-52690476D02*
X135382380Y-52500000D01*
X135334761Y-52404761D01*
X135287142Y-52357142D01*
X135144285Y-52261904D01*
X134953809Y-52214285D01*
X134572857Y-52214285D01*
X134477619Y-52261904D01*
X134430000Y-52309523D01*
X134382380Y-52404761D01*
X134382380Y-52595238D01*
X134430000Y-52690476D01*
X134477619Y-52738095D01*
X134572857Y-52785714D01*
X134810952Y-52785714D01*
X134906190Y-52738095D01*
X134953809Y-52690476D01*
X135001428Y-52595238D01*
X135001428Y-52404761D01*
X134953809Y-52309523D01*
X134906190Y-52261904D01*
X134810952Y-52214285D01*
X132952380Y-59666666D02*
X132476190Y-60000000D01*
X132952380Y-60238095D02*
X131952380Y-60238095D01*
X131952380Y-59857142D01*
X132000000Y-59761904D01*
X132047619Y-59714285D01*
X132142857Y-59666666D01*
X132285714Y-59666666D01*
X132380952Y-59714285D01*
X132428571Y-59761904D01*
X132476190Y-59857142D01*
X132476190Y-60238095D01*
X132380952Y-59095238D02*
X132333333Y-59190476D01*
X132285714Y-59238095D01*
X132190476Y-59285714D01*
X132142857Y-59285714D01*
X132047619Y-59238095D01*
X132000000Y-59190476D01*
X131952380Y-59095238D01*
X131952380Y-58904761D01*
X132000000Y-58809523D01*
X132047619Y-58761904D01*
X132142857Y-58714285D01*
X132190476Y-58714285D01*
X132285714Y-58761904D01*
X132333333Y-58809523D01*
X132380952Y-58904761D01*
X132380952Y-59095238D01*
X132428571Y-59190476D01*
X132476190Y-59238095D01*
X132571428Y-59285714D01*
X132761904Y-59285714D01*
X132857142Y-59238095D01*
X132904761Y-59190476D01*
X132952380Y-59095238D01*
X132952380Y-58904761D01*
X132904761Y-58809523D01*
X132857142Y-58761904D01*
X132761904Y-58714285D01*
X132571428Y-58714285D01*
X132476190Y-58761904D01*
X132428571Y-58809523D01*
X132380952Y-58904761D01*
X131202380Y-59666666D02*
X130726190Y-60000000D01*
X131202380Y-60238095D02*
X130202380Y-60238095D01*
X130202380Y-59857142D01*
X130250000Y-59761904D01*
X130297619Y-59714285D01*
X130392857Y-59666666D01*
X130535714Y-59666666D01*
X130630952Y-59714285D01*
X130678571Y-59761904D01*
X130726190Y-59857142D01*
X130726190Y-60238095D01*
X130202380Y-59333333D02*
X130202380Y-58666666D01*
X131202380Y-59095238D01*
X131382380Y-53166666D02*
X130906190Y-53500000D01*
X131382380Y-53738095D02*
X130382380Y-53738095D01*
X130382380Y-53357142D01*
X130430000Y-53261904D01*
X130477619Y-53214285D01*
X130572857Y-53166666D01*
X130715714Y-53166666D01*
X130810952Y-53214285D01*
X130858571Y-53261904D01*
X130906190Y-53357142D01*
X130906190Y-53738095D01*
X130382380Y-52309523D02*
X130382380Y-52500000D01*
X130430000Y-52595238D01*
X130477619Y-52642857D01*
X130620476Y-52738095D01*
X130810952Y-52785714D01*
X131191904Y-52785714D01*
X131287142Y-52738095D01*
X131334761Y-52690476D01*
X131382380Y-52595238D01*
X131382380Y-52404761D01*
X131334761Y-52309523D01*
X131287142Y-52261904D01*
X131191904Y-52214285D01*
X130953809Y-52214285D01*
X130858571Y-52261904D01*
X130810952Y-52309523D01*
X130763333Y-52404761D01*
X130763333Y-52595238D01*
X130810952Y-52690476D01*
X130858571Y-52738095D01*
X130953809Y-52785714D01*
X128952380Y-59666666D02*
X128476190Y-60000000D01*
X128952380Y-60238095D02*
X127952380Y-60238095D01*
X127952380Y-59857142D01*
X128000000Y-59761904D01*
X128047619Y-59714285D01*
X128142857Y-59666666D01*
X128285714Y-59666666D01*
X128380952Y-59714285D01*
X128428571Y-59761904D01*
X128476190Y-59857142D01*
X128476190Y-60238095D01*
X127952380Y-58761904D02*
X127952380Y-59238095D01*
X128428571Y-59285714D01*
X128380952Y-59238095D01*
X128333333Y-59142857D01*
X128333333Y-58904761D01*
X128380952Y-58809523D01*
X128428571Y-58761904D01*
X128523809Y-58714285D01*
X128761904Y-58714285D01*
X128857142Y-58761904D01*
X128904761Y-58809523D01*
X128952380Y-58904761D01*
X128952380Y-59142857D01*
X128904761Y-59238095D01*
X128857142Y-59285714D01*
X150083333Y-72952380D02*
X149750000Y-72476190D01*
X149511904Y-72952380D02*
X149511904Y-71952380D01*
X149892857Y-71952380D01*
X149988095Y-72000000D01*
X150035714Y-72047619D01*
X150083333Y-72142857D01*
X150083333Y-72285714D01*
X150035714Y-72380952D01*
X149988095Y-72428571D01*
X149892857Y-72476190D01*
X149511904Y-72476190D01*
X150940476Y-72285714D02*
X150940476Y-72952380D01*
X150702380Y-71904761D02*
X150464285Y-72619047D01*
X151083333Y-72619047D01*
X147333333Y-69952380D02*
X147000000Y-69476190D01*
X146761904Y-69952380D02*
X146761904Y-68952380D01*
X147142857Y-68952380D01*
X147238095Y-69000000D01*
X147285714Y-69047619D01*
X147333333Y-69142857D01*
X147333333Y-69285714D01*
X147285714Y-69380952D01*
X147238095Y-69428571D01*
X147142857Y-69476190D01*
X146761904Y-69476190D01*
X147666666Y-68952380D02*
X148285714Y-68952380D01*
X147952380Y-69333333D01*
X148095238Y-69333333D01*
X148190476Y-69380952D01*
X148238095Y-69428571D01*
X148285714Y-69523809D01*
X148285714Y-69761904D01*
X148238095Y-69857142D01*
X148190476Y-69904761D01*
X148095238Y-69952380D01*
X147809523Y-69952380D01*
X147714285Y-69904761D01*
X147666666Y-69857142D01*
X132583333Y-70202380D02*
X132250000Y-69726190D01*
X132011904Y-70202380D02*
X132011904Y-69202380D01*
X132392857Y-69202380D01*
X132488095Y-69250000D01*
X132535714Y-69297619D01*
X132583333Y-69392857D01*
X132583333Y-69535714D01*
X132535714Y-69630952D01*
X132488095Y-69678571D01*
X132392857Y-69726190D01*
X132011904Y-69726190D01*
X132964285Y-69297619D02*
X133011904Y-69250000D01*
X133107142Y-69202380D01*
X133345238Y-69202380D01*
X133440476Y-69250000D01*
X133488095Y-69297619D01*
X133535714Y-69392857D01*
X133535714Y-69488095D01*
X133488095Y-69630952D01*
X132916666Y-70202380D01*
X133535714Y-70202380D01*
X134583333Y-70202380D02*
X134250000Y-69726190D01*
X134011904Y-70202380D02*
X134011904Y-69202380D01*
X134392857Y-69202380D01*
X134488095Y-69250000D01*
X134535714Y-69297619D01*
X134583333Y-69392857D01*
X134583333Y-69535714D01*
X134535714Y-69630952D01*
X134488095Y-69678571D01*
X134392857Y-69726190D01*
X134011904Y-69726190D01*
X135535714Y-70202380D02*
X134964285Y-70202380D01*
X135250000Y-70202380D02*
X135250000Y-69202380D01*
X135154761Y-69345238D01*
X135059523Y-69440476D01*
X134964285Y-69488095D01*
X146666904Y-38492380D02*
X146666904Y-37492380D01*
X146905000Y-37492380D01*
X147047857Y-37540000D01*
X147143095Y-37635238D01*
X147190714Y-37730476D01*
X147238333Y-37920952D01*
X147238333Y-38063809D01*
X147190714Y-38254285D01*
X147143095Y-38349523D01*
X147047857Y-38444761D01*
X146905000Y-38492380D01*
X146666904Y-38492380D01*
X148095476Y-37492380D02*
X147905000Y-37492380D01*
X147809761Y-37540000D01*
X147762142Y-37587619D01*
X147666904Y-37730476D01*
X147619285Y-37920952D01*
X147619285Y-38301904D01*
X147666904Y-38397142D01*
X147714523Y-38444761D01*
X147809761Y-38492380D01*
X148000238Y-38492380D01*
X148095476Y-38444761D01*
X148143095Y-38397142D01*
X148190714Y-38301904D01*
X148190714Y-38063809D01*
X148143095Y-37968571D01*
X148095476Y-37920952D01*
X148000238Y-37873333D01*
X147809761Y-37873333D01*
X147714523Y-37920952D01*
X147666904Y-37968571D01*
X147619285Y-38063809D01*
X146666904Y-30492380D02*
X146666904Y-29492380D01*
X146905000Y-29492380D01*
X147047857Y-29540000D01*
X147143095Y-29635238D01*
X147190714Y-29730476D01*
X147238333Y-29920952D01*
X147238333Y-30063809D01*
X147190714Y-30254285D01*
X147143095Y-30349523D01*
X147047857Y-30444761D01*
X146905000Y-30492380D01*
X146666904Y-30492380D01*
X148143095Y-29492380D02*
X147666904Y-29492380D01*
X147619285Y-29968571D01*
X147666904Y-29920952D01*
X147762142Y-29873333D01*
X148000238Y-29873333D01*
X148095476Y-29920952D01*
X148143095Y-29968571D01*
X148190714Y-30063809D01*
X148190714Y-30301904D01*
X148143095Y-30397142D01*
X148095476Y-30444761D01*
X148000238Y-30492380D01*
X147762142Y-30492380D01*
X147666904Y-30444761D01*
X147619285Y-30397142D01*
X138666904Y-38492380D02*
X138666904Y-37492380D01*
X138905000Y-37492380D01*
X139047857Y-37540000D01*
X139143095Y-37635238D01*
X139190714Y-37730476D01*
X139238333Y-37920952D01*
X139238333Y-38063809D01*
X139190714Y-38254285D01*
X139143095Y-38349523D01*
X139047857Y-38444761D01*
X138905000Y-38492380D01*
X138666904Y-38492380D01*
X140095476Y-37825714D02*
X140095476Y-38492380D01*
X139857380Y-37444761D02*
X139619285Y-38159047D01*
X140238333Y-38159047D01*
X138666904Y-30492380D02*
X138666904Y-29492380D01*
X138905000Y-29492380D01*
X139047857Y-29540000D01*
X139143095Y-29635238D01*
X139190714Y-29730476D01*
X139238333Y-29920952D01*
X139238333Y-30063809D01*
X139190714Y-30254285D01*
X139143095Y-30349523D01*
X139047857Y-30444761D01*
X138905000Y-30492380D01*
X138666904Y-30492380D01*
X139571666Y-29492380D02*
X140190714Y-29492380D01*
X139857380Y-29873333D01*
X140000238Y-29873333D01*
X140095476Y-29920952D01*
X140143095Y-29968571D01*
X140190714Y-30063809D01*
X140190714Y-30301904D01*
X140143095Y-30397142D01*
X140095476Y-30444761D01*
X140000238Y-30492380D01*
X139714523Y-30492380D01*
X139619285Y-30444761D01*
X139571666Y-30397142D01*
X130666904Y-38492380D02*
X130666904Y-37492380D01*
X130905000Y-37492380D01*
X131047857Y-37540000D01*
X131143095Y-37635238D01*
X131190714Y-37730476D01*
X131238333Y-37920952D01*
X131238333Y-38063809D01*
X131190714Y-38254285D01*
X131143095Y-38349523D01*
X131047857Y-38444761D01*
X130905000Y-38492380D01*
X130666904Y-38492380D01*
X131619285Y-37587619D02*
X131666904Y-37540000D01*
X131762142Y-37492380D01*
X132000238Y-37492380D01*
X132095476Y-37540000D01*
X132143095Y-37587619D01*
X132190714Y-37682857D01*
X132190714Y-37778095D01*
X132143095Y-37920952D01*
X131571666Y-38492380D01*
X132190714Y-38492380D01*
X130666904Y-30492380D02*
X130666904Y-29492380D01*
X130905000Y-29492380D01*
X131047857Y-29540000D01*
X131143095Y-29635238D01*
X131190714Y-29730476D01*
X131238333Y-29920952D01*
X131238333Y-30063809D01*
X131190714Y-30254285D01*
X131143095Y-30349523D01*
X131047857Y-30444761D01*
X130905000Y-30492380D01*
X130666904Y-30492380D01*
X132190714Y-30492380D02*
X131619285Y-30492380D01*
X131905000Y-30492380D02*
X131905000Y-29492380D01*
X131809761Y-29635238D01*
X131714523Y-29730476D01*
X131619285Y-29778095D01*
X148333333Y-72857142D02*
X148285714Y-72904761D01*
X148142857Y-72952380D01*
X148047619Y-72952380D01*
X147904761Y-72904761D01*
X147809523Y-72809523D01*
X147761904Y-72714285D01*
X147714285Y-72523809D01*
X147714285Y-72380952D01*
X147761904Y-72190476D01*
X147809523Y-72095238D01*
X147904761Y-72000000D01*
X148047619Y-71952380D01*
X148142857Y-71952380D01*
X148285714Y-72000000D01*
X148333333Y-72047619D01*
X149190476Y-72285714D02*
X149190476Y-72952380D01*
X148952380Y-71904761D02*
X148714285Y-72619047D01*
X149333333Y-72619047D01*
X138833333Y-71357142D02*
X138785714Y-71404761D01*
X138642857Y-71452380D01*
X138547619Y-71452380D01*
X138404761Y-71404761D01*
X138309523Y-71309523D01*
X138261904Y-71214285D01*
X138214285Y-71023809D01*
X138214285Y-70880952D01*
X138261904Y-70690476D01*
X138309523Y-70595238D01*
X138404761Y-70500000D01*
X138547619Y-70452380D01*
X138642857Y-70452380D01*
X138785714Y-70500000D01*
X138833333Y-70547619D01*
X139166666Y-70452380D02*
X139785714Y-70452380D01*
X139452380Y-70833333D01*
X139595238Y-70833333D01*
X139690476Y-70880952D01*
X139738095Y-70928571D01*
X139785714Y-71023809D01*
X139785714Y-71261904D01*
X139738095Y-71357142D01*
X139690476Y-71404761D01*
X139595238Y-71452380D01*
X139309523Y-71452380D01*
X139214285Y-71404761D01*
X139166666Y-71357142D01*
X131083333Y-65607142D02*
X131035714Y-65654761D01*
X130892857Y-65702380D01*
X130797619Y-65702380D01*
X130654761Y-65654761D01*
X130559523Y-65559523D01*
X130511904Y-65464285D01*
X130464285Y-65273809D01*
X130464285Y-65130952D01*
X130511904Y-64940476D01*
X130559523Y-64845238D01*
X130654761Y-64750000D01*
X130797619Y-64702380D01*
X130892857Y-64702380D01*
X131035714Y-64750000D01*
X131083333Y-64797619D01*
X131464285Y-64797619D02*
X131511904Y-64750000D01*
X131607142Y-64702380D01*
X131845238Y-64702380D01*
X131940476Y-64750000D01*
X131988095Y-64797619D01*
X132035714Y-64892857D01*
X132035714Y-64988095D01*
X131988095Y-65130952D01*
X131416666Y-65702380D01*
X132035714Y-65702380D01*
X138833333Y-73357142D02*
X138785714Y-73404761D01*
X138642857Y-73452380D01*
X138547619Y-73452380D01*
X138404761Y-73404761D01*
X138309523Y-73309523D01*
X138261904Y-73214285D01*
X138214285Y-73023809D01*
X138214285Y-72880952D01*
X138261904Y-72690476D01*
X138309523Y-72595238D01*
X138404761Y-72500000D01*
X138547619Y-72452380D01*
X138642857Y-72452380D01*
X138785714Y-72500000D01*
X138833333Y-72547619D01*
X139785714Y-73452380D02*
X139214285Y-73452380D01*
X139500000Y-73452380D02*
X139500000Y-72452380D01*
X139404761Y-72595238D01*
X139309523Y-72690476D01*
X139214285Y-72738095D01*
M02*
