M48
; DRILL file {KiCad 5.1.6+dfsg1-1~bpo10+1} date Sun Oct 18 13:18:15 2020
; FORMAT={-:-/ absolute / inch / decimal}
; #@! TF.CreationDate,2020-10-18T13:18:15-04:00
; #@! TF.GenerationSoftware,Kicad,Pcbnew,5.1.6+dfsg1-1~bpo10+1
; #@! TF.FileFunction,Plated,1,2,PTH
FMAT,2
INCH
T1C0.0197
T2C0.0200
T3C0.0394
%
G90
G05
T1
X5.84Y-3.0
X5.3613Y-3.74
X5.6813Y-3.74
X5.29Y-2.84
X5.4006Y-3.74
X5.44Y-3.74
X5.65Y-2.84
X5.7206Y-3.74
X5.76Y-3.74
X5.84Y-2.92
X5.0413Y-3.74
X5.0806Y-3.74
X5.12Y-3.74
X5.47Y-2.84
T2
X5.0734Y-3.0485
X5.1439Y-3.1356
X5.43Y-2.95
X5.52Y-2.95
X5.5354Y-3.2756
X5.6804Y-3.2393
T3
X5.4Y-3.3
T0
M30
