%TF.GenerationSoftware,KiCad,Pcbnew,(5.1.4)-1*%
%TF.CreationDate,2021-05-21T19:12:07-04:00*%
%TF.ProjectId,QAZ_rgb_led_breakoutboard,51415a5f-7267-4625-9f6c-65645f627265,v1.0*%
%TF.SameCoordinates,Original*%
%TF.FileFunction,Legend,Top*%
%TF.FilePolarity,Positive*%
%FSLAX46Y46*%
G04 Gerber Fmt 4.6, Leading zero omitted, Abs format (unit mm)*
G04 Created by KiCad (PCBNEW (5.1.4)-1) date 2021-05-21 19:12:07*
%MOMM*%
%LPD*%
G04 APERTURE LIST*
%ADD10C,0.150000*%
%ADD11C,0.120000*%
G04 APERTURE END LIST*
D10*
X103605428Y-59402857D02*
X103519714Y-59360000D01*
X103434000Y-59274285D01*
X103305428Y-59145714D01*
X103219714Y-59102857D01*
X103134000Y-59102857D01*
X103176857Y-59317142D02*
X103091142Y-59274285D01*
X103005428Y-59188571D01*
X102962571Y-59017142D01*
X102962571Y-58717142D01*
X103005428Y-58545714D01*
X103091142Y-58460000D01*
X103176857Y-58417142D01*
X103348285Y-58417142D01*
X103434000Y-58460000D01*
X103519714Y-58545714D01*
X103562571Y-58717142D01*
X103562571Y-59017142D01*
X103519714Y-59188571D01*
X103434000Y-59274285D01*
X103348285Y-59317142D01*
X103176857Y-59317142D01*
X103905428Y-59060000D02*
X104334000Y-59060000D01*
X103819714Y-59317142D02*
X104119714Y-58417142D01*
X104419714Y-59317142D01*
X104634000Y-58417142D02*
X105234000Y-58417142D01*
X104634000Y-59317142D01*
X105234000Y-59317142D01*
X106776857Y-59317142D02*
X106476857Y-58888571D01*
X106262571Y-59317142D02*
X106262571Y-58417142D01*
X106605428Y-58417142D01*
X106691142Y-58460000D01*
X106734000Y-58502857D01*
X106776857Y-58588571D01*
X106776857Y-58717142D01*
X106734000Y-58802857D01*
X106691142Y-58845714D01*
X106605428Y-58888571D01*
X106262571Y-58888571D01*
X107634000Y-58460000D02*
X107548285Y-58417142D01*
X107419714Y-58417142D01*
X107291142Y-58460000D01*
X107205428Y-58545714D01*
X107162571Y-58631428D01*
X107119714Y-58802857D01*
X107119714Y-58931428D01*
X107162571Y-59102857D01*
X107205428Y-59188571D01*
X107291142Y-59274285D01*
X107419714Y-59317142D01*
X107505428Y-59317142D01*
X107634000Y-59274285D01*
X107676857Y-59231428D01*
X107676857Y-58931428D01*
X107505428Y-58931428D01*
X108362571Y-58845714D02*
X108491142Y-58888571D01*
X108534000Y-58931428D01*
X108576857Y-59017142D01*
X108576857Y-59145714D01*
X108534000Y-59231428D01*
X108491142Y-59274285D01*
X108405428Y-59317142D01*
X108062571Y-59317142D01*
X108062571Y-58417142D01*
X108362571Y-58417142D01*
X108448285Y-58460000D01*
X108491142Y-58502857D01*
X108534000Y-58588571D01*
X108534000Y-58674285D01*
X108491142Y-58760000D01*
X108448285Y-58802857D01*
X108362571Y-58845714D01*
X108062571Y-58845714D01*
X110076857Y-59317142D02*
X109648285Y-59317142D01*
X109648285Y-58417142D01*
X110376857Y-58845714D02*
X110676857Y-58845714D01*
X110805428Y-59317142D02*
X110376857Y-59317142D01*
X110376857Y-58417142D01*
X110805428Y-58417142D01*
X111191142Y-59317142D02*
X111191142Y-58417142D01*
X111405428Y-58417142D01*
X111534000Y-58460000D01*
X111619714Y-58545714D01*
X111662571Y-58631428D01*
X111705428Y-58802857D01*
X111705428Y-58931428D01*
X111662571Y-59102857D01*
X111619714Y-59188571D01*
X111534000Y-59274285D01*
X111405428Y-59317142D01*
X111191142Y-59317142D01*
X113291142Y-59231428D02*
X113248285Y-59274285D01*
X113119714Y-59317142D01*
X113034000Y-59317142D01*
X112905428Y-59274285D01*
X112819714Y-59188571D01*
X112776857Y-59102857D01*
X112734000Y-58931428D01*
X112734000Y-58802857D01*
X112776857Y-58631428D01*
X112819714Y-58545714D01*
X112905428Y-58460000D01*
X113034000Y-58417142D01*
X113119714Y-58417142D01*
X113248285Y-58460000D01*
X113291142Y-58502857D01*
X113805428Y-59317142D02*
X113719714Y-59274285D01*
X113676857Y-59231428D01*
X113634000Y-59145714D01*
X113634000Y-58888571D01*
X113676857Y-58802857D01*
X113719714Y-58760000D01*
X113805428Y-58717142D01*
X113934000Y-58717142D01*
X114019714Y-58760000D01*
X114062571Y-58802857D01*
X114105428Y-58888571D01*
X114105428Y-59145714D01*
X114062571Y-59231428D01*
X114019714Y-59274285D01*
X113934000Y-59317142D01*
X113805428Y-59317142D01*
X114491142Y-58717142D02*
X114491142Y-59317142D01*
X114491142Y-58802857D02*
X114534000Y-58760000D01*
X114619714Y-58717142D01*
X114748285Y-58717142D01*
X114834000Y-58760000D01*
X114876857Y-58845714D01*
X114876857Y-59317142D01*
X115219714Y-58717142D02*
X115434000Y-59317142D01*
X115648285Y-58717142D01*
X116334000Y-59274285D02*
X116248285Y-59317142D01*
X116076857Y-59317142D01*
X115991142Y-59274285D01*
X115948285Y-59188571D01*
X115948285Y-58845714D01*
X115991142Y-58760000D01*
X116076857Y-58717142D01*
X116248285Y-58717142D01*
X116334000Y-58760000D01*
X116376857Y-58845714D01*
X116376857Y-58931428D01*
X115948285Y-59017142D01*
X116762571Y-59317142D02*
X116762571Y-58717142D01*
X116762571Y-58888571D02*
X116805428Y-58802857D01*
X116848285Y-58760000D01*
X116934000Y-58717142D01*
X117019714Y-58717142D01*
X117276857Y-59274285D02*
X117362571Y-59317142D01*
X117534000Y-59317142D01*
X117619714Y-59274285D01*
X117662571Y-59188571D01*
X117662571Y-59145714D01*
X117619714Y-59060000D01*
X117534000Y-59017142D01*
X117405428Y-59017142D01*
X117319714Y-58974285D01*
X117276857Y-58888571D01*
X117276857Y-58845714D01*
X117319714Y-58760000D01*
X117405428Y-58717142D01*
X117534000Y-58717142D01*
X117619714Y-58760000D01*
X118048285Y-59317142D02*
X118048285Y-58717142D01*
X118048285Y-58417142D02*
X118005428Y-58460000D01*
X118048285Y-58502857D01*
X118091142Y-58460000D01*
X118048285Y-58417142D01*
X118048285Y-58502857D01*
X118605428Y-59317142D02*
X118519714Y-59274285D01*
X118476857Y-59231428D01*
X118434000Y-59145714D01*
X118434000Y-58888571D01*
X118476857Y-58802857D01*
X118519714Y-58760000D01*
X118605428Y-58717142D01*
X118734000Y-58717142D01*
X118819714Y-58760000D01*
X118862571Y-58802857D01*
X118905428Y-58888571D01*
X118905428Y-59145714D01*
X118862571Y-59231428D01*
X118819714Y-59274285D01*
X118734000Y-59317142D01*
X118605428Y-59317142D01*
X119291142Y-58717142D02*
X119291142Y-59317142D01*
X119291142Y-58802857D02*
X119334000Y-58760000D01*
X119419714Y-58717142D01*
X119548285Y-58717142D01*
X119634000Y-58760000D01*
X119676857Y-58845714D01*
X119676857Y-59317142D01*
X121091142Y-58845714D02*
X121219714Y-58888571D01*
X121262571Y-58931428D01*
X121305428Y-59017142D01*
X121305428Y-59145714D01*
X121262571Y-59231428D01*
X121219714Y-59274285D01*
X121134000Y-59317142D01*
X120791142Y-59317142D01*
X120791142Y-58417142D01*
X121091142Y-58417142D01*
X121176857Y-58460000D01*
X121219714Y-58502857D01*
X121262571Y-58588571D01*
X121262571Y-58674285D01*
X121219714Y-58760000D01*
X121176857Y-58802857D01*
X121091142Y-58845714D01*
X120791142Y-58845714D01*
X121819714Y-59317142D02*
X121734000Y-59274285D01*
X121691142Y-59231428D01*
X121648285Y-59145714D01*
X121648285Y-58888571D01*
X121691142Y-58802857D01*
X121734000Y-58760000D01*
X121819714Y-58717142D01*
X121948285Y-58717142D01*
X122034000Y-58760000D01*
X122076857Y-58802857D01*
X122119714Y-58888571D01*
X122119714Y-59145714D01*
X122076857Y-59231428D01*
X122034000Y-59274285D01*
X121948285Y-59317142D01*
X121819714Y-59317142D01*
X122891142Y-59317142D02*
X122891142Y-58845714D01*
X122848285Y-58760000D01*
X122762571Y-58717142D01*
X122591142Y-58717142D01*
X122505428Y-58760000D01*
X122891142Y-59274285D02*
X122805428Y-59317142D01*
X122591142Y-59317142D01*
X122505428Y-59274285D01*
X122462571Y-59188571D01*
X122462571Y-59102857D01*
X122505428Y-59017142D01*
X122591142Y-58974285D01*
X122805428Y-58974285D01*
X122891142Y-58931428D01*
X123319714Y-59317142D02*
X123319714Y-58717142D01*
X123319714Y-58888571D02*
X123362571Y-58802857D01*
X123405428Y-58760000D01*
X123491142Y-58717142D01*
X123576857Y-58717142D01*
X124262571Y-59317142D02*
X124262571Y-58417142D01*
X124262571Y-59274285D02*
X124176857Y-59317142D01*
X124005428Y-59317142D01*
X123919714Y-59274285D01*
X123876857Y-59231428D01*
X123834000Y-59145714D01*
X123834000Y-58888571D01*
X123876857Y-58802857D01*
X123919714Y-58760000D01*
X124005428Y-58717142D01*
X124176857Y-58717142D01*
X124262571Y-58760000D01*
D11*
%TO.C,D6*%
X121934000Y-72760000D02*
X121334000Y-72760000D01*
X121934000Y-74560000D02*
X121334000Y-74560000D01*
%TO.C,D4*%
X113934000Y-72760000D02*
X113334000Y-72760000D01*
X113934000Y-74560000D02*
X113334000Y-74560000D01*
%TO.C,D2*%
X105934000Y-72760000D02*
X105334000Y-72760000D01*
X105934000Y-74560000D02*
X105334000Y-74560000D01*
%TO.C,D5*%
X121934000Y-64760000D02*
X121334000Y-64760000D01*
X121934000Y-66560000D02*
X121334000Y-66560000D01*
%TO.C,D3*%
X113934000Y-64760000D02*
X113334000Y-64760000D01*
X113934000Y-66560000D02*
X113334000Y-66560000D01*
%TO.C,D12*%
X119229000Y-71990000D02*
X119229000Y-72455000D01*
X119229000Y-69365000D02*
X119229000Y-69830000D01*
X124043479Y-71990429D02*
G75*
G02X119534316Y-71990000I-2254479J1080429D01*
G01*
X124043479Y-69829571D02*
G75*
G03X119534316Y-69830000I-2254479J-1080429D01*
G01*
X124576815Y-71990827D02*
G75*
G02X119229000Y-72454830I-2787815J1080827D01*
G01*
X124576815Y-69829173D02*
G75*
G03X119229000Y-69365170I-2787815J-1080827D01*
G01*
%TO.C,D11*%
X119229000Y-63990000D02*
X119229000Y-64455000D01*
X119229000Y-61365000D02*
X119229000Y-61830000D01*
X124043479Y-63990429D02*
G75*
G02X119534316Y-63990000I-2254479J1080429D01*
G01*
X124043479Y-61829571D02*
G75*
G03X119534316Y-61830000I-2254479J-1080429D01*
G01*
X124576815Y-63990827D02*
G75*
G02X119229000Y-64454830I-2787815J1080827D01*
G01*
X124576815Y-61829173D02*
G75*
G03X119229000Y-61365170I-2787815J-1080827D01*
G01*
%TO.C,D10*%
X111229000Y-71990000D02*
X111229000Y-72455000D01*
X111229000Y-69365000D02*
X111229000Y-69830000D01*
X116043479Y-71990429D02*
G75*
G02X111534316Y-71990000I-2254479J1080429D01*
G01*
X116043479Y-69829571D02*
G75*
G03X111534316Y-69830000I-2254479J-1080429D01*
G01*
X116576815Y-71990827D02*
G75*
G02X111229000Y-72454830I-2787815J1080827D01*
G01*
X116576815Y-69829173D02*
G75*
G03X111229000Y-69365170I-2787815J-1080827D01*
G01*
%TO.C,D9*%
X111229000Y-63990000D02*
X111229000Y-64455000D01*
X111229000Y-61365000D02*
X111229000Y-61830000D01*
X116043479Y-63990429D02*
G75*
G02X111534316Y-63990000I-2254479J1080429D01*
G01*
X116043479Y-61829571D02*
G75*
G03X111534316Y-61830000I-2254479J-1080429D01*
G01*
X116576815Y-63990827D02*
G75*
G02X111229000Y-64454830I-2787815J1080827D01*
G01*
X116576815Y-61829173D02*
G75*
G03X111229000Y-61365170I-2787815J-1080827D01*
G01*
%TO.C,D8*%
X103229000Y-71990000D02*
X103229000Y-72455000D01*
X103229000Y-69365000D02*
X103229000Y-69830000D01*
X108043479Y-71990429D02*
G75*
G02X103534316Y-71990000I-2254479J1080429D01*
G01*
X108043479Y-69829571D02*
G75*
G03X103534316Y-69830000I-2254479J-1080429D01*
G01*
X108576815Y-71990827D02*
G75*
G02X103229000Y-72454830I-2787815J1080827D01*
G01*
X108576815Y-69829173D02*
G75*
G03X103229000Y-69365170I-2787815J-1080827D01*
G01*
%TO.C,D7*%
X103229000Y-63990000D02*
X103229000Y-64455000D01*
X103229000Y-61365000D02*
X103229000Y-61830000D01*
X108043479Y-63990429D02*
G75*
G02X103534316Y-63990000I-2254479J1080429D01*
G01*
X108043479Y-61829571D02*
G75*
G03X103534316Y-61830000I-2254479J-1080429D01*
G01*
X108576815Y-63990827D02*
G75*
G02X103229000Y-64454830I-2787815J1080827D01*
G01*
X108576815Y-61829173D02*
G75*
G03X103229000Y-61365170I-2787815J-1080827D01*
G01*
%TO.C,D1*%
X105934000Y-66560000D02*
X105334000Y-66560000D01*
X105934000Y-64760000D02*
X105334000Y-64760000D01*
%TO.C,D6*%
D10*
X123645904Y-74112380D02*
X123645904Y-73112380D01*
X123884000Y-73112380D01*
X124026857Y-73160000D01*
X124122095Y-73255238D01*
X124169714Y-73350476D01*
X124217333Y-73540952D01*
X124217333Y-73683809D01*
X124169714Y-73874285D01*
X124122095Y-73969523D01*
X124026857Y-74064761D01*
X123884000Y-74112380D01*
X123645904Y-74112380D01*
X125074476Y-73112380D02*
X124884000Y-73112380D01*
X124788761Y-73160000D01*
X124741142Y-73207619D01*
X124645904Y-73350476D01*
X124598285Y-73540952D01*
X124598285Y-73921904D01*
X124645904Y-74017142D01*
X124693523Y-74064761D01*
X124788761Y-74112380D01*
X124979238Y-74112380D01*
X125074476Y-74064761D01*
X125122095Y-74017142D01*
X125169714Y-73921904D01*
X125169714Y-73683809D01*
X125122095Y-73588571D01*
X125074476Y-73540952D01*
X124979238Y-73493333D01*
X124788761Y-73493333D01*
X124693523Y-73540952D01*
X124645904Y-73588571D01*
X124598285Y-73683809D01*
%TO.C,D4*%
X115645904Y-74112380D02*
X115645904Y-73112380D01*
X115884000Y-73112380D01*
X116026857Y-73160000D01*
X116122095Y-73255238D01*
X116169714Y-73350476D01*
X116217333Y-73540952D01*
X116217333Y-73683809D01*
X116169714Y-73874285D01*
X116122095Y-73969523D01*
X116026857Y-74064761D01*
X115884000Y-74112380D01*
X115645904Y-74112380D01*
X117074476Y-73445714D02*
X117074476Y-74112380D01*
X116836380Y-73064761D02*
X116598285Y-73779047D01*
X117217333Y-73779047D01*
%TO.C,D2*%
X107645904Y-74112380D02*
X107645904Y-73112380D01*
X107884000Y-73112380D01*
X108026857Y-73160000D01*
X108122095Y-73255238D01*
X108169714Y-73350476D01*
X108217333Y-73540952D01*
X108217333Y-73683809D01*
X108169714Y-73874285D01*
X108122095Y-73969523D01*
X108026857Y-74064761D01*
X107884000Y-74112380D01*
X107645904Y-74112380D01*
X108598285Y-73207619D02*
X108645904Y-73160000D01*
X108741142Y-73112380D01*
X108979238Y-73112380D01*
X109074476Y-73160000D01*
X109122095Y-73207619D01*
X109169714Y-73302857D01*
X109169714Y-73398095D01*
X109122095Y-73540952D01*
X108550666Y-74112380D01*
X109169714Y-74112380D01*
%TO.C,D5*%
X123645904Y-66112380D02*
X123645904Y-65112380D01*
X123884000Y-65112380D01*
X124026857Y-65160000D01*
X124122095Y-65255238D01*
X124169714Y-65350476D01*
X124217333Y-65540952D01*
X124217333Y-65683809D01*
X124169714Y-65874285D01*
X124122095Y-65969523D01*
X124026857Y-66064761D01*
X123884000Y-66112380D01*
X123645904Y-66112380D01*
X125122095Y-65112380D02*
X124645904Y-65112380D01*
X124598285Y-65588571D01*
X124645904Y-65540952D01*
X124741142Y-65493333D01*
X124979238Y-65493333D01*
X125074476Y-65540952D01*
X125122095Y-65588571D01*
X125169714Y-65683809D01*
X125169714Y-65921904D01*
X125122095Y-66017142D01*
X125074476Y-66064761D01*
X124979238Y-66112380D01*
X124741142Y-66112380D01*
X124645904Y-66064761D01*
X124598285Y-66017142D01*
%TO.C,D3*%
X115645904Y-66112380D02*
X115645904Y-65112380D01*
X115884000Y-65112380D01*
X116026857Y-65160000D01*
X116122095Y-65255238D01*
X116169714Y-65350476D01*
X116217333Y-65540952D01*
X116217333Y-65683809D01*
X116169714Y-65874285D01*
X116122095Y-65969523D01*
X116026857Y-66064761D01*
X115884000Y-66112380D01*
X115645904Y-66112380D01*
X116550666Y-65112380D02*
X117169714Y-65112380D01*
X116836380Y-65493333D01*
X116979238Y-65493333D01*
X117074476Y-65540952D01*
X117122095Y-65588571D01*
X117169714Y-65683809D01*
X117169714Y-65921904D01*
X117122095Y-66017142D01*
X117074476Y-66064761D01*
X116979238Y-66112380D01*
X116693523Y-66112380D01*
X116598285Y-66064761D01*
X116550666Y-66017142D01*
%TO.C,D1*%
X107645904Y-66112380D02*
X107645904Y-65112380D01*
X107884000Y-65112380D01*
X108026857Y-65160000D01*
X108122095Y-65255238D01*
X108169714Y-65350476D01*
X108217333Y-65540952D01*
X108217333Y-65683809D01*
X108169714Y-65874285D01*
X108122095Y-65969523D01*
X108026857Y-66064761D01*
X107884000Y-66112380D01*
X107645904Y-66112380D01*
X109169714Y-66112380D02*
X108598285Y-66112380D01*
X108884000Y-66112380D02*
X108884000Y-65112380D01*
X108788761Y-65255238D01*
X108693523Y-65350476D01*
X108598285Y-65398095D01*
%TD*%
M02*
