M48
; DRILL file {KiCad (5.1.4)-1} date 5/21/2021 7:12:05 PM
; FORMAT={-:-/ absolute / inch / decimal}
; #@! TF.CreationDate,2021-05-21T19:12:05-04:00
; #@! TF.GenerationSoftware,Kicad,Pcbnew,(5.1.4)-1
; #@! TF.FileFunction,Plated,1,2,PTH
FMAT,2
INCH
T1C0.0354
%
G90
G05
T1
X4.7198Y-2.7917
X4.4049Y-2.7917
X4.4549Y-2.7917
X4.5049Y-2.7917
X4.7198Y-2.4768
X4.7698Y-2.4768
X4.8198Y-2.4768
X4.8698Y-2.4768
X4.4049Y-2.4768
X4.4549Y-2.4768
X4.5049Y-2.4768
X4.5549Y-2.4768
X4.0899Y-2.4768
X4.1399Y-2.4768
X4.1899Y-2.4768
X4.2399Y-2.4768
X4.7698Y-2.7917
X4.8198Y-2.7917
X4.8698Y-2.7917
X4.0899Y-2.7917
X4.1399Y-2.7917
X4.1899Y-2.7917
X4.2399Y-2.7917
X4.5549Y-2.7917
T0
M30
