%TF.GenerationSoftware,KiCad,Pcbnew,5.1.6+dfsg1-1~bpo10+1*%
%TF.CreationDate,2020-10-18T13:18:18-04:00*%
%TF.ProjectId,QAZ_rgb_led_breakoutboard,51415a5f-7267-4625-9f6c-65645f627265,v1.0*%
%TF.SameCoordinates,Original*%
%TF.FileFunction,Copper,L2,Bot*%
%TF.FilePolarity,Positive*%
%FSLAX46Y46*%
G04 Gerber Fmt 4.6, Leading zero omitted, Abs format (unit mm)*
G04 Created by KiCad (PCBNEW 5.1.6+dfsg1-1~bpo10+1) date 2020-10-18 13:18:18*
%MOMM*%
%LPD*%
G01*
G04 APERTURE LIST*
%TA.AperFunction,ComponentPad*%
%ADD10O,0.850000X0.850000*%
%TD*%
%TA.AperFunction,ComponentPad*%
%ADD11R,0.850000X0.850000*%
%TD*%
%TA.AperFunction,ComponentPad*%
%ADD12R,1.650000X1.650000*%
%TD*%
%TA.AperFunction,ViaPad*%
%ADD13C,1.016000*%
%TD*%
%TA.AperFunction,Conductor*%
%ADD14C,0.508000*%
%TD*%
%TA.AperFunction,Conductor*%
%ADD15C,0.254000*%
%TD*%
G04 APERTURE END LIST*
D10*
%TO.P,J8,3*%
%TO.N,Net-(J8-Pad3)*%
X144304000Y-94996000D03*
%TO.P,J8,2*%
%TO.N,Net-(J8-Pad2)*%
X145304000Y-94996000D03*
D11*
%TO.P,J8,1*%
%TO.N,Net-(J8-Pad1)*%
X146304000Y-94996000D03*
%TD*%
D10*
%TO.P,J7,3*%
%TO.N,Net-(J7-Pad3)*%
X136176000Y-94996000D03*
%TO.P,J7,2*%
%TO.N,Net-(J7-Pad2)*%
X137176000Y-94996000D03*
D11*
%TO.P,J7,1*%
%TO.N,Net-(J7-Pad1)*%
X138176000Y-94996000D03*
%TD*%
D10*
%TO.P,J6,3*%
%TO.N,Net-(J6-Pad3)*%
X128048000Y-94996000D03*
%TO.P,J6,2*%
%TO.N,Net-(J6-Pad2)*%
X129048000Y-94996000D03*
D11*
%TO.P,J6,1*%
%TO.N,Net-(J6-Pad1)*%
X130048000Y-94996000D03*
%TD*%
%TO.P,J1,1*%
%TO.N,+3V3*%
X148336000Y-76200000D03*
%TD*%
%TO.P,J2,1*%
%TO.N,/LED_EN*%
X134366000Y-72136000D03*
%TD*%
%TO.P,J3,1*%
%TO.N,/LED_SDA*%
X138938000Y-72136000D03*
%TD*%
%TO.P,J4,1*%
%TO.N,/LED_SCL*%
X143510000Y-72136000D03*
%TD*%
%TO.P,J5,1*%
%TO.N,GND*%
X148336000Y-74168000D03*
%TD*%
D12*
%TO.P,U1,21*%
%TO.N,GND*%
X137160000Y-83820000D03*
%TD*%
D13*
%TO.N,GND*%
X128865000Y-77433000D03*
X130655000Y-79643000D03*
X140600000Y-83200000D03*
X144282000Y-82278000D03*
%TO.N,/LED_SCL*%
X140208000Y-74930000D03*
X137922000Y-74930000D03*
%TD*%
D14*
%TO.N,/LED_SCL*%
X140208000Y-74930000D02*
X137922000Y-74930000D01*
X137922000Y-74930000D02*
X137922000Y-74930000D01*
%TD*%
D15*
%TO.N,GND*%
G36*
X133302928Y-72561000D02*
G01*
X133315188Y-72685482D01*
X133351498Y-72805180D01*
X133410463Y-72915494D01*
X133489815Y-73012185D01*
X133586506Y-73091537D01*
X133696820Y-73150502D01*
X133816518Y-73186812D01*
X133941000Y-73199072D01*
X134791000Y-73199072D01*
X134915482Y-73186812D01*
X135035180Y-73150502D01*
X135145494Y-73091537D01*
X135242185Y-73012185D01*
X135321537Y-72915494D01*
X135380502Y-72805180D01*
X135416812Y-72685482D01*
X135429072Y-72561000D01*
X135429072Y-71780000D01*
X137874928Y-71780000D01*
X137874928Y-72561000D01*
X137887188Y-72685482D01*
X137923498Y-72805180D01*
X137982463Y-72915494D01*
X138061815Y-73012185D01*
X138158506Y-73091537D01*
X138268820Y-73150502D01*
X138388518Y-73186812D01*
X138513000Y-73199072D01*
X139363000Y-73199072D01*
X139487482Y-73186812D01*
X139607180Y-73150502D01*
X139717494Y-73091537D01*
X139814185Y-73012185D01*
X139893537Y-72915494D01*
X139952502Y-72805180D01*
X139988812Y-72685482D01*
X140001072Y-72561000D01*
X140001072Y-71780000D01*
X142446928Y-71780000D01*
X142446928Y-72561000D01*
X142459188Y-72685482D01*
X142495498Y-72805180D01*
X142554463Y-72915494D01*
X142633815Y-73012185D01*
X142730506Y-73091537D01*
X142840820Y-73150502D01*
X142960518Y-73186812D01*
X143085000Y-73199072D01*
X143935000Y-73199072D01*
X144059482Y-73186812D01*
X144179180Y-73150502D01*
X144289494Y-73091537D01*
X144386185Y-73012185D01*
X144465537Y-72915494D01*
X144524502Y-72805180D01*
X144560812Y-72685482D01*
X144573072Y-72561000D01*
X144573072Y-71780000D01*
X148557721Y-71780000D01*
X148707869Y-71794722D01*
X148821246Y-71828953D01*
X148925819Y-71884555D01*
X149017596Y-71959407D01*
X149093091Y-72050664D01*
X149149419Y-72154844D01*
X149184440Y-72267976D01*
X149200000Y-72416022D01*
X149200000Y-73281815D01*
X149115494Y-73212463D01*
X149005180Y-73153498D01*
X148885482Y-73117188D01*
X148761000Y-73104928D01*
X148621750Y-73108000D01*
X148463000Y-73266750D01*
X148463000Y-74041000D01*
X148483000Y-74041000D01*
X148483000Y-74295000D01*
X148463000Y-74295000D01*
X148463000Y-74315000D01*
X148209000Y-74315000D01*
X148209000Y-74295000D01*
X147434750Y-74295000D01*
X147276000Y-74453750D01*
X147272928Y-74593000D01*
X147285188Y-74717482D01*
X147321498Y-74837180D01*
X147380463Y-74947494D01*
X147459815Y-75044185D01*
X147556506Y-75123537D01*
X147666820Y-75182502D01*
X147671758Y-75184000D01*
X147666820Y-75185498D01*
X147556506Y-75244463D01*
X147459815Y-75323815D01*
X147380463Y-75420506D01*
X147321498Y-75530820D01*
X147285188Y-75650518D01*
X147272928Y-75775000D01*
X147272928Y-76625000D01*
X147285188Y-76749482D01*
X147321498Y-76869180D01*
X147380463Y-76979494D01*
X147459815Y-77076185D01*
X147556506Y-77155537D01*
X147666820Y-77214502D01*
X147786518Y-77250812D01*
X147911000Y-77263072D01*
X148761000Y-77263072D01*
X148885482Y-77250812D01*
X149005180Y-77214502D01*
X149115494Y-77155537D01*
X149200000Y-77086185D01*
X149200001Y-95217711D01*
X149185278Y-95367869D01*
X149151047Y-95481246D01*
X149095446Y-95585817D01*
X149020594Y-95677595D01*
X148929335Y-95753091D01*
X148825160Y-95809419D01*
X148712024Y-95844440D01*
X148563979Y-95860000D01*
X147190185Y-95860000D01*
X147259537Y-95775494D01*
X147318502Y-95665180D01*
X147354812Y-95545482D01*
X147367072Y-95421000D01*
X147367072Y-94571000D01*
X147354812Y-94446518D01*
X147318502Y-94326820D01*
X147259537Y-94216506D01*
X147180185Y-94119815D01*
X147083494Y-94040463D01*
X146973180Y-93981498D01*
X146853482Y-93945188D01*
X146729000Y-93932928D01*
X145879000Y-93932928D01*
X145754518Y-93945188D01*
X145634820Y-93981498D01*
X145630397Y-93983862D01*
X145613191Y-93976735D01*
X145408401Y-93936000D01*
X145199599Y-93936000D01*
X144994809Y-93976735D01*
X144804000Y-94055771D01*
X144613191Y-93976735D01*
X144408401Y-93936000D01*
X144199599Y-93936000D01*
X143994809Y-93976735D01*
X143801902Y-94056640D01*
X143628289Y-94172644D01*
X143480644Y-94320289D01*
X143364640Y-94493902D01*
X143284735Y-94686809D01*
X143244000Y-94891599D01*
X143244000Y-95100401D01*
X143284735Y-95305191D01*
X143364640Y-95498098D01*
X143480644Y-95671711D01*
X143628289Y-95819356D01*
X143689117Y-95860000D01*
X139062185Y-95860000D01*
X139131537Y-95775494D01*
X139190502Y-95665180D01*
X139226812Y-95545482D01*
X139239072Y-95421000D01*
X139239072Y-94571000D01*
X139226812Y-94446518D01*
X139190502Y-94326820D01*
X139131537Y-94216506D01*
X139052185Y-94119815D01*
X138955494Y-94040463D01*
X138845180Y-93981498D01*
X138725482Y-93945188D01*
X138601000Y-93932928D01*
X137751000Y-93932928D01*
X137626518Y-93945188D01*
X137506820Y-93981498D01*
X137502397Y-93983862D01*
X137485191Y-93976735D01*
X137280401Y-93936000D01*
X137071599Y-93936000D01*
X136866809Y-93976735D01*
X136676000Y-94055771D01*
X136485191Y-93976735D01*
X136280401Y-93936000D01*
X136071599Y-93936000D01*
X135866809Y-93976735D01*
X135673902Y-94056640D01*
X135500289Y-94172644D01*
X135352644Y-94320289D01*
X135236640Y-94493902D01*
X135156735Y-94686809D01*
X135116000Y-94891599D01*
X135116000Y-95100401D01*
X135156735Y-95305191D01*
X135236640Y-95498098D01*
X135352644Y-95671711D01*
X135500289Y-95819356D01*
X135561117Y-95860000D01*
X130934185Y-95860000D01*
X131003537Y-95775494D01*
X131062502Y-95665180D01*
X131098812Y-95545482D01*
X131111072Y-95421000D01*
X131111072Y-94571000D01*
X131098812Y-94446518D01*
X131062502Y-94326820D01*
X131003537Y-94216506D01*
X130924185Y-94119815D01*
X130827494Y-94040463D01*
X130717180Y-93981498D01*
X130597482Y-93945188D01*
X130473000Y-93932928D01*
X129623000Y-93932928D01*
X129498518Y-93945188D01*
X129378820Y-93981498D01*
X129374397Y-93983862D01*
X129357191Y-93976735D01*
X129152401Y-93936000D01*
X128943599Y-93936000D01*
X128738809Y-93976735D01*
X128548000Y-94055771D01*
X128357191Y-93976735D01*
X128152401Y-93936000D01*
X127943599Y-93936000D01*
X127738809Y-93976735D01*
X127545902Y-94056640D01*
X127372289Y-94172644D01*
X127224644Y-94320289D01*
X127108640Y-94493902D01*
X127028735Y-94686809D01*
X126988000Y-94891599D01*
X126988000Y-95100401D01*
X127028735Y-95305191D01*
X127108640Y-95498098D01*
X127224644Y-95671711D01*
X127372289Y-95819356D01*
X127433117Y-95860000D01*
X125762279Y-95860000D01*
X125612131Y-95845278D01*
X125498754Y-95811047D01*
X125394183Y-95755446D01*
X125302405Y-95680594D01*
X125226909Y-95589335D01*
X125170581Y-95485160D01*
X125135560Y-95372024D01*
X125120000Y-95223979D01*
X125120000Y-84645000D01*
X135696928Y-84645000D01*
X135709188Y-84769482D01*
X135745498Y-84889180D01*
X135804463Y-84999494D01*
X135883815Y-85096185D01*
X135980506Y-85175537D01*
X136090820Y-85234502D01*
X136210518Y-85270812D01*
X136335000Y-85283072D01*
X136874250Y-85280000D01*
X137033000Y-85121250D01*
X137033000Y-83947000D01*
X137287000Y-83947000D01*
X137287000Y-85121250D01*
X137445750Y-85280000D01*
X137985000Y-85283072D01*
X138109482Y-85270812D01*
X138229180Y-85234502D01*
X138339494Y-85175537D01*
X138436185Y-85096185D01*
X138515537Y-84999494D01*
X138574502Y-84889180D01*
X138610812Y-84769482D01*
X138623072Y-84645000D01*
X138620000Y-84105750D01*
X138461250Y-83947000D01*
X137287000Y-83947000D01*
X137033000Y-83947000D01*
X135858750Y-83947000D01*
X135700000Y-84105750D01*
X135696928Y-84645000D01*
X125120000Y-84645000D01*
X125120000Y-82995000D01*
X135696928Y-82995000D01*
X135700000Y-83534250D01*
X135858750Y-83693000D01*
X137033000Y-83693000D01*
X137033000Y-82518750D01*
X137287000Y-82518750D01*
X137287000Y-83693000D01*
X138461250Y-83693000D01*
X138620000Y-83534250D01*
X138623072Y-82995000D01*
X138610812Y-82870518D01*
X138574502Y-82750820D01*
X138515537Y-82640506D01*
X138436185Y-82543815D01*
X138339494Y-82464463D01*
X138229180Y-82405498D01*
X138109482Y-82369188D01*
X137985000Y-82356928D01*
X137445750Y-82360000D01*
X137287000Y-82518750D01*
X137033000Y-82518750D01*
X136874250Y-82360000D01*
X136335000Y-82356928D01*
X136210518Y-82369188D01*
X136090820Y-82405498D01*
X135980506Y-82464463D01*
X135883815Y-82543815D01*
X135804463Y-82640506D01*
X135745498Y-82750820D01*
X135709188Y-82870518D01*
X135696928Y-82995000D01*
X125120000Y-82995000D01*
X125120000Y-74817424D01*
X136779000Y-74817424D01*
X136779000Y-75042576D01*
X136822925Y-75263401D01*
X136909087Y-75471413D01*
X137034174Y-75658620D01*
X137193380Y-75817826D01*
X137380587Y-75942913D01*
X137588599Y-76029075D01*
X137809424Y-76073000D01*
X138034576Y-76073000D01*
X138255401Y-76029075D01*
X138463413Y-75942913D01*
X138648863Y-75819000D01*
X139481137Y-75819000D01*
X139666587Y-75942913D01*
X139874599Y-76029075D01*
X140095424Y-76073000D01*
X140320576Y-76073000D01*
X140541401Y-76029075D01*
X140749413Y-75942913D01*
X140936620Y-75817826D01*
X141095826Y-75658620D01*
X141220913Y-75471413D01*
X141307075Y-75263401D01*
X141351000Y-75042576D01*
X141351000Y-74817424D01*
X141307075Y-74596599D01*
X141220913Y-74388587D01*
X141095826Y-74201380D01*
X140936620Y-74042174D01*
X140749413Y-73917087D01*
X140541401Y-73830925D01*
X140320576Y-73787000D01*
X140095424Y-73787000D01*
X139874599Y-73830925D01*
X139666587Y-73917087D01*
X139481137Y-74041000D01*
X138648863Y-74041000D01*
X138463413Y-73917087D01*
X138255401Y-73830925D01*
X138034576Y-73787000D01*
X137809424Y-73787000D01*
X137588599Y-73830925D01*
X137380587Y-73917087D01*
X137193380Y-74042174D01*
X137034174Y-74201380D01*
X136909087Y-74388587D01*
X136822925Y-74596599D01*
X136779000Y-74817424D01*
X125120000Y-74817424D01*
X125120000Y-73743000D01*
X147272928Y-73743000D01*
X147276000Y-73882250D01*
X147434750Y-74041000D01*
X148209000Y-74041000D01*
X148209000Y-73266750D01*
X148050250Y-73108000D01*
X147911000Y-73104928D01*
X147786518Y-73117188D01*
X147666820Y-73153498D01*
X147556506Y-73212463D01*
X147459815Y-73291815D01*
X147380463Y-73388506D01*
X147321498Y-73498820D01*
X147285188Y-73618518D01*
X147272928Y-73743000D01*
X125120000Y-73743000D01*
X125120000Y-72422279D01*
X125134722Y-72272131D01*
X125168953Y-72158754D01*
X125224555Y-72054181D01*
X125299407Y-71962404D01*
X125390664Y-71886909D01*
X125494844Y-71830581D01*
X125607976Y-71795560D01*
X125756022Y-71780000D01*
X133302928Y-71780000D01*
X133302928Y-72561000D01*
G37*
X133302928Y-72561000D02*
X133315188Y-72685482D01*
X133351498Y-72805180D01*
X133410463Y-72915494D01*
X133489815Y-73012185D01*
X133586506Y-73091537D01*
X133696820Y-73150502D01*
X133816518Y-73186812D01*
X133941000Y-73199072D01*
X134791000Y-73199072D01*
X134915482Y-73186812D01*
X135035180Y-73150502D01*
X135145494Y-73091537D01*
X135242185Y-73012185D01*
X135321537Y-72915494D01*
X135380502Y-72805180D01*
X135416812Y-72685482D01*
X135429072Y-72561000D01*
X135429072Y-71780000D01*
X137874928Y-71780000D01*
X137874928Y-72561000D01*
X137887188Y-72685482D01*
X137923498Y-72805180D01*
X137982463Y-72915494D01*
X138061815Y-73012185D01*
X138158506Y-73091537D01*
X138268820Y-73150502D01*
X138388518Y-73186812D01*
X138513000Y-73199072D01*
X139363000Y-73199072D01*
X139487482Y-73186812D01*
X139607180Y-73150502D01*
X139717494Y-73091537D01*
X139814185Y-73012185D01*
X139893537Y-72915494D01*
X139952502Y-72805180D01*
X139988812Y-72685482D01*
X140001072Y-72561000D01*
X140001072Y-71780000D01*
X142446928Y-71780000D01*
X142446928Y-72561000D01*
X142459188Y-72685482D01*
X142495498Y-72805180D01*
X142554463Y-72915494D01*
X142633815Y-73012185D01*
X142730506Y-73091537D01*
X142840820Y-73150502D01*
X142960518Y-73186812D01*
X143085000Y-73199072D01*
X143935000Y-73199072D01*
X144059482Y-73186812D01*
X144179180Y-73150502D01*
X144289494Y-73091537D01*
X144386185Y-73012185D01*
X144465537Y-72915494D01*
X144524502Y-72805180D01*
X144560812Y-72685482D01*
X144573072Y-72561000D01*
X144573072Y-71780000D01*
X148557721Y-71780000D01*
X148707869Y-71794722D01*
X148821246Y-71828953D01*
X148925819Y-71884555D01*
X149017596Y-71959407D01*
X149093091Y-72050664D01*
X149149419Y-72154844D01*
X149184440Y-72267976D01*
X149200000Y-72416022D01*
X149200000Y-73281815D01*
X149115494Y-73212463D01*
X149005180Y-73153498D01*
X148885482Y-73117188D01*
X148761000Y-73104928D01*
X148621750Y-73108000D01*
X148463000Y-73266750D01*
X148463000Y-74041000D01*
X148483000Y-74041000D01*
X148483000Y-74295000D01*
X148463000Y-74295000D01*
X148463000Y-74315000D01*
X148209000Y-74315000D01*
X148209000Y-74295000D01*
X147434750Y-74295000D01*
X147276000Y-74453750D01*
X147272928Y-74593000D01*
X147285188Y-74717482D01*
X147321498Y-74837180D01*
X147380463Y-74947494D01*
X147459815Y-75044185D01*
X147556506Y-75123537D01*
X147666820Y-75182502D01*
X147671758Y-75184000D01*
X147666820Y-75185498D01*
X147556506Y-75244463D01*
X147459815Y-75323815D01*
X147380463Y-75420506D01*
X147321498Y-75530820D01*
X147285188Y-75650518D01*
X147272928Y-75775000D01*
X147272928Y-76625000D01*
X147285188Y-76749482D01*
X147321498Y-76869180D01*
X147380463Y-76979494D01*
X147459815Y-77076185D01*
X147556506Y-77155537D01*
X147666820Y-77214502D01*
X147786518Y-77250812D01*
X147911000Y-77263072D01*
X148761000Y-77263072D01*
X148885482Y-77250812D01*
X149005180Y-77214502D01*
X149115494Y-77155537D01*
X149200000Y-77086185D01*
X149200001Y-95217711D01*
X149185278Y-95367869D01*
X149151047Y-95481246D01*
X149095446Y-95585817D01*
X149020594Y-95677595D01*
X148929335Y-95753091D01*
X148825160Y-95809419D01*
X148712024Y-95844440D01*
X148563979Y-95860000D01*
X147190185Y-95860000D01*
X147259537Y-95775494D01*
X147318502Y-95665180D01*
X147354812Y-95545482D01*
X147367072Y-95421000D01*
X147367072Y-94571000D01*
X147354812Y-94446518D01*
X147318502Y-94326820D01*
X147259537Y-94216506D01*
X147180185Y-94119815D01*
X147083494Y-94040463D01*
X146973180Y-93981498D01*
X146853482Y-93945188D01*
X146729000Y-93932928D01*
X145879000Y-93932928D01*
X145754518Y-93945188D01*
X145634820Y-93981498D01*
X145630397Y-93983862D01*
X145613191Y-93976735D01*
X145408401Y-93936000D01*
X145199599Y-93936000D01*
X144994809Y-93976735D01*
X144804000Y-94055771D01*
X144613191Y-93976735D01*
X144408401Y-93936000D01*
X144199599Y-93936000D01*
X143994809Y-93976735D01*
X143801902Y-94056640D01*
X143628289Y-94172644D01*
X143480644Y-94320289D01*
X143364640Y-94493902D01*
X143284735Y-94686809D01*
X143244000Y-94891599D01*
X143244000Y-95100401D01*
X143284735Y-95305191D01*
X143364640Y-95498098D01*
X143480644Y-95671711D01*
X143628289Y-95819356D01*
X143689117Y-95860000D01*
X139062185Y-95860000D01*
X139131537Y-95775494D01*
X139190502Y-95665180D01*
X139226812Y-95545482D01*
X139239072Y-95421000D01*
X139239072Y-94571000D01*
X139226812Y-94446518D01*
X139190502Y-94326820D01*
X139131537Y-94216506D01*
X139052185Y-94119815D01*
X138955494Y-94040463D01*
X138845180Y-93981498D01*
X138725482Y-93945188D01*
X138601000Y-93932928D01*
X137751000Y-93932928D01*
X137626518Y-93945188D01*
X137506820Y-93981498D01*
X137502397Y-93983862D01*
X137485191Y-93976735D01*
X137280401Y-93936000D01*
X137071599Y-93936000D01*
X136866809Y-93976735D01*
X136676000Y-94055771D01*
X136485191Y-93976735D01*
X136280401Y-93936000D01*
X136071599Y-93936000D01*
X135866809Y-93976735D01*
X135673902Y-94056640D01*
X135500289Y-94172644D01*
X135352644Y-94320289D01*
X135236640Y-94493902D01*
X135156735Y-94686809D01*
X135116000Y-94891599D01*
X135116000Y-95100401D01*
X135156735Y-95305191D01*
X135236640Y-95498098D01*
X135352644Y-95671711D01*
X135500289Y-95819356D01*
X135561117Y-95860000D01*
X130934185Y-95860000D01*
X131003537Y-95775494D01*
X131062502Y-95665180D01*
X131098812Y-95545482D01*
X131111072Y-95421000D01*
X131111072Y-94571000D01*
X131098812Y-94446518D01*
X131062502Y-94326820D01*
X131003537Y-94216506D01*
X130924185Y-94119815D01*
X130827494Y-94040463D01*
X130717180Y-93981498D01*
X130597482Y-93945188D01*
X130473000Y-93932928D01*
X129623000Y-93932928D01*
X129498518Y-93945188D01*
X129378820Y-93981498D01*
X129374397Y-93983862D01*
X129357191Y-93976735D01*
X129152401Y-93936000D01*
X128943599Y-93936000D01*
X128738809Y-93976735D01*
X128548000Y-94055771D01*
X128357191Y-93976735D01*
X128152401Y-93936000D01*
X127943599Y-93936000D01*
X127738809Y-93976735D01*
X127545902Y-94056640D01*
X127372289Y-94172644D01*
X127224644Y-94320289D01*
X127108640Y-94493902D01*
X127028735Y-94686809D01*
X126988000Y-94891599D01*
X126988000Y-95100401D01*
X127028735Y-95305191D01*
X127108640Y-95498098D01*
X127224644Y-95671711D01*
X127372289Y-95819356D01*
X127433117Y-95860000D01*
X125762279Y-95860000D01*
X125612131Y-95845278D01*
X125498754Y-95811047D01*
X125394183Y-95755446D01*
X125302405Y-95680594D01*
X125226909Y-95589335D01*
X125170581Y-95485160D01*
X125135560Y-95372024D01*
X125120000Y-95223979D01*
X125120000Y-84645000D01*
X135696928Y-84645000D01*
X135709188Y-84769482D01*
X135745498Y-84889180D01*
X135804463Y-84999494D01*
X135883815Y-85096185D01*
X135980506Y-85175537D01*
X136090820Y-85234502D01*
X136210518Y-85270812D01*
X136335000Y-85283072D01*
X136874250Y-85280000D01*
X137033000Y-85121250D01*
X137033000Y-83947000D01*
X137287000Y-83947000D01*
X137287000Y-85121250D01*
X137445750Y-85280000D01*
X137985000Y-85283072D01*
X138109482Y-85270812D01*
X138229180Y-85234502D01*
X138339494Y-85175537D01*
X138436185Y-85096185D01*
X138515537Y-84999494D01*
X138574502Y-84889180D01*
X138610812Y-84769482D01*
X138623072Y-84645000D01*
X138620000Y-84105750D01*
X138461250Y-83947000D01*
X137287000Y-83947000D01*
X137033000Y-83947000D01*
X135858750Y-83947000D01*
X135700000Y-84105750D01*
X135696928Y-84645000D01*
X125120000Y-84645000D01*
X125120000Y-82995000D01*
X135696928Y-82995000D01*
X135700000Y-83534250D01*
X135858750Y-83693000D01*
X137033000Y-83693000D01*
X137033000Y-82518750D01*
X137287000Y-82518750D01*
X137287000Y-83693000D01*
X138461250Y-83693000D01*
X138620000Y-83534250D01*
X138623072Y-82995000D01*
X138610812Y-82870518D01*
X138574502Y-82750820D01*
X138515537Y-82640506D01*
X138436185Y-82543815D01*
X138339494Y-82464463D01*
X138229180Y-82405498D01*
X138109482Y-82369188D01*
X137985000Y-82356928D01*
X137445750Y-82360000D01*
X137287000Y-82518750D01*
X137033000Y-82518750D01*
X136874250Y-82360000D01*
X136335000Y-82356928D01*
X136210518Y-82369188D01*
X136090820Y-82405498D01*
X135980506Y-82464463D01*
X135883815Y-82543815D01*
X135804463Y-82640506D01*
X135745498Y-82750820D01*
X135709188Y-82870518D01*
X135696928Y-82995000D01*
X125120000Y-82995000D01*
X125120000Y-74817424D01*
X136779000Y-74817424D01*
X136779000Y-75042576D01*
X136822925Y-75263401D01*
X136909087Y-75471413D01*
X137034174Y-75658620D01*
X137193380Y-75817826D01*
X137380587Y-75942913D01*
X137588599Y-76029075D01*
X137809424Y-76073000D01*
X138034576Y-76073000D01*
X138255401Y-76029075D01*
X138463413Y-75942913D01*
X138648863Y-75819000D01*
X139481137Y-75819000D01*
X139666587Y-75942913D01*
X139874599Y-76029075D01*
X140095424Y-76073000D01*
X140320576Y-76073000D01*
X140541401Y-76029075D01*
X140749413Y-75942913D01*
X140936620Y-75817826D01*
X141095826Y-75658620D01*
X141220913Y-75471413D01*
X141307075Y-75263401D01*
X141351000Y-75042576D01*
X141351000Y-74817424D01*
X141307075Y-74596599D01*
X141220913Y-74388587D01*
X141095826Y-74201380D01*
X140936620Y-74042174D01*
X140749413Y-73917087D01*
X140541401Y-73830925D01*
X140320576Y-73787000D01*
X140095424Y-73787000D01*
X139874599Y-73830925D01*
X139666587Y-73917087D01*
X139481137Y-74041000D01*
X138648863Y-74041000D01*
X138463413Y-73917087D01*
X138255401Y-73830925D01*
X138034576Y-73787000D01*
X137809424Y-73787000D01*
X137588599Y-73830925D01*
X137380587Y-73917087D01*
X137193380Y-74042174D01*
X137034174Y-74201380D01*
X136909087Y-74388587D01*
X136822925Y-74596599D01*
X136779000Y-74817424D01*
X125120000Y-74817424D01*
X125120000Y-73743000D01*
X147272928Y-73743000D01*
X147276000Y-73882250D01*
X147434750Y-74041000D01*
X148209000Y-74041000D01*
X148209000Y-73266750D01*
X148050250Y-73108000D01*
X147911000Y-73104928D01*
X147786518Y-73117188D01*
X147666820Y-73153498D01*
X147556506Y-73212463D01*
X147459815Y-73291815D01*
X147380463Y-73388506D01*
X147321498Y-73498820D01*
X147285188Y-73618518D01*
X147272928Y-73743000D01*
X125120000Y-73743000D01*
X125120000Y-72422279D01*
X125134722Y-72272131D01*
X125168953Y-72158754D01*
X125224555Y-72054181D01*
X125299407Y-71962404D01*
X125390664Y-71886909D01*
X125494844Y-71830581D01*
X125607976Y-71795560D01*
X125756022Y-71780000D01*
X133302928Y-71780000D01*
X133302928Y-72561000D01*
%TD*%
M02*
