%TF.GenerationSoftware,KiCad,Pcbnew,5.1.6+dfsg1-1~bpo10+1*%
%TF.CreationDate,2020-10-18T13:18:18-04:00*%
%TF.ProjectId,QAZ_rgb_led_breakoutboard,51415a5f-7267-4625-9f6c-65645f627265,v1.0*%
%TF.SameCoordinates,Original*%
%TF.FileFunction,Soldermask,Top*%
%TF.FilePolarity,Negative*%
%FSLAX46Y46*%
G04 Gerber Fmt 4.6, Leading zero omitted, Abs format (unit mm)*
G04 Created by KiCad (PCBNEW 5.1.6+dfsg1-1~bpo10+1) date 2020-10-18 13:18:18*
%MOMM*%
%LPD*%
G01*
G04 APERTURE LIST*
%ADD10O,0.951600X0.951600*%
%ADD11R,0.951600X0.951600*%
%ADD12R,1.751600X1.751600*%
G04 APERTURE END LIST*
%TO.C,SB13*%
G36*
G01*
X146549100Y-90723200D02*
X147074900Y-90723200D01*
G75*
G02*
X147337800Y-90986100I0J-262900D01*
G01*
X147337800Y-91611900D01*
G75*
G02*
X147074900Y-91874800I-262900J0D01*
G01*
X146549100Y-91874800D01*
G75*
G02*
X146286200Y-91611900I0J262900D01*
G01*
X146286200Y-90986100D01*
G75*
G02*
X146549100Y-90723200I262900J0D01*
G01*
G37*
G36*
G01*
X146549100Y-88973200D02*
X147074900Y-88973200D01*
G75*
G02*
X147337800Y-89236100I0J-262900D01*
G01*
X147337800Y-89861900D01*
G75*
G02*
X147074900Y-90124800I-262900J0D01*
G01*
X146549100Y-90124800D01*
G75*
G02*
X146286200Y-89861900I0J262900D01*
G01*
X146286200Y-89236100D01*
G75*
G02*
X146549100Y-88973200I262900J0D01*
G01*
G37*
%TD*%
%TO.C,SB12*%
G36*
G01*
X145025100Y-90723200D02*
X145550900Y-90723200D01*
G75*
G02*
X145813800Y-90986100I0J-262900D01*
G01*
X145813800Y-91611900D01*
G75*
G02*
X145550900Y-91874800I-262900J0D01*
G01*
X145025100Y-91874800D01*
G75*
G02*
X144762200Y-91611900I0J262900D01*
G01*
X144762200Y-90986100D01*
G75*
G02*
X145025100Y-90723200I262900J0D01*
G01*
G37*
G36*
G01*
X145025100Y-88973200D02*
X145550900Y-88973200D01*
G75*
G02*
X145813800Y-89236100I0J-262900D01*
G01*
X145813800Y-89861900D01*
G75*
G02*
X145550900Y-90124800I-262900J0D01*
G01*
X145025100Y-90124800D01*
G75*
G02*
X144762200Y-89861900I0J262900D01*
G01*
X144762200Y-89236100D01*
G75*
G02*
X145025100Y-88973200I262900J0D01*
G01*
G37*
%TD*%
%TO.C,SB11*%
G36*
G01*
X143501100Y-90723200D02*
X144026900Y-90723200D01*
G75*
G02*
X144289800Y-90986100I0J-262900D01*
G01*
X144289800Y-91611900D01*
G75*
G02*
X144026900Y-91874800I-262900J0D01*
G01*
X143501100Y-91874800D01*
G75*
G02*
X143238200Y-91611900I0J262900D01*
G01*
X143238200Y-90986100D01*
G75*
G02*
X143501100Y-90723200I262900J0D01*
G01*
G37*
G36*
G01*
X143501100Y-88973200D02*
X144026900Y-88973200D01*
G75*
G02*
X144289800Y-89236100I0J-262900D01*
G01*
X144289800Y-89861900D01*
G75*
G02*
X144026900Y-90124800I-262900J0D01*
G01*
X143501100Y-90124800D01*
G75*
G02*
X143238200Y-89861900I0J262900D01*
G01*
X143238200Y-89236100D01*
G75*
G02*
X143501100Y-88973200I262900J0D01*
G01*
G37*
%TD*%
%TO.C,SB10*%
G36*
G01*
X138421100Y-90723200D02*
X138946900Y-90723200D01*
G75*
G02*
X139209800Y-90986100I0J-262900D01*
G01*
X139209800Y-91611900D01*
G75*
G02*
X138946900Y-91874800I-262900J0D01*
G01*
X138421100Y-91874800D01*
G75*
G02*
X138158200Y-91611900I0J262900D01*
G01*
X138158200Y-90986100D01*
G75*
G02*
X138421100Y-90723200I262900J0D01*
G01*
G37*
G36*
G01*
X138421100Y-88973200D02*
X138946900Y-88973200D01*
G75*
G02*
X139209800Y-89236100I0J-262900D01*
G01*
X139209800Y-89861900D01*
G75*
G02*
X138946900Y-90124800I-262900J0D01*
G01*
X138421100Y-90124800D01*
G75*
G02*
X138158200Y-89861900I0J262900D01*
G01*
X138158200Y-89236100D01*
G75*
G02*
X138421100Y-88973200I262900J0D01*
G01*
G37*
%TD*%
%TO.C,SB9*%
G36*
G01*
X136897100Y-88973200D02*
X137422900Y-88973200D01*
G75*
G02*
X137685800Y-89236100I0J-262900D01*
G01*
X137685800Y-89861900D01*
G75*
G02*
X137422900Y-90124800I-262900J0D01*
G01*
X136897100Y-90124800D01*
G75*
G02*
X136634200Y-89861900I0J262900D01*
G01*
X136634200Y-89236100D01*
G75*
G02*
X136897100Y-88973200I262900J0D01*
G01*
G37*
G36*
G01*
X136897100Y-90723200D02*
X137422900Y-90723200D01*
G75*
G02*
X137685800Y-90986100I0J-262900D01*
G01*
X137685800Y-91611900D01*
G75*
G02*
X137422900Y-91874800I-262900J0D01*
G01*
X136897100Y-91874800D01*
G75*
G02*
X136634200Y-91611900I0J262900D01*
G01*
X136634200Y-90986100D01*
G75*
G02*
X136897100Y-90723200I262900J0D01*
G01*
G37*
%TD*%
%TO.C,SB8*%
G36*
G01*
X135373100Y-90723200D02*
X135898900Y-90723200D01*
G75*
G02*
X136161800Y-90986100I0J-262900D01*
G01*
X136161800Y-91611900D01*
G75*
G02*
X135898900Y-91874800I-262900J0D01*
G01*
X135373100Y-91874800D01*
G75*
G02*
X135110200Y-91611900I0J262900D01*
G01*
X135110200Y-90986100D01*
G75*
G02*
X135373100Y-90723200I262900J0D01*
G01*
G37*
G36*
G01*
X135373100Y-88973200D02*
X135898900Y-88973200D01*
G75*
G02*
X136161800Y-89236100I0J-262900D01*
G01*
X136161800Y-89861900D01*
G75*
G02*
X135898900Y-90124800I-262900J0D01*
G01*
X135373100Y-90124800D01*
G75*
G02*
X135110200Y-89861900I0J262900D01*
G01*
X135110200Y-89236100D01*
G75*
G02*
X135373100Y-88973200I262900J0D01*
G01*
G37*
%TD*%
%TO.C,SB7*%
G36*
G01*
X130293100Y-90723200D02*
X130818900Y-90723200D01*
G75*
G02*
X131081800Y-90986100I0J-262900D01*
G01*
X131081800Y-91611900D01*
G75*
G02*
X130818900Y-91874800I-262900J0D01*
G01*
X130293100Y-91874800D01*
G75*
G02*
X130030200Y-91611900I0J262900D01*
G01*
X130030200Y-90986100D01*
G75*
G02*
X130293100Y-90723200I262900J0D01*
G01*
G37*
G36*
G01*
X130293100Y-88973200D02*
X130818900Y-88973200D01*
G75*
G02*
X131081800Y-89236100I0J-262900D01*
G01*
X131081800Y-89861900D01*
G75*
G02*
X130818900Y-90124800I-262900J0D01*
G01*
X130293100Y-90124800D01*
G75*
G02*
X130030200Y-89861900I0J262900D01*
G01*
X130030200Y-89236100D01*
G75*
G02*
X130293100Y-88973200I262900J0D01*
G01*
G37*
%TD*%
%TO.C,SB6*%
G36*
G01*
X128769100Y-90723200D02*
X129294900Y-90723200D01*
G75*
G02*
X129557800Y-90986100I0J-262900D01*
G01*
X129557800Y-91611900D01*
G75*
G02*
X129294900Y-91874800I-262900J0D01*
G01*
X128769100Y-91874800D01*
G75*
G02*
X128506200Y-91611900I0J262900D01*
G01*
X128506200Y-90986100D01*
G75*
G02*
X128769100Y-90723200I262900J0D01*
G01*
G37*
G36*
G01*
X128769100Y-88973200D02*
X129294900Y-88973200D01*
G75*
G02*
X129557800Y-89236100I0J-262900D01*
G01*
X129557800Y-89861900D01*
G75*
G02*
X129294900Y-90124800I-262900J0D01*
G01*
X128769100Y-90124800D01*
G75*
G02*
X128506200Y-89861900I0J262900D01*
G01*
X128506200Y-89236100D01*
G75*
G02*
X128769100Y-88973200I262900J0D01*
G01*
G37*
%TD*%
%TO.C,SB5*%
G36*
G01*
X127245100Y-90723200D02*
X127770900Y-90723200D01*
G75*
G02*
X128033800Y-90986100I0J-262900D01*
G01*
X128033800Y-91611900D01*
G75*
G02*
X127770900Y-91874800I-262900J0D01*
G01*
X127245100Y-91874800D01*
G75*
G02*
X126982200Y-91611900I0J262900D01*
G01*
X126982200Y-90986100D01*
G75*
G02*
X127245100Y-90723200I262900J0D01*
G01*
G37*
G36*
G01*
X127245100Y-88973200D02*
X127770900Y-88973200D01*
G75*
G02*
X128033800Y-89236100I0J-262900D01*
G01*
X128033800Y-89861900D01*
G75*
G02*
X127770900Y-90124800I-262900J0D01*
G01*
X127245100Y-90124800D01*
G75*
G02*
X126982200Y-89861900I0J262900D01*
G01*
X126982200Y-89236100D01*
G75*
G02*
X127245100Y-88973200I262900J0D01*
G01*
G37*
%TD*%
D10*
%TO.C,J8*%
X144304000Y-94996000D03*
X145304000Y-94996000D03*
D11*
X146304000Y-94996000D03*
%TD*%
D10*
%TO.C,J7*%
X136176000Y-94996000D03*
X137176000Y-94996000D03*
D11*
X138176000Y-94996000D03*
%TD*%
D10*
%TO.C,J6*%
X128048000Y-94996000D03*
X129048000Y-94996000D03*
D11*
X130048000Y-94996000D03*
%TD*%
%TO.C,C1*%
G36*
G01*
X143682200Y-81024900D02*
X143682200Y-80499100D01*
G75*
G02*
X143945100Y-80236200I262900J0D01*
G01*
X144570900Y-80236200D01*
G75*
G02*
X144833800Y-80499100I0J-262900D01*
G01*
X144833800Y-81024900D01*
G75*
G02*
X144570900Y-81287800I-262900J0D01*
G01*
X143945100Y-81287800D01*
G75*
G02*
X143682200Y-81024900I0J262900D01*
G01*
G37*
G36*
G01*
X141932200Y-81024900D02*
X141932200Y-80499100D01*
G75*
G02*
X142195100Y-80236200I262900J0D01*
G01*
X142820900Y-80236200D01*
G75*
G02*
X143083800Y-80499100I0J-262900D01*
G01*
X143083800Y-81024900D01*
G75*
G02*
X142820900Y-81287800I-262900J0D01*
G01*
X142195100Y-81287800D01*
G75*
G02*
X141932200Y-81024900I0J262900D01*
G01*
G37*
%TD*%
%TO.C,C2*%
G36*
G01*
X129167900Y-81968800D02*
X128642100Y-81968800D01*
G75*
G02*
X128379200Y-81705900I0J262900D01*
G01*
X128379200Y-81080100D01*
G75*
G02*
X128642100Y-80817200I262900J0D01*
G01*
X129167900Y-80817200D01*
G75*
G02*
X129430800Y-81080100I0J-262900D01*
G01*
X129430800Y-81705900D01*
G75*
G02*
X129167900Y-81968800I-262900J0D01*
G01*
G37*
G36*
G01*
X129167900Y-80218800D02*
X128642100Y-80218800D01*
G75*
G02*
X128379200Y-79955900I0J262900D01*
G01*
X128379200Y-79330100D01*
G75*
G02*
X128642100Y-79067200I262900J0D01*
G01*
X129167900Y-79067200D01*
G75*
G02*
X129430800Y-79330100I0J-262900D01*
G01*
X129430800Y-79955900D01*
G75*
G02*
X129167900Y-80218800I-262900J0D01*
G01*
G37*
%TD*%
%TO.C,J1*%
X148336000Y-76200000D03*
%TD*%
%TO.C,J2*%
X134366000Y-72136000D03*
%TD*%
%TO.C,J3*%
X138938000Y-72136000D03*
%TD*%
%TO.C,J4*%
X143510000Y-72136000D03*
%TD*%
%TO.C,J5*%
X148336000Y-74168000D03*
%TD*%
%TO.C,R1*%
G36*
G01*
X132895800Y-77080100D02*
X132895800Y-77605900D01*
G75*
G02*
X132632900Y-77868800I-262900J0D01*
G01*
X132007100Y-77868800D01*
G75*
G02*
X131744200Y-77605900I0J262900D01*
G01*
X131744200Y-77080100D01*
G75*
G02*
X132007100Y-76817200I262900J0D01*
G01*
X132632900Y-76817200D01*
G75*
G02*
X132895800Y-77080100I0J-262900D01*
G01*
G37*
G36*
G01*
X131145800Y-77080100D02*
X131145800Y-77605900D01*
G75*
G02*
X130882900Y-77868800I-262900J0D01*
G01*
X130257100Y-77868800D01*
G75*
G02*
X129994200Y-77605900I0J262900D01*
G01*
X129994200Y-77080100D01*
G75*
G02*
X130257100Y-76817200I262900J0D01*
G01*
X130882900Y-76817200D01*
G75*
G02*
X131145800Y-77080100I0J-262900D01*
G01*
G37*
%TD*%
%TO.C,SB1*%
G36*
G01*
X143078800Y-78731100D02*
X143078800Y-79256900D01*
G75*
G02*
X142815900Y-79519800I-262900J0D01*
G01*
X142190100Y-79519800D01*
G75*
G02*
X141927200Y-79256900I0J262900D01*
G01*
X141927200Y-78731100D01*
G75*
G02*
X142190100Y-78468200I262900J0D01*
G01*
X142815900Y-78468200D01*
G75*
G02*
X143078800Y-78731100I0J-262900D01*
G01*
G37*
G36*
G01*
X144828800Y-78731100D02*
X144828800Y-79256900D01*
G75*
G02*
X144565900Y-79519800I-262900J0D01*
G01*
X143940100Y-79519800D01*
G75*
G02*
X143677200Y-79256900I0J262900D01*
G01*
X143677200Y-78731100D01*
G75*
G02*
X143940100Y-78468200I262900J0D01*
G01*
X144565900Y-78468200D01*
G75*
G02*
X144828800Y-78731100I0J-262900D01*
G01*
G37*
%TD*%
%TO.C,SB2*%
G36*
G01*
X135373100Y-77289200D02*
X135898900Y-77289200D01*
G75*
G02*
X136161800Y-77552100I0J-262900D01*
G01*
X136161800Y-78177900D01*
G75*
G02*
X135898900Y-78440800I-262900J0D01*
G01*
X135373100Y-78440800D01*
G75*
G02*
X135110200Y-78177900I0J262900D01*
G01*
X135110200Y-77552100D01*
G75*
G02*
X135373100Y-77289200I262900J0D01*
G01*
G37*
G36*
G01*
X135373100Y-79039200D02*
X135898900Y-79039200D01*
G75*
G02*
X136161800Y-79302100I0J-262900D01*
G01*
X136161800Y-79927900D01*
G75*
G02*
X135898900Y-80190800I-262900J0D01*
G01*
X135373100Y-80190800D01*
G75*
G02*
X135110200Y-79927900I0J262900D01*
G01*
X135110200Y-79302100D01*
G75*
G02*
X135373100Y-79039200I262900J0D01*
G01*
G37*
%TD*%
%TO.C,SB3*%
G36*
G01*
X138421100Y-79039200D02*
X138946900Y-79039200D01*
G75*
G02*
X139209800Y-79302100I0J-262900D01*
G01*
X139209800Y-79927900D01*
G75*
G02*
X138946900Y-80190800I-262900J0D01*
G01*
X138421100Y-80190800D01*
G75*
G02*
X138158200Y-79927900I0J262900D01*
G01*
X138158200Y-79302100D01*
G75*
G02*
X138421100Y-79039200I262900J0D01*
G01*
G37*
G36*
G01*
X138421100Y-77289200D02*
X138946900Y-77289200D01*
G75*
G02*
X139209800Y-77552100I0J-262900D01*
G01*
X139209800Y-78177900D01*
G75*
G02*
X138946900Y-78440800I-262900J0D01*
G01*
X138421100Y-78440800D01*
G75*
G02*
X138158200Y-78177900I0J262900D01*
G01*
X138158200Y-77552100D01*
G75*
G02*
X138421100Y-77289200I262900J0D01*
G01*
G37*
%TD*%
%TO.C,SB4*%
G36*
G01*
X136897100Y-77289200D02*
X137422900Y-77289200D01*
G75*
G02*
X137685800Y-77552100I0J-262900D01*
G01*
X137685800Y-78177900D01*
G75*
G02*
X137422900Y-78440800I-262900J0D01*
G01*
X136897100Y-78440800D01*
G75*
G02*
X136634200Y-78177900I0J262900D01*
G01*
X136634200Y-77552100D01*
G75*
G02*
X136897100Y-77289200I262900J0D01*
G01*
G37*
G36*
G01*
X136897100Y-79039200D02*
X137422900Y-79039200D01*
G75*
G02*
X137685800Y-79302100I0J-262900D01*
G01*
X137685800Y-79927900D01*
G75*
G02*
X137422900Y-80190800I-262900J0D01*
G01*
X136897100Y-80190800D01*
G75*
G02*
X136634200Y-79927900I0J262900D01*
G01*
X136634200Y-79302100D01*
G75*
G02*
X136897100Y-79039200I262900J0D01*
G01*
G37*
%TD*%
%TO.C,U1*%
G36*
G01*
X138134200Y-83495400D02*
X138134200Y-83344600D01*
G75*
G02*
X138209600Y-83269200I75400J0D01*
G01*
X139410400Y-83269200D01*
G75*
G02*
X139485800Y-83344600I0J-75400D01*
G01*
X139485800Y-83495400D01*
G75*
G02*
X139410400Y-83570800I-75400J0D01*
G01*
X138209600Y-83570800D01*
G75*
G02*
X138134200Y-83495400I0J75400D01*
G01*
G37*
G36*
G01*
X136209200Y-86070400D02*
X136209200Y-84869600D01*
G75*
G02*
X136284600Y-84794200I75400J0D01*
G01*
X136435400Y-84794200D01*
G75*
G02*
X136510800Y-84869600I0J-75400D01*
G01*
X136510800Y-86070400D01*
G75*
G02*
X136435400Y-86145800I-75400J0D01*
G01*
X136284600Y-86145800D01*
G75*
G02*
X136209200Y-86070400I0J75400D01*
G01*
G37*
G36*
G01*
X137009200Y-82770400D02*
X137009200Y-81569600D01*
G75*
G02*
X137084600Y-81494200I75400J0D01*
G01*
X137235400Y-81494200D01*
G75*
G02*
X137310800Y-81569600I0J-75400D01*
G01*
X137310800Y-82770400D01*
G75*
G02*
X137235400Y-82845800I-75400J0D01*
G01*
X137084600Y-82845800D01*
G75*
G02*
X137009200Y-82770400I0J75400D01*
G01*
G37*
G36*
G01*
X138134200Y-84695400D02*
X138134200Y-84544600D01*
G75*
G02*
X138209600Y-84469200I75400J0D01*
G01*
X139410400Y-84469200D01*
G75*
G02*
X139485800Y-84544600I0J-75400D01*
G01*
X139485800Y-84695400D01*
G75*
G02*
X139410400Y-84770800I-75400J0D01*
G01*
X138209600Y-84770800D01*
G75*
G02*
X138134200Y-84695400I0J75400D01*
G01*
G37*
G36*
G01*
X134834200Y-84695400D02*
X134834200Y-84544600D01*
G75*
G02*
X134909600Y-84469200I75400J0D01*
G01*
X136110400Y-84469200D01*
G75*
G02*
X136185800Y-84544600I0J-75400D01*
G01*
X136185800Y-84695400D01*
G75*
G02*
X136110400Y-84770800I-75400J0D01*
G01*
X134909600Y-84770800D01*
G75*
G02*
X134834200Y-84695400I0J75400D01*
G01*
G37*
G36*
G01*
X138134200Y-83895400D02*
X138134200Y-83744600D01*
G75*
G02*
X138209600Y-83669200I75400J0D01*
G01*
X139410400Y-83669200D01*
G75*
G02*
X139485800Y-83744600I0J-75400D01*
G01*
X139485800Y-83895400D01*
G75*
G02*
X139410400Y-83970800I-75400J0D01*
G01*
X138209600Y-83970800D01*
G75*
G02*
X138134200Y-83895400I0J75400D01*
G01*
G37*
G36*
G01*
X137809200Y-82770400D02*
X137809200Y-81569600D01*
G75*
G02*
X137884600Y-81494200I75400J0D01*
G01*
X138035400Y-81494200D01*
G75*
G02*
X138110800Y-81569600I0J-75400D01*
G01*
X138110800Y-82770400D01*
G75*
G02*
X138035400Y-82845800I-75400J0D01*
G01*
X137884600Y-82845800D01*
G75*
G02*
X137809200Y-82770400I0J75400D01*
G01*
G37*
G36*
G01*
X136609200Y-82770400D02*
X136609200Y-81569600D01*
G75*
G02*
X136684600Y-81494200I75400J0D01*
G01*
X136835400Y-81494200D01*
G75*
G02*
X136910800Y-81569600I0J-75400D01*
G01*
X136910800Y-82770400D01*
G75*
G02*
X136835400Y-82845800I-75400J0D01*
G01*
X136684600Y-82845800D01*
G75*
G02*
X136609200Y-82770400I0J75400D01*
G01*
G37*
G36*
G01*
X137809200Y-86070400D02*
X137809200Y-84869600D01*
G75*
G02*
X137884600Y-84794200I75400J0D01*
G01*
X138035400Y-84794200D01*
G75*
G02*
X138110800Y-84869600I0J-75400D01*
G01*
X138110800Y-86070400D01*
G75*
G02*
X138035400Y-86145800I-75400J0D01*
G01*
X137884600Y-86145800D01*
G75*
G02*
X137809200Y-86070400I0J75400D01*
G01*
G37*
G36*
G01*
X138134200Y-83095400D02*
X138134200Y-82944600D01*
G75*
G02*
X138209600Y-82869200I75400J0D01*
G01*
X139410400Y-82869200D01*
G75*
G02*
X139485800Y-82944600I0J-75400D01*
G01*
X139485800Y-83095400D01*
G75*
G02*
X139410400Y-83170800I-75400J0D01*
G01*
X138209600Y-83170800D01*
G75*
G02*
X138134200Y-83095400I0J75400D01*
G01*
G37*
G36*
G01*
X137009200Y-86070400D02*
X137009200Y-84869600D01*
G75*
G02*
X137084600Y-84794200I75400J0D01*
G01*
X137235400Y-84794200D01*
G75*
G02*
X137310800Y-84869600I0J-75400D01*
G01*
X137310800Y-86070400D01*
G75*
G02*
X137235400Y-86145800I-75400J0D01*
G01*
X137084600Y-86145800D01*
G75*
G02*
X137009200Y-86070400I0J75400D01*
G01*
G37*
G36*
G01*
X134834200Y-84295400D02*
X134834200Y-84144600D01*
G75*
G02*
X134909600Y-84069200I75400J0D01*
G01*
X136110400Y-84069200D01*
G75*
G02*
X136185800Y-84144600I0J-75400D01*
G01*
X136185800Y-84295400D01*
G75*
G02*
X136110400Y-84370800I-75400J0D01*
G01*
X134909600Y-84370800D01*
G75*
G02*
X134834200Y-84295400I0J75400D01*
G01*
G37*
G36*
G01*
X137409200Y-82770400D02*
X137409200Y-81569600D01*
G75*
G02*
X137484600Y-81494200I75400J0D01*
G01*
X137635400Y-81494200D01*
G75*
G02*
X137710800Y-81569600I0J-75400D01*
G01*
X137710800Y-82770400D01*
G75*
G02*
X137635400Y-82845800I-75400J0D01*
G01*
X137484600Y-82845800D01*
G75*
G02*
X137409200Y-82770400I0J75400D01*
G01*
G37*
G36*
G01*
X136209200Y-82770400D02*
X136209200Y-81569600D01*
G75*
G02*
X136284600Y-81494200I75400J0D01*
G01*
X136435400Y-81494200D01*
G75*
G02*
X136510800Y-81569600I0J-75400D01*
G01*
X136510800Y-82770400D01*
G75*
G02*
X136435400Y-82845800I-75400J0D01*
G01*
X136284600Y-82845800D01*
G75*
G02*
X136209200Y-82770400I0J75400D01*
G01*
G37*
G36*
G01*
X137409200Y-86070400D02*
X137409200Y-84869600D01*
G75*
G02*
X137484600Y-84794200I75400J0D01*
G01*
X137635400Y-84794200D01*
G75*
G02*
X137710800Y-84869600I0J-75400D01*
G01*
X137710800Y-86070400D01*
G75*
G02*
X137635400Y-86145800I-75400J0D01*
G01*
X137484600Y-86145800D01*
G75*
G02*
X137409200Y-86070400I0J75400D01*
G01*
G37*
G36*
G01*
X138134200Y-84295400D02*
X138134200Y-84144600D01*
G75*
G02*
X138209600Y-84069200I75400J0D01*
G01*
X139410400Y-84069200D01*
G75*
G02*
X139485800Y-84144600I0J-75400D01*
G01*
X139485800Y-84295400D01*
G75*
G02*
X139410400Y-84370800I-75400J0D01*
G01*
X138209600Y-84370800D01*
G75*
G02*
X138134200Y-84295400I0J75400D01*
G01*
G37*
G36*
G01*
X136609200Y-86070400D02*
X136609200Y-84869600D01*
G75*
G02*
X136684600Y-84794200I75400J0D01*
G01*
X136835400Y-84794200D01*
G75*
G02*
X136910800Y-84869600I0J-75400D01*
G01*
X136910800Y-86070400D01*
G75*
G02*
X136835400Y-86145800I-75400J0D01*
G01*
X136684600Y-86145800D01*
G75*
G02*
X136609200Y-86070400I0J75400D01*
G01*
G37*
G36*
G01*
X134834200Y-83895400D02*
X134834200Y-83744600D01*
G75*
G02*
X134909600Y-83669200I75400J0D01*
G01*
X136110400Y-83669200D01*
G75*
G02*
X136185800Y-83744600I0J-75400D01*
G01*
X136185800Y-83895400D01*
G75*
G02*
X136110400Y-83970800I-75400J0D01*
G01*
X134909600Y-83970800D01*
G75*
G02*
X134834200Y-83895400I0J75400D01*
G01*
G37*
G36*
G01*
X134834200Y-83095400D02*
X134834200Y-82944600D01*
G75*
G02*
X134909600Y-82869200I75400J0D01*
G01*
X136110400Y-82869200D01*
G75*
G02*
X136185800Y-82944600I0J-75400D01*
G01*
X136185800Y-83095400D01*
G75*
G02*
X136110400Y-83170800I-75400J0D01*
G01*
X134909600Y-83170800D01*
G75*
G02*
X134834200Y-83095400I0J75400D01*
G01*
G37*
G36*
G01*
X134834200Y-83495400D02*
X134834200Y-83344600D01*
G75*
G02*
X134909600Y-83269200I75400J0D01*
G01*
X136110400Y-83269200D01*
G75*
G02*
X136185800Y-83344600I0J-75400D01*
G01*
X136185800Y-83495400D01*
G75*
G02*
X136110400Y-83570800I-75400J0D01*
G01*
X134909600Y-83570800D01*
G75*
G02*
X134834200Y-83495400I0J75400D01*
G01*
G37*
D12*
X137160000Y-83820000D03*
%TD*%
M02*
