%TF.GenerationSoftware,KiCad,Pcbnew,(5.1.4)-1*%
%TF.CreationDate,2021-05-21T19:12:07-04:00*%
%TF.ProjectId,QAZ_rgb_led_breakoutboard,51415a5f-7267-4625-9f6c-65645f627265,v1.0*%
%TF.SameCoordinates,Original*%
%TF.FileFunction,Soldermask,Top*%
%TF.FilePolarity,Negative*%
%FSLAX46Y46*%
G04 Gerber Fmt 4.6, Leading zero omitted, Abs format (unit mm)*
G04 Created by KiCad (PCBNEW (5.1.4)-1) date 2021-05-21 19:12:07*
%MOMM*%
%LPD*%
G04 APERTURE LIST*
%ADD10R,1.101600X0.501600*%
%ADD11R,1.101600X0.601600*%
%ADD12O,1.171600X1.901600*%
%ADD13R,1.171600X1.901600*%
G04 APERTURE END LIST*
D10*
%TO.C,D6*%
X120734000Y-72935000D03*
X122534000Y-72935000D03*
X120734000Y-74385000D03*
X122534000Y-74385000D03*
D11*
X120734000Y-73660000D03*
X122534000Y-73660000D03*
%TD*%
D10*
%TO.C,D4*%
X112734000Y-72935000D03*
X114534000Y-72935000D03*
X112734000Y-74385000D03*
X114534000Y-74385000D03*
D11*
X112734000Y-73660000D03*
X114534000Y-73660000D03*
%TD*%
D10*
%TO.C,D2*%
X104734000Y-72935000D03*
X106534000Y-72935000D03*
X104734000Y-74385000D03*
X106534000Y-74385000D03*
D11*
X104734000Y-73660000D03*
X106534000Y-73660000D03*
%TD*%
D10*
%TO.C,D5*%
X120734000Y-64935000D03*
X122534000Y-64935000D03*
X120734000Y-66385000D03*
X122534000Y-66385000D03*
D11*
X120734000Y-65660000D03*
X122534000Y-65660000D03*
%TD*%
D10*
%TO.C,D3*%
X112734000Y-64935000D03*
X114534000Y-64935000D03*
X112734000Y-66385000D03*
X114534000Y-66385000D03*
D11*
X112734000Y-65660000D03*
X114534000Y-65660000D03*
%TD*%
D12*
%TO.C,D12*%
X123694000Y-70910000D03*
X122424000Y-70910000D03*
X121154000Y-70910000D03*
D13*
X119884000Y-70910000D03*
%TD*%
D12*
%TO.C,D11*%
X123694000Y-62910000D03*
X122424000Y-62910000D03*
X121154000Y-62910000D03*
D13*
X119884000Y-62910000D03*
%TD*%
D12*
%TO.C,D10*%
X115694000Y-70910000D03*
X114424000Y-70910000D03*
X113154000Y-70910000D03*
D13*
X111884000Y-70910000D03*
%TD*%
D12*
%TO.C,D9*%
X115694000Y-62910000D03*
X114424000Y-62910000D03*
X113154000Y-62910000D03*
D13*
X111884000Y-62910000D03*
%TD*%
D12*
%TO.C,D8*%
X107694000Y-70910000D03*
X106424000Y-70910000D03*
X105154000Y-70910000D03*
D13*
X103884000Y-70910000D03*
%TD*%
D12*
%TO.C,D7*%
X107694000Y-62910000D03*
X106424000Y-62910000D03*
X105154000Y-62910000D03*
D13*
X103884000Y-62910000D03*
%TD*%
D11*
%TO.C,D1*%
X106534000Y-65660000D03*
X104734000Y-65660000D03*
D10*
X106534000Y-66385000D03*
X104734000Y-66385000D03*
X106534000Y-64935000D03*
X104734000Y-64935000D03*
%TD*%
M02*
