%TF.GenerationSoftware,KiCad,Pcbnew,5.1.6+dfsg1-1~bpo10+1*%
%TF.CreationDate,2020-10-18T13:18:18-04:00*%
%TF.ProjectId,QAZ_rgb_led_breakoutboard,51415a5f-7267-4625-9f6c-65645f627265,v1.0*%
%TF.SameCoordinates,Original*%
%TF.FileFunction,Legend,Top*%
%TF.FilePolarity,Positive*%
%FSLAX46Y46*%
G04 Gerber Fmt 4.6, Leading zero omitted, Abs format (unit mm)*
G04 Created by KiCad (PCBNEW 5.1.6+dfsg1-1~bpo10+1) date 2020-10-18 13:18:18*
%MOMM*%
%LPD*%
G01*
G04 APERTURE LIST*
%ADD10C,0.150000*%
%ADD11C,0.120000*%
G04 APERTURE END LIST*
D10*
X125809714Y-74096571D02*
X125952571Y-74144190D01*
X126000190Y-74191809D01*
X126047809Y-74287047D01*
X126047809Y-74429904D01*
X126000190Y-74525142D01*
X125952571Y-74572761D01*
X125857333Y-74620380D01*
X125476380Y-74620380D01*
X125476380Y-73620380D01*
X125809714Y-73620380D01*
X125904952Y-73668000D01*
X125952571Y-73715619D01*
X126000190Y-73810857D01*
X126000190Y-73906095D01*
X125952571Y-74001333D01*
X125904952Y-74048952D01*
X125809714Y-74096571D01*
X125476380Y-74096571D01*
X126476380Y-74620380D02*
X126476380Y-73953714D01*
X126476380Y-74144190D02*
X126524000Y-74048952D01*
X126571619Y-74001333D01*
X126666857Y-73953714D01*
X126762095Y-73953714D01*
X127476380Y-74572761D02*
X127381142Y-74620380D01*
X127190666Y-74620380D01*
X127095428Y-74572761D01*
X127047809Y-74477523D01*
X127047809Y-74096571D01*
X127095428Y-74001333D01*
X127190666Y-73953714D01*
X127381142Y-73953714D01*
X127476380Y-74001333D01*
X127524000Y-74096571D01*
X127524000Y-74191809D01*
X127047809Y-74287047D01*
X128381142Y-74620380D02*
X128381142Y-74096571D01*
X128333523Y-74001333D01*
X128238285Y-73953714D01*
X128047809Y-73953714D01*
X127952571Y-74001333D01*
X128381142Y-74572761D02*
X128285904Y-74620380D01*
X128047809Y-74620380D01*
X127952571Y-74572761D01*
X127904952Y-74477523D01*
X127904952Y-74382285D01*
X127952571Y-74287047D01*
X128047809Y-74239428D01*
X128285904Y-74239428D01*
X128381142Y-74191809D01*
X128857333Y-74620380D02*
X128857333Y-73620380D01*
X128952571Y-74239428D02*
X129238285Y-74620380D01*
X129238285Y-73953714D02*
X128857333Y-74334666D01*
X129809714Y-74620380D02*
X129714476Y-74572761D01*
X129666857Y-74525142D01*
X129619238Y-74429904D01*
X129619238Y-74144190D01*
X129666857Y-74048952D01*
X129714476Y-74001333D01*
X129809714Y-73953714D01*
X129952571Y-73953714D01*
X130047809Y-74001333D01*
X130095428Y-74048952D01*
X130143047Y-74144190D01*
X130143047Y-74429904D01*
X130095428Y-74525142D01*
X130047809Y-74572761D01*
X129952571Y-74620380D01*
X129809714Y-74620380D01*
X131000190Y-73953714D02*
X131000190Y-74620380D01*
X130571619Y-73953714D02*
X130571619Y-74477523D01*
X130619238Y-74572761D01*
X130714476Y-74620380D01*
X130857333Y-74620380D01*
X130952571Y-74572761D01*
X131000190Y-74525142D01*
X131333523Y-73953714D02*
X131714476Y-73953714D01*
X131476380Y-73620380D02*
X131476380Y-74477523D01*
X131524000Y-74572761D01*
X131619238Y-74620380D01*
X131714476Y-74620380D01*
X126095428Y-73096380D02*
X125762095Y-72620190D01*
X125524000Y-73096380D02*
X125524000Y-72096380D01*
X125904952Y-72096380D01*
X126000190Y-72144000D01*
X126047809Y-72191619D01*
X126095428Y-72286857D01*
X126095428Y-72429714D01*
X126047809Y-72524952D01*
X126000190Y-72572571D01*
X125904952Y-72620190D01*
X125524000Y-72620190D01*
X127047809Y-72144000D02*
X126952571Y-72096380D01*
X126809714Y-72096380D01*
X126666857Y-72144000D01*
X126571619Y-72239238D01*
X126524000Y-72334476D01*
X126476380Y-72524952D01*
X126476380Y-72667809D01*
X126524000Y-72858285D01*
X126571619Y-72953523D01*
X126666857Y-73048761D01*
X126809714Y-73096380D01*
X126904952Y-73096380D01*
X127047809Y-73048761D01*
X127095428Y-73001142D01*
X127095428Y-72667809D01*
X126904952Y-72667809D01*
X127857333Y-72572571D02*
X128000190Y-72620190D01*
X128047809Y-72667809D01*
X128095428Y-72763047D01*
X128095428Y-72905904D01*
X128047809Y-73001142D01*
X128000190Y-73048761D01*
X127904952Y-73096380D01*
X127524000Y-73096380D01*
X127524000Y-72096380D01*
X127857333Y-72096380D01*
X127952571Y-72144000D01*
X128000190Y-72191619D01*
X128047809Y-72286857D01*
X128047809Y-72382095D01*
X128000190Y-72477333D01*
X127952571Y-72524952D01*
X127857333Y-72572571D01*
X127524000Y-72572571D01*
X129762095Y-73096380D02*
X129285904Y-73096380D01*
X129285904Y-72096380D01*
X130095428Y-72572571D02*
X130428761Y-72572571D01*
X130571619Y-73096380D02*
X130095428Y-73096380D01*
X130095428Y-72096380D01*
X130571619Y-72096380D01*
X131000190Y-73096380D02*
X131000190Y-72096380D01*
X131238285Y-72096380D01*
X131381142Y-72144000D01*
X131476380Y-72239238D01*
X131524000Y-72334476D01*
X131571619Y-72524952D01*
X131571619Y-72667809D01*
X131524000Y-72858285D01*
X131476380Y-72953523D01*
X131381142Y-73048761D01*
X131238285Y-73096380D01*
X131000190Y-73096380D01*
X146177047Y-74239428D02*
X146938952Y-74239428D01*
X133627904Y-73842571D02*
X133961238Y-73842571D01*
X134104095Y-74366380D02*
X133627904Y-74366380D01*
X133627904Y-73366380D01*
X134104095Y-73366380D01*
X134532666Y-74366380D02*
X134532666Y-73366380D01*
X135104095Y-74366380D01*
X135104095Y-73366380D01*
X137723714Y-74318761D02*
X137866571Y-74366380D01*
X138104666Y-74366380D01*
X138199904Y-74318761D01*
X138247523Y-74271142D01*
X138295142Y-74175904D01*
X138295142Y-74080666D01*
X138247523Y-73985428D01*
X138199904Y-73937809D01*
X138104666Y-73890190D01*
X137914190Y-73842571D01*
X137818952Y-73794952D01*
X137771333Y-73747333D01*
X137723714Y-73652095D01*
X137723714Y-73556857D01*
X137771333Y-73461619D01*
X137818952Y-73414000D01*
X137914190Y-73366380D01*
X138152285Y-73366380D01*
X138295142Y-73414000D01*
X138723714Y-74366380D02*
X138723714Y-73366380D01*
X138961809Y-73366380D01*
X139104666Y-73414000D01*
X139199904Y-73509238D01*
X139247523Y-73604476D01*
X139295142Y-73794952D01*
X139295142Y-73937809D01*
X139247523Y-74128285D01*
X139199904Y-74223523D01*
X139104666Y-74318761D01*
X138961809Y-74366380D01*
X138723714Y-74366380D01*
X139676095Y-74080666D02*
X140152285Y-74080666D01*
X139580857Y-74366380D02*
X139914190Y-73366380D01*
X140247523Y-74366380D01*
X142319523Y-74318761D02*
X142462380Y-74366380D01*
X142700476Y-74366380D01*
X142795714Y-74318761D01*
X142843333Y-74271142D01*
X142890952Y-74175904D01*
X142890952Y-74080666D01*
X142843333Y-73985428D01*
X142795714Y-73937809D01*
X142700476Y-73890190D01*
X142510000Y-73842571D01*
X142414761Y-73794952D01*
X142367142Y-73747333D01*
X142319523Y-73652095D01*
X142319523Y-73556857D01*
X142367142Y-73461619D01*
X142414761Y-73414000D01*
X142510000Y-73366380D01*
X142748095Y-73366380D01*
X142890952Y-73414000D01*
X143890952Y-74271142D02*
X143843333Y-74318761D01*
X143700476Y-74366380D01*
X143605238Y-74366380D01*
X143462380Y-74318761D01*
X143367142Y-74223523D01*
X143319523Y-74128285D01*
X143271904Y-73937809D01*
X143271904Y-73794952D01*
X143319523Y-73604476D01*
X143367142Y-73509238D01*
X143462380Y-73414000D01*
X143605238Y-73366380D01*
X143700476Y-73366380D01*
X143843333Y-73414000D01*
X143890952Y-73461619D01*
X144795714Y-74366380D02*
X144319523Y-74366380D01*
X144319523Y-73366380D01*
X146177047Y-76271428D02*
X146938952Y-76271428D01*
X146558000Y-76652380D02*
X146558000Y-75890476D01*
X128341523Y-93416380D02*
X128008190Y-92940190D01*
X127770095Y-93416380D02*
X127770095Y-92416380D01*
X128151047Y-92416380D01*
X128246285Y-92464000D01*
X128293904Y-92511619D01*
X128341523Y-92606857D01*
X128341523Y-92749714D01*
X128293904Y-92844952D01*
X128246285Y-92892571D01*
X128151047Y-92940190D01*
X127770095Y-92940190D01*
X129293904Y-92464000D02*
X129198666Y-92416380D01*
X129055809Y-92416380D01*
X128912952Y-92464000D01*
X128817714Y-92559238D01*
X128770095Y-92654476D01*
X128722476Y-92844952D01*
X128722476Y-92987809D01*
X128770095Y-93178285D01*
X128817714Y-93273523D01*
X128912952Y-93368761D01*
X129055809Y-93416380D01*
X129151047Y-93416380D01*
X129293904Y-93368761D01*
X129341523Y-93321142D01*
X129341523Y-92987809D01*
X129151047Y-92987809D01*
X130103428Y-92892571D02*
X130246285Y-92940190D01*
X130293904Y-92987809D01*
X130341523Y-93083047D01*
X130341523Y-93225904D01*
X130293904Y-93321142D01*
X130246285Y-93368761D01*
X130151047Y-93416380D01*
X129770095Y-93416380D01*
X129770095Y-92416380D01*
X130103428Y-92416380D01*
X130198666Y-92464000D01*
X130246285Y-92511619D01*
X130293904Y-92606857D01*
X130293904Y-92702095D01*
X130246285Y-92797333D01*
X130198666Y-92844952D01*
X130103428Y-92892571D01*
X129770095Y-92892571D01*
X136469523Y-93416380D02*
X136136190Y-92940190D01*
X135898095Y-93416380D02*
X135898095Y-92416380D01*
X136279047Y-92416380D01*
X136374285Y-92464000D01*
X136421904Y-92511619D01*
X136469523Y-92606857D01*
X136469523Y-92749714D01*
X136421904Y-92844952D01*
X136374285Y-92892571D01*
X136279047Y-92940190D01*
X135898095Y-92940190D01*
X137421904Y-92464000D02*
X137326666Y-92416380D01*
X137183809Y-92416380D01*
X137040952Y-92464000D01*
X136945714Y-92559238D01*
X136898095Y-92654476D01*
X136850476Y-92844952D01*
X136850476Y-92987809D01*
X136898095Y-93178285D01*
X136945714Y-93273523D01*
X137040952Y-93368761D01*
X137183809Y-93416380D01*
X137279047Y-93416380D01*
X137421904Y-93368761D01*
X137469523Y-93321142D01*
X137469523Y-92987809D01*
X137279047Y-92987809D01*
X138231428Y-92892571D02*
X138374285Y-92940190D01*
X138421904Y-92987809D01*
X138469523Y-93083047D01*
X138469523Y-93225904D01*
X138421904Y-93321142D01*
X138374285Y-93368761D01*
X138279047Y-93416380D01*
X137898095Y-93416380D01*
X137898095Y-92416380D01*
X138231428Y-92416380D01*
X138326666Y-92464000D01*
X138374285Y-92511619D01*
X138421904Y-92606857D01*
X138421904Y-92702095D01*
X138374285Y-92797333D01*
X138326666Y-92844952D01*
X138231428Y-92892571D01*
X137898095Y-92892571D01*
X144597523Y-93416380D02*
X144264190Y-92940190D01*
X144026095Y-93416380D02*
X144026095Y-92416380D01*
X144407047Y-92416380D01*
X144502285Y-92464000D01*
X144549904Y-92511619D01*
X144597523Y-92606857D01*
X144597523Y-92749714D01*
X144549904Y-92844952D01*
X144502285Y-92892571D01*
X144407047Y-92940190D01*
X144026095Y-92940190D01*
X145549904Y-92464000D02*
X145454666Y-92416380D01*
X145311809Y-92416380D01*
X145168952Y-92464000D01*
X145073714Y-92559238D01*
X145026095Y-92654476D01*
X144978476Y-92844952D01*
X144978476Y-92987809D01*
X145026095Y-93178285D01*
X145073714Y-93273523D01*
X145168952Y-93368761D01*
X145311809Y-93416380D01*
X145407047Y-93416380D01*
X145549904Y-93368761D01*
X145597523Y-93321142D01*
X145597523Y-92987809D01*
X145407047Y-92987809D01*
X146359428Y-92892571D02*
X146502285Y-92940190D01*
X146549904Y-92987809D01*
X146597523Y-93083047D01*
X146597523Y-93225904D01*
X146549904Y-93321142D01*
X146502285Y-93368761D01*
X146407047Y-93416380D01*
X146026095Y-93416380D01*
X146026095Y-92416380D01*
X146359428Y-92416380D01*
X146454666Y-92464000D01*
X146502285Y-92511619D01*
X146549904Y-92606857D01*
X146549904Y-92702095D01*
X146502285Y-92797333D01*
X146454666Y-92844952D01*
X146359428Y-92892571D01*
X146026095Y-92892571D01*
D11*
%TO.C,SB13*%
X147322000Y-90252733D02*
X147322000Y-90595267D01*
X146302000Y-90252733D02*
X146302000Y-90595267D01*
%TO.C,SB12*%
X145798000Y-90252733D02*
X145798000Y-90595267D01*
X144778000Y-90252733D02*
X144778000Y-90595267D01*
%TO.C,SB11*%
X144274000Y-90252733D02*
X144274000Y-90595267D01*
X143254000Y-90252733D02*
X143254000Y-90595267D01*
%TO.C,SB10*%
X139194000Y-90252733D02*
X139194000Y-90595267D01*
X138174000Y-90252733D02*
X138174000Y-90595267D01*
%TO.C,SB9*%
X136650000Y-90252733D02*
X136650000Y-90595267D01*
X137670000Y-90252733D02*
X137670000Y-90595267D01*
%TO.C,SB8*%
X136146000Y-90252733D02*
X136146000Y-90595267D01*
X135126000Y-90252733D02*
X135126000Y-90595267D01*
%TO.C,SB7*%
X131066000Y-90252733D02*
X131066000Y-90595267D01*
X130046000Y-90252733D02*
X130046000Y-90595267D01*
%TO.C,SB6*%
X129542000Y-90252733D02*
X129542000Y-90595267D01*
X128522000Y-90252733D02*
X128522000Y-90595267D01*
%TO.C,SB5*%
X128018000Y-90252733D02*
X128018000Y-90595267D01*
X126998000Y-90252733D02*
X126998000Y-90595267D01*
%TO.C,J8*%
X143744000Y-94301000D02*
X143744000Y-94601507D01*
X143744000Y-95390493D02*
X143744000Y-95691000D01*
X145619000Y-94301000D02*
X143744000Y-94301000D01*
X145619000Y-95691000D02*
X143744000Y-95691000D01*
X145619000Y-94301000D02*
X145619000Y-94387724D01*
X145619000Y-95604276D02*
X145619000Y-95691000D01*
X146304000Y-94301000D02*
X146989000Y-94301000D01*
X146989000Y-94301000D02*
X146989000Y-94996000D01*
%TO.C,J7*%
X135616000Y-94301000D02*
X135616000Y-94601507D01*
X135616000Y-95390493D02*
X135616000Y-95691000D01*
X137491000Y-94301000D02*
X135616000Y-94301000D01*
X137491000Y-95691000D02*
X135616000Y-95691000D01*
X137491000Y-94301000D02*
X137491000Y-94387724D01*
X137491000Y-95604276D02*
X137491000Y-95691000D01*
X138176000Y-94301000D02*
X138861000Y-94301000D01*
X138861000Y-94301000D02*
X138861000Y-94996000D01*
%TO.C,J6*%
X127488000Y-94301000D02*
X127488000Y-94601507D01*
X127488000Y-95390493D02*
X127488000Y-95691000D01*
X129363000Y-94301000D02*
X127488000Y-94301000D01*
X129363000Y-95691000D02*
X127488000Y-95691000D01*
X129363000Y-94301000D02*
X129363000Y-94387724D01*
X129363000Y-95604276D02*
X129363000Y-95691000D01*
X130048000Y-94301000D02*
X130733000Y-94301000D01*
X130733000Y-94301000D02*
X130733000Y-94996000D01*
%TO.C,C1*%
X143211733Y-80252000D02*
X143554267Y-80252000D01*
X143211733Y-81272000D02*
X143554267Y-81272000D01*
%TO.C,C2*%
X129415000Y-80689267D02*
X129415000Y-80346733D01*
X128395000Y-80689267D02*
X128395000Y-80346733D01*
%TO.C,J1*%
X147641000Y-75515000D02*
X148336000Y-75515000D01*
X147641000Y-76200000D02*
X147641000Y-75515000D01*
X148944276Y-76885000D02*
X149031000Y-76885000D01*
X147641000Y-76885000D02*
X147727724Y-76885000D01*
X149031000Y-76885000D02*
X149031000Y-76760000D01*
X147641000Y-76885000D02*
X147641000Y-76760000D01*
X147641000Y-76885000D02*
X149031000Y-76885000D01*
%TO.C,J2*%
X133671000Y-71451000D02*
X134366000Y-71451000D01*
X133671000Y-72136000D02*
X133671000Y-71451000D01*
X134974276Y-72821000D02*
X135061000Y-72821000D01*
X133671000Y-72821000D02*
X133757724Y-72821000D01*
X135061000Y-72821000D02*
X135061000Y-72696000D01*
X133671000Y-72821000D02*
X133671000Y-72696000D01*
X133671000Y-72821000D02*
X135061000Y-72821000D01*
%TO.C,J3*%
X138243000Y-71451000D02*
X138938000Y-71451000D01*
X138243000Y-72136000D02*
X138243000Y-71451000D01*
X139546276Y-72821000D02*
X139633000Y-72821000D01*
X138243000Y-72821000D02*
X138329724Y-72821000D01*
X139633000Y-72821000D02*
X139633000Y-72696000D01*
X138243000Y-72821000D02*
X138243000Y-72696000D01*
X138243000Y-72821000D02*
X139633000Y-72821000D01*
%TO.C,J4*%
X142815000Y-72821000D02*
X144205000Y-72821000D01*
X142815000Y-72821000D02*
X142815000Y-72696000D01*
X144205000Y-72821000D02*
X144205000Y-72696000D01*
X142815000Y-72821000D02*
X142901724Y-72821000D01*
X144118276Y-72821000D02*
X144205000Y-72821000D01*
X142815000Y-72136000D02*
X142815000Y-71451000D01*
X142815000Y-71451000D02*
X143510000Y-71451000D01*
%TO.C,J5*%
X147641000Y-74853000D02*
X149031000Y-74853000D01*
X147641000Y-74853000D02*
X147641000Y-74728000D01*
X149031000Y-74853000D02*
X149031000Y-74728000D01*
X147641000Y-74853000D02*
X147727724Y-74853000D01*
X148944276Y-74853000D02*
X149031000Y-74853000D01*
X147641000Y-74168000D02*
X147641000Y-73483000D01*
X147641000Y-73483000D02*
X148336000Y-73483000D01*
%TO.C,R1*%
X131616267Y-76833000D02*
X131273733Y-76833000D01*
X131616267Y-77853000D02*
X131273733Y-77853000D01*
%TO.C,SB1*%
X143549267Y-79504000D02*
X143206733Y-79504000D01*
X143549267Y-78484000D02*
X143206733Y-78484000D01*
%TO.C,SB2*%
X135126000Y-78568733D02*
X135126000Y-78911267D01*
X136146000Y-78568733D02*
X136146000Y-78911267D01*
%TO.C,SB3*%
X139194000Y-78568733D02*
X139194000Y-78911267D01*
X138174000Y-78568733D02*
X138174000Y-78911267D01*
%TO.C,SB4*%
X136650000Y-78568733D02*
X136650000Y-78911267D01*
X137670000Y-78568733D02*
X137670000Y-78911267D01*
%TO.C,U1*%
X138320000Y-85430000D02*
X138770000Y-85430000D01*
X136000000Y-85430000D02*
X135550000Y-85430000D01*
X138770000Y-82210000D02*
X138770000Y-82660000D01*
X136000000Y-82210000D02*
X135550000Y-82210000D01*
X138770000Y-85430000D02*
X138770000Y-84980000D01*
X135550000Y-85430000D02*
X135550000Y-84980000D01*
X138320000Y-82210000D02*
X138770000Y-82210000D01*
%TO.C,SB13*%
D10*
X148994761Y-92162095D02*
X149042380Y-92019238D01*
X149042380Y-91781142D01*
X148994761Y-91685904D01*
X148947142Y-91638285D01*
X148851904Y-91590666D01*
X148756666Y-91590666D01*
X148661428Y-91638285D01*
X148613809Y-91685904D01*
X148566190Y-91781142D01*
X148518571Y-91971619D01*
X148470952Y-92066857D01*
X148423333Y-92114476D01*
X148328095Y-92162095D01*
X148232857Y-92162095D01*
X148137619Y-92114476D01*
X148090000Y-92066857D01*
X148042380Y-91971619D01*
X148042380Y-91733523D01*
X148090000Y-91590666D01*
X148518571Y-90828761D02*
X148566190Y-90685904D01*
X148613809Y-90638285D01*
X148709047Y-90590666D01*
X148851904Y-90590666D01*
X148947142Y-90638285D01*
X148994761Y-90685904D01*
X149042380Y-90781142D01*
X149042380Y-91162095D01*
X148042380Y-91162095D01*
X148042380Y-90828761D01*
X148090000Y-90733523D01*
X148137619Y-90685904D01*
X148232857Y-90638285D01*
X148328095Y-90638285D01*
X148423333Y-90685904D01*
X148470952Y-90733523D01*
X148518571Y-90828761D01*
X148518571Y-91162095D01*
X149042380Y-89638285D02*
X149042380Y-90209714D01*
X149042380Y-89924000D02*
X148042380Y-89924000D01*
X148185238Y-90019238D01*
X148280476Y-90114476D01*
X148328095Y-90209714D01*
X148042380Y-89304952D02*
X148042380Y-88685904D01*
X148423333Y-89019238D01*
X148423333Y-88876380D01*
X148470952Y-88781142D01*
X148518571Y-88733523D01*
X148613809Y-88685904D01*
X148851904Y-88685904D01*
X148947142Y-88733523D01*
X148994761Y-88781142D01*
X149042380Y-88876380D01*
X149042380Y-89162095D01*
X148994761Y-89257333D01*
X148947142Y-89304952D01*
%TO.C,SB12*%
X143549904Y-88288761D02*
X143692761Y-88336380D01*
X143930857Y-88336380D01*
X144026095Y-88288761D01*
X144073714Y-88241142D01*
X144121333Y-88145904D01*
X144121333Y-88050666D01*
X144073714Y-87955428D01*
X144026095Y-87907809D01*
X143930857Y-87860190D01*
X143740380Y-87812571D01*
X143645142Y-87764952D01*
X143597523Y-87717333D01*
X143549904Y-87622095D01*
X143549904Y-87526857D01*
X143597523Y-87431619D01*
X143645142Y-87384000D01*
X143740380Y-87336380D01*
X143978476Y-87336380D01*
X144121333Y-87384000D01*
X144883238Y-87812571D02*
X145026095Y-87860190D01*
X145073714Y-87907809D01*
X145121333Y-88003047D01*
X145121333Y-88145904D01*
X145073714Y-88241142D01*
X145026095Y-88288761D01*
X144930857Y-88336380D01*
X144549904Y-88336380D01*
X144549904Y-87336380D01*
X144883238Y-87336380D01*
X144978476Y-87384000D01*
X145026095Y-87431619D01*
X145073714Y-87526857D01*
X145073714Y-87622095D01*
X145026095Y-87717333D01*
X144978476Y-87764952D01*
X144883238Y-87812571D01*
X144549904Y-87812571D01*
X146073714Y-88336380D02*
X145502285Y-88336380D01*
X145788000Y-88336380D02*
X145788000Y-87336380D01*
X145692761Y-87479238D01*
X145597523Y-87574476D01*
X145502285Y-87622095D01*
X146454666Y-87431619D02*
X146502285Y-87384000D01*
X146597523Y-87336380D01*
X146835619Y-87336380D01*
X146930857Y-87384000D01*
X146978476Y-87431619D01*
X147026095Y-87526857D01*
X147026095Y-87622095D01*
X146978476Y-87764952D01*
X146407047Y-88336380D01*
X147026095Y-88336380D01*
%TO.C,SB11*%
X142390761Y-92162095D02*
X142438380Y-92019238D01*
X142438380Y-91781142D01*
X142390761Y-91685904D01*
X142343142Y-91638285D01*
X142247904Y-91590666D01*
X142152666Y-91590666D01*
X142057428Y-91638285D01*
X142009809Y-91685904D01*
X141962190Y-91781142D01*
X141914571Y-91971619D01*
X141866952Y-92066857D01*
X141819333Y-92114476D01*
X141724095Y-92162095D01*
X141628857Y-92162095D01*
X141533619Y-92114476D01*
X141486000Y-92066857D01*
X141438380Y-91971619D01*
X141438380Y-91733523D01*
X141486000Y-91590666D01*
X141914571Y-90828761D02*
X141962190Y-90685904D01*
X142009809Y-90638285D01*
X142105047Y-90590666D01*
X142247904Y-90590666D01*
X142343142Y-90638285D01*
X142390761Y-90685904D01*
X142438380Y-90781142D01*
X142438380Y-91162095D01*
X141438380Y-91162095D01*
X141438380Y-90828761D01*
X141486000Y-90733523D01*
X141533619Y-90685904D01*
X141628857Y-90638285D01*
X141724095Y-90638285D01*
X141819333Y-90685904D01*
X141866952Y-90733523D01*
X141914571Y-90828761D01*
X141914571Y-91162095D01*
X142438380Y-89638285D02*
X142438380Y-90209714D01*
X142438380Y-89924000D02*
X141438380Y-89924000D01*
X141581238Y-90019238D01*
X141676476Y-90114476D01*
X141724095Y-90209714D01*
X142438380Y-88685904D02*
X142438380Y-89257333D01*
X142438380Y-88971619D02*
X141438380Y-88971619D01*
X141581238Y-89066857D01*
X141676476Y-89162095D01*
X141724095Y-89257333D01*
%TO.C,SB10*%
X140866761Y-92162095D02*
X140914380Y-92019238D01*
X140914380Y-91781142D01*
X140866761Y-91685904D01*
X140819142Y-91638285D01*
X140723904Y-91590666D01*
X140628666Y-91590666D01*
X140533428Y-91638285D01*
X140485809Y-91685904D01*
X140438190Y-91781142D01*
X140390571Y-91971619D01*
X140342952Y-92066857D01*
X140295333Y-92114476D01*
X140200095Y-92162095D01*
X140104857Y-92162095D01*
X140009619Y-92114476D01*
X139962000Y-92066857D01*
X139914380Y-91971619D01*
X139914380Y-91733523D01*
X139962000Y-91590666D01*
X140390571Y-90828761D02*
X140438190Y-90685904D01*
X140485809Y-90638285D01*
X140581047Y-90590666D01*
X140723904Y-90590666D01*
X140819142Y-90638285D01*
X140866761Y-90685904D01*
X140914380Y-90781142D01*
X140914380Y-91162095D01*
X139914380Y-91162095D01*
X139914380Y-90828761D01*
X139962000Y-90733523D01*
X140009619Y-90685904D01*
X140104857Y-90638285D01*
X140200095Y-90638285D01*
X140295333Y-90685904D01*
X140342952Y-90733523D01*
X140390571Y-90828761D01*
X140390571Y-91162095D01*
X140914380Y-89638285D02*
X140914380Y-90209714D01*
X140914380Y-89924000D02*
X139914380Y-89924000D01*
X140057238Y-90019238D01*
X140152476Y-90114476D01*
X140200095Y-90209714D01*
X139914380Y-89019238D02*
X139914380Y-88924000D01*
X139962000Y-88828761D01*
X140009619Y-88781142D01*
X140104857Y-88733523D01*
X140295333Y-88685904D01*
X140533428Y-88685904D01*
X140723904Y-88733523D01*
X140819142Y-88781142D01*
X140866761Y-88828761D01*
X140914380Y-88924000D01*
X140914380Y-89019238D01*
X140866761Y-89114476D01*
X140819142Y-89162095D01*
X140723904Y-89209714D01*
X140533428Y-89257333D01*
X140295333Y-89257333D01*
X140104857Y-89209714D01*
X140009619Y-89162095D01*
X139962000Y-89114476D01*
X139914380Y-89019238D01*
%TO.C,SB9*%
X135898095Y-88288761D02*
X136040952Y-88336380D01*
X136279047Y-88336380D01*
X136374285Y-88288761D01*
X136421904Y-88241142D01*
X136469523Y-88145904D01*
X136469523Y-88050666D01*
X136421904Y-87955428D01*
X136374285Y-87907809D01*
X136279047Y-87860190D01*
X136088571Y-87812571D01*
X135993333Y-87764952D01*
X135945714Y-87717333D01*
X135898095Y-87622095D01*
X135898095Y-87526857D01*
X135945714Y-87431619D01*
X135993333Y-87384000D01*
X136088571Y-87336380D01*
X136326666Y-87336380D01*
X136469523Y-87384000D01*
X137231428Y-87812571D02*
X137374285Y-87860190D01*
X137421904Y-87907809D01*
X137469523Y-88003047D01*
X137469523Y-88145904D01*
X137421904Y-88241142D01*
X137374285Y-88288761D01*
X137279047Y-88336380D01*
X136898095Y-88336380D01*
X136898095Y-87336380D01*
X137231428Y-87336380D01*
X137326666Y-87384000D01*
X137374285Y-87431619D01*
X137421904Y-87526857D01*
X137421904Y-87622095D01*
X137374285Y-87717333D01*
X137326666Y-87764952D01*
X137231428Y-87812571D01*
X136898095Y-87812571D01*
X137945714Y-88336380D02*
X138136190Y-88336380D01*
X138231428Y-88288761D01*
X138279047Y-88241142D01*
X138374285Y-88098285D01*
X138421904Y-87907809D01*
X138421904Y-87526857D01*
X138374285Y-87431619D01*
X138326666Y-87384000D01*
X138231428Y-87336380D01*
X138040952Y-87336380D01*
X137945714Y-87384000D01*
X137898095Y-87431619D01*
X137850476Y-87526857D01*
X137850476Y-87764952D01*
X137898095Y-87860190D01*
X137945714Y-87907809D01*
X138040952Y-87955428D01*
X138231428Y-87955428D01*
X138326666Y-87907809D01*
X138374285Y-87860190D01*
X138421904Y-87764952D01*
%TO.C,SB8*%
X134262761Y-91685904D02*
X134310380Y-91543047D01*
X134310380Y-91304952D01*
X134262761Y-91209714D01*
X134215142Y-91162095D01*
X134119904Y-91114476D01*
X134024666Y-91114476D01*
X133929428Y-91162095D01*
X133881809Y-91209714D01*
X133834190Y-91304952D01*
X133786571Y-91495428D01*
X133738952Y-91590666D01*
X133691333Y-91638285D01*
X133596095Y-91685904D01*
X133500857Y-91685904D01*
X133405619Y-91638285D01*
X133358000Y-91590666D01*
X133310380Y-91495428D01*
X133310380Y-91257333D01*
X133358000Y-91114476D01*
X133786571Y-90352571D02*
X133834190Y-90209714D01*
X133881809Y-90162095D01*
X133977047Y-90114476D01*
X134119904Y-90114476D01*
X134215142Y-90162095D01*
X134262761Y-90209714D01*
X134310380Y-90304952D01*
X134310380Y-90685904D01*
X133310380Y-90685904D01*
X133310380Y-90352571D01*
X133358000Y-90257333D01*
X133405619Y-90209714D01*
X133500857Y-90162095D01*
X133596095Y-90162095D01*
X133691333Y-90209714D01*
X133738952Y-90257333D01*
X133786571Y-90352571D01*
X133786571Y-90685904D01*
X133738952Y-89543047D02*
X133691333Y-89638285D01*
X133643714Y-89685904D01*
X133548476Y-89733523D01*
X133500857Y-89733523D01*
X133405619Y-89685904D01*
X133358000Y-89638285D01*
X133310380Y-89543047D01*
X133310380Y-89352571D01*
X133358000Y-89257333D01*
X133405619Y-89209714D01*
X133500857Y-89162095D01*
X133548476Y-89162095D01*
X133643714Y-89209714D01*
X133691333Y-89257333D01*
X133738952Y-89352571D01*
X133738952Y-89543047D01*
X133786571Y-89638285D01*
X133834190Y-89685904D01*
X133929428Y-89733523D01*
X134119904Y-89733523D01*
X134215142Y-89685904D01*
X134262761Y-89638285D01*
X134310380Y-89543047D01*
X134310380Y-89352571D01*
X134262761Y-89257333D01*
X134215142Y-89209714D01*
X134119904Y-89162095D01*
X133929428Y-89162095D01*
X133834190Y-89209714D01*
X133786571Y-89257333D01*
X133738952Y-89352571D01*
%TO.C,SB7*%
X132738761Y-91685904D02*
X132786380Y-91543047D01*
X132786380Y-91304952D01*
X132738761Y-91209714D01*
X132691142Y-91162095D01*
X132595904Y-91114476D01*
X132500666Y-91114476D01*
X132405428Y-91162095D01*
X132357809Y-91209714D01*
X132310190Y-91304952D01*
X132262571Y-91495428D01*
X132214952Y-91590666D01*
X132167333Y-91638285D01*
X132072095Y-91685904D01*
X131976857Y-91685904D01*
X131881619Y-91638285D01*
X131834000Y-91590666D01*
X131786380Y-91495428D01*
X131786380Y-91257333D01*
X131834000Y-91114476D01*
X132262571Y-90352571D02*
X132310190Y-90209714D01*
X132357809Y-90162095D01*
X132453047Y-90114476D01*
X132595904Y-90114476D01*
X132691142Y-90162095D01*
X132738761Y-90209714D01*
X132786380Y-90304952D01*
X132786380Y-90685904D01*
X131786380Y-90685904D01*
X131786380Y-90352571D01*
X131834000Y-90257333D01*
X131881619Y-90209714D01*
X131976857Y-90162095D01*
X132072095Y-90162095D01*
X132167333Y-90209714D01*
X132214952Y-90257333D01*
X132262571Y-90352571D01*
X132262571Y-90685904D01*
X131786380Y-89781142D02*
X131786380Y-89114476D01*
X132786380Y-89543047D01*
%TO.C,SB6*%
X127770095Y-88288761D02*
X127912952Y-88336380D01*
X128151047Y-88336380D01*
X128246285Y-88288761D01*
X128293904Y-88241142D01*
X128341523Y-88145904D01*
X128341523Y-88050666D01*
X128293904Y-87955428D01*
X128246285Y-87907809D01*
X128151047Y-87860190D01*
X127960571Y-87812571D01*
X127865333Y-87764952D01*
X127817714Y-87717333D01*
X127770095Y-87622095D01*
X127770095Y-87526857D01*
X127817714Y-87431619D01*
X127865333Y-87384000D01*
X127960571Y-87336380D01*
X128198666Y-87336380D01*
X128341523Y-87384000D01*
X129103428Y-87812571D02*
X129246285Y-87860190D01*
X129293904Y-87907809D01*
X129341523Y-88003047D01*
X129341523Y-88145904D01*
X129293904Y-88241142D01*
X129246285Y-88288761D01*
X129151047Y-88336380D01*
X128770095Y-88336380D01*
X128770095Y-87336380D01*
X129103428Y-87336380D01*
X129198666Y-87384000D01*
X129246285Y-87431619D01*
X129293904Y-87526857D01*
X129293904Y-87622095D01*
X129246285Y-87717333D01*
X129198666Y-87764952D01*
X129103428Y-87812571D01*
X128770095Y-87812571D01*
X130198666Y-87336380D02*
X130008190Y-87336380D01*
X129912952Y-87384000D01*
X129865333Y-87431619D01*
X129770095Y-87574476D01*
X129722476Y-87764952D01*
X129722476Y-88145904D01*
X129770095Y-88241142D01*
X129817714Y-88288761D01*
X129912952Y-88336380D01*
X130103428Y-88336380D01*
X130198666Y-88288761D01*
X130246285Y-88241142D01*
X130293904Y-88145904D01*
X130293904Y-87907809D01*
X130246285Y-87812571D01*
X130198666Y-87764952D01*
X130103428Y-87717333D01*
X129912952Y-87717333D01*
X129817714Y-87764952D01*
X129770095Y-87812571D01*
X129722476Y-87907809D01*
%TO.C,SB5*%
X126134761Y-91685904D02*
X126182380Y-91543047D01*
X126182380Y-91304952D01*
X126134761Y-91209714D01*
X126087142Y-91162095D01*
X125991904Y-91114476D01*
X125896666Y-91114476D01*
X125801428Y-91162095D01*
X125753809Y-91209714D01*
X125706190Y-91304952D01*
X125658571Y-91495428D01*
X125610952Y-91590666D01*
X125563333Y-91638285D01*
X125468095Y-91685904D01*
X125372857Y-91685904D01*
X125277619Y-91638285D01*
X125230000Y-91590666D01*
X125182380Y-91495428D01*
X125182380Y-91257333D01*
X125230000Y-91114476D01*
X125658571Y-90352571D02*
X125706190Y-90209714D01*
X125753809Y-90162095D01*
X125849047Y-90114476D01*
X125991904Y-90114476D01*
X126087142Y-90162095D01*
X126134761Y-90209714D01*
X126182380Y-90304952D01*
X126182380Y-90685904D01*
X125182380Y-90685904D01*
X125182380Y-90352571D01*
X125230000Y-90257333D01*
X125277619Y-90209714D01*
X125372857Y-90162095D01*
X125468095Y-90162095D01*
X125563333Y-90209714D01*
X125610952Y-90257333D01*
X125658571Y-90352571D01*
X125658571Y-90685904D01*
X125182380Y-89209714D02*
X125182380Y-89685904D01*
X125658571Y-89733523D01*
X125610952Y-89685904D01*
X125563333Y-89590666D01*
X125563333Y-89352571D01*
X125610952Y-89257333D01*
X125658571Y-89209714D01*
X125753809Y-89162095D01*
X125991904Y-89162095D01*
X126087142Y-89209714D01*
X126134761Y-89257333D01*
X126182380Y-89352571D01*
X126182380Y-89590666D01*
X126134761Y-89685904D01*
X126087142Y-89733523D01*
%TO.C,C1*%
X146137333Y-81129142D02*
X146089714Y-81176761D01*
X145946857Y-81224380D01*
X145851619Y-81224380D01*
X145708761Y-81176761D01*
X145613523Y-81081523D01*
X145565904Y-80986285D01*
X145518285Y-80795809D01*
X145518285Y-80652952D01*
X145565904Y-80462476D01*
X145613523Y-80367238D01*
X145708761Y-80272000D01*
X145851619Y-80224380D01*
X145946857Y-80224380D01*
X146089714Y-80272000D01*
X146137333Y-80319619D01*
X147089714Y-81224380D02*
X146518285Y-81224380D01*
X146804000Y-81224380D02*
X146804000Y-80224380D01*
X146708761Y-80367238D01*
X146613523Y-80462476D01*
X146518285Y-80510095D01*
%TO.C,C2*%
X126893333Y-80795142D02*
X126845714Y-80842761D01*
X126702857Y-80890380D01*
X126607619Y-80890380D01*
X126464761Y-80842761D01*
X126369523Y-80747523D01*
X126321904Y-80652285D01*
X126274285Y-80461809D01*
X126274285Y-80318952D01*
X126321904Y-80128476D01*
X126369523Y-80033238D01*
X126464761Y-79938000D01*
X126607619Y-79890380D01*
X126702857Y-79890380D01*
X126845714Y-79938000D01*
X126893333Y-79985619D01*
X127274285Y-79985619D02*
X127321904Y-79938000D01*
X127417142Y-79890380D01*
X127655238Y-79890380D01*
X127750476Y-79938000D01*
X127798095Y-79985619D01*
X127845714Y-80080857D01*
X127845714Y-80176095D01*
X127798095Y-80318952D01*
X127226666Y-80890380D01*
X127845714Y-80890380D01*
%TO.C,R1*%
X131278333Y-76290380D02*
X130945000Y-75814190D01*
X130706904Y-76290380D02*
X130706904Y-75290380D01*
X131087857Y-75290380D01*
X131183095Y-75338000D01*
X131230714Y-75385619D01*
X131278333Y-75480857D01*
X131278333Y-75623714D01*
X131230714Y-75718952D01*
X131183095Y-75766571D01*
X131087857Y-75814190D01*
X130706904Y-75814190D01*
X132230714Y-76290380D02*
X131659285Y-76290380D01*
X131945000Y-76290380D02*
X131945000Y-75290380D01*
X131849761Y-75433238D01*
X131754523Y-75528476D01*
X131659285Y-75576095D01*
%TO.C,SB1*%
X145550095Y-79398761D02*
X145692952Y-79446380D01*
X145931047Y-79446380D01*
X146026285Y-79398761D01*
X146073904Y-79351142D01*
X146121523Y-79255904D01*
X146121523Y-79160666D01*
X146073904Y-79065428D01*
X146026285Y-79017809D01*
X145931047Y-78970190D01*
X145740571Y-78922571D01*
X145645333Y-78874952D01*
X145597714Y-78827333D01*
X145550095Y-78732095D01*
X145550095Y-78636857D01*
X145597714Y-78541619D01*
X145645333Y-78494000D01*
X145740571Y-78446380D01*
X145978666Y-78446380D01*
X146121523Y-78494000D01*
X146883428Y-78922571D02*
X147026285Y-78970190D01*
X147073904Y-79017809D01*
X147121523Y-79113047D01*
X147121523Y-79255904D01*
X147073904Y-79351142D01*
X147026285Y-79398761D01*
X146931047Y-79446380D01*
X146550095Y-79446380D01*
X146550095Y-78446380D01*
X146883428Y-78446380D01*
X146978666Y-78494000D01*
X147026285Y-78541619D01*
X147073904Y-78636857D01*
X147073904Y-78732095D01*
X147026285Y-78827333D01*
X146978666Y-78874952D01*
X146883428Y-78922571D01*
X146550095Y-78922571D01*
X148073904Y-79446380D02*
X147502476Y-79446380D01*
X147788190Y-79446380D02*
X147788190Y-78446380D01*
X147692952Y-78589238D01*
X147597714Y-78684476D01*
X147502476Y-78732095D01*
%TO.C,SB2*%
X134516761Y-80001904D02*
X134564380Y-79859047D01*
X134564380Y-79620952D01*
X134516761Y-79525714D01*
X134469142Y-79478095D01*
X134373904Y-79430476D01*
X134278666Y-79430476D01*
X134183428Y-79478095D01*
X134135809Y-79525714D01*
X134088190Y-79620952D01*
X134040571Y-79811428D01*
X133992952Y-79906666D01*
X133945333Y-79954285D01*
X133850095Y-80001904D01*
X133754857Y-80001904D01*
X133659619Y-79954285D01*
X133612000Y-79906666D01*
X133564380Y-79811428D01*
X133564380Y-79573333D01*
X133612000Y-79430476D01*
X134040571Y-78668571D02*
X134088190Y-78525714D01*
X134135809Y-78478095D01*
X134231047Y-78430476D01*
X134373904Y-78430476D01*
X134469142Y-78478095D01*
X134516761Y-78525714D01*
X134564380Y-78620952D01*
X134564380Y-79001904D01*
X133564380Y-79001904D01*
X133564380Y-78668571D01*
X133612000Y-78573333D01*
X133659619Y-78525714D01*
X133754857Y-78478095D01*
X133850095Y-78478095D01*
X133945333Y-78525714D01*
X133992952Y-78573333D01*
X134040571Y-78668571D01*
X134040571Y-79001904D01*
X133659619Y-78049523D02*
X133612000Y-78001904D01*
X133564380Y-77906666D01*
X133564380Y-77668571D01*
X133612000Y-77573333D01*
X133659619Y-77525714D01*
X133754857Y-77478095D01*
X133850095Y-77478095D01*
X133992952Y-77525714D01*
X134564380Y-78097142D01*
X134564380Y-77478095D01*
%TO.C,SB3*%
X140612761Y-80001904D02*
X140660380Y-79859047D01*
X140660380Y-79620952D01*
X140612761Y-79525714D01*
X140565142Y-79478095D01*
X140469904Y-79430476D01*
X140374666Y-79430476D01*
X140279428Y-79478095D01*
X140231809Y-79525714D01*
X140184190Y-79620952D01*
X140136571Y-79811428D01*
X140088952Y-79906666D01*
X140041333Y-79954285D01*
X139946095Y-80001904D01*
X139850857Y-80001904D01*
X139755619Y-79954285D01*
X139708000Y-79906666D01*
X139660380Y-79811428D01*
X139660380Y-79573333D01*
X139708000Y-79430476D01*
X140136571Y-78668571D02*
X140184190Y-78525714D01*
X140231809Y-78478095D01*
X140327047Y-78430476D01*
X140469904Y-78430476D01*
X140565142Y-78478095D01*
X140612761Y-78525714D01*
X140660380Y-78620952D01*
X140660380Y-79001904D01*
X139660380Y-79001904D01*
X139660380Y-78668571D01*
X139708000Y-78573333D01*
X139755619Y-78525714D01*
X139850857Y-78478095D01*
X139946095Y-78478095D01*
X140041333Y-78525714D01*
X140088952Y-78573333D01*
X140136571Y-78668571D01*
X140136571Y-79001904D01*
X139660380Y-78097142D02*
X139660380Y-77478095D01*
X140041333Y-77811428D01*
X140041333Y-77668571D01*
X140088952Y-77573333D01*
X140136571Y-77525714D01*
X140231809Y-77478095D01*
X140469904Y-77478095D01*
X140565142Y-77525714D01*
X140612761Y-77573333D01*
X140660380Y-77668571D01*
X140660380Y-77954285D01*
X140612761Y-78049523D01*
X140565142Y-78097142D01*
%TO.C,SB4*%
X135898095Y-76858761D02*
X136040952Y-76906380D01*
X136279047Y-76906380D01*
X136374285Y-76858761D01*
X136421904Y-76811142D01*
X136469523Y-76715904D01*
X136469523Y-76620666D01*
X136421904Y-76525428D01*
X136374285Y-76477809D01*
X136279047Y-76430190D01*
X136088571Y-76382571D01*
X135993333Y-76334952D01*
X135945714Y-76287333D01*
X135898095Y-76192095D01*
X135898095Y-76096857D01*
X135945714Y-76001619D01*
X135993333Y-75954000D01*
X136088571Y-75906380D01*
X136326666Y-75906380D01*
X136469523Y-75954000D01*
X137231428Y-76382571D02*
X137374285Y-76430190D01*
X137421904Y-76477809D01*
X137469523Y-76573047D01*
X137469523Y-76715904D01*
X137421904Y-76811142D01*
X137374285Y-76858761D01*
X137279047Y-76906380D01*
X136898095Y-76906380D01*
X136898095Y-75906380D01*
X137231428Y-75906380D01*
X137326666Y-75954000D01*
X137374285Y-76001619D01*
X137421904Y-76096857D01*
X137421904Y-76192095D01*
X137374285Y-76287333D01*
X137326666Y-76334952D01*
X137231428Y-76382571D01*
X136898095Y-76382571D01*
X138326666Y-76239714D02*
X138326666Y-76906380D01*
X138088571Y-75858761D02*
X137850476Y-76573047D01*
X138469523Y-76573047D01*
%TO.C,U1*%
X133096095Y-81240380D02*
X133096095Y-82049904D01*
X133143714Y-82145142D01*
X133191333Y-82192761D01*
X133286571Y-82240380D01*
X133477047Y-82240380D01*
X133572285Y-82192761D01*
X133619904Y-82145142D01*
X133667523Y-82049904D01*
X133667523Y-81240380D01*
X134667523Y-82240380D02*
X134096095Y-82240380D01*
X134381809Y-82240380D02*
X134381809Y-81240380D01*
X134286571Y-81383238D01*
X134191333Y-81478476D01*
X134096095Y-81526095D01*
%TD*%
M02*
