G04 #@! TF.GenerationSoftware,KiCad,Pcbnew,(5.1.6)-1*
G04 #@! TF.CreationDate,2021-06-16T19:48:32-04:00*
G04 #@! TF.ProjectId,plate_layer_v1,706c6174-655f-46c6-9179-65725f76312e,rev?*
G04 #@! TF.SameCoordinates,Original*
G04 #@! TF.FileFunction,Legend,Top*
G04 #@! TF.FilePolarity,Positive*
%FSLAX46Y46*%
G04 Gerber Fmt 4.6, Leading zero omitted, Abs format (unit mm)*
G04 Created by KiCad (PCBNEW (5.1.6)-1) date 2021-06-16 19:48:32*
%MOMM*%
%LPD*%
G01*
G04 APERTURE LIST*
%ADD10C,0.100000*%
%ADD11C,0.300000*%
%ADD12C,0.010000*%
G04 APERTURE END LIST*
D10*
G36*
X175600000Y-101300000D02*
G01*
X174100000Y-102800000D01*
X174000000Y-102700000D01*
X175500000Y-101200000D01*
X175600000Y-101300000D01*
G37*
X175600000Y-101300000D02*
X174100000Y-102800000D01*
X174000000Y-102700000D01*
X175500000Y-101200000D01*
X175600000Y-101300000D01*
G36*
X175600000Y-102700000D02*
G01*
X175500000Y-102800000D01*
X174000000Y-101300000D01*
X174100000Y-101200000D01*
X175600000Y-102700000D01*
G37*
X175600000Y-102700000D02*
X175500000Y-102800000D01*
X174000000Y-101300000D01*
X174100000Y-101200000D01*
X175600000Y-102700000D01*
G36*
X173500000Y-104000000D02*
G01*
X172200000Y-102700000D01*
X170900000Y-102700000D01*
X170900000Y-101300000D01*
X172200000Y-101300000D01*
X173500000Y-100000000D01*
X173500000Y-104000000D01*
G37*
X173500000Y-104000000D02*
X172200000Y-102700000D01*
X170900000Y-102700000D01*
X170900000Y-101300000D01*
X172200000Y-101300000D01*
X173500000Y-100000000D01*
X173500000Y-104000000D01*
G36*
X144700000Y-116400000D02*
G01*
X144200000Y-116400000D01*
X144200000Y-112400000D01*
X144700000Y-112400000D01*
X144700000Y-116400000D01*
G37*
X144700000Y-116400000D02*
X144200000Y-116400000D01*
X144200000Y-112400000D01*
X144700000Y-112400000D01*
X144700000Y-116400000D01*
G36*
X148900000Y-114400000D02*
G01*
X145400000Y-116400000D01*
X145400000Y-112400000D01*
X148900000Y-114400000D01*
G37*
X148900000Y-114400000D02*
X145400000Y-116400000D01*
X145400000Y-112400000D01*
X148900000Y-114400000D01*
G36*
X163524382Y-116383301D02*
G01*
X163024382Y-116383301D01*
X163024382Y-112383301D01*
X163524382Y-112383301D01*
X163524382Y-116383301D01*
G37*
X163524382Y-116383301D02*
X163024382Y-116383301D01*
X163024382Y-112383301D01*
X163524382Y-112383301D01*
X163524382Y-116383301D01*
G36*
X163324382Y-114383301D02*
G01*
X159824382Y-116383301D01*
X159824382Y-112383301D01*
X163324382Y-114383301D01*
G37*
X163324382Y-114383301D02*
X159824382Y-116383301D01*
X159824382Y-112383301D01*
X163324382Y-114383301D01*
G36*
X130300000Y-116400000D02*
G01*
X129800000Y-116400000D01*
X129800000Y-112400000D01*
X130300000Y-112400000D01*
X130300000Y-116400000D01*
G37*
X130300000Y-116400000D02*
X129800000Y-116400000D01*
X129800000Y-112400000D01*
X130300000Y-112400000D01*
X130300000Y-116400000D01*
G36*
X133500000Y-116400000D02*
G01*
X130000000Y-114400000D01*
X133500000Y-112400000D01*
X133500000Y-116400000D01*
G37*
X133500000Y-116400000D02*
X130000000Y-114400000D01*
X133500000Y-112400000D01*
X133500000Y-116400000D01*
G36*
X118600000Y-116400000D02*
G01*
X114600000Y-116400000D01*
X114600000Y-112400000D01*
X118600000Y-112400000D01*
X118600000Y-116400000D01*
G37*
X118600000Y-116400000D02*
X114600000Y-116400000D01*
X114600000Y-112400000D01*
X118600000Y-112400000D01*
X118600000Y-116400000D01*
D11*
X102928571Y-88178571D02*
X103285714Y-89178571D01*
X103642857Y-88178571D01*
X105000000Y-89178571D02*
X104142857Y-89178571D01*
X104571428Y-89178571D02*
X104571428Y-87678571D01*
X104428571Y-87892857D01*
X104285714Y-88035714D01*
X104142857Y-88107142D01*
D12*
G36*
X195473512Y-87479543D02*
G01*
X195545696Y-87541395D01*
X195562666Y-87630000D01*
X195540025Y-87729414D01*
X195495704Y-87773637D01*
X195364537Y-87798365D01*
X195243470Y-87780530D01*
X195190133Y-87748533D01*
X195140564Y-87652272D01*
X195159569Y-87555894D01*
X195234758Y-87484045D01*
X195334837Y-87460666D01*
X195473512Y-87479543D01*
G37*
X195473512Y-87479543D02*
X195545696Y-87541395D01*
X195562666Y-87630000D01*
X195540025Y-87729414D01*
X195495704Y-87773637D01*
X195364537Y-87798365D01*
X195243470Y-87780530D01*
X195190133Y-87748533D01*
X195140564Y-87652272D01*
X195159569Y-87555894D01*
X195234758Y-87484045D01*
X195334837Y-87460666D01*
X195473512Y-87479543D01*
G36*
X201227422Y-89077776D02*
G01*
X201363827Y-89115706D01*
X201406808Y-89178124D01*
X201413192Y-89261876D01*
X201375000Y-89350958D01*
X201261462Y-89399042D01*
X201220712Y-89399957D01*
X201110776Y-89399094D01*
X201049312Y-89361439D01*
X201017692Y-89305960D01*
X200995341Y-89189136D01*
X201045154Y-89110167D01*
X201160274Y-89076517D01*
X201227422Y-89077776D01*
G37*
X201227422Y-89077776D02*
X201363827Y-89115706D01*
X201406808Y-89178124D01*
X201413192Y-89261876D01*
X201375000Y-89350958D01*
X201261462Y-89399042D01*
X201220712Y-89399957D01*
X201110776Y-89399094D01*
X201049312Y-89361439D01*
X201017692Y-89305960D01*
X200995341Y-89189136D01*
X201045154Y-89110167D01*
X201160274Y-89076517D01*
X201227422Y-89077776D01*
G36*
X200276040Y-87526370D02*
G01*
X200315543Y-87583889D01*
X200337182Y-87690889D01*
X200346103Y-87855772D01*
X200347455Y-88086944D01*
X200346385Y-88392808D01*
X200346333Y-88455500D01*
X200346333Y-89408000D01*
X199923000Y-89408000D01*
X199923000Y-87916458D01*
X199827750Y-87944210D01*
X199716873Y-87971832D01*
X199591783Y-87997528D01*
X199497119Y-88009712D01*
X199462054Y-87984131D01*
X199463177Y-87899681D01*
X199464783Y-87883043D01*
X199475413Y-87814935D01*
X199502148Y-87766065D01*
X199561206Y-87725085D01*
X199668805Y-87680648D01*
X199836418Y-87622996D01*
X199998860Y-87566643D01*
X200122846Y-87526151D01*
X200213523Y-87509925D01*
X200276040Y-87526370D01*
G37*
X200276040Y-87526370D02*
X200315543Y-87583889D01*
X200337182Y-87690889D01*
X200346103Y-87855772D01*
X200347455Y-88086944D01*
X200346385Y-88392808D01*
X200346333Y-88455500D01*
X200346333Y-89408000D01*
X199923000Y-89408000D01*
X199923000Y-87916458D01*
X199827750Y-87944210D01*
X199716873Y-87971832D01*
X199591783Y-87997528D01*
X199497119Y-88009712D01*
X199462054Y-87984131D01*
X199463177Y-87899681D01*
X199464783Y-87883043D01*
X199475413Y-87814935D01*
X199502148Y-87766065D01*
X199561206Y-87725085D01*
X199668805Y-87680648D01*
X199836418Y-87622996D01*
X199998860Y-87566643D01*
X200122846Y-87526151D01*
X200213523Y-87509925D01*
X200276040Y-87526370D01*
G36*
X199177479Y-88018153D02*
G01*
X199233942Y-88041289D01*
X199235748Y-88063916D01*
X199215964Y-88120317D01*
X199173587Y-88241885D01*
X199113778Y-88413797D01*
X199041693Y-88621229D01*
X198992668Y-88762416D01*
X198768564Y-89408000D01*
X198409459Y-89408000D01*
X198171396Y-88734411D01*
X198092731Y-88510427D01*
X198025031Y-88314977D01*
X197972942Y-88161699D01*
X197941113Y-88064232D01*
X197933333Y-88035911D01*
X197971429Y-88021696D01*
X198068830Y-88012677D01*
X198145000Y-88011000D01*
X198275515Y-88019653D01*
X198347827Y-88043000D01*
X198356666Y-88057794D01*
X198368391Y-88117136D01*
X198399732Y-88235975D01*
X198444941Y-88393031D01*
X198467297Y-88467292D01*
X198519437Y-88633159D01*
X198559118Y-88731275D01*
X198593186Y-88758944D01*
X198628487Y-88713473D01*
X198671866Y-88592166D01*
X198730170Y-88392330D01*
X198739257Y-88360250D01*
X198838124Y-88011000D01*
X199046424Y-88011000D01*
X199177479Y-88018153D01*
G37*
X199177479Y-88018153D02*
X199233942Y-88041289D01*
X199235748Y-88063916D01*
X199215964Y-88120317D01*
X199173587Y-88241885D01*
X199113778Y-88413797D01*
X199041693Y-88621229D01*
X198992668Y-88762416D01*
X198768564Y-89408000D01*
X198409459Y-89408000D01*
X198171396Y-88734411D01*
X198092731Y-88510427D01*
X198025031Y-88314977D01*
X197972942Y-88161699D01*
X197941113Y-88064232D01*
X197933333Y-88035911D01*
X197971429Y-88021696D01*
X198068830Y-88012677D01*
X198145000Y-88011000D01*
X198275515Y-88019653D01*
X198347827Y-88043000D01*
X198356666Y-88057794D01*
X198368391Y-88117136D01*
X198399732Y-88235975D01*
X198444941Y-88393031D01*
X198467297Y-88467292D01*
X198519437Y-88633159D01*
X198559118Y-88731275D01*
X198593186Y-88758944D01*
X198628487Y-88713473D01*
X198671866Y-88592166D01*
X198730170Y-88392330D01*
X198739257Y-88360250D01*
X198838124Y-88011000D01*
X199046424Y-88011000D01*
X199177479Y-88018153D01*
G36*
X195562666Y-89408000D02*
G01*
X195139333Y-89408000D01*
X195139333Y-88011000D01*
X195562666Y-88011000D01*
X195562666Y-89408000D01*
G37*
X195562666Y-89408000D02*
X195139333Y-89408000D01*
X195139333Y-88011000D01*
X195562666Y-88011000D01*
X195562666Y-89408000D01*
G36*
X190506334Y-88160438D02*
G01*
X190593330Y-88386375D01*
X190669243Y-88568891D01*
X190729504Y-88697938D01*
X190769541Y-88763468D01*
X190782444Y-88767426D01*
X190807438Y-88711690D01*
X190855603Y-88591610D01*
X190921032Y-88422362D01*
X190997816Y-88219118D01*
X191038435Y-88109988D01*
X191263247Y-87503000D01*
X191795000Y-87503000D01*
X191795000Y-89408000D01*
X191371666Y-89408000D01*
X191369703Y-88825916D01*
X191367739Y-88243833D01*
X191147453Y-88827279D01*
X190927166Y-89410726D01*
X190759521Y-89398779D01*
X190591875Y-89386833D01*
X190378521Y-88822430D01*
X190165166Y-88258027D01*
X190153388Y-88833013D01*
X190141610Y-89408000D01*
X189763000Y-89408000D01*
X189763000Y-87503000D01*
X190261403Y-87503000D01*
X190506334Y-88160438D01*
G37*
X190506334Y-88160438D02*
X190593330Y-88386375D01*
X190669243Y-88568891D01*
X190729504Y-88697938D01*
X190769541Y-88763468D01*
X190782444Y-88767426D01*
X190807438Y-88711690D01*
X190855603Y-88591610D01*
X190921032Y-88422362D01*
X190997816Y-88219118D01*
X191038435Y-88109988D01*
X191263247Y-87503000D01*
X191795000Y-87503000D01*
X191795000Y-89408000D01*
X191371666Y-89408000D01*
X191369703Y-88825916D01*
X191367739Y-88243833D01*
X191147453Y-88827279D01*
X190927166Y-89410726D01*
X190759521Y-89398779D01*
X190591875Y-89386833D01*
X190378521Y-88822430D01*
X190165166Y-88258027D01*
X190153388Y-88833013D01*
X190141610Y-89408000D01*
X189763000Y-89408000D01*
X189763000Y-87503000D01*
X190261403Y-87503000D01*
X190506334Y-88160438D01*
G36*
X188747000Y-87611723D02*
G01*
X188721606Y-87691467D01*
X188647733Y-87832164D01*
X188528846Y-88027905D01*
X188368408Y-88272781D01*
X188302858Y-88369326D01*
X188160370Y-88579051D01*
X188033968Y-88768037D01*
X187931759Y-88923929D01*
X187861846Y-89034370D01*
X187832662Y-89086103D01*
X187830207Y-89115302D01*
X187858115Y-89134794D01*
X187929370Y-89146473D01*
X188056954Y-89152233D01*
X188253850Y-89153968D01*
X188297970Y-89154000D01*
X188789333Y-89154000D01*
X188789333Y-89408000D01*
X187307666Y-89408000D01*
X187307666Y-89281193D01*
X187323875Y-89208674D01*
X187375328Y-89098152D01*
X187466267Y-88942333D01*
X187600933Y-88733923D01*
X187773333Y-88480434D01*
X187917470Y-88270605D01*
X188043468Y-88084852D01*
X188143941Y-87934253D01*
X188211504Y-87829890D01*
X188238773Y-87782842D01*
X188239000Y-87781740D01*
X188199517Y-87771798D01*
X188092460Y-87763764D01*
X187934916Y-87758544D01*
X187773333Y-87757000D01*
X187307666Y-87757000D01*
X187307666Y-87503000D01*
X188747000Y-87503000D01*
X188747000Y-87611723D01*
G37*
X188747000Y-87611723D02*
X188721606Y-87691467D01*
X188647733Y-87832164D01*
X188528846Y-88027905D01*
X188368408Y-88272781D01*
X188302858Y-88369326D01*
X188160370Y-88579051D01*
X188033968Y-88768037D01*
X187931759Y-88923929D01*
X187861846Y-89034370D01*
X187832662Y-89086103D01*
X187830207Y-89115302D01*
X187858115Y-89134794D01*
X187929370Y-89146473D01*
X188056954Y-89152233D01*
X188253850Y-89153968D01*
X188297970Y-89154000D01*
X188789333Y-89154000D01*
X188789333Y-89408000D01*
X187307666Y-89408000D01*
X187307666Y-89281193D01*
X187323875Y-89208674D01*
X187375328Y-89098152D01*
X187466267Y-88942333D01*
X187600933Y-88733923D01*
X187773333Y-88480434D01*
X187917470Y-88270605D01*
X188043468Y-88084852D01*
X188143941Y-87934253D01*
X188211504Y-87829890D01*
X188238773Y-87782842D01*
X188239000Y-87781740D01*
X188199517Y-87771798D01*
X188092460Y-87763764D01*
X187934916Y-87758544D01*
X187773333Y-87757000D01*
X187307666Y-87757000D01*
X187307666Y-87503000D01*
X188747000Y-87503000D01*
X188747000Y-87611723D01*
G36*
X186834742Y-88427679D02*
G01*
X186932758Y-88690828D01*
X187019994Y-88927227D01*
X187092302Y-89125453D01*
X187145532Y-89274084D01*
X187175537Y-89361697D01*
X187180666Y-89380179D01*
X187142644Y-89396277D01*
X187045744Y-89406322D01*
X186975875Y-89408000D01*
X186771085Y-89408000D01*
X186691942Y-89175166D01*
X186612800Y-88942333D01*
X185968462Y-88942333D01*
X185895067Y-89175166D01*
X185821673Y-89408000D01*
X185609066Y-89408000D01*
X185474402Y-89400612D01*
X185414285Y-89376832D01*
X185410145Y-89354164D01*
X185428479Y-89300414D01*
X185472302Y-89179502D01*
X185537167Y-89003461D01*
X185618628Y-88784326D01*
X185666424Y-88656583D01*
X186079991Y-88656583D01*
X186118085Y-88674698D01*
X186215472Y-88686193D01*
X186291666Y-88688333D01*
X186412532Y-88682617D01*
X186489364Y-88668004D01*
X186503761Y-88656583D01*
X186490599Y-88595050D01*
X186456462Y-88487747D01*
X186410610Y-88359434D01*
X186362300Y-88234874D01*
X186320791Y-88138829D01*
X186295340Y-88096060D01*
X186294042Y-88095666D01*
X186270494Y-88131709D01*
X186229553Y-88223391D01*
X186180633Y-88346038D01*
X186133149Y-88474981D01*
X186096516Y-88585545D01*
X186080150Y-88653061D01*
X186079991Y-88656583D01*
X185666424Y-88656583D01*
X185712240Y-88534134D01*
X185762020Y-88401664D01*
X186100207Y-87503000D01*
X186488819Y-87503000D01*
X186834742Y-88427679D01*
G37*
X186834742Y-88427679D02*
X186932758Y-88690828D01*
X187019994Y-88927227D01*
X187092302Y-89125453D01*
X187145532Y-89274084D01*
X187175537Y-89361697D01*
X187180666Y-89380179D01*
X187142644Y-89396277D01*
X187045744Y-89406322D01*
X186975875Y-89408000D01*
X186771085Y-89408000D01*
X186691942Y-89175166D01*
X186612800Y-88942333D01*
X185968462Y-88942333D01*
X185895067Y-89175166D01*
X185821673Y-89408000D01*
X185609066Y-89408000D01*
X185474402Y-89400612D01*
X185414285Y-89376832D01*
X185410145Y-89354164D01*
X185428479Y-89300414D01*
X185472302Y-89179502D01*
X185537167Y-89003461D01*
X185618628Y-88784326D01*
X185666424Y-88656583D01*
X186079991Y-88656583D01*
X186118085Y-88674698D01*
X186215472Y-88686193D01*
X186291666Y-88688333D01*
X186412532Y-88682617D01*
X186489364Y-88668004D01*
X186503761Y-88656583D01*
X186490599Y-88595050D01*
X186456462Y-88487747D01*
X186410610Y-88359434D01*
X186362300Y-88234874D01*
X186320791Y-88138829D01*
X186295340Y-88096060D01*
X186294042Y-88095666D01*
X186270494Y-88131709D01*
X186229553Y-88223391D01*
X186180633Y-88346038D01*
X186133149Y-88474981D01*
X186096516Y-88585545D01*
X186080150Y-88653061D01*
X186079991Y-88656583D01*
X185666424Y-88656583D01*
X185712240Y-88534134D01*
X185762020Y-88401664D01*
X186100207Y-87503000D01*
X186488819Y-87503000D01*
X186834742Y-88427679D01*
G36*
X202658259Y-87525412D02*
G01*
X202756436Y-87564483D01*
X202793630Y-87586339D01*
X202903515Y-87674093D01*
X202982147Y-87787424D01*
X203033919Y-87940239D01*
X203063225Y-88146446D01*
X203074457Y-88419953D01*
X203074896Y-88476666D01*
X203073481Y-88700908D01*
X203065363Y-88861035D01*
X203047873Y-88977502D01*
X203018341Y-89070764D01*
X202989261Y-89132833D01*
X202856483Y-89303087D01*
X202670353Y-89410170D01*
X202438123Y-89450033D01*
X202420666Y-89450201D01*
X202264001Y-89432771D01*
X202114267Y-89389549D01*
X202084905Y-89376184D01*
X201945917Y-89270595D01*
X201846822Y-89111155D01*
X201783609Y-88888860D01*
X201754488Y-88634246D01*
X201753213Y-88294202D01*
X201766575Y-88198481D01*
X202168985Y-88198481D01*
X202170850Y-88381548D01*
X202174006Y-88511500D01*
X202180834Y-88731639D01*
X202189619Y-88883320D01*
X202203416Y-88982744D01*
X202225273Y-89046113D01*
X202258245Y-89089629D01*
X202287773Y-89115501D01*
X202379016Y-89179936D01*
X202446996Y-89186198D01*
X202529955Y-89134272D01*
X202553560Y-89115406D01*
X202594473Y-89078047D01*
X202622371Y-89033657D01*
X202639739Y-88966563D01*
X202649060Y-88861092D01*
X202652818Y-88701570D01*
X202653500Y-88484851D01*
X202652107Y-88253985D01*
X202646598Y-88091957D01*
X202634980Y-87982968D01*
X202615255Y-87911216D01*
X202585431Y-87860900D01*
X202572855Y-87846111D01*
X202466481Y-87769028D01*
X202361372Y-87776139D01*
X202255159Y-87867639D01*
X202251162Y-87872665D01*
X202212999Y-87927704D01*
X202187973Y-87988835D01*
X202173997Y-88073336D01*
X202168985Y-88198481D01*
X201766575Y-88198481D01*
X201793388Y-88006421D01*
X201873195Y-87779785D01*
X201953769Y-87659908D01*
X202025918Y-87588109D01*
X202099784Y-87546313D01*
X202203043Y-87524578D01*
X202362790Y-87512993D01*
X202537159Y-87509971D01*
X202658259Y-87525412D01*
G37*
X202658259Y-87525412D02*
X202756436Y-87564483D01*
X202793630Y-87586339D01*
X202903515Y-87674093D01*
X202982147Y-87787424D01*
X203033919Y-87940239D01*
X203063225Y-88146446D01*
X203074457Y-88419953D01*
X203074896Y-88476666D01*
X203073481Y-88700908D01*
X203065363Y-88861035D01*
X203047873Y-88977502D01*
X203018341Y-89070764D01*
X202989261Y-89132833D01*
X202856483Y-89303087D01*
X202670353Y-89410170D01*
X202438123Y-89450033D01*
X202420666Y-89450201D01*
X202264001Y-89432771D01*
X202114267Y-89389549D01*
X202084905Y-89376184D01*
X201945917Y-89270595D01*
X201846822Y-89111155D01*
X201783609Y-88888860D01*
X201754488Y-88634246D01*
X201753213Y-88294202D01*
X201766575Y-88198481D01*
X202168985Y-88198481D01*
X202170850Y-88381548D01*
X202174006Y-88511500D01*
X202180834Y-88731639D01*
X202189619Y-88883320D01*
X202203416Y-88982744D01*
X202225273Y-89046113D01*
X202258245Y-89089629D01*
X202287773Y-89115501D01*
X202379016Y-89179936D01*
X202446996Y-89186198D01*
X202529955Y-89134272D01*
X202553560Y-89115406D01*
X202594473Y-89078047D01*
X202622371Y-89033657D01*
X202639739Y-88966563D01*
X202649060Y-88861092D01*
X202652818Y-88701570D01*
X202653500Y-88484851D01*
X202652107Y-88253985D01*
X202646598Y-88091957D01*
X202634980Y-87982968D01*
X202615255Y-87911216D01*
X202585431Y-87860900D01*
X202572855Y-87846111D01*
X202466481Y-87769028D01*
X202361372Y-87776139D01*
X202255159Y-87867639D01*
X202251162Y-87872665D01*
X202212999Y-87927704D01*
X202187973Y-87988835D01*
X202173997Y-88073336D01*
X202168985Y-88198481D01*
X201766575Y-88198481D01*
X201793388Y-88006421D01*
X201873195Y-87779785D01*
X201953769Y-87659908D01*
X202025918Y-87588109D01*
X202099784Y-87546313D01*
X202203043Y-87524578D01*
X202362790Y-87512993D01*
X202537159Y-87509971D01*
X202658259Y-87525412D01*
G36*
X196628397Y-87991545D02*
G01*
X196738121Y-88001443D01*
X196810995Y-88026665D01*
X196870927Y-88074352D01*
X196920805Y-88128084D01*
X196974439Y-88191523D01*
X197009779Y-88251112D01*
X197030665Y-88325848D01*
X197040940Y-88434727D01*
X197044443Y-88596745D01*
X197044911Y-88741917D01*
X197047419Y-88943780D01*
X197053764Y-89122287D01*
X197062924Y-89255582D01*
X197071648Y-89315170D01*
X197081142Y-89369593D01*
X197060400Y-89398765D01*
X196991550Y-89410502D01*
X196856722Y-89412620D01*
X196848820Y-89412614D01*
X196657634Y-89416160D01*
X196454389Y-89425420D01*
X196367000Y-89431511D01*
X196165447Y-89430777D01*
X196022793Y-89388374D01*
X196018814Y-89386189D01*
X195889311Y-89279386D01*
X195826390Y-89132922D01*
X195816666Y-89018035D01*
X195825805Y-88973150D01*
X196197666Y-88973150D01*
X196226945Y-89060196D01*
X196294955Y-89145361D01*
X196371961Y-89193961D01*
X196389018Y-89196333D01*
X196455371Y-89171948D01*
X196546345Y-89112830D01*
X196551790Y-89108594D01*
X196645182Y-88991745D01*
X196663333Y-88896927D01*
X196653847Y-88811696D01*
X196607912Y-88778233D01*
X196524586Y-88773000D01*
X196386651Y-88796322D01*
X196271690Y-88855921D01*
X196205102Y-88936247D01*
X196197666Y-88973150D01*
X195825805Y-88973150D01*
X195853557Y-88836854D01*
X195960407Y-88697854D01*
X196131480Y-88605287D01*
X196361041Y-88563401D01*
X196432987Y-88561333D01*
X196672511Y-88561333D01*
X196643352Y-88445153D01*
X196606311Y-88339576D01*
X196570079Y-88275820D01*
X196482684Y-88227925D01*
X196374090Y-88234509D01*
X196284116Y-88291353D01*
X196272508Y-88307333D01*
X196213640Y-88363639D01*
X196113382Y-88388518D01*
X196022113Y-88392000D01*
X195902776Y-88387800D01*
X195848997Y-88369453D01*
X195841849Y-88328334D01*
X195845620Y-88311589D01*
X195888816Y-88231458D01*
X195969561Y-88133569D01*
X195992604Y-88110506D01*
X196062540Y-88049792D01*
X196131787Y-88013753D01*
X196224886Y-87996023D01*
X196366380Y-87990237D01*
X196457918Y-87989833D01*
X196628397Y-87991545D01*
G37*
X196628397Y-87991545D02*
X196738121Y-88001443D01*
X196810995Y-88026665D01*
X196870927Y-88074352D01*
X196920805Y-88128084D01*
X196974439Y-88191523D01*
X197009779Y-88251112D01*
X197030665Y-88325848D01*
X197040940Y-88434727D01*
X197044443Y-88596745D01*
X197044911Y-88741917D01*
X197047419Y-88943780D01*
X197053764Y-89122287D01*
X197062924Y-89255582D01*
X197071648Y-89315170D01*
X197081142Y-89369593D01*
X197060400Y-89398765D01*
X196991550Y-89410502D01*
X196856722Y-89412620D01*
X196848820Y-89412614D01*
X196657634Y-89416160D01*
X196454389Y-89425420D01*
X196367000Y-89431511D01*
X196165447Y-89430777D01*
X196022793Y-89388374D01*
X196018814Y-89386189D01*
X195889311Y-89279386D01*
X195826390Y-89132922D01*
X195816666Y-89018035D01*
X195825805Y-88973150D01*
X196197666Y-88973150D01*
X196226945Y-89060196D01*
X196294955Y-89145361D01*
X196371961Y-89193961D01*
X196389018Y-89196333D01*
X196455371Y-89171948D01*
X196546345Y-89112830D01*
X196551790Y-89108594D01*
X196645182Y-88991745D01*
X196663333Y-88896927D01*
X196653847Y-88811696D01*
X196607912Y-88778233D01*
X196524586Y-88773000D01*
X196386651Y-88796322D01*
X196271690Y-88855921D01*
X196205102Y-88936247D01*
X196197666Y-88973150D01*
X195825805Y-88973150D01*
X195853557Y-88836854D01*
X195960407Y-88697854D01*
X196131480Y-88605287D01*
X196361041Y-88563401D01*
X196432987Y-88561333D01*
X196672511Y-88561333D01*
X196643352Y-88445153D01*
X196606311Y-88339576D01*
X196570079Y-88275820D01*
X196482684Y-88227925D01*
X196374090Y-88234509D01*
X196284116Y-88291353D01*
X196272508Y-88307333D01*
X196213640Y-88363639D01*
X196113382Y-88388518D01*
X196022113Y-88392000D01*
X195902776Y-88387800D01*
X195848997Y-88369453D01*
X195841849Y-88328334D01*
X195845620Y-88311589D01*
X195888816Y-88231458D01*
X195969561Y-88133569D01*
X195992604Y-88110506D01*
X196062540Y-88049792D01*
X196131787Y-88013753D01*
X196224886Y-87996023D01*
X196366380Y-87990237D01*
X196457918Y-87989833D01*
X196628397Y-87991545D01*
G36*
X194843000Y-89412350D02*
G01*
X194620750Y-89409861D01*
X194438829Y-89412902D01*
X194239658Y-89423477D01*
X194165666Y-89429589D01*
X193978909Y-89433397D01*
X193844635Y-89400482D01*
X193816649Y-89386340D01*
X193670539Y-89256194D01*
X193576988Y-89061087D01*
X193536757Y-88803030D01*
X193537048Y-88654346D01*
X193917987Y-88654346D01*
X193928085Y-88830828D01*
X193976555Y-88989139D01*
X194058029Y-89099686D01*
X194149581Y-89171804D01*
X194213702Y-89189992D01*
X194284753Y-89158198D01*
X194325580Y-89130432D01*
X194372072Y-89089525D01*
X194400194Y-89033432D01*
X194414445Y-88941949D01*
X194419327Y-88794875D01*
X194419666Y-88708075D01*
X194417923Y-88532357D01*
X194409260Y-88420839D01*
X194388526Y-88353074D01*
X194350567Y-88308615D01*
X194312099Y-88281137D01*
X194211576Y-88235331D01*
X194117862Y-88250411D01*
X194104649Y-88256166D01*
X194007597Y-88342986D01*
X193944933Y-88483722D01*
X193917987Y-88654346D01*
X193537048Y-88654346D01*
X193537063Y-88646766D01*
X193549677Y-88467054D01*
X193573024Y-88343357D01*
X193614992Y-88247071D01*
X193669056Y-88168219D01*
X193805249Y-88041594D01*
X193978590Y-87978402D01*
X194201626Y-87974613D01*
X194253014Y-87980590D01*
X194419666Y-88002943D01*
X194419666Y-87418333D01*
X194843000Y-87418333D01*
X194843000Y-89412350D01*
G37*
X194843000Y-89412350D02*
X194620750Y-89409861D01*
X194438829Y-89412902D01*
X194239658Y-89423477D01*
X194165666Y-89429589D01*
X193978909Y-89433397D01*
X193844635Y-89400482D01*
X193816649Y-89386340D01*
X193670539Y-89256194D01*
X193576988Y-89061087D01*
X193536757Y-88803030D01*
X193537048Y-88654346D01*
X193917987Y-88654346D01*
X193928085Y-88830828D01*
X193976555Y-88989139D01*
X194058029Y-89099686D01*
X194149581Y-89171804D01*
X194213702Y-89189992D01*
X194284753Y-89158198D01*
X194325580Y-89130432D01*
X194372072Y-89089525D01*
X194400194Y-89033432D01*
X194414445Y-88941949D01*
X194419327Y-88794875D01*
X194419666Y-88708075D01*
X194417923Y-88532357D01*
X194409260Y-88420839D01*
X194388526Y-88353074D01*
X194350567Y-88308615D01*
X194312099Y-88281137D01*
X194211576Y-88235331D01*
X194117862Y-88250411D01*
X194104649Y-88256166D01*
X194007597Y-88342986D01*
X193944933Y-88483722D01*
X193917987Y-88654346D01*
X193537048Y-88654346D01*
X193537063Y-88646766D01*
X193549677Y-88467054D01*
X193573024Y-88343357D01*
X193614992Y-88247071D01*
X193669056Y-88168219D01*
X193805249Y-88041594D01*
X193978590Y-87978402D01*
X194201626Y-87974613D01*
X194253014Y-87980590D01*
X194419666Y-88002943D01*
X194419666Y-87418333D01*
X194843000Y-87418333D01*
X194843000Y-89412350D01*
G36*
X192956537Y-88003660D02*
G01*
X193145710Y-88104792D01*
X193278869Y-88266288D01*
X193350352Y-88482375D01*
X193361333Y-88625690D01*
X193361333Y-88773000D01*
X192919331Y-88773000D01*
X192734061Y-88776708D01*
X192581820Y-88786726D01*
X192481513Y-88801391D01*
X192451935Y-88814090D01*
X192450308Y-88887082D01*
X192496183Y-88986207D01*
X192571675Y-89083809D01*
X192658900Y-89152234D01*
X192675444Y-89159700D01*
X192764179Y-89180023D01*
X192858114Y-89161547D01*
X192972052Y-89108444D01*
X193154272Y-89012791D01*
X193243735Y-89102253D01*
X193301913Y-89176122D01*
X193296831Y-89232805D01*
X193281818Y-89253625D01*
X193148715Y-89355380D01*
X192964023Y-89420968D01*
X192754326Y-89446743D01*
X192546207Y-89429058D01*
X192388510Y-89376184D01*
X192216186Y-89253093D01*
X192106459Y-89084142D01*
X192054692Y-88860574D01*
X192049065Y-88734989D01*
X192067066Y-88561333D01*
X192434404Y-88561333D01*
X192701498Y-88561333D01*
X192846250Y-88559799D01*
X192924257Y-88549942D01*
X192953436Y-88523876D01*
X192951709Y-88473715D01*
X192947867Y-88452919D01*
X192890582Y-88325419D01*
X192793478Y-88256324D01*
X192679023Y-88246684D01*
X192569680Y-88297551D01*
X192487914Y-88409977D01*
X192479834Y-88431011D01*
X192434404Y-88561333D01*
X192067066Y-88561333D01*
X192077946Y-88456385D01*
X192163664Y-88239157D01*
X192305048Y-88084648D01*
X192500927Y-87994201D01*
X192717013Y-87968666D01*
X192956537Y-88003660D01*
G37*
X192956537Y-88003660D02*
X193145710Y-88104792D01*
X193278869Y-88266288D01*
X193350352Y-88482375D01*
X193361333Y-88625690D01*
X193361333Y-88773000D01*
X192919331Y-88773000D01*
X192734061Y-88776708D01*
X192581820Y-88786726D01*
X192481513Y-88801391D01*
X192451935Y-88814090D01*
X192450308Y-88887082D01*
X192496183Y-88986207D01*
X192571675Y-89083809D01*
X192658900Y-89152234D01*
X192675444Y-89159700D01*
X192764179Y-89180023D01*
X192858114Y-89161547D01*
X192972052Y-89108444D01*
X193154272Y-89012791D01*
X193243735Y-89102253D01*
X193301913Y-89176122D01*
X193296831Y-89232805D01*
X193281818Y-89253625D01*
X193148715Y-89355380D01*
X192964023Y-89420968D01*
X192754326Y-89446743D01*
X192546207Y-89429058D01*
X192388510Y-89376184D01*
X192216186Y-89253093D01*
X192106459Y-89084142D01*
X192054692Y-88860574D01*
X192049065Y-88734989D01*
X192067066Y-88561333D01*
X192434404Y-88561333D01*
X192701498Y-88561333D01*
X192846250Y-88559799D01*
X192924257Y-88549942D01*
X192953436Y-88523876D01*
X192951709Y-88473715D01*
X192947867Y-88452919D01*
X192890582Y-88325419D01*
X192793478Y-88256324D01*
X192679023Y-88246684D01*
X192569680Y-88297551D01*
X192487914Y-88409977D01*
X192479834Y-88431011D01*
X192434404Y-88561333D01*
X192067066Y-88561333D01*
X192077946Y-88456385D01*
X192163664Y-88239157D01*
X192305048Y-88084648D01*
X192500927Y-87994201D01*
X192717013Y-87968666D01*
X192956537Y-88003660D01*
G36*
X184674409Y-87531752D02*
G01*
X184892987Y-87619483D01*
X185055860Y-87768404D01*
X185164942Y-87980727D01*
X185222144Y-88258663D01*
X185232403Y-88467443D01*
X185215741Y-88759433D01*
X185161437Y-88987375D01*
X185065627Y-89164858D01*
X185018097Y-89221299D01*
X184933901Y-89310921D01*
X185086737Y-89427494D01*
X185239572Y-89544068D01*
X185144407Y-89645367D01*
X185068253Y-89715484D01*
X184999825Y-89738361D01*
X184917442Y-89711388D01*
X184799421Y-89631954D01*
X184755127Y-89598500D01*
X184609024Y-89501945D01*
X184481257Y-89457671D01*
X184387846Y-89450333D01*
X184142013Y-89412505D01*
X183934085Y-89304324D01*
X183769778Y-89133747D01*
X183654808Y-88908731D01*
X183594890Y-88637232D01*
X183594404Y-88476666D01*
X184005666Y-88476666D01*
X184023131Y-88720145D01*
X184079750Y-88906127D01*
X184181863Y-89055164D01*
X184185199Y-89058750D01*
X184310336Y-89135611D01*
X184464967Y-89151282D01*
X184600678Y-89110411D01*
X184715534Y-89001118D01*
X184789709Y-88818708D01*
X184822707Y-88564590D01*
X184824504Y-88476666D01*
X184804939Y-88204422D01*
X184744897Y-88004408D01*
X184642358Y-87873424D01*
X184495302Y-87808270D01*
X184396829Y-87799333D01*
X184251138Y-87838424D01*
X184134830Y-87949874D01*
X184052947Y-88124951D01*
X184010534Y-88354922D01*
X184005666Y-88476666D01*
X183594404Y-88476666D01*
X183594005Y-88345258D01*
X183651767Y-88048799D01*
X183764121Y-87813531D01*
X183928379Y-87642267D01*
X184141857Y-87537821D01*
X184398213Y-87503000D01*
X184674409Y-87531752D01*
G37*
X184674409Y-87531752D02*
X184892987Y-87619483D01*
X185055860Y-87768404D01*
X185164942Y-87980727D01*
X185222144Y-88258663D01*
X185232403Y-88467443D01*
X185215741Y-88759433D01*
X185161437Y-88987375D01*
X185065627Y-89164858D01*
X185018097Y-89221299D01*
X184933901Y-89310921D01*
X185086737Y-89427494D01*
X185239572Y-89544068D01*
X185144407Y-89645367D01*
X185068253Y-89715484D01*
X184999825Y-89738361D01*
X184917442Y-89711388D01*
X184799421Y-89631954D01*
X184755127Y-89598500D01*
X184609024Y-89501945D01*
X184481257Y-89457671D01*
X184387846Y-89450333D01*
X184142013Y-89412505D01*
X183934085Y-89304324D01*
X183769778Y-89133747D01*
X183654808Y-88908731D01*
X183594890Y-88637232D01*
X183594404Y-88476666D01*
X184005666Y-88476666D01*
X184023131Y-88720145D01*
X184079750Y-88906127D01*
X184181863Y-89055164D01*
X184185199Y-89058750D01*
X184310336Y-89135611D01*
X184464967Y-89151282D01*
X184600678Y-89110411D01*
X184715534Y-89001118D01*
X184789709Y-88818708D01*
X184822707Y-88564590D01*
X184824504Y-88476666D01*
X184804939Y-88204422D01*
X184744897Y-88004408D01*
X184642358Y-87873424D01*
X184495302Y-87808270D01*
X184396829Y-87799333D01*
X184251138Y-87838424D01*
X184134830Y-87949874D01*
X184052947Y-88124951D01*
X184010534Y-88354922D01*
X184005666Y-88476666D01*
X183594404Y-88476666D01*
X183594005Y-88345258D01*
X183651767Y-88048799D01*
X183764121Y-87813531D01*
X183928379Y-87642267D01*
X184141857Y-87537821D01*
X184398213Y-87503000D01*
X184674409Y-87531752D01*
M02*
