G04 #@! TF.GenerationSoftware,KiCad,Pcbnew,(5.1.6)-1*
G04 #@! TF.CreationDate,2021-06-16T19:48:32-04:00*
G04 #@! TF.ProjectId,plate_layer_v1,706c6174-655f-46c6-9179-65725f76312e,rev?*
G04 #@! TF.SameCoordinates,Original*
G04 #@! TF.FileFunction,Profile,NP*
%FSLAX46Y46*%
G04 Gerber Fmt 4.6, Leading zero omitted, Abs format (unit mm)*
G04 Created by KiCad (PCBNEW (5.1.6)-1) date 2021-06-16 19:48:32*
%MOMM*%
%LPD*%
G01*
G04 APERTURE LIST*
G04 #@! TA.AperFunction,Profile*
%ADD10C,0.120000*%
G04 #@! TD*
G04 #@! TA.AperFunction,Profile*
%ADD11C,0.200000*%
G04 #@! TD*
G04 APERTURE END LIST*
D10*
X174100000Y-107000000D02*
G75*
G03*
X174100000Y-107000000I-1000000J0D01*
G01*
D11*
X97918412Y-120512920D02*
X97724363Y-120378346D01*
X97724363Y-120378346D02*
X97557478Y-120216182D01*
X97557478Y-120216182D02*
X97420101Y-120030486D01*
X97420101Y-120030486D02*
X97314576Y-119825319D01*
X97314576Y-119825319D02*
X97243245Y-119604738D01*
X97243245Y-119604738D02*
X97208454Y-119372805D01*
X97208454Y-119372805D02*
X97205294Y-119277763D01*
X206559476Y-87226605D02*
X206773044Y-87125840D01*
X206773044Y-87125840D02*
X206996924Y-87062395D01*
X206996924Y-87062395D02*
X207226430Y-87036271D01*
X207226430Y-87036271D02*
X207456873Y-87047467D01*
X207456873Y-87047467D02*
X207683566Y-87095984D01*
X207683566Y-87095984D02*
X207901822Y-87181820D01*
X207901822Y-87181820D02*
X207985712Y-87226605D01*
X97918412Y-118042606D02*
X98131980Y-117941841D01*
X98131980Y-117941841D02*
X98355860Y-117878396D01*
X98355860Y-117878396D02*
X98585366Y-117852272D01*
X98585366Y-117852272D02*
X98815809Y-117863468D01*
X98815809Y-117863468D02*
X99042503Y-117911985D01*
X99042503Y-117911985D02*
X99260759Y-117997821D01*
X99260759Y-117997821D02*
X99344649Y-118042606D01*
X197783998Y-103998565D02*
X197803517Y-103763227D01*
X197803517Y-103763227D02*
X197860513Y-103537618D01*
X197860513Y-103537618D02*
X197952641Y-103325799D01*
X197952641Y-103325799D02*
X198077559Y-103131827D01*
X198077559Y-103131827D02*
X198232922Y-102959763D01*
X198232922Y-102959763D02*
X198416386Y-102813666D01*
X198416386Y-102813666D02*
X198497116Y-102763408D01*
X200636471Y-103998565D02*
X200616951Y-104233902D01*
X200616951Y-104233902D02*
X200559955Y-104459511D01*
X200559955Y-104459511D02*
X200467826Y-104671330D01*
X200467826Y-104671330D02*
X200342908Y-104865302D01*
X200342908Y-104865302D02*
X200187545Y-105037366D01*
X200187545Y-105037366D02*
X200004081Y-105183463D01*
X200004081Y-105183463D02*
X199923352Y-105233722D01*
X100057767Y-119277763D02*
X100038247Y-119513100D01*
X100038247Y-119513100D02*
X99981251Y-119738709D01*
X99981251Y-119738709D02*
X99889123Y-119950528D01*
X99889123Y-119950528D02*
X99764205Y-120144500D01*
X99764205Y-120144500D02*
X99608842Y-120316564D01*
X99608842Y-120316564D02*
X99425378Y-120462661D01*
X99425378Y-120462661D02*
X99344649Y-120512920D01*
X198497116Y-105233722D02*
X198303067Y-105099148D01*
X198303067Y-105099148D02*
X198136182Y-104936984D01*
X198136182Y-104936984D02*
X197998805Y-104751288D01*
X197998805Y-104751288D02*
X197893280Y-104546121D01*
X197893280Y-104546121D02*
X197821949Y-104325540D01*
X197821949Y-104325540D02*
X197787158Y-104093607D01*
X197787158Y-104093607D02*
X197783998Y-103998565D01*
X207985712Y-120512657D02*
X207772143Y-120613421D01*
X207772143Y-120613421D02*
X207548263Y-120676866D01*
X207548263Y-120676866D02*
X207318757Y-120702990D01*
X207318757Y-120702990D02*
X207088314Y-120691794D01*
X207088314Y-120691794D02*
X206861621Y-120643277D01*
X206861621Y-120643277D02*
X206643365Y-120557441D01*
X206643365Y-120557441D02*
X206559476Y-120512657D01*
X108126493Y-103998762D02*
X108126493Y-103998762D01*
X107413374Y-102763605D02*
X107607422Y-102898178D01*
X107607422Y-102898178D02*
X107774307Y-103060342D01*
X107774307Y-103060342D02*
X107911684Y-103246038D01*
X107911684Y-103246038D02*
X108017210Y-103451205D01*
X108017210Y-103451205D02*
X108088540Y-103671786D01*
X108088540Y-103671786D02*
X108123332Y-103903719D01*
X108123332Y-103903719D02*
X108126493Y-103998762D01*
X152220042Y-118042343D02*
X152433610Y-117941578D01*
X152433610Y-117941578D02*
X152657490Y-117878133D01*
X152657490Y-117878133D02*
X152886996Y-117852009D01*
X152886996Y-117852009D02*
X153117439Y-117863205D01*
X153117439Y-117863205D02*
X153344132Y-117911722D01*
X153344132Y-117911722D02*
X153562388Y-117997558D01*
X153562388Y-117997558D02*
X153646278Y-118042343D01*
X153646278Y-120512657D02*
X153432709Y-120613421D01*
X153432709Y-120613421D02*
X153208829Y-120676866D01*
X153208829Y-120676866D02*
X152979323Y-120702990D01*
X152979323Y-120702990D02*
X152748880Y-120691794D01*
X152748880Y-120691794D02*
X152522187Y-120643277D01*
X152522187Y-120643277D02*
X152303931Y-120557441D01*
X152303931Y-120557441D02*
X152220042Y-120512657D01*
X100057767Y-119277763D02*
X100057767Y-119277763D01*
X99344649Y-120512920D02*
X99131080Y-120613684D01*
X99131080Y-120613684D02*
X98907199Y-120677129D01*
X98907199Y-120677129D02*
X98677693Y-120703253D01*
X98677693Y-120703253D02*
X98447250Y-120692057D01*
X98447250Y-120692057D02*
X98220557Y-120643540D01*
X98220557Y-120643540D02*
X98002301Y-120557704D01*
X98002301Y-120557704D02*
X97918412Y-120512920D01*
X105274020Y-103998762D02*
X105293539Y-103763424D01*
X105293539Y-103763424D02*
X105350535Y-103537815D01*
X105350535Y-103537815D02*
X105442663Y-103325996D01*
X105442663Y-103325996D02*
X105567581Y-103132024D01*
X105567581Y-103132024D02*
X105722944Y-102959960D01*
X105722944Y-102959960D02*
X105906408Y-102813863D01*
X105906408Y-102813863D02*
X105987138Y-102763605D01*
X107413374Y-105233919D02*
X107199805Y-105334683D01*
X107199805Y-105334683D02*
X106975924Y-105398128D01*
X106975924Y-105398128D02*
X106746419Y-105424252D01*
X106746419Y-105424252D02*
X106515976Y-105413056D01*
X106515976Y-105413056D02*
X106289283Y-105364539D01*
X106289283Y-105364539D02*
X106071027Y-105278703D01*
X106071027Y-105278703D02*
X105987138Y-105233919D01*
X108126493Y-103998762D02*
X108106973Y-104234099D01*
X108106973Y-104234099D02*
X108049977Y-104459708D01*
X108049977Y-104459708D02*
X107957848Y-104671527D01*
X107957848Y-104671527D02*
X107832930Y-104865499D01*
X107832930Y-104865499D02*
X107677567Y-105037563D01*
X107677567Y-105037563D02*
X107494103Y-105183660D01*
X107494103Y-105183660D02*
X107413374Y-105233919D01*
X207985712Y-87226605D02*
X208179760Y-87361178D01*
X208179760Y-87361178D02*
X208346645Y-87523342D01*
X208346645Y-87523342D02*
X208484022Y-87709038D01*
X208484022Y-87709038D02*
X208589548Y-87914205D01*
X208589548Y-87914205D02*
X208660878Y-88134786D01*
X208660878Y-88134786D02*
X208695670Y-88366719D01*
X208695670Y-88366719D02*
X208698831Y-88461762D01*
X205846358Y-119277500D02*
X205865877Y-119042162D01*
X205865877Y-119042162D02*
X205922873Y-118816553D01*
X205922873Y-118816553D02*
X206015001Y-118604734D01*
X206015001Y-118604734D02*
X206139919Y-118410762D01*
X206139919Y-118410762D02*
X206295282Y-118238698D01*
X206295282Y-118238698D02*
X206478746Y-118092601D01*
X206478746Y-118092601D02*
X206559476Y-118042343D01*
X199923352Y-102763408D02*
X200117400Y-102897981D01*
X200117400Y-102897981D02*
X200284285Y-103060145D01*
X200284285Y-103060145D02*
X200421662Y-103245841D01*
X200421662Y-103245841D02*
X200527188Y-103451008D01*
X200527188Y-103451008D02*
X200598518Y-103671589D01*
X200598518Y-103671589D02*
X200633310Y-103903522D01*
X200633310Y-103903522D02*
X200636471Y-103998565D01*
X151506924Y-119277500D02*
X151526443Y-119042162D01*
X151526443Y-119042162D02*
X151583439Y-118816553D01*
X151583439Y-118816553D02*
X151675567Y-118604734D01*
X151675567Y-118604734D02*
X151800485Y-118410762D01*
X151800485Y-118410762D02*
X151955848Y-118238698D01*
X151955848Y-118238698D02*
X152139312Y-118092601D01*
X152139312Y-118092601D02*
X152220042Y-118042343D01*
X208698831Y-119277500D02*
X208679311Y-119512837D01*
X208679311Y-119512837D02*
X208622315Y-119738446D01*
X208622315Y-119738446D02*
X208530186Y-119950265D01*
X208530186Y-119950265D02*
X208405268Y-120144237D01*
X208405268Y-120144237D02*
X208249905Y-120316301D01*
X208249905Y-120316301D02*
X208066441Y-120462398D01*
X208066441Y-120462398D02*
X207985712Y-120512657D01*
X105987138Y-102763605D02*
X106200705Y-102662840D01*
X106200705Y-102662840D02*
X106424586Y-102599395D01*
X106424586Y-102599395D02*
X106654091Y-102573271D01*
X106654091Y-102573271D02*
X106884535Y-102584467D01*
X106884535Y-102584467D02*
X107111228Y-102632984D01*
X107111228Y-102632984D02*
X107329484Y-102718820D01*
X107329484Y-102718820D02*
X107413374Y-102763605D01*
X208698831Y-119277500D02*
X208698831Y-119277500D01*
X200636471Y-103998565D02*
X200636471Y-103998565D01*
X198497116Y-102763408D02*
X198710684Y-102662643D01*
X198710684Y-102662643D02*
X198934564Y-102599198D01*
X198934564Y-102599198D02*
X199164070Y-102573074D01*
X199164070Y-102573074D02*
X199394513Y-102584270D01*
X199394513Y-102584270D02*
X199621206Y-102632787D01*
X199621206Y-102632787D02*
X199839462Y-102718623D01*
X199839462Y-102718623D02*
X199923352Y-102763408D01*
X207985712Y-118042343D02*
X208179760Y-118176916D01*
X208179760Y-118176916D02*
X208346645Y-118339080D01*
X208346645Y-118339080D02*
X208484022Y-118524776D01*
X208484022Y-118524776D02*
X208589548Y-118729943D01*
X208589548Y-118729943D02*
X208660878Y-118950524D01*
X208660878Y-118950524D02*
X208695670Y-119182457D01*
X208695670Y-119182457D02*
X208698831Y-119277500D01*
X97205294Y-119277763D02*
X97224813Y-119042425D01*
X97224813Y-119042425D02*
X97281809Y-118816816D01*
X97281809Y-118816816D02*
X97373937Y-118604997D01*
X97373937Y-118604997D02*
X97498855Y-118411025D01*
X97498855Y-118411025D02*
X97654218Y-118238961D01*
X97654218Y-118238961D02*
X97837682Y-118092864D01*
X97837682Y-118092864D02*
X97918412Y-118042606D01*
X206559476Y-120512657D02*
X206365427Y-120378083D01*
X206365427Y-120378083D02*
X206198542Y-120215919D01*
X206198542Y-120215919D02*
X206061165Y-120030223D01*
X206061165Y-120030223D02*
X205955640Y-119825056D01*
X205955640Y-119825056D02*
X205884309Y-119604475D01*
X205884309Y-119604475D02*
X205849518Y-119372542D01*
X205849518Y-119372542D02*
X205846358Y-119277500D01*
X205846358Y-88461762D02*
X205865877Y-88226424D01*
X205865877Y-88226424D02*
X205922873Y-88000815D01*
X205922873Y-88000815D02*
X206015001Y-87788996D01*
X206015001Y-87788996D02*
X206139919Y-87595024D01*
X206139919Y-87595024D02*
X206295282Y-87422960D01*
X206295282Y-87422960D02*
X206478746Y-87276863D01*
X206478746Y-87276863D02*
X206559476Y-87226605D01*
X152220042Y-120512657D02*
X152025993Y-120378083D01*
X152025993Y-120378083D02*
X151859108Y-120215919D01*
X151859108Y-120215919D02*
X151721731Y-120030223D01*
X151721731Y-120030223D02*
X151616206Y-119825056D01*
X151616206Y-119825056D02*
X151544875Y-119604475D01*
X151544875Y-119604475D02*
X151510084Y-119372542D01*
X151510084Y-119372542D02*
X151506924Y-119277500D01*
X208698831Y-88461762D02*
X208698831Y-88461762D01*
X99344649Y-118042606D02*
X99538697Y-118177179D01*
X99538697Y-118177179D02*
X99705582Y-118339343D01*
X99705582Y-118339343D02*
X99842959Y-118525039D01*
X99842959Y-118525039D02*
X99948484Y-118730206D01*
X99948484Y-118730206D02*
X100019815Y-118950787D01*
X100019815Y-118950787D02*
X100054606Y-119182720D01*
X100054606Y-119182720D02*
X100057767Y-119277763D01*
X199923352Y-105233722D02*
X199709783Y-105334486D01*
X199709783Y-105334486D02*
X199485903Y-105397931D01*
X199485903Y-105397931D02*
X199256397Y-105424055D01*
X199256397Y-105424055D02*
X199025954Y-105412859D01*
X199025954Y-105412859D02*
X198799261Y-105364342D01*
X198799261Y-105364342D02*
X198581005Y-105278506D01*
X198581005Y-105278506D02*
X198497116Y-105233722D01*
X105987138Y-105233919D02*
X105793089Y-105099345D01*
X105793089Y-105099345D02*
X105626204Y-104937181D01*
X105626204Y-104937181D02*
X105488827Y-104751485D01*
X105488827Y-104751485D02*
X105383302Y-104546318D01*
X105383302Y-104546318D02*
X105311971Y-104325737D01*
X105311971Y-104325737D02*
X105277180Y-104093804D01*
X105277180Y-104093804D02*
X105274020Y-103998762D01*
X206559476Y-118042343D02*
X206773044Y-117941578D01*
X206773044Y-117941578D02*
X206996924Y-117878133D01*
X206996924Y-117878133D02*
X207226430Y-117852009D01*
X207226430Y-117852009D02*
X207456873Y-117863205D01*
X207456873Y-117863205D02*
X207683566Y-117911722D01*
X207683566Y-117911722D02*
X207901822Y-117997558D01*
X207901822Y-117997558D02*
X207985712Y-118042343D01*
X154359397Y-119277500D02*
X154359397Y-119277500D01*
X153646278Y-118042343D02*
X153840326Y-118176916D01*
X153840326Y-118176916D02*
X154007211Y-118339080D01*
X154007211Y-118339080D02*
X154144588Y-118524776D01*
X154144588Y-118524776D02*
X154250114Y-118729943D01*
X154250114Y-118729943D02*
X154321444Y-118950524D01*
X154321444Y-118950524D02*
X154356236Y-119182457D01*
X154356236Y-119182457D02*
X154359397Y-119277500D01*
X154359397Y-119277500D02*
X154339877Y-119512837D01*
X154339877Y-119512837D02*
X154282881Y-119738446D01*
X154282881Y-119738446D02*
X154190752Y-119950265D01*
X154190752Y-119950265D02*
X154065834Y-120144237D01*
X154065834Y-120144237D02*
X153910471Y-120316301D01*
X153910471Y-120316301D02*
X153727007Y-120462398D01*
X153727007Y-120462398D02*
X153646278Y-120512657D01*
X152924380Y-97769703D02*
X152924380Y-110383301D01*
X209864494Y-85288000D02*
X209727494Y-85211000D01*
X210667494Y-86228000D02*
X210602494Y-86086000D01*
X210525494Y-85949000D02*
X210438494Y-85818000D01*
X152924380Y-110383301D02*
X140310784Y-110383301D01*
X208976494Y-85000000D02*
X181060275Y-84994000D01*
X167924380Y-110383301D02*
X155310784Y-110383301D01*
X137924382Y-110383301D02*
X125310784Y-110383301D01*
X130495834Y-89696919D02*
X130301785Y-89562345D01*
X130301785Y-89562345D02*
X130134900Y-89400181D01*
X130134900Y-89400181D02*
X129997523Y-89214486D01*
X129997523Y-89214486D02*
X129891998Y-89009318D01*
X129891998Y-89009318D02*
X129820667Y-88788738D01*
X129820667Y-88788738D02*
X129785876Y-88556804D01*
X129785876Y-88556804D02*
X129782716Y-88461762D01*
X97918412Y-87226867D02*
X98131980Y-87126102D01*
X98131980Y-87126102D02*
X98355860Y-87062658D01*
X98355860Y-87062658D02*
X98585366Y-87036534D01*
X98585366Y-87036534D02*
X98815809Y-87047730D01*
X98815809Y-87047730D02*
X99042503Y-87096246D01*
X99042503Y-87096246D02*
X99260759Y-87182082D01*
X99260759Y-87182082D02*
X99344649Y-87226867D01*
X99344649Y-89697181D02*
X99131080Y-89797945D01*
X99131080Y-89797945D02*
X98907199Y-89861390D01*
X98907199Y-89861390D02*
X98677693Y-89887514D01*
X98677693Y-89887514D02*
X98447250Y-89876318D01*
X98447250Y-89876318D02*
X98220557Y-89827801D01*
X98220557Y-89827801D02*
X98002301Y-89741965D01*
X98002301Y-89741965D02*
X97918412Y-89697181D01*
X210438494Y-85818000D02*
X210340494Y-85695000D01*
X206559476Y-89696919D02*
X206365427Y-89562345D01*
X206365427Y-89562345D02*
X206198542Y-89400181D01*
X206198542Y-89400181D02*
X206061165Y-89214486D01*
X206061165Y-89214486D02*
X205955640Y-89009318D01*
X205955640Y-89009318D02*
X205884309Y-88788738D01*
X205884309Y-88788738D02*
X205849518Y-88556804D01*
X205849518Y-88556804D02*
X205846358Y-88461762D01*
X207985712Y-89696919D02*
X207772143Y-89797683D01*
X207772143Y-89797683D02*
X207548263Y-89861128D01*
X207548263Y-89861128D02*
X207318757Y-89887252D01*
X207318757Y-89887252D02*
X207088314Y-89876056D01*
X207088314Y-89876056D02*
X206861621Y-89827539D01*
X206861621Y-89827539D02*
X206643365Y-89741703D01*
X206643365Y-89741703D02*
X206559476Y-89696919D01*
X100057767Y-88462024D02*
X100038247Y-88697362D01*
X100038247Y-88697362D02*
X99981251Y-88922970D01*
X99981251Y-88922970D02*
X99889123Y-89134790D01*
X99889123Y-89134790D02*
X99764205Y-89328762D01*
X99764205Y-89328762D02*
X99608842Y-89500825D01*
X99608842Y-89500825D02*
X99425378Y-89646922D01*
X99425378Y-89646922D02*
X99344649Y-89697181D01*
X209585494Y-85146000D02*
X209438494Y-85091000D01*
X210234494Y-85579000D02*
X210118494Y-85473000D01*
X208698831Y-88461762D02*
X208679311Y-88697099D01*
X208679311Y-88697099D02*
X208622315Y-88922708D01*
X208622315Y-88922708D02*
X208530186Y-89134528D01*
X208530186Y-89134528D02*
X208405268Y-89328499D01*
X208405268Y-89328499D02*
X208249905Y-89500563D01*
X208249905Y-89500563D02*
X208066441Y-89646660D01*
X208066441Y-89646660D02*
X207985712Y-89696919D01*
X154359397Y-88461762D02*
X154359397Y-88461762D01*
X153646278Y-89696919D02*
X153432709Y-89797683D01*
X153432709Y-89797683D02*
X153208829Y-89861128D01*
X153208829Y-89861128D02*
X152979323Y-89887252D01*
X152979323Y-89887252D02*
X152748880Y-89876056D01*
X152748880Y-89876056D02*
X152522187Y-89827539D01*
X152522187Y-89827539D02*
X152303931Y-89741703D01*
X152303931Y-89741703D02*
X152220042Y-89696919D01*
X209995494Y-85375000D02*
X209864494Y-85288000D01*
X152220042Y-87226605D02*
X152433610Y-87125840D01*
X152433610Y-87125840D02*
X152657490Y-87062395D01*
X152657490Y-87062395D02*
X152886996Y-87036271D01*
X152886996Y-87036271D02*
X153117439Y-87047467D01*
X153117439Y-87047467D02*
X153344132Y-87095984D01*
X153344132Y-87095984D02*
X153562388Y-87181820D01*
X153562388Y-87181820D02*
X153646278Y-87226605D01*
X132635189Y-88461762D02*
X132635189Y-88461762D01*
X97156000Y-84994000D02*
X97000000Y-85000000D01*
X125310784Y-97769703D02*
X137924382Y-97769703D01*
X155310784Y-110383301D02*
X155310784Y-97769703D01*
X151506924Y-88461762D02*
X151526443Y-88226424D01*
X151526443Y-88226424D02*
X151583439Y-88000815D01*
X151583439Y-88000815D02*
X151675567Y-87788996D01*
X151675567Y-87788996D02*
X151800485Y-87595024D01*
X151800485Y-87595024D02*
X151955848Y-87422960D01*
X151955848Y-87422960D02*
X152139312Y-87276863D01*
X152139312Y-87276863D02*
X152220042Y-87226605D01*
X191294973Y-104026245D02*
X191294973Y-104026245D01*
X152220042Y-89696919D02*
X152025993Y-89562345D01*
X152025993Y-89562345D02*
X151859108Y-89400181D01*
X151859108Y-89400181D02*
X151721731Y-89214486D01*
X151721731Y-89214486D02*
X151616206Y-89009318D01*
X151616206Y-89009318D02*
X151544875Y-88788738D01*
X151544875Y-88788738D02*
X151510084Y-88556804D01*
X151510084Y-88556804D02*
X151506924Y-88461762D01*
X184273885Y-104026245D02*
X184281664Y-103792306D01*
X184281664Y-103792306D02*
X184304757Y-103561239D01*
X184304757Y-103561239D02*
X184342793Y-103333685D01*
X184342793Y-103333685D02*
X184395404Y-103110281D01*
X184395404Y-103110281D02*
X184462220Y-102891669D01*
X184462220Y-102891669D02*
X184542872Y-102678487D01*
X184542872Y-102678487D02*
X184636991Y-102471375D01*
X184636991Y-102471375D02*
X184744208Y-102270972D01*
X184744208Y-102270972D02*
X184864154Y-102077918D01*
X184864154Y-102077918D02*
X184996458Y-101892853D01*
X184996458Y-101892853D02*
X185140753Y-101716415D01*
X185140753Y-101716415D02*
X185296669Y-101549244D01*
X185296669Y-101549244D02*
X185463836Y-101391981D01*
X185463836Y-101391981D02*
X185641886Y-101245263D01*
X185641886Y-101245263D02*
X185830449Y-101109731D01*
X185830449Y-101109731D02*
X186029157Y-100986025D01*
X125310784Y-110383301D02*
X125310784Y-97769703D01*
X209132494Y-85018000D02*
X208976494Y-85000000D01*
X154359397Y-88461762D02*
X154339877Y-88697099D01*
X154339877Y-88697099D02*
X154282881Y-88922708D01*
X154282881Y-88922708D02*
X154190752Y-89134528D01*
X154190752Y-89134528D02*
X154065834Y-89328499D01*
X154065834Y-89328499D02*
X153910471Y-89500563D01*
X153910471Y-89500563D02*
X153727007Y-89646660D01*
X153727007Y-89646660D02*
X153646278Y-89696919D01*
X97918412Y-89697181D02*
X97724363Y-89562607D01*
X97724363Y-89562607D02*
X97557478Y-89400443D01*
X97557478Y-89400443D02*
X97420101Y-89214748D01*
X97420101Y-89214748D02*
X97314576Y-89009580D01*
X97314576Y-89009580D02*
X97243245Y-88789000D01*
X97243245Y-88789000D02*
X97208454Y-88557066D01*
X97208454Y-88557066D02*
X97205294Y-88462024D01*
X191294973Y-104026245D02*
X191287193Y-104260183D01*
X191287193Y-104260183D02*
X191264100Y-104491250D01*
X191264100Y-104491250D02*
X191226064Y-104718804D01*
X191226064Y-104718804D02*
X191173453Y-104942208D01*
X191173453Y-104942208D02*
X191106637Y-105160820D01*
X191106637Y-105160820D02*
X191025985Y-105374002D01*
X191025985Y-105374002D02*
X190931866Y-105581114D01*
X190931866Y-105581114D02*
X190824649Y-105781517D01*
X190824649Y-105781517D02*
X190704703Y-105974571D01*
X190704703Y-105974571D02*
X190572399Y-106159636D01*
X190572399Y-106159636D02*
X190428104Y-106336074D01*
X190428104Y-106336074D02*
X190272188Y-106503245D01*
X190272188Y-106503245D02*
X190105021Y-106660508D01*
X190105021Y-106660508D02*
X189926971Y-106807226D01*
X189926971Y-106807226D02*
X189738408Y-106942758D01*
X189738408Y-106942758D02*
X189539701Y-107066465D01*
X186029157Y-107066465D02*
X185830449Y-106942758D01*
X185830449Y-106942758D02*
X185641886Y-106807226D01*
X185641886Y-106807226D02*
X185463836Y-106660508D01*
X185463836Y-106660508D02*
X185296669Y-106503245D01*
X185296669Y-106503245D02*
X185140753Y-106336074D01*
X185140753Y-106336074D02*
X184996458Y-106159636D01*
X184996458Y-106159636D02*
X184864154Y-105974571D01*
X184864154Y-105974571D02*
X184744208Y-105781517D01*
X184744208Y-105781517D02*
X184636991Y-105581114D01*
X184636991Y-105581114D02*
X184542872Y-105374002D01*
X184542872Y-105374002D02*
X184462220Y-105160820D01*
X184462220Y-105160820D02*
X184395404Y-104942208D01*
X184395404Y-104942208D02*
X184342793Y-104718804D01*
X184342793Y-104718804D02*
X184304757Y-104491250D01*
X184304757Y-104491250D02*
X184281664Y-104260183D01*
X184281664Y-104260183D02*
X184273885Y-104026245D01*
X209438494Y-85091000D02*
X209286494Y-85049000D01*
X130495834Y-87226605D02*
X130709402Y-87125840D01*
X130709402Y-87125840D02*
X130933282Y-87062395D01*
X130933282Y-87062395D02*
X131162788Y-87036271D01*
X131162788Y-87036271D02*
X131393231Y-87047467D01*
X131393231Y-87047467D02*
X131619924Y-87095984D01*
X131619924Y-87095984D02*
X131838180Y-87181820D01*
X131838180Y-87181820D02*
X131922070Y-87226605D01*
X189539701Y-107066465D02*
X189333214Y-107176697D01*
X189333214Y-107176697D02*
X189121558Y-107272231D01*
X189121558Y-107272231D02*
X188905472Y-107353068D01*
X188905472Y-107353068D02*
X188685694Y-107419207D01*
X188685694Y-107419207D02*
X188462962Y-107470649D01*
X188462962Y-107470649D02*
X188238015Y-107507393D01*
X188238015Y-107507393D02*
X188011591Y-107529439D01*
X188011591Y-107529439D02*
X187784429Y-107536788D01*
X187784429Y-107536788D02*
X187557266Y-107529439D01*
X187557266Y-107529439D02*
X187330842Y-107507393D01*
X187330842Y-107507393D02*
X187105895Y-107470649D01*
X187105895Y-107470649D02*
X186883163Y-107419207D01*
X186883163Y-107419207D02*
X186663385Y-107353068D01*
X186663385Y-107353068D02*
X186447299Y-107272231D01*
X186447299Y-107272231D02*
X186235643Y-107176697D01*
X186235643Y-107176697D02*
X186029157Y-107066465D01*
X110310785Y-110383301D02*
X110310785Y-97769703D01*
X131922070Y-89696919D02*
X131708501Y-89797683D01*
X131708501Y-89797683D02*
X131484621Y-89861128D01*
X131484621Y-89861128D02*
X131255115Y-89887252D01*
X131255115Y-89887252D02*
X131024672Y-89876056D01*
X131024672Y-89876056D02*
X130797979Y-89827539D01*
X130797979Y-89827539D02*
X130579723Y-89741703D01*
X130579723Y-89741703D02*
X130495834Y-89696919D01*
X97205294Y-88462024D02*
X97224813Y-88226686D01*
X97224813Y-88226686D02*
X97281809Y-88001077D01*
X97281809Y-88001077D02*
X97373937Y-87789258D01*
X97373937Y-87789258D02*
X97498855Y-87595286D01*
X97498855Y-87595286D02*
X97654218Y-87423222D01*
X97654218Y-87423222D02*
X97837682Y-87277125D01*
X97837682Y-87277125D02*
X97918412Y-87226867D01*
X155310784Y-97769703D02*
X167924380Y-97769703D01*
X110310785Y-97769703D02*
X122924382Y-97769703D01*
X181060275Y-84994000D02*
X97156000Y-84994000D01*
X209286494Y-85049000D02*
X209132494Y-85018000D01*
X189539701Y-100986025D02*
X189738408Y-101109731D01*
X189738408Y-101109731D02*
X189926971Y-101245263D01*
X189926971Y-101245263D02*
X190105021Y-101391981D01*
X190105021Y-101391981D02*
X190272188Y-101549244D01*
X190272188Y-101549244D02*
X190428104Y-101716415D01*
X190428104Y-101716415D02*
X190572399Y-101892853D01*
X190572399Y-101892853D02*
X190704703Y-102077918D01*
X190704703Y-102077918D02*
X190824649Y-102270972D01*
X190824649Y-102270972D02*
X190931866Y-102471375D01*
X190931866Y-102471375D02*
X191025985Y-102678487D01*
X191025985Y-102678487D02*
X191106637Y-102891669D01*
X191106637Y-102891669D02*
X191173453Y-103110281D01*
X191173453Y-103110281D02*
X191226064Y-103333685D01*
X191226064Y-103333685D02*
X191264100Y-103561239D01*
X191264100Y-103561239D02*
X191287193Y-103792306D01*
X191287193Y-103792306D02*
X191294973Y-104026245D01*
X122924382Y-110383301D02*
X110310785Y-110383301D01*
X140310784Y-97769703D02*
X152924380Y-97769703D01*
X209727494Y-85211000D02*
X209585494Y-85146000D01*
X153646278Y-87226605D02*
X153840326Y-87361178D01*
X153840326Y-87361178D02*
X154007211Y-87523342D01*
X154007211Y-87523342D02*
X154144588Y-87709038D01*
X154144588Y-87709038D02*
X154250114Y-87914205D01*
X154250114Y-87914205D02*
X154321444Y-88134786D01*
X154321444Y-88134786D02*
X154356236Y-88366719D01*
X154356236Y-88366719D02*
X154359397Y-88461762D01*
X140310784Y-110383301D02*
X140310784Y-97769703D01*
X210118494Y-85473000D02*
X209995494Y-85375000D01*
X137924382Y-97769703D02*
X137924382Y-110383301D01*
X99344649Y-87226867D02*
X99538697Y-87361440D01*
X99538697Y-87361440D02*
X99705582Y-87523604D01*
X99705582Y-87523604D02*
X99842959Y-87709300D01*
X99842959Y-87709300D02*
X99948484Y-87914467D01*
X99948484Y-87914467D02*
X100019815Y-88135048D01*
X100019815Y-88135048D02*
X100054606Y-88366981D01*
X100054606Y-88366981D02*
X100057767Y-88462024D01*
X210602494Y-86086000D02*
X210525494Y-85949000D01*
X131922070Y-87226605D02*
X132116118Y-87361178D01*
X132116118Y-87361178D02*
X132283003Y-87523342D01*
X132283003Y-87523342D02*
X132420380Y-87709038D01*
X132420380Y-87709038D02*
X132525906Y-87914205D01*
X132525906Y-87914205D02*
X132597236Y-88134786D01*
X132597236Y-88134786D02*
X132632028Y-88366719D01*
X132632028Y-88366719D02*
X132635189Y-88461762D01*
X122924382Y-97769703D02*
X122924382Y-110383301D01*
X210340494Y-85695000D02*
X210234494Y-85579000D01*
X129782716Y-88461762D02*
X129802235Y-88226424D01*
X129802235Y-88226424D02*
X129859231Y-88000815D01*
X129859231Y-88000815D02*
X129951359Y-87788996D01*
X129951359Y-87788996D02*
X130076277Y-87595024D01*
X130076277Y-87595024D02*
X130231640Y-87422960D01*
X130231640Y-87422960D02*
X130415104Y-87276863D01*
X130415104Y-87276863D02*
X130495834Y-87226605D01*
X132635189Y-88461762D02*
X132615669Y-88697099D01*
X132615669Y-88697099D02*
X132558673Y-88922708D01*
X132558673Y-88922708D02*
X132466544Y-89134528D01*
X132466544Y-89134528D02*
X132341626Y-89328499D01*
X132341626Y-89328499D02*
X132186263Y-89500563D01*
X132186263Y-89500563D02*
X132002799Y-89646660D01*
X132002799Y-89646660D02*
X131922070Y-89696919D01*
X100057767Y-88462024D02*
X100057767Y-88462024D01*
X186029157Y-100986025D02*
X186235643Y-100875792D01*
X186235643Y-100875792D02*
X186447299Y-100780258D01*
X186447299Y-100780258D02*
X186663385Y-100699421D01*
X186663385Y-100699421D02*
X186883163Y-100633282D01*
X186883163Y-100633282D02*
X187105895Y-100581840D01*
X187105895Y-100581840D02*
X187330842Y-100545096D01*
X187330842Y-100545096D02*
X187557266Y-100523050D01*
X187557266Y-100523050D02*
X187784429Y-100515701D01*
X187784429Y-100515701D02*
X188011591Y-100523050D01*
X188011591Y-100523050D02*
X188238015Y-100545096D01*
X188238015Y-100545096D02*
X188462962Y-100581840D01*
X188462962Y-100581840D02*
X188685694Y-100633282D01*
X188685694Y-100633282D02*
X188905472Y-100699421D01*
X188905472Y-100699421D02*
X189121558Y-100780258D01*
X189121558Y-100780258D02*
X189333214Y-100875792D01*
X189333214Y-100875792D02*
X189539701Y-100986025D01*
X167924380Y-97769703D02*
X167924380Y-110383301D01*
X95858000Y-122389999D02*
X95981000Y-122487999D01*
X95981000Y-122487999D02*
X96112000Y-122574999D01*
X95254000Y-86375000D02*
X95212000Y-86527000D01*
X95212000Y-86527000D02*
X95181000Y-86681000D01*
X210795494Y-86681000D02*
X210764494Y-86527000D01*
X210813494Y-86837000D02*
X210795494Y-86681000D01*
X210813494Y-121025999D02*
X210820494Y-120869999D01*
X210340494Y-122167999D02*
X210438494Y-122044999D01*
X95163000Y-121025999D02*
X95181000Y-121181999D01*
X210234494Y-122283999D02*
X210340494Y-122167999D01*
X95374000Y-86086000D02*
X95309000Y-86228000D01*
X95858000Y-85473000D02*
X95742000Y-85579000D01*
X208819494Y-122868999D02*
X208976494Y-122862999D01*
X209864494Y-122574999D02*
X209995494Y-122487999D01*
X210438494Y-122044999D02*
X210525494Y-121913999D01*
X208976494Y-122862999D02*
X209132494Y-122844999D01*
X97156000Y-122868999D02*
X208819494Y-122868999D01*
X95742000Y-122283999D02*
X95858000Y-122389999D01*
X95636000Y-85695000D02*
X95538000Y-85818000D01*
X95981000Y-85375000D02*
X95858000Y-85473000D01*
X96844000Y-122844999D02*
X97000000Y-122862999D01*
X96538000Y-122771999D02*
X96690000Y-122813999D01*
X95163000Y-86837000D02*
X95156000Y-86994000D01*
X96249000Y-85211000D02*
X96112000Y-85288000D01*
X95156000Y-120868999D02*
X95163000Y-121025999D01*
X209132494Y-122844999D02*
X209286494Y-122813999D01*
X95538000Y-122044999D02*
X95636000Y-122167999D01*
X95181000Y-86681000D02*
X95163000Y-86837000D01*
X210764494Y-121335999D02*
X210795494Y-121181999D01*
X95181000Y-121181999D02*
X95212000Y-121335999D01*
X210722494Y-121487999D02*
X210764494Y-121335999D01*
X96112000Y-85288000D02*
X95981000Y-85375000D01*
X209286494Y-122813999D02*
X209438494Y-122771999D01*
X96112000Y-122574999D02*
X96249000Y-122651999D01*
X97000000Y-122862999D02*
X97156000Y-122868999D01*
X95538000Y-85818000D02*
X95451000Y-85949000D01*
X96391000Y-85146000D02*
X96249000Y-85211000D01*
X95742000Y-85579000D02*
X95636000Y-85695000D01*
X96538000Y-85091000D02*
X96391000Y-85146000D01*
X210118494Y-122389999D02*
X210234494Y-122283999D01*
X209438494Y-122771999D02*
X209585494Y-122716999D01*
X95212000Y-121335999D02*
X95254000Y-121487999D01*
X96249000Y-122651999D02*
X96391000Y-122716999D01*
X210819494Y-86994000D02*
X210813494Y-86837000D01*
X210525494Y-121913999D02*
X210602494Y-121776999D01*
X95451000Y-85949000D02*
X95374000Y-86086000D01*
X210820494Y-120869999D02*
X210819494Y-86994000D01*
X210795494Y-121181999D02*
X210813494Y-121025999D01*
X210602494Y-121776999D02*
X210667494Y-121634999D01*
X209585494Y-122716999D02*
X209727494Y-122651999D01*
X95374000Y-121776999D02*
X95451000Y-121913999D01*
X96690000Y-122813999D02*
X96844000Y-122844999D01*
X95309000Y-121634999D02*
X95374000Y-121776999D01*
X95254000Y-121487999D02*
X95309000Y-121634999D01*
X95451000Y-121913999D02*
X95538000Y-122044999D01*
X209995494Y-122487999D02*
X210118494Y-122389999D01*
X95636000Y-122167999D02*
X95742000Y-122283999D01*
X210722494Y-86375000D02*
X210667494Y-86228000D01*
X210764494Y-86527000D02*
X210722494Y-86375000D01*
X210667494Y-121634999D02*
X210722494Y-121487999D01*
X209727494Y-122651999D02*
X209864494Y-122574999D01*
X96391000Y-122716999D02*
X96538000Y-122771999D01*
X95156000Y-86994000D02*
X95156000Y-120868999D01*
X95309000Y-86228000D02*
X95254000Y-86375000D01*
X96690000Y-85049000D02*
X96538000Y-85091000D01*
X96844000Y-85018000D02*
X96690000Y-85049000D01*
X97000000Y-85000000D02*
X96844000Y-85018000D01*
M02*
