  0
SECTION
  2
HEADER
  9
$ACADVER
  1
AC1014
  9
$HANDSEED
  5
FFFF
  9
$MEASUREMENT
 70
     1
  0
ENDSEC
  0
SECTION
  2
TABLES
  0
TABLE
  2
VPORT
  5
8
330
0
100
AcDbSymbolTable
 70
     4
  0
VPORT
  5
2E
330
8
100
AcDbSymbolTableRecord
100
AcDbViewportTableRecord
  2
*ACTIVE
 70
     0
 10
0.0
 20
0.0
 11
1.0
 21
1.0
 12
210.0
 22
148.5
 13
0.0
 23
0.0
 14
10.0
 24
10.0
 15
10.0
 25
10.0
 16
0.0
 26
0.0
 36
1.0
 17
0.0
 27
0.0
 37
0.0
 40
341.0
 41
1.24
 42
50.0
 43
0.0
 44
0.0
 50
0.0
 51
0.0
 71
     0
 72
   100
 73
     1
 74
     3
 75
     0
 76
     0
 77
     0
 78
     0
  0
ENDTAB
  0
TABLE
  2
LTYPE
  5
5
330
0
100
AcDbSymbolTable
 70
     1
  0
LTYPE
  5
14
330
5
100
AcDbSymbolTableRecord
100
AcDbLinetypeTableRecord
  2
BYBLOCK
 70
     0
  3

 72
    65
 73
     0
 40
0.0
  0
LTYPE
  5
15
330
5
100
AcDbSymbolTableRecord
100
AcDbLinetypeTableRecord
  2
BYLAYER
 70
     0
  3

 72
    65
 73
     0
 40
0.0
  0
LTYPE
  5
16
330
5
100
AcDbSymbolTableRecord
100
AcDbLinetypeTableRecord
  2
CONTINUOUS
 70
     0
  3
Solid line
 72
    65
 73
     0
 40
0.0
  0
ENDTAB
  0
TABLE
  2
LAYER
  5
2
100
AcDbSymbolTable
 70
1
  0
LAYER
  5
50
100
AcDbSymbolTableRecord
100
AcDbLayerTableRecord
  2
0
 70
0
  6
CONTINUOUS
  0
ENDTAB
  0
TABLE
  2
STYLE
  5
3
330
0
100
AcDbSymbolTable
 70
     1
  0
STYLE
  5
11
330
3
100
AcDbSymbolTableRecord
100
AcDbTextStyleTableRecord
  2
STANDARD
 70
     0
 40
0.0
 41
1.0
 50
0.0
 71
     0
 42
2.5
  3
txt
  4

  0
ENDTAB
  0
TABLE
  2
VIEW
  5
6
330
0
100
AcDbSymbolTable
 70
     0
  0
ENDTAB
  0
TABLE
  2
UCS
  5
7
330
0
100
AcDbSymbolTable
 70
     0
  0
ENDTAB
  0
TABLE
  2
APPID
  5
9
330
0
100
AcDbSymbolTable
 70
     2
  0
APPID
  5
12
330
9
100
AcDbSymbolTableRecord
100
AcDbRegAppTableRecord
  2
ACAD
 70
     0
  0
ENDTAB
  0
TABLE
  2
DIMSTYLE
  5
A
330
0
100
AcDbSymbolTable
 70
     1
  0
DIMSTYLE
105
27
330
A
100
AcDbSymbolTableRecord
100
AcDbDimStyleTableRecord
  2
ISO-25
 70
     0
  3

  4

  5

  6

  7

 40
1.0
 41
2.5
 42
0.625
 43
3.75
 44
1.25
 45
0.0
 46
0.0
 47
0.0
 48
0.0
140
2.5
141
2.5
142
0.0
143
0.03937007874016
144
1.0
145
0.0
146
1.0
147
0.625
 71
     0
 72
     0
 73
     0
 74
     0
 75
     0
 76
     0
 77
     1
 78
     8
170
     0
171
     3
172
     1
173
     0
174
     0
175
     0
176
     0
177
     0
178
     0
270
     2
271
     2
272
     2
273
     2
274
     3
340
11
275
     0
280
     0
281
     0
282
     0
283
     0
284
     8
285
     0
286
     0
287
     3
288
     0
  0
ENDTAB
  0
TABLE
  2
BLOCK_RECORD
  5
1
330
0
100
AcDbSymbolTable
 70
     1
  0
BLOCK_RECORD
  5
1F
330
1
100
AcDbSymbolTableRecord
100
AcDbBlockTableRecord
  2
*MODEL_SPACE
  0
BLOCK_RECORD
  5
1B
330
1
100
AcDbSymbolTableRecord
100
AcDbBlockTableRecord
  2
*PAPER_SPACE
  0
ENDTAB
  0
ENDSEC
  0
SECTION
  2
BLOCKS
  0
BLOCK
  5
20
330
1F
100
AcDbEntity
  8
0
100
AcDbBlockBegin
  2
*MODEL_SPACE
 70
     0
 10
0.0
 20
0.0
 30
0.0
  3
*MODEL_SPACE
  1

  0
ENDBLK
  5
21
330
1F
100
AcDbEntity
  8
0
100
AcDbBlockEnd
  0
BLOCK
  5
1C
330
1B
100
AcDbEntity
 67
     1
  8
0
100
AcDbBlockBegin
  2
*PAPER_SPACE
  1

  0
ENDBLK
  5
1D
330
1B
100
AcDbEntity
 67
     1
  8
0
100
AcDbBlockEnd
  0
ENDSEC
  0
SECTION
  2
ENTITIES
  0
LINE
  5
100
100
AcDbEntity
  8
0
 62
7
100
AcDbLine
 10
6.938456
 20
42.963455
 30
0.0
 11
6.782456
 21
42.945455
 31
0.0
  0
LINE
  5
101
100
AcDbEntity
  8
0
 62
7
100
AcDbLine
 10
6.782456
 20
42.945455
 30
0.0
 11
6.628456
 21
42.914455
 31
0.0
  0
LINE
  5
102
100
AcDbEntity
  8
0
 62
7
100
AcDbLine
 10
6.628456
 20
42.914455
 30
0.0
 11
6.476456
 21
42.872455
 31
0.0
  0
LINE
  5
103
100
AcDbEntity
  8
0
 62
7
100
AcDbLine
 10
6.476456
 20
42.872455
 30
0.0
 11
6.329456
 21
42.817455
 31
0.0
  0
LINE
  5
104
100
AcDbEntity
  8
0
 62
7
100
AcDbLine
 10
6.329456
 20
42.817455
 30
0.0
 11
6.187456
 21
42.752455
 31
0.0
  0
LINE
  5
105
100
AcDbEntity
  8
0
 62
7
100
AcDbLine
 10
6.187456
 20
42.752455
 30
0.0
 11
6.050456
 21
42.675455
 31
0.0
  0
LINE
  5
106
100
AcDbEntity
  8
0
 62
7
100
AcDbLine
 10
6.050456
 20
42.675455
 30
0.0
 11
5.919456
 21
42.588455
 31
0.0
  0
LINE
  5
107
100
AcDbEntity
  8
0
 62
7
100
AcDbLine
 10
5.919456
 20
42.588455
 30
0.0
 11
5.796456
 21
42.490455
 31
0.0
  0
LINE
  5
108
100
AcDbEntity
  8
0
 62
7
100
AcDbLine
 10
5.796456
 20
42.490455
 30
0.0
 11
5.680456
 21
42.384455
 31
0.0
  0
LINE
  5
109
100
AcDbEntity
  8
0
 62
7
100
AcDbLine
 10
5.680456
 20
42.384455
 30
0.0
 11
5.574456
 21
42.268455
 31
0.0
  0
LINE
  5
10a
100
AcDbEntity
  8
0
 62
7
100
AcDbLine
 10
5.574456
 20
42.268455
 30
0.0
 11
5.476456
 21
42.145455
 31
0.0
  0
LINE
  5
10b
100
AcDbEntity
  8
0
 62
7
100
AcDbLine
 10
5.476456
 20
42.145455
 30
0.0
 11
5.389456
 21
42.014455
 31
0.0
  0
LINE
  5
10c
100
AcDbEntity
  8
0
 62
7
100
AcDbLine
 10
5.389456
 20
42.014455
 30
0.0
 11
5.312456
 21
41.877455
 31
0.0
  0
LINE
  5
10d
100
AcDbEntity
  8
0
 62
7
100
AcDbLine
 10
5.312456
 20
41.877455
 30
0.0
 11
5.247456
 21
41.735455
 31
0.0
  0
LINE
  5
10e
100
AcDbEntity
  8
0
 62
7
100
AcDbLine
 10
5.247456
 20
41.735455
 30
0.0
 11
5.192456
 21
41.588455
 31
0.0
  0
LINE
  5
10f
100
AcDbEntity
  8
0
 62
7
100
AcDbLine
 10
5.192456
 20
41.588455
 30
0.0
 11
5.150456
 21
41.436455
 31
0.0
  0
LINE
  5
110
100
AcDbEntity
  8
0
 62
7
100
AcDbLine
 10
5.150456
 20
41.436455
 30
0.0
 11
5.119456
 21
41.282455
 31
0.0
  0
LINE
  5
111
100
AcDbEntity
  8
0
 62
7
100
AcDbLine
 10
5.119456
 20
41.282455
 30
0.0
 11
5.101456
 21
41.126455
 31
0.0
  0
LINE
  5
112
100
AcDbEntity
  8
0
 62
7
100
AcDbLine
 10
5.101456
 20
41.126455
 30
0.0
 11
5.094456
 21
40.969455
 31
0.0
  0
LINE
  5
113
100
AcDbEntity
  8
0
 62
7
100
AcDbLine
 10
5.094456
 20
40.969455
 30
0.0
 11
5.094456
 21
7.094456
 31
0.0
  0
LINE
  5
114
100
AcDbEntity
  8
0
 62
7
100
AcDbLine
 10
5.094456
 20
7.094456
 30
0.0
 11
5.101456
 21
6.937456
 31
0.0
  0
LINE
  5
115
100
AcDbEntity
  8
0
 62
7
100
AcDbLine
 10
5.101456
 20
6.937456
 30
0.0
 11
5.119456
 21
6.781456
 31
0.0
  0
LINE
  5
116
100
AcDbEntity
  8
0
 62
7
100
AcDbLine
 10
5.119456
 20
6.781456
 30
0.0
 11
5.150456
 21
6.627456
 31
0.0
  0
LINE
  5
117
100
AcDbEntity
  8
0
 62
7
100
AcDbLine
 10
5.150456
 20
6.627456
 30
0.0
 11
5.192456
 21
6.475456
 31
0.0
  0
LINE
  5
118
100
AcDbEntity
  8
0
 62
7
100
AcDbLine
 10
5.192456
 20
6.475456
 30
0.0
 11
5.247456
 21
6.328456
 31
0.0
  0
LINE
  5
119
100
AcDbEntity
  8
0
 62
7
100
AcDbLine
 10
5.247456
 20
6.328456
 30
0.0
 11
5.312456
 21
6.186456
 31
0.0
  0
LINE
  5
11a
100
AcDbEntity
  8
0
 62
7
100
AcDbLine
 10
5.312456
 20
6.186456
 30
0.0
 11
5.389456
 21
6.049456
 31
0.0
  0
LINE
  5
11b
100
AcDbEntity
  8
0
 62
7
100
AcDbLine
 10
5.389456
 20
6.049456
 30
0.0
 11
5.476456
 21
5.918456
 31
0.0
  0
LINE
  5
11c
100
AcDbEntity
  8
0
 62
7
100
AcDbLine
 10
5.476456
 20
5.918456
 30
0.0
 11
5.574456
 21
5.795456
 31
0.0
  0
LINE
  5
11d
100
AcDbEntity
  8
0
 62
7
100
AcDbLine
 10
5.574456
 20
5.795456
 30
0.0
 11
5.680456
 21
5.679456
 31
0.0
  0
LINE
  5
11e
100
AcDbEntity
  8
0
 62
7
100
AcDbLine
 10
5.680456
 20
5.679456
 30
0.0
 11
5.796456
 21
5.573456
 31
0.0
  0
LINE
  5
11f
100
AcDbEntity
  8
0
 62
7
100
AcDbLine
 10
5.796456
 20
5.573456
 30
0.0
 11
5.919456
 21
5.475456
 31
0.0
  0
LINE
  5
120
100
AcDbEntity
  8
0
 62
7
100
AcDbLine
 10
5.919456
 20
5.475456
 30
0.0
 11
6.050456
 21
5.388456
 31
0.0
  0
LINE
  5
121
100
AcDbEntity
  8
0
 62
7
100
AcDbLine
 10
6.050456
 20
5.388456
 30
0.0
 11
6.187456
 21
5.311456
 31
0.0
  0
LINE
  5
122
100
AcDbEntity
  8
0
 62
7
100
AcDbLine
 10
6.187456
 20
5.311456
 30
0.0
 11
6.329456
 21
5.246456
 31
0.0
  0
LINE
  5
123
100
AcDbEntity
  8
0
 62
7
100
AcDbLine
 10
6.329456
 20
5.246456
 30
0.0
 11
6.476456
 21
5.191456
 31
0.0
  0
LINE
  5
124
100
AcDbEntity
  8
0
 62
7
100
AcDbLine
 10
6.476456
 20
5.191456
 30
0.0
 11
6.628456
 21
5.149456
 31
0.0
  0
LINE
  5
125
100
AcDbEntity
  8
0
 62
7
100
AcDbLine
 10
6.628456
 20
5.149456
 30
0.0
 11
6.782456
 21
5.118456
 31
0.0
  0
LINE
  5
126
100
AcDbEntity
  8
0
 62
7
100
AcDbLine
 10
6.782456
 20
5.118456
 30
0.0
 11
6.938456
 21
5.100456
 31
0.0
  0
LINE
  5
127
100
AcDbEntity
  8
0
 62
7
100
AcDbLine
 10
6.938456
 20
5.100456
 30
0.0
 11
7.094456
 21
5.094456
 31
0.0
  0
LINE
  5
128
100
AcDbEntity
  8
0
 62
7
100
AcDbLine
 10
7.094456
 20
5.094456
 30
0.0
 11
118.757950
 21
5.094456
 31
0.0
  0
LINE
  5
129
100
AcDbEntity
  8
0
 62
7
100
AcDbLine
 10
118.757950
 20
5.094456
 30
0.0
 11
118.914950
 21
5.100456
 31
0.0
  0
LINE
  5
12a
100
AcDbEntity
  8
0
 62
7
100
AcDbLine
 10
118.914950
 20
5.100456
 30
0.0
 11
119.070950
 21
5.118456
 31
0.0
  0
LINE
  5
12b
100
AcDbEntity
  8
0
 62
7
100
AcDbLine
 10
119.070950
 20
5.118456
 30
0.0
 11
119.224950
 21
5.149456
 31
0.0
  0
LINE
  5
12c
100
AcDbEntity
  8
0
 62
7
100
AcDbLine
 10
119.224950
 20
5.149456
 30
0.0
 11
119.376950
 21
5.191456
 31
0.0
  0
LINE
  5
12d
100
AcDbEntity
  8
0
 62
7
100
AcDbLine
 10
119.376950
 20
5.191456
 30
0.0
 11
119.523950
 21
5.246456
 31
0.0
  0
LINE
  5
12e
100
AcDbEntity
  8
0
 62
7
100
AcDbLine
 10
119.523950
 20
5.246456
 30
0.0
 11
119.665950
 21
5.311456
 31
0.0
  0
LINE
  5
12f
100
AcDbEntity
  8
0
 62
7
100
AcDbLine
 10
119.665950
 20
5.311456
 30
0.0
 11
119.802950
 21
5.388456
 31
0.0
  0
LINE
  5
130
100
AcDbEntity
  8
0
 62
7
100
AcDbLine
 10
119.802950
 20
5.388456
 30
0.0
 11
119.933950
 21
5.475456
 31
0.0
  0
LINE
  5
131
100
AcDbEntity
  8
0
 62
7
100
AcDbLine
 10
119.933950
 20
5.475456
 30
0.0
 11
120.056950
 21
5.573456
 31
0.0
  0
LINE
  5
132
100
AcDbEntity
  8
0
 62
7
100
AcDbLine
 10
120.056950
 20
5.573456
 30
0.0
 11
120.172950
 21
5.679456
 31
0.0
  0
LINE
  5
133
100
AcDbEntity
  8
0
 62
7
100
AcDbLine
 10
120.172950
 20
5.679456
 30
0.0
 11
120.278950
 21
5.795456
 31
0.0
  0
LINE
  5
134
100
AcDbEntity
  8
0
 62
7
100
AcDbLine
 10
120.278950
 20
5.795456
 30
0.0
 11
120.376950
 21
5.918456
 31
0.0
  0
LINE
  5
135
100
AcDbEntity
  8
0
 62
7
100
AcDbLine
 10
120.376950
 20
5.918456
 30
0.0
 11
120.463950
 21
6.049456
 31
0.0
  0
LINE
  5
136
100
AcDbEntity
  8
0
 62
7
100
AcDbLine
 10
120.463950
 20
6.049456
 30
0.0
 11
120.540950
 21
6.186456
 31
0.0
  0
LINE
  5
137
100
AcDbEntity
  8
0
 62
7
100
AcDbLine
 10
120.540950
 20
6.186456
 30
0.0
 11
120.605950
 21
6.328456
 31
0.0
  0
LINE
  5
138
100
AcDbEntity
  8
0
 62
7
100
AcDbLine
 10
120.605950
 20
6.328456
 30
0.0
 11
120.660950
 21
6.475456
 31
0.0
  0
LINE
  5
139
100
AcDbEntity
  8
0
 62
7
100
AcDbLine
 10
120.660950
 20
6.475456
 30
0.0
 11
120.702950
 21
6.627456
 31
0.0
  0
LINE
  5
13a
100
AcDbEntity
  8
0
 62
7
100
AcDbLine
 10
120.702950
 20
6.627456
 30
0.0
 11
120.733950
 21
6.781456
 31
0.0
  0
LINE
  5
13b
100
AcDbEntity
  8
0
 62
7
100
AcDbLine
 10
120.733950
 20
6.781456
 30
0.0
 11
120.751950
 21
6.937456
 31
0.0
  0
LINE
  5
13c
100
AcDbEntity
  8
0
 62
7
100
AcDbLine
 10
120.751950
 20
6.937456
 30
0.0
 11
120.758950
 21
7.093456
 31
0.0
  0
LINE
  5
13d
100
AcDbEntity
  8
0
 62
7
100
AcDbLine
 10
120.758950
 20
7.093456
 30
0.0
 11
120.757950
 21
40.969455
 31
0.0
  0
LINE
  5
13e
100
AcDbEntity
  8
0
 62
7
100
AcDbLine
 10
120.757950
 20
40.969455
 30
0.0
 11
120.751950
 21
41.126455
 31
0.0
  0
LINE
  5
13f
100
AcDbEntity
  8
0
 62
7
100
AcDbLine
 10
120.751950
 20
41.126455
 30
0.0
 11
120.733950
 21
41.282455
 31
0.0
  0
LINE
  5
140
100
AcDbEntity
  8
0
 62
7
100
AcDbLine
 10
120.733950
 20
41.282455
 30
0.0
 11
120.702950
 21
41.436455
 31
0.0
  0
LINE
  5
141
100
AcDbEntity
  8
0
 62
7
100
AcDbLine
 10
120.702950
 20
41.436455
 30
0.0
 11
120.660950
 21
41.588455
 31
0.0
  0
LINE
  5
142
100
AcDbEntity
  8
0
 62
7
100
AcDbLine
 10
120.660950
 20
41.588455
 30
0.0
 11
120.605950
 21
41.735455
 31
0.0
  0
LINE
  5
143
100
AcDbEntity
  8
0
 62
7
100
AcDbLine
 10
120.605950
 20
41.735455
 30
0.0
 11
120.540950
 21
41.877455
 31
0.0
  0
LINE
  5
144
100
AcDbEntity
  8
0
 62
7
100
AcDbLine
 10
120.540950
 20
41.877455
 30
0.0
 11
120.463950
 21
42.014455
 31
0.0
  0
LINE
  5
145
100
AcDbEntity
  8
0
 62
7
100
AcDbLine
 10
120.463950
 20
42.014455
 30
0.0
 11
120.376950
 21
42.145455
 31
0.0
  0
LINE
  5
146
100
AcDbEntity
  8
0
 62
7
100
AcDbLine
 10
120.376950
 20
42.145455
 30
0.0
 11
120.278950
 21
42.268455
 31
0.0
  0
LINE
  5
147
100
AcDbEntity
  8
0
 62
7
100
AcDbLine
 10
120.278950
 20
42.268455
 30
0.0
 11
120.172950
 21
42.384455
 31
0.0
  0
LINE
  5
148
100
AcDbEntity
  8
0
 62
7
100
AcDbLine
 10
120.172950
 20
42.384455
 30
0.0
 11
120.056950
 21
42.490455
 31
0.0
  0
LINE
  5
149
100
AcDbEntity
  8
0
 62
7
100
AcDbLine
 10
120.056950
 20
42.490455
 30
0.0
 11
119.933950
 21
42.588455
 31
0.0
  0
LINE
  5
14a
100
AcDbEntity
  8
0
 62
7
100
AcDbLine
 10
119.933950
 20
42.588455
 30
0.0
 11
119.802950
 21
42.675455
 31
0.0
  0
LINE
  5
14b
100
AcDbEntity
  8
0
 62
7
100
AcDbLine
 10
119.802950
 20
42.675455
 30
0.0
 11
119.665950
 21
42.752455
 31
0.0
  0
LINE
  5
14c
100
AcDbEntity
  8
0
 62
7
100
AcDbLine
 10
119.665950
 20
42.752455
 30
0.0
 11
119.523950
 21
42.817455
 31
0.0
  0
LINE
  5
14d
100
AcDbEntity
  8
0
 62
7
100
AcDbLine
 10
119.523950
 20
42.817455
 30
0.0
 11
119.376950
 21
42.872455
 31
0.0
  0
LINE
  5
14e
100
AcDbEntity
  8
0
 62
7
100
AcDbLine
 10
119.376950
 20
42.872455
 30
0.0
 11
119.224950
 21
42.914455
 31
0.0
  0
LINE
  5
14f
100
AcDbEntity
  8
0
 62
7
100
AcDbLine
 10
119.224950
 20
42.914455
 30
0.0
 11
119.070950
 21
42.945455
 31
0.0
  0
LINE
  5
150
100
AcDbEntity
  8
0
 62
7
100
AcDbLine
 10
119.070950
 20
42.945455
 30
0.0
 11
118.914950
 21
42.963455
 31
0.0
  0
LINE
  5
151
100
AcDbEntity
  8
0
 62
7
100
AcDbLine
 10
118.914950
 20
42.963455
 30
0.0
 11
90.998731
 21
42.969455
 31
0.0
  0
LINE
  5
152
100
AcDbEntity
  8
0
 62
7
100
AcDbLine
 10
90.998731
 20
42.969455
 30
0.0
 11
7.094456
 21
42.969455
 31
0.0
  0
LINE
  5
153
100
AcDbEntity
  8
0
 62
7
100
AcDbLine
 10
7.094456
 20
42.969455
 30
0.0
 11
6.938456
 21
42.963455
 31
0.0
  0
LINE
  5
154
100
AcDbEntity
  8
0
 62
7
100
AcDbLine
 10
20.249241
 20
30.193752
 30
0.0
 11
32.862838
 21
30.193752
 31
0.0
  0
LINE
  5
155
100
AcDbEntity
  8
0
 62
7
100
AcDbLine
 10
32.862838
 20
30.193752
 30
0.0
 11
32.862838
 21
17.580154
 31
0.0
  0
LINE
  5
156
100
AcDbEntity
  8
0
 62
7
100
AcDbLine
 10
32.862838
 20
17.580154
 30
0.0
 11
20.249241
 21
17.580154
 31
0.0
  0
LINE
  5
157
100
AcDbEntity
  8
0
 62
7
100
AcDbLine
 10
20.249241
 20
17.580154
 30
0.0
 11
20.249241
 21
30.193752
 31
0.0
  0
LINE
  5
158
100
AcDbEntity
  8
0
 62
7
100
AcDbLine
 10
35.249240
 20
30.193752
 30
0.0
 11
47.862838
 21
30.193752
 31
0.0
  0
LINE
  5
159
100
AcDbEntity
  8
0
 62
7
100
AcDbLine
 10
47.862838
 20
30.193752
 30
0.0
 11
47.862838
 21
17.580154
 31
0.0
  0
LINE
  5
15a
100
AcDbEntity
  8
0
 62
7
100
AcDbLine
 10
47.862838
 20
17.580154
 30
0.0
 11
35.249240
 21
17.580154
 31
0.0
  0
LINE
  5
15b
100
AcDbEntity
  8
0
 62
7
100
AcDbLine
 10
35.249240
 20
17.580154
 30
0.0
 11
35.249240
 21
30.193752
 31
0.0
  0
LINE
  5
15c
100
AcDbEntity
  8
0
 62
7
100
AcDbLine
 10
50.249240
 20
30.193752
 30
0.0
 11
62.862836
 21
30.193752
 31
0.0
  0
LINE
  5
15d
100
AcDbEntity
  8
0
 62
7
100
AcDbLine
 10
62.862836
 20
30.193752
 30
0.0
 11
62.862836
 21
17.580154
 31
0.0
  0
LINE
  5
15e
100
AcDbEntity
  8
0
 62
7
100
AcDbLine
 10
62.862836
 20
17.580154
 30
0.0
 11
50.249240
 21
17.580154
 31
0.0
  0
LINE
  5
15f
100
AcDbEntity
  8
0
 62
7
100
AcDbLine
 10
50.249240
 20
17.580154
 30
0.0
 11
50.249240
 21
30.193752
 31
0.0
  0
LINE
  5
160
100
AcDbEntity
  8
0
 62
7
100
AcDbLine
 10
65.249240
 20
30.193752
 30
0.0
 11
77.862836
 21
30.193752
 31
0.0
  0
LINE
  5
161
100
AcDbEntity
  8
0
 62
7
100
AcDbLine
 10
77.862836
 20
30.193752
 30
0.0
 11
77.862836
 21
17.580154
 31
0.0
  0
LINE
  5
162
100
AcDbEntity
  8
0
 62
7
100
AcDbLine
 10
77.862836
 20
17.580154
 30
0.0
 11
65.249240
 21
17.580154
 31
0.0
  0
LINE
  5
163
100
AcDbEntity
  8
0
 62
7
100
AcDbLine
 10
65.249240
 20
17.580154
 30
0.0
 11
65.249240
 21
30.193752
 31
0.0
  0
SPLINE
  5
164
100
AcDbEntity
  8
0
 62
7
100
AcDbSpline
 70
8
 71
3
 72
8
 73
4
 74
0
 40
0
 40
0
 40
0
 40
0
 40
1
 40
1
 40
1
 40
1
 10
101.233429
 20
23.937210
 30
0.0
 10
101.233429
 20
22.683013
 30
0.0
 10
100.564323
 20
21.524088
 30
0.0
 10
99.478157
 20
20.896990
 30
0.0
  0
SPLINE
  5
165
100
AcDbEntity
  8
0
 62
7
100
AcDbSpline
 70
8
 71
3
 72
8
 73
4
 74
0
 40
0
 40
0
 40
0
 40
0
 40
1
 40
1
 40
1
 40
1
 10
99.478157
 20
20.896990
 30
0.0
 10
98.391991
 20
20.269892
 30
0.0
 10
97.053779
 20
20.269892
 30
0.0
 10
95.967613
 20
20.896990
 30
0.0
  0
SPLINE
  5
166
100
AcDbEntity
  8
0
 62
7
100
AcDbSpline
 70
8
 71
3
 72
8
 73
4
 74
0
 40
0
 40
0
 40
0
 40
0
 40
1
 40
1
 40
1
 40
1
 10
95.967613
 20
20.896990
 30
0.0
 10
94.881447
 20
21.524088
 30
0.0
 10
94.212341
 20
22.683013
 30
0.0
 10
94.212341
 20
23.937210
 30
0.0
  0
SPLINE
  5
167
100
AcDbEntity
  8
0
 62
7
100
AcDbSpline
 70
8
 71
3
 72
8
 73
4
 74
0
 40
0
 40
0
 40
0
 40
0
 40
1
 40
1
 40
1
 40
1
 10
94.212341
 20
23.937210
 30
0.0
 10
94.212341
 20
25.191407
 30
0.0
 10
94.881447
 20
26.350332
 30
0.0
 10
95.967613
 20
26.977430
 30
0.0
  0
SPLINE
  5
168
100
AcDbEntity
  8
0
 62
7
100
AcDbSpline
 70
8
 71
3
 72
8
 73
4
 74
0
 40
0
 40
0
 40
0
 40
0
 40
1
 40
1
 40
1
 40
1
 10
95.967613
 20
26.977430
 30
0.0
 10
97.053779
 20
27.604528
 30
0.0
 10
98.391991
 20
27.604528
 30
0.0
 10
99.478157
 20
26.977430
 30
0.0
  0
SPLINE
  5
169
100
AcDbEntity
  8
0
 62
7
100
AcDbSpline
 70
8
 71
3
 72
8
 73
4
 74
0
 40
0
 40
0
 40
0
 40
0
 40
1
 40
1
 40
1
 40
1
 10
99.478157
 20
26.977430
 30
0.0
 10
100.564323
 20
26.350332
 30
0.0
 10
101.233429
 20
25.191407
 30
0.0
 10
101.233429
 20
23.937210
 30
0.0
  0
LINE
  5
16a
100
AcDbEntity
  8
0
 62
7
100
AcDbLine
 10
101.233429
 20
23.937210
 30
0.0
 11
101.233429
 21
23.937210
 31
0.0
  0
SPLINE
  5
16b
100
AcDbEntity
  8
0
 62
7
100
AcDbSpline
 70
8
 71
3
 72
8
 73
4
 74
0
 40
0
 40
0
 40
0
 40
0
 40
1
 40
1
 40
1
 40
1
 10
9.996223
 20
39.501431
 30
0.0
 10
9.996223
 20
38.991885
 30
0.0
 10
9.724384
 20
38.521046
 30
0.0
 10
9.283105
 20
38.266274
 30
0.0
  0
SPLINE
  5
16c
100
AcDbEntity
  8
0
 62
7
100
AcDbSpline
 70
8
 71
3
 72
8
 73
4
 74
0
 40
0
 40
0
 40
0
 40
0
 40
1
 40
1
 40
1
 40
1
 10
9.283105
 20
38.266274
 30
0.0
 10
8.841825
 20
38.011501
 30
0.0
 10
8.298147
 20
38.011501
 30
0.0
 10
7.856868
 20
38.266274
 30
0.0
  0
SPLINE
  5
16d
100
AcDbEntity
  8
0
 62
7
100
AcDbSpline
 70
8
 71
3
 72
8
 73
4
 74
0
 40
0
 40
0
 40
0
 40
0
 40
1
 40
1
 40
1
 40
1
 10
7.856868
 20
38.266274
 30
0.0
 10
7.415589
 20
38.521046
 30
0.0
 10
7.143750
 20
38.991885
 30
0.0
 10
7.143750
 20
39.501431
 30
0.0
  0
SPLINE
  5
16e
100
AcDbEntity
  8
0
 62
7
100
AcDbSpline
 70
8
 71
3
 72
8
 73
4
 74
0
 40
0
 40
0
 40
0
 40
0
 40
1
 40
1
 40
1
 40
1
 10
7.143750
 20
39.501431
 30
0.0
 10
7.143750
 20
40.010976
 30
0.0
 10
7.415589
 20
40.481815
 30
0.0
 10
7.856868
 20
40.736588
 30
0.0
  0
SPLINE
  5
16f
100
AcDbEntity
  8
0
 62
7
100
AcDbSpline
 70
8
 71
3
 72
8
 73
4
 74
0
 40
0
 40
0
 40
0
 40
0
 40
1
 40
1
 40
1
 40
1
 10
7.856868
 20
40.736588
 30
0.0
 10
8.298147
 20
40.991360
 30
0.0
 10
8.841825
 20
40.991360
 30
0.0
 10
9.283105
 20
40.736588
 30
0.0
  0
SPLINE
  5
170
100
AcDbEntity
  8
0
 62
7
100
AcDbSpline
 70
8
 71
3
 72
8
 73
4
 74
0
 40
0
 40
0
 40
0
 40
0
 40
1
 40
1
 40
1
 40
1
 10
9.283105
 20
40.736588
 30
0.0
 10
9.724384
 20
40.481815
 30
0.0
 10
9.996223
 20
40.010976
 30
0.0
 10
9.996223
 20
39.501431
 30
0.0
  0
LINE
  5
171
100
AcDbEntity
  8
0
 62
7
100
AcDbLine
 10
9.996223
 20
39.501431
 30
0.0
 11
9.996223
 21
39.501431
 31
0.0
  0
SPLINE
  5
172
100
AcDbEntity
  8
0
 62
7
100
AcDbSpline
 70
8
 71
3
 72
8
 73
4
 74
0
 40
0
 40
0
 40
0
 40
0
 40
1
 40
1
 40
1
 40
1
 10
42.573645
 20
39.501693
 30
0.0
 10
42.573645
 20
38.992148
 30
0.0
 10
42.301805
 20
38.521308
 30
0.0
 10
41.860526
 20
38.266536
 30
0.0
  0
SPLINE
  5
173
100
AcDbEntity
  8
0
 62
7
100
AcDbSpline
 70
8
 71
3
 72
8
 73
4
 74
0
 40
0
 40
0
 40
0
 40
0
 40
1
 40
1
 40
1
 40
1
 10
41.860526
 20
38.266536
 30
0.0
 10
41.419247
 20
38.011763
 30
0.0
 10
40.875569
 20
38.011763
 30
0.0
 10
40.434290
 20
38.266536
 30
0.0
  0
SPLINE
  5
174
100
AcDbEntity
  8
0
 62
7
100
AcDbSpline
 70
8
 71
3
 72
8
 73
4
 74
0
 40
0
 40
0
 40
0
 40
0
 40
1
 40
1
 40
1
 40
1
 10
40.434290
 20
38.266536
 30
0.0
 10
39.993011
 20
38.521308
 30
0.0
 10
39.721172
 20
38.992148
 30
0.0
 10
39.721172
 20
39.501693
 30
0.0
  0
SPLINE
  5
175
100
AcDbEntity
  8
0
 62
7
100
AcDbSpline
 70
8
 71
3
 72
8
 73
4
 74
0
 40
0
 40
0
 40
0
 40
0
 40
1
 40
1
 40
1
 40
1
 10
39.721172
 20
39.501693
 30
0.0
 10
39.721172
 20
40.011238
 30
0.0
 10
39.993011
 20
40.482077
 30
0.0
 10
40.434290
 20
40.736850
 30
0.0
  0
SPLINE
  5
176
100
AcDbEntity
  8
0
 62
7
100
AcDbSpline
 70
8
 71
3
 72
8
 73
4
 74
0
 40
0
 40
0
 40
0
 40
0
 40
1
 40
1
 40
1
 40
1
 10
40.434290
 20
40.736850
 30
0.0
 10
40.875569
 20
40.991623
 30
0.0
 10
41.419247
 20
40.991623
 30
0.0
 10
41.860526
 20
40.736850
 30
0.0
  0
SPLINE
  5
177
100
AcDbEntity
  8
0
 62
7
100
AcDbSpline
 70
8
 71
3
 72
8
 73
4
 74
0
 40
0
 40
0
 40
0
 40
0
 40
1
 40
1
 40
1
 40
1
 10
41.860526
 20
40.736850
 30
0.0
 10
42.301805
 20
40.482077
 30
0.0
 10
42.573645
 20
40.011238
 30
0.0
 10
42.573645
 20
39.501693
 30
0.0
  0
LINE
  5
178
100
AcDbEntity
  8
0
 62
7
100
AcDbLine
 10
42.573645
 20
39.501693
 30
0.0
 11
42.573645
 21
39.501693
 31
0.0
  0
SPLINE
  5
179
100
AcDbEntity
  8
0
 62
7
100
AcDbSpline
 70
8
 71
3
 72
8
 73
4
 74
0
 40
0
 40
0
 40
0
 40
0
 40
1
 40
1
 40
1
 40
1
 10
64.297853
 20
39.501693
 30
0.0
 10
64.297853
 20
38.992148
 30
0.0
 10
64.026013
 20
38.521308
 30
0.0
 10
63.584734
 20
38.266536
 30
0.0
  0
SPLINE
  5
17a
100
AcDbEntity
  8
0
 62
7
100
AcDbSpline
 70
8
 71
3
 72
8
 73
4
 74
0
 40
0
 40
0
 40
0
 40
0
 40
1
 40
1
 40
1
 40
1
 10
63.584734
 20
38.266536
 30
0.0
 10
63.143455
 20
38.011763
 30
0.0
 10
62.599777
 20
38.011763
 30
0.0
 10
62.158498
 20
38.266536
 30
0.0
  0
SPLINE
  5
17b
100
AcDbEntity
  8
0
 62
7
100
AcDbSpline
 70
8
 71
3
 72
8
 73
4
 74
0
 40
0
 40
0
 40
0
 40
0
 40
1
 40
1
 40
1
 40
1
 10
62.158498
 20
38.266536
 30
0.0
 10
61.717219
 20
38.521308
 30
0.0
 10
61.445380
 20
38.992148
 30
0.0
 10
61.445380
 20
39.501693
 30
0.0
  0
SPLINE
  5
17c
100
AcDbEntity
  8
0
 62
7
100
AcDbSpline
 70
8
 71
3
 72
8
 73
4
 74
0
 40
0
 40
0
 40
0
 40
0
 40
1
 40
1
 40
1
 40
1
 10
61.445380
 20
39.501693
 30
0.0
 10
61.445380
 20
40.011238
 30
0.0
 10
61.717219
 20
40.482077
 30
0.0
 10
62.158498
 20
40.736850
 30
0.0
  0
SPLINE
  5
17d
100
AcDbEntity
  8
0
 62
7
100
AcDbSpline
 70
8
 71
3
 72
8
 73
4
 74
0
 40
0
 40
0
 40
0
 40
0
 40
1
 40
1
 40
1
 40
1
 10
62.158498
 20
40.736850
 30
0.0
 10
62.599777
 20
40.991623
 30
0.0
 10
63.143455
 20
40.991623
 30
0.0
 10
63.584734
 20
40.736850
 30
0.0
  0
SPLINE
  5
17e
100
AcDbEntity
  8
0
 62
7
100
AcDbSpline
 70
8
 71
3
 72
8
 73
4
 74
0
 40
0
 40
0
 40
0
 40
0
 40
1
 40
1
 40
1
 40
1
 10
63.584734
 20
40.736850
 30
0.0
 10
64.026013
 20
40.482077
 30
0.0
 10
64.297853
 20
40.011238
 30
0.0
 10
64.297853
 20
39.501693
 30
0.0
  0
LINE
  5
17f
100
AcDbEntity
  8
0
 62
7
100
AcDbLine
 10
64.297853
 20
39.501693
 30
0.0
 11
64.297853
 21
39.501693
 31
0.0
  0
SPLINE
  5
180
100
AcDbEntity
  8
0
 62
7
100
AcDbSpline
 70
8
 71
3
 72
8
 73
4
 74
0
 40
0
 40
0
 40
0
 40
0
 40
1
 40
1
 40
1
 40
1
 10
118.637287
 20
39.501693
 30
0.0
 10
118.637287
 20
38.992148
 30
0.0
 10
118.365447
 20
38.521308
 30
0.0
 10
117.924168
 20
38.266536
 30
0.0
  0
SPLINE
  5
181
100
AcDbEntity
  8
0
 62
7
100
AcDbSpline
 70
8
 71
3
 72
8
 73
4
 74
0
 40
0
 40
0
 40
0
 40
0
 40
1
 40
1
 40
1
 40
1
 10
117.924168
 20
38.266536
 30
0.0
 10
117.482889
 20
38.011763
 30
0.0
 10
116.939211
 20
38.011763
 30
0.0
 10
116.497932
 20
38.266536
 30
0.0
  0
SPLINE
  5
182
100
AcDbEntity
  8
0
 62
7
100
AcDbSpline
 70
8
 71
3
 72
8
 73
4
 74
0
 40
0
 40
0
 40
0
 40
0
 40
1
 40
1
 40
1
 40
1
 10
116.497932
 20
38.266536
 30
0.0
 10
116.056653
 20
38.521308
 30
0.0
 10
115.784814
 20
38.992148
 30
0.0
 10
115.784814
 20
39.501693
 30
0.0
  0
SPLINE
  5
183
100
AcDbEntity
  8
0
 62
7
100
AcDbSpline
 70
8
 71
3
 72
8
 73
4
 74
0
 40
0
 40
0
 40
0
 40
0
 40
1
 40
1
 40
1
 40
1
 10
115.784814
 20
39.501693
 30
0.0
 10
115.784814
 20
40.011238
 30
0.0
 10
116.056653
 20
40.482077
 30
0.0
 10
116.497932
 20
40.736850
 30
0.0
  0
SPLINE
  5
184
100
AcDbEntity
  8
0
 62
7
100
AcDbSpline
 70
8
 71
3
 72
8
 73
4
 74
0
 40
0
 40
0
 40
0
 40
0
 40
1
 40
1
 40
1
 40
1
 10
116.497932
 20
40.736850
 30
0.0
 10
116.939211
 20
40.991623
 30
0.0
 10
117.482889
 20
40.991623
 30
0.0
 10
117.924168
 20
40.736850
 30
0.0
  0
SPLINE
  5
185
100
AcDbEntity
  8
0
 62
7
100
AcDbSpline
 70
8
 71
3
 72
8
 73
4
 74
0
 40
0
 40
0
 40
0
 40
0
 40
1
 40
1
 40
1
 40
1
 10
117.924168
 20
40.736850
 30
0.0
 10
118.365447
 20
40.482077
 30
0.0
 10
118.637287
 20
40.011238
 30
0.0
 10
118.637287
 20
39.501693
 30
0.0
  0
LINE
  5
186
100
AcDbEntity
  8
0
 62
7
100
AcDbLine
 10
118.637287
 20
39.501693
 30
0.0
 11
118.637287
 21
39.501693
 31
0.0
  0
SPLINE
  5
187
100
AcDbEntity
  8
0
 62
7
100
AcDbSpline
 70
8
 71
3
 72
8
 73
4
 74
0
 40
0
 40
0
 40
0
 40
0
 40
1
 40
1
 40
1
 40
1
 10
9.996223
 20
8.685692
 30
0.0
 10
9.996223
 20
8.176147
 30
0.0
 10
9.724384
 20
7.705308
 30
0.0
 10
9.283105
 20
7.450535
 30
0.0
  0
SPLINE
  5
188
100
AcDbEntity
  8
0
 62
7
100
AcDbSpline
 70
8
 71
3
 72
8
 73
4
 74
0
 40
0
 40
0
 40
0
 40
0
 40
1
 40
1
 40
1
 40
1
 10
9.283105
 20
7.450535
 30
0.0
 10
8.841825
 20
7.195762
 30
0.0
 10
8.298147
 20
7.195762
 30
0.0
 10
7.856868
 20
7.450535
 30
0.0
  0
SPLINE
  5
189
100
AcDbEntity
  8
0
 62
7
100
AcDbSpline
 70
8
 71
3
 72
8
 73
4
 74
0
 40
0
 40
0
 40
0
 40
0
 40
1
 40
1
 40
1
 40
1
 10
7.856868
 20
7.450535
 30
0.0
 10
7.415589
 20
7.705308
 30
0.0
 10
7.143750
 20
8.176147
 30
0.0
 10
7.143750
 20
8.685692
 30
0.0
  0
SPLINE
  5
18a
100
AcDbEntity
  8
0
 62
7
100
AcDbSpline
 70
8
 71
3
 72
8
 73
4
 74
0
 40
0
 40
0
 40
0
 40
0
 40
1
 40
1
 40
1
 40
1
 10
7.143750
 20
8.685692
 30
0.0
 10
7.143750
 20
9.195237
 30
0.0
 10
7.415589
 20
9.666076
 30
0.0
 10
7.856868
 20
9.920849
 30
0.0
  0
SPLINE
  5
18b
100
AcDbEntity
  8
0
 62
7
100
AcDbSpline
 70
8
 71
3
 72
8
 73
4
 74
0
 40
0
 40
0
 40
0
 40
0
 40
1
 40
1
 40
1
 40
1
 10
7.856868
 20
9.920849
 30
0.0
 10
8.298147
 20
10.175622
 30
0.0
 10
8.841825
 20
10.175622
 30
0.0
 10
9.283105
 20
9.920849
 30
0.0
  0
SPLINE
  5
18c
100
AcDbEntity
  8
0
 62
7
100
AcDbSpline
 70
8
 71
3
 72
8
 73
4
 74
0
 40
0
 40
0
 40
0
 40
0
 40
1
 40
1
 40
1
 40
1
 10
9.283105
 20
9.920849
 30
0.0
 10
9.724384
 20
9.666076
 30
0.0
 10
9.996223
 20
9.195237
 30
0.0
 10
9.996223
 20
8.685692
 30
0.0
  0
LINE
  5
18d
100
AcDbEntity
  8
0
 62
7
100
AcDbLine
 10
9.996223
 20
8.685692
 30
0.0
 11
9.996223
 21
8.685692
 31
0.0
  0
SPLINE
  5
18e
100
AcDbEntity
  8
0
 62
7
100
AcDbSpline
 70
8
 71
3
 72
8
 73
4
 74
0
 40
0
 40
0
 40
0
 40
0
 40
1
 40
1
 40
1
 40
1
 10
64.297853
 20
8.685955
 30
0.0
 10
64.297853
 20
8.176410
 30
0.0
 10
64.026013
 20
7.705571
 30
0.0
 10
63.584734
 20
7.450798
 30
0.0
  0
SPLINE
  5
18f
100
AcDbEntity
  8
0
 62
7
100
AcDbSpline
 70
8
 71
3
 72
8
 73
4
 74
0
 40
0
 40
0
 40
0
 40
0
 40
1
 40
1
 40
1
 40
1
 10
63.584734
 20
7.450798
 30
0.0
 10
63.143455
 20
7.196025
 30
0.0
 10
62.599777
 20
7.196025
 30
0.0
 10
62.158498
 20
7.450798
 30
0.0
  0
SPLINE
  5
190
100
AcDbEntity
  8
0
 62
7
100
AcDbSpline
 70
8
 71
3
 72
8
 73
4
 74
0
 40
0
 40
0
 40
0
 40
0
 40
1
 40
1
 40
1
 40
1
 10
62.158498
 20
7.450798
 30
0.0
 10
61.717219
 20
7.705571
 30
0.0
 10
61.445380
 20
8.176410
 30
0.0
 10
61.445380
 20
8.685955
 30
0.0
  0
SPLINE
  5
191
100
AcDbEntity
  8
0
 62
7
100
AcDbSpline
 70
8
 71
3
 72
8
 73
4
 74
0
 40
0
 40
0
 40
0
 40
0
 40
1
 40
1
 40
1
 40
1
 10
61.445380
 20
8.685955
 30
0.0
 10
61.445380
 20
9.195500
 30
0.0
 10
61.717219
 20
9.666339
 30
0.0
 10
62.158498
 20
9.921112
 30
0.0
  0
SPLINE
  5
192
100
AcDbEntity
  8
0
 62
7
100
AcDbSpline
 70
8
 71
3
 72
8
 73
4
 74
0
 40
0
 40
0
 40
0
 40
0
 40
1
 40
1
 40
1
 40
1
 10
62.158498
 20
9.921112
 30
0.0
 10
62.599777
 20
10.175885
 30
0.0
 10
63.143455
 20
10.175885
 30
0.0
 10
63.584734
 20
9.921112
 30
0.0
  0
SPLINE
  5
193
100
AcDbEntity
  8
0
 62
7
100
AcDbSpline
 70
8
 71
3
 72
8
 73
4
 74
0
 40
0
 40
0
 40
0
 40
0
 40
1
 40
1
 40
1
 40
1
 10
63.584734
 20
9.921112
 30
0.0
 10
64.026013
 20
9.666339
 30
0.0
 10
64.297853
 20
9.195500
 30
0.0
 10
64.297853
 20
8.685955
 30
0.0
  0
LINE
  5
194
100
AcDbEntity
  8
0
 62
7
100
AcDbLine
 10
64.297853
 20
8.685955
 30
0.0
 11
64.297853
 21
8.685955
 31
0.0
  0
SPLINE
  5
195
100
AcDbEntity
  8
0
 62
7
100
AcDbSpline
 70
8
 71
3
 72
8
 73
4
 74
0
 40
0
 40
0
 40
0
 40
0
 40
1
 40
1
 40
1
 40
1
 10
118.637287
 20
8.685955
 30
0.0
 10
118.637287
 20
8.176410
 30
0.0
 10
118.365447
 20
7.705571
 30
0.0
 10
117.924168
 20
7.450798
 30
0.0
  0
SPLINE
  5
196
100
AcDbEntity
  8
0
 62
7
100
AcDbSpline
 70
8
 71
3
 72
8
 73
4
 74
0
 40
0
 40
0
 40
0
 40
0
 40
1
 40
1
 40
1
 40
1
 10
117.924168
 20
7.450798
 30
0.0
 10
117.482889
 20
7.196025
 30
0.0
 10
116.939211
 20
7.196025
 30
0.0
 10
116.497932
 20
7.450798
 30
0.0
  0
SPLINE
  5
197
100
AcDbEntity
  8
0
 62
7
100
AcDbSpline
 70
8
 71
3
 72
8
 73
4
 74
0
 40
0
 40
0
 40
0
 40
0
 40
1
 40
1
 40
1
 40
1
 10
116.497932
 20
7.450798
 30
0.0
 10
116.056653
 20
7.705571
 30
0.0
 10
115.784814
 20
8.176410
 30
0.0
 10
115.784814
 20
8.685955
 30
0.0
  0
SPLINE
  5
198
100
AcDbEntity
  8
0
 62
7
100
AcDbSpline
 70
8
 71
3
 72
8
 73
4
 74
0
 40
0
 40
0
 40
0
 40
0
 40
1
 40
1
 40
1
 40
1
 10
115.784814
 20
8.685955
 30
0.0
 10
115.784814
 20
9.195500
 30
0.0
 10
116.056653
 20
9.666339
 30
0.0
 10
116.497932
 20
9.921112
 30
0.0
  0
SPLINE
  5
199
100
AcDbEntity
  8
0
 62
7
100
AcDbSpline
 70
8
 71
3
 72
8
 73
4
 74
0
 40
0
 40
0
 40
0
 40
0
 40
1
 40
1
 40
1
 40
1
 10
116.497932
 20
9.921112
 30
0.0
 10
116.939211
 20
10.175885
 30
0.0
 10
117.482889
 20
10.175885
 30
0.0
 10
117.924168
 20
9.921112
 30
0.0
  0
SPLINE
  5
19a
100
AcDbEntity
  8
0
 62
7
100
AcDbSpline
 70
8
 71
3
 72
8
 73
4
 74
0
 40
0
 40
0
 40
0
 40
0
 40
1
 40
1
 40
1
 40
1
 10
117.924168
 20
9.921112
 30
0.0
 10
118.365447
 20
9.666339
 30
0.0
 10
118.637287
 20
9.195500
 30
0.0
 10
118.637287
 20
8.685955
 30
0.0
  0
LINE
  5
19b
100
AcDbEntity
  8
0
 62
7
100
AcDbLine
 10
118.637287
 20
8.685955
 30
0.0
 11
118.637287
 21
8.685955
 31
0.0
  0
SPLINE
  5
19c
100
AcDbEntity
  8
0
 62
7
100
AcDbSpline
 70
8
 71
3
 72
8
 73
4
 74
0
 40
0
 40
0
 40
0
 40
0
 40
1
 40
1
 40
1
 40
1
 10
18.064949
 20
23.964693
 30
0.0
 10
18.064949
 20
23.455148
 30
0.0
 10
17.793109
 20
22.984309
 30
0.0
 10
17.351830
 20
22.729536
 30
0.0
  0
SPLINE
  5
19d
100
AcDbEntity
  8
0
 62
7
100
AcDbSpline
 70
8
 71
3
 72
8
 73
4
 74
0
 40
0
 40
0
 40
0
 40
0
 40
1
 40
1
 40
1
 40
1
 10
17.351830
 20
22.729536
 30
0.0
 10
16.910551
 20
22.474763
 30
0.0
 10
16.366873
 20
22.474763
 30
0.0
 10
15.925594
 20
22.729536
 30
0.0
  0
SPLINE
  5
19e
100
AcDbEntity
  8
0
 62
7
100
AcDbSpline
 70
8
 71
3
 72
8
 73
4
 74
0
 40
0
 40
0
 40
0
 40
0
 40
1
 40
1
 40
1
 40
1
 10
15.925594
 20
22.729536
 30
0.0
 10
15.484315
 20
22.984309
 30
0.0
 10
15.212476
 20
23.455148
 30
0.0
 10
15.212476
 20
23.964693
 30
0.0
  0
SPLINE
  5
19f
100
AcDbEntity
  8
0
 62
7
100
AcDbSpline
 70
8
 71
3
 72
8
 73
4
 74
0
 40
0
 40
0
 40
0
 40
0
 40
1
 40
1
 40
1
 40
1
 10
15.212476
 20
23.964693
 30
0.0
 10
15.212476
 20
24.474238
 30
0.0
 10
15.484315
 20
24.945077
 30
0.0
 10
15.925594
 20
25.199850
 30
0.0
  0
SPLINE
  5
1a0
100
AcDbEntity
  8
0
 62
7
100
AcDbSpline
 70
8
 71
3
 72
8
 73
4
 74
0
 40
0
 40
0
 40
0
 40
0
 40
1
 40
1
 40
1
 40
1
 10
15.925594
 20
25.199850
 30
0.0
 10
16.366873
 20
25.454623
 30
0.0
 10
16.910551
 20
25.454623
 30
0.0
 10
17.351830
 20
25.199850
 30
0.0
  0
SPLINE
  5
1a1
100
AcDbEntity
  8
0
 62
7
100
AcDbSpline
 70
8
 71
3
 72
8
 73
4
 74
0
 40
0
 40
0
 40
0
 40
0
 40
1
 40
1
 40
1
 40
1
 10
17.351830
 20
25.199850
 30
0.0
 10
17.793109
 20
24.945077
 30
0.0
 10
18.064949
 20
24.474238
 30
0.0
 10
18.064949
 20
23.964693
 30
0.0
  0
LINE
  5
1a2
100
AcDbEntity
  8
0
 62
7
100
AcDbLine
 10
18.064949
 20
23.964693
 30
0.0
 11
18.064949
 21
23.964693
 31
0.0
  0
SPLINE
  5
1a3
100
AcDbEntity
  8
0
 62
7
100
AcDbSpline
 70
8
 71
3
 72
8
 73
4
 74
0
 40
0
 40
0
 40
0
 40
0
 40
1
 40
1
 40
1
 40
1
 10
110.574927
 20
23.964890
 30
0.0
 10
110.574927
 20
23.455345
 30
0.0
 10
110.303087
 20
22.984506
 30
0.0
 10
109.861808
 20
22.729733
 30
0.0
  0
SPLINE
  5
1a4
100
AcDbEntity
  8
0
 62
7
100
AcDbSpline
 70
8
 71
3
 72
8
 73
4
 74
0
 40
0
 40
0
 40
0
 40
0
 40
1
 40
1
 40
1
 40
1
 10
109.861808
 20
22.729733
 30
0.0
 10
109.420529
 20
22.474960
 30
0.0
 10
108.876851
 20
22.474960
 30
0.0
 10
108.435572
 20
22.729733
 30
0.0
  0
SPLINE
  5
1a5
100
AcDbEntity
  8
0
 62
7
100
AcDbSpline
 70
8
 71
3
 72
8
 73
4
 74
0
 40
0
 40
0
 40
0
 40
0
 40
1
 40
1
 40
1
 40
1
 10
108.435572
 20
22.729733
 30
0.0
 10
107.994293
 20
22.984506
 30
0.0
 10
107.722454
 20
23.455345
 30
0.0
 10
107.722454
 20
23.964890
 30
0.0
  0
SPLINE
  5
1a6
100
AcDbEntity
  8
0
 62
7
100
AcDbSpline
 70
8
 71
3
 72
8
 73
4
 74
0
 40
0
 40
0
 40
0
 40
0
 40
1
 40
1
 40
1
 40
1
 10
107.722454
 20
23.964890
 30
0.0
 10
107.722454
 20
24.474435
 30
0.0
 10
107.994293
 20
24.945274
 30
0.0
 10
108.435572
 20
25.200047
 30
0.0
  0
SPLINE
  5
1a7
100
AcDbEntity
  8
0
 62
7
100
AcDbSpline
 70
8
 71
3
 72
8
 73
4
 74
0
 40
0
 40
0
 40
0
 40
0
 40
1
 40
1
 40
1
 40
1
 10
108.435572
 20
25.200047
 30
0.0
 10
108.876851
 20
25.454820
 30
0.0
 10
109.420529
 20
25.454820
 30
0.0
 10
109.861808
 20
25.200047
 30
0.0
  0
SPLINE
  5
1a8
100
AcDbEntity
  8
0
 62
7
100
AcDbSpline
 70
8
 71
3
 72
8
 73
4
 74
0
 40
0
 40
0
 40
0
 40
0
 40
1
 40
1
 40
1
 40
1
 10
109.861808
 20
25.200047
 30
0.0
 10
110.303087
 20
24.945274
 30
0.0
 10
110.574927
 20
24.474435
 30
0.0
 10
110.574927
 20
23.964890
 30
0.0
  0
LINE
  5
1a9
100
AcDbEntity
  8
0
 62
7
100
AcDbLine
 10
110.574927
 20
23.964890
 30
0.0
 11
110.574927
 21
23.964890
 31
0.0
  0
ENDSEC
  0
SECTION
  2
OBJECTS
  0
DICTIONARY
  5
C
330
0
100
AcDbDictionary
  3
ACAD_GROUP
350
D
  3
ACAD_MLINESTYLE
350
17
  0
DICTIONARY
  5
D
330
C
100
AcDbDictionary
  0
DICTIONARY
  5
1A
330
C
100
AcDbDictionary
  0
DICTIONARY
  5
17
330
C
100
AcDbDictionary
  3
STANDARD
350
18
  0
DICTIONARY
  5
19
330
C
100
AcDbDictionary
  0
ENDSEC
  0
EOF
