<?xml version="1.0" encoding="UTF-8" standalone="no"?>
<svg
   xmlns:dc="http://purl.org/dc/elements/1.1/"
   xmlns:cc="http://creativecommons.org/ns#"
   xmlns:rdf="http://www.w3.org/1999/02/22-rdf-syntax-ns#"
   xmlns:svg="http://www.w3.org/2000/svg"
   xmlns="http://www.w3.org/2000/svg"
   xmlns:sodipodi="http://sodipodi.sourceforge.net/DTD/sodipodi-0.dtd"
   xmlns:inkscape="http://www.inkscape.org/namespaces/inkscape"
   width="336.802mm"
   height="127.251mm"
   viewBox="0.000 0.000 336.802 127.251"
   version="1.1"
   id="svg2258"
   sodipodi:docname="closed_layer_v2.svg"
   inkscape:version="1.0 (4035a4fb49, 2020-05-01)">
  <metadata
     id="metadata2264">
    <rdf:RDF>
      <cc:Work
         rdf:about="">
        <dc:format>image/svg+xml</dc:format>
        <dc:type
           rdf:resource="http://purl.org/dc/dcmitype/StillImage" />
        <dc:title />
      </cc:Work>
    </rdf:RDF>
  </metadata>
  <defs
     id="defs2262" />
  <sodipodi:namedview
     inkscape:document-rotation="0"
     pagecolor="#ffffff"
     bordercolor="#666666"
     borderopacity="1"
     objecttolerance="10"
     gridtolerance="10"
     guidetolerance="10"
     inkscape:pageopacity="0"
     inkscape:pageshadow="2"
     inkscape:window-width="1920"
     inkscape:window-height="1017"
     id="namedview2260"
     showgrid="false"
     inkscape:zoom="5.3050081"
     inkscape:cx="93.457638"
     inkscape:cy="73.343323"
     inkscape:window-x="-8"
     inkscape:window-y="240"
     inkscape:window-maximized="1"
     inkscape:current-layer="svg2258" />
  <polygon
     transform="matrix(-1,0,0,1,336.802,0)"
     points="329.958,5.007 330.114,5.025 330.268,5.056 330.42,5.098 330.567,5.153 330.709,5.218 330.846,5.295 330.977,5.382 331.1,5.48 331.216,5.586 331.322,5.702 331.42,5.825 331.507,5.956 331.584,6.093 331.649,6.235 331.704,6.382 331.746,6.534 331.777,6.688 331.795,6.844 331.802,7.001 331.802,120.251 331.795,120.408 331.777,120.564 331.746,120.718 331.704,120.87 331.649,121.017 331.584,121.159 331.507,121.296 331.42,121.427 331.322,121.55 331.216,121.666 331.1,121.772 330.977,121.87 330.846,121.957 330.709,122.034 330.567,122.099 330.42,122.154 330.268,122.196 330.114,122.227 329.958,122.245 329.802,122.251 7.001,122.251 6.844,122.245 6.688,122.227 6.534,122.196 6.382,122.154 6.235,122.099 6.093,122.034 5.956,121.957 5.825,121.87 5.702,121.772 5.586,121.666 5.48,121.55 5.382,121.427 5.295,121.296 5.218,121.159 5.153,121.017 5.098,120.87 5.056,120.718 5.025,120.564 5.007,120.408 5,120.252 5.001,7.001 5.007,6.844 5.025,6.688 5.056,6.534 5.098,6.382 5.153,6.235 5.218,6.093 5.295,5.956 5.382,5.825 5.48,5.702 5.586,5.586 5.702,5.48 5.825,5.382 5.956,5.295 6.093,5.218 6.235,5.153 6.382,5.098 6.534,5.056 6.688,5.025 6.844,5.007 7.001,5 329.802,5.001 "
     style="fill:none;stroke:#000000;stroke-width:0.05mm"
     id="polygon2230" />
  <polygon
     transform="matrix(-1,0,0,1,336.802,0)"
     points="7.663,117.599 7.348,117.914 7.145,118.311 7.075,118.751 7.145,119.192 7.348,119.589 7.663,119.904 8.059,120.107 8.5,120.176 8.941,120.107 9.338,119.904 9.653,119.589 9.856,119.192 9.925,118.751 9.856,118.311 9.653,117.914 9.338,117.599 8.941,117.396 8.5,117.327 8.059,117.396 "
     style="fill:none;stroke:#000000;stroke-width:0.05mm"
     id="polygon2232" />
  <polygon
     transform="matrix(-1,0,0,1,336.802,0)"
     points="87.613,117.599 87.298,117.914 87.095,118.311 87.026,118.751 87.095,119.192 87.298,119.589 87.613,119.904 88.01,120.107 88.451,120.176 88.891,120.107 89.288,119.904 89.604,119.589 89.806,119.192 89.876,118.751 89.806,118.311 89.604,117.914 89.288,117.599 88.891,117.396 88.451,117.327 88.01,117.396 "
     style="fill:none;stroke:#000000;stroke-width:0.05mm"
     id="polygon2234" />
  <polygon
     transform="matrix(-1,0,0,1,336.802,0)"
     points="167.563,117.599 167.248,117.914 167.046,118.311 166.976,118.751 167.046,119.192 167.248,119.589 167.563,119.904 167.961,120.107 168.401,120.176 168.841,120.107 169.239,119.904 169.554,119.589 169.756,119.192 169.826,118.751 169.756,118.311 169.554,117.914 169.239,117.599 168.841,117.396 168.401,117.327 167.961,117.396 "
     style="fill:none;stroke:#000000;stroke-width:0.05mm"
     id="polygon2236" />
  <polygon
     transform="matrix(-1,0,0,1,336.802,0)"
     points="247.514,117.599 247.198,117.914 246.996,118.311 246.926,118.751 246.996,119.192 247.198,119.589 247.514,119.904 247.911,120.107 248.351,120.176 248.792,120.107 249.189,119.904 249.504,119.589 249.707,119.192 249.776,118.751 249.707,118.311 249.504,117.914 249.189,117.599 248.792,117.396 248.351,117.327 247.911,117.396 "
     style="fill:none;stroke:#000000;stroke-width:0.05mm"
     id="polygon2238" />
  <polygon
     transform="matrix(-1,0,0,1,336.802,0)"
     points="327.464,117.599 327.149,117.914 326.946,118.311 326.877,118.751 326.946,119.192 327.149,119.589 327.464,119.904 327.861,120.107 328.302,120.176 328.742,120.107 329.139,119.904 329.454,119.589 329.657,119.192 329.727,118.751 329.657,118.311 329.454,117.914 329.139,117.599 328.742,117.396 328.302,117.327 327.861,117.396 "
     style="fill:none;stroke:#000000;stroke-width:0.05mm"
     id="polygon2240" />
  <polygon
     transform="matrix(-1,0,0,1,336.802,0)"
     points="12.001,115.251 324.802,115.251 324.802,12.001 12.001,12.001 "
     style="fill:none;stroke:#000000;stroke-width:0.05mm"
     id="polygon2242" />
  <polygon
     transform="matrix(-1,0,0,1,336.802,0)"
     points="7.663,62.473 7.348,62.788 7.145,63.186 7.075,63.626 7.145,64.066 7.348,64.463 7.663,64.779 8.059,64.981 8.5,65.051 8.941,64.981 9.338,64.779 9.653,64.463 9.856,64.066 9.925,63.626 9.856,63.186 9.653,62.788 9.338,62.473 8.941,62.271 8.5,62.201 8.059,62.271 "
     style="fill:none;stroke:#000000;stroke-width:0.05mm"
     id="polygon2244" />
  <polygon
     transform="matrix(-1,0,0,1,336.802,0)"
     points="327.464,62.473 327.149,62.788 326.946,63.186 326.877,63.626 326.946,64.066 327.149,64.463 327.464,64.779 327.861,64.981 328.302,65.051 328.742,64.981 329.139,64.779 329.454,64.463 329.657,64.066 329.727,63.626 329.657,63.186 329.454,62.788 329.139,62.473 328.742,62.271 328.302,62.201 327.861,62.271 "
     style="fill:none;stroke:#000000;stroke-width:0.05mm"
     id="polygon2246" />
  <polygon
     transform="matrix(-1,0,0,1,336.802,0)"
     points="7.663,7.348 7.348,7.663 7.145,8.059 7.075,8.501 7.145,8.941 7.348,9.338 7.663,9.653 8.059,9.856 8.5,9.926 8.941,9.856 9.338,9.653 9.653,9.338 9.856,8.941 9.925,8.501 9.856,8.059 9.653,7.663 9.338,7.348 8.941,7.145 8.5,7.076 8.059,7.145 "
     style="fill:none;stroke:#000000;stroke-width:0.05mm"
     id="polygon2248" />
  <polygon
     transform="matrix(-1,0,0,1,336.802,0)"
     points="327.464,7.348 327.149,7.663 326.946,8.059 326.877,8.501 326.946,8.941 327.149,9.338 327.464,9.653 327.861,9.856 328.302,9.926 328.742,9.856 329.139,9.653 329.454,9.338 329.657,8.941 329.727,8.501 329.657,8.059 329.454,7.663 329.139,7.348 328.742,7.145 328.302,7.076 327.861,7.145 "
     style="fill:none;stroke:#000000;stroke-width:0.05mm"
     id="polygon2250" />
  <polygon
     transform="matrix(-1,0,0,1,336.802,0)"
     points="247.514,7.348 247.198,7.663 246.996,8.059 246.926,8.501 246.996,8.941 247.198,9.338 247.514,9.653 247.911,9.856 248.351,9.926 248.792,9.856 249.189,9.653 249.504,9.338 249.707,8.941 249.776,8.501 249.707,8.059 249.504,7.663 249.189,7.348 248.792,7.145 248.351,7.076 247.911,7.145 "
     style="fill:none;stroke:#000000;stroke-width:0.05mm"
     id="polygon2252" />
  <polygon
     points="167.248,7.663 167.046,8.059 166.976,8.501 167.046,8.941 167.248,9.338 167.563,9.653 167.961,9.856 168.401,9.926 168.841,9.856 169.239,9.653 169.554,9.338 169.756,8.941 169.826,8.501 169.756,8.059 169.554,7.663 169.239,7.348 168.841,7.145 168.401,7.076 167.961,7.145 167.563,7.348 "
     style="fill:none;stroke:#000000;stroke-width:0.05mm"
     id="polygon2254"
     transform="matrix(-1,0,0,1,350.72353,0)" />
  <polygon
     transform="matrix(-1,0,0,1,336.802,0)"
     points="87.613,7.348 87.298,7.663 87.095,8.059 87.026,8.501 87.095,8.941 87.298,9.338 87.613,9.653 88.01,9.856 88.451,9.926 88.891,9.856 89.288,9.653 89.604,9.338 89.806,8.941 89.876,8.501 89.806,8.059 89.604,7.663 89.288,7.348 88.891,7.145 88.451,7.076 88.01,7.145 "
     style="fill:none;stroke:#000000;stroke-width:0.05mm"
     id="polygon2256" />
  <text
     id="text903"
     y="9.6569366"
     x="11.868514"
     style="font-style:normal;font-variant:normal;font-weight:normal;font-stretch:normal;font-size:4.23333px;line-height:1.25;font-family:Consolas;-inkscape-font-specification:'Consolas, Normal';font-variant-ligatures:normal;font-variant-caps:normal;font-variant-numeric:normal;font-feature-settings:normal;text-align:start;letter-spacing:0px;word-spacing:0px;writing-mode:lr-tb;text-anchor:start;display:inline;fill:#000000;fill-opacity:1;stroke:none;stroke-width:0.264583"
     xml:space="preserve"><tspan
       style="font-style:normal;font-variant:normal;font-weight:normal;font-stretch:normal;font-size:4.23333px;font-family:Consolas;-inkscape-font-specification:'Consolas, Normal';font-variant-ligatures:normal;font-variant-caps:normal;font-variant-numeric:normal;font-feature-settings:normal;text-align:start;writing-mode:lr-tb;text-anchor:start;stroke-width:0.264583"
       y="9.6569366"
       x="11.868514"
       id="tspan901"
       sodipodi:role="line">v3</tspan></text>
  <polygon
     points="87.095,8.059 87.026,8.501 87.095,8.941 87.298,9.338 87.613,9.653 88.01,9.856 88.451,9.926 88.891,9.856 89.288,9.653 89.604,9.338 89.806,8.941 89.876,8.501 89.806,8.059 89.604,7.663 89.288,7.348 88.891,7.145 88.451,7.076 88.01,7.145 87.613,7.348 87.298,7.663 "
     style="display:inline;fill:none;stroke:#000000;stroke-width:0.05mm"
     id="polygon2539-6-9"
     transform="matrix(1,0,0,-1,66.038629,17.001123)" />
</svg>
