%TF.GenerationSoftware,KiCad,Pcbnew,(5.1.4)-1*%
%TF.CreationDate,2021-05-16T21:03:27-04:00*%
%TF.ProjectId,QAZ_65,51415a5f-3635-42e6-9b69-6361645f7063,v1.1*%
%TF.SameCoordinates,Original*%
%TF.FileFunction,Legend,Bot*%
%TF.FilePolarity,Positive*%
%FSLAX46Y46*%
G04 Gerber Fmt 4.6, Leading zero omitted, Abs format (unit mm)*
G04 Created by KiCad (PCBNEW (5.1.4)-1) date 2021-05-16 21:03:27*
%MOMM*%
%LPD*%
G04 APERTURE LIST*
%ADD10C,0.120000*%
%ADD11C,0.150000*%
G04 APERTURE END LIST*
D10*
%TO.C,SW29*%
X240301000Y-182293000D02*
X240301000Y-168323000D01*
X226331000Y-182293000D02*
X240301000Y-182293000D01*
X226331000Y-168323000D02*
X226331000Y-182293000D01*
X240301000Y-168323000D02*
X226331000Y-168323000D01*
%TO.C,SW47*%
X152476000Y-182363000D02*
X152476000Y-168393000D01*
X138506000Y-182363000D02*
X152476000Y-182363000D01*
X138506000Y-168393000D02*
X138506000Y-182363000D01*
X152476000Y-168393000D02*
X138506000Y-168393000D01*
%TO.C,SW52*%
X133426000Y-168393000D02*
X119456000Y-168393000D01*
X119456000Y-168393000D02*
X119456000Y-182363000D01*
X119456000Y-182363000D02*
X133426000Y-182363000D01*
X133426000Y-182363000D02*
X133426000Y-168393000D01*
%TO.C,SW20*%
X280726000Y-163313000D02*
X280726000Y-149343000D01*
X266756000Y-163313000D02*
X280726000Y-163313000D01*
X266756000Y-149343000D02*
X266756000Y-163313000D01*
X280726000Y-149343000D02*
X266756000Y-149343000D01*
%TO.C,R15*%
X211897267Y-85918000D02*
X211554733Y-85918000D01*
X211897267Y-86938000D02*
X211554733Y-86938000D01*
%TO.C,REF\002A\002A*%
X186270000Y-127278000D02*
G75*
G03X186270000Y-127278000I-2794000J0D01*
G01*
X324270000Y-147528000D02*
G75*
G03X324270000Y-147528000I-2794000J0D01*
G01*
X129520000Y-147528000D02*
G75*
G03X129520000Y-147528000I-2794000J0D01*
G01*
X107270000Y-127278000D02*
G75*
G03X107270000Y-127278000I-2794000J0D01*
G01*
X229270000Y-147528000D02*
G75*
G03X229270000Y-147528000I-2794000J0D01*
G01*
X281270000Y-127278000D02*
G75*
G03X281270000Y-127278000I-2794000J0D01*
G01*
%TO.C,R33*%
X338116000Y-170056733D02*
X338116000Y-170399267D01*
X339136000Y-170056733D02*
X339136000Y-170399267D01*
%TO.C,R32*%
X339716000Y-170056733D02*
X339716000Y-170399267D01*
X340736000Y-170056733D02*
X340736000Y-170399267D01*
%TO.C,R31*%
X335616000Y-170056733D02*
X335616000Y-170399267D01*
X336636000Y-170056733D02*
X336636000Y-170399267D01*
%TO.C,R30*%
X287366000Y-168756733D02*
X287366000Y-169099267D01*
X288386000Y-168756733D02*
X288386000Y-169099267D01*
%TO.C,R29*%
X289116000Y-168756733D02*
X289116000Y-169099267D01*
X290136000Y-168756733D02*
X290136000Y-169099267D01*
%TO.C,R28*%
X285616000Y-168756733D02*
X285616000Y-169099267D01*
X286636000Y-168756733D02*
X286636000Y-169099267D01*
%TO.C,R24*%
X173116000Y-170506733D02*
X173116000Y-170849267D01*
X174136000Y-170506733D02*
X174136000Y-170849267D01*
%TO.C,R23*%
X174866000Y-170506733D02*
X174866000Y-170849267D01*
X175886000Y-170506733D02*
X175886000Y-170849267D01*
%TO.C,R22*%
X176616000Y-170506733D02*
X176616000Y-170849267D01*
X177636000Y-170506733D02*
X177636000Y-170849267D01*
%TO.C,SW24*%
X261726000Y-149343000D02*
X247756000Y-149343000D01*
X247756000Y-149343000D02*
X247756000Y-163313000D01*
X247756000Y-163313000D02*
X261726000Y-163313000D01*
X261726000Y-163313000D02*
X261726000Y-149343000D01*
%TO.C,SW50*%
X157101000Y-144363000D02*
X157101000Y-130393000D01*
X143131000Y-144363000D02*
X157101000Y-144363000D01*
X143131000Y-130393000D02*
X143131000Y-144363000D01*
X157101000Y-130393000D02*
X143131000Y-130393000D01*
%TO.C,SW63*%
X95451000Y-149343000D02*
X81481000Y-149343000D01*
X81481000Y-149343000D02*
X81481000Y-163313000D01*
X81481000Y-163313000D02*
X95451000Y-163313000D01*
X95451000Y-163313000D02*
X95451000Y-149343000D01*
%TO.C,SW33*%
X223726000Y-149343000D02*
X209756000Y-149343000D01*
X209756000Y-149343000D02*
X209756000Y-163313000D01*
X209756000Y-163313000D02*
X223726000Y-163313000D01*
X223726000Y-163313000D02*
X223726000Y-149343000D01*
%TO.C,SW2*%
X361451000Y-106313000D02*
X361451000Y-92343000D01*
X347481000Y-106313000D02*
X361451000Y-106313000D01*
X347481000Y-92343000D02*
X347481000Y-106313000D01*
X361451000Y-92343000D02*
X347481000Y-92343000D01*
%TO.C,SW3*%
X356701000Y-125313000D02*
X356701000Y-111343000D01*
X342731000Y-125313000D02*
X356701000Y-125313000D01*
X342731000Y-111343000D02*
X342731000Y-125313000D01*
X356701000Y-111343000D02*
X342731000Y-111343000D01*
%TO.C,SW4*%
X354301000Y-144363000D02*
X354301000Y-130393000D01*
X340331000Y-144363000D02*
X354301000Y-144363000D01*
X340331000Y-130393000D02*
X340331000Y-144363000D01*
X354301000Y-130393000D02*
X340331000Y-130393000D01*
%TO.C,SW5*%
X349551000Y-163338000D02*
X349551000Y-149368000D01*
X335581000Y-163338000D02*
X349551000Y-163338000D01*
X335581000Y-149368000D02*
X335581000Y-163338000D01*
X349551000Y-149368000D02*
X335581000Y-149368000D01*
%TO.C,SW6*%
X359051000Y-168418000D02*
X345081000Y-168418000D01*
X345081000Y-168418000D02*
X345081000Y-182388000D01*
X345081000Y-182388000D02*
X359051000Y-182388000D01*
X359051000Y-182388000D02*
X359051000Y-168418000D01*
%TO.C,SW7*%
X342451000Y-92343000D02*
X328481000Y-92343000D01*
X328481000Y-92343000D02*
X328481000Y-106313000D01*
X328481000Y-106313000D02*
X342451000Y-106313000D01*
X342451000Y-106313000D02*
X342451000Y-92343000D01*
%TO.C,SW11*%
X335226000Y-182388000D02*
X335226000Y-168418000D01*
X321256000Y-182388000D02*
X335226000Y-182388000D01*
X321256000Y-168418000D02*
X321256000Y-182388000D01*
X335226000Y-168418000D02*
X321256000Y-168418000D01*
%TO.C,SW12*%
X323451000Y-106313000D02*
X323451000Y-92343000D01*
X309481000Y-106313000D02*
X323451000Y-106313000D01*
X309481000Y-92343000D02*
X309481000Y-106313000D01*
X323451000Y-92343000D02*
X309481000Y-92343000D01*
%TO.C,SW16*%
X311401000Y-168418000D02*
X297431000Y-168418000D01*
X297431000Y-168418000D02*
X297431000Y-182388000D01*
X297431000Y-182388000D02*
X311401000Y-182388000D01*
X311401000Y-182388000D02*
X311401000Y-168418000D01*
%TO.C,SW17*%
X304451000Y-106313000D02*
X304451000Y-92343000D01*
X290481000Y-106313000D02*
X304451000Y-106313000D01*
X290481000Y-92343000D02*
X290481000Y-106313000D01*
X304451000Y-92343000D02*
X290481000Y-92343000D01*
%TO.C,SW30*%
X247451000Y-92343000D02*
X233481000Y-92343000D01*
X233481000Y-92343000D02*
X233481000Y-106313000D01*
X233481000Y-106313000D02*
X247451000Y-106313000D01*
X247451000Y-106313000D02*
X247451000Y-92343000D01*
%TO.C,SW56*%
X121481000Y-149303000D02*
X107511000Y-149303000D01*
X107511000Y-149303000D02*
X107511000Y-163273000D01*
X107511000Y-163273000D02*
X121481000Y-163273000D01*
X121481000Y-163273000D02*
X121481000Y-149303000D01*
%TO.C,SW57*%
X114426000Y-182363000D02*
X114426000Y-168393000D01*
X100456000Y-182363000D02*
X114426000Y-182363000D01*
X100456000Y-168393000D02*
X100456000Y-182363000D01*
X114426000Y-168393000D02*
X100456000Y-168393000D01*
%TO.C,SW60*%
X104951000Y-92343000D02*
X90981000Y-92343000D01*
X90981000Y-92343000D02*
X90981000Y-106313000D01*
X90981000Y-106313000D02*
X104951000Y-106313000D01*
X104951000Y-106313000D02*
X104951000Y-92343000D01*
%TO.C,SW61*%
X100201000Y-111343000D02*
X86231000Y-111343000D01*
X86231000Y-111343000D02*
X86231000Y-125313000D01*
X86231000Y-125313000D02*
X100201000Y-125313000D01*
X100201000Y-125313000D02*
X100201000Y-111343000D01*
%TO.C,SW62*%
X107251000Y-130383000D02*
X93281000Y-130383000D01*
X93281000Y-130383000D02*
X93281000Y-144353000D01*
X93281000Y-144353000D02*
X107251000Y-144353000D01*
X107251000Y-144353000D02*
X107251000Y-130383000D01*
%TO.C,SW37*%
X204726000Y-163313000D02*
X204726000Y-149343000D01*
X190756000Y-163313000D02*
X204726000Y-163313000D01*
X190756000Y-149343000D02*
X190756000Y-163313000D01*
X204726000Y-149343000D02*
X190756000Y-149343000D01*
%TO.C,SW26*%
X256951000Y-111343000D02*
X242981000Y-111343000D01*
X242981000Y-111343000D02*
X242981000Y-125313000D01*
X242981000Y-125313000D02*
X256951000Y-125313000D01*
X256951000Y-125313000D02*
X256951000Y-111343000D01*
%TO.C,SW41*%
X185726000Y-163313000D02*
X185726000Y-149343000D01*
X171756000Y-163313000D02*
X185726000Y-163313000D01*
X171756000Y-149343000D02*
X171756000Y-163313000D01*
X185726000Y-149343000D02*
X171756000Y-149343000D01*
%TO.C,SW34*%
X228451000Y-92343000D02*
X214481000Y-92343000D01*
X214481000Y-92343000D02*
X214481000Y-106313000D01*
X214481000Y-106313000D02*
X228451000Y-106313000D01*
X228451000Y-106313000D02*
X228451000Y-92343000D01*
%TO.C,SW21*%
X285451000Y-106313000D02*
X285451000Y-92343000D01*
X271481000Y-106313000D02*
X285451000Y-106313000D01*
X271481000Y-92343000D02*
X271481000Y-106313000D01*
X285451000Y-92343000D02*
X271481000Y-92343000D01*
%TO.C,SW25*%
X266451000Y-92343000D02*
X252481000Y-92343000D01*
X252481000Y-92343000D02*
X252481000Y-106313000D01*
X252481000Y-106313000D02*
X266451000Y-106313000D01*
X266451000Y-106313000D02*
X266451000Y-92343000D01*
%TO.C,SW38*%
X209451000Y-106313000D02*
X209451000Y-92343000D01*
X195481000Y-106313000D02*
X209451000Y-106313000D01*
X195481000Y-92343000D02*
X195481000Y-106313000D01*
X209451000Y-92343000D02*
X195481000Y-92343000D01*
%TO.C,SW43*%
X190451000Y-92343000D02*
X176481000Y-92343000D01*
X176481000Y-92343000D02*
X176481000Y-106313000D01*
X176481000Y-106313000D02*
X190451000Y-106313000D01*
X190451000Y-106313000D02*
X190451000Y-92343000D01*
%TO.C,SW48*%
X171451000Y-92343000D02*
X157481000Y-92343000D01*
X157481000Y-92343000D02*
X157481000Y-106313000D01*
X157481000Y-106313000D02*
X171451000Y-106313000D01*
X171451000Y-106313000D02*
X171451000Y-92343000D01*
%TO.C,SW53*%
X152451000Y-106313000D02*
X152451000Y-92343000D01*
X138481000Y-106313000D02*
X152451000Y-106313000D01*
X138481000Y-92343000D02*
X138481000Y-106313000D01*
X152451000Y-92343000D02*
X138481000Y-92343000D01*
%TO.C,SW58*%
X133451000Y-106313000D02*
X133451000Y-92343000D01*
X119481000Y-106313000D02*
X133451000Y-106313000D01*
X119481000Y-92343000D02*
X119481000Y-106313000D01*
X133451000Y-92343000D02*
X119481000Y-92343000D01*
%TO.C,SW65*%
X76451000Y-106313000D02*
X76451000Y-92343000D01*
X62481000Y-106313000D02*
X76451000Y-106313000D01*
X62481000Y-92343000D02*
X62481000Y-106313000D01*
X76451000Y-92343000D02*
X62481000Y-92343000D01*
%TO.C,SW8*%
X332951000Y-125313000D02*
X332951000Y-111343000D01*
X318981000Y-125313000D02*
X332951000Y-125313000D01*
X318981000Y-111343000D02*
X318981000Y-125313000D01*
X332951000Y-111343000D02*
X318981000Y-111343000D01*
%TO.C,SW13*%
X313951000Y-125313000D02*
X313951000Y-111343000D01*
X299981000Y-125313000D02*
X313951000Y-125313000D01*
X299981000Y-111343000D02*
X299981000Y-125313000D01*
X313951000Y-111343000D02*
X299981000Y-111343000D01*
%TO.C,SW18*%
X294951000Y-125313000D02*
X294951000Y-111343000D01*
X280981000Y-125313000D02*
X294951000Y-125313000D01*
X280981000Y-111343000D02*
X280981000Y-125313000D01*
X294951000Y-111343000D02*
X280981000Y-111343000D01*
%TO.C,SW22*%
X275951000Y-125313000D02*
X275951000Y-111343000D01*
X261981000Y-125313000D02*
X275951000Y-125313000D01*
X261981000Y-111343000D02*
X261981000Y-125313000D01*
X275951000Y-111343000D02*
X261981000Y-111343000D01*
%TO.C,SW31*%
X237951000Y-111343000D02*
X223981000Y-111343000D01*
X223981000Y-111343000D02*
X223981000Y-125313000D01*
X223981000Y-125313000D02*
X237951000Y-125313000D01*
X237951000Y-125313000D02*
X237951000Y-111343000D01*
%TO.C,SW35*%
X218951000Y-125313000D02*
X218951000Y-111343000D01*
X204981000Y-125313000D02*
X218951000Y-125313000D01*
X204981000Y-111343000D02*
X204981000Y-125313000D01*
X218951000Y-111343000D02*
X204981000Y-111343000D01*
%TO.C,SW39*%
X199951000Y-111343000D02*
X185981000Y-111343000D01*
X185981000Y-111343000D02*
X185981000Y-125313000D01*
X185981000Y-125313000D02*
X199951000Y-125313000D01*
X199951000Y-125313000D02*
X199951000Y-111343000D01*
%TO.C,SW44*%
X180951000Y-125313000D02*
X180951000Y-111343000D01*
X166981000Y-125313000D02*
X180951000Y-125313000D01*
X166981000Y-111343000D02*
X166981000Y-125313000D01*
X180951000Y-111343000D02*
X166981000Y-111343000D01*
%TO.C,SW49*%
X161951000Y-111343000D02*
X147981000Y-111343000D01*
X147981000Y-111343000D02*
X147981000Y-125313000D01*
X147981000Y-125313000D02*
X161951000Y-125313000D01*
X161951000Y-125313000D02*
X161951000Y-111343000D01*
%TO.C,SW54*%
X142951000Y-111343000D02*
X128981000Y-111343000D01*
X128981000Y-111343000D02*
X128981000Y-125313000D01*
X128981000Y-125313000D02*
X142951000Y-125313000D01*
X142951000Y-125313000D02*
X142951000Y-111343000D01*
%TO.C,SW59*%
X123951000Y-111343000D02*
X109981000Y-111343000D01*
X109981000Y-111343000D02*
X109981000Y-125313000D01*
X109981000Y-125313000D02*
X123951000Y-125313000D01*
X123951000Y-125313000D02*
X123951000Y-111343000D01*
%TO.C,SW66*%
X76451000Y-125313000D02*
X76451000Y-111343000D01*
X62481000Y-125313000D02*
X76451000Y-125313000D01*
X62481000Y-111343000D02*
X62481000Y-125313000D01*
X76451000Y-111343000D02*
X62481000Y-111343000D01*
%TO.C,SW9*%
X328101000Y-144363000D02*
X328101000Y-130393000D01*
X314131000Y-144363000D02*
X328101000Y-144363000D01*
X314131000Y-130393000D02*
X314131000Y-144363000D01*
X328101000Y-130393000D02*
X314131000Y-130393000D01*
%TO.C,SW14*%
X309101000Y-144363000D02*
X309101000Y-130393000D01*
X295131000Y-144363000D02*
X309101000Y-144363000D01*
X295131000Y-130393000D02*
X295131000Y-144363000D01*
X309101000Y-130393000D02*
X295131000Y-130393000D01*
%TO.C,SW19*%
X290101000Y-144363000D02*
X290101000Y-130393000D01*
X276131000Y-144363000D02*
X290101000Y-144363000D01*
X276131000Y-130393000D02*
X276131000Y-144363000D01*
X290101000Y-130393000D02*
X276131000Y-130393000D01*
%TO.C,SW23*%
X271101000Y-144363000D02*
X271101000Y-130393000D01*
X257131000Y-144363000D02*
X271101000Y-144363000D01*
X257131000Y-130393000D02*
X257131000Y-144363000D01*
X271101000Y-130393000D02*
X257131000Y-130393000D01*
%TO.C,SW27*%
X252101000Y-130393000D02*
X238131000Y-130393000D01*
X238131000Y-130393000D02*
X238131000Y-144363000D01*
X238131000Y-144363000D02*
X252101000Y-144363000D01*
X252101000Y-144363000D02*
X252101000Y-130393000D01*
%TO.C,SW32*%
X233101000Y-130393000D02*
X219131000Y-130393000D01*
X219131000Y-130393000D02*
X219131000Y-144363000D01*
X219131000Y-144363000D02*
X233101000Y-144363000D01*
X233101000Y-144363000D02*
X233101000Y-130393000D01*
%TO.C,SW36*%
X214101000Y-130393000D02*
X200131000Y-130393000D01*
X200131000Y-130393000D02*
X200131000Y-144363000D01*
X200131000Y-144363000D02*
X214101000Y-144363000D01*
X214101000Y-144363000D02*
X214101000Y-130393000D01*
%TO.C,SW40*%
X195101000Y-130393000D02*
X181131000Y-130393000D01*
X181131000Y-130393000D02*
X181131000Y-144363000D01*
X181131000Y-144363000D02*
X195101000Y-144363000D01*
X195101000Y-144363000D02*
X195101000Y-130393000D01*
%TO.C,SW45*%
X176101000Y-130393000D02*
X162131000Y-130393000D01*
X162131000Y-130393000D02*
X162131000Y-144363000D01*
X162131000Y-144363000D02*
X176101000Y-144363000D01*
X176101000Y-144363000D02*
X176101000Y-130393000D01*
%TO.C,SW55*%
X138101000Y-130393000D02*
X124131000Y-130393000D01*
X124131000Y-130393000D02*
X124131000Y-144363000D01*
X124131000Y-144363000D02*
X138101000Y-144363000D01*
X138101000Y-144363000D02*
X138101000Y-130393000D01*
%TO.C,SW67*%
X76451000Y-144313000D02*
X76451000Y-130343000D01*
X62481000Y-144313000D02*
X76451000Y-144313000D01*
X62481000Y-130343000D02*
X62481000Y-144313000D01*
X76451000Y-130343000D02*
X62481000Y-130343000D01*
%TO.C,SW10*%
X318726000Y-149343000D02*
X304756000Y-149343000D01*
X304756000Y-149343000D02*
X304756000Y-163313000D01*
X304756000Y-163313000D02*
X318726000Y-163313000D01*
X318726000Y-163313000D02*
X318726000Y-149343000D01*
%TO.C,SW15*%
X299726000Y-149343000D02*
X285756000Y-149343000D01*
X285756000Y-149343000D02*
X285756000Y-163313000D01*
X285756000Y-163313000D02*
X299726000Y-163313000D01*
X299726000Y-163313000D02*
X299726000Y-149343000D01*
%TO.C,SW28*%
X242726000Y-149343000D02*
X228756000Y-149343000D01*
X228756000Y-149343000D02*
X228756000Y-163313000D01*
X228756000Y-163313000D02*
X242726000Y-163313000D01*
X242726000Y-163313000D02*
X242726000Y-149343000D01*
%TO.C,SW46*%
X166726000Y-149343000D02*
X152756000Y-149343000D01*
X152756000Y-149343000D02*
X152756000Y-163313000D01*
X152756000Y-163313000D02*
X166726000Y-163313000D01*
X166726000Y-163313000D02*
X166726000Y-149343000D01*
%TO.C,SW51*%
X147726000Y-149343000D02*
X133756000Y-149343000D01*
X133756000Y-149343000D02*
X133756000Y-163313000D01*
X133756000Y-163313000D02*
X147726000Y-163313000D01*
X147726000Y-163313000D02*
X147726000Y-149343000D01*
%TO.C,SW68*%
X76451000Y-149343000D02*
X62481000Y-149343000D01*
X62481000Y-149343000D02*
X62481000Y-163313000D01*
X62481000Y-163313000D02*
X76451000Y-163313000D01*
X76451000Y-163313000D02*
X76451000Y-149343000D01*
%TO.C,SW42*%
X171526000Y-168393000D02*
X157556000Y-168393000D01*
X157556000Y-168393000D02*
X157556000Y-182363000D01*
X157556000Y-182363000D02*
X171526000Y-182363000D01*
X171526000Y-182363000D02*
X171526000Y-168393000D01*
%TO.C,SW64*%
X95426000Y-182363000D02*
X95426000Y-168393000D01*
X81456000Y-182363000D02*
X95426000Y-182363000D01*
X81456000Y-168393000D02*
X81456000Y-182363000D01*
X95426000Y-168393000D02*
X81456000Y-168393000D01*
%TO.C,SW69*%
X76426000Y-182363000D02*
X76426000Y-168393000D01*
X62456000Y-182363000D02*
X76426000Y-182363000D01*
X62456000Y-168393000D02*
X62456000Y-182363000D01*
X76426000Y-168393000D02*
X62456000Y-168393000D01*
%TO.C,SW29*%
D11*
X235125523Y-167838761D02*
X234982666Y-167886380D01*
X234744571Y-167886380D01*
X234649333Y-167838761D01*
X234601714Y-167791142D01*
X234554095Y-167695904D01*
X234554095Y-167600666D01*
X234601714Y-167505428D01*
X234649333Y-167457809D01*
X234744571Y-167410190D01*
X234935047Y-167362571D01*
X235030285Y-167314952D01*
X235077904Y-167267333D01*
X235125523Y-167172095D01*
X235125523Y-167076857D01*
X235077904Y-166981619D01*
X235030285Y-166934000D01*
X234935047Y-166886380D01*
X234696952Y-166886380D01*
X234554095Y-166934000D01*
X234220761Y-166886380D02*
X233982666Y-167886380D01*
X233792190Y-167172095D01*
X233601714Y-167886380D01*
X233363619Y-166886380D01*
X233030285Y-166981619D02*
X232982666Y-166934000D01*
X232887428Y-166886380D01*
X232649333Y-166886380D01*
X232554095Y-166934000D01*
X232506476Y-166981619D01*
X232458857Y-167076857D01*
X232458857Y-167172095D01*
X232506476Y-167314952D01*
X233077904Y-167886380D01*
X232458857Y-167886380D01*
X231982666Y-167886380D02*
X231792190Y-167886380D01*
X231696952Y-167838761D01*
X231649333Y-167791142D01*
X231554095Y-167648285D01*
X231506476Y-167457809D01*
X231506476Y-167076857D01*
X231554095Y-166981619D01*
X231601714Y-166934000D01*
X231696952Y-166886380D01*
X231887428Y-166886380D01*
X231982666Y-166934000D01*
X232030285Y-166981619D01*
X232077904Y-167076857D01*
X232077904Y-167314952D01*
X232030285Y-167410190D01*
X231982666Y-167457809D01*
X231887428Y-167505428D01*
X231696952Y-167505428D01*
X231601714Y-167457809D01*
X231554095Y-167410190D01*
X231506476Y-167314952D01*
%TO.C,SW47*%
X147300523Y-167908761D02*
X147157666Y-167956380D01*
X146919571Y-167956380D01*
X146824333Y-167908761D01*
X146776714Y-167861142D01*
X146729095Y-167765904D01*
X146729095Y-167670666D01*
X146776714Y-167575428D01*
X146824333Y-167527809D01*
X146919571Y-167480190D01*
X147110047Y-167432571D01*
X147205285Y-167384952D01*
X147252904Y-167337333D01*
X147300523Y-167242095D01*
X147300523Y-167146857D01*
X147252904Y-167051619D01*
X147205285Y-167004000D01*
X147110047Y-166956380D01*
X146871952Y-166956380D01*
X146729095Y-167004000D01*
X146395761Y-166956380D02*
X146157666Y-167956380D01*
X145967190Y-167242095D01*
X145776714Y-167956380D01*
X145538619Y-166956380D01*
X144729095Y-167289714D02*
X144729095Y-167956380D01*
X144967190Y-166908761D02*
X145205285Y-167623047D01*
X144586238Y-167623047D01*
X144300523Y-166956380D02*
X143633857Y-166956380D01*
X144062428Y-167956380D01*
%TO.C,SW52*%
X128250523Y-167908761D02*
X128107666Y-167956380D01*
X127869571Y-167956380D01*
X127774333Y-167908761D01*
X127726714Y-167861142D01*
X127679095Y-167765904D01*
X127679095Y-167670666D01*
X127726714Y-167575428D01*
X127774333Y-167527809D01*
X127869571Y-167480190D01*
X128060047Y-167432571D01*
X128155285Y-167384952D01*
X128202904Y-167337333D01*
X128250523Y-167242095D01*
X128250523Y-167146857D01*
X128202904Y-167051619D01*
X128155285Y-167004000D01*
X128060047Y-166956380D01*
X127821952Y-166956380D01*
X127679095Y-167004000D01*
X127345761Y-166956380D02*
X127107666Y-167956380D01*
X126917190Y-167242095D01*
X126726714Y-167956380D01*
X126488619Y-166956380D01*
X125631476Y-166956380D02*
X126107666Y-166956380D01*
X126155285Y-167432571D01*
X126107666Y-167384952D01*
X126012428Y-167337333D01*
X125774333Y-167337333D01*
X125679095Y-167384952D01*
X125631476Y-167432571D01*
X125583857Y-167527809D01*
X125583857Y-167765904D01*
X125631476Y-167861142D01*
X125679095Y-167908761D01*
X125774333Y-167956380D01*
X126012428Y-167956380D01*
X126107666Y-167908761D01*
X126155285Y-167861142D01*
X125202904Y-167051619D02*
X125155285Y-167004000D01*
X125060047Y-166956380D01*
X124821952Y-166956380D01*
X124726714Y-167004000D01*
X124679095Y-167051619D01*
X124631476Y-167146857D01*
X124631476Y-167242095D01*
X124679095Y-167384952D01*
X125250523Y-167956380D01*
X124631476Y-167956380D01*
%TO.C,SW20*%
X275550523Y-148858761D02*
X275407666Y-148906380D01*
X275169571Y-148906380D01*
X275074333Y-148858761D01*
X275026714Y-148811142D01*
X274979095Y-148715904D01*
X274979095Y-148620666D01*
X275026714Y-148525428D01*
X275074333Y-148477809D01*
X275169571Y-148430190D01*
X275360047Y-148382571D01*
X275455285Y-148334952D01*
X275502904Y-148287333D01*
X275550523Y-148192095D01*
X275550523Y-148096857D01*
X275502904Y-148001619D01*
X275455285Y-147954000D01*
X275360047Y-147906380D01*
X275121952Y-147906380D01*
X274979095Y-147954000D01*
X274645761Y-147906380D02*
X274407666Y-148906380D01*
X274217190Y-148192095D01*
X274026714Y-148906380D01*
X273788619Y-147906380D01*
X273455285Y-148001619D02*
X273407666Y-147954000D01*
X273312428Y-147906380D01*
X273074333Y-147906380D01*
X272979095Y-147954000D01*
X272931476Y-148001619D01*
X272883857Y-148096857D01*
X272883857Y-148192095D01*
X272931476Y-148334952D01*
X273502904Y-148906380D01*
X272883857Y-148906380D01*
X272264809Y-147906380D02*
X272169571Y-147906380D01*
X272074333Y-147954000D01*
X272026714Y-148001619D01*
X271979095Y-148096857D01*
X271931476Y-148287333D01*
X271931476Y-148525428D01*
X271979095Y-148715904D01*
X272026714Y-148811142D01*
X272074333Y-148858761D01*
X272169571Y-148906380D01*
X272264809Y-148906380D01*
X272360047Y-148858761D01*
X272407666Y-148811142D01*
X272455285Y-148715904D01*
X272502904Y-148525428D01*
X272502904Y-148287333D01*
X272455285Y-148096857D01*
X272407666Y-148001619D01*
X272360047Y-147954000D01*
X272264809Y-147906380D01*
%TO.C,R15*%
X212368857Y-85450380D02*
X212702190Y-84974190D01*
X212940285Y-85450380D02*
X212940285Y-84450380D01*
X212559333Y-84450380D01*
X212464095Y-84498000D01*
X212416476Y-84545619D01*
X212368857Y-84640857D01*
X212368857Y-84783714D01*
X212416476Y-84878952D01*
X212464095Y-84926571D01*
X212559333Y-84974190D01*
X212940285Y-84974190D01*
X211416476Y-85450380D02*
X211987904Y-85450380D01*
X211702190Y-85450380D02*
X211702190Y-84450380D01*
X211797428Y-84593238D01*
X211892666Y-84688476D01*
X211987904Y-84736095D01*
X210511714Y-84450380D02*
X210987904Y-84450380D01*
X211035523Y-84926571D01*
X210987904Y-84878952D01*
X210892666Y-84831333D01*
X210654571Y-84831333D01*
X210559333Y-84878952D01*
X210511714Y-84926571D01*
X210464095Y-85021809D01*
X210464095Y-85259904D01*
X210511714Y-85355142D01*
X210559333Y-85402761D01*
X210654571Y-85450380D01*
X210892666Y-85450380D01*
X210987904Y-85402761D01*
X211035523Y-85355142D01*
%TO.C,R33*%
X339268857Y-168380380D02*
X339602190Y-167904190D01*
X339840285Y-168380380D02*
X339840285Y-167380380D01*
X339459333Y-167380380D01*
X339364095Y-167428000D01*
X339316476Y-167475619D01*
X339268857Y-167570857D01*
X339268857Y-167713714D01*
X339316476Y-167808952D01*
X339364095Y-167856571D01*
X339459333Y-167904190D01*
X339840285Y-167904190D01*
X338935523Y-167380380D02*
X338316476Y-167380380D01*
X338649809Y-167761333D01*
X338506952Y-167761333D01*
X338411714Y-167808952D01*
X338364095Y-167856571D01*
X338316476Y-167951809D01*
X338316476Y-168189904D01*
X338364095Y-168285142D01*
X338411714Y-168332761D01*
X338506952Y-168380380D01*
X338792666Y-168380380D01*
X338887904Y-168332761D01*
X338935523Y-168285142D01*
X337983142Y-167380380D02*
X337364095Y-167380380D01*
X337697428Y-167761333D01*
X337554571Y-167761333D01*
X337459333Y-167808952D01*
X337411714Y-167856571D01*
X337364095Y-167951809D01*
X337364095Y-168189904D01*
X337411714Y-168285142D01*
X337459333Y-168332761D01*
X337554571Y-168380380D01*
X337840285Y-168380380D01*
X337935523Y-168332761D01*
X337983142Y-168285142D01*
%TO.C,R32*%
X340768857Y-173130380D02*
X341102190Y-172654190D01*
X341340285Y-173130380D02*
X341340285Y-172130380D01*
X340959333Y-172130380D01*
X340864095Y-172178000D01*
X340816476Y-172225619D01*
X340768857Y-172320857D01*
X340768857Y-172463714D01*
X340816476Y-172558952D01*
X340864095Y-172606571D01*
X340959333Y-172654190D01*
X341340285Y-172654190D01*
X340435523Y-172130380D02*
X339816476Y-172130380D01*
X340149809Y-172511333D01*
X340006952Y-172511333D01*
X339911714Y-172558952D01*
X339864095Y-172606571D01*
X339816476Y-172701809D01*
X339816476Y-172939904D01*
X339864095Y-173035142D01*
X339911714Y-173082761D01*
X340006952Y-173130380D01*
X340292666Y-173130380D01*
X340387904Y-173082761D01*
X340435523Y-173035142D01*
X339435523Y-172225619D02*
X339387904Y-172178000D01*
X339292666Y-172130380D01*
X339054571Y-172130380D01*
X338959333Y-172178000D01*
X338911714Y-172225619D01*
X338864095Y-172320857D01*
X338864095Y-172416095D01*
X338911714Y-172558952D01*
X339483142Y-173130380D01*
X338864095Y-173130380D01*
%TO.C,R31*%
X336768857Y-173130380D02*
X337102190Y-172654190D01*
X337340285Y-173130380D02*
X337340285Y-172130380D01*
X336959333Y-172130380D01*
X336864095Y-172178000D01*
X336816476Y-172225619D01*
X336768857Y-172320857D01*
X336768857Y-172463714D01*
X336816476Y-172558952D01*
X336864095Y-172606571D01*
X336959333Y-172654190D01*
X337340285Y-172654190D01*
X336435523Y-172130380D02*
X335816476Y-172130380D01*
X336149809Y-172511333D01*
X336006952Y-172511333D01*
X335911714Y-172558952D01*
X335864095Y-172606571D01*
X335816476Y-172701809D01*
X335816476Y-172939904D01*
X335864095Y-173035142D01*
X335911714Y-173082761D01*
X336006952Y-173130380D01*
X336292666Y-173130380D01*
X336387904Y-173082761D01*
X336435523Y-173035142D01*
X334864095Y-173130380D02*
X335435523Y-173130380D01*
X335149809Y-173130380D02*
X335149809Y-172130380D01*
X335245047Y-172273238D01*
X335340285Y-172368476D01*
X335435523Y-172416095D01*
%TO.C,R30*%
X289018857Y-171880380D02*
X289352190Y-171404190D01*
X289590285Y-171880380D02*
X289590285Y-170880380D01*
X289209333Y-170880380D01*
X289114095Y-170928000D01*
X289066476Y-170975619D01*
X289018857Y-171070857D01*
X289018857Y-171213714D01*
X289066476Y-171308952D01*
X289114095Y-171356571D01*
X289209333Y-171404190D01*
X289590285Y-171404190D01*
X288685523Y-170880380D02*
X288066476Y-170880380D01*
X288399809Y-171261333D01*
X288256952Y-171261333D01*
X288161714Y-171308952D01*
X288114095Y-171356571D01*
X288066476Y-171451809D01*
X288066476Y-171689904D01*
X288114095Y-171785142D01*
X288161714Y-171832761D01*
X288256952Y-171880380D01*
X288542666Y-171880380D01*
X288637904Y-171832761D01*
X288685523Y-171785142D01*
X287447428Y-170880380D02*
X287352190Y-170880380D01*
X287256952Y-170928000D01*
X287209333Y-170975619D01*
X287161714Y-171070857D01*
X287114095Y-171261333D01*
X287114095Y-171499428D01*
X287161714Y-171689904D01*
X287209333Y-171785142D01*
X287256952Y-171832761D01*
X287352190Y-171880380D01*
X287447428Y-171880380D01*
X287542666Y-171832761D01*
X287590285Y-171785142D01*
X287637904Y-171689904D01*
X287685523Y-171499428D01*
X287685523Y-171261333D01*
X287637904Y-171070857D01*
X287590285Y-170975619D01*
X287542666Y-170928000D01*
X287447428Y-170880380D01*
%TO.C,R29*%
X292518857Y-169380380D02*
X292852190Y-168904190D01*
X293090285Y-169380380D02*
X293090285Y-168380380D01*
X292709333Y-168380380D01*
X292614095Y-168428000D01*
X292566476Y-168475619D01*
X292518857Y-168570857D01*
X292518857Y-168713714D01*
X292566476Y-168808952D01*
X292614095Y-168856571D01*
X292709333Y-168904190D01*
X293090285Y-168904190D01*
X292137904Y-168475619D02*
X292090285Y-168428000D01*
X291995047Y-168380380D01*
X291756952Y-168380380D01*
X291661714Y-168428000D01*
X291614095Y-168475619D01*
X291566476Y-168570857D01*
X291566476Y-168666095D01*
X291614095Y-168808952D01*
X292185523Y-169380380D01*
X291566476Y-169380380D01*
X291090285Y-169380380D02*
X290899809Y-169380380D01*
X290804571Y-169332761D01*
X290756952Y-169285142D01*
X290661714Y-169142285D01*
X290614095Y-168951809D01*
X290614095Y-168570857D01*
X290661714Y-168475619D01*
X290709333Y-168428000D01*
X290804571Y-168380380D01*
X290995047Y-168380380D01*
X291090285Y-168428000D01*
X291137904Y-168475619D01*
X291185523Y-168570857D01*
X291185523Y-168808952D01*
X291137904Y-168904190D01*
X291090285Y-168951809D01*
X290995047Y-168999428D01*
X290804571Y-168999428D01*
X290709333Y-168951809D01*
X290661714Y-168904190D01*
X290614095Y-168808952D01*
%TO.C,R28*%
X286268857Y-171880380D02*
X286602190Y-171404190D01*
X286840285Y-171880380D02*
X286840285Y-170880380D01*
X286459333Y-170880380D01*
X286364095Y-170928000D01*
X286316476Y-170975619D01*
X286268857Y-171070857D01*
X286268857Y-171213714D01*
X286316476Y-171308952D01*
X286364095Y-171356571D01*
X286459333Y-171404190D01*
X286840285Y-171404190D01*
X285887904Y-170975619D02*
X285840285Y-170928000D01*
X285745047Y-170880380D01*
X285506952Y-170880380D01*
X285411714Y-170928000D01*
X285364095Y-170975619D01*
X285316476Y-171070857D01*
X285316476Y-171166095D01*
X285364095Y-171308952D01*
X285935523Y-171880380D01*
X285316476Y-171880380D01*
X284745047Y-171308952D02*
X284840285Y-171261333D01*
X284887904Y-171213714D01*
X284935523Y-171118476D01*
X284935523Y-171070857D01*
X284887904Y-170975619D01*
X284840285Y-170928000D01*
X284745047Y-170880380D01*
X284554571Y-170880380D01*
X284459333Y-170928000D01*
X284411714Y-170975619D01*
X284364095Y-171070857D01*
X284364095Y-171118476D01*
X284411714Y-171213714D01*
X284459333Y-171261333D01*
X284554571Y-171308952D01*
X284745047Y-171308952D01*
X284840285Y-171356571D01*
X284887904Y-171404190D01*
X284935523Y-171499428D01*
X284935523Y-171689904D01*
X284887904Y-171785142D01*
X284840285Y-171832761D01*
X284745047Y-171880380D01*
X284554571Y-171880380D01*
X284459333Y-171832761D01*
X284411714Y-171785142D01*
X284364095Y-171689904D01*
X284364095Y-171499428D01*
X284411714Y-171404190D01*
X284459333Y-171356571D01*
X284554571Y-171308952D01*
%TO.C,R24*%
X173768857Y-168630380D02*
X174102190Y-168154190D01*
X174340285Y-168630380D02*
X174340285Y-167630380D01*
X173959333Y-167630380D01*
X173864095Y-167678000D01*
X173816476Y-167725619D01*
X173768857Y-167820857D01*
X173768857Y-167963714D01*
X173816476Y-168058952D01*
X173864095Y-168106571D01*
X173959333Y-168154190D01*
X174340285Y-168154190D01*
X173387904Y-167725619D02*
X173340285Y-167678000D01*
X173245047Y-167630380D01*
X173006952Y-167630380D01*
X172911714Y-167678000D01*
X172864095Y-167725619D01*
X172816476Y-167820857D01*
X172816476Y-167916095D01*
X172864095Y-168058952D01*
X173435523Y-168630380D01*
X172816476Y-168630380D01*
X171959333Y-167963714D02*
X171959333Y-168630380D01*
X172197428Y-167582761D02*
X172435523Y-168297047D01*
X171816476Y-168297047D01*
%TO.C,R23*%
X176018857Y-173630380D02*
X176352190Y-173154190D01*
X176590285Y-173630380D02*
X176590285Y-172630380D01*
X176209333Y-172630380D01*
X176114095Y-172678000D01*
X176066476Y-172725619D01*
X176018857Y-172820857D01*
X176018857Y-172963714D01*
X176066476Y-173058952D01*
X176114095Y-173106571D01*
X176209333Y-173154190D01*
X176590285Y-173154190D01*
X175637904Y-172725619D02*
X175590285Y-172678000D01*
X175495047Y-172630380D01*
X175256952Y-172630380D01*
X175161714Y-172678000D01*
X175114095Y-172725619D01*
X175066476Y-172820857D01*
X175066476Y-172916095D01*
X175114095Y-173058952D01*
X175685523Y-173630380D01*
X175066476Y-173630380D01*
X174733142Y-172630380D02*
X174114095Y-172630380D01*
X174447428Y-173011333D01*
X174304571Y-173011333D01*
X174209333Y-173058952D01*
X174161714Y-173106571D01*
X174114095Y-173201809D01*
X174114095Y-173439904D01*
X174161714Y-173535142D01*
X174209333Y-173582761D01*
X174304571Y-173630380D01*
X174590285Y-173630380D01*
X174685523Y-173582761D01*
X174733142Y-173535142D01*
%TO.C,R22*%
X177768857Y-168630380D02*
X178102190Y-168154190D01*
X178340285Y-168630380D02*
X178340285Y-167630380D01*
X177959333Y-167630380D01*
X177864095Y-167678000D01*
X177816476Y-167725619D01*
X177768857Y-167820857D01*
X177768857Y-167963714D01*
X177816476Y-168058952D01*
X177864095Y-168106571D01*
X177959333Y-168154190D01*
X178340285Y-168154190D01*
X177387904Y-167725619D02*
X177340285Y-167678000D01*
X177245047Y-167630380D01*
X177006952Y-167630380D01*
X176911714Y-167678000D01*
X176864095Y-167725619D01*
X176816476Y-167820857D01*
X176816476Y-167916095D01*
X176864095Y-168058952D01*
X177435523Y-168630380D01*
X176816476Y-168630380D01*
X176435523Y-167725619D02*
X176387904Y-167678000D01*
X176292666Y-167630380D01*
X176054571Y-167630380D01*
X175959333Y-167678000D01*
X175911714Y-167725619D01*
X175864095Y-167820857D01*
X175864095Y-167916095D01*
X175911714Y-168058952D01*
X176483142Y-168630380D01*
X175864095Y-168630380D01*
%TO.C,SW24*%
X256550523Y-148858761D02*
X256407666Y-148906380D01*
X256169571Y-148906380D01*
X256074333Y-148858761D01*
X256026714Y-148811142D01*
X255979095Y-148715904D01*
X255979095Y-148620666D01*
X256026714Y-148525428D01*
X256074333Y-148477809D01*
X256169571Y-148430190D01*
X256360047Y-148382571D01*
X256455285Y-148334952D01*
X256502904Y-148287333D01*
X256550523Y-148192095D01*
X256550523Y-148096857D01*
X256502904Y-148001619D01*
X256455285Y-147954000D01*
X256360047Y-147906380D01*
X256121952Y-147906380D01*
X255979095Y-147954000D01*
X255645761Y-147906380D02*
X255407666Y-148906380D01*
X255217190Y-148192095D01*
X255026714Y-148906380D01*
X254788619Y-147906380D01*
X254455285Y-148001619D02*
X254407666Y-147954000D01*
X254312428Y-147906380D01*
X254074333Y-147906380D01*
X253979095Y-147954000D01*
X253931476Y-148001619D01*
X253883857Y-148096857D01*
X253883857Y-148192095D01*
X253931476Y-148334952D01*
X254502904Y-148906380D01*
X253883857Y-148906380D01*
X253026714Y-148239714D02*
X253026714Y-148906380D01*
X253264809Y-147858761D02*
X253502904Y-148573047D01*
X252883857Y-148573047D01*
%TO.C,SW50*%
X151925523Y-129908761D02*
X151782666Y-129956380D01*
X151544571Y-129956380D01*
X151449333Y-129908761D01*
X151401714Y-129861142D01*
X151354095Y-129765904D01*
X151354095Y-129670666D01*
X151401714Y-129575428D01*
X151449333Y-129527809D01*
X151544571Y-129480190D01*
X151735047Y-129432571D01*
X151830285Y-129384952D01*
X151877904Y-129337333D01*
X151925523Y-129242095D01*
X151925523Y-129146857D01*
X151877904Y-129051619D01*
X151830285Y-129004000D01*
X151735047Y-128956380D01*
X151496952Y-128956380D01*
X151354095Y-129004000D01*
X151020761Y-128956380D02*
X150782666Y-129956380D01*
X150592190Y-129242095D01*
X150401714Y-129956380D01*
X150163619Y-128956380D01*
X149306476Y-128956380D02*
X149782666Y-128956380D01*
X149830285Y-129432571D01*
X149782666Y-129384952D01*
X149687428Y-129337333D01*
X149449333Y-129337333D01*
X149354095Y-129384952D01*
X149306476Y-129432571D01*
X149258857Y-129527809D01*
X149258857Y-129765904D01*
X149306476Y-129861142D01*
X149354095Y-129908761D01*
X149449333Y-129956380D01*
X149687428Y-129956380D01*
X149782666Y-129908761D01*
X149830285Y-129861142D01*
X148639809Y-128956380D02*
X148544571Y-128956380D01*
X148449333Y-129004000D01*
X148401714Y-129051619D01*
X148354095Y-129146857D01*
X148306476Y-129337333D01*
X148306476Y-129575428D01*
X148354095Y-129765904D01*
X148401714Y-129861142D01*
X148449333Y-129908761D01*
X148544571Y-129956380D01*
X148639809Y-129956380D01*
X148735047Y-129908761D01*
X148782666Y-129861142D01*
X148830285Y-129765904D01*
X148877904Y-129575428D01*
X148877904Y-129337333D01*
X148830285Y-129146857D01*
X148782666Y-129051619D01*
X148735047Y-129004000D01*
X148639809Y-128956380D01*
%TO.C,SW63*%
X90275523Y-148858761D02*
X90132666Y-148906380D01*
X89894571Y-148906380D01*
X89799333Y-148858761D01*
X89751714Y-148811142D01*
X89704095Y-148715904D01*
X89704095Y-148620666D01*
X89751714Y-148525428D01*
X89799333Y-148477809D01*
X89894571Y-148430190D01*
X90085047Y-148382571D01*
X90180285Y-148334952D01*
X90227904Y-148287333D01*
X90275523Y-148192095D01*
X90275523Y-148096857D01*
X90227904Y-148001619D01*
X90180285Y-147954000D01*
X90085047Y-147906380D01*
X89846952Y-147906380D01*
X89704095Y-147954000D01*
X89370761Y-147906380D02*
X89132666Y-148906380D01*
X88942190Y-148192095D01*
X88751714Y-148906380D01*
X88513619Y-147906380D01*
X87704095Y-147906380D02*
X87894571Y-147906380D01*
X87989809Y-147954000D01*
X88037428Y-148001619D01*
X88132666Y-148144476D01*
X88180285Y-148334952D01*
X88180285Y-148715904D01*
X88132666Y-148811142D01*
X88085047Y-148858761D01*
X87989809Y-148906380D01*
X87799333Y-148906380D01*
X87704095Y-148858761D01*
X87656476Y-148811142D01*
X87608857Y-148715904D01*
X87608857Y-148477809D01*
X87656476Y-148382571D01*
X87704095Y-148334952D01*
X87799333Y-148287333D01*
X87989809Y-148287333D01*
X88085047Y-148334952D01*
X88132666Y-148382571D01*
X88180285Y-148477809D01*
X87275523Y-147906380D02*
X86656476Y-147906380D01*
X86989809Y-148287333D01*
X86846952Y-148287333D01*
X86751714Y-148334952D01*
X86704095Y-148382571D01*
X86656476Y-148477809D01*
X86656476Y-148715904D01*
X86704095Y-148811142D01*
X86751714Y-148858761D01*
X86846952Y-148906380D01*
X87132666Y-148906380D01*
X87227904Y-148858761D01*
X87275523Y-148811142D01*
%TO.C,SW33*%
X218550523Y-148858761D02*
X218407666Y-148906380D01*
X218169571Y-148906380D01*
X218074333Y-148858761D01*
X218026714Y-148811142D01*
X217979095Y-148715904D01*
X217979095Y-148620666D01*
X218026714Y-148525428D01*
X218074333Y-148477809D01*
X218169571Y-148430190D01*
X218360047Y-148382571D01*
X218455285Y-148334952D01*
X218502904Y-148287333D01*
X218550523Y-148192095D01*
X218550523Y-148096857D01*
X218502904Y-148001619D01*
X218455285Y-147954000D01*
X218360047Y-147906380D01*
X218121952Y-147906380D01*
X217979095Y-147954000D01*
X217645761Y-147906380D02*
X217407666Y-148906380D01*
X217217190Y-148192095D01*
X217026714Y-148906380D01*
X216788619Y-147906380D01*
X216502904Y-147906380D02*
X215883857Y-147906380D01*
X216217190Y-148287333D01*
X216074333Y-148287333D01*
X215979095Y-148334952D01*
X215931476Y-148382571D01*
X215883857Y-148477809D01*
X215883857Y-148715904D01*
X215931476Y-148811142D01*
X215979095Y-148858761D01*
X216074333Y-148906380D01*
X216360047Y-148906380D01*
X216455285Y-148858761D01*
X216502904Y-148811142D01*
X215550523Y-147906380D02*
X214931476Y-147906380D01*
X215264809Y-148287333D01*
X215121952Y-148287333D01*
X215026714Y-148334952D01*
X214979095Y-148382571D01*
X214931476Y-148477809D01*
X214931476Y-148715904D01*
X214979095Y-148811142D01*
X215026714Y-148858761D01*
X215121952Y-148906380D01*
X215407666Y-148906380D01*
X215502904Y-148858761D01*
X215550523Y-148811142D01*
%TO.C,SW2*%
X355799333Y-91858761D02*
X355656476Y-91906380D01*
X355418380Y-91906380D01*
X355323142Y-91858761D01*
X355275523Y-91811142D01*
X355227904Y-91715904D01*
X355227904Y-91620666D01*
X355275523Y-91525428D01*
X355323142Y-91477809D01*
X355418380Y-91430190D01*
X355608857Y-91382571D01*
X355704095Y-91334952D01*
X355751714Y-91287333D01*
X355799333Y-91192095D01*
X355799333Y-91096857D01*
X355751714Y-91001619D01*
X355704095Y-90954000D01*
X355608857Y-90906380D01*
X355370761Y-90906380D01*
X355227904Y-90954000D01*
X354894571Y-90906380D02*
X354656476Y-91906380D01*
X354466000Y-91192095D01*
X354275523Y-91906380D01*
X354037428Y-90906380D01*
X353704095Y-91001619D02*
X353656476Y-90954000D01*
X353561238Y-90906380D01*
X353323142Y-90906380D01*
X353227904Y-90954000D01*
X353180285Y-91001619D01*
X353132666Y-91096857D01*
X353132666Y-91192095D01*
X353180285Y-91334952D01*
X353751714Y-91906380D01*
X353132666Y-91906380D01*
%TO.C,SW3*%
X351049333Y-110858761D02*
X350906476Y-110906380D01*
X350668380Y-110906380D01*
X350573142Y-110858761D01*
X350525523Y-110811142D01*
X350477904Y-110715904D01*
X350477904Y-110620666D01*
X350525523Y-110525428D01*
X350573142Y-110477809D01*
X350668380Y-110430190D01*
X350858857Y-110382571D01*
X350954095Y-110334952D01*
X351001714Y-110287333D01*
X351049333Y-110192095D01*
X351049333Y-110096857D01*
X351001714Y-110001619D01*
X350954095Y-109954000D01*
X350858857Y-109906380D01*
X350620761Y-109906380D01*
X350477904Y-109954000D01*
X350144571Y-109906380D02*
X349906476Y-110906380D01*
X349716000Y-110192095D01*
X349525523Y-110906380D01*
X349287428Y-109906380D01*
X349001714Y-109906380D02*
X348382666Y-109906380D01*
X348716000Y-110287333D01*
X348573142Y-110287333D01*
X348477904Y-110334952D01*
X348430285Y-110382571D01*
X348382666Y-110477809D01*
X348382666Y-110715904D01*
X348430285Y-110811142D01*
X348477904Y-110858761D01*
X348573142Y-110906380D01*
X348858857Y-110906380D01*
X348954095Y-110858761D01*
X349001714Y-110811142D01*
%TO.C,SW4*%
X348649333Y-129908761D02*
X348506476Y-129956380D01*
X348268380Y-129956380D01*
X348173142Y-129908761D01*
X348125523Y-129861142D01*
X348077904Y-129765904D01*
X348077904Y-129670666D01*
X348125523Y-129575428D01*
X348173142Y-129527809D01*
X348268380Y-129480190D01*
X348458857Y-129432571D01*
X348554095Y-129384952D01*
X348601714Y-129337333D01*
X348649333Y-129242095D01*
X348649333Y-129146857D01*
X348601714Y-129051619D01*
X348554095Y-129004000D01*
X348458857Y-128956380D01*
X348220761Y-128956380D01*
X348077904Y-129004000D01*
X347744571Y-128956380D02*
X347506476Y-129956380D01*
X347316000Y-129242095D01*
X347125523Y-129956380D01*
X346887428Y-128956380D01*
X346077904Y-129289714D02*
X346077904Y-129956380D01*
X346316000Y-128908761D02*
X346554095Y-129623047D01*
X345935047Y-129623047D01*
%TO.C,SW5*%
X343899333Y-148883761D02*
X343756476Y-148931380D01*
X343518380Y-148931380D01*
X343423142Y-148883761D01*
X343375523Y-148836142D01*
X343327904Y-148740904D01*
X343327904Y-148645666D01*
X343375523Y-148550428D01*
X343423142Y-148502809D01*
X343518380Y-148455190D01*
X343708857Y-148407571D01*
X343804095Y-148359952D01*
X343851714Y-148312333D01*
X343899333Y-148217095D01*
X343899333Y-148121857D01*
X343851714Y-148026619D01*
X343804095Y-147979000D01*
X343708857Y-147931380D01*
X343470761Y-147931380D01*
X343327904Y-147979000D01*
X342994571Y-147931380D02*
X342756476Y-148931380D01*
X342566000Y-148217095D01*
X342375523Y-148931380D01*
X342137428Y-147931380D01*
X341280285Y-147931380D02*
X341756476Y-147931380D01*
X341804095Y-148407571D01*
X341756476Y-148359952D01*
X341661238Y-148312333D01*
X341423142Y-148312333D01*
X341327904Y-148359952D01*
X341280285Y-148407571D01*
X341232666Y-148502809D01*
X341232666Y-148740904D01*
X341280285Y-148836142D01*
X341327904Y-148883761D01*
X341423142Y-148931380D01*
X341661238Y-148931380D01*
X341756476Y-148883761D01*
X341804095Y-148836142D01*
%TO.C,SW6*%
X353399333Y-167933761D02*
X353256476Y-167981380D01*
X353018380Y-167981380D01*
X352923142Y-167933761D01*
X352875523Y-167886142D01*
X352827904Y-167790904D01*
X352827904Y-167695666D01*
X352875523Y-167600428D01*
X352923142Y-167552809D01*
X353018380Y-167505190D01*
X353208857Y-167457571D01*
X353304095Y-167409952D01*
X353351714Y-167362333D01*
X353399333Y-167267095D01*
X353399333Y-167171857D01*
X353351714Y-167076619D01*
X353304095Y-167029000D01*
X353208857Y-166981380D01*
X352970761Y-166981380D01*
X352827904Y-167029000D01*
X352494571Y-166981380D02*
X352256476Y-167981380D01*
X352066000Y-167267095D01*
X351875523Y-167981380D01*
X351637428Y-166981380D01*
X350827904Y-166981380D02*
X351018380Y-166981380D01*
X351113619Y-167029000D01*
X351161238Y-167076619D01*
X351256476Y-167219476D01*
X351304095Y-167409952D01*
X351304095Y-167790904D01*
X351256476Y-167886142D01*
X351208857Y-167933761D01*
X351113619Y-167981380D01*
X350923142Y-167981380D01*
X350827904Y-167933761D01*
X350780285Y-167886142D01*
X350732666Y-167790904D01*
X350732666Y-167552809D01*
X350780285Y-167457571D01*
X350827904Y-167409952D01*
X350923142Y-167362333D01*
X351113619Y-167362333D01*
X351208857Y-167409952D01*
X351256476Y-167457571D01*
X351304095Y-167552809D01*
%TO.C,SW7*%
X336799333Y-91858761D02*
X336656476Y-91906380D01*
X336418380Y-91906380D01*
X336323142Y-91858761D01*
X336275523Y-91811142D01*
X336227904Y-91715904D01*
X336227904Y-91620666D01*
X336275523Y-91525428D01*
X336323142Y-91477809D01*
X336418380Y-91430190D01*
X336608857Y-91382571D01*
X336704095Y-91334952D01*
X336751714Y-91287333D01*
X336799333Y-91192095D01*
X336799333Y-91096857D01*
X336751714Y-91001619D01*
X336704095Y-90954000D01*
X336608857Y-90906380D01*
X336370761Y-90906380D01*
X336227904Y-90954000D01*
X335894571Y-90906380D02*
X335656476Y-91906380D01*
X335466000Y-91192095D01*
X335275523Y-91906380D01*
X335037428Y-90906380D01*
X334751714Y-90906380D02*
X334085047Y-90906380D01*
X334513619Y-91906380D01*
%TO.C,SW11*%
X330050523Y-167933761D02*
X329907666Y-167981380D01*
X329669571Y-167981380D01*
X329574333Y-167933761D01*
X329526714Y-167886142D01*
X329479095Y-167790904D01*
X329479095Y-167695666D01*
X329526714Y-167600428D01*
X329574333Y-167552809D01*
X329669571Y-167505190D01*
X329860047Y-167457571D01*
X329955285Y-167409952D01*
X330002904Y-167362333D01*
X330050523Y-167267095D01*
X330050523Y-167171857D01*
X330002904Y-167076619D01*
X329955285Y-167029000D01*
X329860047Y-166981380D01*
X329621952Y-166981380D01*
X329479095Y-167029000D01*
X329145761Y-166981380D02*
X328907666Y-167981380D01*
X328717190Y-167267095D01*
X328526714Y-167981380D01*
X328288619Y-166981380D01*
X327383857Y-167981380D02*
X327955285Y-167981380D01*
X327669571Y-167981380D02*
X327669571Y-166981380D01*
X327764809Y-167124238D01*
X327860047Y-167219476D01*
X327955285Y-167267095D01*
X326431476Y-167981380D02*
X327002904Y-167981380D01*
X326717190Y-167981380D02*
X326717190Y-166981380D01*
X326812428Y-167124238D01*
X326907666Y-167219476D01*
X327002904Y-167267095D01*
%TO.C,SW12*%
X318275523Y-91858761D02*
X318132666Y-91906380D01*
X317894571Y-91906380D01*
X317799333Y-91858761D01*
X317751714Y-91811142D01*
X317704095Y-91715904D01*
X317704095Y-91620666D01*
X317751714Y-91525428D01*
X317799333Y-91477809D01*
X317894571Y-91430190D01*
X318085047Y-91382571D01*
X318180285Y-91334952D01*
X318227904Y-91287333D01*
X318275523Y-91192095D01*
X318275523Y-91096857D01*
X318227904Y-91001619D01*
X318180285Y-90954000D01*
X318085047Y-90906380D01*
X317846952Y-90906380D01*
X317704095Y-90954000D01*
X317370761Y-90906380D02*
X317132666Y-91906380D01*
X316942190Y-91192095D01*
X316751714Y-91906380D01*
X316513619Y-90906380D01*
X315608857Y-91906380D02*
X316180285Y-91906380D01*
X315894571Y-91906380D02*
X315894571Y-90906380D01*
X315989809Y-91049238D01*
X316085047Y-91144476D01*
X316180285Y-91192095D01*
X315227904Y-91001619D02*
X315180285Y-90954000D01*
X315085047Y-90906380D01*
X314846952Y-90906380D01*
X314751714Y-90954000D01*
X314704095Y-91001619D01*
X314656476Y-91096857D01*
X314656476Y-91192095D01*
X314704095Y-91334952D01*
X315275523Y-91906380D01*
X314656476Y-91906380D01*
%TO.C,SW16*%
X306225523Y-167933761D02*
X306082666Y-167981380D01*
X305844571Y-167981380D01*
X305749333Y-167933761D01*
X305701714Y-167886142D01*
X305654095Y-167790904D01*
X305654095Y-167695666D01*
X305701714Y-167600428D01*
X305749333Y-167552809D01*
X305844571Y-167505190D01*
X306035047Y-167457571D01*
X306130285Y-167409952D01*
X306177904Y-167362333D01*
X306225523Y-167267095D01*
X306225523Y-167171857D01*
X306177904Y-167076619D01*
X306130285Y-167029000D01*
X306035047Y-166981380D01*
X305796952Y-166981380D01*
X305654095Y-167029000D01*
X305320761Y-166981380D02*
X305082666Y-167981380D01*
X304892190Y-167267095D01*
X304701714Y-167981380D01*
X304463619Y-166981380D01*
X303558857Y-167981380D02*
X304130285Y-167981380D01*
X303844571Y-167981380D02*
X303844571Y-166981380D01*
X303939809Y-167124238D01*
X304035047Y-167219476D01*
X304130285Y-167267095D01*
X302701714Y-166981380D02*
X302892190Y-166981380D01*
X302987428Y-167029000D01*
X303035047Y-167076619D01*
X303130285Y-167219476D01*
X303177904Y-167409952D01*
X303177904Y-167790904D01*
X303130285Y-167886142D01*
X303082666Y-167933761D01*
X302987428Y-167981380D01*
X302796952Y-167981380D01*
X302701714Y-167933761D01*
X302654095Y-167886142D01*
X302606476Y-167790904D01*
X302606476Y-167552809D01*
X302654095Y-167457571D01*
X302701714Y-167409952D01*
X302796952Y-167362333D01*
X302987428Y-167362333D01*
X303082666Y-167409952D01*
X303130285Y-167457571D01*
X303177904Y-167552809D01*
%TO.C,SW17*%
X299275523Y-91858761D02*
X299132666Y-91906380D01*
X298894571Y-91906380D01*
X298799333Y-91858761D01*
X298751714Y-91811142D01*
X298704095Y-91715904D01*
X298704095Y-91620666D01*
X298751714Y-91525428D01*
X298799333Y-91477809D01*
X298894571Y-91430190D01*
X299085047Y-91382571D01*
X299180285Y-91334952D01*
X299227904Y-91287333D01*
X299275523Y-91192095D01*
X299275523Y-91096857D01*
X299227904Y-91001619D01*
X299180285Y-90954000D01*
X299085047Y-90906380D01*
X298846952Y-90906380D01*
X298704095Y-90954000D01*
X298370761Y-90906380D02*
X298132666Y-91906380D01*
X297942190Y-91192095D01*
X297751714Y-91906380D01*
X297513619Y-90906380D01*
X296608857Y-91906380D02*
X297180285Y-91906380D01*
X296894571Y-91906380D02*
X296894571Y-90906380D01*
X296989809Y-91049238D01*
X297085047Y-91144476D01*
X297180285Y-91192095D01*
X296275523Y-90906380D02*
X295608857Y-90906380D01*
X296037428Y-91906380D01*
%TO.C,SW30*%
X239435523Y-91858761D02*
X239292666Y-91906380D01*
X239054571Y-91906380D01*
X238959333Y-91858761D01*
X238911714Y-91811142D01*
X238864095Y-91715904D01*
X238864095Y-91620666D01*
X238911714Y-91525428D01*
X238959333Y-91477809D01*
X239054571Y-91430190D01*
X239245047Y-91382571D01*
X239340285Y-91334952D01*
X239387904Y-91287333D01*
X239435523Y-91192095D01*
X239435523Y-91096857D01*
X239387904Y-91001619D01*
X239340285Y-90954000D01*
X239245047Y-90906380D01*
X239006952Y-90906380D01*
X238864095Y-90954000D01*
X238530761Y-90906380D02*
X238292666Y-91906380D01*
X238102190Y-91192095D01*
X237911714Y-91906380D01*
X237673619Y-90906380D01*
X237387904Y-90906380D02*
X236768857Y-90906380D01*
X237102190Y-91287333D01*
X236959333Y-91287333D01*
X236864095Y-91334952D01*
X236816476Y-91382571D01*
X236768857Y-91477809D01*
X236768857Y-91715904D01*
X236816476Y-91811142D01*
X236864095Y-91858761D01*
X236959333Y-91906380D01*
X237245047Y-91906380D01*
X237340285Y-91858761D01*
X237387904Y-91811142D01*
X236149809Y-90906380D02*
X236054571Y-90906380D01*
X235959333Y-90954000D01*
X235911714Y-91001619D01*
X235864095Y-91096857D01*
X235816476Y-91287333D01*
X235816476Y-91525428D01*
X235864095Y-91715904D01*
X235911714Y-91811142D01*
X235959333Y-91858761D01*
X236054571Y-91906380D01*
X236149809Y-91906380D01*
X236245047Y-91858761D01*
X236292666Y-91811142D01*
X236340285Y-91715904D01*
X236387904Y-91525428D01*
X236387904Y-91287333D01*
X236340285Y-91096857D01*
X236292666Y-91001619D01*
X236245047Y-90954000D01*
X236149809Y-90906380D01*
%TO.C,SW56*%
X116305523Y-148818761D02*
X116162666Y-148866380D01*
X115924571Y-148866380D01*
X115829333Y-148818761D01*
X115781714Y-148771142D01*
X115734095Y-148675904D01*
X115734095Y-148580666D01*
X115781714Y-148485428D01*
X115829333Y-148437809D01*
X115924571Y-148390190D01*
X116115047Y-148342571D01*
X116210285Y-148294952D01*
X116257904Y-148247333D01*
X116305523Y-148152095D01*
X116305523Y-148056857D01*
X116257904Y-147961619D01*
X116210285Y-147914000D01*
X116115047Y-147866380D01*
X115876952Y-147866380D01*
X115734095Y-147914000D01*
X115400761Y-147866380D02*
X115162666Y-148866380D01*
X114972190Y-148152095D01*
X114781714Y-148866380D01*
X114543619Y-147866380D01*
X113686476Y-147866380D02*
X114162666Y-147866380D01*
X114210285Y-148342571D01*
X114162666Y-148294952D01*
X114067428Y-148247333D01*
X113829333Y-148247333D01*
X113734095Y-148294952D01*
X113686476Y-148342571D01*
X113638857Y-148437809D01*
X113638857Y-148675904D01*
X113686476Y-148771142D01*
X113734095Y-148818761D01*
X113829333Y-148866380D01*
X114067428Y-148866380D01*
X114162666Y-148818761D01*
X114210285Y-148771142D01*
X112781714Y-147866380D02*
X112972190Y-147866380D01*
X113067428Y-147914000D01*
X113115047Y-147961619D01*
X113210285Y-148104476D01*
X113257904Y-148294952D01*
X113257904Y-148675904D01*
X113210285Y-148771142D01*
X113162666Y-148818761D01*
X113067428Y-148866380D01*
X112876952Y-148866380D01*
X112781714Y-148818761D01*
X112734095Y-148771142D01*
X112686476Y-148675904D01*
X112686476Y-148437809D01*
X112734095Y-148342571D01*
X112781714Y-148294952D01*
X112876952Y-148247333D01*
X113067428Y-148247333D01*
X113162666Y-148294952D01*
X113210285Y-148342571D01*
X113257904Y-148437809D01*
%TO.C,SW57*%
X109250523Y-167908761D02*
X109107666Y-167956380D01*
X108869571Y-167956380D01*
X108774333Y-167908761D01*
X108726714Y-167861142D01*
X108679095Y-167765904D01*
X108679095Y-167670666D01*
X108726714Y-167575428D01*
X108774333Y-167527809D01*
X108869571Y-167480190D01*
X109060047Y-167432571D01*
X109155285Y-167384952D01*
X109202904Y-167337333D01*
X109250523Y-167242095D01*
X109250523Y-167146857D01*
X109202904Y-167051619D01*
X109155285Y-167004000D01*
X109060047Y-166956380D01*
X108821952Y-166956380D01*
X108679095Y-167004000D01*
X108345761Y-166956380D02*
X108107666Y-167956380D01*
X107917190Y-167242095D01*
X107726714Y-167956380D01*
X107488619Y-166956380D01*
X106631476Y-166956380D02*
X107107666Y-166956380D01*
X107155285Y-167432571D01*
X107107666Y-167384952D01*
X107012428Y-167337333D01*
X106774333Y-167337333D01*
X106679095Y-167384952D01*
X106631476Y-167432571D01*
X106583857Y-167527809D01*
X106583857Y-167765904D01*
X106631476Y-167861142D01*
X106679095Y-167908761D01*
X106774333Y-167956380D01*
X107012428Y-167956380D01*
X107107666Y-167908761D01*
X107155285Y-167861142D01*
X106250523Y-166956380D02*
X105583857Y-166956380D01*
X106012428Y-167956380D01*
%TO.C,SW60*%
X99775523Y-91858761D02*
X99632666Y-91906380D01*
X99394571Y-91906380D01*
X99299333Y-91858761D01*
X99251714Y-91811142D01*
X99204095Y-91715904D01*
X99204095Y-91620666D01*
X99251714Y-91525428D01*
X99299333Y-91477809D01*
X99394571Y-91430190D01*
X99585047Y-91382571D01*
X99680285Y-91334952D01*
X99727904Y-91287333D01*
X99775523Y-91192095D01*
X99775523Y-91096857D01*
X99727904Y-91001619D01*
X99680285Y-90954000D01*
X99585047Y-90906380D01*
X99346952Y-90906380D01*
X99204095Y-90954000D01*
X98870761Y-90906380D02*
X98632666Y-91906380D01*
X98442190Y-91192095D01*
X98251714Y-91906380D01*
X98013619Y-90906380D01*
X97204095Y-90906380D02*
X97394571Y-90906380D01*
X97489809Y-90954000D01*
X97537428Y-91001619D01*
X97632666Y-91144476D01*
X97680285Y-91334952D01*
X97680285Y-91715904D01*
X97632666Y-91811142D01*
X97585047Y-91858761D01*
X97489809Y-91906380D01*
X97299333Y-91906380D01*
X97204095Y-91858761D01*
X97156476Y-91811142D01*
X97108857Y-91715904D01*
X97108857Y-91477809D01*
X97156476Y-91382571D01*
X97204095Y-91334952D01*
X97299333Y-91287333D01*
X97489809Y-91287333D01*
X97585047Y-91334952D01*
X97632666Y-91382571D01*
X97680285Y-91477809D01*
X96489809Y-90906380D02*
X96394571Y-90906380D01*
X96299333Y-90954000D01*
X96251714Y-91001619D01*
X96204095Y-91096857D01*
X96156476Y-91287333D01*
X96156476Y-91525428D01*
X96204095Y-91715904D01*
X96251714Y-91811142D01*
X96299333Y-91858761D01*
X96394571Y-91906380D01*
X96489809Y-91906380D01*
X96585047Y-91858761D01*
X96632666Y-91811142D01*
X96680285Y-91715904D01*
X96727904Y-91525428D01*
X96727904Y-91287333D01*
X96680285Y-91096857D01*
X96632666Y-91001619D01*
X96585047Y-90954000D01*
X96489809Y-90906380D01*
%TO.C,SW61*%
X95025523Y-110858761D02*
X94882666Y-110906380D01*
X94644571Y-110906380D01*
X94549333Y-110858761D01*
X94501714Y-110811142D01*
X94454095Y-110715904D01*
X94454095Y-110620666D01*
X94501714Y-110525428D01*
X94549333Y-110477809D01*
X94644571Y-110430190D01*
X94835047Y-110382571D01*
X94930285Y-110334952D01*
X94977904Y-110287333D01*
X95025523Y-110192095D01*
X95025523Y-110096857D01*
X94977904Y-110001619D01*
X94930285Y-109954000D01*
X94835047Y-109906380D01*
X94596952Y-109906380D01*
X94454095Y-109954000D01*
X94120761Y-109906380D02*
X93882666Y-110906380D01*
X93692190Y-110192095D01*
X93501714Y-110906380D01*
X93263619Y-109906380D01*
X92454095Y-109906380D02*
X92644571Y-109906380D01*
X92739809Y-109954000D01*
X92787428Y-110001619D01*
X92882666Y-110144476D01*
X92930285Y-110334952D01*
X92930285Y-110715904D01*
X92882666Y-110811142D01*
X92835047Y-110858761D01*
X92739809Y-110906380D01*
X92549333Y-110906380D01*
X92454095Y-110858761D01*
X92406476Y-110811142D01*
X92358857Y-110715904D01*
X92358857Y-110477809D01*
X92406476Y-110382571D01*
X92454095Y-110334952D01*
X92549333Y-110287333D01*
X92739809Y-110287333D01*
X92835047Y-110334952D01*
X92882666Y-110382571D01*
X92930285Y-110477809D01*
X91406476Y-110906380D02*
X91977904Y-110906380D01*
X91692190Y-110906380D02*
X91692190Y-109906380D01*
X91787428Y-110049238D01*
X91882666Y-110144476D01*
X91977904Y-110192095D01*
%TO.C,SW62*%
X102075523Y-129898761D02*
X101932666Y-129946380D01*
X101694571Y-129946380D01*
X101599333Y-129898761D01*
X101551714Y-129851142D01*
X101504095Y-129755904D01*
X101504095Y-129660666D01*
X101551714Y-129565428D01*
X101599333Y-129517809D01*
X101694571Y-129470190D01*
X101885047Y-129422571D01*
X101980285Y-129374952D01*
X102027904Y-129327333D01*
X102075523Y-129232095D01*
X102075523Y-129136857D01*
X102027904Y-129041619D01*
X101980285Y-128994000D01*
X101885047Y-128946380D01*
X101646952Y-128946380D01*
X101504095Y-128994000D01*
X101170761Y-128946380D02*
X100932666Y-129946380D01*
X100742190Y-129232095D01*
X100551714Y-129946380D01*
X100313619Y-128946380D01*
X99504095Y-128946380D02*
X99694571Y-128946380D01*
X99789809Y-128994000D01*
X99837428Y-129041619D01*
X99932666Y-129184476D01*
X99980285Y-129374952D01*
X99980285Y-129755904D01*
X99932666Y-129851142D01*
X99885047Y-129898761D01*
X99789809Y-129946380D01*
X99599333Y-129946380D01*
X99504095Y-129898761D01*
X99456476Y-129851142D01*
X99408857Y-129755904D01*
X99408857Y-129517809D01*
X99456476Y-129422571D01*
X99504095Y-129374952D01*
X99599333Y-129327333D01*
X99789809Y-129327333D01*
X99885047Y-129374952D01*
X99932666Y-129422571D01*
X99980285Y-129517809D01*
X99027904Y-129041619D02*
X98980285Y-128994000D01*
X98885047Y-128946380D01*
X98646952Y-128946380D01*
X98551714Y-128994000D01*
X98504095Y-129041619D01*
X98456476Y-129136857D01*
X98456476Y-129232095D01*
X98504095Y-129374952D01*
X99075523Y-129946380D01*
X98456476Y-129946380D01*
%TO.C,SW37*%
X199550523Y-148858761D02*
X199407666Y-148906380D01*
X199169571Y-148906380D01*
X199074333Y-148858761D01*
X199026714Y-148811142D01*
X198979095Y-148715904D01*
X198979095Y-148620666D01*
X199026714Y-148525428D01*
X199074333Y-148477809D01*
X199169571Y-148430190D01*
X199360047Y-148382571D01*
X199455285Y-148334952D01*
X199502904Y-148287333D01*
X199550523Y-148192095D01*
X199550523Y-148096857D01*
X199502904Y-148001619D01*
X199455285Y-147954000D01*
X199360047Y-147906380D01*
X199121952Y-147906380D01*
X198979095Y-147954000D01*
X198645761Y-147906380D02*
X198407666Y-148906380D01*
X198217190Y-148192095D01*
X198026714Y-148906380D01*
X197788619Y-147906380D01*
X197502904Y-147906380D02*
X196883857Y-147906380D01*
X197217190Y-148287333D01*
X197074333Y-148287333D01*
X196979095Y-148334952D01*
X196931476Y-148382571D01*
X196883857Y-148477809D01*
X196883857Y-148715904D01*
X196931476Y-148811142D01*
X196979095Y-148858761D01*
X197074333Y-148906380D01*
X197360047Y-148906380D01*
X197455285Y-148858761D01*
X197502904Y-148811142D01*
X196550523Y-147906380D02*
X195883857Y-147906380D01*
X196312428Y-148906380D01*
%TO.C,SW26*%
X251775523Y-110858761D02*
X251632666Y-110906380D01*
X251394571Y-110906380D01*
X251299333Y-110858761D01*
X251251714Y-110811142D01*
X251204095Y-110715904D01*
X251204095Y-110620666D01*
X251251714Y-110525428D01*
X251299333Y-110477809D01*
X251394571Y-110430190D01*
X251585047Y-110382571D01*
X251680285Y-110334952D01*
X251727904Y-110287333D01*
X251775523Y-110192095D01*
X251775523Y-110096857D01*
X251727904Y-110001619D01*
X251680285Y-109954000D01*
X251585047Y-109906380D01*
X251346952Y-109906380D01*
X251204095Y-109954000D01*
X250870761Y-109906380D02*
X250632666Y-110906380D01*
X250442190Y-110192095D01*
X250251714Y-110906380D01*
X250013619Y-109906380D01*
X249680285Y-110001619D02*
X249632666Y-109954000D01*
X249537428Y-109906380D01*
X249299333Y-109906380D01*
X249204095Y-109954000D01*
X249156476Y-110001619D01*
X249108857Y-110096857D01*
X249108857Y-110192095D01*
X249156476Y-110334952D01*
X249727904Y-110906380D01*
X249108857Y-110906380D01*
X248251714Y-109906380D02*
X248442190Y-109906380D01*
X248537428Y-109954000D01*
X248585047Y-110001619D01*
X248680285Y-110144476D01*
X248727904Y-110334952D01*
X248727904Y-110715904D01*
X248680285Y-110811142D01*
X248632666Y-110858761D01*
X248537428Y-110906380D01*
X248346952Y-110906380D01*
X248251714Y-110858761D01*
X248204095Y-110811142D01*
X248156476Y-110715904D01*
X248156476Y-110477809D01*
X248204095Y-110382571D01*
X248251714Y-110334952D01*
X248346952Y-110287333D01*
X248537428Y-110287333D01*
X248632666Y-110334952D01*
X248680285Y-110382571D01*
X248727904Y-110477809D01*
%TO.C,SW41*%
X180550523Y-148858761D02*
X180407666Y-148906380D01*
X180169571Y-148906380D01*
X180074333Y-148858761D01*
X180026714Y-148811142D01*
X179979095Y-148715904D01*
X179979095Y-148620666D01*
X180026714Y-148525428D01*
X180074333Y-148477809D01*
X180169571Y-148430190D01*
X180360047Y-148382571D01*
X180455285Y-148334952D01*
X180502904Y-148287333D01*
X180550523Y-148192095D01*
X180550523Y-148096857D01*
X180502904Y-148001619D01*
X180455285Y-147954000D01*
X180360047Y-147906380D01*
X180121952Y-147906380D01*
X179979095Y-147954000D01*
X179645761Y-147906380D02*
X179407666Y-148906380D01*
X179217190Y-148192095D01*
X179026714Y-148906380D01*
X178788619Y-147906380D01*
X177979095Y-148239714D02*
X177979095Y-148906380D01*
X178217190Y-147858761D02*
X178455285Y-148573047D01*
X177836238Y-148573047D01*
X176931476Y-148906380D02*
X177502904Y-148906380D01*
X177217190Y-148906380D02*
X177217190Y-147906380D01*
X177312428Y-148049238D01*
X177407666Y-148144476D01*
X177502904Y-148192095D01*
%TO.C,SW34*%
X223275523Y-91858761D02*
X223132666Y-91906380D01*
X222894571Y-91906380D01*
X222799333Y-91858761D01*
X222751714Y-91811142D01*
X222704095Y-91715904D01*
X222704095Y-91620666D01*
X222751714Y-91525428D01*
X222799333Y-91477809D01*
X222894571Y-91430190D01*
X223085047Y-91382571D01*
X223180285Y-91334952D01*
X223227904Y-91287333D01*
X223275523Y-91192095D01*
X223275523Y-91096857D01*
X223227904Y-91001619D01*
X223180285Y-90954000D01*
X223085047Y-90906380D01*
X222846952Y-90906380D01*
X222704095Y-90954000D01*
X222370761Y-90906380D02*
X222132666Y-91906380D01*
X221942190Y-91192095D01*
X221751714Y-91906380D01*
X221513619Y-90906380D01*
X221227904Y-90906380D02*
X220608857Y-90906380D01*
X220942190Y-91287333D01*
X220799333Y-91287333D01*
X220704095Y-91334952D01*
X220656476Y-91382571D01*
X220608857Y-91477809D01*
X220608857Y-91715904D01*
X220656476Y-91811142D01*
X220704095Y-91858761D01*
X220799333Y-91906380D01*
X221085047Y-91906380D01*
X221180285Y-91858761D01*
X221227904Y-91811142D01*
X219751714Y-91239714D02*
X219751714Y-91906380D01*
X219989809Y-90858761D02*
X220227904Y-91573047D01*
X219608857Y-91573047D01*
%TO.C,SW21*%
X280275523Y-91858761D02*
X280132666Y-91906380D01*
X279894571Y-91906380D01*
X279799333Y-91858761D01*
X279751714Y-91811142D01*
X279704095Y-91715904D01*
X279704095Y-91620666D01*
X279751714Y-91525428D01*
X279799333Y-91477809D01*
X279894571Y-91430190D01*
X280085047Y-91382571D01*
X280180285Y-91334952D01*
X280227904Y-91287333D01*
X280275523Y-91192095D01*
X280275523Y-91096857D01*
X280227904Y-91001619D01*
X280180285Y-90954000D01*
X280085047Y-90906380D01*
X279846952Y-90906380D01*
X279704095Y-90954000D01*
X279370761Y-90906380D02*
X279132666Y-91906380D01*
X278942190Y-91192095D01*
X278751714Y-91906380D01*
X278513619Y-90906380D01*
X278180285Y-91001619D02*
X278132666Y-90954000D01*
X278037428Y-90906380D01*
X277799333Y-90906380D01*
X277704095Y-90954000D01*
X277656476Y-91001619D01*
X277608857Y-91096857D01*
X277608857Y-91192095D01*
X277656476Y-91334952D01*
X278227904Y-91906380D01*
X277608857Y-91906380D01*
X276656476Y-91906380D02*
X277227904Y-91906380D01*
X276942190Y-91906380D02*
X276942190Y-90906380D01*
X277037428Y-91049238D01*
X277132666Y-91144476D01*
X277227904Y-91192095D01*
%TO.C,SW25*%
X261275523Y-91858761D02*
X261132666Y-91906380D01*
X260894571Y-91906380D01*
X260799333Y-91858761D01*
X260751714Y-91811142D01*
X260704095Y-91715904D01*
X260704095Y-91620666D01*
X260751714Y-91525428D01*
X260799333Y-91477809D01*
X260894571Y-91430190D01*
X261085047Y-91382571D01*
X261180285Y-91334952D01*
X261227904Y-91287333D01*
X261275523Y-91192095D01*
X261275523Y-91096857D01*
X261227904Y-91001619D01*
X261180285Y-90954000D01*
X261085047Y-90906380D01*
X260846952Y-90906380D01*
X260704095Y-90954000D01*
X260370761Y-90906380D02*
X260132666Y-91906380D01*
X259942190Y-91192095D01*
X259751714Y-91906380D01*
X259513619Y-90906380D01*
X259180285Y-91001619D02*
X259132666Y-90954000D01*
X259037428Y-90906380D01*
X258799333Y-90906380D01*
X258704095Y-90954000D01*
X258656476Y-91001619D01*
X258608857Y-91096857D01*
X258608857Y-91192095D01*
X258656476Y-91334952D01*
X259227904Y-91906380D01*
X258608857Y-91906380D01*
X257704095Y-90906380D02*
X258180285Y-90906380D01*
X258227904Y-91382571D01*
X258180285Y-91334952D01*
X258085047Y-91287333D01*
X257846952Y-91287333D01*
X257751714Y-91334952D01*
X257704095Y-91382571D01*
X257656476Y-91477809D01*
X257656476Y-91715904D01*
X257704095Y-91811142D01*
X257751714Y-91858761D01*
X257846952Y-91906380D01*
X258085047Y-91906380D01*
X258180285Y-91858761D01*
X258227904Y-91811142D01*
%TO.C,SW38*%
X204275523Y-91858761D02*
X204132666Y-91906380D01*
X203894571Y-91906380D01*
X203799333Y-91858761D01*
X203751714Y-91811142D01*
X203704095Y-91715904D01*
X203704095Y-91620666D01*
X203751714Y-91525428D01*
X203799333Y-91477809D01*
X203894571Y-91430190D01*
X204085047Y-91382571D01*
X204180285Y-91334952D01*
X204227904Y-91287333D01*
X204275523Y-91192095D01*
X204275523Y-91096857D01*
X204227904Y-91001619D01*
X204180285Y-90954000D01*
X204085047Y-90906380D01*
X203846952Y-90906380D01*
X203704095Y-90954000D01*
X203370761Y-90906380D02*
X203132666Y-91906380D01*
X202942190Y-91192095D01*
X202751714Y-91906380D01*
X202513619Y-90906380D01*
X202227904Y-90906380D02*
X201608857Y-90906380D01*
X201942190Y-91287333D01*
X201799333Y-91287333D01*
X201704095Y-91334952D01*
X201656476Y-91382571D01*
X201608857Y-91477809D01*
X201608857Y-91715904D01*
X201656476Y-91811142D01*
X201704095Y-91858761D01*
X201799333Y-91906380D01*
X202085047Y-91906380D01*
X202180285Y-91858761D01*
X202227904Y-91811142D01*
X201037428Y-91334952D02*
X201132666Y-91287333D01*
X201180285Y-91239714D01*
X201227904Y-91144476D01*
X201227904Y-91096857D01*
X201180285Y-91001619D01*
X201132666Y-90954000D01*
X201037428Y-90906380D01*
X200846952Y-90906380D01*
X200751714Y-90954000D01*
X200704095Y-91001619D01*
X200656476Y-91096857D01*
X200656476Y-91144476D01*
X200704095Y-91239714D01*
X200751714Y-91287333D01*
X200846952Y-91334952D01*
X201037428Y-91334952D01*
X201132666Y-91382571D01*
X201180285Y-91430190D01*
X201227904Y-91525428D01*
X201227904Y-91715904D01*
X201180285Y-91811142D01*
X201132666Y-91858761D01*
X201037428Y-91906380D01*
X200846952Y-91906380D01*
X200751714Y-91858761D01*
X200704095Y-91811142D01*
X200656476Y-91715904D01*
X200656476Y-91525428D01*
X200704095Y-91430190D01*
X200751714Y-91382571D01*
X200846952Y-91334952D01*
%TO.C,SW43*%
X185275523Y-91858761D02*
X185132666Y-91906380D01*
X184894571Y-91906380D01*
X184799333Y-91858761D01*
X184751714Y-91811142D01*
X184704095Y-91715904D01*
X184704095Y-91620666D01*
X184751714Y-91525428D01*
X184799333Y-91477809D01*
X184894571Y-91430190D01*
X185085047Y-91382571D01*
X185180285Y-91334952D01*
X185227904Y-91287333D01*
X185275523Y-91192095D01*
X185275523Y-91096857D01*
X185227904Y-91001619D01*
X185180285Y-90954000D01*
X185085047Y-90906380D01*
X184846952Y-90906380D01*
X184704095Y-90954000D01*
X184370761Y-90906380D02*
X184132666Y-91906380D01*
X183942190Y-91192095D01*
X183751714Y-91906380D01*
X183513619Y-90906380D01*
X182704095Y-91239714D02*
X182704095Y-91906380D01*
X182942190Y-90858761D02*
X183180285Y-91573047D01*
X182561238Y-91573047D01*
X182275523Y-90906380D02*
X181656476Y-90906380D01*
X181989809Y-91287333D01*
X181846952Y-91287333D01*
X181751714Y-91334952D01*
X181704095Y-91382571D01*
X181656476Y-91477809D01*
X181656476Y-91715904D01*
X181704095Y-91811142D01*
X181751714Y-91858761D01*
X181846952Y-91906380D01*
X182132666Y-91906380D01*
X182227904Y-91858761D01*
X182275523Y-91811142D01*
%TO.C,SW48*%
X166275523Y-91858761D02*
X166132666Y-91906380D01*
X165894571Y-91906380D01*
X165799333Y-91858761D01*
X165751714Y-91811142D01*
X165704095Y-91715904D01*
X165704095Y-91620666D01*
X165751714Y-91525428D01*
X165799333Y-91477809D01*
X165894571Y-91430190D01*
X166085047Y-91382571D01*
X166180285Y-91334952D01*
X166227904Y-91287333D01*
X166275523Y-91192095D01*
X166275523Y-91096857D01*
X166227904Y-91001619D01*
X166180285Y-90954000D01*
X166085047Y-90906380D01*
X165846952Y-90906380D01*
X165704095Y-90954000D01*
X165370761Y-90906380D02*
X165132666Y-91906380D01*
X164942190Y-91192095D01*
X164751714Y-91906380D01*
X164513619Y-90906380D01*
X163704095Y-91239714D02*
X163704095Y-91906380D01*
X163942190Y-90858761D02*
X164180285Y-91573047D01*
X163561238Y-91573047D01*
X163037428Y-91334952D02*
X163132666Y-91287333D01*
X163180285Y-91239714D01*
X163227904Y-91144476D01*
X163227904Y-91096857D01*
X163180285Y-91001619D01*
X163132666Y-90954000D01*
X163037428Y-90906380D01*
X162846952Y-90906380D01*
X162751714Y-90954000D01*
X162704095Y-91001619D01*
X162656476Y-91096857D01*
X162656476Y-91144476D01*
X162704095Y-91239714D01*
X162751714Y-91287333D01*
X162846952Y-91334952D01*
X163037428Y-91334952D01*
X163132666Y-91382571D01*
X163180285Y-91430190D01*
X163227904Y-91525428D01*
X163227904Y-91715904D01*
X163180285Y-91811142D01*
X163132666Y-91858761D01*
X163037428Y-91906380D01*
X162846952Y-91906380D01*
X162751714Y-91858761D01*
X162704095Y-91811142D01*
X162656476Y-91715904D01*
X162656476Y-91525428D01*
X162704095Y-91430190D01*
X162751714Y-91382571D01*
X162846952Y-91334952D01*
%TO.C,SW53*%
X147275523Y-91858761D02*
X147132666Y-91906380D01*
X146894571Y-91906380D01*
X146799333Y-91858761D01*
X146751714Y-91811142D01*
X146704095Y-91715904D01*
X146704095Y-91620666D01*
X146751714Y-91525428D01*
X146799333Y-91477809D01*
X146894571Y-91430190D01*
X147085047Y-91382571D01*
X147180285Y-91334952D01*
X147227904Y-91287333D01*
X147275523Y-91192095D01*
X147275523Y-91096857D01*
X147227904Y-91001619D01*
X147180285Y-90954000D01*
X147085047Y-90906380D01*
X146846952Y-90906380D01*
X146704095Y-90954000D01*
X146370761Y-90906380D02*
X146132666Y-91906380D01*
X145942190Y-91192095D01*
X145751714Y-91906380D01*
X145513619Y-90906380D01*
X144656476Y-90906380D02*
X145132666Y-90906380D01*
X145180285Y-91382571D01*
X145132666Y-91334952D01*
X145037428Y-91287333D01*
X144799333Y-91287333D01*
X144704095Y-91334952D01*
X144656476Y-91382571D01*
X144608857Y-91477809D01*
X144608857Y-91715904D01*
X144656476Y-91811142D01*
X144704095Y-91858761D01*
X144799333Y-91906380D01*
X145037428Y-91906380D01*
X145132666Y-91858761D01*
X145180285Y-91811142D01*
X144275523Y-90906380D02*
X143656476Y-90906380D01*
X143989809Y-91287333D01*
X143846952Y-91287333D01*
X143751714Y-91334952D01*
X143704095Y-91382571D01*
X143656476Y-91477809D01*
X143656476Y-91715904D01*
X143704095Y-91811142D01*
X143751714Y-91858761D01*
X143846952Y-91906380D01*
X144132666Y-91906380D01*
X144227904Y-91858761D01*
X144275523Y-91811142D01*
%TO.C,SW58*%
X128275523Y-91858761D02*
X128132666Y-91906380D01*
X127894571Y-91906380D01*
X127799333Y-91858761D01*
X127751714Y-91811142D01*
X127704095Y-91715904D01*
X127704095Y-91620666D01*
X127751714Y-91525428D01*
X127799333Y-91477809D01*
X127894571Y-91430190D01*
X128085047Y-91382571D01*
X128180285Y-91334952D01*
X128227904Y-91287333D01*
X128275523Y-91192095D01*
X128275523Y-91096857D01*
X128227904Y-91001619D01*
X128180285Y-90954000D01*
X128085047Y-90906380D01*
X127846952Y-90906380D01*
X127704095Y-90954000D01*
X127370761Y-90906380D02*
X127132666Y-91906380D01*
X126942190Y-91192095D01*
X126751714Y-91906380D01*
X126513619Y-90906380D01*
X125656476Y-90906380D02*
X126132666Y-90906380D01*
X126180285Y-91382571D01*
X126132666Y-91334952D01*
X126037428Y-91287333D01*
X125799333Y-91287333D01*
X125704095Y-91334952D01*
X125656476Y-91382571D01*
X125608857Y-91477809D01*
X125608857Y-91715904D01*
X125656476Y-91811142D01*
X125704095Y-91858761D01*
X125799333Y-91906380D01*
X126037428Y-91906380D01*
X126132666Y-91858761D01*
X126180285Y-91811142D01*
X125037428Y-91334952D02*
X125132666Y-91287333D01*
X125180285Y-91239714D01*
X125227904Y-91144476D01*
X125227904Y-91096857D01*
X125180285Y-91001619D01*
X125132666Y-90954000D01*
X125037428Y-90906380D01*
X124846952Y-90906380D01*
X124751714Y-90954000D01*
X124704095Y-91001619D01*
X124656476Y-91096857D01*
X124656476Y-91144476D01*
X124704095Y-91239714D01*
X124751714Y-91287333D01*
X124846952Y-91334952D01*
X125037428Y-91334952D01*
X125132666Y-91382571D01*
X125180285Y-91430190D01*
X125227904Y-91525428D01*
X125227904Y-91715904D01*
X125180285Y-91811142D01*
X125132666Y-91858761D01*
X125037428Y-91906380D01*
X124846952Y-91906380D01*
X124751714Y-91858761D01*
X124704095Y-91811142D01*
X124656476Y-91715904D01*
X124656476Y-91525428D01*
X124704095Y-91430190D01*
X124751714Y-91382571D01*
X124846952Y-91334952D01*
%TO.C,SW65*%
X71275523Y-91858761D02*
X71132666Y-91906380D01*
X70894571Y-91906380D01*
X70799333Y-91858761D01*
X70751714Y-91811142D01*
X70704095Y-91715904D01*
X70704095Y-91620666D01*
X70751714Y-91525428D01*
X70799333Y-91477809D01*
X70894571Y-91430190D01*
X71085047Y-91382571D01*
X71180285Y-91334952D01*
X71227904Y-91287333D01*
X71275523Y-91192095D01*
X71275523Y-91096857D01*
X71227904Y-91001619D01*
X71180285Y-90954000D01*
X71085047Y-90906380D01*
X70846952Y-90906380D01*
X70704095Y-90954000D01*
X70370761Y-90906380D02*
X70132666Y-91906380D01*
X69942190Y-91192095D01*
X69751714Y-91906380D01*
X69513619Y-90906380D01*
X68704095Y-90906380D02*
X68894571Y-90906380D01*
X68989809Y-90954000D01*
X69037428Y-91001619D01*
X69132666Y-91144476D01*
X69180285Y-91334952D01*
X69180285Y-91715904D01*
X69132666Y-91811142D01*
X69085047Y-91858761D01*
X68989809Y-91906380D01*
X68799333Y-91906380D01*
X68704095Y-91858761D01*
X68656476Y-91811142D01*
X68608857Y-91715904D01*
X68608857Y-91477809D01*
X68656476Y-91382571D01*
X68704095Y-91334952D01*
X68799333Y-91287333D01*
X68989809Y-91287333D01*
X69085047Y-91334952D01*
X69132666Y-91382571D01*
X69180285Y-91477809D01*
X67704095Y-90906380D02*
X68180285Y-90906380D01*
X68227904Y-91382571D01*
X68180285Y-91334952D01*
X68085047Y-91287333D01*
X67846952Y-91287333D01*
X67751714Y-91334952D01*
X67704095Y-91382571D01*
X67656476Y-91477809D01*
X67656476Y-91715904D01*
X67704095Y-91811142D01*
X67751714Y-91858761D01*
X67846952Y-91906380D01*
X68085047Y-91906380D01*
X68180285Y-91858761D01*
X68227904Y-91811142D01*
%TO.C,SW8*%
X327299333Y-110858761D02*
X327156476Y-110906380D01*
X326918380Y-110906380D01*
X326823142Y-110858761D01*
X326775523Y-110811142D01*
X326727904Y-110715904D01*
X326727904Y-110620666D01*
X326775523Y-110525428D01*
X326823142Y-110477809D01*
X326918380Y-110430190D01*
X327108857Y-110382571D01*
X327204095Y-110334952D01*
X327251714Y-110287333D01*
X327299333Y-110192095D01*
X327299333Y-110096857D01*
X327251714Y-110001619D01*
X327204095Y-109954000D01*
X327108857Y-109906380D01*
X326870761Y-109906380D01*
X326727904Y-109954000D01*
X326394571Y-109906380D02*
X326156476Y-110906380D01*
X325966000Y-110192095D01*
X325775523Y-110906380D01*
X325537428Y-109906380D01*
X325013619Y-110334952D02*
X325108857Y-110287333D01*
X325156476Y-110239714D01*
X325204095Y-110144476D01*
X325204095Y-110096857D01*
X325156476Y-110001619D01*
X325108857Y-109954000D01*
X325013619Y-109906380D01*
X324823142Y-109906380D01*
X324727904Y-109954000D01*
X324680285Y-110001619D01*
X324632666Y-110096857D01*
X324632666Y-110144476D01*
X324680285Y-110239714D01*
X324727904Y-110287333D01*
X324823142Y-110334952D01*
X325013619Y-110334952D01*
X325108857Y-110382571D01*
X325156476Y-110430190D01*
X325204095Y-110525428D01*
X325204095Y-110715904D01*
X325156476Y-110811142D01*
X325108857Y-110858761D01*
X325013619Y-110906380D01*
X324823142Y-110906380D01*
X324727904Y-110858761D01*
X324680285Y-110811142D01*
X324632666Y-110715904D01*
X324632666Y-110525428D01*
X324680285Y-110430190D01*
X324727904Y-110382571D01*
X324823142Y-110334952D01*
%TO.C,SW13*%
X308775523Y-110858761D02*
X308632666Y-110906380D01*
X308394571Y-110906380D01*
X308299333Y-110858761D01*
X308251714Y-110811142D01*
X308204095Y-110715904D01*
X308204095Y-110620666D01*
X308251714Y-110525428D01*
X308299333Y-110477809D01*
X308394571Y-110430190D01*
X308585047Y-110382571D01*
X308680285Y-110334952D01*
X308727904Y-110287333D01*
X308775523Y-110192095D01*
X308775523Y-110096857D01*
X308727904Y-110001619D01*
X308680285Y-109954000D01*
X308585047Y-109906380D01*
X308346952Y-109906380D01*
X308204095Y-109954000D01*
X307870761Y-109906380D02*
X307632666Y-110906380D01*
X307442190Y-110192095D01*
X307251714Y-110906380D01*
X307013619Y-109906380D01*
X306108857Y-110906380D02*
X306680285Y-110906380D01*
X306394571Y-110906380D02*
X306394571Y-109906380D01*
X306489809Y-110049238D01*
X306585047Y-110144476D01*
X306680285Y-110192095D01*
X305775523Y-109906380D02*
X305156476Y-109906380D01*
X305489809Y-110287333D01*
X305346952Y-110287333D01*
X305251714Y-110334952D01*
X305204095Y-110382571D01*
X305156476Y-110477809D01*
X305156476Y-110715904D01*
X305204095Y-110811142D01*
X305251714Y-110858761D01*
X305346952Y-110906380D01*
X305632666Y-110906380D01*
X305727904Y-110858761D01*
X305775523Y-110811142D01*
%TO.C,SW18*%
X289775523Y-110858761D02*
X289632666Y-110906380D01*
X289394571Y-110906380D01*
X289299333Y-110858761D01*
X289251714Y-110811142D01*
X289204095Y-110715904D01*
X289204095Y-110620666D01*
X289251714Y-110525428D01*
X289299333Y-110477809D01*
X289394571Y-110430190D01*
X289585047Y-110382571D01*
X289680285Y-110334952D01*
X289727904Y-110287333D01*
X289775523Y-110192095D01*
X289775523Y-110096857D01*
X289727904Y-110001619D01*
X289680285Y-109954000D01*
X289585047Y-109906380D01*
X289346952Y-109906380D01*
X289204095Y-109954000D01*
X288870761Y-109906380D02*
X288632666Y-110906380D01*
X288442190Y-110192095D01*
X288251714Y-110906380D01*
X288013619Y-109906380D01*
X287108857Y-110906380D02*
X287680285Y-110906380D01*
X287394571Y-110906380D02*
X287394571Y-109906380D01*
X287489809Y-110049238D01*
X287585047Y-110144476D01*
X287680285Y-110192095D01*
X286537428Y-110334952D02*
X286632666Y-110287333D01*
X286680285Y-110239714D01*
X286727904Y-110144476D01*
X286727904Y-110096857D01*
X286680285Y-110001619D01*
X286632666Y-109954000D01*
X286537428Y-109906380D01*
X286346952Y-109906380D01*
X286251714Y-109954000D01*
X286204095Y-110001619D01*
X286156476Y-110096857D01*
X286156476Y-110144476D01*
X286204095Y-110239714D01*
X286251714Y-110287333D01*
X286346952Y-110334952D01*
X286537428Y-110334952D01*
X286632666Y-110382571D01*
X286680285Y-110430190D01*
X286727904Y-110525428D01*
X286727904Y-110715904D01*
X286680285Y-110811142D01*
X286632666Y-110858761D01*
X286537428Y-110906380D01*
X286346952Y-110906380D01*
X286251714Y-110858761D01*
X286204095Y-110811142D01*
X286156476Y-110715904D01*
X286156476Y-110525428D01*
X286204095Y-110430190D01*
X286251714Y-110382571D01*
X286346952Y-110334952D01*
%TO.C,SW22*%
X270775523Y-110858761D02*
X270632666Y-110906380D01*
X270394571Y-110906380D01*
X270299333Y-110858761D01*
X270251714Y-110811142D01*
X270204095Y-110715904D01*
X270204095Y-110620666D01*
X270251714Y-110525428D01*
X270299333Y-110477809D01*
X270394571Y-110430190D01*
X270585047Y-110382571D01*
X270680285Y-110334952D01*
X270727904Y-110287333D01*
X270775523Y-110192095D01*
X270775523Y-110096857D01*
X270727904Y-110001619D01*
X270680285Y-109954000D01*
X270585047Y-109906380D01*
X270346952Y-109906380D01*
X270204095Y-109954000D01*
X269870761Y-109906380D02*
X269632666Y-110906380D01*
X269442190Y-110192095D01*
X269251714Y-110906380D01*
X269013619Y-109906380D01*
X268680285Y-110001619D02*
X268632666Y-109954000D01*
X268537428Y-109906380D01*
X268299333Y-109906380D01*
X268204095Y-109954000D01*
X268156476Y-110001619D01*
X268108857Y-110096857D01*
X268108857Y-110192095D01*
X268156476Y-110334952D01*
X268727904Y-110906380D01*
X268108857Y-110906380D01*
X267727904Y-110001619D02*
X267680285Y-109954000D01*
X267585047Y-109906380D01*
X267346952Y-109906380D01*
X267251714Y-109954000D01*
X267204095Y-110001619D01*
X267156476Y-110096857D01*
X267156476Y-110192095D01*
X267204095Y-110334952D01*
X267775523Y-110906380D01*
X267156476Y-110906380D01*
%TO.C,SW31*%
X232775523Y-110858761D02*
X232632666Y-110906380D01*
X232394571Y-110906380D01*
X232299333Y-110858761D01*
X232251714Y-110811142D01*
X232204095Y-110715904D01*
X232204095Y-110620666D01*
X232251714Y-110525428D01*
X232299333Y-110477809D01*
X232394571Y-110430190D01*
X232585047Y-110382571D01*
X232680285Y-110334952D01*
X232727904Y-110287333D01*
X232775523Y-110192095D01*
X232775523Y-110096857D01*
X232727904Y-110001619D01*
X232680285Y-109954000D01*
X232585047Y-109906380D01*
X232346952Y-109906380D01*
X232204095Y-109954000D01*
X231870761Y-109906380D02*
X231632666Y-110906380D01*
X231442190Y-110192095D01*
X231251714Y-110906380D01*
X231013619Y-109906380D01*
X230727904Y-109906380D02*
X230108857Y-109906380D01*
X230442190Y-110287333D01*
X230299333Y-110287333D01*
X230204095Y-110334952D01*
X230156476Y-110382571D01*
X230108857Y-110477809D01*
X230108857Y-110715904D01*
X230156476Y-110811142D01*
X230204095Y-110858761D01*
X230299333Y-110906380D01*
X230585047Y-110906380D01*
X230680285Y-110858761D01*
X230727904Y-110811142D01*
X229156476Y-110906380D02*
X229727904Y-110906380D01*
X229442190Y-110906380D02*
X229442190Y-109906380D01*
X229537428Y-110049238D01*
X229632666Y-110144476D01*
X229727904Y-110192095D01*
%TO.C,SW35*%
X213775523Y-110858761D02*
X213632666Y-110906380D01*
X213394571Y-110906380D01*
X213299333Y-110858761D01*
X213251714Y-110811142D01*
X213204095Y-110715904D01*
X213204095Y-110620666D01*
X213251714Y-110525428D01*
X213299333Y-110477809D01*
X213394571Y-110430190D01*
X213585047Y-110382571D01*
X213680285Y-110334952D01*
X213727904Y-110287333D01*
X213775523Y-110192095D01*
X213775523Y-110096857D01*
X213727904Y-110001619D01*
X213680285Y-109954000D01*
X213585047Y-109906380D01*
X213346952Y-109906380D01*
X213204095Y-109954000D01*
X212870761Y-109906380D02*
X212632666Y-110906380D01*
X212442190Y-110192095D01*
X212251714Y-110906380D01*
X212013619Y-109906380D01*
X211727904Y-109906380D02*
X211108857Y-109906380D01*
X211442190Y-110287333D01*
X211299333Y-110287333D01*
X211204095Y-110334952D01*
X211156476Y-110382571D01*
X211108857Y-110477809D01*
X211108857Y-110715904D01*
X211156476Y-110811142D01*
X211204095Y-110858761D01*
X211299333Y-110906380D01*
X211585047Y-110906380D01*
X211680285Y-110858761D01*
X211727904Y-110811142D01*
X210204095Y-109906380D02*
X210680285Y-109906380D01*
X210727904Y-110382571D01*
X210680285Y-110334952D01*
X210585047Y-110287333D01*
X210346952Y-110287333D01*
X210251714Y-110334952D01*
X210204095Y-110382571D01*
X210156476Y-110477809D01*
X210156476Y-110715904D01*
X210204095Y-110811142D01*
X210251714Y-110858761D01*
X210346952Y-110906380D01*
X210585047Y-110906380D01*
X210680285Y-110858761D01*
X210727904Y-110811142D01*
%TO.C,SW39*%
X194775523Y-110858761D02*
X194632666Y-110906380D01*
X194394571Y-110906380D01*
X194299333Y-110858761D01*
X194251714Y-110811142D01*
X194204095Y-110715904D01*
X194204095Y-110620666D01*
X194251714Y-110525428D01*
X194299333Y-110477809D01*
X194394571Y-110430190D01*
X194585047Y-110382571D01*
X194680285Y-110334952D01*
X194727904Y-110287333D01*
X194775523Y-110192095D01*
X194775523Y-110096857D01*
X194727904Y-110001619D01*
X194680285Y-109954000D01*
X194585047Y-109906380D01*
X194346952Y-109906380D01*
X194204095Y-109954000D01*
X193870761Y-109906380D02*
X193632666Y-110906380D01*
X193442190Y-110192095D01*
X193251714Y-110906380D01*
X193013619Y-109906380D01*
X192727904Y-109906380D02*
X192108857Y-109906380D01*
X192442190Y-110287333D01*
X192299333Y-110287333D01*
X192204095Y-110334952D01*
X192156476Y-110382571D01*
X192108857Y-110477809D01*
X192108857Y-110715904D01*
X192156476Y-110811142D01*
X192204095Y-110858761D01*
X192299333Y-110906380D01*
X192585047Y-110906380D01*
X192680285Y-110858761D01*
X192727904Y-110811142D01*
X191632666Y-110906380D02*
X191442190Y-110906380D01*
X191346952Y-110858761D01*
X191299333Y-110811142D01*
X191204095Y-110668285D01*
X191156476Y-110477809D01*
X191156476Y-110096857D01*
X191204095Y-110001619D01*
X191251714Y-109954000D01*
X191346952Y-109906380D01*
X191537428Y-109906380D01*
X191632666Y-109954000D01*
X191680285Y-110001619D01*
X191727904Y-110096857D01*
X191727904Y-110334952D01*
X191680285Y-110430190D01*
X191632666Y-110477809D01*
X191537428Y-110525428D01*
X191346952Y-110525428D01*
X191251714Y-110477809D01*
X191204095Y-110430190D01*
X191156476Y-110334952D01*
%TO.C,SW44*%
X175775523Y-110858761D02*
X175632666Y-110906380D01*
X175394571Y-110906380D01*
X175299333Y-110858761D01*
X175251714Y-110811142D01*
X175204095Y-110715904D01*
X175204095Y-110620666D01*
X175251714Y-110525428D01*
X175299333Y-110477809D01*
X175394571Y-110430190D01*
X175585047Y-110382571D01*
X175680285Y-110334952D01*
X175727904Y-110287333D01*
X175775523Y-110192095D01*
X175775523Y-110096857D01*
X175727904Y-110001619D01*
X175680285Y-109954000D01*
X175585047Y-109906380D01*
X175346952Y-109906380D01*
X175204095Y-109954000D01*
X174870761Y-109906380D02*
X174632666Y-110906380D01*
X174442190Y-110192095D01*
X174251714Y-110906380D01*
X174013619Y-109906380D01*
X173204095Y-110239714D02*
X173204095Y-110906380D01*
X173442190Y-109858761D02*
X173680285Y-110573047D01*
X173061238Y-110573047D01*
X172251714Y-110239714D02*
X172251714Y-110906380D01*
X172489809Y-109858761D02*
X172727904Y-110573047D01*
X172108857Y-110573047D01*
%TO.C,SW49*%
X156775523Y-110858761D02*
X156632666Y-110906380D01*
X156394571Y-110906380D01*
X156299333Y-110858761D01*
X156251714Y-110811142D01*
X156204095Y-110715904D01*
X156204095Y-110620666D01*
X156251714Y-110525428D01*
X156299333Y-110477809D01*
X156394571Y-110430190D01*
X156585047Y-110382571D01*
X156680285Y-110334952D01*
X156727904Y-110287333D01*
X156775523Y-110192095D01*
X156775523Y-110096857D01*
X156727904Y-110001619D01*
X156680285Y-109954000D01*
X156585047Y-109906380D01*
X156346952Y-109906380D01*
X156204095Y-109954000D01*
X155870761Y-109906380D02*
X155632666Y-110906380D01*
X155442190Y-110192095D01*
X155251714Y-110906380D01*
X155013619Y-109906380D01*
X154204095Y-110239714D02*
X154204095Y-110906380D01*
X154442190Y-109858761D02*
X154680285Y-110573047D01*
X154061238Y-110573047D01*
X153632666Y-110906380D02*
X153442190Y-110906380D01*
X153346952Y-110858761D01*
X153299333Y-110811142D01*
X153204095Y-110668285D01*
X153156476Y-110477809D01*
X153156476Y-110096857D01*
X153204095Y-110001619D01*
X153251714Y-109954000D01*
X153346952Y-109906380D01*
X153537428Y-109906380D01*
X153632666Y-109954000D01*
X153680285Y-110001619D01*
X153727904Y-110096857D01*
X153727904Y-110334952D01*
X153680285Y-110430190D01*
X153632666Y-110477809D01*
X153537428Y-110525428D01*
X153346952Y-110525428D01*
X153251714Y-110477809D01*
X153204095Y-110430190D01*
X153156476Y-110334952D01*
%TO.C,SW54*%
X137775523Y-110858761D02*
X137632666Y-110906380D01*
X137394571Y-110906380D01*
X137299333Y-110858761D01*
X137251714Y-110811142D01*
X137204095Y-110715904D01*
X137204095Y-110620666D01*
X137251714Y-110525428D01*
X137299333Y-110477809D01*
X137394571Y-110430190D01*
X137585047Y-110382571D01*
X137680285Y-110334952D01*
X137727904Y-110287333D01*
X137775523Y-110192095D01*
X137775523Y-110096857D01*
X137727904Y-110001619D01*
X137680285Y-109954000D01*
X137585047Y-109906380D01*
X137346952Y-109906380D01*
X137204095Y-109954000D01*
X136870761Y-109906380D02*
X136632666Y-110906380D01*
X136442190Y-110192095D01*
X136251714Y-110906380D01*
X136013619Y-109906380D01*
X135156476Y-109906380D02*
X135632666Y-109906380D01*
X135680285Y-110382571D01*
X135632666Y-110334952D01*
X135537428Y-110287333D01*
X135299333Y-110287333D01*
X135204095Y-110334952D01*
X135156476Y-110382571D01*
X135108857Y-110477809D01*
X135108857Y-110715904D01*
X135156476Y-110811142D01*
X135204095Y-110858761D01*
X135299333Y-110906380D01*
X135537428Y-110906380D01*
X135632666Y-110858761D01*
X135680285Y-110811142D01*
X134251714Y-110239714D02*
X134251714Y-110906380D01*
X134489809Y-109858761D02*
X134727904Y-110573047D01*
X134108857Y-110573047D01*
%TO.C,SW59*%
X118775523Y-110858761D02*
X118632666Y-110906380D01*
X118394571Y-110906380D01*
X118299333Y-110858761D01*
X118251714Y-110811142D01*
X118204095Y-110715904D01*
X118204095Y-110620666D01*
X118251714Y-110525428D01*
X118299333Y-110477809D01*
X118394571Y-110430190D01*
X118585047Y-110382571D01*
X118680285Y-110334952D01*
X118727904Y-110287333D01*
X118775523Y-110192095D01*
X118775523Y-110096857D01*
X118727904Y-110001619D01*
X118680285Y-109954000D01*
X118585047Y-109906380D01*
X118346952Y-109906380D01*
X118204095Y-109954000D01*
X117870761Y-109906380D02*
X117632666Y-110906380D01*
X117442190Y-110192095D01*
X117251714Y-110906380D01*
X117013619Y-109906380D01*
X116156476Y-109906380D02*
X116632666Y-109906380D01*
X116680285Y-110382571D01*
X116632666Y-110334952D01*
X116537428Y-110287333D01*
X116299333Y-110287333D01*
X116204095Y-110334952D01*
X116156476Y-110382571D01*
X116108857Y-110477809D01*
X116108857Y-110715904D01*
X116156476Y-110811142D01*
X116204095Y-110858761D01*
X116299333Y-110906380D01*
X116537428Y-110906380D01*
X116632666Y-110858761D01*
X116680285Y-110811142D01*
X115632666Y-110906380D02*
X115442190Y-110906380D01*
X115346952Y-110858761D01*
X115299333Y-110811142D01*
X115204095Y-110668285D01*
X115156476Y-110477809D01*
X115156476Y-110096857D01*
X115204095Y-110001619D01*
X115251714Y-109954000D01*
X115346952Y-109906380D01*
X115537428Y-109906380D01*
X115632666Y-109954000D01*
X115680285Y-110001619D01*
X115727904Y-110096857D01*
X115727904Y-110334952D01*
X115680285Y-110430190D01*
X115632666Y-110477809D01*
X115537428Y-110525428D01*
X115346952Y-110525428D01*
X115251714Y-110477809D01*
X115204095Y-110430190D01*
X115156476Y-110334952D01*
%TO.C,SW66*%
X71275523Y-110858761D02*
X71132666Y-110906380D01*
X70894571Y-110906380D01*
X70799333Y-110858761D01*
X70751714Y-110811142D01*
X70704095Y-110715904D01*
X70704095Y-110620666D01*
X70751714Y-110525428D01*
X70799333Y-110477809D01*
X70894571Y-110430190D01*
X71085047Y-110382571D01*
X71180285Y-110334952D01*
X71227904Y-110287333D01*
X71275523Y-110192095D01*
X71275523Y-110096857D01*
X71227904Y-110001619D01*
X71180285Y-109954000D01*
X71085047Y-109906380D01*
X70846952Y-109906380D01*
X70704095Y-109954000D01*
X70370761Y-109906380D02*
X70132666Y-110906380D01*
X69942190Y-110192095D01*
X69751714Y-110906380D01*
X69513619Y-109906380D01*
X68704095Y-109906380D02*
X68894571Y-109906380D01*
X68989809Y-109954000D01*
X69037428Y-110001619D01*
X69132666Y-110144476D01*
X69180285Y-110334952D01*
X69180285Y-110715904D01*
X69132666Y-110811142D01*
X69085047Y-110858761D01*
X68989809Y-110906380D01*
X68799333Y-110906380D01*
X68704095Y-110858761D01*
X68656476Y-110811142D01*
X68608857Y-110715904D01*
X68608857Y-110477809D01*
X68656476Y-110382571D01*
X68704095Y-110334952D01*
X68799333Y-110287333D01*
X68989809Y-110287333D01*
X69085047Y-110334952D01*
X69132666Y-110382571D01*
X69180285Y-110477809D01*
X67751714Y-109906380D02*
X67942190Y-109906380D01*
X68037428Y-109954000D01*
X68085047Y-110001619D01*
X68180285Y-110144476D01*
X68227904Y-110334952D01*
X68227904Y-110715904D01*
X68180285Y-110811142D01*
X68132666Y-110858761D01*
X68037428Y-110906380D01*
X67846952Y-110906380D01*
X67751714Y-110858761D01*
X67704095Y-110811142D01*
X67656476Y-110715904D01*
X67656476Y-110477809D01*
X67704095Y-110382571D01*
X67751714Y-110334952D01*
X67846952Y-110287333D01*
X68037428Y-110287333D01*
X68132666Y-110334952D01*
X68180285Y-110382571D01*
X68227904Y-110477809D01*
%TO.C,SW9*%
X322449333Y-129908761D02*
X322306476Y-129956380D01*
X322068380Y-129956380D01*
X321973142Y-129908761D01*
X321925523Y-129861142D01*
X321877904Y-129765904D01*
X321877904Y-129670666D01*
X321925523Y-129575428D01*
X321973142Y-129527809D01*
X322068380Y-129480190D01*
X322258857Y-129432571D01*
X322354095Y-129384952D01*
X322401714Y-129337333D01*
X322449333Y-129242095D01*
X322449333Y-129146857D01*
X322401714Y-129051619D01*
X322354095Y-129004000D01*
X322258857Y-128956380D01*
X322020761Y-128956380D01*
X321877904Y-129004000D01*
X321544571Y-128956380D02*
X321306476Y-129956380D01*
X321116000Y-129242095D01*
X320925523Y-129956380D01*
X320687428Y-128956380D01*
X320258857Y-129956380D02*
X320068380Y-129956380D01*
X319973142Y-129908761D01*
X319925523Y-129861142D01*
X319830285Y-129718285D01*
X319782666Y-129527809D01*
X319782666Y-129146857D01*
X319830285Y-129051619D01*
X319877904Y-129004000D01*
X319973142Y-128956380D01*
X320163619Y-128956380D01*
X320258857Y-129004000D01*
X320306476Y-129051619D01*
X320354095Y-129146857D01*
X320354095Y-129384952D01*
X320306476Y-129480190D01*
X320258857Y-129527809D01*
X320163619Y-129575428D01*
X319973142Y-129575428D01*
X319877904Y-129527809D01*
X319830285Y-129480190D01*
X319782666Y-129384952D01*
%TO.C,SW14*%
X303925523Y-129908761D02*
X303782666Y-129956380D01*
X303544571Y-129956380D01*
X303449333Y-129908761D01*
X303401714Y-129861142D01*
X303354095Y-129765904D01*
X303354095Y-129670666D01*
X303401714Y-129575428D01*
X303449333Y-129527809D01*
X303544571Y-129480190D01*
X303735047Y-129432571D01*
X303830285Y-129384952D01*
X303877904Y-129337333D01*
X303925523Y-129242095D01*
X303925523Y-129146857D01*
X303877904Y-129051619D01*
X303830285Y-129004000D01*
X303735047Y-128956380D01*
X303496952Y-128956380D01*
X303354095Y-129004000D01*
X303020761Y-128956380D02*
X302782666Y-129956380D01*
X302592190Y-129242095D01*
X302401714Y-129956380D01*
X302163619Y-128956380D01*
X301258857Y-129956380D02*
X301830285Y-129956380D01*
X301544571Y-129956380D02*
X301544571Y-128956380D01*
X301639809Y-129099238D01*
X301735047Y-129194476D01*
X301830285Y-129242095D01*
X300401714Y-129289714D02*
X300401714Y-129956380D01*
X300639809Y-128908761D02*
X300877904Y-129623047D01*
X300258857Y-129623047D01*
%TO.C,SW19*%
X284925523Y-129908761D02*
X284782666Y-129956380D01*
X284544571Y-129956380D01*
X284449333Y-129908761D01*
X284401714Y-129861142D01*
X284354095Y-129765904D01*
X284354095Y-129670666D01*
X284401714Y-129575428D01*
X284449333Y-129527809D01*
X284544571Y-129480190D01*
X284735047Y-129432571D01*
X284830285Y-129384952D01*
X284877904Y-129337333D01*
X284925523Y-129242095D01*
X284925523Y-129146857D01*
X284877904Y-129051619D01*
X284830285Y-129004000D01*
X284735047Y-128956380D01*
X284496952Y-128956380D01*
X284354095Y-129004000D01*
X284020761Y-128956380D02*
X283782666Y-129956380D01*
X283592190Y-129242095D01*
X283401714Y-129956380D01*
X283163619Y-128956380D01*
X282258857Y-129956380D02*
X282830285Y-129956380D01*
X282544571Y-129956380D02*
X282544571Y-128956380D01*
X282639809Y-129099238D01*
X282735047Y-129194476D01*
X282830285Y-129242095D01*
X281782666Y-129956380D02*
X281592190Y-129956380D01*
X281496952Y-129908761D01*
X281449333Y-129861142D01*
X281354095Y-129718285D01*
X281306476Y-129527809D01*
X281306476Y-129146857D01*
X281354095Y-129051619D01*
X281401714Y-129004000D01*
X281496952Y-128956380D01*
X281687428Y-128956380D01*
X281782666Y-129004000D01*
X281830285Y-129051619D01*
X281877904Y-129146857D01*
X281877904Y-129384952D01*
X281830285Y-129480190D01*
X281782666Y-129527809D01*
X281687428Y-129575428D01*
X281496952Y-129575428D01*
X281401714Y-129527809D01*
X281354095Y-129480190D01*
X281306476Y-129384952D01*
%TO.C,SW23*%
X265925523Y-129908761D02*
X265782666Y-129956380D01*
X265544571Y-129956380D01*
X265449333Y-129908761D01*
X265401714Y-129861142D01*
X265354095Y-129765904D01*
X265354095Y-129670666D01*
X265401714Y-129575428D01*
X265449333Y-129527809D01*
X265544571Y-129480190D01*
X265735047Y-129432571D01*
X265830285Y-129384952D01*
X265877904Y-129337333D01*
X265925523Y-129242095D01*
X265925523Y-129146857D01*
X265877904Y-129051619D01*
X265830285Y-129004000D01*
X265735047Y-128956380D01*
X265496952Y-128956380D01*
X265354095Y-129004000D01*
X265020761Y-128956380D02*
X264782666Y-129956380D01*
X264592190Y-129242095D01*
X264401714Y-129956380D01*
X264163619Y-128956380D01*
X263830285Y-129051619D02*
X263782666Y-129004000D01*
X263687428Y-128956380D01*
X263449333Y-128956380D01*
X263354095Y-129004000D01*
X263306476Y-129051619D01*
X263258857Y-129146857D01*
X263258857Y-129242095D01*
X263306476Y-129384952D01*
X263877904Y-129956380D01*
X263258857Y-129956380D01*
X262925523Y-128956380D02*
X262306476Y-128956380D01*
X262639809Y-129337333D01*
X262496952Y-129337333D01*
X262401714Y-129384952D01*
X262354095Y-129432571D01*
X262306476Y-129527809D01*
X262306476Y-129765904D01*
X262354095Y-129861142D01*
X262401714Y-129908761D01*
X262496952Y-129956380D01*
X262782666Y-129956380D01*
X262877904Y-129908761D01*
X262925523Y-129861142D01*
%TO.C,SW27*%
X246925523Y-129908761D02*
X246782666Y-129956380D01*
X246544571Y-129956380D01*
X246449333Y-129908761D01*
X246401714Y-129861142D01*
X246354095Y-129765904D01*
X246354095Y-129670666D01*
X246401714Y-129575428D01*
X246449333Y-129527809D01*
X246544571Y-129480190D01*
X246735047Y-129432571D01*
X246830285Y-129384952D01*
X246877904Y-129337333D01*
X246925523Y-129242095D01*
X246925523Y-129146857D01*
X246877904Y-129051619D01*
X246830285Y-129004000D01*
X246735047Y-128956380D01*
X246496952Y-128956380D01*
X246354095Y-129004000D01*
X246020761Y-128956380D02*
X245782666Y-129956380D01*
X245592190Y-129242095D01*
X245401714Y-129956380D01*
X245163619Y-128956380D01*
X244830285Y-129051619D02*
X244782666Y-129004000D01*
X244687428Y-128956380D01*
X244449333Y-128956380D01*
X244354095Y-129004000D01*
X244306476Y-129051619D01*
X244258857Y-129146857D01*
X244258857Y-129242095D01*
X244306476Y-129384952D01*
X244877904Y-129956380D01*
X244258857Y-129956380D01*
X243925523Y-128956380D02*
X243258857Y-128956380D01*
X243687428Y-129956380D01*
%TO.C,SW32*%
X227925523Y-129908761D02*
X227782666Y-129956380D01*
X227544571Y-129956380D01*
X227449333Y-129908761D01*
X227401714Y-129861142D01*
X227354095Y-129765904D01*
X227354095Y-129670666D01*
X227401714Y-129575428D01*
X227449333Y-129527809D01*
X227544571Y-129480190D01*
X227735047Y-129432571D01*
X227830285Y-129384952D01*
X227877904Y-129337333D01*
X227925523Y-129242095D01*
X227925523Y-129146857D01*
X227877904Y-129051619D01*
X227830285Y-129004000D01*
X227735047Y-128956380D01*
X227496952Y-128956380D01*
X227354095Y-129004000D01*
X227020761Y-128956380D02*
X226782666Y-129956380D01*
X226592190Y-129242095D01*
X226401714Y-129956380D01*
X226163619Y-128956380D01*
X225877904Y-128956380D02*
X225258857Y-128956380D01*
X225592190Y-129337333D01*
X225449333Y-129337333D01*
X225354095Y-129384952D01*
X225306476Y-129432571D01*
X225258857Y-129527809D01*
X225258857Y-129765904D01*
X225306476Y-129861142D01*
X225354095Y-129908761D01*
X225449333Y-129956380D01*
X225735047Y-129956380D01*
X225830285Y-129908761D01*
X225877904Y-129861142D01*
X224877904Y-129051619D02*
X224830285Y-129004000D01*
X224735047Y-128956380D01*
X224496952Y-128956380D01*
X224401714Y-129004000D01*
X224354095Y-129051619D01*
X224306476Y-129146857D01*
X224306476Y-129242095D01*
X224354095Y-129384952D01*
X224925523Y-129956380D01*
X224306476Y-129956380D01*
%TO.C,SW36*%
X208925523Y-129908761D02*
X208782666Y-129956380D01*
X208544571Y-129956380D01*
X208449333Y-129908761D01*
X208401714Y-129861142D01*
X208354095Y-129765904D01*
X208354095Y-129670666D01*
X208401714Y-129575428D01*
X208449333Y-129527809D01*
X208544571Y-129480190D01*
X208735047Y-129432571D01*
X208830285Y-129384952D01*
X208877904Y-129337333D01*
X208925523Y-129242095D01*
X208925523Y-129146857D01*
X208877904Y-129051619D01*
X208830285Y-129004000D01*
X208735047Y-128956380D01*
X208496952Y-128956380D01*
X208354095Y-129004000D01*
X208020761Y-128956380D02*
X207782666Y-129956380D01*
X207592190Y-129242095D01*
X207401714Y-129956380D01*
X207163619Y-128956380D01*
X206877904Y-128956380D02*
X206258857Y-128956380D01*
X206592190Y-129337333D01*
X206449333Y-129337333D01*
X206354095Y-129384952D01*
X206306476Y-129432571D01*
X206258857Y-129527809D01*
X206258857Y-129765904D01*
X206306476Y-129861142D01*
X206354095Y-129908761D01*
X206449333Y-129956380D01*
X206735047Y-129956380D01*
X206830285Y-129908761D01*
X206877904Y-129861142D01*
X205401714Y-128956380D02*
X205592190Y-128956380D01*
X205687428Y-129004000D01*
X205735047Y-129051619D01*
X205830285Y-129194476D01*
X205877904Y-129384952D01*
X205877904Y-129765904D01*
X205830285Y-129861142D01*
X205782666Y-129908761D01*
X205687428Y-129956380D01*
X205496952Y-129956380D01*
X205401714Y-129908761D01*
X205354095Y-129861142D01*
X205306476Y-129765904D01*
X205306476Y-129527809D01*
X205354095Y-129432571D01*
X205401714Y-129384952D01*
X205496952Y-129337333D01*
X205687428Y-129337333D01*
X205782666Y-129384952D01*
X205830285Y-129432571D01*
X205877904Y-129527809D01*
%TO.C,SW40*%
X189925523Y-129908761D02*
X189782666Y-129956380D01*
X189544571Y-129956380D01*
X189449333Y-129908761D01*
X189401714Y-129861142D01*
X189354095Y-129765904D01*
X189354095Y-129670666D01*
X189401714Y-129575428D01*
X189449333Y-129527809D01*
X189544571Y-129480190D01*
X189735047Y-129432571D01*
X189830285Y-129384952D01*
X189877904Y-129337333D01*
X189925523Y-129242095D01*
X189925523Y-129146857D01*
X189877904Y-129051619D01*
X189830285Y-129004000D01*
X189735047Y-128956380D01*
X189496952Y-128956380D01*
X189354095Y-129004000D01*
X189020761Y-128956380D02*
X188782666Y-129956380D01*
X188592190Y-129242095D01*
X188401714Y-129956380D01*
X188163619Y-128956380D01*
X187354095Y-129289714D02*
X187354095Y-129956380D01*
X187592190Y-128908761D02*
X187830285Y-129623047D01*
X187211238Y-129623047D01*
X186639809Y-128956380D02*
X186544571Y-128956380D01*
X186449333Y-129004000D01*
X186401714Y-129051619D01*
X186354095Y-129146857D01*
X186306476Y-129337333D01*
X186306476Y-129575428D01*
X186354095Y-129765904D01*
X186401714Y-129861142D01*
X186449333Y-129908761D01*
X186544571Y-129956380D01*
X186639809Y-129956380D01*
X186735047Y-129908761D01*
X186782666Y-129861142D01*
X186830285Y-129765904D01*
X186877904Y-129575428D01*
X186877904Y-129337333D01*
X186830285Y-129146857D01*
X186782666Y-129051619D01*
X186735047Y-129004000D01*
X186639809Y-128956380D01*
%TO.C,SW45*%
X170925523Y-129908761D02*
X170782666Y-129956380D01*
X170544571Y-129956380D01*
X170449333Y-129908761D01*
X170401714Y-129861142D01*
X170354095Y-129765904D01*
X170354095Y-129670666D01*
X170401714Y-129575428D01*
X170449333Y-129527809D01*
X170544571Y-129480190D01*
X170735047Y-129432571D01*
X170830285Y-129384952D01*
X170877904Y-129337333D01*
X170925523Y-129242095D01*
X170925523Y-129146857D01*
X170877904Y-129051619D01*
X170830285Y-129004000D01*
X170735047Y-128956380D01*
X170496952Y-128956380D01*
X170354095Y-129004000D01*
X170020761Y-128956380D02*
X169782666Y-129956380D01*
X169592190Y-129242095D01*
X169401714Y-129956380D01*
X169163619Y-128956380D01*
X168354095Y-129289714D02*
X168354095Y-129956380D01*
X168592190Y-128908761D02*
X168830285Y-129623047D01*
X168211238Y-129623047D01*
X167354095Y-128956380D02*
X167830285Y-128956380D01*
X167877904Y-129432571D01*
X167830285Y-129384952D01*
X167735047Y-129337333D01*
X167496952Y-129337333D01*
X167401714Y-129384952D01*
X167354095Y-129432571D01*
X167306476Y-129527809D01*
X167306476Y-129765904D01*
X167354095Y-129861142D01*
X167401714Y-129908761D01*
X167496952Y-129956380D01*
X167735047Y-129956380D01*
X167830285Y-129908761D01*
X167877904Y-129861142D01*
%TO.C,SW55*%
X132925523Y-129908761D02*
X132782666Y-129956380D01*
X132544571Y-129956380D01*
X132449333Y-129908761D01*
X132401714Y-129861142D01*
X132354095Y-129765904D01*
X132354095Y-129670666D01*
X132401714Y-129575428D01*
X132449333Y-129527809D01*
X132544571Y-129480190D01*
X132735047Y-129432571D01*
X132830285Y-129384952D01*
X132877904Y-129337333D01*
X132925523Y-129242095D01*
X132925523Y-129146857D01*
X132877904Y-129051619D01*
X132830285Y-129004000D01*
X132735047Y-128956380D01*
X132496952Y-128956380D01*
X132354095Y-129004000D01*
X132020761Y-128956380D02*
X131782666Y-129956380D01*
X131592190Y-129242095D01*
X131401714Y-129956380D01*
X131163619Y-128956380D01*
X130306476Y-128956380D02*
X130782666Y-128956380D01*
X130830285Y-129432571D01*
X130782666Y-129384952D01*
X130687428Y-129337333D01*
X130449333Y-129337333D01*
X130354095Y-129384952D01*
X130306476Y-129432571D01*
X130258857Y-129527809D01*
X130258857Y-129765904D01*
X130306476Y-129861142D01*
X130354095Y-129908761D01*
X130449333Y-129956380D01*
X130687428Y-129956380D01*
X130782666Y-129908761D01*
X130830285Y-129861142D01*
X129354095Y-128956380D02*
X129830285Y-128956380D01*
X129877904Y-129432571D01*
X129830285Y-129384952D01*
X129735047Y-129337333D01*
X129496952Y-129337333D01*
X129401714Y-129384952D01*
X129354095Y-129432571D01*
X129306476Y-129527809D01*
X129306476Y-129765904D01*
X129354095Y-129861142D01*
X129401714Y-129908761D01*
X129496952Y-129956380D01*
X129735047Y-129956380D01*
X129830285Y-129908761D01*
X129877904Y-129861142D01*
%TO.C,SW67*%
X71275523Y-129858761D02*
X71132666Y-129906380D01*
X70894571Y-129906380D01*
X70799333Y-129858761D01*
X70751714Y-129811142D01*
X70704095Y-129715904D01*
X70704095Y-129620666D01*
X70751714Y-129525428D01*
X70799333Y-129477809D01*
X70894571Y-129430190D01*
X71085047Y-129382571D01*
X71180285Y-129334952D01*
X71227904Y-129287333D01*
X71275523Y-129192095D01*
X71275523Y-129096857D01*
X71227904Y-129001619D01*
X71180285Y-128954000D01*
X71085047Y-128906380D01*
X70846952Y-128906380D01*
X70704095Y-128954000D01*
X70370761Y-128906380D02*
X70132666Y-129906380D01*
X69942190Y-129192095D01*
X69751714Y-129906380D01*
X69513619Y-128906380D01*
X68704095Y-128906380D02*
X68894571Y-128906380D01*
X68989809Y-128954000D01*
X69037428Y-129001619D01*
X69132666Y-129144476D01*
X69180285Y-129334952D01*
X69180285Y-129715904D01*
X69132666Y-129811142D01*
X69085047Y-129858761D01*
X68989809Y-129906380D01*
X68799333Y-129906380D01*
X68704095Y-129858761D01*
X68656476Y-129811142D01*
X68608857Y-129715904D01*
X68608857Y-129477809D01*
X68656476Y-129382571D01*
X68704095Y-129334952D01*
X68799333Y-129287333D01*
X68989809Y-129287333D01*
X69085047Y-129334952D01*
X69132666Y-129382571D01*
X69180285Y-129477809D01*
X68275523Y-128906380D02*
X67608857Y-128906380D01*
X68037428Y-129906380D01*
%TO.C,SW10*%
X313550523Y-148858761D02*
X313407666Y-148906380D01*
X313169571Y-148906380D01*
X313074333Y-148858761D01*
X313026714Y-148811142D01*
X312979095Y-148715904D01*
X312979095Y-148620666D01*
X313026714Y-148525428D01*
X313074333Y-148477809D01*
X313169571Y-148430190D01*
X313360047Y-148382571D01*
X313455285Y-148334952D01*
X313502904Y-148287333D01*
X313550523Y-148192095D01*
X313550523Y-148096857D01*
X313502904Y-148001619D01*
X313455285Y-147954000D01*
X313360047Y-147906380D01*
X313121952Y-147906380D01*
X312979095Y-147954000D01*
X312645761Y-147906380D02*
X312407666Y-148906380D01*
X312217190Y-148192095D01*
X312026714Y-148906380D01*
X311788619Y-147906380D01*
X310883857Y-148906380D02*
X311455285Y-148906380D01*
X311169571Y-148906380D02*
X311169571Y-147906380D01*
X311264809Y-148049238D01*
X311360047Y-148144476D01*
X311455285Y-148192095D01*
X310264809Y-147906380D02*
X310169571Y-147906380D01*
X310074333Y-147954000D01*
X310026714Y-148001619D01*
X309979095Y-148096857D01*
X309931476Y-148287333D01*
X309931476Y-148525428D01*
X309979095Y-148715904D01*
X310026714Y-148811142D01*
X310074333Y-148858761D01*
X310169571Y-148906380D01*
X310264809Y-148906380D01*
X310360047Y-148858761D01*
X310407666Y-148811142D01*
X310455285Y-148715904D01*
X310502904Y-148525428D01*
X310502904Y-148287333D01*
X310455285Y-148096857D01*
X310407666Y-148001619D01*
X310360047Y-147954000D01*
X310264809Y-147906380D01*
%TO.C,SW15*%
X294550523Y-148858761D02*
X294407666Y-148906380D01*
X294169571Y-148906380D01*
X294074333Y-148858761D01*
X294026714Y-148811142D01*
X293979095Y-148715904D01*
X293979095Y-148620666D01*
X294026714Y-148525428D01*
X294074333Y-148477809D01*
X294169571Y-148430190D01*
X294360047Y-148382571D01*
X294455285Y-148334952D01*
X294502904Y-148287333D01*
X294550523Y-148192095D01*
X294550523Y-148096857D01*
X294502904Y-148001619D01*
X294455285Y-147954000D01*
X294360047Y-147906380D01*
X294121952Y-147906380D01*
X293979095Y-147954000D01*
X293645761Y-147906380D02*
X293407666Y-148906380D01*
X293217190Y-148192095D01*
X293026714Y-148906380D01*
X292788619Y-147906380D01*
X291883857Y-148906380D02*
X292455285Y-148906380D01*
X292169571Y-148906380D02*
X292169571Y-147906380D01*
X292264809Y-148049238D01*
X292360047Y-148144476D01*
X292455285Y-148192095D01*
X290979095Y-147906380D02*
X291455285Y-147906380D01*
X291502904Y-148382571D01*
X291455285Y-148334952D01*
X291360047Y-148287333D01*
X291121952Y-148287333D01*
X291026714Y-148334952D01*
X290979095Y-148382571D01*
X290931476Y-148477809D01*
X290931476Y-148715904D01*
X290979095Y-148811142D01*
X291026714Y-148858761D01*
X291121952Y-148906380D01*
X291360047Y-148906380D01*
X291455285Y-148858761D01*
X291502904Y-148811142D01*
%TO.C,SW28*%
X237550523Y-148858761D02*
X237407666Y-148906380D01*
X237169571Y-148906380D01*
X237074333Y-148858761D01*
X237026714Y-148811142D01*
X236979095Y-148715904D01*
X236979095Y-148620666D01*
X237026714Y-148525428D01*
X237074333Y-148477809D01*
X237169571Y-148430190D01*
X237360047Y-148382571D01*
X237455285Y-148334952D01*
X237502904Y-148287333D01*
X237550523Y-148192095D01*
X237550523Y-148096857D01*
X237502904Y-148001619D01*
X237455285Y-147954000D01*
X237360047Y-147906380D01*
X237121952Y-147906380D01*
X236979095Y-147954000D01*
X236645761Y-147906380D02*
X236407666Y-148906380D01*
X236217190Y-148192095D01*
X236026714Y-148906380D01*
X235788619Y-147906380D01*
X235455285Y-148001619D02*
X235407666Y-147954000D01*
X235312428Y-147906380D01*
X235074333Y-147906380D01*
X234979095Y-147954000D01*
X234931476Y-148001619D01*
X234883857Y-148096857D01*
X234883857Y-148192095D01*
X234931476Y-148334952D01*
X235502904Y-148906380D01*
X234883857Y-148906380D01*
X234312428Y-148334952D02*
X234407666Y-148287333D01*
X234455285Y-148239714D01*
X234502904Y-148144476D01*
X234502904Y-148096857D01*
X234455285Y-148001619D01*
X234407666Y-147954000D01*
X234312428Y-147906380D01*
X234121952Y-147906380D01*
X234026714Y-147954000D01*
X233979095Y-148001619D01*
X233931476Y-148096857D01*
X233931476Y-148144476D01*
X233979095Y-148239714D01*
X234026714Y-148287333D01*
X234121952Y-148334952D01*
X234312428Y-148334952D01*
X234407666Y-148382571D01*
X234455285Y-148430190D01*
X234502904Y-148525428D01*
X234502904Y-148715904D01*
X234455285Y-148811142D01*
X234407666Y-148858761D01*
X234312428Y-148906380D01*
X234121952Y-148906380D01*
X234026714Y-148858761D01*
X233979095Y-148811142D01*
X233931476Y-148715904D01*
X233931476Y-148525428D01*
X233979095Y-148430190D01*
X234026714Y-148382571D01*
X234121952Y-148334952D01*
%TO.C,SW46*%
X161550523Y-148858761D02*
X161407666Y-148906380D01*
X161169571Y-148906380D01*
X161074333Y-148858761D01*
X161026714Y-148811142D01*
X160979095Y-148715904D01*
X160979095Y-148620666D01*
X161026714Y-148525428D01*
X161074333Y-148477809D01*
X161169571Y-148430190D01*
X161360047Y-148382571D01*
X161455285Y-148334952D01*
X161502904Y-148287333D01*
X161550523Y-148192095D01*
X161550523Y-148096857D01*
X161502904Y-148001619D01*
X161455285Y-147954000D01*
X161360047Y-147906380D01*
X161121952Y-147906380D01*
X160979095Y-147954000D01*
X160645761Y-147906380D02*
X160407666Y-148906380D01*
X160217190Y-148192095D01*
X160026714Y-148906380D01*
X159788619Y-147906380D01*
X158979095Y-148239714D02*
X158979095Y-148906380D01*
X159217190Y-147858761D02*
X159455285Y-148573047D01*
X158836238Y-148573047D01*
X158026714Y-147906380D02*
X158217190Y-147906380D01*
X158312428Y-147954000D01*
X158360047Y-148001619D01*
X158455285Y-148144476D01*
X158502904Y-148334952D01*
X158502904Y-148715904D01*
X158455285Y-148811142D01*
X158407666Y-148858761D01*
X158312428Y-148906380D01*
X158121952Y-148906380D01*
X158026714Y-148858761D01*
X157979095Y-148811142D01*
X157931476Y-148715904D01*
X157931476Y-148477809D01*
X157979095Y-148382571D01*
X158026714Y-148334952D01*
X158121952Y-148287333D01*
X158312428Y-148287333D01*
X158407666Y-148334952D01*
X158455285Y-148382571D01*
X158502904Y-148477809D01*
%TO.C,SW51*%
X142550523Y-148858761D02*
X142407666Y-148906380D01*
X142169571Y-148906380D01*
X142074333Y-148858761D01*
X142026714Y-148811142D01*
X141979095Y-148715904D01*
X141979095Y-148620666D01*
X142026714Y-148525428D01*
X142074333Y-148477809D01*
X142169571Y-148430190D01*
X142360047Y-148382571D01*
X142455285Y-148334952D01*
X142502904Y-148287333D01*
X142550523Y-148192095D01*
X142550523Y-148096857D01*
X142502904Y-148001619D01*
X142455285Y-147954000D01*
X142360047Y-147906380D01*
X142121952Y-147906380D01*
X141979095Y-147954000D01*
X141645761Y-147906380D02*
X141407666Y-148906380D01*
X141217190Y-148192095D01*
X141026714Y-148906380D01*
X140788619Y-147906380D01*
X139931476Y-147906380D02*
X140407666Y-147906380D01*
X140455285Y-148382571D01*
X140407666Y-148334952D01*
X140312428Y-148287333D01*
X140074333Y-148287333D01*
X139979095Y-148334952D01*
X139931476Y-148382571D01*
X139883857Y-148477809D01*
X139883857Y-148715904D01*
X139931476Y-148811142D01*
X139979095Y-148858761D01*
X140074333Y-148906380D01*
X140312428Y-148906380D01*
X140407666Y-148858761D01*
X140455285Y-148811142D01*
X138931476Y-148906380D02*
X139502904Y-148906380D01*
X139217190Y-148906380D02*
X139217190Y-147906380D01*
X139312428Y-148049238D01*
X139407666Y-148144476D01*
X139502904Y-148192095D01*
%TO.C,SW68*%
X71275523Y-148858761D02*
X71132666Y-148906380D01*
X70894571Y-148906380D01*
X70799333Y-148858761D01*
X70751714Y-148811142D01*
X70704095Y-148715904D01*
X70704095Y-148620666D01*
X70751714Y-148525428D01*
X70799333Y-148477809D01*
X70894571Y-148430190D01*
X71085047Y-148382571D01*
X71180285Y-148334952D01*
X71227904Y-148287333D01*
X71275523Y-148192095D01*
X71275523Y-148096857D01*
X71227904Y-148001619D01*
X71180285Y-147954000D01*
X71085047Y-147906380D01*
X70846952Y-147906380D01*
X70704095Y-147954000D01*
X70370761Y-147906380D02*
X70132666Y-148906380D01*
X69942190Y-148192095D01*
X69751714Y-148906380D01*
X69513619Y-147906380D01*
X68704095Y-147906380D02*
X68894571Y-147906380D01*
X68989809Y-147954000D01*
X69037428Y-148001619D01*
X69132666Y-148144476D01*
X69180285Y-148334952D01*
X69180285Y-148715904D01*
X69132666Y-148811142D01*
X69085047Y-148858761D01*
X68989809Y-148906380D01*
X68799333Y-148906380D01*
X68704095Y-148858761D01*
X68656476Y-148811142D01*
X68608857Y-148715904D01*
X68608857Y-148477809D01*
X68656476Y-148382571D01*
X68704095Y-148334952D01*
X68799333Y-148287333D01*
X68989809Y-148287333D01*
X69085047Y-148334952D01*
X69132666Y-148382571D01*
X69180285Y-148477809D01*
X68037428Y-148334952D02*
X68132666Y-148287333D01*
X68180285Y-148239714D01*
X68227904Y-148144476D01*
X68227904Y-148096857D01*
X68180285Y-148001619D01*
X68132666Y-147954000D01*
X68037428Y-147906380D01*
X67846952Y-147906380D01*
X67751714Y-147954000D01*
X67704095Y-148001619D01*
X67656476Y-148096857D01*
X67656476Y-148144476D01*
X67704095Y-148239714D01*
X67751714Y-148287333D01*
X67846952Y-148334952D01*
X68037428Y-148334952D01*
X68132666Y-148382571D01*
X68180285Y-148430190D01*
X68227904Y-148525428D01*
X68227904Y-148715904D01*
X68180285Y-148811142D01*
X68132666Y-148858761D01*
X68037428Y-148906380D01*
X67846952Y-148906380D01*
X67751714Y-148858761D01*
X67704095Y-148811142D01*
X67656476Y-148715904D01*
X67656476Y-148525428D01*
X67704095Y-148430190D01*
X67751714Y-148382571D01*
X67846952Y-148334952D01*
%TO.C,SW42*%
X166350523Y-167908761D02*
X166207666Y-167956380D01*
X165969571Y-167956380D01*
X165874333Y-167908761D01*
X165826714Y-167861142D01*
X165779095Y-167765904D01*
X165779095Y-167670666D01*
X165826714Y-167575428D01*
X165874333Y-167527809D01*
X165969571Y-167480190D01*
X166160047Y-167432571D01*
X166255285Y-167384952D01*
X166302904Y-167337333D01*
X166350523Y-167242095D01*
X166350523Y-167146857D01*
X166302904Y-167051619D01*
X166255285Y-167004000D01*
X166160047Y-166956380D01*
X165921952Y-166956380D01*
X165779095Y-167004000D01*
X165445761Y-166956380D02*
X165207666Y-167956380D01*
X165017190Y-167242095D01*
X164826714Y-167956380D01*
X164588619Y-166956380D01*
X163779095Y-167289714D02*
X163779095Y-167956380D01*
X164017190Y-166908761D02*
X164255285Y-167623047D01*
X163636238Y-167623047D01*
X163302904Y-167051619D02*
X163255285Y-167004000D01*
X163160047Y-166956380D01*
X162921952Y-166956380D01*
X162826714Y-167004000D01*
X162779095Y-167051619D01*
X162731476Y-167146857D01*
X162731476Y-167242095D01*
X162779095Y-167384952D01*
X163350523Y-167956380D01*
X162731476Y-167956380D01*
%TO.C,SW64*%
X90250523Y-167908761D02*
X90107666Y-167956380D01*
X89869571Y-167956380D01*
X89774333Y-167908761D01*
X89726714Y-167861142D01*
X89679095Y-167765904D01*
X89679095Y-167670666D01*
X89726714Y-167575428D01*
X89774333Y-167527809D01*
X89869571Y-167480190D01*
X90060047Y-167432571D01*
X90155285Y-167384952D01*
X90202904Y-167337333D01*
X90250523Y-167242095D01*
X90250523Y-167146857D01*
X90202904Y-167051619D01*
X90155285Y-167004000D01*
X90060047Y-166956380D01*
X89821952Y-166956380D01*
X89679095Y-167004000D01*
X89345761Y-166956380D02*
X89107666Y-167956380D01*
X88917190Y-167242095D01*
X88726714Y-167956380D01*
X88488619Y-166956380D01*
X87679095Y-166956380D02*
X87869571Y-166956380D01*
X87964809Y-167004000D01*
X88012428Y-167051619D01*
X88107666Y-167194476D01*
X88155285Y-167384952D01*
X88155285Y-167765904D01*
X88107666Y-167861142D01*
X88060047Y-167908761D01*
X87964809Y-167956380D01*
X87774333Y-167956380D01*
X87679095Y-167908761D01*
X87631476Y-167861142D01*
X87583857Y-167765904D01*
X87583857Y-167527809D01*
X87631476Y-167432571D01*
X87679095Y-167384952D01*
X87774333Y-167337333D01*
X87964809Y-167337333D01*
X88060047Y-167384952D01*
X88107666Y-167432571D01*
X88155285Y-167527809D01*
X86726714Y-167289714D02*
X86726714Y-167956380D01*
X86964809Y-166908761D02*
X87202904Y-167623047D01*
X86583857Y-167623047D01*
%TO.C,SW69*%
X71250523Y-167908761D02*
X71107666Y-167956380D01*
X70869571Y-167956380D01*
X70774333Y-167908761D01*
X70726714Y-167861142D01*
X70679095Y-167765904D01*
X70679095Y-167670666D01*
X70726714Y-167575428D01*
X70774333Y-167527809D01*
X70869571Y-167480190D01*
X71060047Y-167432571D01*
X71155285Y-167384952D01*
X71202904Y-167337333D01*
X71250523Y-167242095D01*
X71250523Y-167146857D01*
X71202904Y-167051619D01*
X71155285Y-167004000D01*
X71060047Y-166956380D01*
X70821952Y-166956380D01*
X70679095Y-167004000D01*
X70345761Y-166956380D02*
X70107666Y-167956380D01*
X69917190Y-167242095D01*
X69726714Y-167956380D01*
X69488619Y-166956380D01*
X68679095Y-166956380D02*
X68869571Y-166956380D01*
X68964809Y-167004000D01*
X69012428Y-167051619D01*
X69107666Y-167194476D01*
X69155285Y-167384952D01*
X69155285Y-167765904D01*
X69107666Y-167861142D01*
X69060047Y-167908761D01*
X68964809Y-167956380D01*
X68774333Y-167956380D01*
X68679095Y-167908761D01*
X68631476Y-167861142D01*
X68583857Y-167765904D01*
X68583857Y-167527809D01*
X68631476Y-167432571D01*
X68679095Y-167384952D01*
X68774333Y-167337333D01*
X68964809Y-167337333D01*
X69060047Y-167384952D01*
X69107666Y-167432571D01*
X69155285Y-167527809D01*
X68107666Y-167956380D02*
X67917190Y-167956380D01*
X67821952Y-167908761D01*
X67774333Y-167861142D01*
X67679095Y-167718285D01*
X67631476Y-167527809D01*
X67631476Y-167146857D01*
X67679095Y-167051619D01*
X67726714Y-167004000D01*
X67821952Y-166956380D01*
X68012428Y-166956380D01*
X68107666Y-167004000D01*
X68155285Y-167051619D01*
X68202904Y-167146857D01*
X68202904Y-167384952D01*
X68155285Y-167480190D01*
X68107666Y-167527809D01*
X68012428Y-167575428D01*
X67821952Y-167575428D01*
X67726714Y-167527809D01*
X67679095Y-167480190D01*
X67631476Y-167384952D01*
%TD*%
M02*
