%TF.GenerationSoftware,KiCad,Pcbnew,(5.1.6)-1*%
%TF.CreationDate,2020-11-12T22:46:54-05:00*%
%TF.ProjectId,QAZ_65,51415a5f-3635-42e6-9b69-6361645f7063,v1.0*%
%TF.SameCoordinates,Original*%
%TF.FileFunction,Profile,NP*%
%FSLAX46Y46*%
G04 Gerber Fmt 4.6, Leading zero omitted, Abs format (unit mm)*
G04 Created by KiCad (PCBNEW (5.1.6)-1) date 2020-11-12 22:46:54*
%MOMM*%
%LPD*%
G01*
G04 APERTURE LIST*
%TA.AperFunction,Profile*%
%ADD10C,0.050000*%
%TD*%
G04 APERTURE END LIST*
D10*
X207126000Y-80928000D02*
X216126000Y-80928000D01*
X206126000Y-81928000D02*
G75*
G02*
X207126000Y-80928000I1000000J0D01*
G01*
X216126000Y-80928000D02*
G75*
G02*
X217126000Y-81928000I0J-1000000D01*
G01*
X239876000Y-80928000D02*
X255126000Y-80928000D01*
X238876000Y-81928000D02*
G75*
G02*
X239876000Y-80928000I1000000J0D01*
G01*
X255126000Y-80928000D02*
G75*
G02*
X256126000Y-81928000I0J-1000000D01*
G01*
X237876000Y-87428000D02*
X218126000Y-87428000D01*
X238876000Y-86428000D02*
X238876000Y-81928000D01*
X256126000Y-86428000D02*
X256126000Y-81928000D01*
X257126000Y-87428000D02*
G75*
G02*
X256126000Y-86428000I0J1000000D01*
G01*
X238876000Y-86428000D02*
G75*
G02*
X237876000Y-87428000I-1000000J0D01*
G01*
X206126000Y-86428000D02*
X206126000Y-81928000D01*
X217126000Y-86428000D02*
X217126000Y-81928000D01*
X218126000Y-87428000D02*
G75*
G02*
X217126000Y-86428000I0J1000000D01*
G01*
X365626000Y-87428000D02*
X257126000Y-87428000D01*
X206126000Y-86428000D02*
G75*
G02*
X205126000Y-87428000I-1000000J0D01*
G01*
X58626000Y-87428000D02*
X205126000Y-87428000D01*
X57626000Y-88428000D02*
G75*
G02*
X58626000Y-87428000I1000000J0D01*
G01*
X365626000Y-87428000D02*
G75*
G02*
X366626000Y-88428000I0J-1000000D01*
G01*
X366626000Y-186428000D02*
G75*
G02*
X365626000Y-187428000I-1000000J0D01*
G01*
X58626000Y-187428000D02*
G75*
G02*
X57626000Y-186428000I0J1000000D01*
G01*
X57626000Y-185428000D02*
X57626000Y-186428000D01*
X366626000Y-88428000D02*
X366626000Y-186428000D01*
X57626000Y-185428000D02*
X57626000Y-88428000D01*
X365626000Y-187428000D02*
X58626000Y-187428000D01*
M02*
