%TF.GenerationSoftware,KiCad,Pcbnew,(5.1.4)-1*%
%TF.CreationDate,2021-05-16T21:03:27-04:00*%
%TF.ProjectId,QAZ_65,51415a5f-3635-42e6-9b69-6361645f7063,v1.1*%
%TF.SameCoordinates,Original*%
%TF.FileFunction,Soldermask,Bot*%
%TF.FilePolarity,Negative*%
%FSLAX46Y46*%
G04 Gerber Fmt 4.6, Leading zero omitted, Abs format (unit mm)*
G04 Created by KiCad (PCBNEW (5.1.4)-1) date 2021-05-16 21:03:27*
%MOMM*%
%LPD*%
G04 APERTURE LIST*
%ADD10C,3.250000*%
%ADD11C,4.200000*%
%ADD12C,1.900000*%
%ADD13C,2.400000*%
%ADD14C,0.100000*%
%ADD15C,1.150000*%
%ADD16O,1.100000X1.900000*%
%ADD17O,1.100000X2.600000*%
%ADD18C,0.850000*%
%ADD19R,1.800000X1.800000*%
%ADD20O,1.800000X1.800000*%
%ADD21C,2.200000*%
%ADD22C,3.044800*%
%ADD23C,1.724000*%
%ADD24R,1.270000X2.000000*%
%ADD25O,1.270000X2.000000*%
G04 APERTURE END LIST*
D10*
%TO.C,SW29*%
X183316000Y-168308000D03*
X283316000Y-168308000D03*
D11*
X283316000Y-183548000D03*
X183316000Y-183548000D03*
D12*
X228236000Y-175308000D03*
X238396000Y-175308000D03*
D11*
X233316000Y-175308000D03*
D13*
X237126000Y-172768000D03*
X230776000Y-170228000D03*
%TD*%
D12*
%TO.C,SW47*%
X140411000Y-175378000D03*
X150571000Y-175378000D03*
D11*
X145491000Y-175378000D03*
D13*
X149301000Y-172838000D03*
X142951000Y-170298000D03*
%TD*%
%TO.C,SW52*%
X123901000Y-170298000D03*
X130251000Y-172838000D03*
D11*
X126441000Y-175378000D03*
D12*
X131521000Y-175378000D03*
X121361000Y-175378000D03*
%TD*%
%TO.C,SW20*%
X268661000Y-156328000D03*
X278821000Y-156328000D03*
D11*
X273741000Y-156328000D03*
D13*
X277551000Y-153788000D03*
X271201000Y-151248000D03*
%TD*%
D14*
%TO.C,R15*%
G36*
X212966680Y-85854384D02*
G01*
X212994588Y-85858524D01*
X213021957Y-85865380D01*
X213048521Y-85874885D01*
X213074027Y-85886948D01*
X213098226Y-85901452D01*
X213120888Y-85918259D01*
X213141793Y-85937207D01*
X213160741Y-85958112D01*
X213177548Y-85980774D01*
X213192052Y-86004973D01*
X213204115Y-86030479D01*
X213213620Y-86057043D01*
X213220476Y-86084412D01*
X213224616Y-86112320D01*
X213226000Y-86140500D01*
X213226000Y-86715500D01*
X213224616Y-86743680D01*
X213220476Y-86771588D01*
X213213620Y-86798957D01*
X213204115Y-86825521D01*
X213192052Y-86851027D01*
X213177548Y-86875226D01*
X213160741Y-86897888D01*
X213141793Y-86918793D01*
X213120888Y-86937741D01*
X213098226Y-86954548D01*
X213074027Y-86969052D01*
X213048521Y-86981115D01*
X213021957Y-86990620D01*
X212994588Y-86997476D01*
X212966680Y-87001616D01*
X212938500Y-87003000D01*
X212263500Y-87003000D01*
X212235320Y-87001616D01*
X212207412Y-86997476D01*
X212180043Y-86990620D01*
X212153479Y-86981115D01*
X212127973Y-86969052D01*
X212103774Y-86954548D01*
X212081112Y-86937741D01*
X212060207Y-86918793D01*
X212041259Y-86897888D01*
X212024452Y-86875226D01*
X212009948Y-86851027D01*
X211997885Y-86825521D01*
X211988380Y-86798957D01*
X211981524Y-86771588D01*
X211977384Y-86743680D01*
X211976000Y-86715500D01*
X211976000Y-86140500D01*
X211977384Y-86112320D01*
X211981524Y-86084412D01*
X211988380Y-86057043D01*
X211997885Y-86030479D01*
X212009948Y-86004973D01*
X212024452Y-85980774D01*
X212041259Y-85958112D01*
X212060207Y-85937207D01*
X212081112Y-85918259D01*
X212103774Y-85901452D01*
X212127973Y-85886948D01*
X212153479Y-85874885D01*
X212180043Y-85865380D01*
X212207412Y-85858524D01*
X212235320Y-85854384D01*
X212263500Y-85853000D01*
X212938500Y-85853000D01*
X212966680Y-85854384D01*
X212966680Y-85854384D01*
G37*
D15*
X212601000Y-86428000D03*
D14*
G36*
X211216680Y-85854384D02*
G01*
X211244588Y-85858524D01*
X211271957Y-85865380D01*
X211298521Y-85874885D01*
X211324027Y-85886948D01*
X211348226Y-85901452D01*
X211370888Y-85918259D01*
X211391793Y-85937207D01*
X211410741Y-85958112D01*
X211427548Y-85980774D01*
X211442052Y-86004973D01*
X211454115Y-86030479D01*
X211463620Y-86057043D01*
X211470476Y-86084412D01*
X211474616Y-86112320D01*
X211476000Y-86140500D01*
X211476000Y-86715500D01*
X211474616Y-86743680D01*
X211470476Y-86771588D01*
X211463620Y-86798957D01*
X211454115Y-86825521D01*
X211442052Y-86851027D01*
X211427548Y-86875226D01*
X211410741Y-86897888D01*
X211391793Y-86918793D01*
X211370888Y-86937741D01*
X211348226Y-86954548D01*
X211324027Y-86969052D01*
X211298521Y-86981115D01*
X211271957Y-86990620D01*
X211244588Y-86997476D01*
X211216680Y-87001616D01*
X211188500Y-87003000D01*
X210513500Y-87003000D01*
X210485320Y-87001616D01*
X210457412Y-86997476D01*
X210430043Y-86990620D01*
X210403479Y-86981115D01*
X210377973Y-86969052D01*
X210353774Y-86954548D01*
X210331112Y-86937741D01*
X210310207Y-86918793D01*
X210291259Y-86897888D01*
X210274452Y-86875226D01*
X210259948Y-86851027D01*
X210247885Y-86825521D01*
X210238380Y-86798957D01*
X210231524Y-86771588D01*
X210227384Y-86743680D01*
X210226000Y-86715500D01*
X210226000Y-86140500D01*
X210227384Y-86112320D01*
X210231524Y-86084412D01*
X210238380Y-86057043D01*
X210247885Y-86030479D01*
X210259948Y-86004973D01*
X210274452Y-85980774D01*
X210291259Y-85958112D01*
X210310207Y-85937207D01*
X210331112Y-85918259D01*
X210353774Y-85901452D01*
X210377973Y-85886948D01*
X210403479Y-85874885D01*
X210430043Y-85865380D01*
X210457412Y-85858524D01*
X210485320Y-85854384D01*
X210513500Y-85853000D01*
X211188500Y-85853000D01*
X211216680Y-85854384D01*
X211216680Y-85854384D01*
G37*
D15*
X210851000Y-86428000D03*
%TD*%
D16*
%TO.C,CN1*%
X207301000Y-85168000D03*
X215951000Y-85168000D03*
D17*
X207301000Y-88548000D03*
X215951000Y-88548000D03*
D18*
X208646000Y-88203000D03*
X209496000Y-88203000D03*
X210346000Y-88203000D03*
X211196000Y-88203000D03*
X212046000Y-88203000D03*
X212896000Y-88203000D03*
X213746000Y-88203000D03*
X214601000Y-88203000D03*
X208651000Y-89528000D03*
X209501000Y-89528000D03*
X210351000Y-89528000D03*
X211201000Y-89528000D03*
X212051000Y-89528000D03*
X213751000Y-89528000D03*
X214601000Y-89528000D03*
X212901000Y-89528000D03*
%TD*%
D19*
%TO.C,D27*%
X250942000Y-102822000D03*
D20*
X250942000Y-95202000D03*
%TD*%
D21*
%TO.C,TP15*%
X257376000Y-181678000D03*
%TD*%
%TO.C,TP14*%
X248176000Y-179628000D03*
%TD*%
%TO.C,TP11*%
X253426000Y-174978000D03*
%TD*%
D22*
%TO.C,REF\002A\002A*%
X183476000Y-127278000D03*
%TD*%
%TO.C,REF\002A\002A*%
X321476000Y-147528000D03*
%TD*%
%TO.C,REF\002A\002A*%
X126726000Y-147528000D03*
%TD*%
%TO.C,REF\002A\002A*%
X104476000Y-127278000D03*
%TD*%
%TO.C,REF\002A\002A*%
X226476000Y-147528000D03*
%TD*%
%TO.C,REF\002A\002A*%
X278476000Y-127278000D03*
%TD*%
D23*
%TO.C,U3*%
X203376000Y-175178000D03*
%TD*%
D21*
%TO.C,TP10*%
X251626000Y-173228000D03*
%TD*%
D24*
%TO.C,D89*%
X336126000Y-108928000D03*
D25*
X337396000Y-108928000D03*
X338666000Y-108928000D03*
X339936000Y-108928000D03*
%TD*%
D24*
%TO.C,D88*%
X285326000Y-108828000D03*
D25*
X286596000Y-108828000D03*
X287866000Y-108828000D03*
X289136000Y-108828000D03*
%TD*%
D24*
%TO.C,D87*%
X233826000Y-108828000D03*
D25*
X235096000Y-108828000D03*
X236366000Y-108828000D03*
X237636000Y-108828000D03*
%TD*%
D24*
%TO.C,D86*%
X177326000Y-108728000D03*
D25*
X178596000Y-108728000D03*
X179866000Y-108728000D03*
X181136000Y-108728000D03*
%TD*%
D24*
%TO.C,D85*%
X131226000Y-108828000D03*
D25*
X132496000Y-108828000D03*
X133766000Y-108828000D03*
X135036000Y-108828000D03*
%TD*%
D24*
%TO.C,D84*%
X76876000Y-108928000D03*
D25*
X78146000Y-108928000D03*
X79416000Y-108928000D03*
X80686000Y-108928000D03*
%TD*%
D24*
%TO.C,D83*%
X336026000Y-137228000D03*
D25*
X337296000Y-137228000D03*
X338566000Y-137228000D03*
X339836000Y-137228000D03*
%TD*%
D24*
%TO.C,D82*%
X285326000Y-141828000D03*
D25*
X286596000Y-141828000D03*
X287866000Y-141828000D03*
X289136000Y-141828000D03*
%TD*%
D24*
%TO.C,D81*%
X233826000Y-130228000D03*
D25*
X235096000Y-130228000D03*
X236366000Y-130228000D03*
X237636000Y-130228000D03*
%TD*%
D24*
%TO.C,D80*%
X177326000Y-141828000D03*
D25*
X178596000Y-141828000D03*
X179866000Y-141828000D03*
X181136000Y-141828000D03*
%TD*%
D24*
%TO.C,D79*%
X131226000Y-130328000D03*
D25*
X132496000Y-130328000D03*
X133766000Y-130328000D03*
X135036000Y-130328000D03*
%TD*%
D24*
%TO.C,D78*%
X76876000Y-137428000D03*
D25*
X78146000Y-137428000D03*
X79416000Y-137428000D03*
X80686000Y-137428000D03*
%TD*%
D24*
%TO.C,D77*%
X336126000Y-165928000D03*
D25*
X337396000Y-165928000D03*
X338666000Y-165928000D03*
X339936000Y-165928000D03*
%TD*%
D24*
%TO.C,D76*%
X285326000Y-165728000D03*
D25*
X286596000Y-165728000D03*
X287866000Y-165728000D03*
X289136000Y-165728000D03*
%TD*%
D24*
%TO.C,D75*%
X233826000Y-162028000D03*
D25*
X235096000Y-162028000D03*
X236366000Y-162028000D03*
X237636000Y-162028000D03*
%TD*%
%TO.C,D74*%
X181136000Y-165728000D03*
X179866000Y-165728000D03*
X178596000Y-165728000D03*
D24*
X177326000Y-165728000D03*
%TD*%
%TO.C,D73*%
X131226000Y-165628000D03*
D25*
X132496000Y-165628000D03*
X133766000Y-165628000D03*
X135036000Y-165628000D03*
%TD*%
D24*
%TO.C,D72*%
X76876000Y-165928000D03*
D25*
X78146000Y-165928000D03*
X79416000Y-165928000D03*
X80686000Y-165928000D03*
%TD*%
D14*
%TO.C,R33*%
G36*
X338941680Y-168729384D02*
G01*
X338969588Y-168733524D01*
X338996957Y-168740380D01*
X339023521Y-168749885D01*
X339049027Y-168761948D01*
X339073226Y-168776452D01*
X339095888Y-168793259D01*
X339116793Y-168812207D01*
X339135741Y-168833112D01*
X339152548Y-168855774D01*
X339167052Y-168879973D01*
X339179115Y-168905479D01*
X339188620Y-168932043D01*
X339195476Y-168959412D01*
X339199616Y-168987320D01*
X339201000Y-169015500D01*
X339201000Y-169690500D01*
X339199616Y-169718680D01*
X339195476Y-169746588D01*
X339188620Y-169773957D01*
X339179115Y-169800521D01*
X339167052Y-169826027D01*
X339152548Y-169850226D01*
X339135741Y-169872888D01*
X339116793Y-169893793D01*
X339095888Y-169912741D01*
X339073226Y-169929548D01*
X339049027Y-169944052D01*
X339023521Y-169956115D01*
X338996957Y-169965620D01*
X338969588Y-169972476D01*
X338941680Y-169976616D01*
X338913500Y-169978000D01*
X338338500Y-169978000D01*
X338310320Y-169976616D01*
X338282412Y-169972476D01*
X338255043Y-169965620D01*
X338228479Y-169956115D01*
X338202973Y-169944052D01*
X338178774Y-169929548D01*
X338156112Y-169912741D01*
X338135207Y-169893793D01*
X338116259Y-169872888D01*
X338099452Y-169850226D01*
X338084948Y-169826027D01*
X338072885Y-169800521D01*
X338063380Y-169773957D01*
X338056524Y-169746588D01*
X338052384Y-169718680D01*
X338051000Y-169690500D01*
X338051000Y-169015500D01*
X338052384Y-168987320D01*
X338056524Y-168959412D01*
X338063380Y-168932043D01*
X338072885Y-168905479D01*
X338084948Y-168879973D01*
X338099452Y-168855774D01*
X338116259Y-168833112D01*
X338135207Y-168812207D01*
X338156112Y-168793259D01*
X338178774Y-168776452D01*
X338202973Y-168761948D01*
X338228479Y-168749885D01*
X338255043Y-168740380D01*
X338282412Y-168733524D01*
X338310320Y-168729384D01*
X338338500Y-168728000D01*
X338913500Y-168728000D01*
X338941680Y-168729384D01*
X338941680Y-168729384D01*
G37*
D15*
X338626000Y-169353000D03*
D14*
G36*
X338941680Y-170479384D02*
G01*
X338969588Y-170483524D01*
X338996957Y-170490380D01*
X339023521Y-170499885D01*
X339049027Y-170511948D01*
X339073226Y-170526452D01*
X339095888Y-170543259D01*
X339116793Y-170562207D01*
X339135741Y-170583112D01*
X339152548Y-170605774D01*
X339167052Y-170629973D01*
X339179115Y-170655479D01*
X339188620Y-170682043D01*
X339195476Y-170709412D01*
X339199616Y-170737320D01*
X339201000Y-170765500D01*
X339201000Y-171440500D01*
X339199616Y-171468680D01*
X339195476Y-171496588D01*
X339188620Y-171523957D01*
X339179115Y-171550521D01*
X339167052Y-171576027D01*
X339152548Y-171600226D01*
X339135741Y-171622888D01*
X339116793Y-171643793D01*
X339095888Y-171662741D01*
X339073226Y-171679548D01*
X339049027Y-171694052D01*
X339023521Y-171706115D01*
X338996957Y-171715620D01*
X338969588Y-171722476D01*
X338941680Y-171726616D01*
X338913500Y-171728000D01*
X338338500Y-171728000D01*
X338310320Y-171726616D01*
X338282412Y-171722476D01*
X338255043Y-171715620D01*
X338228479Y-171706115D01*
X338202973Y-171694052D01*
X338178774Y-171679548D01*
X338156112Y-171662741D01*
X338135207Y-171643793D01*
X338116259Y-171622888D01*
X338099452Y-171600226D01*
X338084948Y-171576027D01*
X338072885Y-171550521D01*
X338063380Y-171523957D01*
X338056524Y-171496588D01*
X338052384Y-171468680D01*
X338051000Y-171440500D01*
X338051000Y-170765500D01*
X338052384Y-170737320D01*
X338056524Y-170709412D01*
X338063380Y-170682043D01*
X338072885Y-170655479D01*
X338084948Y-170629973D01*
X338099452Y-170605774D01*
X338116259Y-170583112D01*
X338135207Y-170562207D01*
X338156112Y-170543259D01*
X338178774Y-170526452D01*
X338202973Y-170511948D01*
X338228479Y-170499885D01*
X338255043Y-170490380D01*
X338282412Y-170483524D01*
X338310320Y-170479384D01*
X338338500Y-170478000D01*
X338913500Y-170478000D01*
X338941680Y-170479384D01*
X338941680Y-170479384D01*
G37*
D15*
X338626000Y-171103000D03*
%TD*%
D14*
%TO.C,R32*%
G36*
X340541680Y-168729384D02*
G01*
X340569588Y-168733524D01*
X340596957Y-168740380D01*
X340623521Y-168749885D01*
X340649027Y-168761948D01*
X340673226Y-168776452D01*
X340695888Y-168793259D01*
X340716793Y-168812207D01*
X340735741Y-168833112D01*
X340752548Y-168855774D01*
X340767052Y-168879973D01*
X340779115Y-168905479D01*
X340788620Y-168932043D01*
X340795476Y-168959412D01*
X340799616Y-168987320D01*
X340801000Y-169015500D01*
X340801000Y-169690500D01*
X340799616Y-169718680D01*
X340795476Y-169746588D01*
X340788620Y-169773957D01*
X340779115Y-169800521D01*
X340767052Y-169826027D01*
X340752548Y-169850226D01*
X340735741Y-169872888D01*
X340716793Y-169893793D01*
X340695888Y-169912741D01*
X340673226Y-169929548D01*
X340649027Y-169944052D01*
X340623521Y-169956115D01*
X340596957Y-169965620D01*
X340569588Y-169972476D01*
X340541680Y-169976616D01*
X340513500Y-169978000D01*
X339938500Y-169978000D01*
X339910320Y-169976616D01*
X339882412Y-169972476D01*
X339855043Y-169965620D01*
X339828479Y-169956115D01*
X339802973Y-169944052D01*
X339778774Y-169929548D01*
X339756112Y-169912741D01*
X339735207Y-169893793D01*
X339716259Y-169872888D01*
X339699452Y-169850226D01*
X339684948Y-169826027D01*
X339672885Y-169800521D01*
X339663380Y-169773957D01*
X339656524Y-169746588D01*
X339652384Y-169718680D01*
X339651000Y-169690500D01*
X339651000Y-169015500D01*
X339652384Y-168987320D01*
X339656524Y-168959412D01*
X339663380Y-168932043D01*
X339672885Y-168905479D01*
X339684948Y-168879973D01*
X339699452Y-168855774D01*
X339716259Y-168833112D01*
X339735207Y-168812207D01*
X339756112Y-168793259D01*
X339778774Y-168776452D01*
X339802973Y-168761948D01*
X339828479Y-168749885D01*
X339855043Y-168740380D01*
X339882412Y-168733524D01*
X339910320Y-168729384D01*
X339938500Y-168728000D01*
X340513500Y-168728000D01*
X340541680Y-168729384D01*
X340541680Y-168729384D01*
G37*
D15*
X340226000Y-169353000D03*
D14*
G36*
X340541680Y-170479384D02*
G01*
X340569588Y-170483524D01*
X340596957Y-170490380D01*
X340623521Y-170499885D01*
X340649027Y-170511948D01*
X340673226Y-170526452D01*
X340695888Y-170543259D01*
X340716793Y-170562207D01*
X340735741Y-170583112D01*
X340752548Y-170605774D01*
X340767052Y-170629973D01*
X340779115Y-170655479D01*
X340788620Y-170682043D01*
X340795476Y-170709412D01*
X340799616Y-170737320D01*
X340801000Y-170765500D01*
X340801000Y-171440500D01*
X340799616Y-171468680D01*
X340795476Y-171496588D01*
X340788620Y-171523957D01*
X340779115Y-171550521D01*
X340767052Y-171576027D01*
X340752548Y-171600226D01*
X340735741Y-171622888D01*
X340716793Y-171643793D01*
X340695888Y-171662741D01*
X340673226Y-171679548D01*
X340649027Y-171694052D01*
X340623521Y-171706115D01*
X340596957Y-171715620D01*
X340569588Y-171722476D01*
X340541680Y-171726616D01*
X340513500Y-171728000D01*
X339938500Y-171728000D01*
X339910320Y-171726616D01*
X339882412Y-171722476D01*
X339855043Y-171715620D01*
X339828479Y-171706115D01*
X339802973Y-171694052D01*
X339778774Y-171679548D01*
X339756112Y-171662741D01*
X339735207Y-171643793D01*
X339716259Y-171622888D01*
X339699452Y-171600226D01*
X339684948Y-171576027D01*
X339672885Y-171550521D01*
X339663380Y-171523957D01*
X339656524Y-171496588D01*
X339652384Y-171468680D01*
X339651000Y-171440500D01*
X339651000Y-170765500D01*
X339652384Y-170737320D01*
X339656524Y-170709412D01*
X339663380Y-170682043D01*
X339672885Y-170655479D01*
X339684948Y-170629973D01*
X339699452Y-170605774D01*
X339716259Y-170583112D01*
X339735207Y-170562207D01*
X339756112Y-170543259D01*
X339778774Y-170526452D01*
X339802973Y-170511948D01*
X339828479Y-170499885D01*
X339855043Y-170490380D01*
X339882412Y-170483524D01*
X339910320Y-170479384D01*
X339938500Y-170478000D01*
X340513500Y-170478000D01*
X340541680Y-170479384D01*
X340541680Y-170479384D01*
G37*
D15*
X340226000Y-171103000D03*
%TD*%
D14*
%TO.C,R31*%
G36*
X336441680Y-168729384D02*
G01*
X336469588Y-168733524D01*
X336496957Y-168740380D01*
X336523521Y-168749885D01*
X336549027Y-168761948D01*
X336573226Y-168776452D01*
X336595888Y-168793259D01*
X336616793Y-168812207D01*
X336635741Y-168833112D01*
X336652548Y-168855774D01*
X336667052Y-168879973D01*
X336679115Y-168905479D01*
X336688620Y-168932043D01*
X336695476Y-168959412D01*
X336699616Y-168987320D01*
X336701000Y-169015500D01*
X336701000Y-169690500D01*
X336699616Y-169718680D01*
X336695476Y-169746588D01*
X336688620Y-169773957D01*
X336679115Y-169800521D01*
X336667052Y-169826027D01*
X336652548Y-169850226D01*
X336635741Y-169872888D01*
X336616793Y-169893793D01*
X336595888Y-169912741D01*
X336573226Y-169929548D01*
X336549027Y-169944052D01*
X336523521Y-169956115D01*
X336496957Y-169965620D01*
X336469588Y-169972476D01*
X336441680Y-169976616D01*
X336413500Y-169978000D01*
X335838500Y-169978000D01*
X335810320Y-169976616D01*
X335782412Y-169972476D01*
X335755043Y-169965620D01*
X335728479Y-169956115D01*
X335702973Y-169944052D01*
X335678774Y-169929548D01*
X335656112Y-169912741D01*
X335635207Y-169893793D01*
X335616259Y-169872888D01*
X335599452Y-169850226D01*
X335584948Y-169826027D01*
X335572885Y-169800521D01*
X335563380Y-169773957D01*
X335556524Y-169746588D01*
X335552384Y-169718680D01*
X335551000Y-169690500D01*
X335551000Y-169015500D01*
X335552384Y-168987320D01*
X335556524Y-168959412D01*
X335563380Y-168932043D01*
X335572885Y-168905479D01*
X335584948Y-168879973D01*
X335599452Y-168855774D01*
X335616259Y-168833112D01*
X335635207Y-168812207D01*
X335656112Y-168793259D01*
X335678774Y-168776452D01*
X335702973Y-168761948D01*
X335728479Y-168749885D01*
X335755043Y-168740380D01*
X335782412Y-168733524D01*
X335810320Y-168729384D01*
X335838500Y-168728000D01*
X336413500Y-168728000D01*
X336441680Y-168729384D01*
X336441680Y-168729384D01*
G37*
D15*
X336126000Y-169353000D03*
D14*
G36*
X336441680Y-170479384D02*
G01*
X336469588Y-170483524D01*
X336496957Y-170490380D01*
X336523521Y-170499885D01*
X336549027Y-170511948D01*
X336573226Y-170526452D01*
X336595888Y-170543259D01*
X336616793Y-170562207D01*
X336635741Y-170583112D01*
X336652548Y-170605774D01*
X336667052Y-170629973D01*
X336679115Y-170655479D01*
X336688620Y-170682043D01*
X336695476Y-170709412D01*
X336699616Y-170737320D01*
X336701000Y-170765500D01*
X336701000Y-171440500D01*
X336699616Y-171468680D01*
X336695476Y-171496588D01*
X336688620Y-171523957D01*
X336679115Y-171550521D01*
X336667052Y-171576027D01*
X336652548Y-171600226D01*
X336635741Y-171622888D01*
X336616793Y-171643793D01*
X336595888Y-171662741D01*
X336573226Y-171679548D01*
X336549027Y-171694052D01*
X336523521Y-171706115D01*
X336496957Y-171715620D01*
X336469588Y-171722476D01*
X336441680Y-171726616D01*
X336413500Y-171728000D01*
X335838500Y-171728000D01*
X335810320Y-171726616D01*
X335782412Y-171722476D01*
X335755043Y-171715620D01*
X335728479Y-171706115D01*
X335702973Y-171694052D01*
X335678774Y-171679548D01*
X335656112Y-171662741D01*
X335635207Y-171643793D01*
X335616259Y-171622888D01*
X335599452Y-171600226D01*
X335584948Y-171576027D01*
X335572885Y-171550521D01*
X335563380Y-171523957D01*
X335556524Y-171496588D01*
X335552384Y-171468680D01*
X335551000Y-171440500D01*
X335551000Y-170765500D01*
X335552384Y-170737320D01*
X335556524Y-170709412D01*
X335563380Y-170682043D01*
X335572885Y-170655479D01*
X335584948Y-170629973D01*
X335599452Y-170605774D01*
X335616259Y-170583112D01*
X335635207Y-170562207D01*
X335656112Y-170543259D01*
X335678774Y-170526452D01*
X335702973Y-170511948D01*
X335728479Y-170499885D01*
X335755043Y-170490380D01*
X335782412Y-170483524D01*
X335810320Y-170479384D01*
X335838500Y-170478000D01*
X336413500Y-170478000D01*
X336441680Y-170479384D01*
X336441680Y-170479384D01*
G37*
D15*
X336126000Y-171103000D03*
%TD*%
D14*
%TO.C,R30*%
G36*
X288191680Y-167429384D02*
G01*
X288219588Y-167433524D01*
X288246957Y-167440380D01*
X288273521Y-167449885D01*
X288299027Y-167461948D01*
X288323226Y-167476452D01*
X288345888Y-167493259D01*
X288366793Y-167512207D01*
X288385741Y-167533112D01*
X288402548Y-167555774D01*
X288417052Y-167579973D01*
X288429115Y-167605479D01*
X288438620Y-167632043D01*
X288445476Y-167659412D01*
X288449616Y-167687320D01*
X288451000Y-167715500D01*
X288451000Y-168390500D01*
X288449616Y-168418680D01*
X288445476Y-168446588D01*
X288438620Y-168473957D01*
X288429115Y-168500521D01*
X288417052Y-168526027D01*
X288402548Y-168550226D01*
X288385741Y-168572888D01*
X288366793Y-168593793D01*
X288345888Y-168612741D01*
X288323226Y-168629548D01*
X288299027Y-168644052D01*
X288273521Y-168656115D01*
X288246957Y-168665620D01*
X288219588Y-168672476D01*
X288191680Y-168676616D01*
X288163500Y-168678000D01*
X287588500Y-168678000D01*
X287560320Y-168676616D01*
X287532412Y-168672476D01*
X287505043Y-168665620D01*
X287478479Y-168656115D01*
X287452973Y-168644052D01*
X287428774Y-168629548D01*
X287406112Y-168612741D01*
X287385207Y-168593793D01*
X287366259Y-168572888D01*
X287349452Y-168550226D01*
X287334948Y-168526027D01*
X287322885Y-168500521D01*
X287313380Y-168473957D01*
X287306524Y-168446588D01*
X287302384Y-168418680D01*
X287301000Y-168390500D01*
X287301000Y-167715500D01*
X287302384Y-167687320D01*
X287306524Y-167659412D01*
X287313380Y-167632043D01*
X287322885Y-167605479D01*
X287334948Y-167579973D01*
X287349452Y-167555774D01*
X287366259Y-167533112D01*
X287385207Y-167512207D01*
X287406112Y-167493259D01*
X287428774Y-167476452D01*
X287452973Y-167461948D01*
X287478479Y-167449885D01*
X287505043Y-167440380D01*
X287532412Y-167433524D01*
X287560320Y-167429384D01*
X287588500Y-167428000D01*
X288163500Y-167428000D01*
X288191680Y-167429384D01*
X288191680Y-167429384D01*
G37*
D15*
X287876000Y-168053000D03*
D14*
G36*
X288191680Y-169179384D02*
G01*
X288219588Y-169183524D01*
X288246957Y-169190380D01*
X288273521Y-169199885D01*
X288299027Y-169211948D01*
X288323226Y-169226452D01*
X288345888Y-169243259D01*
X288366793Y-169262207D01*
X288385741Y-169283112D01*
X288402548Y-169305774D01*
X288417052Y-169329973D01*
X288429115Y-169355479D01*
X288438620Y-169382043D01*
X288445476Y-169409412D01*
X288449616Y-169437320D01*
X288451000Y-169465500D01*
X288451000Y-170140500D01*
X288449616Y-170168680D01*
X288445476Y-170196588D01*
X288438620Y-170223957D01*
X288429115Y-170250521D01*
X288417052Y-170276027D01*
X288402548Y-170300226D01*
X288385741Y-170322888D01*
X288366793Y-170343793D01*
X288345888Y-170362741D01*
X288323226Y-170379548D01*
X288299027Y-170394052D01*
X288273521Y-170406115D01*
X288246957Y-170415620D01*
X288219588Y-170422476D01*
X288191680Y-170426616D01*
X288163500Y-170428000D01*
X287588500Y-170428000D01*
X287560320Y-170426616D01*
X287532412Y-170422476D01*
X287505043Y-170415620D01*
X287478479Y-170406115D01*
X287452973Y-170394052D01*
X287428774Y-170379548D01*
X287406112Y-170362741D01*
X287385207Y-170343793D01*
X287366259Y-170322888D01*
X287349452Y-170300226D01*
X287334948Y-170276027D01*
X287322885Y-170250521D01*
X287313380Y-170223957D01*
X287306524Y-170196588D01*
X287302384Y-170168680D01*
X287301000Y-170140500D01*
X287301000Y-169465500D01*
X287302384Y-169437320D01*
X287306524Y-169409412D01*
X287313380Y-169382043D01*
X287322885Y-169355479D01*
X287334948Y-169329973D01*
X287349452Y-169305774D01*
X287366259Y-169283112D01*
X287385207Y-169262207D01*
X287406112Y-169243259D01*
X287428774Y-169226452D01*
X287452973Y-169211948D01*
X287478479Y-169199885D01*
X287505043Y-169190380D01*
X287532412Y-169183524D01*
X287560320Y-169179384D01*
X287588500Y-169178000D01*
X288163500Y-169178000D01*
X288191680Y-169179384D01*
X288191680Y-169179384D01*
G37*
D15*
X287876000Y-169803000D03*
%TD*%
D14*
%TO.C,R29*%
G36*
X289941680Y-167429384D02*
G01*
X289969588Y-167433524D01*
X289996957Y-167440380D01*
X290023521Y-167449885D01*
X290049027Y-167461948D01*
X290073226Y-167476452D01*
X290095888Y-167493259D01*
X290116793Y-167512207D01*
X290135741Y-167533112D01*
X290152548Y-167555774D01*
X290167052Y-167579973D01*
X290179115Y-167605479D01*
X290188620Y-167632043D01*
X290195476Y-167659412D01*
X290199616Y-167687320D01*
X290201000Y-167715500D01*
X290201000Y-168390500D01*
X290199616Y-168418680D01*
X290195476Y-168446588D01*
X290188620Y-168473957D01*
X290179115Y-168500521D01*
X290167052Y-168526027D01*
X290152548Y-168550226D01*
X290135741Y-168572888D01*
X290116793Y-168593793D01*
X290095888Y-168612741D01*
X290073226Y-168629548D01*
X290049027Y-168644052D01*
X290023521Y-168656115D01*
X289996957Y-168665620D01*
X289969588Y-168672476D01*
X289941680Y-168676616D01*
X289913500Y-168678000D01*
X289338500Y-168678000D01*
X289310320Y-168676616D01*
X289282412Y-168672476D01*
X289255043Y-168665620D01*
X289228479Y-168656115D01*
X289202973Y-168644052D01*
X289178774Y-168629548D01*
X289156112Y-168612741D01*
X289135207Y-168593793D01*
X289116259Y-168572888D01*
X289099452Y-168550226D01*
X289084948Y-168526027D01*
X289072885Y-168500521D01*
X289063380Y-168473957D01*
X289056524Y-168446588D01*
X289052384Y-168418680D01*
X289051000Y-168390500D01*
X289051000Y-167715500D01*
X289052384Y-167687320D01*
X289056524Y-167659412D01*
X289063380Y-167632043D01*
X289072885Y-167605479D01*
X289084948Y-167579973D01*
X289099452Y-167555774D01*
X289116259Y-167533112D01*
X289135207Y-167512207D01*
X289156112Y-167493259D01*
X289178774Y-167476452D01*
X289202973Y-167461948D01*
X289228479Y-167449885D01*
X289255043Y-167440380D01*
X289282412Y-167433524D01*
X289310320Y-167429384D01*
X289338500Y-167428000D01*
X289913500Y-167428000D01*
X289941680Y-167429384D01*
X289941680Y-167429384D01*
G37*
D15*
X289626000Y-168053000D03*
D14*
G36*
X289941680Y-169179384D02*
G01*
X289969588Y-169183524D01*
X289996957Y-169190380D01*
X290023521Y-169199885D01*
X290049027Y-169211948D01*
X290073226Y-169226452D01*
X290095888Y-169243259D01*
X290116793Y-169262207D01*
X290135741Y-169283112D01*
X290152548Y-169305774D01*
X290167052Y-169329973D01*
X290179115Y-169355479D01*
X290188620Y-169382043D01*
X290195476Y-169409412D01*
X290199616Y-169437320D01*
X290201000Y-169465500D01*
X290201000Y-170140500D01*
X290199616Y-170168680D01*
X290195476Y-170196588D01*
X290188620Y-170223957D01*
X290179115Y-170250521D01*
X290167052Y-170276027D01*
X290152548Y-170300226D01*
X290135741Y-170322888D01*
X290116793Y-170343793D01*
X290095888Y-170362741D01*
X290073226Y-170379548D01*
X290049027Y-170394052D01*
X290023521Y-170406115D01*
X289996957Y-170415620D01*
X289969588Y-170422476D01*
X289941680Y-170426616D01*
X289913500Y-170428000D01*
X289338500Y-170428000D01*
X289310320Y-170426616D01*
X289282412Y-170422476D01*
X289255043Y-170415620D01*
X289228479Y-170406115D01*
X289202973Y-170394052D01*
X289178774Y-170379548D01*
X289156112Y-170362741D01*
X289135207Y-170343793D01*
X289116259Y-170322888D01*
X289099452Y-170300226D01*
X289084948Y-170276027D01*
X289072885Y-170250521D01*
X289063380Y-170223957D01*
X289056524Y-170196588D01*
X289052384Y-170168680D01*
X289051000Y-170140500D01*
X289051000Y-169465500D01*
X289052384Y-169437320D01*
X289056524Y-169409412D01*
X289063380Y-169382043D01*
X289072885Y-169355479D01*
X289084948Y-169329973D01*
X289099452Y-169305774D01*
X289116259Y-169283112D01*
X289135207Y-169262207D01*
X289156112Y-169243259D01*
X289178774Y-169226452D01*
X289202973Y-169211948D01*
X289228479Y-169199885D01*
X289255043Y-169190380D01*
X289282412Y-169183524D01*
X289310320Y-169179384D01*
X289338500Y-169178000D01*
X289913500Y-169178000D01*
X289941680Y-169179384D01*
X289941680Y-169179384D01*
G37*
D15*
X289626000Y-169803000D03*
%TD*%
D14*
%TO.C,R28*%
G36*
X286441680Y-167429384D02*
G01*
X286469588Y-167433524D01*
X286496957Y-167440380D01*
X286523521Y-167449885D01*
X286549027Y-167461948D01*
X286573226Y-167476452D01*
X286595888Y-167493259D01*
X286616793Y-167512207D01*
X286635741Y-167533112D01*
X286652548Y-167555774D01*
X286667052Y-167579973D01*
X286679115Y-167605479D01*
X286688620Y-167632043D01*
X286695476Y-167659412D01*
X286699616Y-167687320D01*
X286701000Y-167715500D01*
X286701000Y-168390500D01*
X286699616Y-168418680D01*
X286695476Y-168446588D01*
X286688620Y-168473957D01*
X286679115Y-168500521D01*
X286667052Y-168526027D01*
X286652548Y-168550226D01*
X286635741Y-168572888D01*
X286616793Y-168593793D01*
X286595888Y-168612741D01*
X286573226Y-168629548D01*
X286549027Y-168644052D01*
X286523521Y-168656115D01*
X286496957Y-168665620D01*
X286469588Y-168672476D01*
X286441680Y-168676616D01*
X286413500Y-168678000D01*
X285838500Y-168678000D01*
X285810320Y-168676616D01*
X285782412Y-168672476D01*
X285755043Y-168665620D01*
X285728479Y-168656115D01*
X285702973Y-168644052D01*
X285678774Y-168629548D01*
X285656112Y-168612741D01*
X285635207Y-168593793D01*
X285616259Y-168572888D01*
X285599452Y-168550226D01*
X285584948Y-168526027D01*
X285572885Y-168500521D01*
X285563380Y-168473957D01*
X285556524Y-168446588D01*
X285552384Y-168418680D01*
X285551000Y-168390500D01*
X285551000Y-167715500D01*
X285552384Y-167687320D01*
X285556524Y-167659412D01*
X285563380Y-167632043D01*
X285572885Y-167605479D01*
X285584948Y-167579973D01*
X285599452Y-167555774D01*
X285616259Y-167533112D01*
X285635207Y-167512207D01*
X285656112Y-167493259D01*
X285678774Y-167476452D01*
X285702973Y-167461948D01*
X285728479Y-167449885D01*
X285755043Y-167440380D01*
X285782412Y-167433524D01*
X285810320Y-167429384D01*
X285838500Y-167428000D01*
X286413500Y-167428000D01*
X286441680Y-167429384D01*
X286441680Y-167429384D01*
G37*
D15*
X286126000Y-168053000D03*
D14*
G36*
X286441680Y-169179384D02*
G01*
X286469588Y-169183524D01*
X286496957Y-169190380D01*
X286523521Y-169199885D01*
X286549027Y-169211948D01*
X286573226Y-169226452D01*
X286595888Y-169243259D01*
X286616793Y-169262207D01*
X286635741Y-169283112D01*
X286652548Y-169305774D01*
X286667052Y-169329973D01*
X286679115Y-169355479D01*
X286688620Y-169382043D01*
X286695476Y-169409412D01*
X286699616Y-169437320D01*
X286701000Y-169465500D01*
X286701000Y-170140500D01*
X286699616Y-170168680D01*
X286695476Y-170196588D01*
X286688620Y-170223957D01*
X286679115Y-170250521D01*
X286667052Y-170276027D01*
X286652548Y-170300226D01*
X286635741Y-170322888D01*
X286616793Y-170343793D01*
X286595888Y-170362741D01*
X286573226Y-170379548D01*
X286549027Y-170394052D01*
X286523521Y-170406115D01*
X286496957Y-170415620D01*
X286469588Y-170422476D01*
X286441680Y-170426616D01*
X286413500Y-170428000D01*
X285838500Y-170428000D01*
X285810320Y-170426616D01*
X285782412Y-170422476D01*
X285755043Y-170415620D01*
X285728479Y-170406115D01*
X285702973Y-170394052D01*
X285678774Y-170379548D01*
X285656112Y-170362741D01*
X285635207Y-170343793D01*
X285616259Y-170322888D01*
X285599452Y-170300226D01*
X285584948Y-170276027D01*
X285572885Y-170250521D01*
X285563380Y-170223957D01*
X285556524Y-170196588D01*
X285552384Y-170168680D01*
X285551000Y-170140500D01*
X285551000Y-169465500D01*
X285552384Y-169437320D01*
X285556524Y-169409412D01*
X285563380Y-169382043D01*
X285572885Y-169355479D01*
X285584948Y-169329973D01*
X285599452Y-169305774D01*
X285616259Y-169283112D01*
X285635207Y-169262207D01*
X285656112Y-169243259D01*
X285678774Y-169226452D01*
X285702973Y-169211948D01*
X285728479Y-169199885D01*
X285755043Y-169190380D01*
X285782412Y-169183524D01*
X285810320Y-169179384D01*
X285838500Y-169178000D01*
X286413500Y-169178000D01*
X286441680Y-169179384D01*
X286441680Y-169179384D01*
G37*
D15*
X286126000Y-169803000D03*
%TD*%
D14*
%TO.C,R24*%
G36*
X173941680Y-169179384D02*
G01*
X173969588Y-169183524D01*
X173996957Y-169190380D01*
X174023521Y-169199885D01*
X174049027Y-169211948D01*
X174073226Y-169226452D01*
X174095888Y-169243259D01*
X174116793Y-169262207D01*
X174135741Y-169283112D01*
X174152548Y-169305774D01*
X174167052Y-169329973D01*
X174179115Y-169355479D01*
X174188620Y-169382043D01*
X174195476Y-169409412D01*
X174199616Y-169437320D01*
X174201000Y-169465500D01*
X174201000Y-170140500D01*
X174199616Y-170168680D01*
X174195476Y-170196588D01*
X174188620Y-170223957D01*
X174179115Y-170250521D01*
X174167052Y-170276027D01*
X174152548Y-170300226D01*
X174135741Y-170322888D01*
X174116793Y-170343793D01*
X174095888Y-170362741D01*
X174073226Y-170379548D01*
X174049027Y-170394052D01*
X174023521Y-170406115D01*
X173996957Y-170415620D01*
X173969588Y-170422476D01*
X173941680Y-170426616D01*
X173913500Y-170428000D01*
X173338500Y-170428000D01*
X173310320Y-170426616D01*
X173282412Y-170422476D01*
X173255043Y-170415620D01*
X173228479Y-170406115D01*
X173202973Y-170394052D01*
X173178774Y-170379548D01*
X173156112Y-170362741D01*
X173135207Y-170343793D01*
X173116259Y-170322888D01*
X173099452Y-170300226D01*
X173084948Y-170276027D01*
X173072885Y-170250521D01*
X173063380Y-170223957D01*
X173056524Y-170196588D01*
X173052384Y-170168680D01*
X173051000Y-170140500D01*
X173051000Y-169465500D01*
X173052384Y-169437320D01*
X173056524Y-169409412D01*
X173063380Y-169382043D01*
X173072885Y-169355479D01*
X173084948Y-169329973D01*
X173099452Y-169305774D01*
X173116259Y-169283112D01*
X173135207Y-169262207D01*
X173156112Y-169243259D01*
X173178774Y-169226452D01*
X173202973Y-169211948D01*
X173228479Y-169199885D01*
X173255043Y-169190380D01*
X173282412Y-169183524D01*
X173310320Y-169179384D01*
X173338500Y-169178000D01*
X173913500Y-169178000D01*
X173941680Y-169179384D01*
X173941680Y-169179384D01*
G37*
D15*
X173626000Y-169803000D03*
D14*
G36*
X173941680Y-170929384D02*
G01*
X173969588Y-170933524D01*
X173996957Y-170940380D01*
X174023521Y-170949885D01*
X174049027Y-170961948D01*
X174073226Y-170976452D01*
X174095888Y-170993259D01*
X174116793Y-171012207D01*
X174135741Y-171033112D01*
X174152548Y-171055774D01*
X174167052Y-171079973D01*
X174179115Y-171105479D01*
X174188620Y-171132043D01*
X174195476Y-171159412D01*
X174199616Y-171187320D01*
X174201000Y-171215500D01*
X174201000Y-171890500D01*
X174199616Y-171918680D01*
X174195476Y-171946588D01*
X174188620Y-171973957D01*
X174179115Y-172000521D01*
X174167052Y-172026027D01*
X174152548Y-172050226D01*
X174135741Y-172072888D01*
X174116793Y-172093793D01*
X174095888Y-172112741D01*
X174073226Y-172129548D01*
X174049027Y-172144052D01*
X174023521Y-172156115D01*
X173996957Y-172165620D01*
X173969588Y-172172476D01*
X173941680Y-172176616D01*
X173913500Y-172178000D01*
X173338500Y-172178000D01*
X173310320Y-172176616D01*
X173282412Y-172172476D01*
X173255043Y-172165620D01*
X173228479Y-172156115D01*
X173202973Y-172144052D01*
X173178774Y-172129548D01*
X173156112Y-172112741D01*
X173135207Y-172093793D01*
X173116259Y-172072888D01*
X173099452Y-172050226D01*
X173084948Y-172026027D01*
X173072885Y-172000521D01*
X173063380Y-171973957D01*
X173056524Y-171946588D01*
X173052384Y-171918680D01*
X173051000Y-171890500D01*
X173051000Y-171215500D01*
X173052384Y-171187320D01*
X173056524Y-171159412D01*
X173063380Y-171132043D01*
X173072885Y-171105479D01*
X173084948Y-171079973D01*
X173099452Y-171055774D01*
X173116259Y-171033112D01*
X173135207Y-171012207D01*
X173156112Y-170993259D01*
X173178774Y-170976452D01*
X173202973Y-170961948D01*
X173228479Y-170949885D01*
X173255043Y-170940380D01*
X173282412Y-170933524D01*
X173310320Y-170929384D01*
X173338500Y-170928000D01*
X173913500Y-170928000D01*
X173941680Y-170929384D01*
X173941680Y-170929384D01*
G37*
D15*
X173626000Y-171553000D03*
%TD*%
D14*
%TO.C,R23*%
G36*
X175691680Y-169179384D02*
G01*
X175719588Y-169183524D01*
X175746957Y-169190380D01*
X175773521Y-169199885D01*
X175799027Y-169211948D01*
X175823226Y-169226452D01*
X175845888Y-169243259D01*
X175866793Y-169262207D01*
X175885741Y-169283112D01*
X175902548Y-169305774D01*
X175917052Y-169329973D01*
X175929115Y-169355479D01*
X175938620Y-169382043D01*
X175945476Y-169409412D01*
X175949616Y-169437320D01*
X175951000Y-169465500D01*
X175951000Y-170140500D01*
X175949616Y-170168680D01*
X175945476Y-170196588D01*
X175938620Y-170223957D01*
X175929115Y-170250521D01*
X175917052Y-170276027D01*
X175902548Y-170300226D01*
X175885741Y-170322888D01*
X175866793Y-170343793D01*
X175845888Y-170362741D01*
X175823226Y-170379548D01*
X175799027Y-170394052D01*
X175773521Y-170406115D01*
X175746957Y-170415620D01*
X175719588Y-170422476D01*
X175691680Y-170426616D01*
X175663500Y-170428000D01*
X175088500Y-170428000D01*
X175060320Y-170426616D01*
X175032412Y-170422476D01*
X175005043Y-170415620D01*
X174978479Y-170406115D01*
X174952973Y-170394052D01*
X174928774Y-170379548D01*
X174906112Y-170362741D01*
X174885207Y-170343793D01*
X174866259Y-170322888D01*
X174849452Y-170300226D01*
X174834948Y-170276027D01*
X174822885Y-170250521D01*
X174813380Y-170223957D01*
X174806524Y-170196588D01*
X174802384Y-170168680D01*
X174801000Y-170140500D01*
X174801000Y-169465500D01*
X174802384Y-169437320D01*
X174806524Y-169409412D01*
X174813380Y-169382043D01*
X174822885Y-169355479D01*
X174834948Y-169329973D01*
X174849452Y-169305774D01*
X174866259Y-169283112D01*
X174885207Y-169262207D01*
X174906112Y-169243259D01*
X174928774Y-169226452D01*
X174952973Y-169211948D01*
X174978479Y-169199885D01*
X175005043Y-169190380D01*
X175032412Y-169183524D01*
X175060320Y-169179384D01*
X175088500Y-169178000D01*
X175663500Y-169178000D01*
X175691680Y-169179384D01*
X175691680Y-169179384D01*
G37*
D15*
X175376000Y-169803000D03*
D14*
G36*
X175691680Y-170929384D02*
G01*
X175719588Y-170933524D01*
X175746957Y-170940380D01*
X175773521Y-170949885D01*
X175799027Y-170961948D01*
X175823226Y-170976452D01*
X175845888Y-170993259D01*
X175866793Y-171012207D01*
X175885741Y-171033112D01*
X175902548Y-171055774D01*
X175917052Y-171079973D01*
X175929115Y-171105479D01*
X175938620Y-171132043D01*
X175945476Y-171159412D01*
X175949616Y-171187320D01*
X175951000Y-171215500D01*
X175951000Y-171890500D01*
X175949616Y-171918680D01*
X175945476Y-171946588D01*
X175938620Y-171973957D01*
X175929115Y-172000521D01*
X175917052Y-172026027D01*
X175902548Y-172050226D01*
X175885741Y-172072888D01*
X175866793Y-172093793D01*
X175845888Y-172112741D01*
X175823226Y-172129548D01*
X175799027Y-172144052D01*
X175773521Y-172156115D01*
X175746957Y-172165620D01*
X175719588Y-172172476D01*
X175691680Y-172176616D01*
X175663500Y-172178000D01*
X175088500Y-172178000D01*
X175060320Y-172176616D01*
X175032412Y-172172476D01*
X175005043Y-172165620D01*
X174978479Y-172156115D01*
X174952973Y-172144052D01*
X174928774Y-172129548D01*
X174906112Y-172112741D01*
X174885207Y-172093793D01*
X174866259Y-172072888D01*
X174849452Y-172050226D01*
X174834948Y-172026027D01*
X174822885Y-172000521D01*
X174813380Y-171973957D01*
X174806524Y-171946588D01*
X174802384Y-171918680D01*
X174801000Y-171890500D01*
X174801000Y-171215500D01*
X174802384Y-171187320D01*
X174806524Y-171159412D01*
X174813380Y-171132043D01*
X174822885Y-171105479D01*
X174834948Y-171079973D01*
X174849452Y-171055774D01*
X174866259Y-171033112D01*
X174885207Y-171012207D01*
X174906112Y-170993259D01*
X174928774Y-170976452D01*
X174952973Y-170961948D01*
X174978479Y-170949885D01*
X175005043Y-170940380D01*
X175032412Y-170933524D01*
X175060320Y-170929384D01*
X175088500Y-170928000D01*
X175663500Y-170928000D01*
X175691680Y-170929384D01*
X175691680Y-170929384D01*
G37*
D15*
X175376000Y-171553000D03*
%TD*%
D14*
%TO.C,R22*%
G36*
X177441680Y-169179384D02*
G01*
X177469588Y-169183524D01*
X177496957Y-169190380D01*
X177523521Y-169199885D01*
X177549027Y-169211948D01*
X177573226Y-169226452D01*
X177595888Y-169243259D01*
X177616793Y-169262207D01*
X177635741Y-169283112D01*
X177652548Y-169305774D01*
X177667052Y-169329973D01*
X177679115Y-169355479D01*
X177688620Y-169382043D01*
X177695476Y-169409412D01*
X177699616Y-169437320D01*
X177701000Y-169465500D01*
X177701000Y-170140500D01*
X177699616Y-170168680D01*
X177695476Y-170196588D01*
X177688620Y-170223957D01*
X177679115Y-170250521D01*
X177667052Y-170276027D01*
X177652548Y-170300226D01*
X177635741Y-170322888D01*
X177616793Y-170343793D01*
X177595888Y-170362741D01*
X177573226Y-170379548D01*
X177549027Y-170394052D01*
X177523521Y-170406115D01*
X177496957Y-170415620D01*
X177469588Y-170422476D01*
X177441680Y-170426616D01*
X177413500Y-170428000D01*
X176838500Y-170428000D01*
X176810320Y-170426616D01*
X176782412Y-170422476D01*
X176755043Y-170415620D01*
X176728479Y-170406115D01*
X176702973Y-170394052D01*
X176678774Y-170379548D01*
X176656112Y-170362741D01*
X176635207Y-170343793D01*
X176616259Y-170322888D01*
X176599452Y-170300226D01*
X176584948Y-170276027D01*
X176572885Y-170250521D01*
X176563380Y-170223957D01*
X176556524Y-170196588D01*
X176552384Y-170168680D01*
X176551000Y-170140500D01*
X176551000Y-169465500D01*
X176552384Y-169437320D01*
X176556524Y-169409412D01*
X176563380Y-169382043D01*
X176572885Y-169355479D01*
X176584948Y-169329973D01*
X176599452Y-169305774D01*
X176616259Y-169283112D01*
X176635207Y-169262207D01*
X176656112Y-169243259D01*
X176678774Y-169226452D01*
X176702973Y-169211948D01*
X176728479Y-169199885D01*
X176755043Y-169190380D01*
X176782412Y-169183524D01*
X176810320Y-169179384D01*
X176838500Y-169178000D01*
X177413500Y-169178000D01*
X177441680Y-169179384D01*
X177441680Y-169179384D01*
G37*
D15*
X177126000Y-169803000D03*
D14*
G36*
X177441680Y-170929384D02*
G01*
X177469588Y-170933524D01*
X177496957Y-170940380D01*
X177523521Y-170949885D01*
X177549027Y-170961948D01*
X177573226Y-170976452D01*
X177595888Y-170993259D01*
X177616793Y-171012207D01*
X177635741Y-171033112D01*
X177652548Y-171055774D01*
X177667052Y-171079973D01*
X177679115Y-171105479D01*
X177688620Y-171132043D01*
X177695476Y-171159412D01*
X177699616Y-171187320D01*
X177701000Y-171215500D01*
X177701000Y-171890500D01*
X177699616Y-171918680D01*
X177695476Y-171946588D01*
X177688620Y-171973957D01*
X177679115Y-172000521D01*
X177667052Y-172026027D01*
X177652548Y-172050226D01*
X177635741Y-172072888D01*
X177616793Y-172093793D01*
X177595888Y-172112741D01*
X177573226Y-172129548D01*
X177549027Y-172144052D01*
X177523521Y-172156115D01*
X177496957Y-172165620D01*
X177469588Y-172172476D01*
X177441680Y-172176616D01*
X177413500Y-172178000D01*
X176838500Y-172178000D01*
X176810320Y-172176616D01*
X176782412Y-172172476D01*
X176755043Y-172165620D01*
X176728479Y-172156115D01*
X176702973Y-172144052D01*
X176678774Y-172129548D01*
X176656112Y-172112741D01*
X176635207Y-172093793D01*
X176616259Y-172072888D01*
X176599452Y-172050226D01*
X176584948Y-172026027D01*
X176572885Y-172000521D01*
X176563380Y-171973957D01*
X176556524Y-171946588D01*
X176552384Y-171918680D01*
X176551000Y-171890500D01*
X176551000Y-171215500D01*
X176552384Y-171187320D01*
X176556524Y-171159412D01*
X176563380Y-171132043D01*
X176572885Y-171105479D01*
X176584948Y-171079973D01*
X176599452Y-171055774D01*
X176616259Y-171033112D01*
X176635207Y-171012207D01*
X176656112Y-170993259D01*
X176678774Y-170976452D01*
X176702973Y-170961948D01*
X176728479Y-170949885D01*
X176755043Y-170940380D01*
X176782412Y-170933524D01*
X176810320Y-170929384D01*
X176838500Y-170928000D01*
X177413500Y-170928000D01*
X177441680Y-170929384D01*
X177441680Y-170929384D01*
G37*
D15*
X177126000Y-171553000D03*
%TD*%
D13*
%TO.C,SW24*%
X252201000Y-151248000D03*
X258551000Y-153788000D03*
D11*
X254741000Y-156328000D03*
D12*
X259821000Y-156328000D03*
X249661000Y-156328000D03*
%TD*%
%TO.C,SW50*%
X145036000Y-137378000D03*
X155196000Y-137378000D03*
D11*
X150116000Y-137378000D03*
D13*
X153926000Y-134838000D03*
X147576000Y-132298000D03*
%TD*%
%TO.C,SW63*%
X85926000Y-151248000D03*
X92276000Y-153788000D03*
D11*
X88466000Y-156328000D03*
D12*
X93546000Y-156328000D03*
X83386000Y-156328000D03*
%TD*%
D13*
%TO.C,SW33*%
X214201000Y-151248000D03*
X220551000Y-153788000D03*
D11*
X216741000Y-156328000D03*
D12*
X221821000Y-156328000D03*
X211661000Y-156328000D03*
%TD*%
D19*
%TO.C,D4*%
X346062000Y-102822000D03*
D20*
X346062000Y-95202000D03*
%TD*%
%TO.C,D5*%
X341122000Y-114252000D03*
D19*
X341122000Y-121872000D03*
%TD*%
%TO.C,D6*%
X355876000Y-140744000D03*
D20*
X355876000Y-133124000D03*
%TD*%
D12*
%TO.C,SW2*%
X349386000Y-99328000D03*
X359546000Y-99328000D03*
D11*
X354466000Y-99328000D03*
D13*
X358276000Y-96788000D03*
X351926000Y-94248000D03*
%TD*%
D12*
%TO.C,SW3*%
X344636000Y-118328000D03*
X354796000Y-118328000D03*
D11*
X349716000Y-118328000D03*
D13*
X353526000Y-115788000D03*
X347176000Y-113248000D03*
%TD*%
D12*
%TO.C,SW4*%
X342236000Y-137378000D03*
X352396000Y-137378000D03*
D11*
X347316000Y-137378000D03*
D13*
X351126000Y-134838000D03*
X344776000Y-132298000D03*
%TD*%
D10*
%TO.C,SW5*%
X330666000Y-149353000D03*
X354466000Y-149353000D03*
D11*
X354466000Y-164593000D03*
X330666000Y-164593000D03*
D12*
X337486000Y-156353000D03*
X347646000Y-156353000D03*
D11*
X342566000Y-156353000D03*
D13*
X346376000Y-153813000D03*
X340026000Y-151273000D03*
%TD*%
%TO.C,SW6*%
X349526000Y-170323000D03*
X355876000Y-172863000D03*
D11*
X352066000Y-175403000D03*
D12*
X357146000Y-175403000D03*
X346986000Y-175403000D03*
%TD*%
D13*
%TO.C,SW7*%
X332926000Y-94248000D03*
X339276000Y-96788000D03*
D11*
X335466000Y-99328000D03*
D12*
X340546000Y-99328000D03*
X330386000Y-99328000D03*
%TD*%
%TO.C,SW11*%
X323161000Y-175403000D03*
X333321000Y-175403000D03*
D11*
X328241000Y-175403000D03*
D13*
X332051000Y-172863000D03*
X325701000Y-170323000D03*
%TD*%
D12*
%TO.C,SW12*%
X311386000Y-99328000D03*
X321546000Y-99328000D03*
D11*
X316466000Y-99328000D03*
D13*
X320276000Y-96788000D03*
X313926000Y-94248000D03*
%TD*%
%TO.C,SW16*%
X301876000Y-170323000D03*
X308226000Y-172863000D03*
D11*
X304416000Y-175403000D03*
D12*
X309496000Y-175403000D03*
X299336000Y-175403000D03*
%TD*%
%TO.C,SW17*%
X292386000Y-99328000D03*
X302546000Y-99328000D03*
D11*
X297466000Y-99328000D03*
D13*
X301276000Y-96788000D03*
X294926000Y-94248000D03*
%TD*%
%TO.C,SW30*%
X237926000Y-94248000D03*
X244276000Y-96788000D03*
D11*
X240466000Y-99328000D03*
D12*
X245546000Y-99328000D03*
X235386000Y-99328000D03*
%TD*%
D13*
%TO.C,SW56*%
X111956000Y-151208000D03*
X118306000Y-153748000D03*
D11*
X114496000Y-156288000D03*
D12*
X119576000Y-156288000D03*
X109416000Y-156288000D03*
%TD*%
%TO.C,SW57*%
X102361000Y-175378000D03*
X112521000Y-175378000D03*
D11*
X107441000Y-175378000D03*
D13*
X111251000Y-172838000D03*
X104901000Y-170298000D03*
%TD*%
%TO.C,SW60*%
X95426000Y-94248000D03*
X101776000Y-96788000D03*
D11*
X97966000Y-99328000D03*
D12*
X103046000Y-99328000D03*
X92886000Y-99328000D03*
D11*
X86066000Y-107568000D03*
X109866000Y-107568000D03*
D10*
X109866000Y-92328000D03*
X86066000Y-92328000D03*
%TD*%
D13*
%TO.C,SW61*%
X90676000Y-113248000D03*
X97026000Y-115788000D03*
D11*
X93216000Y-118328000D03*
D12*
X98296000Y-118328000D03*
X88136000Y-118328000D03*
%TD*%
D13*
%TO.C,SW62*%
X97726000Y-132288000D03*
X104076000Y-134828000D03*
D11*
X100266000Y-137368000D03*
D12*
X105346000Y-137368000D03*
X95186000Y-137368000D03*
D11*
X88366000Y-145608000D03*
X112166000Y-145608000D03*
D10*
X112166000Y-130368000D03*
X88366000Y-130368000D03*
%TD*%
D21*
%TO.C,TP13*%
X220376000Y-107428000D03*
%TD*%
D12*
%TO.C,SW37*%
X192661000Y-156328000D03*
X202821000Y-156328000D03*
D11*
X197741000Y-156328000D03*
D13*
X201551000Y-153788000D03*
X195201000Y-151248000D03*
%TD*%
D19*
%TO.C,D29*%
X236692000Y-142328000D03*
D20*
X236692000Y-134708000D03*
%TD*%
D13*
%TO.C,SW26*%
X247426000Y-113248000D03*
X253776000Y-115788000D03*
D11*
X249966000Y-118328000D03*
D12*
X255046000Y-118328000D03*
X244886000Y-118328000D03*
%TD*%
%TO.C,SW41*%
X173661000Y-156328000D03*
X183821000Y-156328000D03*
D11*
X178741000Y-156328000D03*
D13*
X182551000Y-153788000D03*
X176201000Y-151248000D03*
%TD*%
D20*
%TO.C,D31*%
X224626000Y-171558000D03*
D19*
X224626000Y-179178000D03*
%TD*%
D20*
%TO.C,D66*%
X79942000Y-171370000D03*
D19*
X79942000Y-178990000D03*
%TD*%
D13*
%TO.C,SW34*%
X218926000Y-94248000D03*
X225276000Y-96788000D03*
D11*
X221466000Y-99328000D03*
D12*
X226546000Y-99328000D03*
X216386000Y-99328000D03*
%TD*%
D19*
%TO.C,D9*%
X326942000Y-102822000D03*
D20*
X326942000Y-95202000D03*
%TD*%
D19*
%TO.C,D14*%
X307942000Y-102822000D03*
D20*
X307942000Y-95202000D03*
%TD*%
D19*
%TO.C,D19*%
X288942000Y-102822000D03*
D20*
X288942000Y-95202000D03*
%TD*%
D19*
%TO.C,D23*%
X269942000Y-102822000D03*
D20*
X269942000Y-95202000D03*
%TD*%
D19*
%TO.C,D32*%
X231942000Y-102822000D03*
D20*
X231942000Y-95202000D03*
%TD*%
D19*
%TO.C,D36*%
X212942000Y-102822000D03*
D20*
X212942000Y-95202000D03*
%TD*%
D19*
%TO.C,D40*%
X193942000Y-102822000D03*
D20*
X193942000Y-95202000D03*
%TD*%
D19*
%TO.C,D45*%
X174942000Y-102822000D03*
D20*
X174942000Y-95202000D03*
%TD*%
D19*
%TO.C,D50*%
X155942000Y-102822000D03*
D20*
X155942000Y-95202000D03*
%TD*%
%TO.C,D55*%
X136942000Y-95202000D03*
D19*
X136942000Y-102822000D03*
%TD*%
%TO.C,D60*%
X117942000Y-102822000D03*
D20*
X117942000Y-95202000D03*
%TD*%
%TO.C,D62*%
X89408000Y-95202000D03*
D19*
X89408000Y-102822000D03*
%TD*%
%TO.C,D67*%
X60960000Y-102822000D03*
D20*
X60960000Y-95202000D03*
%TD*%
D19*
%TO.C,D10*%
X317500000Y-121872000D03*
D20*
X317500000Y-114252000D03*
%TD*%
D19*
%TO.C,D15*%
X298438000Y-121872000D03*
D20*
X298438000Y-114252000D03*
%TD*%
D19*
%TO.C,D20*%
X279438000Y-121872000D03*
D20*
X279438000Y-114252000D03*
%TD*%
D19*
%TO.C,D24*%
X260438000Y-121872000D03*
D20*
X260438000Y-114252000D03*
%TD*%
D19*
%TO.C,D28*%
X241438000Y-121872000D03*
D20*
X241438000Y-114252000D03*
%TD*%
D19*
%TO.C,D33*%
X222438000Y-121872000D03*
D20*
X222438000Y-114252000D03*
%TD*%
%TO.C,D37*%
X203438000Y-114252000D03*
D19*
X203438000Y-121872000D03*
%TD*%
%TO.C,D41*%
X184438000Y-121872000D03*
D20*
X184438000Y-114252000D03*
%TD*%
D19*
%TO.C,D46*%
X165438000Y-121872000D03*
D20*
X165438000Y-114252000D03*
%TD*%
D19*
%TO.C,D51*%
X146438000Y-121872000D03*
D20*
X146438000Y-114252000D03*
%TD*%
%TO.C,D56*%
X127438000Y-114252000D03*
D19*
X127438000Y-121872000D03*
%TD*%
%TO.C,D61*%
X108438000Y-121872000D03*
D20*
X108438000Y-114252000D03*
%TD*%
D19*
%TO.C,D63*%
X84582000Y-121872000D03*
D20*
X84582000Y-114252000D03*
%TD*%
D19*
%TO.C,D68*%
X60938000Y-121872000D03*
D20*
X60938000Y-114252000D03*
%TD*%
D19*
%TO.C,D11*%
X312692000Y-140744000D03*
D20*
X312692000Y-133124000D03*
%TD*%
D19*
%TO.C,D16*%
X293626000Y-140628000D03*
D20*
X293626000Y-133008000D03*
%TD*%
%TO.C,D21*%
X274692000Y-133124000D03*
D19*
X274692000Y-140744000D03*
%TD*%
%TO.C,D25*%
X255692000Y-140744000D03*
D20*
X255692000Y-133124000D03*
%TD*%
%TO.C,D34*%
X217692000Y-133124000D03*
D19*
X217692000Y-140744000D03*
%TD*%
%TO.C,D38*%
X198692000Y-140744000D03*
D20*
X198692000Y-133124000D03*
%TD*%
%TO.C,D42*%
X179692000Y-129628000D03*
D19*
X179692000Y-137248000D03*
%TD*%
%TO.C,D47*%
X160692000Y-140744000D03*
D20*
X160692000Y-133124000D03*
%TD*%
%TO.C,D52*%
X141692000Y-133124000D03*
D19*
X141692000Y-140744000D03*
%TD*%
%TO.C,D57*%
X122692000Y-140744000D03*
D20*
X122692000Y-133124000D03*
%TD*%
D19*
%TO.C,D64*%
X91694000Y-140744000D03*
D20*
X91694000Y-133124000D03*
%TD*%
%TO.C,D69*%
X60942000Y-133124000D03*
D19*
X60942000Y-140744000D03*
%TD*%
D20*
%TO.C,D7*%
X334010000Y-152098000D03*
D19*
X334010000Y-159718000D03*
%TD*%
D20*
%TO.C,D12*%
X303192000Y-152098000D03*
D19*
X303192000Y-159718000D03*
%TD*%
%TO.C,D17*%
X284192000Y-159718000D03*
D20*
X284192000Y-152098000D03*
%TD*%
%TO.C,D22*%
X265192000Y-152098000D03*
D19*
X265192000Y-159718000D03*
%TD*%
D20*
%TO.C,D26*%
X246192000Y-152098000D03*
D19*
X246192000Y-159718000D03*
%TD*%
%TO.C,D30*%
X227192000Y-159718000D03*
D20*
X227192000Y-152098000D03*
%TD*%
%TO.C,D35*%
X208192000Y-152098000D03*
D19*
X208192000Y-159718000D03*
%TD*%
D20*
%TO.C,D39*%
X189192000Y-152098000D03*
D19*
X189192000Y-159718000D03*
%TD*%
D20*
%TO.C,D43*%
X170192000Y-152098000D03*
D19*
X170192000Y-159718000D03*
%TD*%
D20*
%TO.C,D48*%
X151192000Y-152098000D03*
D19*
X151192000Y-159718000D03*
%TD*%
%TO.C,D53*%
X132192000Y-159718000D03*
D20*
X132192000Y-152098000D03*
%TD*%
D19*
%TO.C,D58*%
X105918000Y-159718000D03*
D20*
X105918000Y-152098000D03*
%TD*%
%TO.C,D65*%
X79942000Y-152098000D03*
D19*
X79942000Y-159718000D03*
%TD*%
%TO.C,D70*%
X60942000Y-159718000D03*
D20*
X60942000Y-152098000D03*
%TD*%
%TO.C,D8*%
X343478000Y-171370000D03*
D19*
X343478000Y-178990000D03*
%TD*%
D20*
%TO.C,D13*%
X319728000Y-171370000D03*
D19*
X319728000Y-178990000D03*
%TD*%
D20*
%TO.C,D18*%
X295978000Y-171370000D03*
D19*
X295978000Y-178990000D03*
%TD*%
D20*
%TO.C,D44*%
X155942000Y-171370000D03*
D19*
X155942000Y-178990000D03*
%TD*%
D20*
%TO.C,D49*%
X136942000Y-171370000D03*
D19*
X136942000Y-178990000D03*
%TD*%
D20*
%TO.C,D54*%
X117942000Y-171370000D03*
D19*
X117942000Y-178990000D03*
%TD*%
%TO.C,D59*%
X98942000Y-178990000D03*
D20*
X98942000Y-171370000D03*
%TD*%
%TO.C,D71*%
X60942000Y-171370000D03*
D19*
X60942000Y-178990000D03*
%TD*%
D12*
%TO.C,SW21*%
X273386000Y-99328000D03*
X283546000Y-99328000D03*
D11*
X278466000Y-99328000D03*
D13*
X282276000Y-96788000D03*
X275926000Y-94248000D03*
%TD*%
%TO.C,SW25*%
X256926000Y-94248000D03*
X263276000Y-96788000D03*
D11*
X259466000Y-99328000D03*
D12*
X264546000Y-99328000D03*
X254386000Y-99328000D03*
%TD*%
%TO.C,SW38*%
X197386000Y-99328000D03*
X207546000Y-99328000D03*
D11*
X202466000Y-99328000D03*
D13*
X206276000Y-96788000D03*
X199926000Y-94248000D03*
%TD*%
%TO.C,SW43*%
X180926000Y-94248000D03*
X187276000Y-96788000D03*
D11*
X183466000Y-99328000D03*
D12*
X188546000Y-99328000D03*
X178386000Y-99328000D03*
%TD*%
D13*
%TO.C,SW48*%
X161926000Y-94248000D03*
X168276000Y-96788000D03*
D11*
X164466000Y-99328000D03*
D12*
X169546000Y-99328000D03*
X159386000Y-99328000D03*
%TD*%
%TO.C,SW53*%
X140386000Y-99328000D03*
X150546000Y-99328000D03*
D11*
X145466000Y-99328000D03*
D13*
X149276000Y-96788000D03*
X142926000Y-94248000D03*
%TD*%
D12*
%TO.C,SW58*%
X121386000Y-99328000D03*
X131546000Y-99328000D03*
D11*
X126466000Y-99328000D03*
D13*
X130276000Y-96788000D03*
X123926000Y-94248000D03*
%TD*%
D12*
%TO.C,SW65*%
X64386000Y-99328000D03*
X74546000Y-99328000D03*
D11*
X69466000Y-99328000D03*
D13*
X73276000Y-96788000D03*
X66926000Y-94248000D03*
%TD*%
D12*
%TO.C,SW8*%
X320886000Y-118328000D03*
X331046000Y-118328000D03*
D11*
X325966000Y-118328000D03*
D13*
X329776000Y-115788000D03*
X323426000Y-113248000D03*
%TD*%
D12*
%TO.C,SW13*%
X301886000Y-118328000D03*
X312046000Y-118328000D03*
D11*
X306966000Y-118328000D03*
D13*
X310776000Y-115788000D03*
X304426000Y-113248000D03*
%TD*%
D12*
%TO.C,SW18*%
X282886000Y-118328000D03*
X293046000Y-118328000D03*
D11*
X287966000Y-118328000D03*
D13*
X291776000Y-115788000D03*
X285426000Y-113248000D03*
%TD*%
D12*
%TO.C,SW22*%
X263886000Y-118328000D03*
X274046000Y-118328000D03*
D11*
X268966000Y-118328000D03*
D13*
X272776000Y-115788000D03*
X266426000Y-113248000D03*
%TD*%
%TO.C,SW31*%
X228426000Y-113248000D03*
X234776000Y-115788000D03*
D11*
X230966000Y-118328000D03*
D12*
X236046000Y-118328000D03*
X225886000Y-118328000D03*
%TD*%
%TO.C,SW35*%
X206886000Y-118328000D03*
X217046000Y-118328000D03*
D11*
X211966000Y-118328000D03*
D13*
X215776000Y-115788000D03*
X209426000Y-113248000D03*
%TD*%
%TO.C,SW39*%
X190426000Y-113248000D03*
X196776000Y-115788000D03*
D11*
X192966000Y-118328000D03*
D12*
X198046000Y-118328000D03*
X187886000Y-118328000D03*
%TD*%
%TO.C,SW44*%
X168886000Y-118328000D03*
X179046000Y-118328000D03*
D11*
X173966000Y-118328000D03*
D13*
X177776000Y-115788000D03*
X171426000Y-113248000D03*
%TD*%
%TO.C,SW49*%
X152426000Y-113248000D03*
X158776000Y-115788000D03*
D11*
X154966000Y-118328000D03*
D12*
X160046000Y-118328000D03*
X149886000Y-118328000D03*
%TD*%
D13*
%TO.C,SW54*%
X133426000Y-113248000D03*
X139776000Y-115788000D03*
D11*
X135966000Y-118328000D03*
D12*
X141046000Y-118328000D03*
X130886000Y-118328000D03*
%TD*%
D13*
%TO.C,SW59*%
X114426000Y-113248000D03*
X120776000Y-115788000D03*
D11*
X116966000Y-118328000D03*
D12*
X122046000Y-118328000D03*
X111886000Y-118328000D03*
%TD*%
%TO.C,SW66*%
X64386000Y-118328000D03*
X74546000Y-118328000D03*
D11*
X69466000Y-118328000D03*
D13*
X73276000Y-115788000D03*
X66926000Y-113248000D03*
%TD*%
D12*
%TO.C,SW9*%
X316036000Y-137378000D03*
X326196000Y-137378000D03*
D11*
X321116000Y-137378000D03*
D13*
X324926000Y-134838000D03*
X318576000Y-132298000D03*
%TD*%
D12*
%TO.C,SW14*%
X297036000Y-137378000D03*
X307196000Y-137378000D03*
D11*
X302116000Y-137378000D03*
D13*
X305926000Y-134838000D03*
X299576000Y-132298000D03*
%TD*%
D12*
%TO.C,SW19*%
X278036000Y-137378000D03*
X288196000Y-137378000D03*
D11*
X283116000Y-137378000D03*
D13*
X286926000Y-134838000D03*
X280576000Y-132298000D03*
%TD*%
D12*
%TO.C,SW23*%
X259036000Y-137378000D03*
X269196000Y-137378000D03*
D11*
X264116000Y-137378000D03*
D13*
X267926000Y-134838000D03*
X261576000Y-132298000D03*
%TD*%
%TO.C,SW27*%
X242576000Y-132298000D03*
X248926000Y-134838000D03*
D11*
X245116000Y-137378000D03*
D12*
X250196000Y-137378000D03*
X240036000Y-137378000D03*
%TD*%
D13*
%TO.C,SW32*%
X223576000Y-132298000D03*
X229926000Y-134838000D03*
D11*
X226116000Y-137378000D03*
D12*
X231196000Y-137378000D03*
X221036000Y-137378000D03*
%TD*%
D13*
%TO.C,SW36*%
X204576000Y-132298000D03*
X210926000Y-134838000D03*
D11*
X207116000Y-137378000D03*
D12*
X212196000Y-137378000D03*
X202036000Y-137378000D03*
%TD*%
D13*
%TO.C,SW40*%
X185576000Y-132298000D03*
X191926000Y-134838000D03*
D11*
X188116000Y-137378000D03*
D12*
X193196000Y-137378000D03*
X183036000Y-137378000D03*
%TD*%
D13*
%TO.C,SW45*%
X166576000Y-132298000D03*
X172926000Y-134838000D03*
D11*
X169116000Y-137378000D03*
D12*
X174196000Y-137378000D03*
X164036000Y-137378000D03*
%TD*%
D13*
%TO.C,SW55*%
X128576000Y-132298000D03*
X134926000Y-134838000D03*
D11*
X131116000Y-137378000D03*
D12*
X136196000Y-137378000D03*
X126036000Y-137378000D03*
%TD*%
%TO.C,SW67*%
X64386000Y-137328000D03*
X74546000Y-137328000D03*
D11*
X69466000Y-137328000D03*
D13*
X73276000Y-134788000D03*
X66926000Y-132248000D03*
%TD*%
%TO.C,SW10*%
X309201000Y-151248000D03*
X315551000Y-153788000D03*
D11*
X311741000Y-156328000D03*
D12*
X316821000Y-156328000D03*
X306661000Y-156328000D03*
%TD*%
D13*
%TO.C,SW15*%
X290201000Y-151248000D03*
X296551000Y-153788000D03*
D11*
X292741000Y-156328000D03*
D12*
X297821000Y-156328000D03*
X287661000Y-156328000D03*
%TD*%
D13*
%TO.C,SW28*%
X233201000Y-151248000D03*
X239551000Y-153788000D03*
D11*
X235741000Y-156328000D03*
D12*
X240821000Y-156328000D03*
X230661000Y-156328000D03*
%TD*%
D13*
%TO.C,SW46*%
X157201000Y-151248000D03*
X163551000Y-153788000D03*
D11*
X159741000Y-156328000D03*
D12*
X164821000Y-156328000D03*
X154661000Y-156328000D03*
%TD*%
D13*
%TO.C,SW51*%
X138201000Y-151248000D03*
X144551000Y-153788000D03*
D11*
X140741000Y-156328000D03*
D12*
X145821000Y-156328000D03*
X135661000Y-156328000D03*
%TD*%
D13*
%TO.C,SW68*%
X66926000Y-151248000D03*
X73276000Y-153788000D03*
D11*
X69466000Y-156328000D03*
D12*
X74546000Y-156328000D03*
X64386000Y-156328000D03*
%TD*%
D13*
%TO.C,SW42*%
X162001000Y-170298000D03*
X168351000Y-172838000D03*
D11*
X164541000Y-175378000D03*
D12*
X169621000Y-175378000D03*
X159461000Y-175378000D03*
%TD*%
%TO.C,SW64*%
X83361000Y-175378000D03*
X93521000Y-175378000D03*
D11*
X88441000Y-175378000D03*
D13*
X92251000Y-172838000D03*
X85901000Y-170298000D03*
%TD*%
D12*
%TO.C,SW69*%
X64361000Y-175378000D03*
X74521000Y-175378000D03*
D11*
X69441000Y-175378000D03*
D13*
X73251000Y-172838000D03*
X66901000Y-170298000D03*
%TD*%
D21*
%TO.C,TP5*%
X212226000Y-126478000D03*
%TD*%
%TO.C,TP6*%
X270376000Y-170928000D03*
%TD*%
%TO.C,TP7*%
X254376000Y-169428000D03*
%TD*%
%TO.C,TP8*%
X251876000Y-168678000D03*
%TD*%
%TO.C,TP9*%
X256376000Y-171178000D03*
%TD*%
%TO.C,TP12*%
X222876000Y-107428000D03*
%TD*%
%TO.C,TP1*%
X190626000Y-90428000D03*
%TD*%
%TO.C,TP4*%
X186926000Y-175778000D03*
%TD*%
M02*
