M48
; DRILL file {KiCad (5.1.4)-1} date 5/19/2021 6:10:57 PM
; FORMAT={-:-/ absolute / inch / decimal}
; #@! TF.CreationDate,2021-05-19T18:10:57-04:00
; #@! TF.GenerationSoftware,Kicad,Pcbnew,(5.1.4)-1
; #@! TF.FileFunction,Plated,1,2,PTH
FMAT,2
INCH
T1C0.0098
T2C0.0120
T3C0.0157
T4C0.0180
T5C0.0197
T6C0.0236
T7C0.0300
T8C0.0315
T9C0.0354
T10C0.0394
T11C0.0591
%
G90
G05
T1
X3.3809Y-6.7787
X3.4695Y-6.572
X3.4695Y-6.6704
X3.4991Y-6.572
X3.4991Y-6.6704
X4.129Y-6.7787
X4.2372Y-6.572
X4.2372Y-6.6704
X4.503Y-4.5346
X4.877Y-6.7787
X5.0345Y-6.4046
X5.0345Y-6.572
X5.0345Y-6.6704
X5.064Y-5.2924
X5.2609Y-4.5641
X5.4479Y-4.3771
X5.6152Y-6.8377
X6.3928Y-6.8082
X7.4853Y-6.0897
X7.5443Y-4.2491
X7.6526Y-3.8357
X7.8642Y-5.4155
X8.0256Y-6.4686
X8.0561Y-4.6133
X8.0719Y-4.1704
X8.1536Y-6.4686
X8.2333Y-6.0995
X8.2924Y-4.2688
X8.3908Y-3.8259
X8.6172Y-5.3515
X8.6546Y-6.4318
X8.7491Y-6.6901
X8.7943Y-4.6035
X9.1329Y-6.7865
X9.1585Y-7.0483
X9.2491Y-6.8082
X9.3192Y-7.1121
X9.3192Y-7.2145
X9.4302Y-6.6704
X9.438Y-6.6448
X9.442Y-6.694
X9.8396Y-6.6192
X9.8514Y-6.6586
X9.8593Y-6.698
X9.9065Y-7.2117
X10.0994Y-7.2176
X10.2605Y-5.3086
X10.2924Y-6.5602
X10.3239Y-7.2058
X10.3711Y-7.1901
X10.4735Y-4.5483
X10.6012Y-7.2273
X10.6502Y-6.0566
X10.6981Y-7.2273
X10.7254Y-7.2255
X11.0384Y-5.2826
X11.1857Y-4.5606
X12.1703Y-6.0306
X12.4243Y-6.5306
X12.5345Y-5.2826
X12.7215Y-4.5346
T2
X8.0404Y-6.4302
X8.0404Y-6.509
X8.1388Y-6.4381
X8.1546Y-6.5011
X10.2018Y-7.005
X10.2412Y-6.8279
X10.379Y-7.0444
X10.4183Y-6.9165
X10.8603Y-6.7501
X10.8603Y-7.1832
X11.2215Y-6.8554
T3
X3.066Y-5.2432
X3.066Y-5.3417
X3.0758Y-4.505
X3.0758Y-4.6035
X3.2136Y-4.505
X3.2136Y-4.6035
X3.2136Y-5.2432
X3.2136Y-5.3417
X6.7766Y-6.5818
X6.7865Y-6.4735
X6.9439Y-7.1231
X6.9833Y-7.1231
X7.0227Y-7.1231
X7.0325Y-7.0346
X7.0916Y-7.0346
X7.1506Y-7.0346
X7.2786Y-5.9322
X7.2884Y-6.3653
X7.2884Y-6.4342
X7.3081Y-5.8535
X7.3475Y-6.5818
X7.3967Y-6.631
X7.4361Y-3.9735
X7.4853Y-3.7767
X7.4853Y-3.8456
X7.4853Y-3.9342
X7.4853Y-4.0031
X7.5345Y-4.1999
X7.5345Y-6.5562
X7.5542Y-6.4834
X7.5876Y-5.9165
X7.5935Y-4.259
X7.6132Y-3.9637
X7.6231Y-6.4342
X7.6624Y-5.2728
X7.6624Y-5.3417
X7.8494Y-4.5247
X7.8494Y-4.5936
X7.8593Y-7.1231
X7.9085Y-7.1231
X7.9479Y-7.0543
X7.9735Y-7.0838
X8.1004Y-6.9893
X8.1428Y-6.9893
X8.1624Y-7.0641
X8.1782Y-7.0287
X8.1861Y-6.9893
X8.2235Y-3.9735
X8.2845Y-7.1231
X8.3239Y-7.1231
X8.3435Y-5.7255
X8.3514Y-3.9735
X8.3632Y-7.1231
X8.3711Y-5.7649
X8.4026Y-7.1231
X8.4105Y-5.6861
X8.44Y-6.6015
X8.442Y-7.1231
X8.4813Y-7.1231
X8.4991Y-6.4735
X8.5089Y-6.4046
X8.5089Y-6.6015
X8.5089Y-6.7098
X8.5207Y-7.1231
X8.5286Y-5.6861
X8.5286Y-5.7649
X8.5483Y-6.4046
X8.5601Y-7.1231
X8.5876Y-6.4046
X8.5994Y-7.1231
X8.6565Y-6.4735
X8.6565Y-6.6015
X8.6743Y-6.7098
X9.5758Y-6.6113
X9.6703Y-6.7058
X10.5276Y-7.193
X10.5985Y-7.1419
X8.2144Y-3.4726
X8.2146Y-3.5247
X8.2479Y-3.4726
X8.2481Y-3.5247
X8.2813Y-3.4726
X8.2815Y-3.5247
X8.3148Y-3.4726
X8.315Y-3.5247
X8.3483Y-3.4726
X8.3485Y-3.5247
X8.3817Y-3.4726
X8.3819Y-3.5247
X8.4152Y-3.4726
X8.4154Y-3.5247
X8.4489Y-3.4726
X8.4489Y-3.5247
T4
X7.5935Y-7.0602
X7.6034Y-6.7039
X7.6034Y-6.7531
X7.6191Y-6.9066
X7.6191Y-6.9499
X7.6191Y-6.9932
X7.7018Y-7.0247
X7.7117Y-7.0739
X7.751Y-7.0247
X7.8002Y-7.0247
X8.1979Y-6.7019
T5
X6.9827Y-6.8344
X6.9827Y-6.9092
T7
X8.0069Y-6.8968
T8
X12.5877Y-6.7469
X12.5877Y-7.0469
X8.9446Y-5.9881
X8.9446Y-6.2881
X6.1394Y-6.7469
X6.1394Y-7.0469
X8.7574Y-4.4981
X8.7574Y-4.7981
X10.8146Y-5.2411
X10.8146Y-5.5411
X3.8954Y-6.7469
X3.8954Y-7.0469
X11.0015Y-4.4981
X11.0015Y-4.7981
X5.5784Y-5.2411
X5.5784Y-5.5411
X10.4406Y-5.9881
X10.4406Y-6.2881
X13.43Y-4.4981
X13.43Y-4.7981
X6.1394Y-3.7481
X6.1394Y-4.0481
X11.6527Y-6.7469
X11.6527Y-7.0469
X7.8225Y-5.2411
X7.8225Y-5.5411
X11.7495Y-4.4981
X11.7495Y-4.7981
X10.6276Y-3.7481
X10.6276Y-4.0481
X11.5601Y-5.2365
X11.5601Y-5.5365
X6.5133Y-4.4981
X6.5133Y-4.7981
X9.3186Y-5.3035
X9.3186Y-5.6035
X3.61Y-5.2411
X3.61Y-5.5411
X9.5054Y-4.4981
X9.5054Y-4.7981
X3.1473Y-5.9881
X3.1473Y-6.2881
X5.2044Y-5.9881
X5.2044Y-6.2881
X4.8304Y-5.2411
X4.8304Y-5.5411
X7.6355Y-3.7481
X7.6355Y-4.0481
X7.4485Y-5.9881
X7.4485Y-6.2881
X5.3914Y-6.7469
X5.3914Y-7.0469
X2.4Y-3.7481
X2.4Y-4.0481
X9.1316Y-3.7481
X9.1316Y-4.0481
X8.5706Y-5.2411
X8.5706Y-5.5411
X2.3993Y-6.7469
X2.3993Y-7.0469
X8.0094Y-4.4981
X8.0094Y-4.7981
X13.5228Y-6.7469
X13.5228Y-7.0469
X6.3265Y-5.2411
X6.3265Y-5.5411
X14.0109Y-5.2411
X14.0109Y-5.5411
X5.3914Y-3.7481
X5.3914Y-4.0481
X3.1473Y-6.7469
X3.1473Y-7.0469
X12.3107Y-5.2411
X12.3107Y-5.5411
X10.2535Y-4.4981
X10.2535Y-4.7981
X8.3835Y-3.7481
X8.3835Y-4.0481
X9.8796Y-3.7481
X9.8796Y-4.0481
X8.1965Y-5.9881
X8.1965Y-6.2881
X4.6434Y-3.7481
X4.6434Y-4.0481
X9.6926Y-5.9881
X9.6926Y-6.2881
X13.6245Y-3.7481
X13.6245Y-4.0481
X4.2692Y-4.4981
X4.2692Y-4.7981
X2.3993Y-5.2411
X2.3993Y-5.5411
X2.3993Y-5.9881
X2.3993Y-6.2881
X12.8717Y-3.7481
X12.8717Y-4.0481
X13.15Y-5.9881
X13.15Y-6.2881
X5.0172Y-4.4981
X5.0172Y-4.7981
X6.7005Y-5.9881
X6.7005Y-6.2881
X4.6434Y-6.7469
X4.6434Y-7.0469
X12.5Y-4.4981
X12.5Y-4.7981
X7.0745Y-5.1035
X7.0745Y-5.4035
X11.9367Y-5.9881
X11.9367Y-6.2881
X7.2613Y-4.4981
X7.2613Y-4.7981
X12.1237Y-3.7481
X12.1237Y-4.0481
X3.33Y-4.4981
X3.33Y-4.7981
X8.8435Y-6.7543
X8.8435Y-7.0543
X10.0666Y-5.2411
X10.0666Y-5.5411
X3.52Y-3.7481
X3.52Y-4.0481
X11.3757Y-3.7481
X11.3757Y-4.0481
X11.1887Y-5.9881
X11.1887Y-6.2881
X6.8875Y-3.7481
X6.8875Y-4.0481
X5.9524Y-5.9881
X5.9524Y-6.2881
X5.7653Y-4.4981
X5.7653Y-4.7981
X4.17Y-5.9881
X4.17Y-6.2881
X2.3991Y-4.4981
X2.3991Y-4.7981
T9
X9.2057Y-5.1271
X9.2557Y-5.1271
X9.3057Y-5.1271
X9.3557Y-5.1271
X3.0266Y-4.2885
X3.0766Y-4.2885
X3.1266Y-4.2885
X3.1766Y-4.2885
X3.0266Y-5.4106
X3.0766Y-5.4106
X3.1266Y-5.4106
X3.1766Y-5.4106
X6.9813Y-4.2806
X7.0313Y-4.2806
X7.0813Y-4.2806
X7.1313Y-4.2806
X13.2333Y-6.5326
X13.2833Y-6.5326
X13.3333Y-6.5326
X13.3833Y-6.5326
X5.1664Y-6.5208
X5.2164Y-6.5208
X5.2664Y-6.5208
X5.3164Y-6.5208
X3.0266Y-6.5326
X3.0766Y-6.5326
X3.1266Y-6.5326
X3.1766Y-6.5326
X6.9813Y-5.5838
X7.0313Y-5.5838
X7.0813Y-5.5838
X7.1313Y-5.5838
X13.2294Y-5.4027
X13.2794Y-5.4027
X13.3294Y-5.4027
X13.3794Y-5.4027
X13.2333Y-4.2885
X13.2833Y-4.2885
X13.3333Y-4.2885
X13.3833Y-4.2885
X6.9813Y-6.5247
X7.0313Y-6.5247
X7.0813Y-6.5247
X7.1313Y-6.5247
X11.2333Y-4.2846
X11.2833Y-4.2846
X11.3333Y-4.2846
X11.3833Y-4.2846
X11.2333Y-6.5247
X11.2833Y-6.5247
X11.3333Y-6.5247
X11.3833Y-6.5247
X9.2057Y-4.2846
X9.2557Y-4.2846
X9.3057Y-4.2846
X9.3557Y-4.2846
X5.1664Y-5.131
X5.2164Y-5.131
X5.2664Y-5.131
X5.3164Y-5.131
X9.2057Y-6.3791
X9.2557Y-6.3791
X9.3057Y-6.3791
X9.3557Y-6.3791
X5.1664Y-4.2846
X5.2164Y-4.2846
X5.2664Y-4.2846
X5.3164Y-4.2846
X11.2333Y-5.5838
X11.2833Y-5.5838
X11.3333Y-5.5838
X11.3833Y-5.5838
T10
X10.0935Y-6.7393
X10.1329Y-7.1527
X8.7746Y-4.2294
X9.9065Y-6.82
X9.9164Y-6.6409
X9.7707Y-7.072
X8.6762Y-4.2294
X7.3593Y-6.9204
X7.505Y-3.5602
X9.9774Y-6.8889
X10.6447Y-6.7294
X8.3554Y-4.9794
X10.0148Y-6.6704
T11
X5.062Y-5.2086
X5.312Y-5.3086
X3.3829Y-5.9546
X3.6329Y-6.0546
X12.1733Y-5.9546
X12.4233Y-6.0546
X10.1152Y-3.7106
X10.3652Y-3.8106
X4.13Y-6.7046
X4.38Y-6.8046
X6.189Y-5.9546
X6.439Y-6.0546
X11.2372Y-4.4586
X11.4872Y-4.5586
X2.6339Y-6.7046
X2.8839Y-6.8046
X4.505Y-4.4586
X4.755Y-4.5586
X12.5424Y-5.2086
X12.7924Y-5.3086
X5.627Y-3.7106
X5.877Y-3.8106
X7.4971Y-4.4586
X7.7471Y-4.5586
X12.3593Y-3.7106
X12.6093Y-3.8106
X7.3061Y-5.2086
X7.5561Y-5.3086
X7.6851Y-5.9546
X7.9351Y-6.0546
X8.9931Y-4.4586
X9.2431Y-4.5586
X13.3869Y-5.9556
X13.6369Y-6.0556
X7.8711Y-3.7106
X8.1211Y-3.8106
X4.4077Y-5.9531
X4.6577Y-6.0531
X6.7491Y-4.4586
X6.9991Y-4.5586
X12.8229Y-6.7056
X13.0729Y-6.8056
X10.6772Y-5.9546
X10.9272Y-6.0546
X2.6349Y-4.4586
X2.8849Y-4.5586
X9.7412Y-4.4586
X9.9912Y-4.5586
X9.1811Y-5.9546
X9.4311Y-6.0546
X9.9292Y-5.9546
X10.1792Y-6.0546
X9.0857Y-6.7019
X9.3357Y-6.8019
X6.937Y-5.9546
X7.187Y-6.0546
X9.5502Y-5.2086
X9.8002Y-5.3086
X5.628Y-6.7046
X5.878Y-6.8046
X10.8632Y-3.7106
X11.1132Y-3.8106
X12.7333Y-4.4586
X12.9833Y-4.5586
X3.3819Y-6.7046
X3.6319Y-6.8046
X6.5581Y-5.2086
X6.8081Y-5.3086
X13.8554Y-3.7106
X14.1054Y-3.8106
X8.8022Y-5.2086
X9.0522Y-5.3086
X5.8101Y-5.2086
X6.0601Y-5.3086
X8.0542Y-5.2086
X8.3042Y-5.3086
X5.253Y-4.4586
X5.503Y-4.5586
X13.6683Y-4.4586
X13.9183Y-4.5586
X3.8475Y-5.2082
X4.0975Y-5.3082
X10.2983Y-5.2086
X10.5483Y-5.3086
X13.7609Y-6.7056
X14.0109Y-6.8056
X7.1231Y-3.7106
X7.3731Y-3.8106
X11.0463Y-5.2086
X11.2963Y-5.3086
X4.878Y-6.7046
X5.128Y-6.8046
X3.5699Y-4.4586
X3.8199Y-4.5586
X11.4252Y-5.9546
X11.6752Y-6.0546
X11.6113Y-3.7106
X11.8613Y-3.8106
X2.6349Y-5.2066
X2.8849Y-5.3066
X2.6349Y-3.7106
X2.8849Y-3.8106
X9.3672Y-3.7106
X9.6172Y-3.8106
X2.6349Y-5.9546
X2.8849Y-6.0546
X6.378Y-6.7046
X6.628Y-6.8046
X11.9853Y-4.4586
X12.2353Y-4.5586
X6.001Y-4.4586
X6.251Y-4.5586
X6.375Y-3.7106
X6.625Y-3.8106
X13.1073Y-3.7106
X13.3573Y-3.8106
X8.6191Y-3.7106
X8.8691Y-3.8106
X11.7943Y-5.2086
X12.0443Y-5.3086
X10.4892Y-4.4586
X10.7392Y-4.5586
X5.441Y-5.9546
X5.691Y-6.0546
X3.7569Y-3.7106
X4.0069Y-3.8106
X13.5739Y-5.2086
X13.8239Y-5.3086
X11.8849Y-6.7056
X12.1349Y-6.8056
X8.2451Y-4.4586
X8.4951Y-4.5586
X8.4331Y-5.9546
X8.6831Y-6.0546
X4.879Y-3.7106
X5.129Y-3.8106
T6
G00X8.1615Y-3.3688
M15
G01X8.1615Y-3.3373
M16
G05
G00X8.1615Y-3.5157
M15
G01X8.1615Y-3.4566
M16
G05
G00X8.502Y-3.3688
M15
G01X8.502Y-3.3373
M16
G05
G00X8.502Y-3.5157
M15
G01X8.502Y-3.4566
M16
G05
T0
M30
