M48
; DRILL file {KiCad (5.1.4)-1} date 5/16/2021 9:03:24 PM
; FORMAT={-:-/ absolute / inch / decimal}
; #@! TF.CreationDate,2021-05-16T21:03:24-04:00
; #@! TF.GenerationSoftware,Kicad,Pcbnew,(5.1.4)-1
; #@! TF.FileFunction,NonPlated,1,2,NPTH
FMAT,2
INCH
T1C0.0669
T2C0.1120
T3C0.1201
T4C0.1575
%
G90
G05
T1
X8.9857Y-6.9019
X9.3857Y-6.9019
X8.1451Y-4.6586
X8.5451Y-4.6586
X4.03Y-6.9046
X4.43Y-6.9046
X8.7022Y-5.4086
X9.1022Y-5.4086
X3.2829Y-6.1546
X3.6829Y-6.1546
X4.3077Y-6.1531
X4.7077Y-6.1531
X6.6491Y-4.6586
X7.0491Y-4.6586
X7.5851Y-6.1546
X7.9851Y-6.1546
X13.5683Y-4.6586
X13.9683Y-4.6586
X8.8931Y-4.6586
X9.2931Y-4.6586
X6.837Y-6.1546
X7.237Y-6.1546
X13.7554Y-3.9106
X14.1554Y-3.9106
X10.7632Y-3.9106
X11.1632Y-3.9106
X12.7229Y-6.9056
X13.1229Y-6.9056
X2.5349Y-5.4066
X2.9349Y-5.4066
X6.089Y-6.1546
X6.489Y-6.1546
X12.6333Y-4.6586
X13.0333Y-4.6586
X3.2819Y-6.9046
X3.6819Y-6.9046
X10.0152Y-3.9106
X10.4152Y-3.9106
X2.5339Y-6.9046
X2.9339Y-6.9046
X4.779Y-3.9106
X5.179Y-3.9106
X12.4424Y-5.4086
X12.8424Y-5.4086
X7.9542Y-5.4086
X8.3542Y-5.4086
X11.7849Y-6.9056
X12.1849Y-6.9056
X5.528Y-6.9046
X5.928Y-6.9046
X11.6943Y-5.4086
X12.0943Y-5.4086
X3.6569Y-3.9106
X4.0569Y-3.9106
X10.5772Y-6.1546
X10.9772Y-6.1546
X4.405Y-4.6586
X4.805Y-4.6586
X11.5113Y-3.9106
X11.9113Y-3.9106
X2.5349Y-3.9106
X2.9349Y-3.9106
X11.3252Y-6.1546
X11.7252Y-6.1546
X13.4739Y-5.4086
X13.8739Y-5.4086
X8.3331Y-6.1546
X8.7331Y-6.1546
X5.901Y-4.6586
X6.301Y-4.6586
X12.2593Y-3.9106
X12.6593Y-3.9106
X9.8292Y-6.1546
X10.2292Y-6.1546
X7.3971Y-4.6586
X7.7971Y-4.6586
X13.0073Y-3.9106
X13.4073Y-3.9106
X5.341Y-6.1546
X5.741Y-6.1546
X11.8853Y-4.6586
X12.2853Y-4.6586
X10.3892Y-4.6586
X10.7892Y-4.6586
X7.7711Y-3.9106
X8.1711Y-3.9106
X9.0811Y-6.1546
X9.4811Y-6.1546
X10.1983Y-5.4086
X10.5983Y-5.4086
X9.2672Y-3.9106
X9.6672Y-3.9106
X9.4502Y-5.4086
X9.8502Y-5.4086
X9.6412Y-4.6586
X10.0412Y-4.6586
X5.7101Y-5.4086
X6.1101Y-5.4086
X3.4699Y-4.6586
X3.8699Y-4.6586
X12.0733Y-6.1546
X12.4733Y-6.1546
X6.278Y-6.9046
X6.678Y-6.9046
X13.6609Y-6.9056
X14.0609Y-6.9056
X7.2061Y-5.4086
X7.6061Y-5.4086
X7.0231Y-3.9106
X7.4231Y-3.9106
X6.4581Y-5.4086
X6.8581Y-5.4086
X13.2869Y-6.1556
X13.6869Y-6.1556
X2.5349Y-4.6586
X2.9349Y-4.6586
X11.1372Y-4.6586
X11.5372Y-4.6586
X5.527Y-3.9106
X5.927Y-3.9106
X10.9463Y-5.4086
X11.3463Y-5.4086
X2.5349Y-6.1546
X2.9349Y-6.1546
X8.5191Y-3.9106
X8.9191Y-3.9106
X6.275Y-3.9106
X6.675Y-3.9106
X4.778Y-6.9046
X5.178Y-6.9046
X5.153Y-4.6586
X5.553Y-4.6586
X4.962Y-5.4086
X5.362Y-5.4086
X3.7475Y-5.4082
X4.1475Y-5.4082
T2
X10.9636Y-5.0109
X8.9164Y-5.8082
X4.1132Y-5.0109
X4.9892Y-5.8082
X12.6565Y-5.8082
X7.2235Y-5.0109
T3
X13.0183Y-5.88
X13.9554Y-5.88
X3.479Y-5.1326
X4.416Y-5.1326
X7.2172Y-6.6263
X11.1542Y-6.6263
X3.3884Y-3.635
X4.3254Y-3.635
T4
X5.541Y-6.1546
X12.0853Y-4.6586
X10.5892Y-4.6586
X7.9711Y-3.9106
X9.2811Y-6.1546
X10.3983Y-5.4086
X9.4672Y-3.9106
X9.6502Y-5.4086
X9.8412Y-4.6586
X5.9101Y-5.4086
X3.6699Y-4.6586
X12.2733Y-6.1546
X6.478Y-6.9046
X13.8609Y-6.9056
X7.4061Y-5.4086
X7.2231Y-3.9106
X6.6581Y-5.4086
X13.0183Y-6.48
X13.4869Y-6.1556
X13.9554Y-6.48
X2.7349Y-4.6586
X11.3372Y-4.6586
X5.727Y-3.9106
X11.1463Y-5.4086
X2.7349Y-6.1546
X8.7191Y-3.9106
X6.475Y-3.9106
X4.978Y-6.9046
X5.353Y-4.6586
X5.162Y-5.4086
X3.479Y-5.7326
X3.9475Y-5.4082
X4.416Y-5.7326
X7.2172Y-7.2263
X9.1857Y-6.9019
X11.1542Y-7.2263
X8.3451Y-4.6586
X4.23Y-6.9046
X8.9022Y-5.4086
X3.4829Y-6.1546
X4.5077Y-6.1531
X6.8491Y-4.6586
X7.7851Y-6.1546
X13.7683Y-4.6586
X9.0931Y-4.6586
X7.037Y-6.1546
X13.9554Y-3.9106
X10.9632Y-3.9106
X12.9229Y-6.9056
X2.7349Y-5.4066
X6.289Y-6.1546
X12.8333Y-4.6586
X3.4819Y-6.9046
X10.2152Y-3.9106
X2.7339Y-6.9046
X4.979Y-3.9106
X12.6424Y-5.4086
X8.1542Y-5.4086
X11.9849Y-6.9056
X5.728Y-6.9046
X11.8943Y-5.4086
X3.3884Y-4.235
X3.8569Y-3.9106
X4.3254Y-4.235
X10.7772Y-6.1546
X4.605Y-4.6586
X11.7113Y-3.9106
X2.7349Y-3.9106
X11.5252Y-6.1546
X13.6739Y-5.4086
X8.5331Y-6.1546
X6.101Y-4.6586
X12.4593Y-3.9106
X10.0292Y-6.1546
X7.5971Y-4.6586
X13.2073Y-3.9106
T0
M30
