M48
; DRILL file {KiCad (5.1.6)-1} date 11/12/20 22:46:57
; FORMAT={-:-/ absolute / inch / decimal}
; #@! TF.CreationDate,2020-11-12T22:46:57-05:00
; #@! TF.GenerationSoftware,Kicad,Pcbnew,(5.1.6)-1
; #@! TF.FileFunction,Plated,1,2,PTH
FMAT,2
INCH
T1C0.0120
T2C0.0157
T3C0.0180
T4C0.0236
T5C0.0240
T6C0.0315
T7C0.0394
T8C0.0591
%
G90
G05
T1
X3.06Y-6.0181
X3.06Y-6.0881
X3.0907Y-6.7688
X3.0907Y-6.8388
X3.24Y-4.5181
X3.24Y-4.5981
X3.487Y-5.2611
X3.487Y-5.3611
X3.8387Y-6.7769
X3.8387Y-6.8469
X4.08Y-6.0981
X4.2034Y-4.5282
X4.2034Y-4.5982
X4.5868Y-6.8469
X4.8546Y-6.0531
X5.1478Y-6.0182
X5.1478Y-6.0882
X5.3348Y-6.8469
X5.5234Y-5.3382
X5.7087Y-4.5282
X5.7087Y-4.5982
X5.8934Y-6.0182
X5.8934Y-6.0882
X6.0828Y-6.8469
X6.2634Y-5.3382
X6.4567Y-4.5282
X6.4567Y-4.5982
X6.6439Y-6.0882
X7.2034Y-4.5282
X7.3217Y-6.9398
X7.3254Y-6.8648
X7.3265Y-6.7898
X7.3919Y-6.0882
X7.4494Y-6.0566
X7.5246Y-6.5917
X7.5246Y-6.7196
X7.5321Y-6.668
X7.6463Y-3.8125
X7.7175Y-7.0995
X7.7175Y-7.2019
X7.7609Y-6.7688
X7.7659Y-5.2712
X7.7659Y-5.3412
X7.8199Y-7.0838
X7.8199Y-7.2255
X7.8235Y-5.3086
X7.8593Y-7.0838
X7.8593Y-7.2255
X7.9183Y-7.0838
X7.9183Y-7.2255
X7.9534Y-4.5282
X7.9577Y-7.0838
X7.9577Y-7.2255
X7.9971Y-6.5523
X8.0168Y-7.0838
X8.0203Y-4.5606
X8.0365Y-6.5129
X8.0758Y-6.5424
X8.0837Y-7.2846
X8.1152Y-7.3082
X8.1399Y-6.0882
X8.1467Y-7.3318
X8.1743Y-6.9263
X8.1821Y-7.1546
X8.1955Y-6.0546
X8.2038Y-7.2019
X8.2215Y-6.757
X8.2412Y-7.2334
X8.253Y-6.5129
X8.2825Y-6.5424
X8.2845Y-6.9735
X8.3317Y-6.5917
X8.3451Y-3.8106
X8.3746Y-5.3086
X8.3947Y-6.8043
X8.4105Y-6.4834
X8.4105Y-6.572
X8.4479Y-6.4834
X8.4479Y-6.572
X8.4853Y-6.572
X8.5134Y-5.2682
X8.5134Y-5.3382
X8.5207Y-6.572
X8.5715Y-5.3086
X8.627Y-6.3554
X8.627Y-6.444
X8.6664Y-6.6507
X8.7008Y-4.5982
X8.7435Y-4.5586
X9.0896Y-7.0346
X9.0896Y-7.1035
X9.1782Y-4.2787
X9.3061Y-7.005
X9.3061Y-7.0641
X9.4735Y-6.3751
X9.5046Y-6.2881
X9.6309Y-6.5523
X9.6309Y-6.7176
X9.6408Y-6.3751
X9.6955Y-6.0546
X9.8833Y-3.8125
X9.9065Y-7.133
X9.9695Y-4.6468
X10.005Y-6.6428
X10.0404Y-6.6546
X10.0404Y-7.2531
X10.0605Y-5.3086
X10.064Y-6.6783
X10.0876Y-6.7019
X10.0955Y-7.1035
X10.0955Y-7.2531
X10.2428Y-6.2881
X10.2573Y-4.5606
X10.3002Y-7.1192
X10.3002Y-7.2531
X10.3002Y-7.3082
X10.3593Y-7.3102
X10.6309Y-6.5838
X10.6309Y-6.6153
X10.6309Y-6.6468
X10.6309Y-6.6783
X10.6939Y-7.0838
X10.753Y-6.9952
X10.7825Y-5.7649
X10.9434Y-4.5282
X10.9434Y-4.5982
X11.2943Y-7.0247
X11.5061Y-5.2712
X11.5061Y-5.3412
X11.6487Y-4.5247
X11.6487Y-4.5976
X11.6929Y-4.5282
X11.6929Y-4.5982
X11.8801Y-6.0182
X11.8801Y-6.0882
X12.2541Y-5.3412
X12.4434Y-4.5282
X12.4434Y-4.5982
X12.5Y-6.8481
X12.6806Y-6.2881
X13.3734Y-4.5182
X13.3734Y-4.5882
X13.44Y-6.7581
X13.44Y-6.8481
T2
X7.5246Y-6.9854
X7.815Y-6.9312
X9.0844Y-3.5887
X9.7076Y-7.1506
X10.3298Y-6.9165
X8.2144Y-3.4726
X8.2146Y-3.5247
X8.2479Y-3.4726
X8.2481Y-3.5247
X8.2813Y-3.4726
X8.2815Y-3.5247
X8.3148Y-3.4726
X8.315Y-3.5247
X8.3483Y-3.4726
X8.3485Y-3.5247
X8.3817Y-3.4726
X8.3819Y-3.5247
X8.4152Y-3.4726
X8.4154Y-3.5247
X8.4489Y-3.4726
X8.4489Y-3.5247
T3
X7.1526Y-6.444
X7.6329Y-6.7885
T5
X7.4262Y-5.7255
X7.4754Y-5.6763
X7.5246Y-5.6271
X7.6723Y-5.7255
X7.7215Y-5.6763
X7.7609Y-5.6271
X8.3022Y-5.7452
X8.3317Y-5.6271
X8.3322Y-5.6857
X8.5286Y-5.0562
X8.5581Y-5.6271
X8.5581Y-5.7452
X8.5586Y-5.6857
X8.5778Y-4.9283
X8.5778Y-4.9873
X8.7156Y-4.9283
X8.7156Y-4.9873
X8.7156Y-5.0562
X9.7786Y-5.7157
X9.8278Y-5.6763
X9.8475Y-5.6172
X9.9065Y-5.0759
X9.9557Y-5.0169
X9.9951Y-5.7944
X10.0148Y-4.9578
X10.0443Y-5.7354
X10.0542Y-5.6732
X10.1821Y-5.0759
X10.2313Y-4.9578
X10.2313Y-5.0169
T6
X10.6276Y-3.7481
X10.6276Y-4.0481
X2.3993Y-6.7469
X2.3993Y-7.0469
X8.0094Y-4.4981
X8.0094Y-4.7981
X11.7495Y-4.4981
X11.7495Y-4.7981
X6.3265Y-5.2411
X6.3265Y-5.5411
X5.3914Y-3.7481
X5.3914Y-4.0481
X11.1887Y-5.9881
X11.1887Y-6.2881
X12.3107Y-5.2411
X12.3107Y-5.5411
X13.5228Y-6.7469
X13.5228Y-7.0469
X2.3991Y-4.4981
X2.3991Y-4.7981
X3.8954Y-6.7469
X3.8954Y-7.0469
X11.3757Y-3.7481
X11.3757Y-4.0481
X5.3914Y-6.7469
X5.3914Y-7.0469
X9.3186Y-5.2411
X9.3186Y-5.5411
X6.1394Y-3.7481
X6.1394Y-4.0481
X6.8875Y-3.7481
X6.8875Y-4.0481
X4.2692Y-4.4981
X4.2692Y-4.7981
X9.1316Y-3.7481
X9.1316Y-4.0481
X13.15Y-5.9881
X13.15Y-6.2881
X7.2613Y-4.4981
X7.2613Y-4.7981
X2.3993Y-5.9881
X2.3993Y-6.2881
X3.1473Y-6.7469
X3.1473Y-7.0469
X6.1394Y-6.7469
X6.1394Y-7.0469
X11.6527Y-6.7469
X11.6527Y-7.0469
X12.8717Y-3.7481
X12.8717Y-4.0481
X8.7574Y-4.4981
X8.7574Y-4.7981
X2.4Y-3.7481
X2.4Y-4.0481
X7.0745Y-5.2411
X7.0745Y-5.5411
X2.3993Y-5.2411
X2.3993Y-5.5411
X11.5627Y-5.2411
X11.5627Y-5.5411
X3.1473Y-5.9881
X3.1473Y-6.2881
X12.1237Y-3.7481
X12.1237Y-4.0481
X9.5054Y-4.4981
X9.5054Y-4.7981
X13.43Y-4.4981
X13.43Y-4.7981
X8.1965Y-5.9881
X8.1965Y-6.2881
X7.8225Y-5.2411
X7.8225Y-5.5411
X9.6926Y-5.9881
X9.6926Y-6.2881
X13.34Y-5.2411
X13.34Y-5.5411
X5.2044Y-5.9881
X5.2044Y-6.2881
X8.8534Y-6.4066
X8.8534Y-6.7066
X13.6245Y-3.7481
X13.6245Y-4.0481
X8.3835Y-3.7481
X8.3835Y-4.0481
X5.7653Y-4.4981
X5.7653Y-4.7981
X12.5Y-4.4981
X12.5Y-4.7981
X8.9446Y-5.9881
X8.9446Y-6.2881
X8.5706Y-5.2411
X8.5706Y-5.5411
X7.4485Y-5.9881
X7.4485Y-6.2881
X3.33Y-4.4981
X3.33Y-4.7981
X4.17Y-5.9881
X4.17Y-6.2881
X9.8796Y-3.7481
X9.8796Y-4.0481
X10.2535Y-4.4981
X10.2535Y-4.7981
X4.8304Y-5.2411
X4.8304Y-5.5411
X3.52Y-3.7481
X3.52Y-4.0481
X11.9367Y-5.9881
X11.9367Y-6.2881
X10.0666Y-5.2411
X10.0666Y-5.5411
X10.4406Y-5.9881
X10.4406Y-6.2881
X5.0172Y-4.4981
X5.0172Y-4.7981
X6.7005Y-5.9881
X6.7005Y-6.2881
X4.6434Y-6.7469
X4.6434Y-7.0469
X7.6355Y-3.7481
X7.6355Y-4.0481
X11.0015Y-4.4981
X11.0015Y-4.7981
X5.5784Y-5.2411
X5.5784Y-5.5411
X4.6434Y-3.7481
X4.6434Y-4.0481
X3.61Y-5.2411
X3.61Y-5.5411
X10.8146Y-5.2411
X10.8146Y-5.5411
X12.5877Y-6.7469
X12.5877Y-7.0469
X6.5133Y-4.4981
X6.5133Y-4.7981
X5.9524Y-5.9881
X5.9524Y-6.2881
T7
X8.6762Y-4.2294
X8.3514Y-6.4539
X10.0561Y-7.0405
X9.562Y-7.0739
X9.9695Y-7.198
X9.8278Y-7.2058
X7.8888Y-6.8968
X10.7235Y-7.2905
X9.4931Y-3.5792
X9.5931Y-3.5792
X9.6931Y-3.5792
X9.7931Y-3.5792
X9.8931Y-3.5792
X9.9931Y-3.5792
X8.7746Y-4.2294
X10.4807Y-6.8447
X10.5857Y-7.1527
X10.6546Y-7.2216
X6.8455Y-6.8082
X6.8455Y-6.9165
X9.2077Y-7.2019
X7.6624Y-7.0641
T8
X12.3593Y-3.7106
X12.6093Y-3.8106
X4.878Y-6.7046
X5.128Y-6.8046
X8.8022Y-5.2086
X9.0522Y-5.3086
X2.6349Y-3.7106
X2.8849Y-3.8106
X5.441Y-5.9546
X5.691Y-6.0546
X13.5739Y-5.2086
X13.8239Y-5.3086
X8.4331Y-5.9546
X8.6831Y-6.0546
X6.375Y-3.7106
X6.625Y-3.8106
X5.253Y-4.4586
X5.503Y-4.5586
X2.6349Y-5.9546
X2.8849Y-6.0546
X5.627Y-3.7106
X5.877Y-3.8106
X7.6851Y-5.9546
X7.9351Y-6.0546
X2.6349Y-4.4586
X2.8849Y-4.5586
X6.189Y-5.9546
X6.439Y-6.0546
X12.5424Y-5.2086
X12.7924Y-5.3086
X10.2983Y-5.2086
X10.5483Y-5.3086
X3.8475Y-5.2082
X4.0975Y-5.3082
X11.2372Y-4.4586
X11.4872Y-4.5586
X6.937Y-5.9546
X7.187Y-6.0546
X13.1073Y-3.7106
X13.3573Y-3.8106
X6.001Y-4.4586
X6.251Y-4.5586
X4.505Y-4.4586
X4.755Y-4.5586
X3.5699Y-4.4586
X3.8199Y-4.5586
X9.1811Y-5.9546
X9.4311Y-6.0546
X5.628Y-6.7046
X5.878Y-6.8046
X9.5502Y-5.2086
X9.8002Y-5.3086
X7.1231Y-3.7106
X7.3731Y-3.8106
X9.0837Y-6.7058
X9.3337Y-6.8058
X8.2451Y-4.4586
X8.4951Y-4.5586
X11.0463Y-5.2086
X11.2963Y-5.3086
X6.5581Y-5.2086
X6.8081Y-5.3086
X9.9292Y-5.9546
X10.1792Y-6.0546
X10.4892Y-4.4586
X10.7392Y-4.5586
X8.6191Y-3.7106
X8.8691Y-3.8106
X7.8711Y-3.7106
X8.1211Y-3.8106
X10.1152Y-3.7106
X10.3652Y-3.8106
X10.8632Y-3.7106
X11.1132Y-3.8106
X5.8101Y-5.2086
X6.0601Y-5.3086
X3.7569Y-3.7106
X4.0069Y-3.8106
X4.4077Y-5.9531
X4.6577Y-6.0531
X8.9931Y-4.4586
X9.2431Y-4.5586
X7.3061Y-5.2086
X7.5561Y-5.3086
X10.6772Y-5.9546
X10.9272Y-6.0546
X13.8554Y-3.7106
X14.1054Y-3.8106
X12.1733Y-5.9546
X12.4233Y-6.0546
X9.3672Y-3.7106
X9.6172Y-3.8106
X9.7412Y-4.4586
X9.9912Y-4.5586
X2.6349Y-5.2066
X2.8849Y-5.3066
X11.9853Y-4.4586
X12.2353Y-4.5586
X11.7943Y-5.2086
X12.0443Y-5.3086
X13.7609Y-6.7056
X14.0109Y-6.8056
X8.0542Y-5.2086
X8.3042Y-5.3086
X6.378Y-6.7046
X6.628Y-6.8046
X11.4252Y-5.9546
X11.6752Y-6.0546
X2.6339Y-6.7046
X2.8839Y-6.8046
X13.6683Y-4.4586
X13.9183Y-4.5586
X11.6113Y-3.7106
X11.8613Y-3.8106
X4.13Y-6.7046
X4.38Y-6.8046
X11.8849Y-6.7056
X12.1349Y-6.8056
X5.062Y-5.2086
X5.312Y-5.3086
X6.7491Y-4.4586
X6.9991Y-4.5586
X4.879Y-3.7106
X5.129Y-3.8106
X12.8229Y-6.7056
X13.0729Y-6.8056
X7.4971Y-4.4586
X7.7471Y-4.5586
X3.3829Y-5.9546
X3.6329Y-6.0546
X12.7333Y-4.4586
X12.9833Y-4.5586
X3.3819Y-6.7046
X3.6319Y-6.8046
X13.3869Y-5.9556
X13.6369Y-6.0556
T4
G00X8.1615Y-3.3688
M15
G01X8.1615Y-3.3373
M16
G05
G00X8.1615Y-3.5157
M15
G01X8.1615Y-3.4566
M16
G05
G00X8.502Y-3.3688
M15
G01X8.502Y-3.3373
M16
G05
G00X8.502Y-3.5157
M15
G01X8.502Y-3.4566
M16
G05
T0
M30
