%TF.GenerationSoftware,KiCad,Pcbnew,(5.1.6)-1*%
%TF.CreationDate,2021-08-29T18:58:36-04:00*%
%TF.ProjectId,QAZ_65,51415a5f-3635-42e6-9b69-6361645f7063,v1.2*%
%TF.SameCoordinates,Original*%
%TF.FileFunction,Soldermask,Top*%
%TF.FilePolarity,Negative*%
%FSLAX46Y46*%
G04 Gerber Fmt 4.6, Leading zero omitted, Abs format (unit mm)*
G04 Created by KiCad (PCBNEW (5.1.6)-1) date 2021-08-29 18:58:36*
%MOMM*%
%LPD*%
G01*
G04 APERTURE LIST*
%ADD10O,1.200000X1.200000*%
%ADD11R,1.200000X1.200000*%
%ADD12C,3.044800*%
%ADD13C,2.400000*%
%ADD14C,4.200000*%
%ADD15C,1.900000*%
%ADD16R,1.200000X0.700000*%
%ADD17R,1.200000X0.600000*%
%ADD18C,3.250000*%
%ADD19C,0.850000*%
%ADD20O,1.100000X2.600000*%
%ADD21O,1.100000X1.900000*%
%ADD22R,1.800000X1.800000*%
%ADD23O,1.800000X1.800000*%
%ADD24C,2.200000*%
%ADD25C,1.724000*%
%ADD26R,1.200000X2.700000*%
%ADD27R,4.800000X3.500000*%
%ADD28R,1.260000X0.850000*%
%ADD29R,2.800000X3.100000*%
G04 APERTURE END LIST*
D10*
%TO.C,JP3*%
X266856000Y-166828000D03*
D11*
X268126000Y-166828000D03*
%TD*%
D10*
%TO.C,JP2*%
X182756000Y-174328000D03*
D11*
X184026000Y-174328000D03*
%TD*%
%TO.C,JP1*%
X184026000Y-171228000D03*
D10*
X182756000Y-171228000D03*
%TD*%
D12*
%TO.C,H1*%
X104476000Y-127278000D03*
%TD*%
%TO.C,H6*%
X323476000Y-148528000D03*
%TD*%
%TO.C,H5*%
X183476000Y-127278000D03*
%TD*%
%TO.C,H4*%
X278476000Y-127278000D03*
%TD*%
%TO.C,H3*%
X126226000Y-148528000D03*
%TD*%
%TO.C,H2*%
X226476000Y-147528000D03*
%TD*%
D13*
%TO.C,SW63*%
X85926000Y-151248000D03*
X92276000Y-153788000D03*
D14*
X88466000Y-156328000D03*
D15*
X93546000Y-156328000D03*
X83386000Y-156328000D03*
%TD*%
D16*
%TO.C,D89*%
X340276000Y-109178000D03*
X338476000Y-109178000D03*
D17*
X340276000Y-109903000D03*
X338476000Y-109903000D03*
X340276000Y-108453000D03*
X338476000Y-108453000D03*
%TD*%
D16*
%TO.C,D88*%
X290026000Y-109178000D03*
X288226000Y-109178000D03*
D17*
X290026000Y-109903000D03*
X288226000Y-109903000D03*
X290026000Y-108453000D03*
X288226000Y-108453000D03*
%TD*%
D16*
%TO.C,D87*%
X236776000Y-109178000D03*
X234976000Y-109178000D03*
D17*
X236776000Y-109903000D03*
X234976000Y-109903000D03*
X236776000Y-108453000D03*
X234976000Y-108453000D03*
%TD*%
D16*
%TO.C,D86*%
X179776000Y-109178000D03*
X177976000Y-109178000D03*
D17*
X179776000Y-109903000D03*
X177976000Y-109903000D03*
X179776000Y-108453000D03*
X177976000Y-108453000D03*
%TD*%
D16*
%TO.C,D85*%
X134276000Y-109178000D03*
X132476000Y-109178000D03*
D17*
X134276000Y-109903000D03*
X132476000Y-109903000D03*
X134276000Y-108453000D03*
X132476000Y-108453000D03*
%TD*%
D16*
%TO.C,D84*%
X79776000Y-109178000D03*
X77976000Y-109178000D03*
D17*
X79776000Y-109903000D03*
X77976000Y-109903000D03*
X79776000Y-108453000D03*
X77976000Y-108453000D03*
%TD*%
D16*
%TO.C,D83*%
X340276000Y-137428000D03*
X338476000Y-137428000D03*
D17*
X340276000Y-138153000D03*
X338476000Y-138153000D03*
X340276000Y-136703000D03*
X338476000Y-136703000D03*
%TD*%
D16*
%TO.C,D82*%
X290026000Y-142178000D03*
X288226000Y-142178000D03*
D17*
X290026000Y-142903000D03*
X288226000Y-142903000D03*
X290026000Y-141453000D03*
X288226000Y-141453000D03*
%TD*%
D16*
%TO.C,D81*%
X236776000Y-130428000D03*
X234976000Y-130428000D03*
D17*
X236776000Y-131153000D03*
X234976000Y-131153000D03*
X236776000Y-129703000D03*
X234976000Y-129703000D03*
%TD*%
D16*
%TO.C,D80*%
X179776000Y-142178000D03*
X177976000Y-142178000D03*
D17*
X179776000Y-142903000D03*
X177976000Y-142903000D03*
X179776000Y-141453000D03*
X177976000Y-141453000D03*
%TD*%
%TO.C,D79*%
X132476000Y-129703000D03*
X134276000Y-129703000D03*
X132476000Y-131153000D03*
X134276000Y-131153000D03*
D16*
X132476000Y-130428000D03*
X134276000Y-130428000D03*
%TD*%
%TO.C,D78*%
X79776000Y-137428000D03*
X77976000Y-137428000D03*
D17*
X79776000Y-138153000D03*
X77976000Y-138153000D03*
X79776000Y-136703000D03*
X77976000Y-136703000D03*
%TD*%
D16*
%TO.C,D77*%
X340276000Y-165428000D03*
X338476000Y-165428000D03*
D17*
X340276000Y-166153000D03*
X338476000Y-166153000D03*
X340276000Y-164703000D03*
X338476000Y-164703000D03*
%TD*%
D16*
%TO.C,D76*%
X290026000Y-165428000D03*
X288226000Y-165428000D03*
D17*
X290026000Y-166153000D03*
X288226000Y-166153000D03*
X290026000Y-164703000D03*
X288226000Y-164703000D03*
%TD*%
D16*
%TO.C,D75*%
X236776000Y-162928000D03*
X234976000Y-162928000D03*
D17*
X236776000Y-163653000D03*
X234976000Y-163653000D03*
X236776000Y-162203000D03*
X234976000Y-162203000D03*
%TD*%
D16*
%TO.C,D74*%
X179776000Y-162928000D03*
X177976000Y-162928000D03*
D17*
X179776000Y-163653000D03*
X177976000Y-163653000D03*
X179776000Y-162203000D03*
X177976000Y-162203000D03*
%TD*%
D16*
%TO.C,D73*%
X134276000Y-165428000D03*
X132476000Y-165428000D03*
D17*
X134276000Y-166153000D03*
X132476000Y-166153000D03*
X134276000Y-164703000D03*
X132476000Y-164703000D03*
%TD*%
D16*
%TO.C,D72*%
X79776000Y-165428000D03*
X77976000Y-165428000D03*
D17*
X79776000Y-166153000D03*
X77976000Y-166153000D03*
X79776000Y-164703000D03*
X77976000Y-164703000D03*
%TD*%
D18*
%TO.C,SW29*%
X183316000Y-168308000D03*
X283316000Y-168308000D03*
D14*
X283316000Y-183548000D03*
X183316000Y-183548000D03*
D15*
X228236000Y-175308000D03*
X238396000Y-175308000D03*
D14*
X233316000Y-175308000D03*
D13*
X237126000Y-172768000D03*
X230776000Y-170228000D03*
%TD*%
D15*
%TO.C,SW47*%
X140411000Y-175378000D03*
X150571000Y-175378000D03*
D14*
X145491000Y-175378000D03*
D13*
X149301000Y-172838000D03*
X142951000Y-170298000D03*
%TD*%
%TO.C,SW52*%
X123901000Y-170298000D03*
X130251000Y-172838000D03*
D14*
X126441000Y-175378000D03*
D15*
X131521000Y-175378000D03*
X121361000Y-175378000D03*
%TD*%
%TO.C,R16*%
G36*
G01*
X93876000Y-168465500D02*
X93876000Y-167890500D01*
G75*
G02*
X94163500Y-167603000I287500J0D01*
G01*
X94838500Y-167603000D01*
G75*
G02*
X95126000Y-167890500I0J-287500D01*
G01*
X95126000Y-168465500D01*
G75*
G02*
X94838500Y-168753000I-287500J0D01*
G01*
X94163500Y-168753000D01*
G75*
G02*
X93876000Y-168465500I0J287500D01*
G01*
G37*
G36*
G01*
X95626000Y-168465500D02*
X95626000Y-167890500D01*
G75*
G02*
X95913500Y-167603000I287500J0D01*
G01*
X96588500Y-167603000D01*
G75*
G02*
X96876000Y-167890500I0J-287500D01*
G01*
X96876000Y-168465500D01*
G75*
G02*
X96588500Y-168753000I-287500J0D01*
G01*
X95913500Y-168753000D01*
G75*
G02*
X95626000Y-168465500I0J287500D01*
G01*
G37*
%TD*%
%TO.C,SB9*%
G36*
G01*
X217626000Y-110315500D02*
X217626000Y-109740500D01*
G75*
G02*
X217913500Y-109453000I287500J0D01*
G01*
X218588500Y-109453000D01*
G75*
G02*
X218876000Y-109740500I0J-287500D01*
G01*
X218876000Y-110315500D01*
G75*
G02*
X218588500Y-110603000I-287500J0D01*
G01*
X217913500Y-110603000D01*
G75*
G02*
X217626000Y-110315500I0J287500D01*
G01*
G37*
G36*
G01*
X219376000Y-110315500D02*
X219376000Y-109740500D01*
G75*
G02*
X219663500Y-109453000I287500J0D01*
G01*
X220338500Y-109453000D01*
G75*
G02*
X220626000Y-109740500I0J-287500D01*
G01*
X220626000Y-110315500D01*
G75*
G02*
X220338500Y-110603000I-287500J0D01*
G01*
X219663500Y-110603000D01*
G75*
G02*
X219376000Y-110315500I0J287500D01*
G01*
G37*
%TD*%
%TO.C,SB8*%
G36*
G01*
X215126000Y-108615500D02*
X215126000Y-108040500D01*
G75*
G02*
X215413500Y-107753000I287500J0D01*
G01*
X216088500Y-107753000D01*
G75*
G02*
X216376000Y-108040500I0J-287500D01*
G01*
X216376000Y-108615500D01*
G75*
G02*
X216088500Y-108903000I-287500J0D01*
G01*
X215413500Y-108903000D01*
G75*
G02*
X215126000Y-108615500I0J287500D01*
G01*
G37*
G36*
G01*
X216876000Y-108615500D02*
X216876000Y-108040500D01*
G75*
G02*
X217163500Y-107753000I287500J0D01*
G01*
X217838500Y-107753000D01*
G75*
G02*
X218126000Y-108040500I0J-287500D01*
G01*
X218126000Y-108615500D01*
G75*
G02*
X217838500Y-108903000I-287500J0D01*
G01*
X217163500Y-108903000D01*
G75*
G02*
X216876000Y-108615500I0J287500D01*
G01*
G37*
%TD*%
%TO.C,SW20*%
X268661000Y-156328000D03*
X278821000Y-156328000D03*
D14*
X273741000Y-156328000D03*
D13*
X277551000Y-153788000D03*
X271201000Y-151248000D03*
%TD*%
%TO.C,R9*%
G36*
G01*
X215726000Y-90940500D02*
X215726000Y-91515500D01*
G75*
G02*
X215438500Y-91803000I-287500J0D01*
G01*
X214763500Y-91803000D01*
G75*
G02*
X214476000Y-91515500I0J287500D01*
G01*
X214476000Y-90940500D01*
G75*
G02*
X214763500Y-90653000I287500J0D01*
G01*
X215438500Y-90653000D01*
G75*
G02*
X215726000Y-90940500I0J-287500D01*
G01*
G37*
G36*
G01*
X213976000Y-90940500D02*
X213976000Y-91515500D01*
G75*
G02*
X213688500Y-91803000I-287500J0D01*
G01*
X213013500Y-91803000D01*
G75*
G02*
X212726000Y-91515500I0J287500D01*
G01*
X212726000Y-90940500D01*
G75*
G02*
X213013500Y-90653000I287500J0D01*
G01*
X213688500Y-90653000D01*
G75*
G02*
X213976000Y-90940500I0J-287500D01*
G01*
G37*
%TD*%
D19*
%TO.C,CN1*%
X212901000Y-89528000D03*
X214601000Y-89528000D03*
X213751000Y-89528000D03*
X212051000Y-89528000D03*
X211201000Y-89528000D03*
X210351000Y-89528000D03*
X209501000Y-89528000D03*
X208651000Y-89528000D03*
X214601000Y-88203000D03*
X213746000Y-88203000D03*
X212896000Y-88203000D03*
X212046000Y-88203000D03*
X211196000Y-88203000D03*
X210346000Y-88203000D03*
X209496000Y-88203000D03*
X208646000Y-88203000D03*
D20*
X215951000Y-88548000D03*
X207301000Y-88548000D03*
D21*
X215951000Y-85168000D03*
X207301000Y-85168000D03*
%TD*%
D22*
%TO.C,D27*%
X250942000Y-102822000D03*
D23*
X250942000Y-95202000D03*
%TD*%
D24*
%TO.C,TP15*%
X257376000Y-181678000D03*
%TD*%
%TO.C,TP14*%
X248176000Y-179628000D03*
%TD*%
%TO.C,TP11*%
X253426000Y-174978000D03*
%TD*%
%TO.C,R3*%
G36*
G01*
X252501000Y-183465500D02*
X252501000Y-182890500D01*
G75*
G02*
X252788500Y-182603000I287500J0D01*
G01*
X253463500Y-182603000D01*
G75*
G02*
X253751000Y-182890500I0J-287500D01*
G01*
X253751000Y-183465500D01*
G75*
G02*
X253463500Y-183753000I-287500J0D01*
G01*
X252788500Y-183753000D01*
G75*
G02*
X252501000Y-183465500I0J287500D01*
G01*
G37*
G36*
G01*
X254251000Y-183465500D02*
X254251000Y-182890500D01*
G75*
G02*
X254538500Y-182603000I287500J0D01*
G01*
X255213500Y-182603000D01*
G75*
G02*
X255501000Y-182890500I0J-287500D01*
G01*
X255501000Y-183465500D01*
G75*
G02*
X255213500Y-183753000I-287500J0D01*
G01*
X254538500Y-183753000D01*
G75*
G02*
X254251000Y-183465500I0J287500D01*
G01*
G37*
%TD*%
%TO.C,R2*%
G36*
G01*
X250488500Y-178278000D02*
X251063500Y-178278000D01*
G75*
G02*
X251351000Y-178565500I0J-287500D01*
G01*
X251351000Y-179240500D01*
G75*
G02*
X251063500Y-179528000I-287500J0D01*
G01*
X250488500Y-179528000D01*
G75*
G02*
X250201000Y-179240500I0J287500D01*
G01*
X250201000Y-178565500D01*
G75*
G02*
X250488500Y-178278000I287500J0D01*
G01*
G37*
G36*
G01*
X250488500Y-180028000D02*
X251063500Y-180028000D01*
G75*
G02*
X251351000Y-180315500I0J-287500D01*
G01*
X251351000Y-180990500D01*
G75*
G02*
X251063500Y-181278000I-287500J0D01*
G01*
X250488500Y-181278000D01*
G75*
G02*
X250201000Y-180990500I0J287500D01*
G01*
X250201000Y-180315500D01*
G75*
G02*
X250488500Y-180028000I287500J0D01*
G01*
G37*
%TD*%
%TO.C,R5*%
G36*
G01*
X262126000Y-168965500D02*
X262126000Y-168390500D01*
G75*
G02*
X262413500Y-168103000I287500J0D01*
G01*
X263088500Y-168103000D01*
G75*
G02*
X263376000Y-168390500I0J-287500D01*
G01*
X263376000Y-168965500D01*
G75*
G02*
X263088500Y-169253000I-287500J0D01*
G01*
X262413500Y-169253000D01*
G75*
G02*
X262126000Y-168965500I0J287500D01*
G01*
G37*
G36*
G01*
X263876000Y-168965500D02*
X263876000Y-168390500D01*
G75*
G02*
X264163500Y-168103000I287500J0D01*
G01*
X264838500Y-168103000D01*
G75*
G02*
X265126000Y-168390500I0J-287500D01*
G01*
X265126000Y-168965500D01*
G75*
G02*
X264838500Y-169253000I-287500J0D01*
G01*
X264163500Y-169253000D01*
G75*
G02*
X263876000Y-168965500I0J287500D01*
G01*
G37*
%TD*%
%TO.C,D3*%
G36*
G01*
X265126000Y-166740500D02*
X265126000Y-167315500D01*
G75*
G02*
X264838500Y-167603000I-287500J0D01*
G01*
X264163500Y-167603000D01*
G75*
G02*
X263876000Y-167315500I0J287500D01*
G01*
X263876000Y-166740500D01*
G75*
G02*
X264163500Y-166453000I287500J0D01*
G01*
X264838500Y-166453000D01*
G75*
G02*
X265126000Y-166740500I0J-287500D01*
G01*
G37*
G36*
G01*
X263376000Y-166740500D02*
X263376000Y-167315500D01*
G75*
G02*
X263088500Y-167603000I-287500J0D01*
G01*
X262413500Y-167603000D01*
G75*
G02*
X262126000Y-167315500I0J287500D01*
G01*
X262126000Y-166740500D01*
G75*
G02*
X262413500Y-166453000I287500J0D01*
G01*
X263088500Y-166453000D01*
G75*
G02*
X263376000Y-166740500I0J-287500D01*
G01*
G37*
%TD*%
%TO.C,U3*%
G36*
G01*
X204076000Y-173628000D02*
X203876000Y-173628000D01*
G75*
G02*
X203776000Y-173528000I0J100000D01*
G01*
X203776000Y-172128000D01*
G75*
G02*
X203876000Y-172028000I100000J0D01*
G01*
X204076000Y-172028000D01*
G75*
G02*
X204176000Y-172128000I0J-100000D01*
G01*
X204176000Y-173528000D01*
G75*
G02*
X204076000Y-173628000I-100000J0D01*
G01*
G37*
G36*
G01*
X206426000Y-176778000D02*
X205026000Y-176778000D01*
G75*
G02*
X204926000Y-176678000I0J100000D01*
G01*
X204926000Y-176478000D01*
G75*
G02*
X205026000Y-176378000I100000J0D01*
G01*
X206426000Y-176378000D01*
G75*
G02*
X206526000Y-176478000I0J-100000D01*
G01*
X206526000Y-176678000D01*
G75*
G02*
X206426000Y-176778000I-100000J0D01*
G01*
G37*
G36*
G01*
X204076000Y-178328000D02*
X203876000Y-178328000D01*
G75*
G02*
X203776000Y-178228000I0J100000D01*
G01*
X203776000Y-176828000D01*
G75*
G02*
X203876000Y-176728000I100000J0D01*
G01*
X204076000Y-176728000D01*
G75*
G02*
X204176000Y-176828000I0J-100000D01*
G01*
X204176000Y-178228000D01*
G75*
G02*
X204076000Y-178328000I-100000J0D01*
G01*
G37*
G36*
G01*
X204618001Y-176678000D02*
X202133999Y-176678000D01*
G75*
G02*
X201876000Y-176420001I0J257999D01*
G01*
X201876000Y-173935999D01*
G75*
G02*
X202133999Y-173678000I257999J0D01*
G01*
X204618001Y-173678000D01*
G75*
G02*
X204876000Y-173935999I0J-257999D01*
G01*
X204876000Y-176420001D01*
G75*
G02*
X204618001Y-176678000I-257999J0D01*
G01*
G37*
G36*
G01*
X203276000Y-173628000D02*
X203076000Y-173628000D01*
G75*
G02*
X202976000Y-173528000I0J100000D01*
G01*
X202976000Y-172128000D01*
G75*
G02*
X203076000Y-172028000I100000J0D01*
G01*
X203276000Y-172028000D01*
G75*
G02*
X203376000Y-172128000I0J-100000D01*
G01*
X203376000Y-173528000D01*
G75*
G02*
X203276000Y-173628000I-100000J0D01*
G01*
G37*
G36*
G01*
X206426000Y-174378000D02*
X205026000Y-174378000D01*
G75*
G02*
X204926000Y-174278000I0J100000D01*
G01*
X204926000Y-174078000D01*
G75*
G02*
X205026000Y-173978000I100000J0D01*
G01*
X206426000Y-173978000D01*
G75*
G02*
X206526000Y-174078000I0J-100000D01*
G01*
X206526000Y-174278000D01*
G75*
G02*
X206426000Y-174378000I-100000J0D01*
G01*
G37*
G36*
G01*
X202476000Y-178328000D02*
X202276000Y-178328000D01*
G75*
G02*
X202176000Y-178228000I0J100000D01*
G01*
X202176000Y-176828000D01*
G75*
G02*
X202276000Y-176728000I100000J0D01*
G01*
X202476000Y-176728000D01*
G75*
G02*
X202576000Y-176828000I0J-100000D01*
G01*
X202576000Y-178228000D01*
G75*
G02*
X202476000Y-178328000I-100000J0D01*
G01*
G37*
G36*
G01*
X206426000Y-174778000D02*
X205026000Y-174778000D01*
G75*
G02*
X204926000Y-174678000I0J100000D01*
G01*
X204926000Y-174478000D01*
G75*
G02*
X205026000Y-174378000I100000J0D01*
G01*
X206426000Y-174378000D01*
G75*
G02*
X206526000Y-174478000I0J-100000D01*
G01*
X206526000Y-174678000D01*
G75*
G02*
X206426000Y-174778000I-100000J0D01*
G01*
G37*
G36*
G01*
X202076000Y-178328000D02*
X201876000Y-178328000D01*
G75*
G02*
X201776000Y-178228000I0J100000D01*
G01*
X201776000Y-176828000D01*
G75*
G02*
X201876000Y-176728000I100000J0D01*
G01*
X202076000Y-176728000D01*
G75*
G02*
X202176000Y-176828000I0J-100000D01*
G01*
X202176000Y-178228000D01*
G75*
G02*
X202076000Y-178328000I-100000J0D01*
G01*
G37*
G36*
G01*
X204476000Y-173628000D02*
X204276000Y-173628000D01*
G75*
G02*
X204176000Y-173528000I0J100000D01*
G01*
X204176000Y-172128000D01*
G75*
G02*
X204276000Y-172028000I100000J0D01*
G01*
X204476000Y-172028000D01*
G75*
G02*
X204576000Y-172128000I0J-100000D01*
G01*
X204576000Y-173528000D01*
G75*
G02*
X204476000Y-173628000I-100000J0D01*
G01*
G37*
G36*
G01*
X203676000Y-178328000D02*
X203476000Y-178328000D01*
G75*
G02*
X203376000Y-178228000I0J100000D01*
G01*
X203376000Y-176828000D01*
G75*
G02*
X203476000Y-176728000I100000J0D01*
G01*
X203676000Y-176728000D01*
G75*
G02*
X203776000Y-176828000I0J-100000D01*
G01*
X203776000Y-178228000D01*
G75*
G02*
X203676000Y-178328000I-100000J0D01*
G01*
G37*
G36*
G01*
X201726000Y-176378000D02*
X200326000Y-176378000D01*
G75*
G02*
X200226000Y-176278000I0J100000D01*
G01*
X200226000Y-176078000D01*
G75*
G02*
X200326000Y-175978000I100000J0D01*
G01*
X201726000Y-175978000D01*
G75*
G02*
X201826000Y-176078000I0J-100000D01*
G01*
X201826000Y-176278000D01*
G75*
G02*
X201726000Y-176378000I-100000J0D01*
G01*
G37*
G36*
G01*
X201726000Y-175178000D02*
X200326000Y-175178000D01*
G75*
G02*
X200226000Y-175078000I0J100000D01*
G01*
X200226000Y-174878000D01*
G75*
G02*
X200326000Y-174778000I100000J0D01*
G01*
X201726000Y-174778000D01*
G75*
G02*
X201826000Y-174878000I0J-100000D01*
G01*
X201826000Y-175078000D01*
G75*
G02*
X201726000Y-175178000I-100000J0D01*
G01*
G37*
G36*
G01*
X201726000Y-174778000D02*
X200326000Y-174778000D01*
G75*
G02*
X200226000Y-174678000I0J100000D01*
G01*
X200226000Y-174478000D01*
G75*
G02*
X200326000Y-174378000I100000J0D01*
G01*
X201726000Y-174378000D01*
G75*
G02*
X201826000Y-174478000I0J-100000D01*
G01*
X201826000Y-174678000D01*
G75*
G02*
X201726000Y-174778000I-100000J0D01*
G01*
G37*
G36*
G01*
X206426000Y-173978000D02*
X205026000Y-173978000D01*
G75*
G02*
X204926000Y-173878000I0J100000D01*
G01*
X204926000Y-173678000D01*
G75*
G02*
X205026000Y-173578000I100000J0D01*
G01*
X206426000Y-173578000D01*
G75*
G02*
X206526000Y-173678000I0J-100000D01*
G01*
X206526000Y-173878000D01*
G75*
G02*
X206426000Y-173978000I-100000J0D01*
G01*
G37*
G36*
G01*
X202876000Y-178328000D02*
X202676000Y-178328000D01*
G75*
G02*
X202576000Y-178228000I0J100000D01*
G01*
X202576000Y-176828000D01*
G75*
G02*
X202676000Y-176728000I100000J0D01*
G01*
X202876000Y-176728000D01*
G75*
G02*
X202976000Y-176828000I0J-100000D01*
G01*
X202976000Y-178228000D01*
G75*
G02*
X202876000Y-178328000I-100000J0D01*
G01*
G37*
G36*
G01*
X206426000Y-176378000D02*
X205026000Y-176378000D01*
G75*
G02*
X204926000Y-176278000I0J100000D01*
G01*
X204926000Y-176078000D01*
G75*
G02*
X205026000Y-175978000I100000J0D01*
G01*
X206426000Y-175978000D01*
G75*
G02*
X206526000Y-176078000I0J-100000D01*
G01*
X206526000Y-176278000D01*
G75*
G02*
X206426000Y-176378000I-100000J0D01*
G01*
G37*
G36*
G01*
X204876000Y-178328000D02*
X204676000Y-178328000D01*
G75*
G02*
X204576000Y-178228000I0J100000D01*
G01*
X204576000Y-176828000D01*
G75*
G02*
X204676000Y-176728000I100000J0D01*
G01*
X204876000Y-176728000D01*
G75*
G02*
X204976000Y-176828000I0J-100000D01*
G01*
X204976000Y-178228000D01*
G75*
G02*
X204876000Y-178328000I-100000J0D01*
G01*
G37*
G36*
G01*
X201726000Y-176778000D02*
X200326000Y-176778000D01*
G75*
G02*
X200226000Y-176678000I0J100000D01*
G01*
X200226000Y-176478000D01*
G75*
G02*
X200326000Y-176378000I100000J0D01*
G01*
X201726000Y-176378000D01*
G75*
G02*
X201826000Y-176478000I0J-100000D01*
G01*
X201826000Y-176678000D01*
G75*
G02*
X201726000Y-176778000I-100000J0D01*
G01*
G37*
G36*
G01*
X201726000Y-173978000D02*
X200326000Y-173978000D01*
G75*
G02*
X200226000Y-173878000I0J100000D01*
G01*
X200226000Y-173678000D01*
G75*
G02*
X200326000Y-173578000I100000J0D01*
G01*
X201726000Y-173578000D01*
G75*
G02*
X201826000Y-173678000I0J-100000D01*
G01*
X201826000Y-173878000D01*
G75*
G02*
X201726000Y-173978000I-100000J0D01*
G01*
G37*
G36*
G01*
X202076000Y-173628000D02*
X201876000Y-173628000D01*
G75*
G02*
X201776000Y-173528000I0J100000D01*
G01*
X201776000Y-172128000D01*
G75*
G02*
X201876000Y-172028000I100000J0D01*
G01*
X202076000Y-172028000D01*
G75*
G02*
X202176000Y-172128000I0J-100000D01*
G01*
X202176000Y-173528000D01*
G75*
G02*
X202076000Y-173628000I-100000J0D01*
G01*
G37*
G36*
G01*
X202476000Y-173628000D02*
X202276000Y-173628000D01*
G75*
G02*
X202176000Y-173528000I0J100000D01*
G01*
X202176000Y-172128000D01*
G75*
G02*
X202276000Y-172028000I100000J0D01*
G01*
X202476000Y-172028000D01*
G75*
G02*
X202576000Y-172128000I0J-100000D01*
G01*
X202576000Y-173528000D01*
G75*
G02*
X202476000Y-173628000I-100000J0D01*
G01*
G37*
G36*
G01*
X206426000Y-175578000D02*
X205026000Y-175578000D01*
G75*
G02*
X204926000Y-175478000I0J100000D01*
G01*
X204926000Y-175278000D01*
G75*
G02*
X205026000Y-175178000I100000J0D01*
G01*
X206426000Y-175178000D01*
G75*
G02*
X206526000Y-175278000I0J-100000D01*
G01*
X206526000Y-175478000D01*
G75*
G02*
X206426000Y-175578000I-100000J0D01*
G01*
G37*
G36*
G01*
X203676000Y-173628000D02*
X203476000Y-173628000D01*
G75*
G02*
X203376000Y-173528000I0J100000D01*
G01*
X203376000Y-172128000D01*
G75*
G02*
X203476000Y-172028000I100000J0D01*
G01*
X203676000Y-172028000D01*
G75*
G02*
X203776000Y-172128000I0J-100000D01*
G01*
X203776000Y-173528000D01*
G75*
G02*
X203676000Y-173628000I-100000J0D01*
G01*
G37*
G36*
G01*
X204876000Y-173628000D02*
X204676000Y-173628000D01*
G75*
G02*
X204576000Y-173528000I0J100000D01*
G01*
X204576000Y-172128000D01*
G75*
G02*
X204676000Y-172028000I100000J0D01*
G01*
X204876000Y-172028000D01*
G75*
G02*
X204976000Y-172128000I0J-100000D01*
G01*
X204976000Y-173528000D01*
G75*
G02*
X204876000Y-173628000I-100000J0D01*
G01*
G37*
G36*
G01*
X206426000Y-175178000D02*
X205026000Y-175178000D01*
G75*
G02*
X204926000Y-175078000I0J100000D01*
G01*
X204926000Y-174878000D01*
G75*
G02*
X205026000Y-174778000I100000J0D01*
G01*
X206426000Y-174778000D01*
G75*
G02*
X206526000Y-174878000I0J-100000D01*
G01*
X206526000Y-175078000D01*
G75*
G02*
X206426000Y-175178000I-100000J0D01*
G01*
G37*
G36*
G01*
X206426000Y-175978000D02*
X205026000Y-175978000D01*
G75*
G02*
X204926000Y-175878000I0J100000D01*
G01*
X204926000Y-175678000D01*
G75*
G02*
X205026000Y-175578000I100000J0D01*
G01*
X206426000Y-175578000D01*
G75*
G02*
X206526000Y-175678000I0J-100000D01*
G01*
X206526000Y-175878000D01*
G75*
G02*
X206426000Y-175978000I-100000J0D01*
G01*
G37*
G36*
G01*
X204476000Y-178328000D02*
X204276000Y-178328000D01*
G75*
G02*
X204176000Y-178228000I0J100000D01*
G01*
X204176000Y-176828000D01*
G75*
G02*
X204276000Y-176728000I100000J0D01*
G01*
X204476000Y-176728000D01*
G75*
G02*
X204576000Y-176828000I0J-100000D01*
G01*
X204576000Y-178228000D01*
G75*
G02*
X204476000Y-178328000I-100000J0D01*
G01*
G37*
G36*
G01*
X203276000Y-178328000D02*
X203076000Y-178328000D01*
G75*
G02*
X202976000Y-178228000I0J100000D01*
G01*
X202976000Y-176828000D01*
G75*
G02*
X203076000Y-176728000I100000J0D01*
G01*
X203276000Y-176728000D01*
G75*
G02*
X203376000Y-176828000I0J-100000D01*
G01*
X203376000Y-178228000D01*
G75*
G02*
X203276000Y-178328000I-100000J0D01*
G01*
G37*
G36*
G01*
X201726000Y-175978000D02*
X200326000Y-175978000D01*
G75*
G02*
X200226000Y-175878000I0J100000D01*
G01*
X200226000Y-175678000D01*
G75*
G02*
X200326000Y-175578000I100000J0D01*
G01*
X201726000Y-175578000D01*
G75*
G02*
X201826000Y-175678000I0J-100000D01*
G01*
X201826000Y-175878000D01*
G75*
G02*
X201726000Y-175978000I-100000J0D01*
G01*
G37*
G36*
G01*
X201726000Y-175578000D02*
X200326000Y-175578000D01*
G75*
G02*
X200226000Y-175478000I0J100000D01*
G01*
X200226000Y-175278000D01*
G75*
G02*
X200326000Y-175178000I100000J0D01*
G01*
X201726000Y-175178000D01*
G75*
G02*
X201826000Y-175278000I0J-100000D01*
G01*
X201826000Y-175478000D01*
G75*
G02*
X201726000Y-175578000I-100000J0D01*
G01*
G37*
G36*
G01*
X201726000Y-174378000D02*
X200326000Y-174378000D01*
G75*
G02*
X200226000Y-174278000I0J100000D01*
G01*
X200226000Y-174078000D01*
G75*
G02*
X200326000Y-173978000I100000J0D01*
G01*
X201726000Y-173978000D01*
G75*
G02*
X201826000Y-174078000I0J-100000D01*
G01*
X201826000Y-174278000D01*
G75*
G02*
X201726000Y-174378000I-100000J0D01*
G01*
G37*
G36*
G01*
X202876000Y-173628000D02*
X202676000Y-173628000D01*
G75*
G02*
X202576000Y-173528000I0J100000D01*
G01*
X202576000Y-172128000D01*
G75*
G02*
X202676000Y-172028000I100000J0D01*
G01*
X202876000Y-172028000D01*
G75*
G02*
X202976000Y-172128000I0J-100000D01*
G01*
X202976000Y-173528000D01*
G75*
G02*
X202876000Y-173628000I-100000J0D01*
G01*
G37*
D25*
X203376000Y-175178000D03*
%TD*%
D24*
%TO.C,TP10*%
X251626000Y-173228000D03*
%TD*%
%TO.C,SB21*%
G36*
G01*
X195913500Y-173928000D02*
X195338500Y-173928000D01*
G75*
G02*
X195051000Y-173640500I0J287500D01*
G01*
X195051000Y-172965500D01*
G75*
G02*
X195338500Y-172678000I287500J0D01*
G01*
X195913500Y-172678000D01*
G75*
G02*
X196201000Y-172965500I0J-287500D01*
G01*
X196201000Y-173640500D01*
G75*
G02*
X195913500Y-173928000I-287500J0D01*
G01*
G37*
G36*
G01*
X195913500Y-172178000D02*
X195338500Y-172178000D01*
G75*
G02*
X195051000Y-171890500I0J287500D01*
G01*
X195051000Y-171215500D01*
G75*
G02*
X195338500Y-170928000I287500J0D01*
G01*
X195913500Y-170928000D01*
G75*
G02*
X196201000Y-171215500I0J-287500D01*
G01*
X196201000Y-171890500D01*
G75*
G02*
X195913500Y-172178000I-287500J0D01*
G01*
G37*
%TD*%
%TO.C,SB20*%
G36*
G01*
X222088500Y-179603000D02*
X222663500Y-179603000D01*
G75*
G02*
X222951000Y-179890500I0J-287500D01*
G01*
X222951000Y-180565500D01*
G75*
G02*
X222663500Y-180853000I-287500J0D01*
G01*
X222088500Y-180853000D01*
G75*
G02*
X221801000Y-180565500I0J287500D01*
G01*
X221801000Y-179890500D01*
G75*
G02*
X222088500Y-179603000I287500J0D01*
G01*
G37*
G36*
G01*
X222088500Y-177853000D02*
X222663500Y-177853000D01*
G75*
G02*
X222951000Y-178140500I0J-287500D01*
G01*
X222951000Y-178815500D01*
G75*
G02*
X222663500Y-179103000I-287500J0D01*
G01*
X222088500Y-179103000D01*
G75*
G02*
X221801000Y-178815500I0J287500D01*
G01*
X221801000Y-178140500D01*
G75*
G02*
X222088500Y-177853000I287500J0D01*
G01*
G37*
%TD*%
%TO.C,R35*%
G36*
G01*
X197126000Y-179965500D02*
X197126000Y-179390500D01*
G75*
G02*
X197413500Y-179103000I287500J0D01*
G01*
X198088500Y-179103000D01*
G75*
G02*
X198376000Y-179390500I0J-287500D01*
G01*
X198376000Y-179965500D01*
G75*
G02*
X198088500Y-180253000I-287500J0D01*
G01*
X197413500Y-180253000D01*
G75*
G02*
X197126000Y-179965500I0J287500D01*
G01*
G37*
G36*
G01*
X198876000Y-179965500D02*
X198876000Y-179390500D01*
G75*
G02*
X199163500Y-179103000I287500J0D01*
G01*
X199838500Y-179103000D01*
G75*
G02*
X200126000Y-179390500I0J-287500D01*
G01*
X200126000Y-179965500D01*
G75*
G02*
X199838500Y-180253000I-287500J0D01*
G01*
X199163500Y-180253000D01*
G75*
G02*
X198876000Y-179965500I0J287500D01*
G01*
G37*
%TD*%
%TO.C,R34*%
G36*
G01*
X235213500Y-172228000D02*
X234638500Y-172228000D01*
G75*
G02*
X234351000Y-171940500I0J287500D01*
G01*
X234351000Y-171265500D01*
G75*
G02*
X234638500Y-170978000I287500J0D01*
G01*
X235213500Y-170978000D01*
G75*
G02*
X235501000Y-171265500I0J-287500D01*
G01*
X235501000Y-171940500D01*
G75*
G02*
X235213500Y-172228000I-287500J0D01*
G01*
G37*
G36*
G01*
X235213500Y-170478000D02*
X234638500Y-170478000D01*
G75*
G02*
X234351000Y-170190500I0J287500D01*
G01*
X234351000Y-169515500D01*
G75*
G02*
X234638500Y-169228000I287500J0D01*
G01*
X235213500Y-169228000D01*
G75*
G02*
X235501000Y-169515500I0J-287500D01*
G01*
X235501000Y-170190500D01*
G75*
G02*
X235213500Y-170478000I-287500J0D01*
G01*
G37*
%TD*%
%TO.C,R27*%
G36*
G01*
X223876000Y-158140500D02*
X223876000Y-158715500D01*
G75*
G02*
X223588500Y-159003000I-287500J0D01*
G01*
X222913500Y-159003000D01*
G75*
G02*
X222626000Y-158715500I0J287500D01*
G01*
X222626000Y-158140500D01*
G75*
G02*
X222913500Y-157853000I287500J0D01*
G01*
X223588500Y-157853000D01*
G75*
G02*
X223876000Y-158140500I0J-287500D01*
G01*
G37*
G36*
G01*
X222126000Y-158140500D02*
X222126000Y-158715500D01*
G75*
G02*
X221838500Y-159003000I-287500J0D01*
G01*
X221163500Y-159003000D01*
G75*
G02*
X220876000Y-158715500I0J287500D01*
G01*
X220876000Y-158140500D01*
G75*
G02*
X221163500Y-157853000I287500J0D01*
G01*
X221838500Y-157853000D01*
G75*
G02*
X222126000Y-158140500I0J-287500D01*
G01*
G37*
%TD*%
%TO.C,R26*%
G36*
G01*
X223876000Y-161640500D02*
X223876000Y-162215500D01*
G75*
G02*
X223588500Y-162503000I-287500J0D01*
G01*
X222913500Y-162503000D01*
G75*
G02*
X222626000Y-162215500I0J287500D01*
G01*
X222626000Y-161640500D01*
G75*
G02*
X222913500Y-161353000I287500J0D01*
G01*
X223588500Y-161353000D01*
G75*
G02*
X223876000Y-161640500I0J-287500D01*
G01*
G37*
G36*
G01*
X222126000Y-161640500D02*
X222126000Y-162215500D01*
G75*
G02*
X221838500Y-162503000I-287500J0D01*
G01*
X221163500Y-162503000D01*
G75*
G02*
X220876000Y-162215500I0J287500D01*
G01*
X220876000Y-161640500D01*
G75*
G02*
X221163500Y-161353000I287500J0D01*
G01*
X221838500Y-161353000D01*
G75*
G02*
X222126000Y-161640500I0J-287500D01*
G01*
G37*
%TD*%
%TO.C,R25*%
G36*
G01*
X223876000Y-159890500D02*
X223876000Y-160465500D01*
G75*
G02*
X223588500Y-160753000I-287500J0D01*
G01*
X222913500Y-160753000D01*
G75*
G02*
X222626000Y-160465500I0J287500D01*
G01*
X222626000Y-159890500D01*
G75*
G02*
X222913500Y-159603000I287500J0D01*
G01*
X223588500Y-159603000D01*
G75*
G02*
X223876000Y-159890500I0J-287500D01*
G01*
G37*
G36*
G01*
X222126000Y-159890500D02*
X222126000Y-160465500D01*
G75*
G02*
X221838500Y-160753000I-287500J0D01*
G01*
X221163500Y-160753000D01*
G75*
G02*
X220876000Y-160465500I0J287500D01*
G01*
X220876000Y-159890500D01*
G75*
G02*
X221163500Y-159603000I287500J0D01*
G01*
X221838500Y-159603000D01*
G75*
G02*
X222126000Y-159890500I0J-287500D01*
G01*
G37*
%TD*%
%TO.C,R21*%
G36*
G01*
X141876000Y-166465500D02*
X141876000Y-165890500D01*
G75*
G02*
X142163500Y-165603000I287500J0D01*
G01*
X142838500Y-165603000D01*
G75*
G02*
X143126000Y-165890500I0J-287500D01*
G01*
X143126000Y-166465500D01*
G75*
G02*
X142838500Y-166753000I-287500J0D01*
G01*
X142163500Y-166753000D01*
G75*
G02*
X141876000Y-166465500I0J287500D01*
G01*
G37*
G36*
G01*
X143626000Y-166465500D02*
X143626000Y-165890500D01*
G75*
G02*
X143913500Y-165603000I287500J0D01*
G01*
X144588500Y-165603000D01*
G75*
G02*
X144876000Y-165890500I0J-287500D01*
G01*
X144876000Y-166465500D01*
G75*
G02*
X144588500Y-166753000I-287500J0D01*
G01*
X143913500Y-166753000D01*
G75*
G02*
X143626000Y-166465500I0J287500D01*
G01*
G37*
%TD*%
%TO.C,R20*%
G36*
G01*
X141876000Y-162965500D02*
X141876000Y-162390500D01*
G75*
G02*
X142163500Y-162103000I287500J0D01*
G01*
X142838500Y-162103000D01*
G75*
G02*
X143126000Y-162390500I0J-287500D01*
G01*
X143126000Y-162965500D01*
G75*
G02*
X142838500Y-163253000I-287500J0D01*
G01*
X142163500Y-163253000D01*
G75*
G02*
X141876000Y-162965500I0J287500D01*
G01*
G37*
G36*
G01*
X143626000Y-162965500D02*
X143626000Y-162390500D01*
G75*
G02*
X143913500Y-162103000I287500J0D01*
G01*
X144588500Y-162103000D01*
G75*
G02*
X144876000Y-162390500I0J-287500D01*
G01*
X144876000Y-162965500D01*
G75*
G02*
X144588500Y-163253000I-287500J0D01*
G01*
X143913500Y-163253000D01*
G75*
G02*
X143626000Y-162965500I0J287500D01*
G01*
G37*
%TD*%
%TO.C,R19*%
G36*
G01*
X141876000Y-164715500D02*
X141876000Y-164140500D01*
G75*
G02*
X142163500Y-163853000I287500J0D01*
G01*
X142838500Y-163853000D01*
G75*
G02*
X143126000Y-164140500I0J-287500D01*
G01*
X143126000Y-164715500D01*
G75*
G02*
X142838500Y-165003000I-287500J0D01*
G01*
X142163500Y-165003000D01*
G75*
G02*
X141876000Y-164715500I0J287500D01*
G01*
G37*
G36*
G01*
X143626000Y-164715500D02*
X143626000Y-164140500D01*
G75*
G02*
X143913500Y-163853000I287500J0D01*
G01*
X144588500Y-163853000D01*
G75*
G02*
X144876000Y-164140500I0J-287500D01*
G01*
X144876000Y-164715500D01*
G75*
G02*
X144588500Y-165003000I-287500J0D01*
G01*
X143913500Y-165003000D01*
G75*
G02*
X143626000Y-164715500I0J287500D01*
G01*
G37*
%TD*%
%TO.C,R18*%
G36*
G01*
X93876000Y-170215500D02*
X93876000Y-169640500D01*
G75*
G02*
X94163500Y-169353000I287500J0D01*
G01*
X94838500Y-169353000D01*
G75*
G02*
X95126000Y-169640500I0J-287500D01*
G01*
X95126000Y-170215500D01*
G75*
G02*
X94838500Y-170503000I-287500J0D01*
G01*
X94163500Y-170503000D01*
G75*
G02*
X93876000Y-170215500I0J287500D01*
G01*
G37*
G36*
G01*
X95626000Y-170215500D02*
X95626000Y-169640500D01*
G75*
G02*
X95913500Y-169353000I287500J0D01*
G01*
X96588500Y-169353000D01*
G75*
G02*
X96876000Y-169640500I0J-287500D01*
G01*
X96876000Y-170215500D01*
G75*
G02*
X96588500Y-170503000I-287500J0D01*
G01*
X95913500Y-170503000D01*
G75*
G02*
X95626000Y-170215500I0J287500D01*
G01*
G37*
%TD*%
%TO.C,R17*%
G36*
G01*
X93876000Y-166715500D02*
X93876000Y-166140500D01*
G75*
G02*
X94163500Y-165853000I287500J0D01*
G01*
X94838500Y-165853000D01*
G75*
G02*
X95126000Y-166140500I0J-287500D01*
G01*
X95126000Y-166715500D01*
G75*
G02*
X94838500Y-167003000I-287500J0D01*
G01*
X94163500Y-167003000D01*
G75*
G02*
X93876000Y-166715500I0J287500D01*
G01*
G37*
G36*
G01*
X95626000Y-166715500D02*
X95626000Y-166140500D01*
G75*
G02*
X95913500Y-165853000I287500J0D01*
G01*
X96588500Y-165853000D01*
G75*
G02*
X96876000Y-166140500I0J-287500D01*
G01*
X96876000Y-166715500D01*
G75*
G02*
X96588500Y-167003000I-287500J0D01*
G01*
X95913500Y-167003000D01*
G75*
G02*
X95626000Y-166715500I0J287500D01*
G01*
G37*
%TD*%
%TO.C,R8*%
G36*
G01*
X242438500Y-171528000D02*
X243013500Y-171528000D01*
G75*
G02*
X243301000Y-171815500I0J-287500D01*
G01*
X243301000Y-172490500D01*
G75*
G02*
X243013500Y-172778000I-287500J0D01*
G01*
X242438500Y-172778000D01*
G75*
G02*
X242151000Y-172490500I0J287500D01*
G01*
X242151000Y-171815500D01*
G75*
G02*
X242438500Y-171528000I287500J0D01*
G01*
G37*
G36*
G01*
X242438500Y-173278000D02*
X243013500Y-173278000D01*
G75*
G02*
X243301000Y-173565500I0J-287500D01*
G01*
X243301000Y-174240500D01*
G75*
G02*
X243013500Y-174528000I-287500J0D01*
G01*
X242438500Y-174528000D01*
G75*
G02*
X242151000Y-174240500I0J287500D01*
G01*
X242151000Y-173565500D01*
G75*
G02*
X242438500Y-173278000I287500J0D01*
G01*
G37*
%TD*%
%TO.C,R7*%
G36*
G01*
X240838500Y-171528000D02*
X241413500Y-171528000D01*
G75*
G02*
X241701000Y-171815500I0J-287500D01*
G01*
X241701000Y-172490500D01*
G75*
G02*
X241413500Y-172778000I-287500J0D01*
G01*
X240838500Y-172778000D01*
G75*
G02*
X240551000Y-172490500I0J287500D01*
G01*
X240551000Y-171815500D01*
G75*
G02*
X240838500Y-171528000I287500J0D01*
G01*
G37*
G36*
G01*
X240838500Y-173278000D02*
X241413500Y-173278000D01*
G75*
G02*
X241701000Y-173565500I0J-287500D01*
G01*
X241701000Y-174240500D01*
G75*
G02*
X241413500Y-174528000I-287500J0D01*
G01*
X240838500Y-174528000D01*
G75*
G02*
X240551000Y-174240500I0J287500D01*
G01*
X240551000Y-173565500D01*
G75*
G02*
X240838500Y-173278000I287500J0D01*
G01*
G37*
%TD*%
%TO.C,C12*%
G36*
G01*
X195913500Y-177603000D02*
X195338500Y-177603000D01*
G75*
G02*
X195051000Y-177315500I0J287500D01*
G01*
X195051000Y-176640500D01*
G75*
G02*
X195338500Y-176353000I287500J0D01*
G01*
X195913500Y-176353000D01*
G75*
G02*
X196201000Y-176640500I0J-287500D01*
G01*
X196201000Y-177315500D01*
G75*
G02*
X195913500Y-177603000I-287500J0D01*
G01*
G37*
G36*
G01*
X195913500Y-175853000D02*
X195338500Y-175853000D01*
G75*
G02*
X195051000Y-175565500I0J287500D01*
G01*
X195051000Y-174890500D01*
G75*
G02*
X195338500Y-174603000I287500J0D01*
G01*
X195913500Y-174603000D01*
G75*
G02*
X196201000Y-174890500I0J-287500D01*
G01*
X196201000Y-175565500D01*
G75*
G02*
X195913500Y-175853000I-287500J0D01*
G01*
G37*
%TD*%
%TO.C,C14*%
G36*
G01*
X233513500Y-172228000D02*
X232938500Y-172228000D01*
G75*
G02*
X232651000Y-171940500I0J287500D01*
G01*
X232651000Y-171265500D01*
G75*
G02*
X232938500Y-170978000I287500J0D01*
G01*
X233513500Y-170978000D01*
G75*
G02*
X233801000Y-171265500I0J-287500D01*
G01*
X233801000Y-171940500D01*
G75*
G02*
X233513500Y-172228000I-287500J0D01*
G01*
G37*
G36*
G01*
X233513500Y-170478000D02*
X232938500Y-170478000D01*
G75*
G02*
X232651000Y-170190500I0J287500D01*
G01*
X232651000Y-169515500D01*
G75*
G02*
X232938500Y-169228000I287500J0D01*
G01*
X233513500Y-169228000D01*
G75*
G02*
X233801000Y-169515500I0J-287500D01*
G01*
X233801000Y-170190500D01*
G75*
G02*
X233513500Y-170478000I-287500J0D01*
G01*
G37*
%TD*%
%TO.C,C11*%
G36*
G01*
X207626000Y-169840500D02*
X207626000Y-170415500D01*
G75*
G02*
X207338500Y-170703000I-287500J0D01*
G01*
X206663500Y-170703000D01*
G75*
G02*
X206376000Y-170415500I0J287500D01*
G01*
X206376000Y-169840500D01*
G75*
G02*
X206663500Y-169553000I287500J0D01*
G01*
X207338500Y-169553000D01*
G75*
G02*
X207626000Y-169840500I0J-287500D01*
G01*
G37*
G36*
G01*
X205876000Y-169840500D02*
X205876000Y-170415500D01*
G75*
G02*
X205588500Y-170703000I-287500J0D01*
G01*
X204913500Y-170703000D01*
G75*
G02*
X204626000Y-170415500I0J287500D01*
G01*
X204626000Y-169840500D01*
G75*
G02*
X204913500Y-169553000I287500J0D01*
G01*
X205588500Y-169553000D01*
G75*
G02*
X205876000Y-169840500I0J-287500D01*
G01*
G37*
%TD*%
%TO.C,C13*%
G36*
G01*
X197663500Y-177603000D02*
X197088500Y-177603000D01*
G75*
G02*
X196801000Y-177315500I0J287500D01*
G01*
X196801000Y-176640500D01*
G75*
G02*
X197088500Y-176353000I287500J0D01*
G01*
X197663500Y-176353000D01*
G75*
G02*
X197951000Y-176640500I0J-287500D01*
G01*
X197951000Y-177315500D01*
G75*
G02*
X197663500Y-177603000I-287500J0D01*
G01*
G37*
G36*
G01*
X197663500Y-175853000D02*
X197088500Y-175853000D01*
G75*
G02*
X196801000Y-175565500I0J287500D01*
G01*
X196801000Y-174890500D01*
G75*
G02*
X197088500Y-174603000I287500J0D01*
G01*
X197663500Y-174603000D01*
G75*
G02*
X197951000Y-174890500I0J-287500D01*
G01*
X197951000Y-175565500D01*
G75*
G02*
X197663500Y-175853000I-287500J0D01*
G01*
G37*
%TD*%
D13*
%TO.C,SW24*%
X252201000Y-151248000D03*
X258551000Y-153788000D03*
D14*
X254741000Y-156328000D03*
D15*
X259821000Y-156328000D03*
X249661000Y-156328000D03*
%TD*%
%TO.C,SW50*%
X145036000Y-137378000D03*
X155196000Y-137378000D03*
D14*
X150116000Y-137378000D03*
D13*
X153926000Y-134838000D03*
X147576000Y-132298000D03*
%TD*%
%TO.C,SW33*%
X214201000Y-151248000D03*
X220551000Y-153788000D03*
D14*
X216741000Y-156328000D03*
D15*
X221821000Y-156328000D03*
X211661000Y-156328000D03*
%TD*%
D22*
%TO.C,D4*%
X346062000Y-102822000D03*
D23*
X346062000Y-95202000D03*
%TD*%
%TO.C,D5*%
X341122000Y-114252000D03*
D22*
X341122000Y-121872000D03*
%TD*%
%TO.C,D6*%
X355876000Y-140744000D03*
D23*
X355876000Y-133124000D03*
%TD*%
D15*
%TO.C,SW2*%
X349386000Y-99328000D03*
X359546000Y-99328000D03*
D14*
X354466000Y-99328000D03*
D13*
X358276000Y-96788000D03*
X351926000Y-94248000D03*
%TD*%
D15*
%TO.C,SW3*%
X344636000Y-118328000D03*
X354796000Y-118328000D03*
D14*
X349716000Y-118328000D03*
D13*
X353526000Y-115788000D03*
X347176000Y-113248000D03*
%TD*%
D15*
%TO.C,SW4*%
X342236000Y-137378000D03*
X352396000Y-137378000D03*
D14*
X347316000Y-137378000D03*
D13*
X351126000Y-134838000D03*
X344776000Y-132298000D03*
%TD*%
D18*
%TO.C,SW5*%
X330666000Y-149353000D03*
X354466000Y-149353000D03*
D14*
X354466000Y-164593000D03*
X330666000Y-164593000D03*
D15*
X337486000Y-156353000D03*
X347646000Y-156353000D03*
D14*
X342566000Y-156353000D03*
D13*
X346376000Y-153813000D03*
X340026000Y-151273000D03*
%TD*%
%TO.C,SW6*%
X349526000Y-170323000D03*
X355876000Y-172863000D03*
D14*
X352066000Y-175403000D03*
D15*
X357146000Y-175403000D03*
X346986000Y-175403000D03*
%TD*%
D13*
%TO.C,SW7*%
X332926000Y-94248000D03*
X339276000Y-96788000D03*
D14*
X335466000Y-99328000D03*
D15*
X340546000Y-99328000D03*
X330386000Y-99328000D03*
%TD*%
%TO.C,SW11*%
X323161000Y-175403000D03*
X333321000Y-175403000D03*
D14*
X328241000Y-175403000D03*
D13*
X332051000Y-172863000D03*
X325701000Y-170323000D03*
%TD*%
D15*
%TO.C,SW12*%
X311386000Y-99328000D03*
X321546000Y-99328000D03*
D14*
X316466000Y-99328000D03*
D13*
X320276000Y-96788000D03*
X313926000Y-94248000D03*
%TD*%
%TO.C,SW16*%
X301876000Y-170323000D03*
X308226000Y-172863000D03*
D14*
X304416000Y-175403000D03*
D15*
X309496000Y-175403000D03*
X299336000Y-175403000D03*
%TD*%
%TO.C,SW17*%
X292386000Y-99328000D03*
X302546000Y-99328000D03*
D14*
X297466000Y-99328000D03*
D13*
X301276000Y-96788000D03*
X294926000Y-94248000D03*
%TD*%
%TO.C,SW30*%
X237926000Y-94248000D03*
X244276000Y-96788000D03*
D14*
X240466000Y-99328000D03*
D15*
X245546000Y-99328000D03*
X235386000Y-99328000D03*
%TD*%
D13*
%TO.C,SW56*%
X111956000Y-151208000D03*
X118306000Y-153748000D03*
D14*
X114496000Y-156288000D03*
D15*
X119576000Y-156288000D03*
X109416000Y-156288000D03*
%TD*%
%TO.C,SW57*%
X102361000Y-175378000D03*
X112521000Y-175378000D03*
D14*
X107441000Y-175378000D03*
D13*
X111251000Y-172838000D03*
X104901000Y-170298000D03*
%TD*%
%TO.C,SW60*%
X95426000Y-94248000D03*
X101776000Y-96788000D03*
D14*
X97966000Y-99328000D03*
D15*
X103046000Y-99328000D03*
X92886000Y-99328000D03*
D14*
X86066000Y-107568000D03*
X109866000Y-107568000D03*
D18*
X109866000Y-92328000D03*
X86066000Y-92328000D03*
%TD*%
D13*
%TO.C,SW61*%
X90676000Y-113248000D03*
X97026000Y-115788000D03*
D14*
X93216000Y-118328000D03*
D15*
X98296000Y-118328000D03*
X88136000Y-118328000D03*
%TD*%
D13*
%TO.C,SW62*%
X97726000Y-132288000D03*
X104076000Y-134828000D03*
D14*
X100266000Y-137368000D03*
D15*
X105346000Y-137368000D03*
X95186000Y-137368000D03*
D14*
X88366000Y-145608000D03*
X112166000Y-145608000D03*
D18*
X112166000Y-130368000D03*
X88366000Y-130368000D03*
%TD*%
D26*
%TO.C,SW1*%
X286526000Y-174128000D03*
X281526000Y-174128000D03*
X284026000Y-179728000D03*
%TD*%
%TO.C,D1*%
G36*
G01*
X178788500Y-170928000D02*
X179363500Y-170928000D01*
G75*
G02*
X179651000Y-171215500I0J-287500D01*
G01*
X179651000Y-171890500D01*
G75*
G02*
X179363500Y-172178000I-287500J0D01*
G01*
X178788500Y-172178000D01*
G75*
G02*
X178501000Y-171890500I0J287500D01*
G01*
X178501000Y-171215500D01*
G75*
G02*
X178788500Y-170928000I287500J0D01*
G01*
G37*
G36*
G01*
X178788500Y-169178000D02*
X179363500Y-169178000D01*
G75*
G02*
X179651000Y-169465500I0J-287500D01*
G01*
X179651000Y-170140500D01*
G75*
G02*
X179363500Y-170428000I-287500J0D01*
G01*
X178788500Y-170428000D01*
G75*
G02*
X178501000Y-170140500I0J287500D01*
G01*
X178501000Y-169465500D01*
G75*
G02*
X178788500Y-169178000I287500J0D01*
G01*
G37*
%TD*%
%TO.C,D2*%
G36*
G01*
X179363500Y-175928000D02*
X178788500Y-175928000D01*
G75*
G02*
X178501000Y-175640500I0J287500D01*
G01*
X178501000Y-174965500D01*
G75*
G02*
X178788500Y-174678000I287500J0D01*
G01*
X179363500Y-174678000D01*
G75*
G02*
X179651000Y-174965500I0J-287500D01*
G01*
X179651000Y-175640500D01*
G75*
G02*
X179363500Y-175928000I-287500J0D01*
G01*
G37*
G36*
G01*
X179363500Y-174178000D02*
X178788500Y-174178000D01*
G75*
G02*
X178501000Y-173890500I0J287500D01*
G01*
X178501000Y-173215500D01*
G75*
G02*
X178788500Y-172928000I287500J0D01*
G01*
X179363500Y-172928000D01*
G75*
G02*
X179651000Y-173215500I0J-287500D01*
G01*
X179651000Y-173890500D01*
G75*
G02*
X179363500Y-174178000I-287500J0D01*
G01*
G37*
%TD*%
D24*
%TO.C,TP13*%
X220376000Y-107428000D03*
%TD*%
D15*
%TO.C,SW37*%
X192661000Y-156328000D03*
X202821000Y-156328000D03*
D14*
X197741000Y-156328000D03*
D13*
X201551000Y-153788000D03*
X195201000Y-151248000D03*
%TD*%
D22*
%TO.C,D29*%
X236692000Y-142328000D03*
D23*
X236692000Y-134708000D03*
%TD*%
D13*
%TO.C,SW26*%
X247426000Y-113248000D03*
X253776000Y-115788000D03*
D14*
X249966000Y-118328000D03*
D15*
X255046000Y-118328000D03*
X244886000Y-118328000D03*
%TD*%
%TO.C,SW41*%
X173661000Y-156328000D03*
X183821000Y-156328000D03*
D14*
X178741000Y-156328000D03*
D13*
X182551000Y-153788000D03*
X176201000Y-151248000D03*
%TD*%
D23*
%TO.C,D31*%
X224626000Y-171558000D03*
D22*
X224626000Y-179178000D03*
%TD*%
D23*
%TO.C,D66*%
X79942000Y-171370000D03*
D22*
X79942000Y-178990000D03*
%TD*%
D13*
%TO.C,SW34*%
X218926000Y-94248000D03*
X225276000Y-96788000D03*
D14*
X221466000Y-99328000D03*
D15*
X226546000Y-99328000D03*
X216386000Y-99328000D03*
%TD*%
%TO.C,C2*%
G36*
G01*
X269913500Y-175428000D02*
X269338500Y-175428000D01*
G75*
G02*
X269051000Y-175140500I0J287500D01*
G01*
X269051000Y-174465500D01*
G75*
G02*
X269338500Y-174178000I287500J0D01*
G01*
X269913500Y-174178000D01*
G75*
G02*
X270201000Y-174465500I0J-287500D01*
G01*
X270201000Y-175140500D01*
G75*
G02*
X269913500Y-175428000I-287500J0D01*
G01*
G37*
G36*
G01*
X269913500Y-173678000D02*
X269338500Y-173678000D01*
G75*
G02*
X269051000Y-173390500I0J287500D01*
G01*
X269051000Y-172715500D01*
G75*
G02*
X269338500Y-172428000I287500J0D01*
G01*
X269913500Y-172428000D01*
G75*
G02*
X270201000Y-172715500I0J-287500D01*
G01*
X270201000Y-173390500D01*
G75*
G02*
X269913500Y-173678000I-287500J0D01*
G01*
G37*
%TD*%
%TO.C,C4*%
G36*
G01*
X260376000Y-168890500D02*
X260376000Y-169465500D01*
G75*
G02*
X260088500Y-169753000I-287500J0D01*
G01*
X259413500Y-169753000D01*
G75*
G02*
X259126000Y-169465500I0J287500D01*
G01*
X259126000Y-168890500D01*
G75*
G02*
X259413500Y-168603000I287500J0D01*
G01*
X260088500Y-168603000D01*
G75*
G02*
X260376000Y-168890500I0J-287500D01*
G01*
G37*
G36*
G01*
X258626000Y-168890500D02*
X258626000Y-169465500D01*
G75*
G02*
X258338500Y-169753000I-287500J0D01*
G01*
X257663500Y-169753000D01*
G75*
G02*
X257376000Y-169465500I0J287500D01*
G01*
X257376000Y-168890500D01*
G75*
G02*
X257663500Y-168603000I287500J0D01*
G01*
X258338500Y-168603000D01*
G75*
G02*
X258626000Y-168890500I0J-287500D01*
G01*
G37*
%TD*%
%TO.C,C5*%
G36*
G01*
X268213500Y-180278000D02*
X267638500Y-180278000D01*
G75*
G02*
X267351000Y-179990500I0J287500D01*
G01*
X267351000Y-179315500D01*
G75*
G02*
X267638500Y-179028000I287500J0D01*
G01*
X268213500Y-179028000D01*
G75*
G02*
X268501000Y-179315500I0J-287500D01*
G01*
X268501000Y-179990500D01*
G75*
G02*
X268213500Y-180278000I-287500J0D01*
G01*
G37*
G36*
G01*
X268213500Y-182028000D02*
X267638500Y-182028000D01*
G75*
G02*
X267351000Y-181740500I0J287500D01*
G01*
X267351000Y-181065500D01*
G75*
G02*
X267638500Y-180778000I287500J0D01*
G01*
X268213500Y-180778000D01*
G75*
G02*
X268501000Y-181065500I0J-287500D01*
G01*
X268501000Y-181740500D01*
G75*
G02*
X268213500Y-182028000I-287500J0D01*
G01*
G37*
%TD*%
%TO.C,C8*%
G36*
G01*
X255126000Y-179715500D02*
X255126000Y-179140500D01*
G75*
G02*
X255413500Y-178853000I287500J0D01*
G01*
X256088500Y-178853000D01*
G75*
G02*
X256376000Y-179140500I0J-287500D01*
G01*
X256376000Y-179715500D01*
G75*
G02*
X256088500Y-180003000I-287500J0D01*
G01*
X255413500Y-180003000D01*
G75*
G02*
X255126000Y-179715500I0J287500D01*
G01*
G37*
G36*
G01*
X253376000Y-179715500D02*
X253376000Y-179140500D01*
G75*
G02*
X253663500Y-178853000I287500J0D01*
G01*
X254338500Y-178853000D01*
G75*
G02*
X254626000Y-179140500I0J-287500D01*
G01*
X254626000Y-179715500D01*
G75*
G02*
X254338500Y-180003000I-287500J0D01*
G01*
X253663500Y-180003000D01*
G75*
G02*
X253376000Y-179715500I0J287500D01*
G01*
G37*
%TD*%
%TO.C,C10*%
G36*
G01*
X266313500Y-183328000D02*
X265738500Y-183328000D01*
G75*
G02*
X265451000Y-183040500I0J287500D01*
G01*
X265451000Y-182365500D01*
G75*
G02*
X265738500Y-182078000I287500J0D01*
G01*
X266313500Y-182078000D01*
G75*
G02*
X266601000Y-182365500I0J-287500D01*
G01*
X266601000Y-183040500D01*
G75*
G02*
X266313500Y-183328000I-287500J0D01*
G01*
G37*
G36*
G01*
X266313500Y-181578000D02*
X265738500Y-181578000D01*
G75*
G02*
X265451000Y-181290500I0J287500D01*
G01*
X265451000Y-180615500D01*
G75*
G02*
X265738500Y-180328000I287500J0D01*
G01*
X266313500Y-180328000D01*
G75*
G02*
X266601000Y-180615500I0J-287500D01*
G01*
X266601000Y-181290500D01*
G75*
G02*
X266313500Y-181578000I-287500J0D01*
G01*
G37*
%TD*%
%TO.C,C6*%
G36*
G01*
X272076000Y-182765500D02*
X272076000Y-182190500D01*
G75*
G02*
X272363500Y-181903000I287500J0D01*
G01*
X273038500Y-181903000D01*
G75*
G02*
X273326000Y-182190500I0J-287500D01*
G01*
X273326000Y-182765500D01*
G75*
G02*
X273038500Y-183053000I-287500J0D01*
G01*
X272363500Y-183053000D01*
G75*
G02*
X272076000Y-182765500I0J287500D01*
G01*
G37*
G36*
G01*
X273826000Y-182765500D02*
X273826000Y-182190500D01*
G75*
G02*
X274113500Y-181903000I287500J0D01*
G01*
X274788500Y-181903000D01*
G75*
G02*
X275076000Y-182190500I0J-287500D01*
G01*
X275076000Y-182765500D01*
G75*
G02*
X274788500Y-183053000I-287500J0D01*
G01*
X274113500Y-183053000D01*
G75*
G02*
X273826000Y-182765500I0J287500D01*
G01*
G37*
%TD*%
%TO.C,C7*%
G36*
G01*
X272076000Y-171815500D02*
X272076000Y-171240500D01*
G75*
G02*
X272363500Y-170953000I287500J0D01*
G01*
X273038500Y-170953000D01*
G75*
G02*
X273326000Y-171240500I0J-287500D01*
G01*
X273326000Y-171815500D01*
G75*
G02*
X273038500Y-172103000I-287500J0D01*
G01*
X272363500Y-172103000D01*
G75*
G02*
X272076000Y-171815500I0J287500D01*
G01*
G37*
G36*
G01*
X273826000Y-171815500D02*
X273826000Y-171240500D01*
G75*
G02*
X274113500Y-170953000I287500J0D01*
G01*
X274788500Y-170953000D01*
G75*
G02*
X275076000Y-171240500I0J-287500D01*
G01*
X275076000Y-171815500D01*
G75*
G02*
X274788500Y-172103000I-287500J0D01*
G01*
X274113500Y-172103000D01*
G75*
G02*
X273826000Y-171815500I0J287500D01*
G01*
G37*
%TD*%
%TO.C,C1*%
G36*
G01*
X190251000Y-169521477D02*
X190251000Y-170534523D01*
G75*
G02*
X189957523Y-170828000I-293477J0D01*
G01*
X189194477Y-170828000D01*
G75*
G02*
X188901000Y-170534523I0J293477D01*
G01*
X188901000Y-169521477D01*
G75*
G02*
X189194477Y-169228000I293477J0D01*
G01*
X189957523Y-169228000D01*
G75*
G02*
X190251000Y-169521477I0J-293477D01*
G01*
G37*
G36*
G01*
X192301000Y-169521477D02*
X192301000Y-170534523D01*
G75*
G02*
X192007523Y-170828000I-293477J0D01*
G01*
X191244477Y-170828000D01*
G75*
G02*
X190951000Y-170534523I0J293477D01*
G01*
X190951000Y-169521477D01*
G75*
G02*
X191244477Y-169228000I293477J0D01*
G01*
X192007523Y-169228000D01*
G75*
G02*
X192301000Y-169521477I0J-293477D01*
G01*
G37*
%TD*%
%TO.C,C3*%
G36*
G01*
X192001000Y-171740500D02*
X192001000Y-172315500D01*
G75*
G02*
X191713500Y-172603000I-287500J0D01*
G01*
X191038500Y-172603000D01*
G75*
G02*
X190751000Y-172315500I0J287500D01*
G01*
X190751000Y-171740500D01*
G75*
G02*
X191038500Y-171453000I287500J0D01*
G01*
X191713500Y-171453000D01*
G75*
G02*
X192001000Y-171740500I0J-287500D01*
G01*
G37*
G36*
G01*
X190251000Y-171740500D02*
X190251000Y-172315500D01*
G75*
G02*
X189963500Y-172603000I-287500J0D01*
G01*
X189288500Y-172603000D01*
G75*
G02*
X189001000Y-172315500I0J287500D01*
G01*
X189001000Y-171740500D01*
G75*
G02*
X189288500Y-171453000I287500J0D01*
G01*
X189963500Y-171453000D01*
G75*
G02*
X190251000Y-171740500I0J-287500D01*
G01*
G37*
%TD*%
%TO.C,C9*%
G36*
G01*
X190251000Y-179040500D02*
X190251000Y-179615500D01*
G75*
G02*
X189963500Y-179903000I-287500J0D01*
G01*
X189288500Y-179903000D01*
G75*
G02*
X189001000Y-179615500I0J287500D01*
G01*
X189001000Y-179040500D01*
G75*
G02*
X189288500Y-178753000I287500J0D01*
G01*
X189963500Y-178753000D01*
G75*
G02*
X190251000Y-179040500I0J-287500D01*
G01*
G37*
G36*
G01*
X192001000Y-179040500D02*
X192001000Y-179615500D01*
G75*
G02*
X191713500Y-179903000I-287500J0D01*
G01*
X191038500Y-179903000D01*
G75*
G02*
X190751000Y-179615500I0J287500D01*
G01*
X190751000Y-179040500D01*
G75*
G02*
X191038500Y-178753000I287500J0D01*
G01*
X191713500Y-178753000D01*
G75*
G02*
X192001000Y-179040500I0J-287500D01*
G01*
G37*
%TD*%
D22*
%TO.C,D9*%
X326942000Y-102822000D03*
D23*
X326942000Y-95202000D03*
%TD*%
D22*
%TO.C,D14*%
X307942000Y-102822000D03*
D23*
X307942000Y-95202000D03*
%TD*%
D22*
%TO.C,D19*%
X288942000Y-102822000D03*
D23*
X288942000Y-95202000D03*
%TD*%
D22*
%TO.C,D23*%
X269942000Y-102822000D03*
D23*
X269942000Y-95202000D03*
%TD*%
D22*
%TO.C,D32*%
X231942000Y-102822000D03*
D23*
X231942000Y-95202000D03*
%TD*%
D22*
%TO.C,D36*%
X212942000Y-102822000D03*
D23*
X212942000Y-95202000D03*
%TD*%
D22*
%TO.C,D40*%
X193942000Y-102822000D03*
D23*
X193942000Y-95202000D03*
%TD*%
D22*
%TO.C,D45*%
X174942000Y-102822000D03*
D23*
X174942000Y-95202000D03*
%TD*%
D22*
%TO.C,D50*%
X155942000Y-102822000D03*
D23*
X155942000Y-95202000D03*
%TD*%
%TO.C,D55*%
X136942000Y-95202000D03*
D22*
X136942000Y-102822000D03*
%TD*%
%TO.C,D60*%
X117942000Y-102822000D03*
D23*
X117942000Y-95202000D03*
%TD*%
%TO.C,D62*%
X89408000Y-95202000D03*
D22*
X89408000Y-102822000D03*
%TD*%
%TO.C,D67*%
X60960000Y-102822000D03*
D23*
X60960000Y-95202000D03*
%TD*%
D22*
%TO.C,D10*%
X317500000Y-121872000D03*
D23*
X317500000Y-114252000D03*
%TD*%
D22*
%TO.C,D15*%
X298438000Y-121872000D03*
D23*
X298438000Y-114252000D03*
%TD*%
D22*
%TO.C,D20*%
X279438000Y-121872000D03*
D23*
X279438000Y-114252000D03*
%TD*%
D22*
%TO.C,D24*%
X260438000Y-121872000D03*
D23*
X260438000Y-114252000D03*
%TD*%
D22*
%TO.C,D28*%
X241438000Y-121872000D03*
D23*
X241438000Y-114252000D03*
%TD*%
D22*
%TO.C,D33*%
X222438000Y-121872000D03*
D23*
X222438000Y-114252000D03*
%TD*%
%TO.C,D37*%
X203438000Y-114252000D03*
D22*
X203438000Y-121872000D03*
%TD*%
%TO.C,D41*%
X184438000Y-121872000D03*
D23*
X184438000Y-114252000D03*
%TD*%
D22*
%TO.C,D46*%
X165438000Y-121872000D03*
D23*
X165438000Y-114252000D03*
%TD*%
D22*
%TO.C,D51*%
X146438000Y-121872000D03*
D23*
X146438000Y-114252000D03*
%TD*%
%TO.C,D56*%
X127438000Y-114252000D03*
D22*
X127438000Y-121872000D03*
%TD*%
%TO.C,D61*%
X108438000Y-121872000D03*
D23*
X108438000Y-114252000D03*
%TD*%
D22*
%TO.C,D63*%
X84582000Y-121872000D03*
D23*
X84582000Y-114252000D03*
%TD*%
D22*
%TO.C,D68*%
X60938000Y-121872000D03*
D23*
X60938000Y-114252000D03*
%TD*%
D22*
%TO.C,D11*%
X312692000Y-140744000D03*
D23*
X312692000Y-133124000D03*
%TD*%
D22*
%TO.C,D16*%
X293626000Y-140628000D03*
D23*
X293626000Y-133008000D03*
%TD*%
%TO.C,D21*%
X274692000Y-133124000D03*
D22*
X274692000Y-140744000D03*
%TD*%
%TO.C,D25*%
X255692000Y-140744000D03*
D23*
X255692000Y-133124000D03*
%TD*%
%TO.C,D34*%
X217692000Y-133124000D03*
D22*
X217692000Y-140744000D03*
%TD*%
%TO.C,D38*%
X198692000Y-140744000D03*
D23*
X198692000Y-133124000D03*
%TD*%
%TO.C,D42*%
X179692000Y-129628000D03*
D22*
X179692000Y-137248000D03*
%TD*%
%TO.C,D47*%
X160692000Y-140744000D03*
D23*
X160692000Y-133124000D03*
%TD*%
%TO.C,D52*%
X141692000Y-133124000D03*
D22*
X141692000Y-140744000D03*
%TD*%
%TO.C,D57*%
X122692000Y-140744000D03*
D23*
X122692000Y-133124000D03*
%TD*%
D22*
%TO.C,D64*%
X91694000Y-140744000D03*
D23*
X91694000Y-133124000D03*
%TD*%
%TO.C,D69*%
X60942000Y-133124000D03*
D22*
X60942000Y-140744000D03*
%TD*%
D23*
%TO.C,D7*%
X334010000Y-152098000D03*
D22*
X334010000Y-159718000D03*
%TD*%
D23*
%TO.C,D12*%
X303192000Y-152098000D03*
D22*
X303192000Y-159718000D03*
%TD*%
%TO.C,D17*%
X284192000Y-159718000D03*
D23*
X284192000Y-152098000D03*
%TD*%
%TO.C,D22*%
X265192000Y-152098000D03*
D22*
X265192000Y-159718000D03*
%TD*%
D23*
%TO.C,D26*%
X246192000Y-152098000D03*
D22*
X246192000Y-159718000D03*
%TD*%
%TO.C,D30*%
X227192000Y-159718000D03*
D23*
X227192000Y-152098000D03*
%TD*%
%TO.C,D35*%
X208192000Y-152098000D03*
D22*
X208192000Y-159718000D03*
%TD*%
D23*
%TO.C,D39*%
X189192000Y-152098000D03*
D22*
X189192000Y-159718000D03*
%TD*%
D23*
%TO.C,D43*%
X170192000Y-152098000D03*
D22*
X170192000Y-159718000D03*
%TD*%
D23*
%TO.C,D48*%
X151192000Y-152098000D03*
D22*
X151192000Y-159718000D03*
%TD*%
%TO.C,D53*%
X132192000Y-159718000D03*
D23*
X132192000Y-152098000D03*
%TD*%
D22*
%TO.C,D58*%
X105918000Y-159718000D03*
D23*
X105918000Y-152098000D03*
%TD*%
%TO.C,D65*%
X79942000Y-152098000D03*
D22*
X79942000Y-159718000D03*
%TD*%
%TO.C,D70*%
X60942000Y-159718000D03*
D23*
X60942000Y-152098000D03*
%TD*%
%TO.C,D8*%
X343478000Y-171370000D03*
D22*
X343478000Y-178990000D03*
%TD*%
D23*
%TO.C,D13*%
X319728000Y-171370000D03*
D22*
X319728000Y-178990000D03*
%TD*%
D23*
%TO.C,D18*%
X295978000Y-171370000D03*
D22*
X295978000Y-178990000D03*
%TD*%
D23*
%TO.C,D44*%
X155942000Y-171370000D03*
D22*
X155942000Y-178990000D03*
%TD*%
D23*
%TO.C,D49*%
X136942000Y-171370000D03*
D22*
X136942000Y-178990000D03*
%TD*%
D23*
%TO.C,D54*%
X117942000Y-171370000D03*
D22*
X117942000Y-178990000D03*
%TD*%
%TO.C,D59*%
X98942000Y-178990000D03*
D23*
X98942000Y-171370000D03*
%TD*%
%TO.C,D71*%
X60942000Y-171370000D03*
D22*
X60942000Y-178990000D03*
%TD*%
%TO.C,R6*%
G36*
G01*
X281126000Y-179740500D02*
X281126000Y-180315500D01*
G75*
G02*
X280838500Y-180603000I-287500J0D01*
G01*
X280163500Y-180603000D01*
G75*
G02*
X279876000Y-180315500I0J287500D01*
G01*
X279876000Y-179740500D01*
G75*
G02*
X280163500Y-179453000I287500J0D01*
G01*
X280838500Y-179453000D01*
G75*
G02*
X281126000Y-179740500I0J-287500D01*
G01*
G37*
G36*
G01*
X282876000Y-179740500D02*
X282876000Y-180315500D01*
G75*
G02*
X282588500Y-180603000I-287500J0D01*
G01*
X281913500Y-180603000D01*
G75*
G02*
X281626000Y-180315500I0J287500D01*
G01*
X281626000Y-179740500D01*
G75*
G02*
X281913500Y-179453000I287500J0D01*
G01*
X282588500Y-179453000D01*
G75*
G02*
X282876000Y-179740500I0J-287500D01*
G01*
G37*
%TD*%
%TO.C,R1*%
G36*
G01*
X181113500Y-172178000D02*
X180538500Y-172178000D01*
G75*
G02*
X180251000Y-171890500I0J287500D01*
G01*
X180251000Y-171215500D01*
G75*
G02*
X180538500Y-170928000I287500J0D01*
G01*
X181113500Y-170928000D01*
G75*
G02*
X181401000Y-171215500I0J-287500D01*
G01*
X181401000Y-171890500D01*
G75*
G02*
X181113500Y-172178000I-287500J0D01*
G01*
G37*
G36*
G01*
X181113500Y-170428000D02*
X180538500Y-170428000D01*
G75*
G02*
X180251000Y-170140500I0J287500D01*
G01*
X180251000Y-169465500D01*
G75*
G02*
X180538500Y-169178000I287500J0D01*
G01*
X181113500Y-169178000D01*
G75*
G02*
X181401000Y-169465500I0J-287500D01*
G01*
X181401000Y-170140500D01*
G75*
G02*
X181113500Y-170428000I-287500J0D01*
G01*
G37*
%TD*%
%TO.C,R4*%
G36*
G01*
X180538500Y-174678000D02*
X181113500Y-174678000D01*
G75*
G02*
X181401000Y-174965500I0J-287500D01*
G01*
X181401000Y-175640500D01*
G75*
G02*
X181113500Y-175928000I-287500J0D01*
G01*
X180538500Y-175928000D01*
G75*
G02*
X180251000Y-175640500I0J287500D01*
G01*
X180251000Y-174965500D01*
G75*
G02*
X180538500Y-174678000I287500J0D01*
G01*
G37*
G36*
G01*
X180538500Y-172928000D02*
X181113500Y-172928000D01*
G75*
G02*
X181401000Y-173215500I0J-287500D01*
G01*
X181401000Y-173890500D01*
G75*
G02*
X181113500Y-174178000I-287500J0D01*
G01*
X180538500Y-174178000D01*
G75*
G02*
X180251000Y-173890500I0J287500D01*
G01*
X180251000Y-173215500D01*
G75*
G02*
X180538500Y-172928000I287500J0D01*
G01*
G37*
%TD*%
%TO.C,R10*%
G36*
G01*
X362501000Y-96965500D02*
X362501000Y-96390500D01*
G75*
G02*
X362788500Y-96103000I287500J0D01*
G01*
X363463500Y-96103000D01*
G75*
G02*
X363751000Y-96390500I0J-287500D01*
G01*
X363751000Y-96965500D01*
G75*
G02*
X363463500Y-97253000I-287500J0D01*
G01*
X362788500Y-97253000D01*
G75*
G02*
X362501000Y-96965500I0J287500D01*
G01*
G37*
G36*
G01*
X360751000Y-96965500D02*
X360751000Y-96390500D01*
G75*
G02*
X361038500Y-96103000I287500J0D01*
G01*
X361713500Y-96103000D01*
G75*
G02*
X362001000Y-96390500I0J-287500D01*
G01*
X362001000Y-96965500D01*
G75*
G02*
X361713500Y-97253000I-287500J0D01*
G01*
X361038500Y-97253000D01*
G75*
G02*
X360751000Y-96965500I0J287500D01*
G01*
G37*
%TD*%
%TO.C,R11*%
G36*
G01*
X356126000Y-115965500D02*
X356126000Y-115390500D01*
G75*
G02*
X356413500Y-115103000I287500J0D01*
G01*
X357088500Y-115103000D01*
G75*
G02*
X357376000Y-115390500I0J-287500D01*
G01*
X357376000Y-115965500D01*
G75*
G02*
X357088500Y-116253000I-287500J0D01*
G01*
X356413500Y-116253000D01*
G75*
G02*
X356126000Y-115965500I0J287500D01*
G01*
G37*
G36*
G01*
X357876000Y-115965500D02*
X357876000Y-115390500D01*
G75*
G02*
X358163500Y-115103000I287500J0D01*
G01*
X358838500Y-115103000D01*
G75*
G02*
X359126000Y-115390500I0J-287500D01*
G01*
X359126000Y-115965500D01*
G75*
G02*
X358838500Y-116253000I-287500J0D01*
G01*
X358163500Y-116253000D01*
G75*
G02*
X357876000Y-115965500I0J287500D01*
G01*
G37*
%TD*%
%TO.C,R12*%
G36*
G01*
X359376000Y-137465500D02*
X359376000Y-136890500D01*
G75*
G02*
X359663500Y-136603000I287500J0D01*
G01*
X360338500Y-136603000D01*
G75*
G02*
X360626000Y-136890500I0J-287500D01*
G01*
X360626000Y-137465500D01*
G75*
G02*
X360338500Y-137753000I-287500J0D01*
G01*
X359663500Y-137753000D01*
G75*
G02*
X359376000Y-137465500I0J287500D01*
G01*
G37*
G36*
G01*
X357626000Y-137465500D02*
X357626000Y-136890500D01*
G75*
G02*
X357913500Y-136603000I287500J0D01*
G01*
X358588500Y-136603000D01*
G75*
G02*
X358876000Y-136890500I0J-287500D01*
G01*
X358876000Y-137465500D01*
G75*
G02*
X358588500Y-137753000I-287500J0D01*
G01*
X357913500Y-137753000D01*
G75*
G02*
X357626000Y-137465500I0J287500D01*
G01*
G37*
%TD*%
%TO.C,R13*%
G36*
G01*
X348876000Y-153965500D02*
X348876000Y-153390500D01*
G75*
G02*
X349163500Y-153103000I287500J0D01*
G01*
X349838500Y-153103000D01*
G75*
G02*
X350126000Y-153390500I0J-287500D01*
G01*
X350126000Y-153965500D01*
G75*
G02*
X349838500Y-154253000I-287500J0D01*
G01*
X349163500Y-154253000D01*
G75*
G02*
X348876000Y-153965500I0J287500D01*
G01*
G37*
G36*
G01*
X350626000Y-153965500D02*
X350626000Y-153390500D01*
G75*
G02*
X350913500Y-153103000I287500J0D01*
G01*
X351588500Y-153103000D01*
G75*
G02*
X351876000Y-153390500I0J-287500D01*
G01*
X351876000Y-153965500D01*
G75*
G02*
X351588500Y-154253000I-287500J0D01*
G01*
X350913500Y-154253000D01*
G75*
G02*
X350626000Y-153965500I0J287500D01*
G01*
G37*
%TD*%
%TO.C,R14*%
G36*
G01*
X291313500Y-173228000D02*
X290738500Y-173228000D01*
G75*
G02*
X290451000Y-172940500I0J287500D01*
G01*
X290451000Y-172265500D01*
G75*
G02*
X290738500Y-171978000I287500J0D01*
G01*
X291313500Y-171978000D01*
G75*
G02*
X291601000Y-172265500I0J-287500D01*
G01*
X291601000Y-172940500D01*
G75*
G02*
X291313500Y-173228000I-287500J0D01*
G01*
G37*
G36*
G01*
X291313500Y-171478000D02*
X290738500Y-171478000D01*
G75*
G02*
X290451000Y-171190500I0J287500D01*
G01*
X290451000Y-170515500D01*
G75*
G02*
X290738500Y-170228000I287500J0D01*
G01*
X291313500Y-170228000D01*
G75*
G02*
X291601000Y-170515500I0J-287500D01*
G01*
X291601000Y-171190500D01*
G75*
G02*
X291313500Y-171478000I-287500J0D01*
G01*
G37*
%TD*%
%TO.C,SB10*%
G36*
G01*
X343338500Y-180928000D02*
X343913500Y-180928000D01*
G75*
G02*
X344201000Y-181215500I0J-287500D01*
G01*
X344201000Y-181890500D01*
G75*
G02*
X343913500Y-182178000I-287500J0D01*
G01*
X343338500Y-182178000D01*
G75*
G02*
X343051000Y-181890500I0J287500D01*
G01*
X343051000Y-181215500D01*
G75*
G02*
X343338500Y-180928000I287500J0D01*
G01*
G37*
G36*
G01*
X343338500Y-182678000D02*
X343913500Y-182678000D01*
G75*
G02*
X344201000Y-182965500I0J-287500D01*
G01*
X344201000Y-183640500D01*
G75*
G02*
X343913500Y-183928000I-287500J0D01*
G01*
X343338500Y-183928000D01*
G75*
G02*
X343051000Y-183640500I0J287500D01*
G01*
X343051000Y-182965500D01*
G75*
G02*
X343338500Y-182678000I287500J0D01*
G01*
G37*
%TD*%
%TO.C,SB11*%
G36*
G01*
X319338500Y-180928000D02*
X319913500Y-180928000D01*
G75*
G02*
X320201000Y-181215500I0J-287500D01*
G01*
X320201000Y-181890500D01*
G75*
G02*
X319913500Y-182178000I-287500J0D01*
G01*
X319338500Y-182178000D01*
G75*
G02*
X319051000Y-181890500I0J287500D01*
G01*
X319051000Y-181215500D01*
G75*
G02*
X319338500Y-180928000I287500J0D01*
G01*
G37*
G36*
G01*
X319338500Y-182678000D02*
X319913500Y-182678000D01*
G75*
G02*
X320201000Y-182965500I0J-287500D01*
G01*
X320201000Y-183640500D01*
G75*
G02*
X319913500Y-183928000I-287500J0D01*
G01*
X319338500Y-183928000D01*
G75*
G02*
X319051000Y-183640500I0J287500D01*
G01*
X319051000Y-182965500D01*
G75*
G02*
X319338500Y-182678000I287500J0D01*
G01*
G37*
%TD*%
%TO.C,SB12*%
G36*
G01*
X295838500Y-182678000D02*
X296413500Y-182678000D01*
G75*
G02*
X296701000Y-182965500I0J-287500D01*
G01*
X296701000Y-183640500D01*
G75*
G02*
X296413500Y-183928000I-287500J0D01*
G01*
X295838500Y-183928000D01*
G75*
G02*
X295551000Y-183640500I0J287500D01*
G01*
X295551000Y-182965500D01*
G75*
G02*
X295838500Y-182678000I287500J0D01*
G01*
G37*
G36*
G01*
X295838500Y-180928000D02*
X296413500Y-180928000D01*
G75*
G02*
X296701000Y-181215500I0J-287500D01*
G01*
X296701000Y-181890500D01*
G75*
G02*
X296413500Y-182178000I-287500J0D01*
G01*
X295838500Y-182178000D01*
G75*
G02*
X295551000Y-181890500I0J287500D01*
G01*
X295551000Y-181215500D01*
G75*
G02*
X295838500Y-180928000I287500J0D01*
G01*
G37*
%TD*%
%TO.C,SB1*%
G36*
G01*
X190751000Y-174065500D02*
X190751000Y-173490500D01*
G75*
G02*
X191038500Y-173203000I287500J0D01*
G01*
X191713500Y-173203000D01*
G75*
G02*
X192001000Y-173490500I0J-287500D01*
G01*
X192001000Y-174065500D01*
G75*
G02*
X191713500Y-174353000I-287500J0D01*
G01*
X191038500Y-174353000D01*
G75*
G02*
X190751000Y-174065500I0J287500D01*
G01*
G37*
G36*
G01*
X189001000Y-174065500D02*
X189001000Y-173490500D01*
G75*
G02*
X189288500Y-173203000I287500J0D01*
G01*
X189963500Y-173203000D01*
G75*
G02*
X190251000Y-173490500I0J-287500D01*
G01*
X190251000Y-174065500D01*
G75*
G02*
X189963500Y-174353000I-287500J0D01*
G01*
X189288500Y-174353000D01*
G75*
G02*
X189001000Y-174065500I0J287500D01*
G01*
G37*
%TD*%
%TO.C,SB2*%
G36*
G01*
X189001000Y-181365500D02*
X189001000Y-180790500D01*
G75*
G02*
X189288500Y-180503000I287500J0D01*
G01*
X189963500Y-180503000D01*
G75*
G02*
X190251000Y-180790500I0J-287500D01*
G01*
X190251000Y-181365500D01*
G75*
G02*
X189963500Y-181653000I-287500J0D01*
G01*
X189288500Y-181653000D01*
G75*
G02*
X189001000Y-181365500I0J287500D01*
G01*
G37*
G36*
G01*
X190751000Y-181365500D02*
X190751000Y-180790500D01*
G75*
G02*
X191038500Y-180503000I287500J0D01*
G01*
X191713500Y-180503000D01*
G75*
G02*
X192001000Y-180790500I0J-287500D01*
G01*
X192001000Y-181365500D01*
G75*
G02*
X191713500Y-181653000I-287500J0D01*
G01*
X191038500Y-181653000D01*
G75*
G02*
X190751000Y-181365500I0J287500D01*
G01*
G37*
%TD*%
%TO.C,SB13*%
G36*
G01*
X264838500Y-161803000D02*
X265413500Y-161803000D01*
G75*
G02*
X265701000Y-162090500I0J-287500D01*
G01*
X265701000Y-162765500D01*
G75*
G02*
X265413500Y-163053000I-287500J0D01*
G01*
X264838500Y-163053000D01*
G75*
G02*
X264551000Y-162765500I0J287500D01*
G01*
X264551000Y-162090500D01*
G75*
G02*
X264838500Y-161803000I287500J0D01*
G01*
G37*
G36*
G01*
X264838500Y-163553000D02*
X265413500Y-163553000D01*
G75*
G02*
X265701000Y-163840500I0J-287500D01*
G01*
X265701000Y-164515500D01*
G75*
G02*
X265413500Y-164803000I-287500J0D01*
G01*
X264838500Y-164803000D01*
G75*
G02*
X264551000Y-164515500I0J287500D01*
G01*
X264551000Y-163840500D01*
G75*
G02*
X264838500Y-163553000I287500J0D01*
G01*
G37*
%TD*%
%TO.C,SB14*%
G36*
G01*
X245626000Y-162215500D02*
X245626000Y-161640500D01*
G75*
G02*
X245913500Y-161353000I287500J0D01*
G01*
X246588500Y-161353000D01*
G75*
G02*
X246876000Y-161640500I0J-287500D01*
G01*
X246876000Y-162215500D01*
G75*
G02*
X246588500Y-162503000I-287500J0D01*
G01*
X245913500Y-162503000D01*
G75*
G02*
X245626000Y-162215500I0J287500D01*
G01*
G37*
G36*
G01*
X247376000Y-162215500D02*
X247376000Y-161640500D01*
G75*
G02*
X247663500Y-161353000I287500J0D01*
G01*
X248338500Y-161353000D01*
G75*
G02*
X248626000Y-161640500I0J-287500D01*
G01*
X248626000Y-162215500D01*
G75*
G02*
X248338500Y-162503000I-287500J0D01*
G01*
X247663500Y-162503000D01*
G75*
G02*
X247376000Y-162215500I0J287500D01*
G01*
G37*
%TD*%
%TO.C,SB3*%
G36*
G01*
X118413500Y-182303000D02*
X117838500Y-182303000D01*
G75*
G02*
X117551000Y-182015500I0J287500D01*
G01*
X117551000Y-181340500D01*
G75*
G02*
X117838500Y-181053000I287500J0D01*
G01*
X118413500Y-181053000D01*
G75*
G02*
X118701000Y-181340500I0J-287500D01*
G01*
X118701000Y-182015500D01*
G75*
G02*
X118413500Y-182303000I-287500J0D01*
G01*
G37*
G36*
G01*
X118413500Y-184053000D02*
X117838500Y-184053000D01*
G75*
G02*
X117551000Y-183765500I0J287500D01*
G01*
X117551000Y-183090500D01*
G75*
G02*
X117838500Y-182803000I287500J0D01*
G01*
X118413500Y-182803000D01*
G75*
G02*
X118701000Y-183090500I0J-287500D01*
G01*
X118701000Y-183765500D01*
G75*
G02*
X118413500Y-184053000I-287500J0D01*
G01*
G37*
%TD*%
%TO.C,SB15*%
G36*
G01*
X228376000Y-162215500D02*
X228376000Y-161640500D01*
G75*
G02*
X228663500Y-161353000I287500J0D01*
G01*
X229338500Y-161353000D01*
G75*
G02*
X229626000Y-161640500I0J-287500D01*
G01*
X229626000Y-162215500D01*
G75*
G02*
X229338500Y-162503000I-287500J0D01*
G01*
X228663500Y-162503000D01*
G75*
G02*
X228376000Y-162215500I0J287500D01*
G01*
G37*
G36*
G01*
X226626000Y-162215500D02*
X226626000Y-161640500D01*
G75*
G02*
X226913500Y-161353000I287500J0D01*
G01*
X227588500Y-161353000D01*
G75*
G02*
X227876000Y-161640500I0J-287500D01*
G01*
X227876000Y-162215500D01*
G75*
G02*
X227588500Y-162503000I-287500J0D01*
G01*
X226913500Y-162503000D01*
G75*
G02*
X226626000Y-162215500I0J287500D01*
G01*
G37*
%TD*%
%TO.C,SB4*%
G36*
G01*
X99413500Y-183928000D02*
X98838500Y-183928000D01*
G75*
G02*
X98551000Y-183640500I0J287500D01*
G01*
X98551000Y-182965500D01*
G75*
G02*
X98838500Y-182678000I287500J0D01*
G01*
X99413500Y-182678000D01*
G75*
G02*
X99701000Y-182965500I0J-287500D01*
G01*
X99701000Y-183640500D01*
G75*
G02*
X99413500Y-183928000I-287500J0D01*
G01*
G37*
G36*
G01*
X99413500Y-182178000D02*
X98838500Y-182178000D01*
G75*
G02*
X98551000Y-181890500I0J287500D01*
G01*
X98551000Y-181215500D01*
G75*
G02*
X98838500Y-180928000I287500J0D01*
G01*
X99413500Y-180928000D01*
G75*
G02*
X99701000Y-181215500I0J-287500D01*
G01*
X99701000Y-181890500D01*
G75*
G02*
X99413500Y-182178000I-287500J0D01*
G01*
G37*
%TD*%
%TO.C,SB16*%
G36*
G01*
X207626000Y-162215500D02*
X207626000Y-161640500D01*
G75*
G02*
X207913500Y-161353000I287500J0D01*
G01*
X208588500Y-161353000D01*
G75*
G02*
X208876000Y-161640500I0J-287500D01*
G01*
X208876000Y-162215500D01*
G75*
G02*
X208588500Y-162503000I-287500J0D01*
G01*
X207913500Y-162503000D01*
G75*
G02*
X207626000Y-162215500I0J287500D01*
G01*
G37*
G36*
G01*
X209376000Y-162215500D02*
X209376000Y-161640500D01*
G75*
G02*
X209663500Y-161353000I287500J0D01*
G01*
X210338500Y-161353000D01*
G75*
G02*
X210626000Y-161640500I0J-287500D01*
G01*
X210626000Y-162215500D01*
G75*
G02*
X210338500Y-162503000I-287500J0D01*
G01*
X209663500Y-162503000D01*
G75*
G02*
X209376000Y-162215500I0J287500D01*
G01*
G37*
%TD*%
%TO.C,SB5*%
G36*
G01*
X108913500Y-127428000D02*
X108338500Y-127428000D01*
G75*
G02*
X108051000Y-127140500I0J287500D01*
G01*
X108051000Y-126465500D01*
G75*
G02*
X108338500Y-126178000I287500J0D01*
G01*
X108913500Y-126178000D01*
G75*
G02*
X109201000Y-126465500I0J-287500D01*
G01*
X109201000Y-127140500D01*
G75*
G02*
X108913500Y-127428000I-287500J0D01*
G01*
G37*
G36*
G01*
X108913500Y-125678000D02*
X108338500Y-125678000D01*
G75*
G02*
X108051000Y-125390500I0J287500D01*
G01*
X108051000Y-124715500D01*
G75*
G02*
X108338500Y-124428000I287500J0D01*
G01*
X108913500Y-124428000D01*
G75*
G02*
X109201000Y-124715500I0J-287500D01*
G01*
X109201000Y-125390500D01*
G75*
G02*
X108913500Y-125678000I-287500J0D01*
G01*
G37*
%TD*%
%TO.C,SB17*%
G36*
G01*
X188626000Y-162215500D02*
X188626000Y-161640500D01*
G75*
G02*
X188913500Y-161353000I287500J0D01*
G01*
X189588500Y-161353000D01*
G75*
G02*
X189876000Y-161640500I0J-287500D01*
G01*
X189876000Y-162215500D01*
G75*
G02*
X189588500Y-162503000I-287500J0D01*
G01*
X188913500Y-162503000D01*
G75*
G02*
X188626000Y-162215500I0J287500D01*
G01*
G37*
G36*
G01*
X190376000Y-162215500D02*
X190376000Y-161640500D01*
G75*
G02*
X190663500Y-161353000I287500J0D01*
G01*
X191338500Y-161353000D01*
G75*
G02*
X191626000Y-161640500I0J-287500D01*
G01*
X191626000Y-162215500D01*
G75*
G02*
X191338500Y-162503000I-287500J0D01*
G01*
X190663500Y-162503000D01*
G75*
G02*
X190376000Y-162215500I0J287500D01*
G01*
G37*
%TD*%
%TO.C,SB6*%
G36*
G01*
X80413500Y-182178000D02*
X79838500Y-182178000D01*
G75*
G02*
X79551000Y-181890500I0J287500D01*
G01*
X79551000Y-181215500D01*
G75*
G02*
X79838500Y-180928000I287500J0D01*
G01*
X80413500Y-180928000D01*
G75*
G02*
X80701000Y-181215500I0J-287500D01*
G01*
X80701000Y-181890500D01*
G75*
G02*
X80413500Y-182178000I-287500J0D01*
G01*
G37*
G36*
G01*
X80413500Y-183928000D02*
X79838500Y-183928000D01*
G75*
G02*
X79551000Y-183640500I0J287500D01*
G01*
X79551000Y-182965500D01*
G75*
G02*
X79838500Y-182678000I287500J0D01*
G01*
X80413500Y-182678000D01*
G75*
G02*
X80701000Y-182965500I0J-287500D01*
G01*
X80701000Y-183640500D01*
G75*
G02*
X80413500Y-183928000I-287500J0D01*
G01*
G37*
%TD*%
%TO.C,SB18*%
G36*
G01*
X155838500Y-182678000D02*
X156413500Y-182678000D01*
G75*
G02*
X156701000Y-182965500I0J-287500D01*
G01*
X156701000Y-183640500D01*
G75*
G02*
X156413500Y-183928000I-287500J0D01*
G01*
X155838500Y-183928000D01*
G75*
G02*
X155551000Y-183640500I0J287500D01*
G01*
X155551000Y-182965500D01*
G75*
G02*
X155838500Y-182678000I287500J0D01*
G01*
G37*
G36*
G01*
X155838500Y-180928000D02*
X156413500Y-180928000D01*
G75*
G02*
X156701000Y-181215500I0J-287500D01*
G01*
X156701000Y-181890500D01*
G75*
G02*
X156413500Y-182178000I-287500J0D01*
G01*
X155838500Y-182178000D01*
G75*
G02*
X155551000Y-181890500I0J287500D01*
G01*
X155551000Y-181215500D01*
G75*
G02*
X155838500Y-180928000I287500J0D01*
G01*
G37*
%TD*%
%TO.C,SB7*%
G36*
G01*
X61413500Y-183928000D02*
X60838500Y-183928000D01*
G75*
G02*
X60551000Y-183640500I0J287500D01*
G01*
X60551000Y-182965500D01*
G75*
G02*
X60838500Y-182678000I287500J0D01*
G01*
X61413500Y-182678000D01*
G75*
G02*
X61701000Y-182965500I0J-287500D01*
G01*
X61701000Y-183640500D01*
G75*
G02*
X61413500Y-183928000I-287500J0D01*
G01*
G37*
G36*
G01*
X61413500Y-182178000D02*
X60838500Y-182178000D01*
G75*
G02*
X60551000Y-181890500I0J287500D01*
G01*
X60551000Y-181215500D01*
G75*
G02*
X60838500Y-180928000I287500J0D01*
G01*
X61413500Y-180928000D01*
G75*
G02*
X61701000Y-181215500I0J-287500D01*
G01*
X61701000Y-181890500D01*
G75*
G02*
X61413500Y-182178000I-287500J0D01*
G01*
G37*
%TD*%
%TO.C,SB19*%
G36*
G01*
X136838500Y-182678000D02*
X137413500Y-182678000D01*
G75*
G02*
X137701000Y-182965500I0J-287500D01*
G01*
X137701000Y-183640500D01*
G75*
G02*
X137413500Y-183928000I-287500J0D01*
G01*
X136838500Y-183928000D01*
G75*
G02*
X136551000Y-183640500I0J287500D01*
G01*
X136551000Y-182965500D01*
G75*
G02*
X136838500Y-182678000I287500J0D01*
G01*
G37*
G36*
G01*
X136838500Y-180928000D02*
X137413500Y-180928000D01*
G75*
G02*
X137701000Y-181215500I0J-287500D01*
G01*
X137701000Y-181890500D01*
G75*
G02*
X137413500Y-182178000I-287500J0D01*
G01*
X136838500Y-182178000D01*
G75*
G02*
X136551000Y-181890500I0J287500D01*
G01*
X136551000Y-181215500D01*
G75*
G02*
X136838500Y-180928000I287500J0D01*
G01*
G37*
%TD*%
D15*
%TO.C,SW21*%
X273386000Y-99328000D03*
X283546000Y-99328000D03*
D14*
X278466000Y-99328000D03*
D13*
X282276000Y-96788000D03*
X275926000Y-94248000D03*
%TD*%
%TO.C,SW25*%
X256926000Y-94248000D03*
X263276000Y-96788000D03*
D14*
X259466000Y-99328000D03*
D15*
X264546000Y-99328000D03*
X254386000Y-99328000D03*
%TD*%
%TO.C,SW38*%
X197386000Y-99328000D03*
X207546000Y-99328000D03*
D14*
X202466000Y-99328000D03*
D13*
X206276000Y-96788000D03*
X199926000Y-94248000D03*
%TD*%
%TO.C,SW43*%
X180926000Y-94248000D03*
X187276000Y-96788000D03*
D14*
X183466000Y-99328000D03*
D15*
X188546000Y-99328000D03*
X178386000Y-99328000D03*
%TD*%
D13*
%TO.C,SW48*%
X161926000Y-94248000D03*
X168276000Y-96788000D03*
D14*
X164466000Y-99328000D03*
D15*
X169546000Y-99328000D03*
X159386000Y-99328000D03*
%TD*%
%TO.C,SW53*%
X140386000Y-99328000D03*
X150546000Y-99328000D03*
D14*
X145466000Y-99328000D03*
D13*
X149276000Y-96788000D03*
X142926000Y-94248000D03*
%TD*%
D15*
%TO.C,SW58*%
X121386000Y-99328000D03*
X131546000Y-99328000D03*
D14*
X126466000Y-99328000D03*
D13*
X130276000Y-96788000D03*
X123926000Y-94248000D03*
%TD*%
D15*
%TO.C,SW65*%
X64386000Y-99328000D03*
X74546000Y-99328000D03*
D14*
X69466000Y-99328000D03*
D13*
X73276000Y-96788000D03*
X66926000Y-94248000D03*
%TD*%
D15*
%TO.C,SW8*%
X320886000Y-118328000D03*
X331046000Y-118328000D03*
D14*
X325966000Y-118328000D03*
D13*
X329776000Y-115788000D03*
X323426000Y-113248000D03*
%TD*%
D15*
%TO.C,SW13*%
X301886000Y-118328000D03*
X312046000Y-118328000D03*
D14*
X306966000Y-118328000D03*
D13*
X310776000Y-115788000D03*
X304426000Y-113248000D03*
%TD*%
D15*
%TO.C,SW18*%
X282886000Y-118328000D03*
X293046000Y-118328000D03*
D14*
X287966000Y-118328000D03*
D13*
X291776000Y-115788000D03*
X285426000Y-113248000D03*
%TD*%
D15*
%TO.C,SW22*%
X263886000Y-118328000D03*
X274046000Y-118328000D03*
D14*
X268966000Y-118328000D03*
D13*
X272776000Y-115788000D03*
X266426000Y-113248000D03*
%TD*%
%TO.C,SW31*%
X228426000Y-113248000D03*
X234776000Y-115788000D03*
D14*
X230966000Y-118328000D03*
D15*
X236046000Y-118328000D03*
X225886000Y-118328000D03*
%TD*%
%TO.C,SW35*%
X206886000Y-118328000D03*
X217046000Y-118328000D03*
D14*
X211966000Y-118328000D03*
D13*
X215776000Y-115788000D03*
X209426000Y-113248000D03*
%TD*%
%TO.C,SW39*%
X190426000Y-113248000D03*
X196776000Y-115788000D03*
D14*
X192966000Y-118328000D03*
D15*
X198046000Y-118328000D03*
X187886000Y-118328000D03*
%TD*%
%TO.C,SW44*%
X168886000Y-118328000D03*
X179046000Y-118328000D03*
D14*
X173966000Y-118328000D03*
D13*
X177776000Y-115788000D03*
X171426000Y-113248000D03*
%TD*%
%TO.C,SW49*%
X152426000Y-113248000D03*
X158776000Y-115788000D03*
D14*
X154966000Y-118328000D03*
D15*
X160046000Y-118328000D03*
X149886000Y-118328000D03*
%TD*%
D13*
%TO.C,SW54*%
X133426000Y-113248000D03*
X139776000Y-115788000D03*
D14*
X135966000Y-118328000D03*
D15*
X141046000Y-118328000D03*
X130886000Y-118328000D03*
%TD*%
D13*
%TO.C,SW59*%
X114426000Y-113248000D03*
X120776000Y-115788000D03*
D14*
X116966000Y-118328000D03*
D15*
X122046000Y-118328000D03*
X111886000Y-118328000D03*
%TD*%
%TO.C,SW66*%
X64386000Y-118328000D03*
X74546000Y-118328000D03*
D14*
X69466000Y-118328000D03*
D13*
X73276000Y-115788000D03*
X66926000Y-113248000D03*
%TD*%
D15*
%TO.C,SW9*%
X316036000Y-137378000D03*
X326196000Y-137378000D03*
D14*
X321116000Y-137378000D03*
D13*
X324926000Y-134838000D03*
X318576000Y-132298000D03*
%TD*%
D15*
%TO.C,SW14*%
X297036000Y-137378000D03*
X307196000Y-137378000D03*
D14*
X302116000Y-137378000D03*
D13*
X305926000Y-134838000D03*
X299576000Y-132298000D03*
%TD*%
D15*
%TO.C,SW19*%
X278036000Y-137378000D03*
X288196000Y-137378000D03*
D14*
X283116000Y-137378000D03*
D13*
X286926000Y-134838000D03*
X280576000Y-132298000D03*
%TD*%
D15*
%TO.C,SW23*%
X259036000Y-137378000D03*
X269196000Y-137378000D03*
D14*
X264116000Y-137378000D03*
D13*
X267926000Y-134838000D03*
X261576000Y-132298000D03*
%TD*%
%TO.C,SW27*%
X242576000Y-132298000D03*
X248926000Y-134838000D03*
D14*
X245116000Y-137378000D03*
D15*
X250196000Y-137378000D03*
X240036000Y-137378000D03*
%TD*%
D13*
%TO.C,SW32*%
X223576000Y-132298000D03*
X229926000Y-134838000D03*
D14*
X226116000Y-137378000D03*
D15*
X231196000Y-137378000D03*
X221036000Y-137378000D03*
%TD*%
D13*
%TO.C,SW36*%
X204576000Y-132298000D03*
X210926000Y-134838000D03*
D14*
X207116000Y-137378000D03*
D15*
X212196000Y-137378000D03*
X202036000Y-137378000D03*
%TD*%
D13*
%TO.C,SW40*%
X185576000Y-132298000D03*
X191926000Y-134838000D03*
D14*
X188116000Y-137378000D03*
D15*
X193196000Y-137378000D03*
X183036000Y-137378000D03*
%TD*%
D13*
%TO.C,SW45*%
X166576000Y-132298000D03*
X172926000Y-134838000D03*
D14*
X169116000Y-137378000D03*
D15*
X174196000Y-137378000D03*
X164036000Y-137378000D03*
%TD*%
D13*
%TO.C,SW55*%
X128576000Y-132298000D03*
X134926000Y-134838000D03*
D14*
X131116000Y-137378000D03*
D15*
X136196000Y-137378000D03*
X126036000Y-137378000D03*
%TD*%
%TO.C,SW67*%
X64386000Y-137328000D03*
X74546000Y-137328000D03*
D14*
X69466000Y-137328000D03*
D13*
X73276000Y-134788000D03*
X66926000Y-132248000D03*
%TD*%
%TO.C,SW10*%
X309201000Y-151248000D03*
X315551000Y-153788000D03*
D14*
X311741000Y-156328000D03*
D15*
X316821000Y-156328000D03*
X306661000Y-156328000D03*
%TD*%
D13*
%TO.C,SW15*%
X290201000Y-151248000D03*
X296551000Y-153788000D03*
D14*
X292741000Y-156328000D03*
D15*
X297821000Y-156328000D03*
X287661000Y-156328000D03*
%TD*%
D13*
%TO.C,SW28*%
X233201000Y-151248000D03*
X239551000Y-153788000D03*
D14*
X235741000Y-156328000D03*
D15*
X240821000Y-156328000D03*
X230661000Y-156328000D03*
%TD*%
D13*
%TO.C,SW46*%
X157201000Y-151248000D03*
X163551000Y-153788000D03*
D14*
X159741000Y-156328000D03*
D15*
X164821000Y-156328000D03*
X154661000Y-156328000D03*
%TD*%
D13*
%TO.C,SW51*%
X138201000Y-151248000D03*
X144551000Y-153788000D03*
D14*
X140741000Y-156328000D03*
D15*
X145821000Y-156328000D03*
X135661000Y-156328000D03*
%TD*%
D13*
%TO.C,SW68*%
X66926000Y-151248000D03*
X73276000Y-153788000D03*
D14*
X69466000Y-156328000D03*
D15*
X74546000Y-156328000D03*
X64386000Y-156328000D03*
%TD*%
D13*
%TO.C,SW42*%
X162001000Y-170298000D03*
X168351000Y-172838000D03*
D14*
X164541000Y-175378000D03*
D15*
X169621000Y-175378000D03*
X159461000Y-175378000D03*
%TD*%
%TO.C,SW64*%
X83361000Y-175378000D03*
X93521000Y-175378000D03*
D14*
X88441000Y-175378000D03*
D13*
X92251000Y-172838000D03*
X85901000Y-170298000D03*
%TD*%
D15*
%TO.C,SW69*%
X64361000Y-175378000D03*
X74521000Y-175378000D03*
D14*
X69441000Y-175378000D03*
D13*
X73251000Y-172838000D03*
X66901000Y-170298000D03*
%TD*%
D27*
%TO.C,TP2*%
X228826000Y-179028000D03*
%TD*%
%TO.C,TP3*%
X201226000Y-105928000D03*
%TD*%
D24*
%TO.C,TP5*%
X212226000Y-126478000D03*
%TD*%
%TO.C,TP6*%
X270376000Y-170928000D03*
%TD*%
%TO.C,TP7*%
X254376000Y-169428000D03*
%TD*%
%TO.C,TP8*%
X251876000Y-168678000D03*
%TD*%
%TO.C,TP9*%
X256376000Y-171178000D03*
%TD*%
%TO.C,TP12*%
X222876000Y-107428000D03*
%TD*%
%TO.C,TP1*%
X190626000Y-90428000D03*
%TD*%
%TO.C,TP4*%
X186926000Y-175778000D03*
%TD*%
%TO.C,U2*%
G36*
G01*
X266876000Y-178803000D02*
X266876000Y-179053000D01*
G75*
G02*
X266751000Y-179178000I-125000J0D01*
G01*
X265326000Y-179178000D01*
G75*
G02*
X265201000Y-179053000I0J125000D01*
G01*
X265201000Y-178803000D01*
G75*
G02*
X265326000Y-178678000I125000J0D01*
G01*
X266751000Y-178678000D01*
G75*
G02*
X266876000Y-178803000I0J-125000D01*
G01*
G37*
G36*
G01*
X266876000Y-178303000D02*
X266876000Y-178553000D01*
G75*
G02*
X266751000Y-178678000I-125000J0D01*
G01*
X265326000Y-178678000D01*
G75*
G02*
X265201000Y-178553000I0J125000D01*
G01*
X265201000Y-178303000D01*
G75*
G02*
X265326000Y-178178000I125000J0D01*
G01*
X266751000Y-178178000D01*
G75*
G02*
X266876000Y-178303000I0J-125000D01*
G01*
G37*
G36*
G01*
X266876000Y-177803000D02*
X266876000Y-178053000D01*
G75*
G02*
X266751000Y-178178000I-125000J0D01*
G01*
X265326000Y-178178000D01*
G75*
G02*
X265201000Y-178053000I0J125000D01*
G01*
X265201000Y-177803000D01*
G75*
G02*
X265326000Y-177678000I125000J0D01*
G01*
X266751000Y-177678000D01*
G75*
G02*
X266876000Y-177803000I0J-125000D01*
G01*
G37*
G36*
G01*
X266876000Y-177303000D02*
X266876000Y-177553000D01*
G75*
G02*
X266751000Y-177678000I-125000J0D01*
G01*
X265326000Y-177678000D01*
G75*
G02*
X265201000Y-177553000I0J125000D01*
G01*
X265201000Y-177303000D01*
G75*
G02*
X265326000Y-177178000I125000J0D01*
G01*
X266751000Y-177178000D01*
G75*
G02*
X266876000Y-177303000I0J-125000D01*
G01*
G37*
G36*
G01*
X266876000Y-176803000D02*
X266876000Y-177053000D01*
G75*
G02*
X266751000Y-177178000I-125000J0D01*
G01*
X265326000Y-177178000D01*
G75*
G02*
X265201000Y-177053000I0J125000D01*
G01*
X265201000Y-176803000D01*
G75*
G02*
X265326000Y-176678000I125000J0D01*
G01*
X266751000Y-176678000D01*
G75*
G02*
X266876000Y-176803000I0J-125000D01*
G01*
G37*
G36*
G01*
X266876000Y-176303000D02*
X266876000Y-176553000D01*
G75*
G02*
X266751000Y-176678000I-125000J0D01*
G01*
X265326000Y-176678000D01*
G75*
G02*
X265201000Y-176553000I0J125000D01*
G01*
X265201000Y-176303000D01*
G75*
G02*
X265326000Y-176178000I125000J0D01*
G01*
X266751000Y-176178000D01*
G75*
G02*
X266876000Y-176303000I0J-125000D01*
G01*
G37*
G36*
G01*
X266876000Y-175803000D02*
X266876000Y-176053000D01*
G75*
G02*
X266751000Y-176178000I-125000J0D01*
G01*
X265326000Y-176178000D01*
G75*
G02*
X265201000Y-176053000I0J125000D01*
G01*
X265201000Y-175803000D01*
G75*
G02*
X265326000Y-175678000I125000J0D01*
G01*
X266751000Y-175678000D01*
G75*
G02*
X266876000Y-175803000I0J-125000D01*
G01*
G37*
G36*
G01*
X266876000Y-175303000D02*
X266876000Y-175553000D01*
G75*
G02*
X266751000Y-175678000I-125000J0D01*
G01*
X265326000Y-175678000D01*
G75*
G02*
X265201000Y-175553000I0J125000D01*
G01*
X265201000Y-175303000D01*
G75*
G02*
X265326000Y-175178000I125000J0D01*
G01*
X266751000Y-175178000D01*
G75*
G02*
X266876000Y-175303000I0J-125000D01*
G01*
G37*
G36*
G01*
X266876000Y-174803000D02*
X266876000Y-175053000D01*
G75*
G02*
X266751000Y-175178000I-125000J0D01*
G01*
X265326000Y-175178000D01*
G75*
G02*
X265201000Y-175053000I0J125000D01*
G01*
X265201000Y-174803000D01*
G75*
G02*
X265326000Y-174678000I125000J0D01*
G01*
X266751000Y-174678000D01*
G75*
G02*
X266876000Y-174803000I0J-125000D01*
G01*
G37*
G36*
G01*
X266876000Y-174303000D02*
X266876000Y-174553000D01*
G75*
G02*
X266751000Y-174678000I-125000J0D01*
G01*
X265326000Y-174678000D01*
G75*
G02*
X265201000Y-174553000I0J125000D01*
G01*
X265201000Y-174303000D01*
G75*
G02*
X265326000Y-174178000I125000J0D01*
G01*
X266751000Y-174178000D01*
G75*
G02*
X266876000Y-174303000I0J-125000D01*
G01*
G37*
G36*
G01*
X266876000Y-173803000D02*
X266876000Y-174053000D01*
G75*
G02*
X266751000Y-174178000I-125000J0D01*
G01*
X265326000Y-174178000D01*
G75*
G02*
X265201000Y-174053000I0J125000D01*
G01*
X265201000Y-173803000D01*
G75*
G02*
X265326000Y-173678000I125000J0D01*
G01*
X266751000Y-173678000D01*
G75*
G02*
X266876000Y-173803000I0J-125000D01*
G01*
G37*
G36*
G01*
X266876000Y-173303000D02*
X266876000Y-173553000D01*
G75*
G02*
X266751000Y-173678000I-125000J0D01*
G01*
X265326000Y-173678000D01*
G75*
G02*
X265201000Y-173553000I0J125000D01*
G01*
X265201000Y-173303000D01*
G75*
G02*
X265326000Y-173178000I125000J0D01*
G01*
X266751000Y-173178000D01*
G75*
G02*
X266876000Y-173303000I0J-125000D01*
G01*
G37*
G36*
G01*
X264876000Y-171303000D02*
X264876000Y-172728000D01*
G75*
G02*
X264751000Y-172853000I-125000J0D01*
G01*
X264501000Y-172853000D01*
G75*
G02*
X264376000Y-172728000I0J125000D01*
G01*
X264376000Y-171303000D01*
G75*
G02*
X264501000Y-171178000I125000J0D01*
G01*
X264751000Y-171178000D01*
G75*
G02*
X264876000Y-171303000I0J-125000D01*
G01*
G37*
G36*
G01*
X264376000Y-171303000D02*
X264376000Y-172728000D01*
G75*
G02*
X264251000Y-172853000I-125000J0D01*
G01*
X264001000Y-172853000D01*
G75*
G02*
X263876000Y-172728000I0J125000D01*
G01*
X263876000Y-171303000D01*
G75*
G02*
X264001000Y-171178000I125000J0D01*
G01*
X264251000Y-171178000D01*
G75*
G02*
X264376000Y-171303000I0J-125000D01*
G01*
G37*
G36*
G01*
X263876000Y-171303000D02*
X263876000Y-172728000D01*
G75*
G02*
X263751000Y-172853000I-125000J0D01*
G01*
X263501000Y-172853000D01*
G75*
G02*
X263376000Y-172728000I0J125000D01*
G01*
X263376000Y-171303000D01*
G75*
G02*
X263501000Y-171178000I125000J0D01*
G01*
X263751000Y-171178000D01*
G75*
G02*
X263876000Y-171303000I0J-125000D01*
G01*
G37*
G36*
G01*
X263376000Y-171303000D02*
X263376000Y-172728000D01*
G75*
G02*
X263251000Y-172853000I-125000J0D01*
G01*
X263001000Y-172853000D01*
G75*
G02*
X262876000Y-172728000I0J125000D01*
G01*
X262876000Y-171303000D01*
G75*
G02*
X263001000Y-171178000I125000J0D01*
G01*
X263251000Y-171178000D01*
G75*
G02*
X263376000Y-171303000I0J-125000D01*
G01*
G37*
G36*
G01*
X262876000Y-171303000D02*
X262876000Y-172728000D01*
G75*
G02*
X262751000Y-172853000I-125000J0D01*
G01*
X262501000Y-172853000D01*
G75*
G02*
X262376000Y-172728000I0J125000D01*
G01*
X262376000Y-171303000D01*
G75*
G02*
X262501000Y-171178000I125000J0D01*
G01*
X262751000Y-171178000D01*
G75*
G02*
X262876000Y-171303000I0J-125000D01*
G01*
G37*
G36*
G01*
X262376000Y-171303000D02*
X262376000Y-172728000D01*
G75*
G02*
X262251000Y-172853000I-125000J0D01*
G01*
X262001000Y-172853000D01*
G75*
G02*
X261876000Y-172728000I0J125000D01*
G01*
X261876000Y-171303000D01*
G75*
G02*
X262001000Y-171178000I125000J0D01*
G01*
X262251000Y-171178000D01*
G75*
G02*
X262376000Y-171303000I0J-125000D01*
G01*
G37*
G36*
G01*
X261876000Y-171303000D02*
X261876000Y-172728000D01*
G75*
G02*
X261751000Y-172853000I-125000J0D01*
G01*
X261501000Y-172853000D01*
G75*
G02*
X261376000Y-172728000I0J125000D01*
G01*
X261376000Y-171303000D01*
G75*
G02*
X261501000Y-171178000I125000J0D01*
G01*
X261751000Y-171178000D01*
G75*
G02*
X261876000Y-171303000I0J-125000D01*
G01*
G37*
G36*
G01*
X261376000Y-171303000D02*
X261376000Y-172728000D01*
G75*
G02*
X261251000Y-172853000I-125000J0D01*
G01*
X261001000Y-172853000D01*
G75*
G02*
X260876000Y-172728000I0J125000D01*
G01*
X260876000Y-171303000D01*
G75*
G02*
X261001000Y-171178000I125000J0D01*
G01*
X261251000Y-171178000D01*
G75*
G02*
X261376000Y-171303000I0J-125000D01*
G01*
G37*
G36*
G01*
X260876000Y-171303000D02*
X260876000Y-172728000D01*
G75*
G02*
X260751000Y-172853000I-125000J0D01*
G01*
X260501000Y-172853000D01*
G75*
G02*
X260376000Y-172728000I0J125000D01*
G01*
X260376000Y-171303000D01*
G75*
G02*
X260501000Y-171178000I125000J0D01*
G01*
X260751000Y-171178000D01*
G75*
G02*
X260876000Y-171303000I0J-125000D01*
G01*
G37*
G36*
G01*
X260376000Y-171303000D02*
X260376000Y-172728000D01*
G75*
G02*
X260251000Y-172853000I-125000J0D01*
G01*
X260001000Y-172853000D01*
G75*
G02*
X259876000Y-172728000I0J125000D01*
G01*
X259876000Y-171303000D01*
G75*
G02*
X260001000Y-171178000I125000J0D01*
G01*
X260251000Y-171178000D01*
G75*
G02*
X260376000Y-171303000I0J-125000D01*
G01*
G37*
G36*
G01*
X259876000Y-171303000D02*
X259876000Y-172728000D01*
G75*
G02*
X259751000Y-172853000I-125000J0D01*
G01*
X259501000Y-172853000D01*
G75*
G02*
X259376000Y-172728000I0J125000D01*
G01*
X259376000Y-171303000D01*
G75*
G02*
X259501000Y-171178000I125000J0D01*
G01*
X259751000Y-171178000D01*
G75*
G02*
X259876000Y-171303000I0J-125000D01*
G01*
G37*
G36*
G01*
X259376000Y-171303000D02*
X259376000Y-172728000D01*
G75*
G02*
X259251000Y-172853000I-125000J0D01*
G01*
X259001000Y-172853000D01*
G75*
G02*
X258876000Y-172728000I0J125000D01*
G01*
X258876000Y-171303000D01*
G75*
G02*
X259001000Y-171178000I125000J0D01*
G01*
X259251000Y-171178000D01*
G75*
G02*
X259376000Y-171303000I0J-125000D01*
G01*
G37*
G36*
G01*
X258551000Y-173303000D02*
X258551000Y-173553000D01*
G75*
G02*
X258426000Y-173678000I-125000J0D01*
G01*
X257001000Y-173678000D01*
G75*
G02*
X256876000Y-173553000I0J125000D01*
G01*
X256876000Y-173303000D01*
G75*
G02*
X257001000Y-173178000I125000J0D01*
G01*
X258426000Y-173178000D01*
G75*
G02*
X258551000Y-173303000I0J-125000D01*
G01*
G37*
G36*
G01*
X258551000Y-173803000D02*
X258551000Y-174053000D01*
G75*
G02*
X258426000Y-174178000I-125000J0D01*
G01*
X257001000Y-174178000D01*
G75*
G02*
X256876000Y-174053000I0J125000D01*
G01*
X256876000Y-173803000D01*
G75*
G02*
X257001000Y-173678000I125000J0D01*
G01*
X258426000Y-173678000D01*
G75*
G02*
X258551000Y-173803000I0J-125000D01*
G01*
G37*
G36*
G01*
X258551000Y-174303000D02*
X258551000Y-174553000D01*
G75*
G02*
X258426000Y-174678000I-125000J0D01*
G01*
X257001000Y-174678000D01*
G75*
G02*
X256876000Y-174553000I0J125000D01*
G01*
X256876000Y-174303000D01*
G75*
G02*
X257001000Y-174178000I125000J0D01*
G01*
X258426000Y-174178000D01*
G75*
G02*
X258551000Y-174303000I0J-125000D01*
G01*
G37*
G36*
G01*
X258551000Y-174803000D02*
X258551000Y-175053000D01*
G75*
G02*
X258426000Y-175178000I-125000J0D01*
G01*
X257001000Y-175178000D01*
G75*
G02*
X256876000Y-175053000I0J125000D01*
G01*
X256876000Y-174803000D01*
G75*
G02*
X257001000Y-174678000I125000J0D01*
G01*
X258426000Y-174678000D01*
G75*
G02*
X258551000Y-174803000I0J-125000D01*
G01*
G37*
G36*
G01*
X258551000Y-175303000D02*
X258551000Y-175553000D01*
G75*
G02*
X258426000Y-175678000I-125000J0D01*
G01*
X257001000Y-175678000D01*
G75*
G02*
X256876000Y-175553000I0J125000D01*
G01*
X256876000Y-175303000D01*
G75*
G02*
X257001000Y-175178000I125000J0D01*
G01*
X258426000Y-175178000D01*
G75*
G02*
X258551000Y-175303000I0J-125000D01*
G01*
G37*
G36*
G01*
X258551000Y-175803000D02*
X258551000Y-176053000D01*
G75*
G02*
X258426000Y-176178000I-125000J0D01*
G01*
X257001000Y-176178000D01*
G75*
G02*
X256876000Y-176053000I0J125000D01*
G01*
X256876000Y-175803000D01*
G75*
G02*
X257001000Y-175678000I125000J0D01*
G01*
X258426000Y-175678000D01*
G75*
G02*
X258551000Y-175803000I0J-125000D01*
G01*
G37*
G36*
G01*
X258551000Y-176303000D02*
X258551000Y-176553000D01*
G75*
G02*
X258426000Y-176678000I-125000J0D01*
G01*
X257001000Y-176678000D01*
G75*
G02*
X256876000Y-176553000I0J125000D01*
G01*
X256876000Y-176303000D01*
G75*
G02*
X257001000Y-176178000I125000J0D01*
G01*
X258426000Y-176178000D01*
G75*
G02*
X258551000Y-176303000I0J-125000D01*
G01*
G37*
G36*
G01*
X258551000Y-176803000D02*
X258551000Y-177053000D01*
G75*
G02*
X258426000Y-177178000I-125000J0D01*
G01*
X257001000Y-177178000D01*
G75*
G02*
X256876000Y-177053000I0J125000D01*
G01*
X256876000Y-176803000D01*
G75*
G02*
X257001000Y-176678000I125000J0D01*
G01*
X258426000Y-176678000D01*
G75*
G02*
X258551000Y-176803000I0J-125000D01*
G01*
G37*
G36*
G01*
X258551000Y-177303000D02*
X258551000Y-177553000D01*
G75*
G02*
X258426000Y-177678000I-125000J0D01*
G01*
X257001000Y-177678000D01*
G75*
G02*
X256876000Y-177553000I0J125000D01*
G01*
X256876000Y-177303000D01*
G75*
G02*
X257001000Y-177178000I125000J0D01*
G01*
X258426000Y-177178000D01*
G75*
G02*
X258551000Y-177303000I0J-125000D01*
G01*
G37*
G36*
G01*
X258551000Y-177803000D02*
X258551000Y-178053000D01*
G75*
G02*
X258426000Y-178178000I-125000J0D01*
G01*
X257001000Y-178178000D01*
G75*
G02*
X256876000Y-178053000I0J125000D01*
G01*
X256876000Y-177803000D01*
G75*
G02*
X257001000Y-177678000I125000J0D01*
G01*
X258426000Y-177678000D01*
G75*
G02*
X258551000Y-177803000I0J-125000D01*
G01*
G37*
G36*
G01*
X258551000Y-178303000D02*
X258551000Y-178553000D01*
G75*
G02*
X258426000Y-178678000I-125000J0D01*
G01*
X257001000Y-178678000D01*
G75*
G02*
X256876000Y-178553000I0J125000D01*
G01*
X256876000Y-178303000D01*
G75*
G02*
X257001000Y-178178000I125000J0D01*
G01*
X258426000Y-178178000D01*
G75*
G02*
X258551000Y-178303000I0J-125000D01*
G01*
G37*
G36*
G01*
X258551000Y-178803000D02*
X258551000Y-179053000D01*
G75*
G02*
X258426000Y-179178000I-125000J0D01*
G01*
X257001000Y-179178000D01*
G75*
G02*
X256876000Y-179053000I0J125000D01*
G01*
X256876000Y-178803000D01*
G75*
G02*
X257001000Y-178678000I125000J0D01*
G01*
X258426000Y-178678000D01*
G75*
G02*
X258551000Y-178803000I0J-125000D01*
G01*
G37*
G36*
G01*
X259376000Y-179628000D02*
X259376000Y-181053000D01*
G75*
G02*
X259251000Y-181178000I-125000J0D01*
G01*
X259001000Y-181178000D01*
G75*
G02*
X258876000Y-181053000I0J125000D01*
G01*
X258876000Y-179628000D01*
G75*
G02*
X259001000Y-179503000I125000J0D01*
G01*
X259251000Y-179503000D01*
G75*
G02*
X259376000Y-179628000I0J-125000D01*
G01*
G37*
G36*
G01*
X259876000Y-179628000D02*
X259876000Y-181053000D01*
G75*
G02*
X259751000Y-181178000I-125000J0D01*
G01*
X259501000Y-181178000D01*
G75*
G02*
X259376000Y-181053000I0J125000D01*
G01*
X259376000Y-179628000D01*
G75*
G02*
X259501000Y-179503000I125000J0D01*
G01*
X259751000Y-179503000D01*
G75*
G02*
X259876000Y-179628000I0J-125000D01*
G01*
G37*
G36*
G01*
X260376000Y-179628000D02*
X260376000Y-181053000D01*
G75*
G02*
X260251000Y-181178000I-125000J0D01*
G01*
X260001000Y-181178000D01*
G75*
G02*
X259876000Y-181053000I0J125000D01*
G01*
X259876000Y-179628000D01*
G75*
G02*
X260001000Y-179503000I125000J0D01*
G01*
X260251000Y-179503000D01*
G75*
G02*
X260376000Y-179628000I0J-125000D01*
G01*
G37*
G36*
G01*
X260876000Y-179628000D02*
X260876000Y-181053000D01*
G75*
G02*
X260751000Y-181178000I-125000J0D01*
G01*
X260501000Y-181178000D01*
G75*
G02*
X260376000Y-181053000I0J125000D01*
G01*
X260376000Y-179628000D01*
G75*
G02*
X260501000Y-179503000I125000J0D01*
G01*
X260751000Y-179503000D01*
G75*
G02*
X260876000Y-179628000I0J-125000D01*
G01*
G37*
G36*
G01*
X261376000Y-179628000D02*
X261376000Y-181053000D01*
G75*
G02*
X261251000Y-181178000I-125000J0D01*
G01*
X261001000Y-181178000D01*
G75*
G02*
X260876000Y-181053000I0J125000D01*
G01*
X260876000Y-179628000D01*
G75*
G02*
X261001000Y-179503000I125000J0D01*
G01*
X261251000Y-179503000D01*
G75*
G02*
X261376000Y-179628000I0J-125000D01*
G01*
G37*
G36*
G01*
X261876000Y-179628000D02*
X261876000Y-181053000D01*
G75*
G02*
X261751000Y-181178000I-125000J0D01*
G01*
X261501000Y-181178000D01*
G75*
G02*
X261376000Y-181053000I0J125000D01*
G01*
X261376000Y-179628000D01*
G75*
G02*
X261501000Y-179503000I125000J0D01*
G01*
X261751000Y-179503000D01*
G75*
G02*
X261876000Y-179628000I0J-125000D01*
G01*
G37*
G36*
G01*
X262376000Y-179628000D02*
X262376000Y-181053000D01*
G75*
G02*
X262251000Y-181178000I-125000J0D01*
G01*
X262001000Y-181178000D01*
G75*
G02*
X261876000Y-181053000I0J125000D01*
G01*
X261876000Y-179628000D01*
G75*
G02*
X262001000Y-179503000I125000J0D01*
G01*
X262251000Y-179503000D01*
G75*
G02*
X262376000Y-179628000I0J-125000D01*
G01*
G37*
G36*
G01*
X262876000Y-179628000D02*
X262876000Y-181053000D01*
G75*
G02*
X262751000Y-181178000I-125000J0D01*
G01*
X262501000Y-181178000D01*
G75*
G02*
X262376000Y-181053000I0J125000D01*
G01*
X262376000Y-179628000D01*
G75*
G02*
X262501000Y-179503000I125000J0D01*
G01*
X262751000Y-179503000D01*
G75*
G02*
X262876000Y-179628000I0J-125000D01*
G01*
G37*
G36*
G01*
X263376000Y-179628000D02*
X263376000Y-181053000D01*
G75*
G02*
X263251000Y-181178000I-125000J0D01*
G01*
X263001000Y-181178000D01*
G75*
G02*
X262876000Y-181053000I0J125000D01*
G01*
X262876000Y-179628000D01*
G75*
G02*
X263001000Y-179503000I125000J0D01*
G01*
X263251000Y-179503000D01*
G75*
G02*
X263376000Y-179628000I0J-125000D01*
G01*
G37*
G36*
G01*
X263876000Y-179628000D02*
X263876000Y-181053000D01*
G75*
G02*
X263751000Y-181178000I-125000J0D01*
G01*
X263501000Y-181178000D01*
G75*
G02*
X263376000Y-181053000I0J125000D01*
G01*
X263376000Y-179628000D01*
G75*
G02*
X263501000Y-179503000I125000J0D01*
G01*
X263751000Y-179503000D01*
G75*
G02*
X263876000Y-179628000I0J-125000D01*
G01*
G37*
G36*
G01*
X264376000Y-179628000D02*
X264376000Y-181053000D01*
G75*
G02*
X264251000Y-181178000I-125000J0D01*
G01*
X264001000Y-181178000D01*
G75*
G02*
X263876000Y-181053000I0J125000D01*
G01*
X263876000Y-179628000D01*
G75*
G02*
X264001000Y-179503000I125000J0D01*
G01*
X264251000Y-179503000D01*
G75*
G02*
X264376000Y-179628000I0J-125000D01*
G01*
G37*
G36*
G01*
X264876000Y-179628000D02*
X264876000Y-181053000D01*
G75*
G02*
X264751000Y-181178000I-125000J0D01*
G01*
X264501000Y-181178000D01*
G75*
G02*
X264376000Y-181053000I0J125000D01*
G01*
X264376000Y-179628000D01*
G75*
G02*
X264501000Y-179503000I125000J0D01*
G01*
X264751000Y-179503000D01*
G75*
G02*
X264876000Y-179628000I0J-125000D01*
G01*
G37*
%TD*%
D28*
%TO.C,U1*%
X191376000Y-177528000D03*
X191376000Y-176578000D03*
X191376000Y-175628000D03*
X189176000Y-175628000D03*
X189176000Y-177528000D03*
%TD*%
D29*
%TO.C,Y1*%
X273376000Y-174278000D03*
X273376000Y-179778000D03*
%TD*%
M02*
