G04 #@! TF.GenerationSoftware,KiCad,Pcbnew,(5.1.4)-1*
G04 #@! TF.CreationDate,2021-05-16T21:50:36-04:00*
G04 #@! TF.ProjectId,shape_test,73686170-655f-4746-9573-742e6b696361,rev?*
G04 #@! TF.SameCoordinates,Original*
G04 #@! TF.FileFunction,Profile,NP*
%FSLAX46Y46*%
G04 Gerber Fmt 4.6, Leading zero omitted, Abs format (unit mm)*
G04 Created by KiCad (PCBNEW (5.1.4)-1) date 2021-05-16 21:50:36*
%MOMM*%
%LPD*%
G04 APERTURE LIST*
%ADD10C,0.200000*%
%ADD11C,0.050000*%
G04 APERTURE END LIST*
D10*
X179917019Y-103070053D02*
X179917019Y-102043256D01*
X164719331Y-98859157D02*
X164719331Y-102043256D01*
X165541799Y-89721687D02*
X164719331Y-89721687D01*
X165541799Y-88694890D02*
X165541799Y-89721687D01*
X179917019Y-88694890D02*
X165541799Y-88694890D01*
X179917019Y-89721687D02*
X179917019Y-88694890D01*
X164719331Y-102043256D02*
X165541799Y-102043256D01*
X180736407Y-89721687D02*
X179917019Y-89721687D01*
X180736407Y-92904759D02*
X180736407Y-89721687D01*
X179917019Y-92904759D02*
X180736407Y-92904759D01*
X179917019Y-98859157D02*
X179917019Y-92904759D01*
X180736407Y-98859157D02*
X179917019Y-98859157D01*
X164719331Y-89721687D02*
X164719331Y-92904759D01*
X180736407Y-102043256D02*
X180736407Y-98859157D01*
X179917019Y-102043256D02*
X180736407Y-102043256D01*
X165541799Y-103070053D02*
X179917019Y-103070053D01*
X165541799Y-102043256D02*
X165541799Y-103070053D01*
X165541799Y-98859157D02*
X164719331Y-98859157D01*
X164719331Y-92904759D02*
X165541799Y-92904759D01*
X165541799Y-92904759D02*
X165541799Y-98859157D01*
X179846475Y-64737799D02*
X179846475Y-63808987D01*
X166097076Y-55542558D02*
X166841165Y-55542558D01*
X180587777Y-55542558D02*
X180587777Y-52663240D01*
X166841165Y-60928740D02*
X166097076Y-60928740D01*
X179846475Y-60928740D02*
X179846475Y-55542558D01*
X180587777Y-52663240D02*
X179846475Y-52663240D01*
X166841165Y-55542558D02*
X166841165Y-60928740D01*
X166097076Y-60928740D02*
X166097076Y-63808987D01*
X180587777Y-60928740D02*
X179846475Y-60928740D01*
X180587777Y-63808987D02*
X180587777Y-60928740D01*
X166841165Y-64737799D02*
X179846475Y-64737799D01*
X166097076Y-52663240D02*
X166097076Y-55542558D01*
X166841165Y-51734427D02*
X166841165Y-52663240D01*
X179846475Y-55542558D02*
X180587777Y-55542558D01*
X166841165Y-63808987D02*
X166841165Y-64737799D01*
X166097076Y-63808987D02*
X166841165Y-63808987D01*
X179846475Y-51734427D02*
X166841165Y-51734427D01*
X179846475Y-52663240D02*
X179846475Y-51734427D01*
X166841165Y-52663240D02*
X166097076Y-52663240D01*
X179846475Y-63808987D02*
X180587777Y-63808987D01*
X90202433Y-51950000D02*
X89420132Y-51950000D01*
X122942698Y-50972195D02*
X109252433Y-50972195D01*
X103892699Y-64661463D02*
X103892699Y-63683658D01*
X104674999Y-51950000D02*
X103892699Y-51950000D01*
X103892699Y-63683658D02*
X104674999Y-63683658D01*
X89420132Y-60651485D02*
X89420132Y-63683658D01*
X103892699Y-51950000D02*
X103892699Y-50972195D01*
X90202433Y-60651485D02*
X89420132Y-60651485D01*
X109252433Y-50972195D02*
X109252433Y-51950000D01*
X122942698Y-51950000D02*
X122942698Y-50972195D01*
X123725000Y-54981195D02*
X123725000Y-51950000D01*
X103892699Y-54981195D02*
X104674999Y-54981195D01*
X90202433Y-64661463D02*
X103892699Y-64661463D01*
X104674999Y-60651485D02*
X103892699Y-60651485D01*
X90202433Y-63683658D02*
X90202433Y-64661463D01*
X104674999Y-54981195D02*
X104674999Y-51950000D01*
X89420132Y-54981195D02*
X90202433Y-54981195D01*
X90202433Y-50972195D02*
X90202433Y-51950000D01*
X103892699Y-60651485D02*
X103892699Y-54981195D01*
X90202433Y-54981195D02*
X90202433Y-60651485D01*
X123725000Y-51950000D02*
X122942698Y-51950000D01*
X104674999Y-63683658D02*
X104674999Y-60651485D01*
X89420132Y-51950000D02*
X89420132Y-54981195D01*
X103892699Y-50972195D02*
X90202433Y-50972195D01*
X89420132Y-63683658D02*
X90202433Y-63683658D01*
X109252433Y-51950000D02*
X108470132Y-51950000D01*
X108470132Y-51950000D02*
X108470132Y-54981195D01*
X108470132Y-63683658D02*
X109252433Y-63683658D01*
X108470132Y-60651485D02*
X108470132Y-63683658D01*
X109252433Y-60651485D02*
X108470132Y-60651485D01*
X108470132Y-54981195D02*
X109252433Y-54981195D01*
X122942698Y-54981195D02*
X123725000Y-54981195D01*
X122942698Y-60651485D02*
X122942698Y-54981195D01*
X122942698Y-63683658D02*
X123725000Y-63683658D01*
X122942698Y-64661463D02*
X122942698Y-63683658D01*
X109252433Y-54981195D02*
X109252433Y-60651485D01*
X123725000Y-60651485D02*
X122942698Y-60651485D01*
X123725000Y-63683658D02*
X123725000Y-60651485D01*
X109252433Y-64661463D02*
X122942698Y-64661463D01*
X109252433Y-63683658D02*
X109252433Y-64661463D01*
X142775000Y-139883657D02*
X142775000Y-136852462D01*
X123725000Y-136852462D02*
X122942698Y-136852462D01*
X147352433Y-128149999D02*
X146570133Y-128149999D01*
X109252433Y-139883657D02*
X109252433Y-140861462D01*
X90202433Y-131180217D02*
X90202433Y-136852462D01*
X108470132Y-139883657D02*
X109252433Y-139883657D01*
X89420132Y-128149999D02*
X89420132Y-131180217D01*
X123725000Y-128149999D02*
X122942698Y-128149999D01*
X122942698Y-131180217D02*
X123725000Y-131180217D01*
X122942698Y-139883657D02*
X123725000Y-139883657D01*
X122942698Y-140861462D02*
X122942698Y-139883657D01*
X142775000Y-131180217D02*
X142775000Y-128149999D01*
X127520132Y-136852462D02*
X127520132Y-139883657D01*
X141992699Y-140861462D02*
X141992699Y-139883657D01*
X127520132Y-139883657D02*
X128302432Y-139883657D01*
X128302432Y-131180217D02*
X128302432Y-136852462D01*
X161042699Y-127172195D02*
X147352433Y-127172195D01*
X161042699Y-128149999D02*
X161042699Y-127172195D01*
X141992699Y-139883657D02*
X142775000Y-139883657D01*
X128302432Y-127172195D02*
X128302432Y-128149999D01*
X122942698Y-128149999D02*
X122942698Y-127172195D01*
X109252433Y-136852462D02*
X108470132Y-136852462D01*
X128302432Y-139883657D02*
X128302432Y-140861462D01*
X128302432Y-128149999D02*
X127520132Y-128149999D01*
X123725000Y-131180217D02*
X123725000Y-128149999D01*
X109252433Y-128149999D02*
X108470132Y-128149999D01*
X108470132Y-136852462D02*
X108470132Y-139883657D01*
X108470132Y-131180217D02*
X109252433Y-131180217D01*
X127520132Y-128149999D02*
X127520132Y-131180217D01*
X128302432Y-136852462D02*
X127520132Y-136852462D01*
X161825000Y-128149999D02*
X161042699Y-128149999D01*
X141992699Y-127172195D02*
X128302432Y-127172195D01*
X90202433Y-139883657D02*
X90202433Y-140861462D01*
X89420132Y-139883657D02*
X90202433Y-139883657D01*
X122942698Y-136852462D02*
X122942698Y-131180217D01*
X142775000Y-128149999D02*
X141992699Y-128149999D01*
X89420132Y-136852462D02*
X89420132Y-139883657D01*
X141992699Y-131180217D02*
X142775000Y-131180217D01*
X90202433Y-136852462D02*
X89420132Y-136852462D01*
X89420132Y-131180217D02*
X90202433Y-131180217D01*
X109252433Y-140861462D02*
X122942698Y-140861462D01*
X141992699Y-136852462D02*
X141992699Y-131180217D01*
X128302432Y-140861462D02*
X141992699Y-140861462D01*
X142775000Y-136852462D02*
X141992699Y-136852462D01*
X109252433Y-127172195D02*
X109252433Y-128149999D01*
X108470132Y-128149999D02*
X108470132Y-131180217D01*
X141992699Y-128149999D02*
X141992699Y-127172195D01*
X147352433Y-127172195D02*
X147352433Y-128149999D01*
X122942698Y-127172195D02*
X109252433Y-127172195D01*
X123725000Y-139883657D02*
X123725000Y-136852462D01*
X109252433Y-131180217D02*
X109252433Y-136852462D01*
X127520132Y-131180217D02*
X128302432Y-131180217D01*
X180875000Y-136852462D02*
X180092699Y-136852462D01*
X180875000Y-139883657D02*
X180875000Y-136852462D01*
X166402433Y-139883657D02*
X166402433Y-140861462D01*
X131679178Y-103475446D02*
X131679178Y-102517163D01*
X135479568Y-98146219D02*
X135479568Y-98732922D01*
X131679178Y-102517163D02*
X133366578Y-102517163D01*
X125956728Y-93648153D02*
X125956728Y-96386106D01*
X161042699Y-131180217D02*
X161825000Y-131180217D01*
X161825000Y-139883657D02*
X161825000Y-136852462D01*
X147352433Y-140861462D02*
X161042699Y-140861462D01*
X146570133Y-128149999D02*
X146570133Y-131180217D01*
X149174338Y-98732922D02*
X149174338Y-98146219D01*
X180092699Y-140861462D02*
X180092699Y-139883657D01*
X151262489Y-98146219D02*
X151262729Y-102517163D01*
X165620132Y-139883657D02*
X166402433Y-139883657D01*
X146570133Y-136852462D02*
X146570133Y-139883657D01*
X161042699Y-136852462D02*
X161042699Y-131180217D01*
X161825000Y-136852462D02*
X161042699Y-136852462D01*
X161042699Y-139883657D02*
X161825000Y-139883657D01*
X165620132Y-128149999D02*
X165620132Y-131180217D01*
X128451128Y-102517163D02*
X128451128Y-103475446D01*
X146570133Y-131180217D02*
X147352433Y-131180217D01*
X149956888Y-101764225D02*
X149956888Y-98732922D01*
X134697008Y-101764225D02*
X135479568Y-101764225D01*
X180092699Y-128149999D02*
X180092699Y-127172195D01*
X149174338Y-101764225D02*
X149956888Y-101764225D01*
X149174338Y-98146219D02*
X151262489Y-98146219D01*
X135479568Y-98732922D02*
X134697008Y-98732922D01*
X133366578Y-98146219D02*
X135479568Y-98146219D01*
X126763738Y-96386106D02*
X126763738Y-102517163D01*
X166402433Y-140861462D02*
X180092699Y-140861462D01*
X131679178Y-90489730D02*
X131679178Y-89590117D01*
X134697008Y-98732922D02*
X134697008Y-101764225D01*
X126763738Y-90489730D02*
X126763738Y-93648153D01*
X131679178Y-89590117D02*
X128451128Y-89590117D01*
X128451128Y-89590117D02*
X128451128Y-90489730D01*
X161042699Y-140861462D02*
X161042699Y-139883657D01*
X180875000Y-131180217D02*
X180875000Y-128149999D01*
X180092699Y-136852462D02*
X180092699Y-131180217D01*
X180092699Y-139883657D02*
X180875000Y-139883657D01*
X166402433Y-136852462D02*
X165620132Y-136852462D01*
X149174338Y-102742066D02*
X149174338Y-101764225D01*
X161825000Y-131180217D02*
X161825000Y-128149999D01*
X166402433Y-128149999D02*
X165620132Y-128149999D01*
X165620132Y-136852462D02*
X165620132Y-139883657D01*
X133366578Y-102517163D02*
X133366578Y-98146219D01*
X147352433Y-139883657D02*
X147352433Y-140861462D01*
X146570133Y-139883657D02*
X147352433Y-139883657D01*
X147352433Y-131180217D02*
X147352433Y-136852462D01*
X180092699Y-127172195D02*
X166402433Y-127172195D01*
X166402433Y-131180217D02*
X166402433Y-136852462D01*
X128451128Y-90489730D02*
X126763738Y-90489730D01*
X125956728Y-96386106D02*
X126763738Y-96386106D01*
X135479568Y-102742066D02*
X149174338Y-102742066D01*
X165620132Y-131180217D02*
X166402433Y-131180217D01*
X128451128Y-103475446D02*
X131679178Y-103475446D01*
X126763738Y-102517163D02*
X128451128Y-102517163D01*
X180875000Y-128149999D02*
X180092699Y-128149999D01*
X135479568Y-101764225D02*
X135479568Y-102742066D01*
X149956888Y-98732922D02*
X149174338Y-98732922D01*
X147352433Y-136852462D02*
X146570133Y-136852462D01*
X166402433Y-127172195D02*
X166402433Y-128149999D01*
X126763738Y-93648153D02*
X125956728Y-93648153D01*
X180092699Y-131180217D02*
X180875000Y-131180217D01*
X129144987Y-55545506D02*
X128337978Y-55545506D01*
X137860818Y-55545506D02*
X135748318Y-55545506D01*
X135479568Y-89052304D02*
X135479568Y-90030145D01*
X135479568Y-90030145D02*
X134697008Y-90030145D01*
X135747828Y-64414517D02*
X135747828Y-60043572D01*
X128337978Y-55545506D02*
X128337978Y-58283460D01*
X157865569Y-93648153D02*
X157865569Y-90489730D01*
X157865569Y-96386106D02*
X158672579Y-96386106D01*
X130832378Y-64414517D02*
X130832378Y-65372800D01*
X156178179Y-102517163D02*
X157865569Y-102517163D01*
X137860818Y-60630276D02*
X137078258Y-60630276D01*
X130832378Y-65372800D02*
X134060428Y-65372800D01*
X130832378Y-52387084D02*
X129144987Y-52387084D01*
X134697008Y-93060471D02*
X135479568Y-93060471D01*
X151262499Y-93648153D02*
X149174338Y-93648153D01*
X135747828Y-52387084D02*
X134060428Y-52387084D01*
X152950129Y-103475446D02*
X156178179Y-103475446D01*
X153643739Y-60043572D02*
X153643979Y-64414517D01*
X151555589Y-60043572D02*
X153643739Y-60043572D01*
X152338139Y-63661579D02*
X152338139Y-60630276D01*
X151555589Y-64639420D02*
X151555589Y-63661579D01*
X149174338Y-93648153D02*
X149174338Y-93060471D01*
X151262729Y-90489730D02*
X151262499Y-93648153D01*
X128337978Y-58283460D02*
X129144987Y-58283460D01*
X134060428Y-52387084D02*
X134060428Y-51487471D01*
X156178179Y-89590117D02*
X152950129Y-89590117D01*
X134060428Y-65372800D02*
X134060428Y-64414517D01*
X137860818Y-64639420D02*
X151555589Y-64639420D01*
X129144987Y-64414517D02*
X130832378Y-64414517D01*
X129144987Y-52387084D02*
X129144987Y-55545506D01*
X137078258Y-60630276D02*
X137078258Y-63661579D01*
X137860818Y-63661579D02*
X137860818Y-64639420D01*
X149174338Y-89052304D02*
X135479568Y-89052304D01*
X137860818Y-54957825D02*
X137860818Y-55545506D01*
X133366578Y-90489730D02*
X131679178Y-90489730D01*
X133367068Y-93648153D02*
X133366578Y-90489730D01*
X151555589Y-63661579D02*
X152338139Y-63661579D01*
X134060428Y-64414517D02*
X135747828Y-64414517D01*
X130832378Y-51487471D02*
X130832378Y-52387084D01*
X135479568Y-93648153D02*
X133367068Y-93648153D01*
X135479568Y-93060471D02*
X135479568Y-93648153D01*
X134697008Y-90030145D02*
X134697008Y-93060471D01*
X149174338Y-90030145D02*
X149174338Y-89052304D01*
X134060428Y-51487471D02*
X130832378Y-51487471D01*
X149956888Y-90030145D02*
X149174338Y-90030145D01*
X156178179Y-103475446D02*
X156178179Y-102517163D01*
X158672579Y-93648153D02*
X157865569Y-93648153D01*
X137078258Y-63661579D02*
X137860818Y-63661579D01*
X152338139Y-60630276D02*
X151555589Y-60630276D01*
X151555589Y-60630276D02*
X151555589Y-60043572D01*
X149956888Y-93060471D02*
X149956888Y-90030145D01*
X149174338Y-93060471D02*
X149956888Y-93060471D01*
X152950129Y-89590117D02*
X152950129Y-90489730D01*
X152950129Y-102517163D02*
X152950129Y-103475446D01*
X135748318Y-55545506D02*
X135747828Y-52387084D01*
X157865569Y-90489730D02*
X156178179Y-90489730D01*
X158672579Y-96386106D02*
X158672579Y-93648153D01*
X151262729Y-102517163D02*
X152950129Y-102517163D01*
X137860818Y-60043572D02*
X137860818Y-60630276D01*
X129144987Y-58283460D02*
X129144987Y-64414517D01*
X152950129Y-90489730D02*
X151262729Y-90489730D01*
X156178179Y-90489730D02*
X156178179Y-89590117D01*
X157865569Y-102517163D02*
X157865569Y-96386106D01*
X135747828Y-60043572D02*
X137860818Y-60043572D01*
X137860818Y-50949658D02*
X137860818Y-51927499D01*
X151555589Y-51927499D02*
X151555589Y-50949658D01*
X151555589Y-50949658D02*
X137860818Y-50949658D01*
X152338139Y-51927499D02*
X151555589Y-51927499D01*
X151555589Y-55545506D02*
X151555589Y-54957825D01*
X153643749Y-55545506D02*
X151555589Y-55545506D01*
X153643979Y-52387084D02*
X153643749Y-55545506D01*
X161053829Y-58283460D02*
X161053829Y-55545506D01*
X158559429Y-52387084D02*
X158559429Y-51487471D01*
X160246819Y-52387084D02*
X158559429Y-52387084D01*
X161053829Y-55545506D02*
X160246819Y-55545506D01*
X158559429Y-65372800D02*
X158559429Y-64414517D01*
X153643979Y-64414517D02*
X155331379Y-64414517D01*
X160246819Y-55545506D02*
X160246819Y-52387084D01*
X155331379Y-65372800D02*
X158559429Y-65372800D01*
X137078258Y-54957825D02*
X137860818Y-54957825D01*
X137078258Y-51927499D02*
X137078258Y-54957825D01*
X152338139Y-54957825D02*
X152338139Y-51927499D01*
X158559429Y-51487471D02*
X155331379Y-51487471D01*
X158559429Y-64414517D02*
X160246819Y-64414517D01*
X151555589Y-54957825D02*
X152338139Y-54957825D01*
X155331379Y-51487471D02*
X155331379Y-52387084D01*
X155331379Y-64414517D02*
X155331379Y-65372800D01*
X160246819Y-64414517D02*
X160246819Y-58283460D01*
X137860818Y-51927499D02*
X137078258Y-51927499D01*
X155331379Y-52387084D02*
X153643979Y-52387084D01*
X160246819Y-58283460D02*
X161053829Y-58283460D01*
X117110261Y-105996525D02*
X117097813Y-105808287D01*
X117097813Y-105808287D02*
X117065133Y-105640194D01*
X117065133Y-105640194D02*
X117016503Y-105487392D01*
X117016503Y-105487392D02*
X116954361Y-105347411D01*
X116954361Y-105347411D02*
X116881231Y-105220471D01*
X116881231Y-105220471D02*
X116796964Y-105103528D01*
X116796964Y-105103528D02*
X116703042Y-104997407D01*
X116703042Y-104997407D02*
X116691633Y-104985867D01*
X114670318Y-104985867D02*
X114575021Y-105091127D01*
X114575021Y-105091127D02*
X114490005Y-105206288D01*
X114490005Y-105206288D02*
X114415599Y-105331916D01*
X114415599Y-105331916D02*
X114352097Y-105470256D01*
X114352097Y-105470256D02*
X114301840Y-105621197D01*
X114301840Y-105621197D02*
X114267188Y-105786545D01*
X114267188Y-105786545D02*
X114251877Y-105973221D01*
X114251877Y-105973221D02*
X114251690Y-105996525D01*
X138941787Y-86757292D02*
X139037079Y-86652027D01*
X139037079Y-86652027D02*
X139122093Y-86536866D01*
X139122093Y-86536866D02*
X139196624Y-86410994D01*
X139196624Y-86410994D02*
X139259999Y-86272895D01*
X139259999Y-86272895D02*
X139310398Y-86121426D01*
X139310398Y-86121426D02*
X139345269Y-85954164D01*
X139345269Y-85954164D02*
X139360257Y-85767714D01*
X139360257Y-85767714D02*
X139360415Y-85746634D01*
X115680975Y-107425811D02*
X115869205Y-107413363D01*
X115869205Y-107413363D02*
X116037297Y-107380682D01*
X116037297Y-107380682D02*
X116190482Y-107331908D01*
X116190482Y-107331908D02*
X116329838Y-107270035D01*
X116329838Y-107270035D02*
X116457940Y-107196186D01*
X116457940Y-107196186D02*
X116574394Y-107112168D01*
X116574394Y-107112168D02*
X116681572Y-107017137D01*
X116681572Y-107017137D02*
X116691633Y-107007183D01*
X139360415Y-85746634D02*
X139347967Y-85558396D01*
X139347967Y-85558396D02*
X139315286Y-85390303D01*
X139315286Y-85390303D02*
X139266656Y-85237501D01*
X139266656Y-85237501D02*
X139204514Y-85097520D01*
X139204514Y-85097520D02*
X139131384Y-84970580D01*
X139131384Y-84970580D02*
X139047117Y-84853637D01*
X139047117Y-84853637D02*
X138953196Y-84747516D01*
X138953196Y-84747516D02*
X138941787Y-84735976D01*
X115680975Y-104567239D02*
X115492737Y-104579678D01*
X115492737Y-104579678D02*
X115325173Y-104612225D01*
X115325173Y-104612225D02*
X115172988Y-104660552D01*
X115172988Y-104660552D02*
X115034049Y-104722019D01*
X115034049Y-104722019D02*
X114906759Y-104795076D01*
X114906759Y-104795076D02*
X114789911Y-104878984D01*
X114789911Y-104878984D02*
X114683545Y-104972805D01*
X114683545Y-104972805D02*
X114670318Y-104985867D01*
X116691633Y-107007183D02*
X116786926Y-106901918D01*
X116786926Y-106901918D02*
X116871940Y-106786757D01*
X116871940Y-106786757D02*
X116946471Y-106660885D01*
X116946471Y-106660885D02*
X117009846Y-106522786D01*
X117009846Y-106522786D02*
X117060245Y-106371317D01*
X117060245Y-106371317D02*
X117095115Y-106204055D01*
X117095115Y-106204055D02*
X117110103Y-106017605D01*
X117110103Y-106017605D02*
X117110261Y-105996525D01*
X137931129Y-84317348D02*
X137742891Y-84329787D01*
X137742891Y-84329787D02*
X137575327Y-84362334D01*
X137575327Y-84362334D02*
X137423142Y-84410661D01*
X137423142Y-84410661D02*
X137284202Y-84472128D01*
X137284202Y-84472128D02*
X137156912Y-84545185D01*
X137156912Y-84545185D02*
X137040064Y-84629093D01*
X137040064Y-84629093D02*
X136933698Y-84722914D01*
X136933698Y-84722914D02*
X136920471Y-84735976D01*
X114670318Y-107007183D02*
X114775578Y-107102475D01*
X114775578Y-107102475D02*
X114890739Y-107187489D01*
X114890739Y-107187489D02*
X115016367Y-107261892D01*
X115016367Y-107261892D02*
X115155720Y-107325796D01*
X115155720Y-107325796D02*
X115306700Y-107375937D01*
X115306700Y-107375937D02*
X115473166Y-107410626D01*
X115473166Y-107410626D02*
X115659888Y-107425653D01*
X115659888Y-107425653D02*
X115680975Y-107425811D01*
X136920471Y-86757292D02*
X137025731Y-86852584D01*
X137025731Y-86852584D02*
X137140892Y-86937598D01*
X137140892Y-86937598D02*
X137266520Y-87012001D01*
X137266520Y-87012001D02*
X137405874Y-87075905D01*
X137405874Y-87075905D02*
X137556854Y-87126046D01*
X137556854Y-87126046D02*
X137723320Y-87160735D01*
X137723320Y-87160735D02*
X137910042Y-87175762D01*
X137910042Y-87175762D02*
X137931129Y-87175920D01*
X136920471Y-84735976D02*
X136825174Y-84841236D01*
X136825174Y-84841236D02*
X136740159Y-84956397D01*
X136740159Y-84956397D02*
X136665753Y-85082025D01*
X136665753Y-85082025D02*
X136602251Y-85220365D01*
X136602251Y-85220365D02*
X136551994Y-85371306D01*
X136551994Y-85371306D02*
X136517342Y-85536654D01*
X136517342Y-85536654D02*
X136502031Y-85723330D01*
X136502031Y-85723330D02*
X136501843Y-85746634D01*
X138941787Y-84735976D02*
X138836522Y-84640679D01*
X138836522Y-84640679D02*
X138721361Y-84555664D01*
X138721361Y-84555664D02*
X138595489Y-84481132D01*
X138595489Y-84481132D02*
X138454602Y-84416655D01*
X138454602Y-84416655D02*
X138303285Y-84366642D01*
X138303285Y-84366642D02*
X138137303Y-84332287D01*
X138137303Y-84332287D02*
X137949992Y-84317470D01*
X137949992Y-84317470D02*
X137931129Y-84317348D01*
X137931129Y-87175920D02*
X138119359Y-87163472D01*
X138119359Y-87163472D02*
X138287451Y-87130791D01*
X138287451Y-87130791D02*
X138440635Y-87082017D01*
X138440635Y-87082017D02*
X138579992Y-87020144D01*
X138579992Y-87020144D02*
X138708094Y-86946295D01*
X138708094Y-86946295D02*
X138824548Y-86862277D01*
X138824548Y-86862277D02*
X138931726Y-86767246D01*
X138931726Y-86767246D02*
X138941787Y-86757292D01*
X116691633Y-104985867D02*
X116586368Y-104890570D01*
X116586368Y-104890570D02*
X116471207Y-104805555D01*
X116471207Y-104805555D02*
X116345335Y-104731023D01*
X116345335Y-104731023D02*
X116204449Y-104666546D01*
X116204449Y-104666546D02*
X116053132Y-104616533D01*
X116053132Y-104616533D02*
X115887149Y-104582178D01*
X115887149Y-104582178D02*
X115699838Y-104567361D01*
X115699838Y-104567361D02*
X115680975Y-104567239D01*
X136501843Y-85746634D02*
X136514282Y-85934864D01*
X136514282Y-85934864D02*
X136547237Y-86104014D01*
X136547237Y-86104014D02*
X136595738Y-86256140D01*
X136595738Y-86256140D02*
X136657612Y-86395497D01*
X136657612Y-86395497D02*
X136730867Y-86522681D01*
X136730867Y-86522681D02*
X136814790Y-86639194D01*
X136814790Y-86639194D02*
X136909248Y-86745943D01*
X136909248Y-86745943D02*
X136920471Y-86757292D01*
X114251690Y-105996525D02*
X114264128Y-106184755D01*
X114264128Y-106184755D02*
X114297083Y-106353905D01*
X114297083Y-106353905D02*
X114345584Y-106506031D01*
X114345584Y-106506031D02*
X114407458Y-106645388D01*
X114407458Y-106645388D02*
X114480713Y-106772572D01*
X114480713Y-106772572D02*
X114564637Y-106889085D01*
X114564637Y-106889085D02*
X114659095Y-106995834D01*
X114659095Y-106995834D02*
X114670318Y-107007183D01*
X103892699Y-136852462D02*
X103892699Y-131180217D01*
X103892699Y-127172195D02*
X90202433Y-127172195D01*
X104674999Y-139883657D02*
X104674999Y-136852462D01*
X104674999Y-128149999D02*
X103892699Y-128149999D01*
X90202433Y-128149999D02*
X89420132Y-128149999D01*
X103892699Y-128149999D02*
X103892699Y-127172195D01*
X103892699Y-131180217D02*
X104674999Y-131180217D01*
X90202433Y-127172195D02*
X90202433Y-128149999D01*
X104674999Y-136852462D02*
X103892699Y-136852462D01*
X103892699Y-139883657D02*
X104674999Y-139883657D01*
X104674999Y-131180217D02*
X104674999Y-128149999D01*
X103892699Y-140861462D02*
X103892699Y-139883657D01*
X90202433Y-140861462D02*
X103892699Y-140861462D01*
X117995131Y-82733658D02*
X118777433Y-82733658D01*
X142589433Y-70022195D02*
X142589433Y-71000000D01*
X113417699Y-70022195D02*
X99727433Y-70022195D01*
X133250000Y-82733658D02*
X133250000Y-79702463D01*
X117995131Y-74031195D02*
X118777433Y-74031195D01*
X156279699Y-83711462D02*
X156279699Y-82733658D01*
X113417699Y-74031195D02*
X114200000Y-74031195D01*
X118777433Y-71000000D02*
X117995131Y-71000000D01*
X132467699Y-74031195D02*
X133250000Y-74031195D01*
X156279699Y-74031195D02*
X157062000Y-74031195D01*
X117995131Y-71000000D02*
X117995131Y-74031195D01*
X157062000Y-79702463D02*
X156279699Y-79702463D01*
X98945132Y-82733658D02*
X99727433Y-82733658D01*
X133250000Y-71000000D02*
X132467699Y-71000000D01*
X156279699Y-70022195D02*
X142589433Y-70022195D01*
X157062000Y-71000000D02*
X156279699Y-71000000D01*
X156279699Y-79702463D02*
X156279699Y-74031195D01*
X99727433Y-71000000D02*
X98945132Y-71000000D01*
X99727433Y-70022195D02*
X99727433Y-71000000D01*
X133250000Y-74031195D02*
X133250000Y-71000000D01*
X113417699Y-79702463D02*
X113417699Y-74031195D01*
X114200000Y-82733658D02*
X114200000Y-79702463D01*
X113417699Y-82733658D02*
X114200000Y-82733658D01*
X99727433Y-82733658D02*
X99727433Y-83711462D01*
X98945132Y-74031195D02*
X99727433Y-74031195D01*
X132467699Y-70022195D02*
X118777433Y-70022195D01*
X132467699Y-71000000D02*
X132467699Y-70022195D01*
X133250000Y-79702463D02*
X132467699Y-79702463D01*
X156279699Y-82733658D02*
X157062000Y-82733658D01*
X156279699Y-71000000D02*
X156279699Y-70022195D01*
X118777433Y-83711462D02*
X132467699Y-83711462D01*
X142589433Y-83711462D02*
X156279699Y-83711462D01*
X157062000Y-74031195D02*
X157062000Y-71000000D01*
X99727433Y-74031195D02*
X99727433Y-79702463D01*
X113417699Y-71000000D02*
X113417699Y-70022195D01*
X118777433Y-82733658D02*
X118777433Y-83711462D01*
X117995131Y-79702463D02*
X117995131Y-82733658D01*
X157062000Y-82733658D02*
X157062000Y-79702463D01*
X118777433Y-70022195D02*
X118777433Y-71000000D01*
X114200000Y-79702463D02*
X113417699Y-79702463D01*
X98945132Y-79702463D02*
X98945132Y-82733658D01*
X99727433Y-83711462D02*
X113417699Y-83711462D01*
X142589433Y-71000000D02*
X141807132Y-71000000D01*
X118777433Y-74031195D02*
X118777433Y-79702463D01*
X118777433Y-79702463D02*
X117995131Y-79702463D01*
X114200000Y-74031195D02*
X114200000Y-71000000D01*
X132467699Y-82733658D02*
X133250000Y-82733658D01*
X113417699Y-83711462D02*
X113417699Y-82733658D01*
X114200000Y-71000000D02*
X113417699Y-71000000D01*
X99727433Y-79702463D02*
X98945132Y-79702463D01*
X132467699Y-79702463D02*
X132467699Y-74031195D01*
X98945132Y-71000000D02*
X98945132Y-74031195D01*
X132467699Y-83711462D02*
X132467699Y-82733658D01*
X180875000Y-74031195D02*
X180875000Y-71000000D01*
X166402433Y-82733658D02*
X166402433Y-83711462D01*
X180092699Y-74031195D02*
X180875000Y-74031195D01*
X166402433Y-83711462D02*
X180092699Y-83711462D01*
X166402433Y-74031195D02*
X166402433Y-79702463D01*
X165620132Y-74031195D02*
X166402433Y-74031195D01*
X166402433Y-70022195D02*
X166402433Y-71000000D01*
X180092699Y-71000000D02*
X180092699Y-70022195D01*
X180092699Y-79702463D02*
X180092699Y-74031195D01*
X180875000Y-79702463D02*
X180092699Y-79702463D01*
X165620132Y-82733658D02*
X166402433Y-82733658D01*
X180092699Y-82733658D02*
X180875000Y-82733658D01*
X165620132Y-79702463D02*
X165620132Y-82733658D01*
X180875000Y-82733658D02*
X180875000Y-79702463D01*
X165620132Y-71000000D02*
X165620132Y-74031195D01*
X142589433Y-74031195D02*
X142589433Y-79702463D01*
X142589433Y-82733658D02*
X142589433Y-83711462D01*
X141807132Y-82733658D02*
X142589433Y-82733658D01*
X180092699Y-83711462D02*
X180092699Y-82733658D01*
X141807132Y-79702463D02*
X141807132Y-82733658D01*
X142589433Y-79702463D02*
X141807132Y-79702463D01*
X180875000Y-71000000D02*
X180092699Y-71000000D01*
X141807132Y-74031195D02*
X142589433Y-74031195D01*
X166402433Y-79702463D02*
X165620132Y-79702463D01*
X141807132Y-71000000D02*
X141807132Y-74031195D01*
X166402433Y-71000000D02*
X165620132Y-71000000D01*
X180092699Y-70022195D02*
X166402433Y-70022195D01*
X118179686Y-98752463D02*
X118179686Y-93081195D01*
X104489422Y-89072195D02*
X104489422Y-90050000D01*
X118961010Y-90050000D02*
X118179686Y-90050000D01*
X118961010Y-98752463D02*
X118179686Y-98752463D01*
X118179686Y-89072195D02*
X104489422Y-89072195D01*
X118179686Y-93081195D02*
X118961010Y-93081195D01*
X104489422Y-90050000D02*
X103707121Y-90050000D01*
X118179686Y-90050000D02*
X118179686Y-89072195D01*
X118961010Y-93081195D02*
X118961010Y-90050000D01*
X118961010Y-101783658D02*
X118961010Y-98752463D01*
X104489422Y-102761462D02*
X118179686Y-102761462D01*
X103707121Y-98752463D02*
X103707121Y-101783658D01*
X104489422Y-101783658D02*
X104489422Y-102761462D01*
X118179686Y-101783658D02*
X118961010Y-101783658D01*
X118179686Y-102761462D02*
X118179686Y-101783658D01*
X104489422Y-98752463D02*
X103707121Y-98752463D01*
X104489422Y-93081195D02*
X104489422Y-98752463D01*
X103707121Y-93081195D02*
X104489422Y-93081195D01*
X103707121Y-90050000D02*
X103707121Y-93081195D01*
X103707121Y-101783658D02*
X104489422Y-101783658D01*
X109437000Y-112130217D02*
X109437000Y-109099999D01*
X108654699Y-112130217D02*
X109437000Y-112130217D01*
X108654699Y-120833657D02*
X109437000Y-120833657D01*
X121158432Y-120833657D02*
X121158432Y-121811462D01*
X135631000Y-120833657D02*
X135631000Y-117802462D01*
X121158432Y-121811462D02*
X134848699Y-121811462D01*
X120376132Y-109099999D02*
X120376132Y-112130217D01*
X94182132Y-109099999D02*
X94182132Y-112130217D01*
X109437000Y-117802462D02*
X108654699Y-117802462D01*
X94964433Y-112130217D02*
X94964433Y-117802462D01*
X108654699Y-121811462D02*
X108654699Y-120833657D01*
X94964433Y-117802462D02*
X94182132Y-117802462D01*
X120376132Y-117802462D02*
X120376132Y-120833657D01*
X121158432Y-108122195D02*
X121158432Y-109099999D01*
X134848699Y-112130217D02*
X135631000Y-112130217D01*
X134848699Y-108122195D02*
X121158432Y-108122195D01*
X94182132Y-112130217D02*
X94964433Y-112130217D01*
X135631000Y-117802462D02*
X134848699Y-117802462D01*
X134848699Y-120833657D02*
X135631000Y-120833657D01*
X121158432Y-112130217D02*
X121158432Y-117802462D01*
X109437000Y-120833657D02*
X109437000Y-117802462D01*
X94964433Y-109099999D02*
X94182132Y-109099999D01*
X134848699Y-117802462D02*
X134848699Y-112130217D01*
X147352433Y-108122195D02*
X147352433Y-109099999D01*
X161825000Y-109099999D02*
X161042699Y-109099999D01*
X161042699Y-109099999D02*
X161042699Y-108122195D01*
X108654699Y-108122195D02*
X94964433Y-108122195D01*
X109437000Y-109099999D02*
X108654699Y-109099999D01*
X108654699Y-117802462D02*
X108654699Y-112130217D01*
X94964433Y-120833657D02*
X94964433Y-121811462D01*
X134848699Y-109099999D02*
X134848699Y-108122195D01*
X94964433Y-121811462D02*
X108654699Y-121811462D01*
X134848699Y-121811462D02*
X134848699Y-120833657D01*
X94182132Y-120833657D02*
X94964433Y-120833657D01*
X161042699Y-108122195D02*
X147352433Y-108122195D01*
X120376132Y-112130217D02*
X121158432Y-112130217D01*
X135631000Y-109099999D02*
X134848699Y-109099999D01*
X94182132Y-117802462D02*
X94182132Y-120833657D01*
X120376132Y-120833657D02*
X121158432Y-120833657D01*
X121158432Y-117802462D02*
X120376132Y-117802462D01*
X94964433Y-108122195D02*
X94964433Y-109099999D01*
X135631000Y-112130217D02*
X135631000Y-109099999D01*
X121158432Y-109099999D02*
X120376132Y-109099999D01*
X147352433Y-109099999D02*
X146570133Y-109099999D01*
X108654699Y-109099999D02*
X108654699Y-108122195D01*
X180092699Y-121811462D02*
X180092699Y-120833657D01*
X147352433Y-120833657D02*
X147352433Y-121811462D01*
X180092699Y-117802462D02*
X180092699Y-112130217D01*
X180092699Y-120833657D02*
X180875000Y-120833657D01*
X166402433Y-121811462D02*
X180092699Y-121811462D01*
X161042699Y-120833657D02*
X161825000Y-120833657D01*
X166402433Y-109099999D02*
X165620132Y-109099999D01*
X165620132Y-120833657D02*
X166402433Y-120833657D01*
X166402433Y-112130217D02*
X166402433Y-117802462D01*
X165620132Y-112130217D02*
X166402433Y-112130217D01*
X146570133Y-109099999D02*
X146570133Y-112130217D01*
X166402433Y-108122195D02*
X166402433Y-109099999D01*
X180875000Y-109099999D02*
X180092699Y-109099999D01*
X146570133Y-120833657D02*
X147352433Y-120833657D01*
X161825000Y-112130217D02*
X161825000Y-109099999D01*
X161042699Y-112130217D02*
X161825000Y-112130217D01*
X161042699Y-117802462D02*
X161042699Y-112130217D01*
X161825000Y-117802462D02*
X161042699Y-117802462D01*
X161825000Y-120833657D02*
X161825000Y-117802462D01*
X161042699Y-121811462D02*
X161042699Y-120833657D01*
X147352433Y-121811462D02*
X161042699Y-121811462D01*
X146570133Y-117802462D02*
X146570133Y-120833657D01*
X166402433Y-120833657D02*
X166402433Y-121811462D01*
X180875000Y-117802462D02*
X180092699Y-117802462D01*
X165620132Y-109099999D02*
X165620132Y-112130217D01*
X147352433Y-117802462D02*
X146570133Y-117802462D01*
X147352433Y-112130217D02*
X147352433Y-117802462D01*
X146570133Y-112130217D02*
X147352433Y-112130217D01*
X165620132Y-117802462D02*
X165620132Y-120833657D01*
X180092699Y-109099999D02*
X180092699Y-108122195D01*
X180092699Y-112130217D02*
X180875000Y-112130217D01*
X180875000Y-120833657D02*
X180875000Y-117802462D01*
X166402433Y-117802462D02*
X165620132Y-117802462D01*
X180092699Y-108122195D02*
X166402433Y-108122195D01*
X180875000Y-112130217D02*
X180875000Y-109099999D01*
D11*
X180000000Y-45000000D02*
G75*
G02X185000000Y-50000000I0J-5000000D01*
G01*
X185000000Y-140000000D02*
G75*
G02X180000000Y-145000000I-5000000J0D01*
G01*
X90000000Y-145000000D02*
G75*
G02X85000000Y-140000000I0J5000000D01*
G01*
X85000000Y-50000000D02*
G75*
G02X90000000Y-45000000I5000000J0D01*
G01*
X180000000Y-45000000D02*
X90000000Y-45000000D01*
X185000000Y-140000000D02*
X185000000Y-50000000D01*
X90000000Y-145000000D02*
X180000000Y-145000000D01*
X85000000Y-50000000D02*
X85000000Y-140000000D01*
M02*
