M48
; DRILL file {KiCad (5.1.6)-1} date 09/26/20 21:28:58
; FORMAT={-:-/ absolute / inch / decimal}
; #@! TF.CreationDate,2020-09-26T21:28:58-04:00
; #@! TF.GenerationSoftware,Kicad,Pcbnew,(5.1.6)-1
; #@! TF.FileFunction,NonPlated,1,2,NPTH
FMAT,2
INCH
T1C0.0669
T2C0.1575
%
G90
G05
T1
X4.6094Y-4.2717
X4.2094Y-5.0197
X4.6094Y-5.0197
X3.8614Y-3.52
X4.9575Y-3.52
X4.9575Y-5.0197
X5.3575Y-5.0197
X4.2094Y-3.52
X4.6094Y-3.52
X3.4614Y-4.2717
X3.8614Y-4.2717
X4.2094Y-4.2717
X3.4614Y-5.0197
X3.8614Y-5.0197
X3.4614Y-3.52
X5.3575Y-3.52
X4.9575Y-4.2717
X5.3575Y-4.2717
T2
X4.4094Y-3.52
X3.6614Y-4.2717
X4.4094Y-4.2717
X4.4094Y-5.0197
X3.6614Y-5.0197
X3.6614Y-3.52
X5.1575Y-3.52
X5.1575Y-4.2717
X5.1575Y-5.0197
T0
M30
