%TF.GenerationSoftware,KiCad,Pcbnew,(5.1.6)-1*%
%TF.CreationDate,2020-09-26T21:35:22-04:00*%
%TF.ProjectId,QAZ_testboard,51415a5f-7465-4737-9462-6f6172642e6b,v1.0*%
%TF.SameCoordinates,Original*%
%TF.FileFunction,Copper,L2,Bot*%
%TF.FilePolarity,Positive*%
%FSLAX46Y46*%
G04 Gerber Fmt 4.6, Leading zero omitted, Abs format (unit mm)*
G04 Created by KiCad (PCBNEW (5.1.6)-1) date 2020-09-26 21:35:22*
%MOMM*%
%LPD*%
G01*
G04 APERTURE LIST*
%TA.AperFunction,ComponentPad*%
%ADD10C,1.400000*%
%TD*%
%TA.AperFunction,ComponentPad*%
%ADD11R,1.650000X1.650000*%
%TD*%
%TA.AperFunction,ComponentPad*%
%ADD12C,2.200000*%
%TD*%
%TA.AperFunction,ComponentPad*%
%ADD13O,1.600000X1.600000*%
%TD*%
%TA.AperFunction,ComponentPad*%
%ADD14R,1.600000X1.600000*%
%TD*%
%TA.AperFunction,ComponentPad*%
%ADD15O,1.700000X1.700000*%
%TD*%
%TA.AperFunction,ComponentPad*%
%ADD16R,1.700000X1.700000*%
%TD*%
%TA.AperFunction,ComponentPad*%
%ADD17C,0.650000*%
%TD*%
%TA.AperFunction,ComponentPad*%
%ADD18O,0.900000X2.400000*%
%TD*%
%TA.AperFunction,ComponentPad*%
%ADD19O,0.900000X1.700000*%
%TD*%
%TA.AperFunction,ViaPad*%
%ADD20C,1.016000*%
%TD*%
%TA.AperFunction,ViaPad*%
%ADD21C,1.524000*%
%TD*%
%TA.AperFunction,Conductor*%
%ADD22C,0.762000*%
%TD*%
%TA.AperFunction,Conductor*%
%ADD23C,0.406400*%
%TD*%
%TA.AperFunction,Conductor*%
%ADD24C,0.250000*%
%TD*%
%TA.AperFunction,Conductor*%
%ADD25C,0.508000*%
%TD*%
%TA.AperFunction,Conductor*%
%ADD26C,0.635000*%
%TD*%
%TA.AperFunction,Conductor*%
%ADD27C,0.304800*%
%TD*%
%TA.AperFunction,Conductor*%
%ADD28C,0.254000*%
%TD*%
G04 APERTURE END LIST*
D10*
%TO.P,TP14,1*%
%TO.N,/USB_D+*%
X124968000Y-67564000D03*
%TD*%
%TO.P,TP13,1*%
%TO.N,/USB_D-*%
X124968000Y-63754000D03*
%TD*%
D11*
%TO.P,U3,21*%
%TO.N,GND*%
X162560000Y-118364000D03*
%TD*%
D10*
%TO.P,TP17,1*%
%TO.N,/RGB0_B*%
X157988000Y-128524000D03*
%TD*%
%TO.P,TP16,1*%
%TO.N,/RGB0_G*%
X157988000Y-126492000D03*
%TD*%
%TO.P,TP15,1*%
%TO.N,/RGB0_R*%
X157988000Y-124460000D03*
%TD*%
%TO.P,TP12,1*%
%TO.N,/CLKOUT*%
X163322000Y-66802000D03*
%TD*%
%TO.P,TP9,1*%
%TO.N,/LED_EN*%
X159004000Y-102108000D03*
%TD*%
%TO.P,TP11,1*%
%TO.N,/LED_SDA*%
X163576000Y-102108000D03*
%TD*%
%TO.P,TP10,1*%
%TO.N,/LED_SCL*%
X168148000Y-102108000D03*
%TD*%
%TO.P,TP8,1*%
%TO.N,/BOOT0*%
X152654000Y-74422000D03*
%TD*%
%TO.P,TP7,1*%
%TO.N,/nRESET*%
X143764000Y-56896000D03*
%TD*%
%TO.P,TP6,1*%
%TO.N,+3V3*%
X138684000Y-56896000D03*
%TD*%
%TO.P,TP5,1*%
%TO.N,Net-(C10-Pad2)*%
X135636000Y-52324000D03*
%TD*%
%TO.P,TP1,1*%
%TO.N,+5V*%
X106934000Y-43688000D03*
%TD*%
D12*
%TO.P,SW10,2*%
%TO.N,/QAZ Testboard Keys/ROW02*%
X127190000Y-124960000D03*
%TO.P,SW10,1*%
%TO.N,Net-(D9-Pad2)*%
X133540000Y-122420000D03*
%TD*%
%TO.P,SW9,2*%
%TO.N,/QAZ Testboard Keys/ROW01*%
X127190000Y-105960000D03*
%TO.P,SW9,1*%
%TO.N,Net-(D8-Pad2)*%
X133540000Y-103420000D03*
%TD*%
%TO.P,SW8,2*%
%TO.N,/QAZ Testboard Keys/ROW00*%
X127190000Y-86868000D03*
%TO.P,SW8,1*%
%TO.N,Net-(D7-Pad2)*%
X133540000Y-84328000D03*
%TD*%
%TO.P,SW7,2*%
%TO.N,/QAZ Testboard Keys/ROW02*%
X108190000Y-124960000D03*
%TO.P,SW7,1*%
%TO.N,Net-(D6-Pad2)*%
X114540000Y-122420000D03*
%TD*%
%TO.P,SW6,2*%
%TO.N,/QAZ Testboard Keys/ROW01*%
X108190000Y-105960000D03*
%TO.P,SW6,1*%
%TO.N,Net-(D5-Pad2)*%
X114540000Y-103420000D03*
%TD*%
%TO.P,SW5,2*%
%TO.N,/QAZ Testboard Keys/ROW00*%
X108190000Y-86868000D03*
%TO.P,SW5,1*%
%TO.N,Net-(D4-Pad2)*%
X114540000Y-84328000D03*
%TD*%
%TO.P,SW4,2*%
%TO.N,/QAZ Testboard Keys/ROW02*%
X89190000Y-124960000D03*
%TO.P,SW4,1*%
%TO.N,Net-(D3-Pad2)*%
X95540000Y-122420000D03*
%TD*%
%TO.P,SW3,2*%
%TO.N,/QAZ Testboard Keys/ROW01*%
X89190000Y-105960000D03*
%TO.P,SW3,1*%
%TO.N,Net-(D2-Pad2)*%
X95540000Y-103420000D03*
%TD*%
%TO.P,SW2,2*%
%TO.N,/QAZ Testboard Keys/ROW00*%
X89190000Y-86868000D03*
%TO.P,SW2,1*%
%TO.N,Net-(D1-Pad2)*%
X95540000Y-84328000D03*
%TD*%
%TO.P,R15,2*%
%TO.N,Net-(CN1-PadB5)*%
%TA.AperFunction,SMDPad,CuDef*%
G36*
G01*
X96362000Y-46719500D02*
X96362000Y-46244500D01*
G75*
G02*
X96599500Y-46007000I237500J0D01*
G01*
X97174500Y-46007000D01*
G75*
G02*
X97412000Y-46244500I0J-237500D01*
G01*
X97412000Y-46719500D01*
G75*
G02*
X97174500Y-46957000I-237500J0D01*
G01*
X96599500Y-46957000D01*
G75*
G02*
X96362000Y-46719500I0J237500D01*
G01*
G37*
%TD.AperFunction*%
%TO.P,R15,1*%
%TO.N,GND*%
%TA.AperFunction,SMDPad,CuDef*%
G36*
G01*
X94612000Y-46719500D02*
X94612000Y-46244500D01*
G75*
G02*
X94849500Y-46007000I237500J0D01*
G01*
X95424500Y-46007000D01*
G75*
G02*
X95662000Y-46244500I0J-237500D01*
G01*
X95662000Y-46719500D01*
G75*
G02*
X95424500Y-46957000I-237500J0D01*
G01*
X94849500Y-46957000D01*
G75*
G02*
X94612000Y-46719500I0J237500D01*
G01*
G37*
%TD.AperFunction*%
%TD*%
%TO.P,R12,2*%
%TO.N,Net-(CN1-PadA5)*%
%TA.AperFunction,SMDPad,CuDef*%
G36*
G01*
X95662000Y-41418500D02*
X95662000Y-41893500D01*
G75*
G02*
X95424500Y-42131000I-237500J0D01*
G01*
X94849500Y-42131000D01*
G75*
G02*
X94612000Y-41893500I0J237500D01*
G01*
X94612000Y-41418500D01*
G75*
G02*
X94849500Y-41181000I237500J0D01*
G01*
X95424500Y-41181000D01*
G75*
G02*
X95662000Y-41418500I0J-237500D01*
G01*
G37*
%TD.AperFunction*%
%TO.P,R12,1*%
%TO.N,GND*%
%TA.AperFunction,SMDPad,CuDef*%
G36*
G01*
X97412000Y-41418500D02*
X97412000Y-41893500D01*
G75*
G02*
X97174500Y-42131000I-237500J0D01*
G01*
X96599500Y-42131000D01*
G75*
G02*
X96362000Y-41893500I0J237500D01*
G01*
X96362000Y-41418500D01*
G75*
G02*
X96599500Y-41181000I237500J0D01*
G01*
X97174500Y-41181000D01*
G75*
G02*
X97412000Y-41418500I0J-237500D01*
G01*
G37*
%TD.AperFunction*%
%TD*%
D13*
%TO.P,D9,2*%
%TO.N,Net-(D9-Pad2)*%
X139500000Y-122380000D03*
D14*
%TO.P,D9,1*%
%TO.N,/QAZ Testboard Keys/COL02*%
X139500000Y-130000000D03*
%TD*%
D13*
%TO.P,D8,2*%
%TO.N,Net-(D8-Pad2)*%
X139500000Y-103380000D03*
D14*
%TO.P,D8,1*%
%TO.N,/QAZ Testboard Keys/COL02*%
X139500000Y-111000000D03*
%TD*%
D13*
%TO.P,D7,2*%
%TO.N,Net-(D7-Pad2)*%
X139500000Y-84380000D03*
D14*
%TO.P,D7,1*%
%TO.N,/QAZ Testboard Keys/COL02*%
X139500000Y-92000000D03*
%TD*%
D13*
%TO.P,D6,2*%
%TO.N,Net-(D6-Pad2)*%
X120500000Y-122380000D03*
D14*
%TO.P,D6,1*%
%TO.N,/QAZ Testboard Keys/COL01*%
X120500000Y-130000000D03*
%TD*%
D13*
%TO.P,D5,2*%
%TO.N,Net-(D5-Pad2)*%
X120500000Y-103380000D03*
D14*
%TO.P,D5,1*%
%TO.N,/QAZ Testboard Keys/COL01*%
X120500000Y-111000000D03*
%TD*%
D13*
%TO.P,D4,2*%
%TO.N,Net-(D4-Pad2)*%
X120500000Y-84380000D03*
D14*
%TO.P,D4,1*%
%TO.N,/QAZ Testboard Keys/COL01*%
X120500000Y-92000000D03*
%TD*%
D13*
%TO.P,D3,2*%
%TO.N,Net-(D3-Pad2)*%
X101600000Y-122380000D03*
D14*
%TO.P,D3,1*%
%TO.N,/QAZ Testboard Keys/COL00*%
X101600000Y-130000000D03*
%TD*%
D13*
%TO.P,D2,2*%
%TO.N,Net-(D2-Pad2)*%
X101500000Y-103380000D03*
D14*
%TO.P,D2,1*%
%TO.N,/QAZ Testboard Keys/COL00*%
X101500000Y-111000000D03*
%TD*%
D13*
%TO.P,D1,2*%
%TO.N,Net-(D1-Pad2)*%
X101500000Y-84380000D03*
D14*
%TO.P,D1,1*%
%TO.N,/QAZ Testboard Keys/COL00*%
X101500000Y-92000000D03*
%TD*%
D15*
%TO.P,CN3,4*%
%TO.N,GND*%
X165608000Y-54356000D03*
%TO.P,CN3,3*%
%TO.N,+3V3*%
X163068000Y-54356000D03*
%TO.P,CN3,2*%
%TO.N,/QAZ External Connections/DBG_TX*%
X165608000Y-51816000D03*
D16*
%TO.P,CN3,1*%
%TO.N,/QAZ External Connections/DBG_RX*%
X163068000Y-51816000D03*
%TD*%
D15*
%TO.P,CN2,6*%
%TO.N,GND*%
X149860000Y-54356000D03*
%TO.P,CN2,5*%
%TO.N,/QAZ External Connections/nRESET*%
X149860000Y-51816000D03*
%TO.P,CN2,4*%
%TO.N,/QAZ External Connections/SWDIO*%
X152400000Y-54356000D03*
%TO.P,CN2,3*%
%TO.N,Net-(CN2-Pad3)*%
X152400000Y-51816000D03*
%TO.P,CN2,2*%
%TO.N,/QAZ External Connections/SWCLK*%
X154940000Y-54356000D03*
D16*
%TO.P,CN2,1*%
%TO.N,+3V3*%
X154940000Y-51816000D03*
%TD*%
D17*
%TO.P,CN1,A5*%
%TO.N,Net-(CN1-PadA5)*%
X94689000Y-43408000D03*
%TO.P,CN1,A1*%
%TO.N,GND*%
X92989000Y-43408000D03*
%TO.P,CN1,A4*%
%TO.N,+5V*%
X93839000Y-43408000D03*
%TO.P,CN1,A6*%
%TO.N,/QAZ External Connections/USB_D+*%
X95539000Y-43408000D03*
%TO.P,CN1,A7*%
%TO.N,/QAZ External Connections/USB_D-*%
X96389000Y-43408000D03*
%TO.P,CN1,A8*%
%TO.N,Net-(CN1-PadA8)*%
X97239000Y-43408000D03*
%TO.P,CN1,A9*%
%TO.N,+5V*%
X98089000Y-43408000D03*
%TO.P,CN1,A12*%
%TO.N,GND*%
X98939000Y-43408000D03*
%TO.P,CN1,B12*%
X92989000Y-44733000D03*
%TO.P,CN1,B9*%
%TO.N,+5V*%
X93844000Y-44733000D03*
%TO.P,CN1,B8*%
%TO.N,Net-(CN1-PadB8)*%
X94694000Y-44733000D03*
%TO.P,CN1,B7*%
%TO.N,/QAZ External Connections/USB_D-*%
X95544000Y-44733000D03*
%TO.P,CN1,B6*%
%TO.N,/QAZ External Connections/USB_D+*%
X96394000Y-44733000D03*
%TO.P,CN1,B5*%
%TO.N,Net-(CN1-PadB5)*%
X97244000Y-44733000D03*
%TO.P,CN1,B4*%
%TO.N,+5V*%
X98094000Y-44733000D03*
%TO.P,CN1,B1*%
%TO.N,GND*%
X98944000Y-44733000D03*
D18*
%TO.P,CN1,S1*%
X91639000Y-44388000D03*
X100289000Y-44388000D03*
D19*
X91639000Y-47768000D03*
X100289000Y-47768000D03*
%TD*%
D20*
%TO.N,GND*%
X160528000Y-71120000D03*
X164084000Y-72644000D03*
X161036000Y-76200000D03*
X107950000Y-60198000D03*
X107950000Y-56134000D03*
X107950000Y-52070000D03*
X86360000Y-50292000D03*
X166624000Y-134620000D03*
X168148000Y-113792000D03*
X159258000Y-115570000D03*
X156972000Y-113284000D03*
X124714000Y-51562000D03*
X122428000Y-51816000D03*
D21*
X127000000Y-50292000D03*
D20*
X131572000Y-51308000D03*
X160444000Y-99484000D03*
X152484000Y-99484000D03*
X155702000Y-81534000D03*
X149352000Y-85344000D03*
X159004000Y-74676000D03*
X153162000Y-57404000D03*
X172212000Y-57150000D03*
X148731000Y-78091000D03*
%TO.N,/LED_SDA*%
X170688000Y-72136000D03*
X170688000Y-76708000D03*
%TO.N,/nRESET*%
X145796000Y-72390000D03*
X145796000Y-60452000D03*
%TO.N,/DBG_RX*%
X161251210Y-64008000D03*
X161251210Y-60667210D03*
%TO.N,/DBG_TX*%
X162560000Y-65024000D03*
X164592000Y-60960000D03*
%TO.N,/SWDIO*%
X147320000Y-67564000D03*
X147320000Y-60452000D03*
%TO.N,/SWCLK*%
X152908000Y-68580000D03*
X153416000Y-60452000D03*
%TD*%
D22*
%TO.N,GND*%
X98952401Y-44512599D02*
X98952401Y-44733000D01*
X100289000Y-44388000D02*
X99077000Y-44388000D01*
X99077000Y-44388000D02*
X98952401Y-44512599D01*
X91639000Y-44388000D02*
X92851000Y-44388000D01*
X92985599Y-44522599D02*
X92985599Y-44733000D01*
X92851000Y-44388000D02*
X92985599Y-44522599D01*
D23*
%TO.N,Net-(CN1-PadA5)*%
X94689000Y-42104000D02*
X94689000Y-43408000D01*
X95137000Y-41656000D02*
X94689000Y-42104000D01*
D24*
%TO.N,/QAZ External Connections/USB_D+*%
X95539000Y-43520002D02*
X95539000Y-43408000D01*
X96394000Y-44375002D02*
X95539000Y-43520002D01*
X96394000Y-44733000D02*
X96394000Y-44375002D01*
D23*
%TO.N,Net-(CN1-PadB5)*%
X97244000Y-46125000D02*
X97244000Y-44733000D01*
X96887000Y-46482000D02*
X97244000Y-46125000D01*
D25*
%TO.N,Net-(D1-Pad2)*%
X101448000Y-84328000D02*
X101500000Y-84380000D01*
D26*
%TO.N,Net-(D3-Pad2)*%
X101560000Y-122420000D02*
X101600000Y-122380000D01*
D25*
%TO.N,Net-(D4-Pad2)*%
X120448000Y-84328000D02*
X120500000Y-84380000D01*
%TO.N,Net-(D5-Pad2)*%
X120460000Y-103420000D02*
X120500000Y-103380000D01*
%TO.N,Net-(D6-Pad2)*%
X120460000Y-122420000D02*
X120500000Y-122380000D01*
%TO.N,Net-(D7-Pad2)*%
X139448000Y-84328000D02*
X139500000Y-84380000D01*
%TO.N,Net-(D8-Pad2)*%
X139460000Y-103420000D02*
X139500000Y-103380000D01*
D26*
%TO.N,Net-(D9-Pad2)*%
X139460000Y-122420000D02*
X139500000Y-122380000D01*
D25*
%TO.N,/LED_SDA*%
X170688000Y-72136000D02*
X170688000Y-76708000D01*
%TO.N,/QAZ Testboard Keys/ROW00*%
X89190000Y-86868000D02*
X108190000Y-86868000D01*
X108190000Y-86868000D02*
X127190000Y-86868000D01*
%TO.N,/QAZ Testboard Keys/ROW01*%
X89190000Y-105960000D02*
X108190000Y-105960000D01*
X108190000Y-105960000D02*
X127190000Y-105960000D01*
%TO.N,/QAZ Testboard Keys/ROW02*%
X89190000Y-124960000D02*
X108190000Y-124960000D01*
X108190000Y-124960000D02*
X127190000Y-124960000D01*
X127190000Y-124960000D02*
X127190000Y-124270000D01*
%TO.N,/nRESET*%
X145796000Y-67564000D02*
X145796000Y-60452000D01*
X145796000Y-60452000D02*
X145796000Y-60452000D01*
X145796000Y-67564000D02*
X145796000Y-72390000D01*
D27*
%TO.N,/DBG_RX*%
X161251210Y-60667210D02*
X161251210Y-60667210D01*
D25*
X161251210Y-60667210D02*
X161251210Y-64008000D01*
%TO.N,/DBG_TX*%
X162560000Y-62992000D02*
X164592000Y-60960000D01*
D27*
X164592000Y-60960000D02*
X164592000Y-60960000D01*
D25*
X162560000Y-62992000D02*
X162560000Y-65024000D01*
%TO.N,/SWDIO*%
X147320000Y-67564000D02*
X147320000Y-60452000D01*
X147828000Y-60452000D02*
X147828000Y-60452000D01*
%TO.N,/SWCLK*%
X152908000Y-68580000D02*
X152908000Y-60960000D01*
X152908000Y-60960000D02*
X153416000Y-60452000D01*
X153416000Y-60452000D02*
X153416000Y-60452000D01*
%TD*%
D28*
%TO.N,GND*%
G36*
X94363058Y-40690488D02*
G01*
X94230377Y-40799377D01*
X94121488Y-40932058D01*
X94040577Y-41083433D01*
X93990752Y-41247684D01*
X93973928Y-41418500D01*
X93973928Y-41663689D01*
X93910858Y-41781684D01*
X93862929Y-41939685D01*
X93850800Y-42062831D01*
X93850800Y-42062837D01*
X93846746Y-42104000D01*
X93850800Y-42145163D01*
X93850800Y-42448000D01*
X93744448Y-42448000D01*
X93558978Y-42484892D01*
X93413580Y-42545118D01*
X93274008Y-42486419D01*
X93088740Y-42448525D01*
X92899639Y-42447503D01*
X92713972Y-42483392D01*
X92538874Y-42554813D01*
X92529677Y-42559730D01*
X92516069Y-42755464D01*
X92911361Y-43150756D01*
X92879000Y-43313448D01*
X92879000Y-43502552D01*
X92879829Y-43506719D01*
X92795253Y-43422143D01*
X92809395Y-43408000D01*
X92659225Y-43257830D01*
X92592809Y-43105455D01*
X92470587Y-42929609D01*
X92316408Y-42780986D01*
X92136197Y-42665298D01*
X91933001Y-42593592D01*
X91766000Y-42720498D01*
X91766000Y-44261000D01*
X92323073Y-44261000D01*
X92140730Y-44273677D01*
X92067419Y-44447992D01*
X92053713Y-44515000D01*
X91766000Y-44515000D01*
X91766000Y-46055502D01*
X91933001Y-46182408D01*
X92136197Y-46110702D01*
X92316408Y-45995014D01*
X92470587Y-45846391D01*
X92592809Y-45670545D01*
X92615913Y-45617538D01*
X92703992Y-45654581D01*
X92889260Y-45692475D01*
X93078361Y-45693497D01*
X93264028Y-45657608D01*
X93416981Y-45595220D01*
X93563978Y-45656108D01*
X93749448Y-45693000D01*
X93938552Y-45693000D01*
X94074245Y-45666009D01*
X94022498Y-45762820D01*
X93986188Y-45882518D01*
X93973928Y-46007000D01*
X93977000Y-46196250D01*
X94135750Y-46355000D01*
X95010000Y-46355000D01*
X95010000Y-46335000D01*
X95264000Y-46335000D01*
X95264000Y-46355000D01*
X95284000Y-46355000D01*
X95284000Y-46609000D01*
X95264000Y-46609000D01*
X95264000Y-47433250D01*
X95422750Y-47592000D01*
X95662000Y-47595072D01*
X95786482Y-47582812D01*
X95906180Y-47546502D01*
X96016494Y-47487537D01*
X96089161Y-47427901D01*
X96113058Y-47447512D01*
X96264433Y-47528423D01*
X96428684Y-47578248D01*
X96599500Y-47595072D01*
X97174500Y-47595072D01*
X97345316Y-47578248D01*
X97509567Y-47528423D01*
X97660942Y-47447512D01*
X97793623Y-47338623D01*
X97873740Y-47241000D01*
X99204000Y-47241000D01*
X99204000Y-47641000D01*
X100162000Y-47641000D01*
X100162000Y-46450498D01*
X100416000Y-46450498D01*
X100416000Y-47641000D01*
X101374000Y-47641000D01*
X101374000Y-47241000D01*
X101328376Y-47031767D01*
X101242809Y-46835455D01*
X101120587Y-46659609D01*
X100966408Y-46510986D01*
X100786197Y-46395298D01*
X100583001Y-46323592D01*
X100416000Y-46450498D01*
X100162000Y-46450498D01*
X99994999Y-46323592D01*
X99791803Y-46395298D01*
X99611592Y-46510986D01*
X99457413Y-46659609D01*
X99335191Y-46835455D01*
X99249624Y-47031767D01*
X99204000Y-47241000D01*
X97873740Y-47241000D01*
X97902512Y-47205942D01*
X97983423Y-47054567D01*
X98033248Y-46890316D01*
X98050072Y-46719500D01*
X98050072Y-46355244D01*
X98070071Y-46289316D01*
X98082200Y-46166170D01*
X98082200Y-46166161D01*
X98086254Y-46125001D01*
X98082200Y-46083841D01*
X98082200Y-45693000D01*
X98188552Y-45693000D01*
X98374022Y-45656108D01*
X98519420Y-45595882D01*
X98658992Y-45654581D01*
X98844260Y-45692475D01*
X99033361Y-45693497D01*
X99219028Y-45657608D01*
X99312868Y-45619331D01*
X99335191Y-45670545D01*
X99457413Y-45846391D01*
X99611592Y-45995014D01*
X99791803Y-46110702D01*
X99994999Y-46182408D01*
X100162000Y-46055502D01*
X100162000Y-44515000D01*
X100416000Y-44515000D01*
X100416000Y-46055502D01*
X100583001Y-46182408D01*
X100786197Y-46110702D01*
X100966408Y-45995014D01*
X101120587Y-45846391D01*
X101242809Y-45670545D01*
X101328376Y-45474233D01*
X101374000Y-45265000D01*
X101374000Y-44515000D01*
X100416000Y-44515000D01*
X100162000Y-44515000D01*
X99879631Y-44515000D01*
X99868608Y-44457972D01*
X99797187Y-44282874D01*
X99792270Y-44273677D01*
X99609927Y-44261000D01*
X100162000Y-44261000D01*
X100162000Y-42720498D01*
X100416000Y-42720498D01*
X100416000Y-44261000D01*
X101374000Y-44261000D01*
X101374000Y-43556514D01*
X105599000Y-43556514D01*
X105599000Y-43819486D01*
X105650304Y-44077405D01*
X105750939Y-44320359D01*
X105897038Y-44539013D01*
X106082987Y-44724962D01*
X106301641Y-44871061D01*
X106544595Y-44971696D01*
X106802514Y-45023000D01*
X107065486Y-45023000D01*
X107323405Y-44971696D01*
X107566359Y-44871061D01*
X107785013Y-44724962D01*
X107970962Y-44539013D01*
X108117061Y-44320359D01*
X108217696Y-44077405D01*
X108269000Y-43819486D01*
X108269000Y-43556514D01*
X108217696Y-43298595D01*
X108117061Y-43055641D01*
X107970962Y-42836987D01*
X107785013Y-42651038D01*
X107566359Y-42504939D01*
X107323405Y-42404304D01*
X107065486Y-42353000D01*
X106802514Y-42353000D01*
X106544595Y-42404304D01*
X106301641Y-42504939D01*
X106082987Y-42651038D01*
X105897038Y-42836987D01*
X105750939Y-43055641D01*
X105650304Y-43298595D01*
X105599000Y-43556514D01*
X101374000Y-43556514D01*
X101374000Y-43511000D01*
X101328376Y-43301767D01*
X101242809Y-43105455D01*
X101120587Y-42929609D01*
X100966408Y-42780986D01*
X100786197Y-42665298D01*
X100583001Y-42593592D01*
X100416000Y-42720498D01*
X100162000Y-42720498D01*
X99994999Y-42593592D01*
X99791803Y-42665298D01*
X99611592Y-42780986D01*
X99457413Y-42929609D01*
X99335191Y-43105455D01*
X99268775Y-43257830D01*
X99118605Y-43408000D01*
X99132748Y-43422143D01*
X99048171Y-43506719D01*
X99049000Y-43502552D01*
X99049000Y-43313448D01*
X99016639Y-43150756D01*
X99411931Y-42755464D01*
X99398323Y-42559730D01*
X99224008Y-42486419D01*
X99038740Y-42448525D01*
X98849639Y-42447503D01*
X98663972Y-42483392D01*
X98513538Y-42544753D01*
X98369022Y-42484892D01*
X98183552Y-42448000D01*
X97994448Y-42448000D01*
X97958787Y-42455093D01*
X98001502Y-42375180D01*
X98037812Y-42255482D01*
X98050072Y-42131000D01*
X98047000Y-41941750D01*
X97888250Y-41783000D01*
X97014000Y-41783000D01*
X97014000Y-41803000D01*
X96760000Y-41803000D01*
X96760000Y-41783000D01*
X96740000Y-41783000D01*
X96740000Y-41529000D01*
X96760000Y-41529000D01*
X96760000Y-41509000D01*
X97014000Y-41509000D01*
X97014000Y-41529000D01*
X97888250Y-41529000D01*
X98047000Y-41370250D01*
X98050072Y-41181000D01*
X98037812Y-41056518D01*
X98001502Y-40936820D01*
X97942537Y-40826506D01*
X97863185Y-40729815D01*
X97778115Y-40660000D01*
X174970608Y-40660000D01*
X175768083Y-40731173D01*
X176511891Y-40934656D01*
X177207905Y-41266638D01*
X177834130Y-41716626D01*
X178370777Y-42270403D01*
X178800871Y-42910451D01*
X179110829Y-43616553D01*
X179292065Y-44371457D01*
X179340000Y-45024207D01*
X179340001Y-134970597D01*
X179268827Y-135768083D01*
X179065344Y-136511890D01*
X178733363Y-137207904D01*
X178283374Y-137834130D01*
X177729597Y-138370777D01*
X177089549Y-138800871D01*
X176383447Y-139110829D01*
X175628543Y-139292065D01*
X174975793Y-139340000D01*
X85029392Y-139340000D01*
X84231917Y-139268827D01*
X83488110Y-139065344D01*
X82792096Y-138733363D01*
X82165870Y-138283374D01*
X81629223Y-137729597D01*
X81199129Y-137089549D01*
X80889171Y-136383447D01*
X80707935Y-135628543D01*
X80660000Y-134975793D01*
X80660000Y-127353740D01*
X86435000Y-127353740D01*
X86435000Y-127646260D01*
X86492068Y-127933158D01*
X86604010Y-128203411D01*
X86766525Y-128446632D01*
X86973368Y-128653475D01*
X87216589Y-128815990D01*
X87486842Y-128927932D01*
X87773740Y-128985000D01*
X88066260Y-128985000D01*
X88353158Y-128927932D01*
X88623411Y-128815990D01*
X88866632Y-128653475D01*
X89073475Y-128446632D01*
X89235990Y-128203411D01*
X89347932Y-127933158D01*
X89405000Y-127646260D01*
X89405000Y-127353740D01*
X89347932Y-127066842D01*
X89235990Y-126796589D01*
X89168110Y-126695000D01*
X89360883Y-126695000D01*
X89696081Y-126628325D01*
X90011831Y-126497537D01*
X90295998Y-126307663D01*
X90537663Y-126065998D01*
X90682656Y-125849000D01*
X90934075Y-125849000D01*
X90664893Y-126251859D01*
X90466261Y-126731399D01*
X90365000Y-127240475D01*
X90365000Y-127759525D01*
X90466261Y-128268601D01*
X90664893Y-128748141D01*
X90953262Y-129179715D01*
X91320285Y-129546738D01*
X91751859Y-129835107D01*
X92231399Y-130033739D01*
X92740475Y-130135000D01*
X93259525Y-130135000D01*
X93768601Y-130033739D01*
X94248141Y-129835107D01*
X94679715Y-129546738D01*
X95026453Y-129200000D01*
X100161928Y-129200000D01*
X100161928Y-130800000D01*
X100174188Y-130924482D01*
X100210498Y-131044180D01*
X100269463Y-131154494D01*
X100348815Y-131251185D01*
X100445506Y-131330537D01*
X100555820Y-131389502D01*
X100675518Y-131425812D01*
X100800000Y-131438072D01*
X102400000Y-131438072D01*
X102524482Y-131425812D01*
X102644180Y-131389502D01*
X102754494Y-131330537D01*
X102851185Y-131251185D01*
X102930537Y-131154494D01*
X102989502Y-131044180D01*
X103025812Y-130924482D01*
X103038072Y-130800000D01*
X103038072Y-129200000D01*
X103025812Y-129075518D01*
X102989502Y-128955820D01*
X102930537Y-128845506D01*
X102851185Y-128748815D01*
X102754494Y-128669463D01*
X102644180Y-128610498D01*
X102524482Y-128574188D01*
X102400000Y-128561928D01*
X100800000Y-128561928D01*
X100675518Y-128574188D01*
X100555820Y-128610498D01*
X100445506Y-128669463D01*
X100348815Y-128748815D01*
X100269463Y-128845506D01*
X100210498Y-128955820D01*
X100174188Y-129075518D01*
X100161928Y-129200000D01*
X95026453Y-129200000D01*
X95046738Y-129179715D01*
X95335107Y-128748141D01*
X95533739Y-128268601D01*
X95635000Y-127759525D01*
X95635000Y-127353740D01*
X96595000Y-127353740D01*
X96595000Y-127646260D01*
X96652068Y-127933158D01*
X96764010Y-128203411D01*
X96926525Y-128446632D01*
X97133368Y-128653475D01*
X97376589Y-128815990D01*
X97646842Y-128927932D01*
X97933740Y-128985000D01*
X98226260Y-128985000D01*
X98513158Y-128927932D01*
X98783411Y-128815990D01*
X99026632Y-128653475D01*
X99233475Y-128446632D01*
X99395990Y-128203411D01*
X99507932Y-127933158D01*
X99565000Y-127646260D01*
X99565000Y-127353740D01*
X99507932Y-127066842D01*
X99395990Y-126796589D01*
X99233475Y-126553368D01*
X99026632Y-126346525D01*
X98783411Y-126184010D01*
X98513158Y-126072068D01*
X98226260Y-126015000D01*
X97933740Y-126015000D01*
X97646842Y-126072068D01*
X97376589Y-126184010D01*
X97133368Y-126346525D01*
X96926525Y-126553368D01*
X96764010Y-126796589D01*
X96652068Y-127066842D01*
X96595000Y-127353740D01*
X95635000Y-127353740D01*
X95635000Y-127240475D01*
X95533739Y-126731399D01*
X95335107Y-126251859D01*
X95065925Y-125849000D01*
X106697344Y-125849000D01*
X106808261Y-126015000D01*
X106773740Y-126015000D01*
X106486842Y-126072068D01*
X106216589Y-126184010D01*
X105973368Y-126346525D01*
X105766525Y-126553368D01*
X105604010Y-126796589D01*
X105492068Y-127066842D01*
X105435000Y-127353740D01*
X105435000Y-127646260D01*
X105492068Y-127933158D01*
X105604010Y-128203411D01*
X105766525Y-128446632D01*
X105973368Y-128653475D01*
X106216589Y-128815990D01*
X106486842Y-128927932D01*
X106773740Y-128985000D01*
X107066260Y-128985000D01*
X107353158Y-128927932D01*
X107623411Y-128815990D01*
X107866632Y-128653475D01*
X108073475Y-128446632D01*
X108235990Y-128203411D01*
X108347932Y-127933158D01*
X108405000Y-127646260D01*
X108405000Y-127353740D01*
X108347932Y-127066842D01*
X108235990Y-126796589D01*
X108168110Y-126695000D01*
X108360883Y-126695000D01*
X108696081Y-126628325D01*
X109011831Y-126497537D01*
X109295998Y-126307663D01*
X109537663Y-126065998D01*
X109682656Y-125849000D01*
X109934075Y-125849000D01*
X109664893Y-126251859D01*
X109466261Y-126731399D01*
X109365000Y-127240475D01*
X109365000Y-127759525D01*
X109466261Y-128268601D01*
X109664893Y-128748141D01*
X109953262Y-129179715D01*
X110320285Y-129546738D01*
X110751859Y-129835107D01*
X111231399Y-130033739D01*
X111740475Y-130135000D01*
X112259525Y-130135000D01*
X112768601Y-130033739D01*
X113248141Y-129835107D01*
X113679715Y-129546738D01*
X114026453Y-129200000D01*
X119061928Y-129200000D01*
X119061928Y-130800000D01*
X119074188Y-130924482D01*
X119110498Y-131044180D01*
X119169463Y-131154494D01*
X119248815Y-131251185D01*
X119345506Y-131330537D01*
X119455820Y-131389502D01*
X119575518Y-131425812D01*
X119700000Y-131438072D01*
X121300000Y-131438072D01*
X121424482Y-131425812D01*
X121544180Y-131389502D01*
X121654494Y-131330537D01*
X121751185Y-131251185D01*
X121830537Y-131154494D01*
X121889502Y-131044180D01*
X121925812Y-130924482D01*
X121938072Y-130800000D01*
X121938072Y-129200000D01*
X121925812Y-129075518D01*
X121889502Y-128955820D01*
X121830537Y-128845506D01*
X121751185Y-128748815D01*
X121654494Y-128669463D01*
X121544180Y-128610498D01*
X121424482Y-128574188D01*
X121300000Y-128561928D01*
X119700000Y-128561928D01*
X119575518Y-128574188D01*
X119455820Y-128610498D01*
X119345506Y-128669463D01*
X119248815Y-128748815D01*
X119169463Y-128845506D01*
X119110498Y-128955820D01*
X119074188Y-129075518D01*
X119061928Y-129200000D01*
X114026453Y-129200000D01*
X114046738Y-129179715D01*
X114335107Y-128748141D01*
X114533739Y-128268601D01*
X114635000Y-127759525D01*
X114635000Y-127353740D01*
X115595000Y-127353740D01*
X115595000Y-127646260D01*
X115652068Y-127933158D01*
X115764010Y-128203411D01*
X115926525Y-128446632D01*
X116133368Y-128653475D01*
X116376589Y-128815990D01*
X116646842Y-128927932D01*
X116933740Y-128985000D01*
X117226260Y-128985000D01*
X117513158Y-128927932D01*
X117783411Y-128815990D01*
X118026632Y-128653475D01*
X118233475Y-128446632D01*
X118395990Y-128203411D01*
X118507932Y-127933158D01*
X118565000Y-127646260D01*
X118565000Y-127353740D01*
X118507932Y-127066842D01*
X118395990Y-126796589D01*
X118233475Y-126553368D01*
X118026632Y-126346525D01*
X117783411Y-126184010D01*
X117513158Y-126072068D01*
X117226260Y-126015000D01*
X116933740Y-126015000D01*
X116646842Y-126072068D01*
X116376589Y-126184010D01*
X116133368Y-126346525D01*
X115926525Y-126553368D01*
X115764010Y-126796589D01*
X115652068Y-127066842D01*
X115595000Y-127353740D01*
X114635000Y-127353740D01*
X114635000Y-127240475D01*
X114533739Y-126731399D01*
X114335107Y-126251859D01*
X114065925Y-125849000D01*
X125697344Y-125849000D01*
X125808261Y-126015000D01*
X125773740Y-126015000D01*
X125486842Y-126072068D01*
X125216589Y-126184010D01*
X124973368Y-126346525D01*
X124766525Y-126553368D01*
X124604010Y-126796589D01*
X124492068Y-127066842D01*
X124435000Y-127353740D01*
X124435000Y-127646260D01*
X124492068Y-127933158D01*
X124604010Y-128203411D01*
X124766525Y-128446632D01*
X124973368Y-128653475D01*
X125216589Y-128815990D01*
X125486842Y-128927932D01*
X125773740Y-128985000D01*
X126066260Y-128985000D01*
X126353158Y-128927932D01*
X126623411Y-128815990D01*
X126866632Y-128653475D01*
X127073475Y-128446632D01*
X127235990Y-128203411D01*
X127347932Y-127933158D01*
X127405000Y-127646260D01*
X127405000Y-127353740D01*
X127382471Y-127240475D01*
X128365000Y-127240475D01*
X128365000Y-127759525D01*
X128466261Y-128268601D01*
X128664893Y-128748141D01*
X128953262Y-129179715D01*
X129320285Y-129546738D01*
X129751859Y-129835107D01*
X130231399Y-130033739D01*
X130740475Y-130135000D01*
X131259525Y-130135000D01*
X131768601Y-130033739D01*
X132248141Y-129835107D01*
X132679715Y-129546738D01*
X133026453Y-129200000D01*
X138061928Y-129200000D01*
X138061928Y-130800000D01*
X138074188Y-130924482D01*
X138110498Y-131044180D01*
X138169463Y-131154494D01*
X138248815Y-131251185D01*
X138345506Y-131330537D01*
X138455820Y-131389502D01*
X138575518Y-131425812D01*
X138700000Y-131438072D01*
X140300000Y-131438072D01*
X140424482Y-131425812D01*
X140544180Y-131389502D01*
X140654494Y-131330537D01*
X140751185Y-131251185D01*
X140830537Y-131154494D01*
X140889502Y-131044180D01*
X140925812Y-130924482D01*
X140938072Y-130800000D01*
X140938072Y-129200000D01*
X140925812Y-129075518D01*
X140889502Y-128955820D01*
X140830537Y-128845506D01*
X140751185Y-128748815D01*
X140654494Y-128669463D01*
X140544180Y-128610498D01*
X140424482Y-128574188D01*
X140300000Y-128561928D01*
X138700000Y-128561928D01*
X138575518Y-128574188D01*
X138455820Y-128610498D01*
X138345506Y-128669463D01*
X138248815Y-128748815D01*
X138169463Y-128845506D01*
X138110498Y-128955820D01*
X138074188Y-129075518D01*
X138061928Y-129200000D01*
X133026453Y-129200000D01*
X133046738Y-129179715D01*
X133335107Y-128748141D01*
X133533739Y-128268601D01*
X133635000Y-127759525D01*
X133635000Y-127353740D01*
X134595000Y-127353740D01*
X134595000Y-127646260D01*
X134652068Y-127933158D01*
X134764010Y-128203411D01*
X134926525Y-128446632D01*
X135133368Y-128653475D01*
X135376589Y-128815990D01*
X135646842Y-128927932D01*
X135933740Y-128985000D01*
X136226260Y-128985000D01*
X136513158Y-128927932D01*
X136783411Y-128815990D01*
X137026632Y-128653475D01*
X137233475Y-128446632D01*
X137395990Y-128203411D01*
X137507932Y-127933158D01*
X137565000Y-127646260D01*
X137565000Y-127353740D01*
X137507932Y-127066842D01*
X137395990Y-126796589D01*
X137233475Y-126553368D01*
X137026632Y-126346525D01*
X136783411Y-126184010D01*
X136513158Y-126072068D01*
X136226260Y-126015000D01*
X135933740Y-126015000D01*
X135646842Y-126072068D01*
X135376589Y-126184010D01*
X135133368Y-126346525D01*
X134926525Y-126553368D01*
X134764010Y-126796589D01*
X134652068Y-127066842D01*
X134595000Y-127353740D01*
X133635000Y-127353740D01*
X133635000Y-127240475D01*
X133533739Y-126731399D01*
X133335107Y-126251859D01*
X133046738Y-125820285D01*
X132679715Y-125453262D01*
X132248141Y-125164893D01*
X131768601Y-124966261D01*
X131259525Y-124865000D01*
X130740475Y-124865000D01*
X130231399Y-124966261D01*
X129751859Y-125164893D01*
X129320285Y-125453262D01*
X128953262Y-125820285D01*
X128664893Y-126251859D01*
X128466261Y-126731399D01*
X128365000Y-127240475D01*
X127382471Y-127240475D01*
X127347932Y-127066842D01*
X127235990Y-126796589D01*
X127168110Y-126695000D01*
X127360883Y-126695000D01*
X127696081Y-126628325D01*
X128011831Y-126497537D01*
X128295998Y-126307663D01*
X128537663Y-126065998D01*
X128727537Y-125781831D01*
X128858325Y-125466081D01*
X128925000Y-125130883D01*
X128925000Y-124789117D01*
X128858325Y-124453919D01*
X128806381Y-124328514D01*
X156653000Y-124328514D01*
X156653000Y-124591486D01*
X156704304Y-124849405D01*
X156804939Y-125092359D01*
X156951038Y-125311013D01*
X157116025Y-125476000D01*
X156951038Y-125640987D01*
X156804939Y-125859641D01*
X156704304Y-126102595D01*
X156653000Y-126360514D01*
X156653000Y-126623486D01*
X156704304Y-126881405D01*
X156804939Y-127124359D01*
X156951038Y-127343013D01*
X157116025Y-127508000D01*
X156951038Y-127672987D01*
X156804939Y-127891641D01*
X156704304Y-128134595D01*
X156653000Y-128392514D01*
X156653000Y-128655486D01*
X156704304Y-128913405D01*
X156804939Y-129156359D01*
X156951038Y-129375013D01*
X157136987Y-129560962D01*
X157355641Y-129707061D01*
X157598595Y-129807696D01*
X157856514Y-129859000D01*
X158119486Y-129859000D01*
X158377405Y-129807696D01*
X158620359Y-129707061D01*
X158839013Y-129560962D01*
X159024962Y-129375013D01*
X159171061Y-129156359D01*
X159271696Y-128913405D01*
X159323000Y-128655486D01*
X159323000Y-128392514D01*
X159271696Y-128134595D01*
X159171061Y-127891641D01*
X159024962Y-127672987D01*
X158859975Y-127508000D01*
X159024962Y-127343013D01*
X159171061Y-127124359D01*
X159271696Y-126881405D01*
X159323000Y-126623486D01*
X159323000Y-126360514D01*
X159271696Y-126102595D01*
X159171061Y-125859641D01*
X159024962Y-125640987D01*
X158859975Y-125476000D01*
X159024962Y-125311013D01*
X159171061Y-125092359D01*
X159271696Y-124849405D01*
X159323000Y-124591486D01*
X159323000Y-124328514D01*
X159271696Y-124070595D01*
X159171061Y-123827641D01*
X159024962Y-123608987D01*
X158839013Y-123423038D01*
X158620359Y-123276939D01*
X158377405Y-123176304D01*
X158119486Y-123125000D01*
X157856514Y-123125000D01*
X157598595Y-123176304D01*
X157355641Y-123276939D01*
X157136987Y-123423038D01*
X156951038Y-123608987D01*
X156804939Y-123827641D01*
X156704304Y-124070595D01*
X156653000Y-124328514D01*
X128806381Y-124328514D01*
X128727537Y-124138169D01*
X128537663Y-123854002D01*
X128295998Y-123612337D01*
X128011831Y-123422463D01*
X127696081Y-123291675D01*
X127360883Y-123225000D01*
X127019117Y-123225000D01*
X126683919Y-123291675D01*
X126368169Y-123422463D01*
X126084002Y-123612337D01*
X125842337Y-123854002D01*
X125697344Y-124071000D01*
X115087907Y-124071000D01*
X115361831Y-123957537D01*
X115645998Y-123767663D01*
X115887663Y-123525998D01*
X116077537Y-123241831D01*
X116208325Y-122926081D01*
X116275000Y-122590883D01*
X116275000Y-122249117D01*
X116272921Y-122238665D01*
X119065000Y-122238665D01*
X119065000Y-122521335D01*
X119120147Y-122798574D01*
X119228320Y-123059727D01*
X119385363Y-123294759D01*
X119585241Y-123494637D01*
X119820273Y-123651680D01*
X120081426Y-123759853D01*
X120358665Y-123815000D01*
X120641335Y-123815000D01*
X120918574Y-123759853D01*
X121179727Y-123651680D01*
X121414759Y-123494637D01*
X121614637Y-123294759D01*
X121771680Y-123059727D01*
X121879853Y-122798574D01*
X121935000Y-122521335D01*
X121935000Y-122249117D01*
X131805000Y-122249117D01*
X131805000Y-122590883D01*
X131871675Y-122926081D01*
X132002463Y-123241831D01*
X132192337Y-123525998D01*
X132434002Y-123767663D01*
X132718169Y-123957537D01*
X133033919Y-124088325D01*
X133369117Y-124155000D01*
X133710883Y-124155000D01*
X134046081Y-124088325D01*
X134361831Y-123957537D01*
X134645998Y-123767663D01*
X134887663Y-123525998D01*
X135077537Y-123241831D01*
X135208325Y-122926081D01*
X135275000Y-122590883D01*
X135275000Y-122249117D01*
X135272921Y-122238665D01*
X138065000Y-122238665D01*
X138065000Y-122521335D01*
X138120147Y-122798574D01*
X138228320Y-123059727D01*
X138385363Y-123294759D01*
X138585241Y-123494637D01*
X138820273Y-123651680D01*
X139081426Y-123759853D01*
X139358665Y-123815000D01*
X139641335Y-123815000D01*
X139918574Y-123759853D01*
X140179727Y-123651680D01*
X140414759Y-123494637D01*
X140614637Y-123294759D01*
X140771680Y-123059727D01*
X140879853Y-122798574D01*
X140935000Y-122521335D01*
X140935000Y-122238665D01*
X140879853Y-121961426D01*
X140771680Y-121700273D01*
X140614637Y-121465241D01*
X140414759Y-121265363D01*
X140179727Y-121108320D01*
X139918574Y-121000147D01*
X139641335Y-120945000D01*
X139358665Y-120945000D01*
X139081426Y-121000147D01*
X138820273Y-121108320D01*
X138585241Y-121265363D01*
X138385363Y-121465241D01*
X138228320Y-121700273D01*
X138120147Y-121961426D01*
X138065000Y-122238665D01*
X135272921Y-122238665D01*
X135208325Y-121913919D01*
X135077537Y-121598169D01*
X134887663Y-121314002D01*
X134645998Y-121072337D01*
X134361831Y-120882463D01*
X134046081Y-120751675D01*
X133710883Y-120685000D01*
X133369117Y-120685000D01*
X133033919Y-120751675D01*
X132718169Y-120882463D01*
X132434002Y-121072337D01*
X132192337Y-121314002D01*
X132002463Y-121598169D01*
X131871675Y-121913919D01*
X131805000Y-122249117D01*
X121935000Y-122249117D01*
X121935000Y-122238665D01*
X121879853Y-121961426D01*
X121771680Y-121700273D01*
X121614637Y-121465241D01*
X121414759Y-121265363D01*
X121179727Y-121108320D01*
X120918574Y-121000147D01*
X120641335Y-120945000D01*
X120358665Y-120945000D01*
X120081426Y-121000147D01*
X119820273Y-121108320D01*
X119585241Y-121265363D01*
X119385363Y-121465241D01*
X119228320Y-121700273D01*
X119120147Y-121961426D01*
X119065000Y-122238665D01*
X116272921Y-122238665D01*
X116208325Y-121913919D01*
X116077537Y-121598169D01*
X115887663Y-121314002D01*
X115645998Y-121072337D01*
X115361831Y-120882463D01*
X115046081Y-120751675D01*
X114710883Y-120685000D01*
X114369117Y-120685000D01*
X114033919Y-120751675D01*
X113718169Y-120882463D01*
X113434002Y-121072337D01*
X113192337Y-121314002D01*
X113002463Y-121598169D01*
X112871675Y-121913919D01*
X112805000Y-122249117D01*
X112805000Y-122590883D01*
X112871675Y-122926081D01*
X113002463Y-123241831D01*
X113192337Y-123525998D01*
X113434002Y-123767663D01*
X113718169Y-123957537D01*
X113992093Y-124071000D01*
X109682656Y-124071000D01*
X109537663Y-123854002D01*
X109295998Y-123612337D01*
X109011831Y-123422463D01*
X108696081Y-123291675D01*
X108360883Y-123225000D01*
X108019117Y-123225000D01*
X107683919Y-123291675D01*
X107368169Y-123422463D01*
X107084002Y-123612337D01*
X106842337Y-123854002D01*
X106697344Y-124071000D01*
X96087907Y-124071000D01*
X96361831Y-123957537D01*
X96645998Y-123767663D01*
X96887663Y-123525998D01*
X97077537Y-123241831D01*
X97208325Y-122926081D01*
X97275000Y-122590883D01*
X97275000Y-122249117D01*
X97272921Y-122238665D01*
X100165000Y-122238665D01*
X100165000Y-122521335D01*
X100220147Y-122798574D01*
X100328320Y-123059727D01*
X100485363Y-123294759D01*
X100685241Y-123494637D01*
X100920273Y-123651680D01*
X101181426Y-123759853D01*
X101458665Y-123815000D01*
X101741335Y-123815000D01*
X102018574Y-123759853D01*
X102279727Y-123651680D01*
X102514759Y-123494637D01*
X102714637Y-123294759D01*
X102871680Y-123059727D01*
X102979853Y-122798574D01*
X103035000Y-122521335D01*
X103035000Y-122238665D01*
X102979853Y-121961426D01*
X102871680Y-121700273D01*
X102714637Y-121465241D01*
X102514759Y-121265363D01*
X102279727Y-121108320D01*
X102018574Y-121000147D01*
X101741335Y-120945000D01*
X101458665Y-120945000D01*
X101181426Y-121000147D01*
X100920273Y-121108320D01*
X100685241Y-121265363D01*
X100485363Y-121465241D01*
X100328320Y-121700273D01*
X100220147Y-121961426D01*
X100165000Y-122238665D01*
X97272921Y-122238665D01*
X97208325Y-121913919D01*
X97077537Y-121598169D01*
X96887663Y-121314002D01*
X96645998Y-121072337D01*
X96361831Y-120882463D01*
X96046081Y-120751675D01*
X95710883Y-120685000D01*
X95369117Y-120685000D01*
X95033919Y-120751675D01*
X94718169Y-120882463D01*
X94434002Y-121072337D01*
X94192337Y-121314002D01*
X94002463Y-121598169D01*
X93871675Y-121913919D01*
X93805000Y-122249117D01*
X93805000Y-122590883D01*
X93871675Y-122926081D01*
X94002463Y-123241831D01*
X94192337Y-123525998D01*
X94434002Y-123767663D01*
X94718169Y-123957537D01*
X94992093Y-124071000D01*
X90682656Y-124071000D01*
X90537663Y-123854002D01*
X90295998Y-123612337D01*
X90011831Y-123422463D01*
X89696081Y-123291675D01*
X89360883Y-123225000D01*
X89019117Y-123225000D01*
X88683919Y-123291675D01*
X88368169Y-123422463D01*
X88084002Y-123612337D01*
X87842337Y-123854002D01*
X87652463Y-124138169D01*
X87521675Y-124453919D01*
X87455000Y-124789117D01*
X87455000Y-125130883D01*
X87521675Y-125466081D01*
X87652463Y-125781831D01*
X87808261Y-126015000D01*
X87773740Y-126015000D01*
X87486842Y-126072068D01*
X87216589Y-126184010D01*
X86973368Y-126346525D01*
X86766525Y-126553368D01*
X86604010Y-126796589D01*
X86492068Y-127066842D01*
X86435000Y-127353740D01*
X80660000Y-127353740D01*
X80660000Y-119189000D01*
X161096928Y-119189000D01*
X161109188Y-119313482D01*
X161145498Y-119433180D01*
X161204463Y-119543494D01*
X161283815Y-119640185D01*
X161380506Y-119719537D01*
X161490820Y-119778502D01*
X161610518Y-119814812D01*
X161735000Y-119827072D01*
X162274250Y-119824000D01*
X162433000Y-119665250D01*
X162433000Y-118491000D01*
X162687000Y-118491000D01*
X162687000Y-119665250D01*
X162845750Y-119824000D01*
X163385000Y-119827072D01*
X163509482Y-119814812D01*
X163629180Y-119778502D01*
X163739494Y-119719537D01*
X163836185Y-119640185D01*
X163915537Y-119543494D01*
X163974502Y-119433180D01*
X164010812Y-119313482D01*
X164023072Y-119189000D01*
X164020000Y-118649750D01*
X163861250Y-118491000D01*
X162687000Y-118491000D01*
X162433000Y-118491000D01*
X161258750Y-118491000D01*
X161100000Y-118649750D01*
X161096928Y-119189000D01*
X80660000Y-119189000D01*
X80660000Y-117539000D01*
X161096928Y-117539000D01*
X161100000Y-118078250D01*
X161258750Y-118237000D01*
X162433000Y-118237000D01*
X162433000Y-117062750D01*
X162687000Y-117062750D01*
X162687000Y-118237000D01*
X163861250Y-118237000D01*
X164020000Y-118078250D01*
X164023072Y-117539000D01*
X164010812Y-117414518D01*
X163974502Y-117294820D01*
X163915537Y-117184506D01*
X163836185Y-117087815D01*
X163739494Y-117008463D01*
X163629180Y-116949498D01*
X163509482Y-116913188D01*
X163385000Y-116900928D01*
X162845750Y-116904000D01*
X162687000Y-117062750D01*
X162433000Y-117062750D01*
X162274250Y-116904000D01*
X161735000Y-116900928D01*
X161610518Y-116913188D01*
X161490820Y-116949498D01*
X161380506Y-117008463D01*
X161283815Y-117087815D01*
X161204463Y-117184506D01*
X161145498Y-117294820D01*
X161109188Y-117414518D01*
X161096928Y-117539000D01*
X80660000Y-117539000D01*
X80660000Y-108353740D01*
X86435000Y-108353740D01*
X86435000Y-108646260D01*
X86492068Y-108933158D01*
X86604010Y-109203411D01*
X86766525Y-109446632D01*
X86973368Y-109653475D01*
X87216589Y-109815990D01*
X87486842Y-109927932D01*
X87773740Y-109985000D01*
X88066260Y-109985000D01*
X88353158Y-109927932D01*
X88623411Y-109815990D01*
X88866632Y-109653475D01*
X89073475Y-109446632D01*
X89235990Y-109203411D01*
X89347932Y-108933158D01*
X89405000Y-108646260D01*
X89405000Y-108353740D01*
X89347932Y-108066842D01*
X89235990Y-107796589D01*
X89168110Y-107695000D01*
X89360883Y-107695000D01*
X89696081Y-107628325D01*
X90011831Y-107497537D01*
X90295998Y-107307663D01*
X90537663Y-107065998D01*
X90682656Y-106849000D01*
X90934075Y-106849000D01*
X90664893Y-107251859D01*
X90466261Y-107731399D01*
X90365000Y-108240475D01*
X90365000Y-108759525D01*
X90466261Y-109268601D01*
X90664893Y-109748141D01*
X90953262Y-110179715D01*
X91320285Y-110546738D01*
X91751859Y-110835107D01*
X92231399Y-111033739D01*
X92740475Y-111135000D01*
X93259525Y-111135000D01*
X93768601Y-111033739D01*
X94248141Y-110835107D01*
X94679715Y-110546738D01*
X95026453Y-110200000D01*
X100061928Y-110200000D01*
X100061928Y-111800000D01*
X100074188Y-111924482D01*
X100110498Y-112044180D01*
X100169463Y-112154494D01*
X100248815Y-112251185D01*
X100345506Y-112330537D01*
X100455820Y-112389502D01*
X100575518Y-112425812D01*
X100700000Y-112438072D01*
X102300000Y-112438072D01*
X102424482Y-112425812D01*
X102544180Y-112389502D01*
X102654494Y-112330537D01*
X102751185Y-112251185D01*
X102830537Y-112154494D01*
X102889502Y-112044180D01*
X102925812Y-111924482D01*
X102938072Y-111800000D01*
X102938072Y-110200000D01*
X102925812Y-110075518D01*
X102889502Y-109955820D01*
X102830537Y-109845506D01*
X102751185Y-109748815D01*
X102654494Y-109669463D01*
X102544180Y-109610498D01*
X102424482Y-109574188D01*
X102300000Y-109561928D01*
X100700000Y-109561928D01*
X100575518Y-109574188D01*
X100455820Y-109610498D01*
X100345506Y-109669463D01*
X100248815Y-109748815D01*
X100169463Y-109845506D01*
X100110498Y-109955820D01*
X100074188Y-110075518D01*
X100061928Y-110200000D01*
X95026453Y-110200000D01*
X95046738Y-110179715D01*
X95335107Y-109748141D01*
X95533739Y-109268601D01*
X95635000Y-108759525D01*
X95635000Y-108353740D01*
X96595000Y-108353740D01*
X96595000Y-108646260D01*
X96652068Y-108933158D01*
X96764010Y-109203411D01*
X96926525Y-109446632D01*
X97133368Y-109653475D01*
X97376589Y-109815990D01*
X97646842Y-109927932D01*
X97933740Y-109985000D01*
X98226260Y-109985000D01*
X98513158Y-109927932D01*
X98783411Y-109815990D01*
X99026632Y-109653475D01*
X99233475Y-109446632D01*
X99395990Y-109203411D01*
X99507932Y-108933158D01*
X99565000Y-108646260D01*
X99565000Y-108353740D01*
X99507932Y-108066842D01*
X99395990Y-107796589D01*
X99233475Y-107553368D01*
X99026632Y-107346525D01*
X98783411Y-107184010D01*
X98513158Y-107072068D01*
X98226260Y-107015000D01*
X97933740Y-107015000D01*
X97646842Y-107072068D01*
X97376589Y-107184010D01*
X97133368Y-107346525D01*
X96926525Y-107553368D01*
X96764010Y-107796589D01*
X96652068Y-108066842D01*
X96595000Y-108353740D01*
X95635000Y-108353740D01*
X95635000Y-108240475D01*
X95533739Y-107731399D01*
X95335107Y-107251859D01*
X95065925Y-106849000D01*
X106697344Y-106849000D01*
X106808261Y-107015000D01*
X106773740Y-107015000D01*
X106486842Y-107072068D01*
X106216589Y-107184010D01*
X105973368Y-107346525D01*
X105766525Y-107553368D01*
X105604010Y-107796589D01*
X105492068Y-108066842D01*
X105435000Y-108353740D01*
X105435000Y-108646260D01*
X105492068Y-108933158D01*
X105604010Y-109203411D01*
X105766525Y-109446632D01*
X105973368Y-109653475D01*
X106216589Y-109815990D01*
X106486842Y-109927932D01*
X106773740Y-109985000D01*
X107066260Y-109985000D01*
X107353158Y-109927932D01*
X107623411Y-109815990D01*
X107866632Y-109653475D01*
X108073475Y-109446632D01*
X108235990Y-109203411D01*
X108347932Y-108933158D01*
X108405000Y-108646260D01*
X108405000Y-108353740D01*
X108347932Y-108066842D01*
X108235990Y-107796589D01*
X108168110Y-107695000D01*
X108360883Y-107695000D01*
X108696081Y-107628325D01*
X109011831Y-107497537D01*
X109295998Y-107307663D01*
X109537663Y-107065998D01*
X109682656Y-106849000D01*
X109934075Y-106849000D01*
X109664893Y-107251859D01*
X109466261Y-107731399D01*
X109365000Y-108240475D01*
X109365000Y-108759525D01*
X109466261Y-109268601D01*
X109664893Y-109748141D01*
X109953262Y-110179715D01*
X110320285Y-110546738D01*
X110751859Y-110835107D01*
X111231399Y-111033739D01*
X111740475Y-111135000D01*
X112259525Y-111135000D01*
X112768601Y-111033739D01*
X113248141Y-110835107D01*
X113679715Y-110546738D01*
X114026453Y-110200000D01*
X119061928Y-110200000D01*
X119061928Y-111800000D01*
X119074188Y-111924482D01*
X119110498Y-112044180D01*
X119169463Y-112154494D01*
X119248815Y-112251185D01*
X119345506Y-112330537D01*
X119455820Y-112389502D01*
X119575518Y-112425812D01*
X119700000Y-112438072D01*
X121300000Y-112438072D01*
X121424482Y-112425812D01*
X121544180Y-112389502D01*
X121654494Y-112330537D01*
X121751185Y-112251185D01*
X121830537Y-112154494D01*
X121889502Y-112044180D01*
X121925812Y-111924482D01*
X121938072Y-111800000D01*
X121938072Y-110200000D01*
X121925812Y-110075518D01*
X121889502Y-109955820D01*
X121830537Y-109845506D01*
X121751185Y-109748815D01*
X121654494Y-109669463D01*
X121544180Y-109610498D01*
X121424482Y-109574188D01*
X121300000Y-109561928D01*
X119700000Y-109561928D01*
X119575518Y-109574188D01*
X119455820Y-109610498D01*
X119345506Y-109669463D01*
X119248815Y-109748815D01*
X119169463Y-109845506D01*
X119110498Y-109955820D01*
X119074188Y-110075518D01*
X119061928Y-110200000D01*
X114026453Y-110200000D01*
X114046738Y-110179715D01*
X114335107Y-109748141D01*
X114533739Y-109268601D01*
X114635000Y-108759525D01*
X114635000Y-108353740D01*
X115595000Y-108353740D01*
X115595000Y-108646260D01*
X115652068Y-108933158D01*
X115764010Y-109203411D01*
X115926525Y-109446632D01*
X116133368Y-109653475D01*
X116376589Y-109815990D01*
X116646842Y-109927932D01*
X116933740Y-109985000D01*
X117226260Y-109985000D01*
X117513158Y-109927932D01*
X117783411Y-109815990D01*
X118026632Y-109653475D01*
X118233475Y-109446632D01*
X118395990Y-109203411D01*
X118507932Y-108933158D01*
X118565000Y-108646260D01*
X118565000Y-108353740D01*
X118507932Y-108066842D01*
X118395990Y-107796589D01*
X118233475Y-107553368D01*
X118026632Y-107346525D01*
X117783411Y-107184010D01*
X117513158Y-107072068D01*
X117226260Y-107015000D01*
X116933740Y-107015000D01*
X116646842Y-107072068D01*
X116376589Y-107184010D01*
X116133368Y-107346525D01*
X115926525Y-107553368D01*
X115764010Y-107796589D01*
X115652068Y-108066842D01*
X115595000Y-108353740D01*
X114635000Y-108353740D01*
X114635000Y-108240475D01*
X114533739Y-107731399D01*
X114335107Y-107251859D01*
X114065925Y-106849000D01*
X125697344Y-106849000D01*
X125808261Y-107015000D01*
X125773740Y-107015000D01*
X125486842Y-107072068D01*
X125216589Y-107184010D01*
X124973368Y-107346525D01*
X124766525Y-107553368D01*
X124604010Y-107796589D01*
X124492068Y-108066842D01*
X124435000Y-108353740D01*
X124435000Y-108646260D01*
X124492068Y-108933158D01*
X124604010Y-109203411D01*
X124766525Y-109446632D01*
X124973368Y-109653475D01*
X125216589Y-109815990D01*
X125486842Y-109927932D01*
X125773740Y-109985000D01*
X126066260Y-109985000D01*
X126353158Y-109927932D01*
X126623411Y-109815990D01*
X126866632Y-109653475D01*
X127073475Y-109446632D01*
X127235990Y-109203411D01*
X127347932Y-108933158D01*
X127405000Y-108646260D01*
X127405000Y-108353740D01*
X127382471Y-108240475D01*
X128365000Y-108240475D01*
X128365000Y-108759525D01*
X128466261Y-109268601D01*
X128664893Y-109748141D01*
X128953262Y-110179715D01*
X129320285Y-110546738D01*
X129751859Y-110835107D01*
X130231399Y-111033739D01*
X130740475Y-111135000D01*
X131259525Y-111135000D01*
X131768601Y-111033739D01*
X132248141Y-110835107D01*
X132679715Y-110546738D01*
X133026453Y-110200000D01*
X138061928Y-110200000D01*
X138061928Y-111800000D01*
X138074188Y-111924482D01*
X138110498Y-112044180D01*
X138169463Y-112154494D01*
X138248815Y-112251185D01*
X138345506Y-112330537D01*
X138455820Y-112389502D01*
X138575518Y-112425812D01*
X138700000Y-112438072D01*
X140300000Y-112438072D01*
X140424482Y-112425812D01*
X140544180Y-112389502D01*
X140654494Y-112330537D01*
X140751185Y-112251185D01*
X140830537Y-112154494D01*
X140889502Y-112044180D01*
X140925812Y-111924482D01*
X140938072Y-111800000D01*
X140938072Y-110200000D01*
X140925812Y-110075518D01*
X140889502Y-109955820D01*
X140830537Y-109845506D01*
X140751185Y-109748815D01*
X140654494Y-109669463D01*
X140544180Y-109610498D01*
X140424482Y-109574188D01*
X140300000Y-109561928D01*
X138700000Y-109561928D01*
X138575518Y-109574188D01*
X138455820Y-109610498D01*
X138345506Y-109669463D01*
X138248815Y-109748815D01*
X138169463Y-109845506D01*
X138110498Y-109955820D01*
X138074188Y-110075518D01*
X138061928Y-110200000D01*
X133026453Y-110200000D01*
X133046738Y-110179715D01*
X133335107Y-109748141D01*
X133533739Y-109268601D01*
X133635000Y-108759525D01*
X133635000Y-108353740D01*
X134595000Y-108353740D01*
X134595000Y-108646260D01*
X134652068Y-108933158D01*
X134764010Y-109203411D01*
X134926525Y-109446632D01*
X135133368Y-109653475D01*
X135376589Y-109815990D01*
X135646842Y-109927932D01*
X135933740Y-109985000D01*
X136226260Y-109985000D01*
X136513158Y-109927932D01*
X136783411Y-109815990D01*
X137026632Y-109653475D01*
X137233475Y-109446632D01*
X137395990Y-109203411D01*
X137507932Y-108933158D01*
X137565000Y-108646260D01*
X137565000Y-108353740D01*
X137507932Y-108066842D01*
X137395990Y-107796589D01*
X137233475Y-107553368D01*
X137026632Y-107346525D01*
X136783411Y-107184010D01*
X136513158Y-107072068D01*
X136226260Y-107015000D01*
X135933740Y-107015000D01*
X135646842Y-107072068D01*
X135376589Y-107184010D01*
X135133368Y-107346525D01*
X134926525Y-107553368D01*
X134764010Y-107796589D01*
X134652068Y-108066842D01*
X134595000Y-108353740D01*
X133635000Y-108353740D01*
X133635000Y-108240475D01*
X133533739Y-107731399D01*
X133335107Y-107251859D01*
X133046738Y-106820285D01*
X132679715Y-106453262D01*
X132248141Y-106164893D01*
X131768601Y-105966261D01*
X131259525Y-105865000D01*
X130740475Y-105865000D01*
X130231399Y-105966261D01*
X129751859Y-106164893D01*
X129320285Y-106453262D01*
X128953262Y-106820285D01*
X128664893Y-107251859D01*
X128466261Y-107731399D01*
X128365000Y-108240475D01*
X127382471Y-108240475D01*
X127347932Y-108066842D01*
X127235990Y-107796589D01*
X127168110Y-107695000D01*
X127360883Y-107695000D01*
X127696081Y-107628325D01*
X128011831Y-107497537D01*
X128295998Y-107307663D01*
X128537663Y-107065998D01*
X128727537Y-106781831D01*
X128858325Y-106466081D01*
X128925000Y-106130883D01*
X128925000Y-105789117D01*
X128858325Y-105453919D01*
X128727537Y-105138169D01*
X128537663Y-104854002D01*
X128295998Y-104612337D01*
X128011831Y-104422463D01*
X127696081Y-104291675D01*
X127360883Y-104225000D01*
X127019117Y-104225000D01*
X126683919Y-104291675D01*
X126368169Y-104422463D01*
X126084002Y-104612337D01*
X125842337Y-104854002D01*
X125697344Y-105071000D01*
X115087907Y-105071000D01*
X115361831Y-104957537D01*
X115645998Y-104767663D01*
X115887663Y-104525998D01*
X116077537Y-104241831D01*
X116208325Y-103926081D01*
X116275000Y-103590883D01*
X116275000Y-103249117D01*
X116272921Y-103238665D01*
X119065000Y-103238665D01*
X119065000Y-103521335D01*
X119120147Y-103798574D01*
X119228320Y-104059727D01*
X119385363Y-104294759D01*
X119585241Y-104494637D01*
X119820273Y-104651680D01*
X120081426Y-104759853D01*
X120358665Y-104815000D01*
X120641335Y-104815000D01*
X120918574Y-104759853D01*
X121179727Y-104651680D01*
X121414759Y-104494637D01*
X121614637Y-104294759D01*
X121771680Y-104059727D01*
X121879853Y-103798574D01*
X121935000Y-103521335D01*
X121935000Y-103249117D01*
X131805000Y-103249117D01*
X131805000Y-103590883D01*
X131871675Y-103926081D01*
X132002463Y-104241831D01*
X132192337Y-104525998D01*
X132434002Y-104767663D01*
X132718169Y-104957537D01*
X133033919Y-105088325D01*
X133369117Y-105155000D01*
X133710883Y-105155000D01*
X134046081Y-105088325D01*
X134361831Y-104957537D01*
X134645998Y-104767663D01*
X134887663Y-104525998D01*
X135077537Y-104241831D01*
X135208325Y-103926081D01*
X135275000Y-103590883D01*
X135275000Y-103249117D01*
X135272921Y-103238665D01*
X138065000Y-103238665D01*
X138065000Y-103521335D01*
X138120147Y-103798574D01*
X138228320Y-104059727D01*
X138385363Y-104294759D01*
X138585241Y-104494637D01*
X138820273Y-104651680D01*
X139081426Y-104759853D01*
X139358665Y-104815000D01*
X139641335Y-104815000D01*
X139918574Y-104759853D01*
X140179727Y-104651680D01*
X140414759Y-104494637D01*
X140614637Y-104294759D01*
X140771680Y-104059727D01*
X140879853Y-103798574D01*
X140935000Y-103521335D01*
X140935000Y-103238665D01*
X140879853Y-102961426D01*
X140771680Y-102700273D01*
X140614637Y-102465241D01*
X140414759Y-102265363D01*
X140179727Y-102108320D01*
X139918574Y-102000147D01*
X139799765Y-101976514D01*
X157669000Y-101976514D01*
X157669000Y-102239486D01*
X157720304Y-102497405D01*
X157820939Y-102740359D01*
X157967038Y-102959013D01*
X158152987Y-103144962D01*
X158371641Y-103291061D01*
X158614595Y-103391696D01*
X158872514Y-103443000D01*
X159135486Y-103443000D01*
X159393405Y-103391696D01*
X159636359Y-103291061D01*
X159855013Y-103144962D01*
X160040962Y-102959013D01*
X160187061Y-102740359D01*
X160287696Y-102497405D01*
X160339000Y-102239486D01*
X160339000Y-101976514D01*
X162241000Y-101976514D01*
X162241000Y-102239486D01*
X162292304Y-102497405D01*
X162392939Y-102740359D01*
X162539038Y-102959013D01*
X162724987Y-103144962D01*
X162943641Y-103291061D01*
X163186595Y-103391696D01*
X163444514Y-103443000D01*
X163707486Y-103443000D01*
X163965405Y-103391696D01*
X164208359Y-103291061D01*
X164427013Y-103144962D01*
X164612962Y-102959013D01*
X164759061Y-102740359D01*
X164859696Y-102497405D01*
X164911000Y-102239486D01*
X164911000Y-101976514D01*
X166813000Y-101976514D01*
X166813000Y-102239486D01*
X166864304Y-102497405D01*
X166964939Y-102740359D01*
X167111038Y-102959013D01*
X167296987Y-103144962D01*
X167515641Y-103291061D01*
X167758595Y-103391696D01*
X168016514Y-103443000D01*
X168279486Y-103443000D01*
X168537405Y-103391696D01*
X168780359Y-103291061D01*
X168999013Y-103144962D01*
X169184962Y-102959013D01*
X169331061Y-102740359D01*
X169431696Y-102497405D01*
X169483000Y-102239486D01*
X169483000Y-101976514D01*
X169431696Y-101718595D01*
X169331061Y-101475641D01*
X169184962Y-101256987D01*
X168999013Y-101071038D01*
X168780359Y-100924939D01*
X168537405Y-100824304D01*
X168279486Y-100773000D01*
X168016514Y-100773000D01*
X167758595Y-100824304D01*
X167515641Y-100924939D01*
X167296987Y-101071038D01*
X167111038Y-101256987D01*
X166964939Y-101475641D01*
X166864304Y-101718595D01*
X166813000Y-101976514D01*
X164911000Y-101976514D01*
X164859696Y-101718595D01*
X164759061Y-101475641D01*
X164612962Y-101256987D01*
X164427013Y-101071038D01*
X164208359Y-100924939D01*
X163965405Y-100824304D01*
X163707486Y-100773000D01*
X163444514Y-100773000D01*
X163186595Y-100824304D01*
X162943641Y-100924939D01*
X162724987Y-101071038D01*
X162539038Y-101256987D01*
X162392939Y-101475641D01*
X162292304Y-101718595D01*
X162241000Y-101976514D01*
X160339000Y-101976514D01*
X160287696Y-101718595D01*
X160187061Y-101475641D01*
X160040962Y-101256987D01*
X159855013Y-101071038D01*
X159636359Y-100924939D01*
X159393405Y-100824304D01*
X159135486Y-100773000D01*
X158872514Y-100773000D01*
X158614595Y-100824304D01*
X158371641Y-100924939D01*
X158152987Y-101071038D01*
X157967038Y-101256987D01*
X157820939Y-101475641D01*
X157720304Y-101718595D01*
X157669000Y-101976514D01*
X139799765Y-101976514D01*
X139641335Y-101945000D01*
X139358665Y-101945000D01*
X139081426Y-102000147D01*
X138820273Y-102108320D01*
X138585241Y-102265363D01*
X138385363Y-102465241D01*
X138228320Y-102700273D01*
X138120147Y-102961426D01*
X138065000Y-103238665D01*
X135272921Y-103238665D01*
X135208325Y-102913919D01*
X135077537Y-102598169D01*
X134887663Y-102314002D01*
X134645998Y-102072337D01*
X134361831Y-101882463D01*
X134046081Y-101751675D01*
X133710883Y-101685000D01*
X133369117Y-101685000D01*
X133033919Y-101751675D01*
X132718169Y-101882463D01*
X132434002Y-102072337D01*
X132192337Y-102314002D01*
X132002463Y-102598169D01*
X131871675Y-102913919D01*
X131805000Y-103249117D01*
X121935000Y-103249117D01*
X121935000Y-103238665D01*
X121879853Y-102961426D01*
X121771680Y-102700273D01*
X121614637Y-102465241D01*
X121414759Y-102265363D01*
X121179727Y-102108320D01*
X120918574Y-102000147D01*
X120641335Y-101945000D01*
X120358665Y-101945000D01*
X120081426Y-102000147D01*
X119820273Y-102108320D01*
X119585241Y-102265363D01*
X119385363Y-102465241D01*
X119228320Y-102700273D01*
X119120147Y-102961426D01*
X119065000Y-103238665D01*
X116272921Y-103238665D01*
X116208325Y-102913919D01*
X116077537Y-102598169D01*
X115887663Y-102314002D01*
X115645998Y-102072337D01*
X115361831Y-101882463D01*
X115046081Y-101751675D01*
X114710883Y-101685000D01*
X114369117Y-101685000D01*
X114033919Y-101751675D01*
X113718169Y-101882463D01*
X113434002Y-102072337D01*
X113192337Y-102314002D01*
X113002463Y-102598169D01*
X112871675Y-102913919D01*
X112805000Y-103249117D01*
X112805000Y-103590883D01*
X112871675Y-103926081D01*
X113002463Y-104241831D01*
X113192337Y-104525998D01*
X113434002Y-104767663D01*
X113718169Y-104957537D01*
X113992093Y-105071000D01*
X109682656Y-105071000D01*
X109537663Y-104854002D01*
X109295998Y-104612337D01*
X109011831Y-104422463D01*
X108696081Y-104291675D01*
X108360883Y-104225000D01*
X108019117Y-104225000D01*
X107683919Y-104291675D01*
X107368169Y-104422463D01*
X107084002Y-104612337D01*
X106842337Y-104854002D01*
X106697344Y-105071000D01*
X96087907Y-105071000D01*
X96361831Y-104957537D01*
X96645998Y-104767663D01*
X96887663Y-104525998D01*
X97077537Y-104241831D01*
X97208325Y-103926081D01*
X97275000Y-103590883D01*
X97275000Y-103249117D01*
X97272921Y-103238665D01*
X100065000Y-103238665D01*
X100065000Y-103521335D01*
X100120147Y-103798574D01*
X100228320Y-104059727D01*
X100385363Y-104294759D01*
X100585241Y-104494637D01*
X100820273Y-104651680D01*
X101081426Y-104759853D01*
X101358665Y-104815000D01*
X101641335Y-104815000D01*
X101918574Y-104759853D01*
X102179727Y-104651680D01*
X102414759Y-104494637D01*
X102614637Y-104294759D01*
X102771680Y-104059727D01*
X102879853Y-103798574D01*
X102935000Y-103521335D01*
X102935000Y-103238665D01*
X102879853Y-102961426D01*
X102771680Y-102700273D01*
X102614637Y-102465241D01*
X102414759Y-102265363D01*
X102179727Y-102108320D01*
X101918574Y-102000147D01*
X101641335Y-101945000D01*
X101358665Y-101945000D01*
X101081426Y-102000147D01*
X100820273Y-102108320D01*
X100585241Y-102265363D01*
X100385363Y-102465241D01*
X100228320Y-102700273D01*
X100120147Y-102961426D01*
X100065000Y-103238665D01*
X97272921Y-103238665D01*
X97208325Y-102913919D01*
X97077537Y-102598169D01*
X96887663Y-102314002D01*
X96645998Y-102072337D01*
X96361831Y-101882463D01*
X96046081Y-101751675D01*
X95710883Y-101685000D01*
X95369117Y-101685000D01*
X95033919Y-101751675D01*
X94718169Y-101882463D01*
X94434002Y-102072337D01*
X94192337Y-102314002D01*
X94002463Y-102598169D01*
X93871675Y-102913919D01*
X93805000Y-103249117D01*
X93805000Y-103590883D01*
X93871675Y-103926081D01*
X94002463Y-104241831D01*
X94192337Y-104525998D01*
X94434002Y-104767663D01*
X94718169Y-104957537D01*
X94992093Y-105071000D01*
X90682656Y-105071000D01*
X90537663Y-104854002D01*
X90295998Y-104612337D01*
X90011831Y-104422463D01*
X89696081Y-104291675D01*
X89360883Y-104225000D01*
X89019117Y-104225000D01*
X88683919Y-104291675D01*
X88368169Y-104422463D01*
X88084002Y-104612337D01*
X87842337Y-104854002D01*
X87652463Y-105138169D01*
X87521675Y-105453919D01*
X87455000Y-105789117D01*
X87455000Y-106130883D01*
X87521675Y-106466081D01*
X87652463Y-106781831D01*
X87808261Y-107015000D01*
X87773740Y-107015000D01*
X87486842Y-107072068D01*
X87216589Y-107184010D01*
X86973368Y-107346525D01*
X86766525Y-107553368D01*
X86604010Y-107796589D01*
X86492068Y-108066842D01*
X86435000Y-108353740D01*
X80660000Y-108353740D01*
X80660000Y-89261740D01*
X86435000Y-89261740D01*
X86435000Y-89554260D01*
X86492068Y-89841158D01*
X86604010Y-90111411D01*
X86766525Y-90354632D01*
X86973368Y-90561475D01*
X87216589Y-90723990D01*
X87486842Y-90835932D01*
X87773740Y-90893000D01*
X88066260Y-90893000D01*
X88353158Y-90835932D01*
X88623411Y-90723990D01*
X88866632Y-90561475D01*
X89073475Y-90354632D01*
X89235990Y-90111411D01*
X89347932Y-89841158D01*
X89405000Y-89554260D01*
X89405000Y-89261740D01*
X89347932Y-88974842D01*
X89235990Y-88704589D01*
X89168110Y-88603000D01*
X89360883Y-88603000D01*
X89696081Y-88536325D01*
X90011831Y-88405537D01*
X90295998Y-88215663D01*
X90537663Y-87973998D01*
X90682656Y-87757000D01*
X90934075Y-87757000D01*
X90664893Y-88159859D01*
X90466261Y-88639399D01*
X90365000Y-89148475D01*
X90365000Y-89667525D01*
X90466261Y-90176601D01*
X90664893Y-90656141D01*
X90953262Y-91087715D01*
X91320285Y-91454738D01*
X91751859Y-91743107D01*
X92231399Y-91941739D01*
X92740475Y-92043000D01*
X93259525Y-92043000D01*
X93768601Y-91941739D01*
X94248141Y-91743107D01*
X94679715Y-91454738D01*
X94934453Y-91200000D01*
X100061928Y-91200000D01*
X100061928Y-92800000D01*
X100074188Y-92924482D01*
X100110498Y-93044180D01*
X100169463Y-93154494D01*
X100248815Y-93251185D01*
X100345506Y-93330537D01*
X100455820Y-93389502D01*
X100575518Y-93425812D01*
X100700000Y-93438072D01*
X102300000Y-93438072D01*
X102424482Y-93425812D01*
X102544180Y-93389502D01*
X102654494Y-93330537D01*
X102751185Y-93251185D01*
X102830537Y-93154494D01*
X102889502Y-93044180D01*
X102925812Y-92924482D01*
X102938072Y-92800000D01*
X102938072Y-91200000D01*
X102925812Y-91075518D01*
X102889502Y-90955820D01*
X102830537Y-90845506D01*
X102751185Y-90748815D01*
X102654494Y-90669463D01*
X102544180Y-90610498D01*
X102424482Y-90574188D01*
X102300000Y-90561928D01*
X100700000Y-90561928D01*
X100575518Y-90574188D01*
X100455820Y-90610498D01*
X100345506Y-90669463D01*
X100248815Y-90748815D01*
X100169463Y-90845506D01*
X100110498Y-90955820D01*
X100074188Y-91075518D01*
X100061928Y-91200000D01*
X94934453Y-91200000D01*
X95046738Y-91087715D01*
X95335107Y-90656141D01*
X95533739Y-90176601D01*
X95635000Y-89667525D01*
X95635000Y-89261740D01*
X96595000Y-89261740D01*
X96595000Y-89554260D01*
X96652068Y-89841158D01*
X96764010Y-90111411D01*
X96926525Y-90354632D01*
X97133368Y-90561475D01*
X97376589Y-90723990D01*
X97646842Y-90835932D01*
X97933740Y-90893000D01*
X98226260Y-90893000D01*
X98513158Y-90835932D01*
X98783411Y-90723990D01*
X99026632Y-90561475D01*
X99233475Y-90354632D01*
X99395990Y-90111411D01*
X99507932Y-89841158D01*
X99565000Y-89554260D01*
X99565000Y-89261740D01*
X99507932Y-88974842D01*
X99395990Y-88704589D01*
X99233475Y-88461368D01*
X99026632Y-88254525D01*
X98783411Y-88092010D01*
X98513158Y-87980068D01*
X98226260Y-87923000D01*
X97933740Y-87923000D01*
X97646842Y-87980068D01*
X97376589Y-88092010D01*
X97133368Y-88254525D01*
X96926525Y-88461368D01*
X96764010Y-88704589D01*
X96652068Y-88974842D01*
X96595000Y-89261740D01*
X95635000Y-89261740D01*
X95635000Y-89148475D01*
X95533739Y-88639399D01*
X95335107Y-88159859D01*
X95065925Y-87757000D01*
X106697344Y-87757000D01*
X106808261Y-87923000D01*
X106773740Y-87923000D01*
X106486842Y-87980068D01*
X106216589Y-88092010D01*
X105973368Y-88254525D01*
X105766525Y-88461368D01*
X105604010Y-88704589D01*
X105492068Y-88974842D01*
X105435000Y-89261740D01*
X105435000Y-89554260D01*
X105492068Y-89841158D01*
X105604010Y-90111411D01*
X105766525Y-90354632D01*
X105973368Y-90561475D01*
X106216589Y-90723990D01*
X106486842Y-90835932D01*
X106773740Y-90893000D01*
X107066260Y-90893000D01*
X107353158Y-90835932D01*
X107623411Y-90723990D01*
X107866632Y-90561475D01*
X108073475Y-90354632D01*
X108235990Y-90111411D01*
X108347932Y-89841158D01*
X108405000Y-89554260D01*
X108405000Y-89261740D01*
X108347932Y-88974842D01*
X108235990Y-88704589D01*
X108168110Y-88603000D01*
X108360883Y-88603000D01*
X108696081Y-88536325D01*
X109011831Y-88405537D01*
X109295998Y-88215663D01*
X109537663Y-87973998D01*
X109682656Y-87757000D01*
X109934075Y-87757000D01*
X109664893Y-88159859D01*
X109466261Y-88639399D01*
X109365000Y-89148475D01*
X109365000Y-89667525D01*
X109466261Y-90176601D01*
X109664893Y-90656141D01*
X109953262Y-91087715D01*
X110320285Y-91454738D01*
X110751859Y-91743107D01*
X111231399Y-91941739D01*
X111740475Y-92043000D01*
X112259525Y-92043000D01*
X112768601Y-91941739D01*
X113248141Y-91743107D01*
X113679715Y-91454738D01*
X113934453Y-91200000D01*
X119061928Y-91200000D01*
X119061928Y-92800000D01*
X119074188Y-92924482D01*
X119110498Y-93044180D01*
X119169463Y-93154494D01*
X119248815Y-93251185D01*
X119345506Y-93330537D01*
X119455820Y-93389502D01*
X119575518Y-93425812D01*
X119700000Y-93438072D01*
X121300000Y-93438072D01*
X121424482Y-93425812D01*
X121544180Y-93389502D01*
X121654494Y-93330537D01*
X121751185Y-93251185D01*
X121830537Y-93154494D01*
X121889502Y-93044180D01*
X121925812Y-92924482D01*
X121938072Y-92800000D01*
X121938072Y-91200000D01*
X121925812Y-91075518D01*
X121889502Y-90955820D01*
X121830537Y-90845506D01*
X121751185Y-90748815D01*
X121654494Y-90669463D01*
X121544180Y-90610498D01*
X121424482Y-90574188D01*
X121300000Y-90561928D01*
X119700000Y-90561928D01*
X119575518Y-90574188D01*
X119455820Y-90610498D01*
X119345506Y-90669463D01*
X119248815Y-90748815D01*
X119169463Y-90845506D01*
X119110498Y-90955820D01*
X119074188Y-91075518D01*
X119061928Y-91200000D01*
X113934453Y-91200000D01*
X114046738Y-91087715D01*
X114335107Y-90656141D01*
X114533739Y-90176601D01*
X114635000Y-89667525D01*
X114635000Y-89261740D01*
X115595000Y-89261740D01*
X115595000Y-89554260D01*
X115652068Y-89841158D01*
X115764010Y-90111411D01*
X115926525Y-90354632D01*
X116133368Y-90561475D01*
X116376589Y-90723990D01*
X116646842Y-90835932D01*
X116933740Y-90893000D01*
X117226260Y-90893000D01*
X117513158Y-90835932D01*
X117783411Y-90723990D01*
X118026632Y-90561475D01*
X118233475Y-90354632D01*
X118395990Y-90111411D01*
X118507932Y-89841158D01*
X118565000Y-89554260D01*
X118565000Y-89261740D01*
X118507932Y-88974842D01*
X118395990Y-88704589D01*
X118233475Y-88461368D01*
X118026632Y-88254525D01*
X117783411Y-88092010D01*
X117513158Y-87980068D01*
X117226260Y-87923000D01*
X116933740Y-87923000D01*
X116646842Y-87980068D01*
X116376589Y-88092010D01*
X116133368Y-88254525D01*
X115926525Y-88461368D01*
X115764010Y-88704589D01*
X115652068Y-88974842D01*
X115595000Y-89261740D01*
X114635000Y-89261740D01*
X114635000Y-89148475D01*
X114533739Y-88639399D01*
X114335107Y-88159859D01*
X114065925Y-87757000D01*
X125697344Y-87757000D01*
X125808261Y-87923000D01*
X125773740Y-87923000D01*
X125486842Y-87980068D01*
X125216589Y-88092010D01*
X124973368Y-88254525D01*
X124766525Y-88461368D01*
X124604010Y-88704589D01*
X124492068Y-88974842D01*
X124435000Y-89261740D01*
X124435000Y-89554260D01*
X124492068Y-89841158D01*
X124604010Y-90111411D01*
X124766525Y-90354632D01*
X124973368Y-90561475D01*
X125216589Y-90723990D01*
X125486842Y-90835932D01*
X125773740Y-90893000D01*
X126066260Y-90893000D01*
X126353158Y-90835932D01*
X126623411Y-90723990D01*
X126866632Y-90561475D01*
X127073475Y-90354632D01*
X127235990Y-90111411D01*
X127347932Y-89841158D01*
X127405000Y-89554260D01*
X127405000Y-89261740D01*
X127382471Y-89148475D01*
X128365000Y-89148475D01*
X128365000Y-89667525D01*
X128466261Y-90176601D01*
X128664893Y-90656141D01*
X128953262Y-91087715D01*
X129320285Y-91454738D01*
X129751859Y-91743107D01*
X130231399Y-91941739D01*
X130740475Y-92043000D01*
X131259525Y-92043000D01*
X131768601Y-91941739D01*
X132248141Y-91743107D01*
X132679715Y-91454738D01*
X132934453Y-91200000D01*
X138061928Y-91200000D01*
X138061928Y-92800000D01*
X138074188Y-92924482D01*
X138110498Y-93044180D01*
X138169463Y-93154494D01*
X138248815Y-93251185D01*
X138345506Y-93330537D01*
X138455820Y-93389502D01*
X138575518Y-93425812D01*
X138700000Y-93438072D01*
X140300000Y-93438072D01*
X140424482Y-93425812D01*
X140544180Y-93389502D01*
X140654494Y-93330537D01*
X140751185Y-93251185D01*
X140830537Y-93154494D01*
X140889502Y-93044180D01*
X140925812Y-92924482D01*
X140938072Y-92800000D01*
X140938072Y-91200000D01*
X140925812Y-91075518D01*
X140889502Y-90955820D01*
X140830537Y-90845506D01*
X140751185Y-90748815D01*
X140654494Y-90669463D01*
X140544180Y-90610498D01*
X140424482Y-90574188D01*
X140300000Y-90561928D01*
X138700000Y-90561928D01*
X138575518Y-90574188D01*
X138455820Y-90610498D01*
X138345506Y-90669463D01*
X138248815Y-90748815D01*
X138169463Y-90845506D01*
X138110498Y-90955820D01*
X138074188Y-91075518D01*
X138061928Y-91200000D01*
X132934453Y-91200000D01*
X133046738Y-91087715D01*
X133335107Y-90656141D01*
X133533739Y-90176601D01*
X133635000Y-89667525D01*
X133635000Y-89261740D01*
X134595000Y-89261740D01*
X134595000Y-89554260D01*
X134652068Y-89841158D01*
X134764010Y-90111411D01*
X134926525Y-90354632D01*
X135133368Y-90561475D01*
X135376589Y-90723990D01*
X135646842Y-90835932D01*
X135933740Y-90893000D01*
X136226260Y-90893000D01*
X136513158Y-90835932D01*
X136783411Y-90723990D01*
X137026632Y-90561475D01*
X137233475Y-90354632D01*
X137395990Y-90111411D01*
X137507932Y-89841158D01*
X137565000Y-89554260D01*
X137565000Y-89261740D01*
X137507932Y-88974842D01*
X137395990Y-88704589D01*
X137233475Y-88461368D01*
X137026632Y-88254525D01*
X136783411Y-88092010D01*
X136513158Y-87980068D01*
X136226260Y-87923000D01*
X135933740Y-87923000D01*
X135646842Y-87980068D01*
X135376589Y-88092010D01*
X135133368Y-88254525D01*
X134926525Y-88461368D01*
X134764010Y-88704589D01*
X134652068Y-88974842D01*
X134595000Y-89261740D01*
X133635000Y-89261740D01*
X133635000Y-89148475D01*
X133533739Y-88639399D01*
X133335107Y-88159859D01*
X133046738Y-87728285D01*
X132679715Y-87361262D01*
X132248141Y-87072893D01*
X131768601Y-86874261D01*
X131259525Y-86773000D01*
X130740475Y-86773000D01*
X130231399Y-86874261D01*
X129751859Y-87072893D01*
X129320285Y-87361262D01*
X128953262Y-87728285D01*
X128664893Y-88159859D01*
X128466261Y-88639399D01*
X128365000Y-89148475D01*
X127382471Y-89148475D01*
X127347932Y-88974842D01*
X127235990Y-88704589D01*
X127168110Y-88603000D01*
X127360883Y-88603000D01*
X127696081Y-88536325D01*
X128011831Y-88405537D01*
X128295998Y-88215663D01*
X128537663Y-87973998D01*
X128727537Y-87689831D01*
X128858325Y-87374081D01*
X128925000Y-87038883D01*
X128925000Y-86697117D01*
X128858325Y-86361919D01*
X128727537Y-86046169D01*
X128537663Y-85762002D01*
X128295998Y-85520337D01*
X128011831Y-85330463D01*
X127696081Y-85199675D01*
X127360883Y-85133000D01*
X127019117Y-85133000D01*
X126683919Y-85199675D01*
X126368169Y-85330463D01*
X126084002Y-85520337D01*
X125842337Y-85762002D01*
X125697344Y-85979000D01*
X115087907Y-85979000D01*
X115361831Y-85865537D01*
X115645998Y-85675663D01*
X115887663Y-85433998D01*
X116077537Y-85149831D01*
X116208325Y-84834081D01*
X116275000Y-84498883D01*
X116275000Y-84238665D01*
X119065000Y-84238665D01*
X119065000Y-84521335D01*
X119120147Y-84798574D01*
X119228320Y-85059727D01*
X119385363Y-85294759D01*
X119585241Y-85494637D01*
X119820273Y-85651680D01*
X120081426Y-85759853D01*
X120358665Y-85815000D01*
X120641335Y-85815000D01*
X120918574Y-85759853D01*
X121179727Y-85651680D01*
X121414759Y-85494637D01*
X121614637Y-85294759D01*
X121771680Y-85059727D01*
X121879853Y-84798574D01*
X121935000Y-84521335D01*
X121935000Y-84238665D01*
X121918779Y-84157117D01*
X131805000Y-84157117D01*
X131805000Y-84498883D01*
X131871675Y-84834081D01*
X132002463Y-85149831D01*
X132192337Y-85433998D01*
X132434002Y-85675663D01*
X132718169Y-85865537D01*
X133033919Y-85996325D01*
X133369117Y-86063000D01*
X133710883Y-86063000D01*
X134046081Y-85996325D01*
X134361831Y-85865537D01*
X134645998Y-85675663D01*
X134887663Y-85433998D01*
X135077537Y-85149831D01*
X135208325Y-84834081D01*
X135275000Y-84498883D01*
X135275000Y-84238665D01*
X138065000Y-84238665D01*
X138065000Y-84521335D01*
X138120147Y-84798574D01*
X138228320Y-85059727D01*
X138385363Y-85294759D01*
X138585241Y-85494637D01*
X138820273Y-85651680D01*
X139081426Y-85759853D01*
X139358665Y-85815000D01*
X139641335Y-85815000D01*
X139918574Y-85759853D01*
X140179727Y-85651680D01*
X140414759Y-85494637D01*
X140614637Y-85294759D01*
X140771680Y-85059727D01*
X140879853Y-84798574D01*
X140935000Y-84521335D01*
X140935000Y-84238665D01*
X140879853Y-83961426D01*
X140771680Y-83700273D01*
X140614637Y-83465241D01*
X140414759Y-83265363D01*
X140179727Y-83108320D01*
X139918574Y-83000147D01*
X139641335Y-82945000D01*
X139358665Y-82945000D01*
X139081426Y-83000147D01*
X138820273Y-83108320D01*
X138585241Y-83265363D01*
X138385363Y-83465241D01*
X138228320Y-83700273D01*
X138120147Y-83961426D01*
X138065000Y-84238665D01*
X135275000Y-84238665D01*
X135275000Y-84157117D01*
X135208325Y-83821919D01*
X135077537Y-83506169D01*
X134887663Y-83222002D01*
X134645998Y-82980337D01*
X134361831Y-82790463D01*
X134046081Y-82659675D01*
X133710883Y-82593000D01*
X133369117Y-82593000D01*
X133033919Y-82659675D01*
X132718169Y-82790463D01*
X132434002Y-82980337D01*
X132192337Y-83222002D01*
X132002463Y-83506169D01*
X131871675Y-83821919D01*
X131805000Y-84157117D01*
X121918779Y-84157117D01*
X121879853Y-83961426D01*
X121771680Y-83700273D01*
X121614637Y-83465241D01*
X121414759Y-83265363D01*
X121179727Y-83108320D01*
X120918574Y-83000147D01*
X120641335Y-82945000D01*
X120358665Y-82945000D01*
X120081426Y-83000147D01*
X119820273Y-83108320D01*
X119585241Y-83265363D01*
X119385363Y-83465241D01*
X119228320Y-83700273D01*
X119120147Y-83961426D01*
X119065000Y-84238665D01*
X116275000Y-84238665D01*
X116275000Y-84157117D01*
X116208325Y-83821919D01*
X116077537Y-83506169D01*
X115887663Y-83222002D01*
X115645998Y-82980337D01*
X115361831Y-82790463D01*
X115046081Y-82659675D01*
X114710883Y-82593000D01*
X114369117Y-82593000D01*
X114033919Y-82659675D01*
X113718169Y-82790463D01*
X113434002Y-82980337D01*
X113192337Y-83222002D01*
X113002463Y-83506169D01*
X112871675Y-83821919D01*
X112805000Y-84157117D01*
X112805000Y-84498883D01*
X112871675Y-84834081D01*
X113002463Y-85149831D01*
X113192337Y-85433998D01*
X113434002Y-85675663D01*
X113718169Y-85865537D01*
X113992093Y-85979000D01*
X109682656Y-85979000D01*
X109537663Y-85762002D01*
X109295998Y-85520337D01*
X109011831Y-85330463D01*
X108696081Y-85199675D01*
X108360883Y-85133000D01*
X108019117Y-85133000D01*
X107683919Y-85199675D01*
X107368169Y-85330463D01*
X107084002Y-85520337D01*
X106842337Y-85762002D01*
X106697344Y-85979000D01*
X96087907Y-85979000D01*
X96361831Y-85865537D01*
X96645998Y-85675663D01*
X96887663Y-85433998D01*
X97077537Y-85149831D01*
X97208325Y-84834081D01*
X97275000Y-84498883D01*
X97275000Y-84238665D01*
X100065000Y-84238665D01*
X100065000Y-84521335D01*
X100120147Y-84798574D01*
X100228320Y-85059727D01*
X100385363Y-85294759D01*
X100585241Y-85494637D01*
X100820273Y-85651680D01*
X101081426Y-85759853D01*
X101358665Y-85815000D01*
X101641335Y-85815000D01*
X101918574Y-85759853D01*
X102179727Y-85651680D01*
X102414759Y-85494637D01*
X102614637Y-85294759D01*
X102771680Y-85059727D01*
X102879853Y-84798574D01*
X102935000Y-84521335D01*
X102935000Y-84238665D01*
X102879853Y-83961426D01*
X102771680Y-83700273D01*
X102614637Y-83465241D01*
X102414759Y-83265363D01*
X102179727Y-83108320D01*
X101918574Y-83000147D01*
X101641335Y-82945000D01*
X101358665Y-82945000D01*
X101081426Y-83000147D01*
X100820273Y-83108320D01*
X100585241Y-83265363D01*
X100385363Y-83465241D01*
X100228320Y-83700273D01*
X100120147Y-83961426D01*
X100065000Y-84238665D01*
X97275000Y-84238665D01*
X97275000Y-84157117D01*
X97208325Y-83821919D01*
X97077537Y-83506169D01*
X96887663Y-83222002D01*
X96645998Y-82980337D01*
X96361831Y-82790463D01*
X96046081Y-82659675D01*
X95710883Y-82593000D01*
X95369117Y-82593000D01*
X95033919Y-82659675D01*
X94718169Y-82790463D01*
X94434002Y-82980337D01*
X94192337Y-83222002D01*
X94002463Y-83506169D01*
X93871675Y-83821919D01*
X93805000Y-84157117D01*
X93805000Y-84498883D01*
X93871675Y-84834081D01*
X94002463Y-85149831D01*
X94192337Y-85433998D01*
X94434002Y-85675663D01*
X94718169Y-85865537D01*
X94992093Y-85979000D01*
X90682656Y-85979000D01*
X90537663Y-85762002D01*
X90295998Y-85520337D01*
X90011831Y-85330463D01*
X89696081Y-85199675D01*
X89360883Y-85133000D01*
X89019117Y-85133000D01*
X88683919Y-85199675D01*
X88368169Y-85330463D01*
X88084002Y-85520337D01*
X87842337Y-85762002D01*
X87652463Y-86046169D01*
X87521675Y-86361919D01*
X87455000Y-86697117D01*
X87455000Y-87038883D01*
X87521675Y-87374081D01*
X87652463Y-87689831D01*
X87808261Y-87923000D01*
X87773740Y-87923000D01*
X87486842Y-87980068D01*
X87216589Y-88092010D01*
X86973368Y-88254525D01*
X86766525Y-88461368D01*
X86604010Y-88704589D01*
X86492068Y-88974842D01*
X86435000Y-89261740D01*
X80660000Y-89261740D01*
X80660000Y-74290514D01*
X151319000Y-74290514D01*
X151319000Y-74553486D01*
X151370304Y-74811405D01*
X151470939Y-75054359D01*
X151617038Y-75273013D01*
X151802987Y-75458962D01*
X152021641Y-75605061D01*
X152264595Y-75705696D01*
X152522514Y-75757000D01*
X152785486Y-75757000D01*
X153043405Y-75705696D01*
X153286359Y-75605061D01*
X153505013Y-75458962D01*
X153690962Y-75273013D01*
X153837061Y-75054359D01*
X153937696Y-74811405D01*
X153989000Y-74553486D01*
X153989000Y-74290514D01*
X153937696Y-74032595D01*
X153837061Y-73789641D01*
X153690962Y-73570987D01*
X153505013Y-73385038D01*
X153286359Y-73238939D01*
X153043405Y-73138304D01*
X152785486Y-73087000D01*
X152522514Y-73087000D01*
X152264595Y-73138304D01*
X152021641Y-73238939D01*
X151802987Y-73385038D01*
X151617038Y-73570987D01*
X151470939Y-73789641D01*
X151370304Y-74032595D01*
X151319000Y-74290514D01*
X80660000Y-74290514D01*
X80660000Y-67432514D01*
X123633000Y-67432514D01*
X123633000Y-67695486D01*
X123684304Y-67953405D01*
X123784939Y-68196359D01*
X123931038Y-68415013D01*
X124116987Y-68600962D01*
X124335641Y-68747061D01*
X124578595Y-68847696D01*
X124836514Y-68899000D01*
X125099486Y-68899000D01*
X125357405Y-68847696D01*
X125600359Y-68747061D01*
X125819013Y-68600962D01*
X126004962Y-68415013D01*
X126151061Y-68196359D01*
X126251696Y-67953405D01*
X126303000Y-67695486D01*
X126303000Y-67432514D01*
X126251696Y-67174595D01*
X126151061Y-66931641D01*
X126004962Y-66712987D01*
X125819013Y-66527038D01*
X125600359Y-66380939D01*
X125357405Y-66280304D01*
X125099486Y-66229000D01*
X124836514Y-66229000D01*
X124578595Y-66280304D01*
X124335641Y-66380939D01*
X124116987Y-66527038D01*
X123931038Y-66712987D01*
X123784939Y-66931641D01*
X123684304Y-67174595D01*
X123633000Y-67432514D01*
X80660000Y-67432514D01*
X80660000Y-63622514D01*
X123633000Y-63622514D01*
X123633000Y-63885486D01*
X123684304Y-64143405D01*
X123784939Y-64386359D01*
X123931038Y-64605013D01*
X124116987Y-64790962D01*
X124335641Y-64937061D01*
X124578595Y-65037696D01*
X124836514Y-65089000D01*
X125099486Y-65089000D01*
X125357405Y-65037696D01*
X125600359Y-64937061D01*
X125819013Y-64790962D01*
X126004962Y-64605013D01*
X126151061Y-64386359D01*
X126251696Y-64143405D01*
X126303000Y-63885486D01*
X126303000Y-63622514D01*
X126251696Y-63364595D01*
X126151061Y-63121641D01*
X126004962Y-62902987D01*
X125819013Y-62717038D01*
X125600359Y-62570939D01*
X125357405Y-62470304D01*
X125099486Y-62419000D01*
X124836514Y-62419000D01*
X124578595Y-62470304D01*
X124335641Y-62570939D01*
X124116987Y-62717038D01*
X123931038Y-62902987D01*
X123784939Y-63121641D01*
X123684304Y-63364595D01*
X123633000Y-63622514D01*
X80660000Y-63622514D01*
X80660000Y-60339424D01*
X144653000Y-60339424D01*
X144653000Y-60564576D01*
X144696925Y-60785401D01*
X144783087Y-60993413D01*
X144907001Y-61178864D01*
X144907000Y-67520333D01*
X144907000Y-67520334D01*
X144907001Y-71663136D01*
X144783087Y-71848587D01*
X144696925Y-72056599D01*
X144653000Y-72277424D01*
X144653000Y-72502576D01*
X144696925Y-72723401D01*
X144783087Y-72931413D01*
X144908174Y-73118620D01*
X145067380Y-73277826D01*
X145254587Y-73402913D01*
X145462599Y-73489075D01*
X145683424Y-73533000D01*
X145908576Y-73533000D01*
X146129401Y-73489075D01*
X146337413Y-73402913D01*
X146524620Y-73277826D01*
X146683826Y-73118620D01*
X146808913Y-72931413D01*
X146895075Y-72723401D01*
X146939000Y-72502576D01*
X146939000Y-72277424D01*
X146895075Y-72056599D01*
X146881334Y-72023424D01*
X169545000Y-72023424D01*
X169545000Y-72248576D01*
X169588925Y-72469401D01*
X169675087Y-72677413D01*
X169799000Y-72862863D01*
X169799001Y-75981136D01*
X169675087Y-76166587D01*
X169588925Y-76374599D01*
X169545000Y-76595424D01*
X169545000Y-76820576D01*
X169588925Y-77041401D01*
X169675087Y-77249413D01*
X169800174Y-77436620D01*
X169959380Y-77595826D01*
X170146587Y-77720913D01*
X170354599Y-77807075D01*
X170575424Y-77851000D01*
X170800576Y-77851000D01*
X171021401Y-77807075D01*
X171229413Y-77720913D01*
X171416620Y-77595826D01*
X171575826Y-77436620D01*
X171700913Y-77249413D01*
X171787075Y-77041401D01*
X171831000Y-76820576D01*
X171831000Y-76595424D01*
X171787075Y-76374599D01*
X171700913Y-76166587D01*
X171577000Y-75981137D01*
X171577000Y-72862863D01*
X171700913Y-72677413D01*
X171787075Y-72469401D01*
X171831000Y-72248576D01*
X171831000Y-72023424D01*
X171787075Y-71802599D01*
X171700913Y-71594587D01*
X171575826Y-71407380D01*
X171416620Y-71248174D01*
X171229413Y-71123087D01*
X171021401Y-71036925D01*
X170800576Y-70993000D01*
X170575424Y-70993000D01*
X170354599Y-71036925D01*
X170146587Y-71123087D01*
X169959380Y-71248174D01*
X169800174Y-71407380D01*
X169675087Y-71594587D01*
X169588925Y-71802599D01*
X169545000Y-72023424D01*
X146881334Y-72023424D01*
X146808913Y-71848587D01*
X146685000Y-71663137D01*
X146685000Y-68514381D01*
X146778587Y-68576913D01*
X146986599Y-68663075D01*
X147207424Y-68707000D01*
X147432576Y-68707000D01*
X147653401Y-68663075D01*
X147861413Y-68576913D01*
X148025275Y-68467424D01*
X151765000Y-68467424D01*
X151765000Y-68692576D01*
X151808925Y-68913401D01*
X151895087Y-69121413D01*
X152020174Y-69308620D01*
X152179380Y-69467826D01*
X152366587Y-69592913D01*
X152574599Y-69679075D01*
X152795424Y-69723000D01*
X153020576Y-69723000D01*
X153241401Y-69679075D01*
X153449413Y-69592913D01*
X153636620Y-69467826D01*
X153795826Y-69308620D01*
X153920913Y-69121413D01*
X154007075Y-68913401D01*
X154051000Y-68692576D01*
X154051000Y-68467424D01*
X154007075Y-68246599D01*
X153920913Y-68038587D01*
X153797000Y-67853137D01*
X153797000Y-61531359D01*
X153957413Y-61464913D01*
X154144620Y-61339826D01*
X154303826Y-61180620D01*
X154428913Y-60993413D01*
X154515075Y-60785401D01*
X154559000Y-60564576D01*
X154559000Y-60554634D01*
X160108210Y-60554634D01*
X160108210Y-60779786D01*
X160152135Y-61000611D01*
X160238297Y-61208623D01*
X160362210Y-61394073D01*
X160362211Y-63281136D01*
X160238297Y-63466587D01*
X160152135Y-63674599D01*
X160108210Y-63895424D01*
X160108210Y-64120576D01*
X160152135Y-64341401D01*
X160238297Y-64549413D01*
X160363384Y-64736620D01*
X160522590Y-64895826D01*
X160709797Y-65020913D01*
X160917809Y-65107075D01*
X161138634Y-65151000D01*
X161363786Y-65151000D01*
X161417735Y-65140269D01*
X161460925Y-65357401D01*
X161547087Y-65565413D01*
X161672174Y-65752620D01*
X161831380Y-65911826D01*
X162018587Y-66036913D01*
X162182311Y-66104730D01*
X162138939Y-66169641D01*
X162038304Y-66412595D01*
X161987000Y-66670514D01*
X161987000Y-66933486D01*
X162038304Y-67191405D01*
X162138939Y-67434359D01*
X162285038Y-67653013D01*
X162470987Y-67838962D01*
X162689641Y-67985061D01*
X162932595Y-68085696D01*
X163190514Y-68137000D01*
X163453486Y-68137000D01*
X163711405Y-68085696D01*
X163954359Y-67985061D01*
X164173013Y-67838962D01*
X164358962Y-67653013D01*
X164505061Y-67434359D01*
X164605696Y-67191405D01*
X164657000Y-66933486D01*
X164657000Y-66670514D01*
X164605696Y-66412595D01*
X164505061Y-66169641D01*
X164358962Y-65950987D01*
X164173013Y-65765038D01*
X163954359Y-65618939D01*
X163711405Y-65518304D01*
X163601483Y-65496439D01*
X163659075Y-65357401D01*
X163703000Y-65136576D01*
X163703000Y-64911424D01*
X163659075Y-64690599D01*
X163572913Y-64482587D01*
X163449000Y-64297137D01*
X163449000Y-63360235D01*
X164706648Y-62102588D01*
X164925401Y-62059075D01*
X165133413Y-61972913D01*
X165320620Y-61847826D01*
X165479826Y-61688620D01*
X165604913Y-61501413D01*
X165691075Y-61293401D01*
X165735000Y-61072576D01*
X165735000Y-60847424D01*
X165691075Y-60626599D01*
X165604913Y-60418587D01*
X165479826Y-60231380D01*
X165320620Y-60072174D01*
X165133413Y-59947087D01*
X164925401Y-59860925D01*
X164704576Y-59817000D01*
X164479424Y-59817000D01*
X164258599Y-59860925D01*
X164050587Y-59947087D01*
X163863380Y-60072174D01*
X163704174Y-60231380D01*
X163579087Y-60418587D01*
X163492925Y-60626599D01*
X163449412Y-60845352D01*
X162140210Y-62154555D01*
X162140210Y-61394073D01*
X162264123Y-61208623D01*
X162350285Y-61000611D01*
X162394210Y-60779786D01*
X162394210Y-60554634D01*
X162350285Y-60333809D01*
X162264123Y-60125797D01*
X162139036Y-59938590D01*
X161979830Y-59779384D01*
X161792623Y-59654297D01*
X161584611Y-59568135D01*
X161363786Y-59524210D01*
X161138634Y-59524210D01*
X160917809Y-59568135D01*
X160709797Y-59654297D01*
X160522590Y-59779384D01*
X160363384Y-59938590D01*
X160238297Y-60125797D01*
X160152135Y-60333809D01*
X160108210Y-60554634D01*
X154559000Y-60554634D01*
X154559000Y-60339424D01*
X154515075Y-60118599D01*
X154428913Y-59910587D01*
X154303826Y-59723380D01*
X154144620Y-59564174D01*
X153957413Y-59439087D01*
X153749401Y-59352925D01*
X153528576Y-59309000D01*
X153303424Y-59309000D01*
X153082599Y-59352925D01*
X152874587Y-59439087D01*
X152687380Y-59564174D01*
X152528174Y-59723380D01*
X152403087Y-59910587D01*
X152316925Y-60118599D01*
X152274841Y-60330170D01*
X152248507Y-60362258D01*
X152248505Y-60362260D01*
X152165248Y-60463709D01*
X152082698Y-60618148D01*
X152031864Y-60785726D01*
X152014700Y-60960000D01*
X152019001Y-61003670D01*
X152019000Y-67853137D01*
X151895087Y-68038587D01*
X151808925Y-68246599D01*
X151765000Y-68467424D01*
X148025275Y-68467424D01*
X148048620Y-68451826D01*
X148207826Y-68292620D01*
X148332913Y-68105413D01*
X148419075Y-67897401D01*
X148463000Y-67676576D01*
X148463000Y-67451424D01*
X148419075Y-67230599D01*
X148332913Y-67022587D01*
X148209000Y-66837137D01*
X148209000Y-61256377D01*
X148324291Y-61194753D01*
X148459659Y-61083659D01*
X148570753Y-60948291D01*
X148653303Y-60793851D01*
X148704136Y-60626274D01*
X148721301Y-60452000D01*
X148704136Y-60277726D01*
X148653303Y-60110149D01*
X148570753Y-59955709D01*
X148459659Y-59820341D01*
X148324291Y-59709247D01*
X148169851Y-59626697D01*
X148085580Y-59601134D01*
X148048620Y-59564174D01*
X147861413Y-59439087D01*
X147653401Y-59352925D01*
X147432576Y-59309000D01*
X147207424Y-59309000D01*
X146986599Y-59352925D01*
X146778587Y-59439087D01*
X146591380Y-59564174D01*
X146558000Y-59597554D01*
X146524620Y-59564174D01*
X146337413Y-59439087D01*
X146129401Y-59352925D01*
X145908576Y-59309000D01*
X145683424Y-59309000D01*
X145462599Y-59352925D01*
X145254587Y-59439087D01*
X145067380Y-59564174D01*
X144908174Y-59723380D01*
X144783087Y-59910587D01*
X144696925Y-60118599D01*
X144653000Y-60339424D01*
X80660000Y-60339424D01*
X80660000Y-56764514D01*
X137349000Y-56764514D01*
X137349000Y-57027486D01*
X137400304Y-57285405D01*
X137500939Y-57528359D01*
X137647038Y-57747013D01*
X137832987Y-57932962D01*
X138051641Y-58079061D01*
X138294595Y-58179696D01*
X138552514Y-58231000D01*
X138815486Y-58231000D01*
X139073405Y-58179696D01*
X139316359Y-58079061D01*
X139535013Y-57932962D01*
X139720962Y-57747013D01*
X139867061Y-57528359D01*
X139967696Y-57285405D01*
X140019000Y-57027486D01*
X140019000Y-56764514D01*
X142429000Y-56764514D01*
X142429000Y-57027486D01*
X142480304Y-57285405D01*
X142580939Y-57528359D01*
X142727038Y-57747013D01*
X142912987Y-57932962D01*
X143131641Y-58079061D01*
X143374595Y-58179696D01*
X143632514Y-58231000D01*
X143895486Y-58231000D01*
X144153405Y-58179696D01*
X144396359Y-58079061D01*
X144615013Y-57932962D01*
X144800962Y-57747013D01*
X144947061Y-57528359D01*
X145047696Y-57285405D01*
X145099000Y-57027486D01*
X145099000Y-56764514D01*
X145047696Y-56506595D01*
X144947061Y-56263641D01*
X144800962Y-56044987D01*
X144615013Y-55859038D01*
X144396359Y-55712939D01*
X144153405Y-55612304D01*
X143895486Y-55561000D01*
X143632514Y-55561000D01*
X143374595Y-55612304D01*
X143131641Y-55712939D01*
X142912987Y-55859038D01*
X142727038Y-56044987D01*
X142580939Y-56263641D01*
X142480304Y-56506595D01*
X142429000Y-56764514D01*
X140019000Y-56764514D01*
X139967696Y-56506595D01*
X139867061Y-56263641D01*
X139720962Y-56044987D01*
X139535013Y-55859038D01*
X139316359Y-55712939D01*
X139073405Y-55612304D01*
X138815486Y-55561000D01*
X138552514Y-55561000D01*
X138294595Y-55612304D01*
X138051641Y-55712939D01*
X137832987Y-55859038D01*
X137647038Y-56044987D01*
X137500939Y-56263641D01*
X137400304Y-56506595D01*
X137349000Y-56764514D01*
X80660000Y-56764514D01*
X80660000Y-54712891D01*
X148418519Y-54712891D01*
X148515843Y-54987252D01*
X148664822Y-55237355D01*
X148859731Y-55453588D01*
X149093080Y-55627641D01*
X149355901Y-55752825D01*
X149503110Y-55797476D01*
X149733000Y-55676155D01*
X149733000Y-54483000D01*
X148539186Y-54483000D01*
X148418519Y-54712891D01*
X80660000Y-54712891D01*
X80660000Y-52192514D01*
X134301000Y-52192514D01*
X134301000Y-52455486D01*
X134352304Y-52713405D01*
X134452939Y-52956359D01*
X134599038Y-53175013D01*
X134784987Y-53360962D01*
X135003641Y-53507061D01*
X135246595Y-53607696D01*
X135504514Y-53659000D01*
X135767486Y-53659000D01*
X136025405Y-53607696D01*
X136268359Y-53507061D01*
X136487013Y-53360962D01*
X136672962Y-53175013D01*
X136819061Y-52956359D01*
X136919696Y-52713405D01*
X136971000Y-52455486D01*
X136971000Y-52192514D01*
X136919696Y-51934595D01*
X136819061Y-51691641D01*
X136804428Y-51669740D01*
X148375000Y-51669740D01*
X148375000Y-51962260D01*
X148432068Y-52249158D01*
X148544010Y-52519411D01*
X148706525Y-52762632D01*
X148913368Y-52969475D01*
X149089406Y-53087100D01*
X148859731Y-53258412D01*
X148664822Y-53474645D01*
X148515843Y-53724748D01*
X148418519Y-53999109D01*
X148539186Y-54229000D01*
X149733000Y-54229000D01*
X149733000Y-54209000D01*
X149987000Y-54209000D01*
X149987000Y-54229000D01*
X150007000Y-54229000D01*
X150007000Y-54483000D01*
X149987000Y-54483000D01*
X149987000Y-55676155D01*
X150216890Y-55797476D01*
X150364099Y-55752825D01*
X150626920Y-55627641D01*
X150860269Y-55453588D01*
X151055178Y-55237355D01*
X151124805Y-55120466D01*
X151246525Y-55302632D01*
X151453368Y-55509475D01*
X151696589Y-55671990D01*
X151966842Y-55783932D01*
X152253740Y-55841000D01*
X152546260Y-55841000D01*
X152833158Y-55783932D01*
X153103411Y-55671990D01*
X153346632Y-55509475D01*
X153553475Y-55302632D01*
X153670000Y-55128240D01*
X153786525Y-55302632D01*
X153993368Y-55509475D01*
X154236589Y-55671990D01*
X154506842Y-55783932D01*
X154793740Y-55841000D01*
X155086260Y-55841000D01*
X155373158Y-55783932D01*
X155643411Y-55671990D01*
X155886632Y-55509475D01*
X156093475Y-55302632D01*
X156255990Y-55059411D01*
X156367932Y-54789158D01*
X156425000Y-54502260D01*
X156425000Y-54209740D01*
X156367932Y-53922842D01*
X156255990Y-53652589D01*
X156093475Y-53409368D01*
X155961620Y-53277513D01*
X156034180Y-53255502D01*
X156144494Y-53196537D01*
X156241185Y-53117185D01*
X156320537Y-53020494D01*
X156379502Y-52910180D01*
X156415812Y-52790482D01*
X156428072Y-52666000D01*
X156428072Y-50966000D01*
X161579928Y-50966000D01*
X161579928Y-52666000D01*
X161592188Y-52790482D01*
X161628498Y-52910180D01*
X161687463Y-53020494D01*
X161766815Y-53117185D01*
X161863506Y-53196537D01*
X161973820Y-53255502D01*
X162046380Y-53277513D01*
X161914525Y-53409368D01*
X161752010Y-53652589D01*
X161640068Y-53922842D01*
X161583000Y-54209740D01*
X161583000Y-54502260D01*
X161640068Y-54789158D01*
X161752010Y-55059411D01*
X161914525Y-55302632D01*
X162121368Y-55509475D01*
X162364589Y-55671990D01*
X162634842Y-55783932D01*
X162921740Y-55841000D01*
X163214260Y-55841000D01*
X163501158Y-55783932D01*
X163771411Y-55671990D01*
X164014632Y-55509475D01*
X164221475Y-55302632D01*
X164339100Y-55126594D01*
X164510412Y-55356269D01*
X164726645Y-55551178D01*
X164976748Y-55700157D01*
X165251109Y-55797481D01*
X165481000Y-55676814D01*
X165481000Y-54483000D01*
X165735000Y-54483000D01*
X165735000Y-55676814D01*
X165964891Y-55797481D01*
X166239252Y-55700157D01*
X166489355Y-55551178D01*
X166705588Y-55356269D01*
X166879641Y-55122920D01*
X167004825Y-54860099D01*
X167049476Y-54712890D01*
X166928155Y-54483000D01*
X165735000Y-54483000D01*
X165481000Y-54483000D01*
X165461000Y-54483000D01*
X165461000Y-54229000D01*
X165481000Y-54229000D01*
X165481000Y-54209000D01*
X165735000Y-54209000D01*
X165735000Y-54229000D01*
X166928155Y-54229000D01*
X167049476Y-53999110D01*
X167004825Y-53851901D01*
X166879641Y-53589080D01*
X166705588Y-53355731D01*
X166489355Y-53160822D01*
X166372466Y-53091195D01*
X166554632Y-52969475D01*
X166761475Y-52762632D01*
X166923990Y-52519411D01*
X167035932Y-52249158D01*
X167093000Y-51962260D01*
X167093000Y-51669740D01*
X167035932Y-51382842D01*
X166923990Y-51112589D01*
X166761475Y-50869368D01*
X166554632Y-50662525D01*
X166311411Y-50500010D01*
X166041158Y-50388068D01*
X165754260Y-50331000D01*
X165461740Y-50331000D01*
X165174842Y-50388068D01*
X164904589Y-50500010D01*
X164661368Y-50662525D01*
X164529513Y-50794380D01*
X164507502Y-50721820D01*
X164448537Y-50611506D01*
X164369185Y-50514815D01*
X164272494Y-50435463D01*
X164162180Y-50376498D01*
X164042482Y-50340188D01*
X163918000Y-50327928D01*
X162218000Y-50327928D01*
X162093518Y-50340188D01*
X161973820Y-50376498D01*
X161863506Y-50435463D01*
X161766815Y-50514815D01*
X161687463Y-50611506D01*
X161628498Y-50721820D01*
X161592188Y-50841518D01*
X161579928Y-50966000D01*
X156428072Y-50966000D01*
X156415812Y-50841518D01*
X156379502Y-50721820D01*
X156320537Y-50611506D01*
X156241185Y-50514815D01*
X156144494Y-50435463D01*
X156034180Y-50376498D01*
X155914482Y-50340188D01*
X155790000Y-50327928D01*
X154090000Y-50327928D01*
X153965518Y-50340188D01*
X153845820Y-50376498D01*
X153735506Y-50435463D01*
X153638815Y-50514815D01*
X153559463Y-50611506D01*
X153500498Y-50721820D01*
X153478487Y-50794380D01*
X153346632Y-50662525D01*
X153103411Y-50500010D01*
X152833158Y-50388068D01*
X152546260Y-50331000D01*
X152253740Y-50331000D01*
X151966842Y-50388068D01*
X151696589Y-50500010D01*
X151453368Y-50662525D01*
X151246525Y-50869368D01*
X151130000Y-51043760D01*
X151013475Y-50869368D01*
X150806632Y-50662525D01*
X150563411Y-50500010D01*
X150293158Y-50388068D01*
X150006260Y-50331000D01*
X149713740Y-50331000D01*
X149426842Y-50388068D01*
X149156589Y-50500010D01*
X148913368Y-50662525D01*
X148706525Y-50869368D01*
X148544010Y-51112589D01*
X148432068Y-51382842D01*
X148375000Y-51669740D01*
X136804428Y-51669740D01*
X136672962Y-51472987D01*
X136487013Y-51287038D01*
X136268359Y-51140939D01*
X136025405Y-51040304D01*
X135767486Y-50989000D01*
X135504514Y-50989000D01*
X135246595Y-51040304D01*
X135003641Y-51140939D01*
X134784987Y-51287038D01*
X134599038Y-51472987D01*
X134452939Y-51691641D01*
X134352304Y-51934595D01*
X134301000Y-52192514D01*
X80660000Y-52192514D01*
X80660000Y-47895000D01*
X90554000Y-47895000D01*
X90554000Y-48295000D01*
X90599624Y-48504233D01*
X90685191Y-48700545D01*
X90807413Y-48876391D01*
X90961592Y-49025014D01*
X91141803Y-49140702D01*
X91344999Y-49212408D01*
X91512000Y-49085502D01*
X91512000Y-47895000D01*
X91766000Y-47895000D01*
X91766000Y-49085502D01*
X91933001Y-49212408D01*
X92136197Y-49140702D01*
X92316408Y-49025014D01*
X92470587Y-48876391D01*
X92592809Y-48700545D01*
X92678376Y-48504233D01*
X92724000Y-48295000D01*
X92724000Y-47895000D01*
X99204000Y-47895000D01*
X99204000Y-48295000D01*
X99249624Y-48504233D01*
X99335191Y-48700545D01*
X99457413Y-48876391D01*
X99611592Y-49025014D01*
X99791803Y-49140702D01*
X99994999Y-49212408D01*
X100162000Y-49085502D01*
X100162000Y-47895000D01*
X100416000Y-47895000D01*
X100416000Y-49085502D01*
X100583001Y-49212408D01*
X100786197Y-49140702D01*
X100966408Y-49025014D01*
X101120587Y-48876391D01*
X101242809Y-48700545D01*
X101328376Y-48504233D01*
X101374000Y-48295000D01*
X101374000Y-47895000D01*
X100416000Y-47895000D01*
X100162000Y-47895000D01*
X99204000Y-47895000D01*
X92724000Y-47895000D01*
X91766000Y-47895000D01*
X91512000Y-47895000D01*
X90554000Y-47895000D01*
X80660000Y-47895000D01*
X80660000Y-47241000D01*
X90554000Y-47241000D01*
X90554000Y-47641000D01*
X91512000Y-47641000D01*
X91512000Y-46450498D01*
X91766000Y-46450498D01*
X91766000Y-47641000D01*
X92724000Y-47641000D01*
X92724000Y-47241000D01*
X92678376Y-47031767D01*
X92645788Y-46957000D01*
X93973928Y-46957000D01*
X93986188Y-47081482D01*
X94022498Y-47201180D01*
X94081463Y-47311494D01*
X94160815Y-47408185D01*
X94257506Y-47487537D01*
X94367820Y-47546502D01*
X94487518Y-47582812D01*
X94612000Y-47595072D01*
X94851250Y-47592000D01*
X95010000Y-47433250D01*
X95010000Y-46609000D01*
X94135750Y-46609000D01*
X93977000Y-46767750D01*
X93973928Y-46957000D01*
X92645788Y-46957000D01*
X92592809Y-46835455D01*
X92470587Y-46659609D01*
X92316408Y-46510986D01*
X92136197Y-46395298D01*
X91933001Y-46323592D01*
X91766000Y-46450498D01*
X91512000Y-46450498D01*
X91344999Y-46323592D01*
X91141803Y-46395298D01*
X90961592Y-46510986D01*
X90807413Y-46659609D01*
X90685191Y-46835455D01*
X90599624Y-47031767D01*
X90554000Y-47241000D01*
X80660000Y-47241000D01*
X80660000Y-45029392D01*
X80705908Y-44515000D01*
X90554000Y-44515000D01*
X90554000Y-45265000D01*
X90599624Y-45474233D01*
X90685191Y-45670545D01*
X90807413Y-45846391D01*
X90961592Y-45995014D01*
X91141803Y-46110702D01*
X91344999Y-46182408D01*
X91512000Y-46055502D01*
X91512000Y-44515000D01*
X90554000Y-44515000D01*
X80705908Y-44515000D01*
X80731173Y-44231917D01*
X80928393Y-43511000D01*
X90554000Y-43511000D01*
X90554000Y-44261000D01*
X91512000Y-44261000D01*
X91512000Y-42720498D01*
X91344999Y-42593592D01*
X91141803Y-42665298D01*
X90961592Y-42780986D01*
X90807413Y-42929609D01*
X90685191Y-43105455D01*
X90599624Y-43301767D01*
X90554000Y-43511000D01*
X80928393Y-43511000D01*
X80934656Y-43488109D01*
X81266638Y-42792095D01*
X81716626Y-42165870D01*
X82270403Y-41629223D01*
X82910451Y-41199129D01*
X83616553Y-40889171D01*
X84371457Y-40707935D01*
X85024207Y-40660000D01*
X94420097Y-40660000D01*
X94363058Y-40690488D01*
G37*
X94363058Y-40690488D02*
X94230377Y-40799377D01*
X94121488Y-40932058D01*
X94040577Y-41083433D01*
X93990752Y-41247684D01*
X93973928Y-41418500D01*
X93973928Y-41663689D01*
X93910858Y-41781684D01*
X93862929Y-41939685D01*
X93850800Y-42062831D01*
X93850800Y-42062837D01*
X93846746Y-42104000D01*
X93850800Y-42145163D01*
X93850800Y-42448000D01*
X93744448Y-42448000D01*
X93558978Y-42484892D01*
X93413580Y-42545118D01*
X93274008Y-42486419D01*
X93088740Y-42448525D01*
X92899639Y-42447503D01*
X92713972Y-42483392D01*
X92538874Y-42554813D01*
X92529677Y-42559730D01*
X92516069Y-42755464D01*
X92911361Y-43150756D01*
X92879000Y-43313448D01*
X92879000Y-43502552D01*
X92879829Y-43506719D01*
X92795253Y-43422143D01*
X92809395Y-43408000D01*
X92659225Y-43257830D01*
X92592809Y-43105455D01*
X92470587Y-42929609D01*
X92316408Y-42780986D01*
X92136197Y-42665298D01*
X91933001Y-42593592D01*
X91766000Y-42720498D01*
X91766000Y-44261000D01*
X92323073Y-44261000D01*
X92140730Y-44273677D01*
X92067419Y-44447992D01*
X92053713Y-44515000D01*
X91766000Y-44515000D01*
X91766000Y-46055502D01*
X91933001Y-46182408D01*
X92136197Y-46110702D01*
X92316408Y-45995014D01*
X92470587Y-45846391D01*
X92592809Y-45670545D01*
X92615913Y-45617538D01*
X92703992Y-45654581D01*
X92889260Y-45692475D01*
X93078361Y-45693497D01*
X93264028Y-45657608D01*
X93416981Y-45595220D01*
X93563978Y-45656108D01*
X93749448Y-45693000D01*
X93938552Y-45693000D01*
X94074245Y-45666009D01*
X94022498Y-45762820D01*
X93986188Y-45882518D01*
X93973928Y-46007000D01*
X93977000Y-46196250D01*
X94135750Y-46355000D01*
X95010000Y-46355000D01*
X95010000Y-46335000D01*
X95264000Y-46335000D01*
X95264000Y-46355000D01*
X95284000Y-46355000D01*
X95284000Y-46609000D01*
X95264000Y-46609000D01*
X95264000Y-47433250D01*
X95422750Y-47592000D01*
X95662000Y-47595072D01*
X95786482Y-47582812D01*
X95906180Y-47546502D01*
X96016494Y-47487537D01*
X96089161Y-47427901D01*
X96113058Y-47447512D01*
X96264433Y-47528423D01*
X96428684Y-47578248D01*
X96599500Y-47595072D01*
X97174500Y-47595072D01*
X97345316Y-47578248D01*
X97509567Y-47528423D01*
X97660942Y-47447512D01*
X97793623Y-47338623D01*
X97873740Y-47241000D01*
X99204000Y-47241000D01*
X99204000Y-47641000D01*
X100162000Y-47641000D01*
X100162000Y-46450498D01*
X100416000Y-46450498D01*
X100416000Y-47641000D01*
X101374000Y-47641000D01*
X101374000Y-47241000D01*
X101328376Y-47031767D01*
X101242809Y-46835455D01*
X101120587Y-46659609D01*
X100966408Y-46510986D01*
X100786197Y-46395298D01*
X100583001Y-46323592D01*
X100416000Y-46450498D01*
X100162000Y-46450498D01*
X99994999Y-46323592D01*
X99791803Y-46395298D01*
X99611592Y-46510986D01*
X99457413Y-46659609D01*
X99335191Y-46835455D01*
X99249624Y-47031767D01*
X99204000Y-47241000D01*
X97873740Y-47241000D01*
X97902512Y-47205942D01*
X97983423Y-47054567D01*
X98033248Y-46890316D01*
X98050072Y-46719500D01*
X98050072Y-46355244D01*
X98070071Y-46289316D01*
X98082200Y-46166170D01*
X98082200Y-46166161D01*
X98086254Y-46125001D01*
X98082200Y-46083841D01*
X98082200Y-45693000D01*
X98188552Y-45693000D01*
X98374022Y-45656108D01*
X98519420Y-45595882D01*
X98658992Y-45654581D01*
X98844260Y-45692475D01*
X99033361Y-45693497D01*
X99219028Y-45657608D01*
X99312868Y-45619331D01*
X99335191Y-45670545D01*
X99457413Y-45846391D01*
X99611592Y-45995014D01*
X99791803Y-46110702D01*
X99994999Y-46182408D01*
X100162000Y-46055502D01*
X100162000Y-44515000D01*
X100416000Y-44515000D01*
X100416000Y-46055502D01*
X100583001Y-46182408D01*
X100786197Y-46110702D01*
X100966408Y-45995014D01*
X101120587Y-45846391D01*
X101242809Y-45670545D01*
X101328376Y-45474233D01*
X101374000Y-45265000D01*
X101374000Y-44515000D01*
X100416000Y-44515000D01*
X100162000Y-44515000D01*
X99879631Y-44515000D01*
X99868608Y-44457972D01*
X99797187Y-44282874D01*
X99792270Y-44273677D01*
X99609927Y-44261000D01*
X100162000Y-44261000D01*
X100162000Y-42720498D01*
X100416000Y-42720498D01*
X100416000Y-44261000D01*
X101374000Y-44261000D01*
X101374000Y-43556514D01*
X105599000Y-43556514D01*
X105599000Y-43819486D01*
X105650304Y-44077405D01*
X105750939Y-44320359D01*
X105897038Y-44539013D01*
X106082987Y-44724962D01*
X106301641Y-44871061D01*
X106544595Y-44971696D01*
X106802514Y-45023000D01*
X107065486Y-45023000D01*
X107323405Y-44971696D01*
X107566359Y-44871061D01*
X107785013Y-44724962D01*
X107970962Y-44539013D01*
X108117061Y-44320359D01*
X108217696Y-44077405D01*
X108269000Y-43819486D01*
X108269000Y-43556514D01*
X108217696Y-43298595D01*
X108117061Y-43055641D01*
X107970962Y-42836987D01*
X107785013Y-42651038D01*
X107566359Y-42504939D01*
X107323405Y-42404304D01*
X107065486Y-42353000D01*
X106802514Y-42353000D01*
X106544595Y-42404304D01*
X106301641Y-42504939D01*
X106082987Y-42651038D01*
X105897038Y-42836987D01*
X105750939Y-43055641D01*
X105650304Y-43298595D01*
X105599000Y-43556514D01*
X101374000Y-43556514D01*
X101374000Y-43511000D01*
X101328376Y-43301767D01*
X101242809Y-43105455D01*
X101120587Y-42929609D01*
X100966408Y-42780986D01*
X100786197Y-42665298D01*
X100583001Y-42593592D01*
X100416000Y-42720498D01*
X100162000Y-42720498D01*
X99994999Y-42593592D01*
X99791803Y-42665298D01*
X99611592Y-42780986D01*
X99457413Y-42929609D01*
X99335191Y-43105455D01*
X99268775Y-43257830D01*
X99118605Y-43408000D01*
X99132748Y-43422143D01*
X99048171Y-43506719D01*
X99049000Y-43502552D01*
X99049000Y-43313448D01*
X99016639Y-43150756D01*
X99411931Y-42755464D01*
X99398323Y-42559730D01*
X99224008Y-42486419D01*
X99038740Y-42448525D01*
X98849639Y-42447503D01*
X98663972Y-42483392D01*
X98513538Y-42544753D01*
X98369022Y-42484892D01*
X98183552Y-42448000D01*
X97994448Y-42448000D01*
X97958787Y-42455093D01*
X98001502Y-42375180D01*
X98037812Y-42255482D01*
X98050072Y-42131000D01*
X98047000Y-41941750D01*
X97888250Y-41783000D01*
X97014000Y-41783000D01*
X97014000Y-41803000D01*
X96760000Y-41803000D01*
X96760000Y-41783000D01*
X96740000Y-41783000D01*
X96740000Y-41529000D01*
X96760000Y-41529000D01*
X96760000Y-41509000D01*
X97014000Y-41509000D01*
X97014000Y-41529000D01*
X97888250Y-41529000D01*
X98047000Y-41370250D01*
X98050072Y-41181000D01*
X98037812Y-41056518D01*
X98001502Y-40936820D01*
X97942537Y-40826506D01*
X97863185Y-40729815D01*
X97778115Y-40660000D01*
X174970608Y-40660000D01*
X175768083Y-40731173D01*
X176511891Y-40934656D01*
X177207905Y-41266638D01*
X177834130Y-41716626D01*
X178370777Y-42270403D01*
X178800871Y-42910451D01*
X179110829Y-43616553D01*
X179292065Y-44371457D01*
X179340000Y-45024207D01*
X179340001Y-134970597D01*
X179268827Y-135768083D01*
X179065344Y-136511890D01*
X178733363Y-137207904D01*
X178283374Y-137834130D01*
X177729597Y-138370777D01*
X177089549Y-138800871D01*
X176383447Y-139110829D01*
X175628543Y-139292065D01*
X174975793Y-139340000D01*
X85029392Y-139340000D01*
X84231917Y-139268827D01*
X83488110Y-139065344D01*
X82792096Y-138733363D01*
X82165870Y-138283374D01*
X81629223Y-137729597D01*
X81199129Y-137089549D01*
X80889171Y-136383447D01*
X80707935Y-135628543D01*
X80660000Y-134975793D01*
X80660000Y-127353740D01*
X86435000Y-127353740D01*
X86435000Y-127646260D01*
X86492068Y-127933158D01*
X86604010Y-128203411D01*
X86766525Y-128446632D01*
X86973368Y-128653475D01*
X87216589Y-128815990D01*
X87486842Y-128927932D01*
X87773740Y-128985000D01*
X88066260Y-128985000D01*
X88353158Y-128927932D01*
X88623411Y-128815990D01*
X88866632Y-128653475D01*
X89073475Y-128446632D01*
X89235990Y-128203411D01*
X89347932Y-127933158D01*
X89405000Y-127646260D01*
X89405000Y-127353740D01*
X89347932Y-127066842D01*
X89235990Y-126796589D01*
X89168110Y-126695000D01*
X89360883Y-126695000D01*
X89696081Y-126628325D01*
X90011831Y-126497537D01*
X90295998Y-126307663D01*
X90537663Y-126065998D01*
X90682656Y-125849000D01*
X90934075Y-125849000D01*
X90664893Y-126251859D01*
X90466261Y-126731399D01*
X90365000Y-127240475D01*
X90365000Y-127759525D01*
X90466261Y-128268601D01*
X90664893Y-128748141D01*
X90953262Y-129179715D01*
X91320285Y-129546738D01*
X91751859Y-129835107D01*
X92231399Y-130033739D01*
X92740475Y-130135000D01*
X93259525Y-130135000D01*
X93768601Y-130033739D01*
X94248141Y-129835107D01*
X94679715Y-129546738D01*
X95026453Y-129200000D01*
X100161928Y-129200000D01*
X100161928Y-130800000D01*
X100174188Y-130924482D01*
X100210498Y-131044180D01*
X100269463Y-131154494D01*
X100348815Y-131251185D01*
X100445506Y-131330537D01*
X100555820Y-131389502D01*
X100675518Y-131425812D01*
X100800000Y-131438072D01*
X102400000Y-131438072D01*
X102524482Y-131425812D01*
X102644180Y-131389502D01*
X102754494Y-131330537D01*
X102851185Y-131251185D01*
X102930537Y-131154494D01*
X102989502Y-131044180D01*
X103025812Y-130924482D01*
X103038072Y-130800000D01*
X103038072Y-129200000D01*
X103025812Y-129075518D01*
X102989502Y-128955820D01*
X102930537Y-128845506D01*
X102851185Y-128748815D01*
X102754494Y-128669463D01*
X102644180Y-128610498D01*
X102524482Y-128574188D01*
X102400000Y-128561928D01*
X100800000Y-128561928D01*
X100675518Y-128574188D01*
X100555820Y-128610498D01*
X100445506Y-128669463D01*
X100348815Y-128748815D01*
X100269463Y-128845506D01*
X100210498Y-128955820D01*
X100174188Y-129075518D01*
X100161928Y-129200000D01*
X95026453Y-129200000D01*
X95046738Y-129179715D01*
X95335107Y-128748141D01*
X95533739Y-128268601D01*
X95635000Y-127759525D01*
X95635000Y-127353740D01*
X96595000Y-127353740D01*
X96595000Y-127646260D01*
X96652068Y-127933158D01*
X96764010Y-128203411D01*
X96926525Y-128446632D01*
X97133368Y-128653475D01*
X97376589Y-128815990D01*
X97646842Y-128927932D01*
X97933740Y-128985000D01*
X98226260Y-128985000D01*
X98513158Y-128927932D01*
X98783411Y-128815990D01*
X99026632Y-128653475D01*
X99233475Y-128446632D01*
X99395990Y-128203411D01*
X99507932Y-127933158D01*
X99565000Y-127646260D01*
X99565000Y-127353740D01*
X99507932Y-127066842D01*
X99395990Y-126796589D01*
X99233475Y-126553368D01*
X99026632Y-126346525D01*
X98783411Y-126184010D01*
X98513158Y-126072068D01*
X98226260Y-126015000D01*
X97933740Y-126015000D01*
X97646842Y-126072068D01*
X97376589Y-126184010D01*
X97133368Y-126346525D01*
X96926525Y-126553368D01*
X96764010Y-126796589D01*
X96652068Y-127066842D01*
X96595000Y-127353740D01*
X95635000Y-127353740D01*
X95635000Y-127240475D01*
X95533739Y-126731399D01*
X95335107Y-126251859D01*
X95065925Y-125849000D01*
X106697344Y-125849000D01*
X106808261Y-126015000D01*
X106773740Y-126015000D01*
X106486842Y-126072068D01*
X106216589Y-126184010D01*
X105973368Y-126346525D01*
X105766525Y-126553368D01*
X105604010Y-126796589D01*
X105492068Y-127066842D01*
X105435000Y-127353740D01*
X105435000Y-127646260D01*
X105492068Y-127933158D01*
X105604010Y-128203411D01*
X105766525Y-128446632D01*
X105973368Y-128653475D01*
X106216589Y-128815990D01*
X106486842Y-128927932D01*
X106773740Y-128985000D01*
X107066260Y-128985000D01*
X107353158Y-128927932D01*
X107623411Y-128815990D01*
X107866632Y-128653475D01*
X108073475Y-128446632D01*
X108235990Y-128203411D01*
X108347932Y-127933158D01*
X108405000Y-127646260D01*
X108405000Y-127353740D01*
X108347932Y-127066842D01*
X108235990Y-126796589D01*
X108168110Y-126695000D01*
X108360883Y-126695000D01*
X108696081Y-126628325D01*
X109011831Y-126497537D01*
X109295998Y-126307663D01*
X109537663Y-126065998D01*
X109682656Y-125849000D01*
X109934075Y-125849000D01*
X109664893Y-126251859D01*
X109466261Y-126731399D01*
X109365000Y-127240475D01*
X109365000Y-127759525D01*
X109466261Y-128268601D01*
X109664893Y-128748141D01*
X109953262Y-129179715D01*
X110320285Y-129546738D01*
X110751859Y-129835107D01*
X111231399Y-130033739D01*
X111740475Y-130135000D01*
X112259525Y-130135000D01*
X112768601Y-130033739D01*
X113248141Y-129835107D01*
X113679715Y-129546738D01*
X114026453Y-129200000D01*
X119061928Y-129200000D01*
X119061928Y-130800000D01*
X119074188Y-130924482D01*
X119110498Y-131044180D01*
X119169463Y-131154494D01*
X119248815Y-131251185D01*
X119345506Y-131330537D01*
X119455820Y-131389502D01*
X119575518Y-131425812D01*
X119700000Y-131438072D01*
X121300000Y-131438072D01*
X121424482Y-131425812D01*
X121544180Y-131389502D01*
X121654494Y-131330537D01*
X121751185Y-131251185D01*
X121830537Y-131154494D01*
X121889502Y-131044180D01*
X121925812Y-130924482D01*
X121938072Y-130800000D01*
X121938072Y-129200000D01*
X121925812Y-129075518D01*
X121889502Y-128955820D01*
X121830537Y-128845506D01*
X121751185Y-128748815D01*
X121654494Y-128669463D01*
X121544180Y-128610498D01*
X121424482Y-128574188D01*
X121300000Y-128561928D01*
X119700000Y-128561928D01*
X119575518Y-128574188D01*
X119455820Y-128610498D01*
X119345506Y-128669463D01*
X119248815Y-128748815D01*
X119169463Y-128845506D01*
X119110498Y-128955820D01*
X119074188Y-129075518D01*
X119061928Y-129200000D01*
X114026453Y-129200000D01*
X114046738Y-129179715D01*
X114335107Y-128748141D01*
X114533739Y-128268601D01*
X114635000Y-127759525D01*
X114635000Y-127353740D01*
X115595000Y-127353740D01*
X115595000Y-127646260D01*
X115652068Y-127933158D01*
X115764010Y-128203411D01*
X115926525Y-128446632D01*
X116133368Y-128653475D01*
X116376589Y-128815990D01*
X116646842Y-128927932D01*
X116933740Y-128985000D01*
X117226260Y-128985000D01*
X117513158Y-128927932D01*
X117783411Y-128815990D01*
X118026632Y-128653475D01*
X118233475Y-128446632D01*
X118395990Y-128203411D01*
X118507932Y-127933158D01*
X118565000Y-127646260D01*
X118565000Y-127353740D01*
X118507932Y-127066842D01*
X118395990Y-126796589D01*
X118233475Y-126553368D01*
X118026632Y-126346525D01*
X117783411Y-126184010D01*
X117513158Y-126072068D01*
X117226260Y-126015000D01*
X116933740Y-126015000D01*
X116646842Y-126072068D01*
X116376589Y-126184010D01*
X116133368Y-126346525D01*
X115926525Y-126553368D01*
X115764010Y-126796589D01*
X115652068Y-127066842D01*
X115595000Y-127353740D01*
X114635000Y-127353740D01*
X114635000Y-127240475D01*
X114533739Y-126731399D01*
X114335107Y-126251859D01*
X114065925Y-125849000D01*
X125697344Y-125849000D01*
X125808261Y-126015000D01*
X125773740Y-126015000D01*
X125486842Y-126072068D01*
X125216589Y-126184010D01*
X124973368Y-126346525D01*
X124766525Y-126553368D01*
X124604010Y-126796589D01*
X124492068Y-127066842D01*
X124435000Y-127353740D01*
X124435000Y-127646260D01*
X124492068Y-127933158D01*
X124604010Y-128203411D01*
X124766525Y-128446632D01*
X124973368Y-128653475D01*
X125216589Y-128815990D01*
X125486842Y-128927932D01*
X125773740Y-128985000D01*
X126066260Y-128985000D01*
X126353158Y-128927932D01*
X126623411Y-128815990D01*
X126866632Y-128653475D01*
X127073475Y-128446632D01*
X127235990Y-128203411D01*
X127347932Y-127933158D01*
X127405000Y-127646260D01*
X127405000Y-127353740D01*
X127382471Y-127240475D01*
X128365000Y-127240475D01*
X128365000Y-127759525D01*
X128466261Y-128268601D01*
X128664893Y-128748141D01*
X128953262Y-129179715D01*
X129320285Y-129546738D01*
X129751859Y-129835107D01*
X130231399Y-130033739D01*
X130740475Y-130135000D01*
X131259525Y-130135000D01*
X131768601Y-130033739D01*
X132248141Y-129835107D01*
X132679715Y-129546738D01*
X133026453Y-129200000D01*
X138061928Y-129200000D01*
X138061928Y-130800000D01*
X138074188Y-130924482D01*
X138110498Y-131044180D01*
X138169463Y-131154494D01*
X138248815Y-131251185D01*
X138345506Y-131330537D01*
X138455820Y-131389502D01*
X138575518Y-131425812D01*
X138700000Y-131438072D01*
X140300000Y-131438072D01*
X140424482Y-131425812D01*
X140544180Y-131389502D01*
X140654494Y-131330537D01*
X140751185Y-131251185D01*
X140830537Y-131154494D01*
X140889502Y-131044180D01*
X140925812Y-130924482D01*
X140938072Y-130800000D01*
X140938072Y-129200000D01*
X140925812Y-129075518D01*
X140889502Y-128955820D01*
X140830537Y-128845506D01*
X140751185Y-128748815D01*
X140654494Y-128669463D01*
X140544180Y-128610498D01*
X140424482Y-128574188D01*
X140300000Y-128561928D01*
X138700000Y-128561928D01*
X138575518Y-128574188D01*
X138455820Y-128610498D01*
X138345506Y-128669463D01*
X138248815Y-128748815D01*
X138169463Y-128845506D01*
X138110498Y-128955820D01*
X138074188Y-129075518D01*
X138061928Y-129200000D01*
X133026453Y-129200000D01*
X133046738Y-129179715D01*
X133335107Y-128748141D01*
X133533739Y-128268601D01*
X133635000Y-127759525D01*
X133635000Y-127353740D01*
X134595000Y-127353740D01*
X134595000Y-127646260D01*
X134652068Y-127933158D01*
X134764010Y-128203411D01*
X134926525Y-128446632D01*
X135133368Y-128653475D01*
X135376589Y-128815990D01*
X135646842Y-128927932D01*
X135933740Y-128985000D01*
X136226260Y-128985000D01*
X136513158Y-128927932D01*
X136783411Y-128815990D01*
X137026632Y-128653475D01*
X137233475Y-128446632D01*
X137395990Y-128203411D01*
X137507932Y-127933158D01*
X137565000Y-127646260D01*
X137565000Y-127353740D01*
X137507932Y-127066842D01*
X137395990Y-126796589D01*
X137233475Y-126553368D01*
X137026632Y-126346525D01*
X136783411Y-126184010D01*
X136513158Y-126072068D01*
X136226260Y-126015000D01*
X135933740Y-126015000D01*
X135646842Y-126072068D01*
X135376589Y-126184010D01*
X135133368Y-126346525D01*
X134926525Y-126553368D01*
X134764010Y-126796589D01*
X134652068Y-127066842D01*
X134595000Y-127353740D01*
X133635000Y-127353740D01*
X133635000Y-127240475D01*
X133533739Y-126731399D01*
X133335107Y-126251859D01*
X133046738Y-125820285D01*
X132679715Y-125453262D01*
X132248141Y-125164893D01*
X131768601Y-124966261D01*
X131259525Y-124865000D01*
X130740475Y-124865000D01*
X130231399Y-124966261D01*
X129751859Y-125164893D01*
X129320285Y-125453262D01*
X128953262Y-125820285D01*
X128664893Y-126251859D01*
X128466261Y-126731399D01*
X128365000Y-127240475D01*
X127382471Y-127240475D01*
X127347932Y-127066842D01*
X127235990Y-126796589D01*
X127168110Y-126695000D01*
X127360883Y-126695000D01*
X127696081Y-126628325D01*
X128011831Y-126497537D01*
X128295998Y-126307663D01*
X128537663Y-126065998D01*
X128727537Y-125781831D01*
X128858325Y-125466081D01*
X128925000Y-125130883D01*
X128925000Y-124789117D01*
X128858325Y-124453919D01*
X128806381Y-124328514D01*
X156653000Y-124328514D01*
X156653000Y-124591486D01*
X156704304Y-124849405D01*
X156804939Y-125092359D01*
X156951038Y-125311013D01*
X157116025Y-125476000D01*
X156951038Y-125640987D01*
X156804939Y-125859641D01*
X156704304Y-126102595D01*
X156653000Y-126360514D01*
X156653000Y-126623486D01*
X156704304Y-126881405D01*
X156804939Y-127124359D01*
X156951038Y-127343013D01*
X157116025Y-127508000D01*
X156951038Y-127672987D01*
X156804939Y-127891641D01*
X156704304Y-128134595D01*
X156653000Y-128392514D01*
X156653000Y-128655486D01*
X156704304Y-128913405D01*
X156804939Y-129156359D01*
X156951038Y-129375013D01*
X157136987Y-129560962D01*
X157355641Y-129707061D01*
X157598595Y-129807696D01*
X157856514Y-129859000D01*
X158119486Y-129859000D01*
X158377405Y-129807696D01*
X158620359Y-129707061D01*
X158839013Y-129560962D01*
X159024962Y-129375013D01*
X159171061Y-129156359D01*
X159271696Y-128913405D01*
X159323000Y-128655486D01*
X159323000Y-128392514D01*
X159271696Y-128134595D01*
X159171061Y-127891641D01*
X159024962Y-127672987D01*
X158859975Y-127508000D01*
X159024962Y-127343013D01*
X159171061Y-127124359D01*
X159271696Y-126881405D01*
X159323000Y-126623486D01*
X159323000Y-126360514D01*
X159271696Y-126102595D01*
X159171061Y-125859641D01*
X159024962Y-125640987D01*
X158859975Y-125476000D01*
X159024962Y-125311013D01*
X159171061Y-125092359D01*
X159271696Y-124849405D01*
X159323000Y-124591486D01*
X159323000Y-124328514D01*
X159271696Y-124070595D01*
X159171061Y-123827641D01*
X159024962Y-123608987D01*
X158839013Y-123423038D01*
X158620359Y-123276939D01*
X158377405Y-123176304D01*
X158119486Y-123125000D01*
X157856514Y-123125000D01*
X157598595Y-123176304D01*
X157355641Y-123276939D01*
X157136987Y-123423038D01*
X156951038Y-123608987D01*
X156804939Y-123827641D01*
X156704304Y-124070595D01*
X156653000Y-124328514D01*
X128806381Y-124328514D01*
X128727537Y-124138169D01*
X128537663Y-123854002D01*
X128295998Y-123612337D01*
X128011831Y-123422463D01*
X127696081Y-123291675D01*
X127360883Y-123225000D01*
X127019117Y-123225000D01*
X126683919Y-123291675D01*
X126368169Y-123422463D01*
X126084002Y-123612337D01*
X125842337Y-123854002D01*
X125697344Y-124071000D01*
X115087907Y-124071000D01*
X115361831Y-123957537D01*
X115645998Y-123767663D01*
X115887663Y-123525998D01*
X116077537Y-123241831D01*
X116208325Y-122926081D01*
X116275000Y-122590883D01*
X116275000Y-122249117D01*
X116272921Y-122238665D01*
X119065000Y-122238665D01*
X119065000Y-122521335D01*
X119120147Y-122798574D01*
X119228320Y-123059727D01*
X119385363Y-123294759D01*
X119585241Y-123494637D01*
X119820273Y-123651680D01*
X120081426Y-123759853D01*
X120358665Y-123815000D01*
X120641335Y-123815000D01*
X120918574Y-123759853D01*
X121179727Y-123651680D01*
X121414759Y-123494637D01*
X121614637Y-123294759D01*
X121771680Y-123059727D01*
X121879853Y-122798574D01*
X121935000Y-122521335D01*
X121935000Y-122249117D01*
X131805000Y-122249117D01*
X131805000Y-122590883D01*
X131871675Y-122926081D01*
X132002463Y-123241831D01*
X132192337Y-123525998D01*
X132434002Y-123767663D01*
X132718169Y-123957537D01*
X133033919Y-124088325D01*
X133369117Y-124155000D01*
X133710883Y-124155000D01*
X134046081Y-124088325D01*
X134361831Y-123957537D01*
X134645998Y-123767663D01*
X134887663Y-123525998D01*
X135077537Y-123241831D01*
X135208325Y-122926081D01*
X135275000Y-122590883D01*
X135275000Y-122249117D01*
X135272921Y-122238665D01*
X138065000Y-122238665D01*
X138065000Y-122521335D01*
X138120147Y-122798574D01*
X138228320Y-123059727D01*
X138385363Y-123294759D01*
X138585241Y-123494637D01*
X138820273Y-123651680D01*
X139081426Y-123759853D01*
X139358665Y-123815000D01*
X139641335Y-123815000D01*
X139918574Y-123759853D01*
X140179727Y-123651680D01*
X140414759Y-123494637D01*
X140614637Y-123294759D01*
X140771680Y-123059727D01*
X140879853Y-122798574D01*
X140935000Y-122521335D01*
X140935000Y-122238665D01*
X140879853Y-121961426D01*
X140771680Y-121700273D01*
X140614637Y-121465241D01*
X140414759Y-121265363D01*
X140179727Y-121108320D01*
X139918574Y-121000147D01*
X139641335Y-120945000D01*
X139358665Y-120945000D01*
X139081426Y-121000147D01*
X138820273Y-121108320D01*
X138585241Y-121265363D01*
X138385363Y-121465241D01*
X138228320Y-121700273D01*
X138120147Y-121961426D01*
X138065000Y-122238665D01*
X135272921Y-122238665D01*
X135208325Y-121913919D01*
X135077537Y-121598169D01*
X134887663Y-121314002D01*
X134645998Y-121072337D01*
X134361831Y-120882463D01*
X134046081Y-120751675D01*
X133710883Y-120685000D01*
X133369117Y-120685000D01*
X133033919Y-120751675D01*
X132718169Y-120882463D01*
X132434002Y-121072337D01*
X132192337Y-121314002D01*
X132002463Y-121598169D01*
X131871675Y-121913919D01*
X131805000Y-122249117D01*
X121935000Y-122249117D01*
X121935000Y-122238665D01*
X121879853Y-121961426D01*
X121771680Y-121700273D01*
X121614637Y-121465241D01*
X121414759Y-121265363D01*
X121179727Y-121108320D01*
X120918574Y-121000147D01*
X120641335Y-120945000D01*
X120358665Y-120945000D01*
X120081426Y-121000147D01*
X119820273Y-121108320D01*
X119585241Y-121265363D01*
X119385363Y-121465241D01*
X119228320Y-121700273D01*
X119120147Y-121961426D01*
X119065000Y-122238665D01*
X116272921Y-122238665D01*
X116208325Y-121913919D01*
X116077537Y-121598169D01*
X115887663Y-121314002D01*
X115645998Y-121072337D01*
X115361831Y-120882463D01*
X115046081Y-120751675D01*
X114710883Y-120685000D01*
X114369117Y-120685000D01*
X114033919Y-120751675D01*
X113718169Y-120882463D01*
X113434002Y-121072337D01*
X113192337Y-121314002D01*
X113002463Y-121598169D01*
X112871675Y-121913919D01*
X112805000Y-122249117D01*
X112805000Y-122590883D01*
X112871675Y-122926081D01*
X113002463Y-123241831D01*
X113192337Y-123525998D01*
X113434002Y-123767663D01*
X113718169Y-123957537D01*
X113992093Y-124071000D01*
X109682656Y-124071000D01*
X109537663Y-123854002D01*
X109295998Y-123612337D01*
X109011831Y-123422463D01*
X108696081Y-123291675D01*
X108360883Y-123225000D01*
X108019117Y-123225000D01*
X107683919Y-123291675D01*
X107368169Y-123422463D01*
X107084002Y-123612337D01*
X106842337Y-123854002D01*
X106697344Y-124071000D01*
X96087907Y-124071000D01*
X96361831Y-123957537D01*
X96645998Y-123767663D01*
X96887663Y-123525998D01*
X97077537Y-123241831D01*
X97208325Y-122926081D01*
X97275000Y-122590883D01*
X97275000Y-122249117D01*
X97272921Y-122238665D01*
X100165000Y-122238665D01*
X100165000Y-122521335D01*
X100220147Y-122798574D01*
X100328320Y-123059727D01*
X100485363Y-123294759D01*
X100685241Y-123494637D01*
X100920273Y-123651680D01*
X101181426Y-123759853D01*
X101458665Y-123815000D01*
X101741335Y-123815000D01*
X102018574Y-123759853D01*
X102279727Y-123651680D01*
X102514759Y-123494637D01*
X102714637Y-123294759D01*
X102871680Y-123059727D01*
X102979853Y-122798574D01*
X103035000Y-122521335D01*
X103035000Y-122238665D01*
X102979853Y-121961426D01*
X102871680Y-121700273D01*
X102714637Y-121465241D01*
X102514759Y-121265363D01*
X102279727Y-121108320D01*
X102018574Y-121000147D01*
X101741335Y-120945000D01*
X101458665Y-120945000D01*
X101181426Y-121000147D01*
X100920273Y-121108320D01*
X100685241Y-121265363D01*
X100485363Y-121465241D01*
X100328320Y-121700273D01*
X100220147Y-121961426D01*
X100165000Y-122238665D01*
X97272921Y-122238665D01*
X97208325Y-121913919D01*
X97077537Y-121598169D01*
X96887663Y-121314002D01*
X96645998Y-121072337D01*
X96361831Y-120882463D01*
X96046081Y-120751675D01*
X95710883Y-120685000D01*
X95369117Y-120685000D01*
X95033919Y-120751675D01*
X94718169Y-120882463D01*
X94434002Y-121072337D01*
X94192337Y-121314002D01*
X94002463Y-121598169D01*
X93871675Y-121913919D01*
X93805000Y-122249117D01*
X93805000Y-122590883D01*
X93871675Y-122926081D01*
X94002463Y-123241831D01*
X94192337Y-123525998D01*
X94434002Y-123767663D01*
X94718169Y-123957537D01*
X94992093Y-124071000D01*
X90682656Y-124071000D01*
X90537663Y-123854002D01*
X90295998Y-123612337D01*
X90011831Y-123422463D01*
X89696081Y-123291675D01*
X89360883Y-123225000D01*
X89019117Y-123225000D01*
X88683919Y-123291675D01*
X88368169Y-123422463D01*
X88084002Y-123612337D01*
X87842337Y-123854002D01*
X87652463Y-124138169D01*
X87521675Y-124453919D01*
X87455000Y-124789117D01*
X87455000Y-125130883D01*
X87521675Y-125466081D01*
X87652463Y-125781831D01*
X87808261Y-126015000D01*
X87773740Y-126015000D01*
X87486842Y-126072068D01*
X87216589Y-126184010D01*
X86973368Y-126346525D01*
X86766525Y-126553368D01*
X86604010Y-126796589D01*
X86492068Y-127066842D01*
X86435000Y-127353740D01*
X80660000Y-127353740D01*
X80660000Y-119189000D01*
X161096928Y-119189000D01*
X161109188Y-119313482D01*
X161145498Y-119433180D01*
X161204463Y-119543494D01*
X161283815Y-119640185D01*
X161380506Y-119719537D01*
X161490820Y-119778502D01*
X161610518Y-119814812D01*
X161735000Y-119827072D01*
X162274250Y-119824000D01*
X162433000Y-119665250D01*
X162433000Y-118491000D01*
X162687000Y-118491000D01*
X162687000Y-119665250D01*
X162845750Y-119824000D01*
X163385000Y-119827072D01*
X163509482Y-119814812D01*
X163629180Y-119778502D01*
X163739494Y-119719537D01*
X163836185Y-119640185D01*
X163915537Y-119543494D01*
X163974502Y-119433180D01*
X164010812Y-119313482D01*
X164023072Y-119189000D01*
X164020000Y-118649750D01*
X163861250Y-118491000D01*
X162687000Y-118491000D01*
X162433000Y-118491000D01*
X161258750Y-118491000D01*
X161100000Y-118649750D01*
X161096928Y-119189000D01*
X80660000Y-119189000D01*
X80660000Y-117539000D01*
X161096928Y-117539000D01*
X161100000Y-118078250D01*
X161258750Y-118237000D01*
X162433000Y-118237000D01*
X162433000Y-117062750D01*
X162687000Y-117062750D01*
X162687000Y-118237000D01*
X163861250Y-118237000D01*
X164020000Y-118078250D01*
X164023072Y-117539000D01*
X164010812Y-117414518D01*
X163974502Y-117294820D01*
X163915537Y-117184506D01*
X163836185Y-117087815D01*
X163739494Y-117008463D01*
X163629180Y-116949498D01*
X163509482Y-116913188D01*
X163385000Y-116900928D01*
X162845750Y-116904000D01*
X162687000Y-117062750D01*
X162433000Y-117062750D01*
X162274250Y-116904000D01*
X161735000Y-116900928D01*
X161610518Y-116913188D01*
X161490820Y-116949498D01*
X161380506Y-117008463D01*
X161283815Y-117087815D01*
X161204463Y-117184506D01*
X161145498Y-117294820D01*
X161109188Y-117414518D01*
X161096928Y-117539000D01*
X80660000Y-117539000D01*
X80660000Y-108353740D01*
X86435000Y-108353740D01*
X86435000Y-108646260D01*
X86492068Y-108933158D01*
X86604010Y-109203411D01*
X86766525Y-109446632D01*
X86973368Y-109653475D01*
X87216589Y-109815990D01*
X87486842Y-109927932D01*
X87773740Y-109985000D01*
X88066260Y-109985000D01*
X88353158Y-109927932D01*
X88623411Y-109815990D01*
X88866632Y-109653475D01*
X89073475Y-109446632D01*
X89235990Y-109203411D01*
X89347932Y-108933158D01*
X89405000Y-108646260D01*
X89405000Y-108353740D01*
X89347932Y-108066842D01*
X89235990Y-107796589D01*
X89168110Y-107695000D01*
X89360883Y-107695000D01*
X89696081Y-107628325D01*
X90011831Y-107497537D01*
X90295998Y-107307663D01*
X90537663Y-107065998D01*
X90682656Y-106849000D01*
X90934075Y-106849000D01*
X90664893Y-107251859D01*
X90466261Y-107731399D01*
X90365000Y-108240475D01*
X90365000Y-108759525D01*
X90466261Y-109268601D01*
X90664893Y-109748141D01*
X90953262Y-110179715D01*
X91320285Y-110546738D01*
X91751859Y-110835107D01*
X92231399Y-111033739D01*
X92740475Y-111135000D01*
X93259525Y-111135000D01*
X93768601Y-111033739D01*
X94248141Y-110835107D01*
X94679715Y-110546738D01*
X95026453Y-110200000D01*
X100061928Y-110200000D01*
X100061928Y-111800000D01*
X100074188Y-111924482D01*
X100110498Y-112044180D01*
X100169463Y-112154494D01*
X100248815Y-112251185D01*
X100345506Y-112330537D01*
X100455820Y-112389502D01*
X100575518Y-112425812D01*
X100700000Y-112438072D01*
X102300000Y-112438072D01*
X102424482Y-112425812D01*
X102544180Y-112389502D01*
X102654494Y-112330537D01*
X102751185Y-112251185D01*
X102830537Y-112154494D01*
X102889502Y-112044180D01*
X102925812Y-111924482D01*
X102938072Y-111800000D01*
X102938072Y-110200000D01*
X102925812Y-110075518D01*
X102889502Y-109955820D01*
X102830537Y-109845506D01*
X102751185Y-109748815D01*
X102654494Y-109669463D01*
X102544180Y-109610498D01*
X102424482Y-109574188D01*
X102300000Y-109561928D01*
X100700000Y-109561928D01*
X100575518Y-109574188D01*
X100455820Y-109610498D01*
X100345506Y-109669463D01*
X100248815Y-109748815D01*
X100169463Y-109845506D01*
X100110498Y-109955820D01*
X100074188Y-110075518D01*
X100061928Y-110200000D01*
X95026453Y-110200000D01*
X95046738Y-110179715D01*
X95335107Y-109748141D01*
X95533739Y-109268601D01*
X95635000Y-108759525D01*
X95635000Y-108353740D01*
X96595000Y-108353740D01*
X96595000Y-108646260D01*
X96652068Y-108933158D01*
X96764010Y-109203411D01*
X96926525Y-109446632D01*
X97133368Y-109653475D01*
X97376589Y-109815990D01*
X97646842Y-109927932D01*
X97933740Y-109985000D01*
X98226260Y-109985000D01*
X98513158Y-109927932D01*
X98783411Y-109815990D01*
X99026632Y-109653475D01*
X99233475Y-109446632D01*
X99395990Y-109203411D01*
X99507932Y-108933158D01*
X99565000Y-108646260D01*
X99565000Y-108353740D01*
X99507932Y-108066842D01*
X99395990Y-107796589D01*
X99233475Y-107553368D01*
X99026632Y-107346525D01*
X98783411Y-107184010D01*
X98513158Y-107072068D01*
X98226260Y-107015000D01*
X97933740Y-107015000D01*
X97646842Y-107072068D01*
X97376589Y-107184010D01*
X97133368Y-107346525D01*
X96926525Y-107553368D01*
X96764010Y-107796589D01*
X96652068Y-108066842D01*
X96595000Y-108353740D01*
X95635000Y-108353740D01*
X95635000Y-108240475D01*
X95533739Y-107731399D01*
X95335107Y-107251859D01*
X95065925Y-106849000D01*
X106697344Y-106849000D01*
X106808261Y-107015000D01*
X106773740Y-107015000D01*
X106486842Y-107072068D01*
X106216589Y-107184010D01*
X105973368Y-107346525D01*
X105766525Y-107553368D01*
X105604010Y-107796589D01*
X105492068Y-108066842D01*
X105435000Y-108353740D01*
X105435000Y-108646260D01*
X105492068Y-108933158D01*
X105604010Y-109203411D01*
X105766525Y-109446632D01*
X105973368Y-109653475D01*
X106216589Y-109815990D01*
X106486842Y-109927932D01*
X106773740Y-109985000D01*
X107066260Y-109985000D01*
X107353158Y-109927932D01*
X107623411Y-109815990D01*
X107866632Y-109653475D01*
X108073475Y-109446632D01*
X108235990Y-109203411D01*
X108347932Y-108933158D01*
X108405000Y-108646260D01*
X108405000Y-108353740D01*
X108347932Y-108066842D01*
X108235990Y-107796589D01*
X108168110Y-107695000D01*
X108360883Y-107695000D01*
X108696081Y-107628325D01*
X109011831Y-107497537D01*
X109295998Y-107307663D01*
X109537663Y-107065998D01*
X109682656Y-106849000D01*
X109934075Y-106849000D01*
X109664893Y-107251859D01*
X109466261Y-107731399D01*
X109365000Y-108240475D01*
X109365000Y-108759525D01*
X109466261Y-109268601D01*
X109664893Y-109748141D01*
X109953262Y-110179715D01*
X110320285Y-110546738D01*
X110751859Y-110835107D01*
X111231399Y-111033739D01*
X111740475Y-111135000D01*
X112259525Y-111135000D01*
X112768601Y-111033739D01*
X113248141Y-110835107D01*
X113679715Y-110546738D01*
X114026453Y-110200000D01*
X119061928Y-110200000D01*
X119061928Y-111800000D01*
X119074188Y-111924482D01*
X119110498Y-112044180D01*
X119169463Y-112154494D01*
X119248815Y-112251185D01*
X119345506Y-112330537D01*
X119455820Y-112389502D01*
X119575518Y-112425812D01*
X119700000Y-112438072D01*
X121300000Y-112438072D01*
X121424482Y-112425812D01*
X121544180Y-112389502D01*
X121654494Y-112330537D01*
X121751185Y-112251185D01*
X121830537Y-112154494D01*
X121889502Y-112044180D01*
X121925812Y-111924482D01*
X121938072Y-111800000D01*
X121938072Y-110200000D01*
X121925812Y-110075518D01*
X121889502Y-109955820D01*
X121830537Y-109845506D01*
X121751185Y-109748815D01*
X121654494Y-109669463D01*
X121544180Y-109610498D01*
X121424482Y-109574188D01*
X121300000Y-109561928D01*
X119700000Y-109561928D01*
X119575518Y-109574188D01*
X119455820Y-109610498D01*
X119345506Y-109669463D01*
X119248815Y-109748815D01*
X119169463Y-109845506D01*
X119110498Y-109955820D01*
X119074188Y-110075518D01*
X119061928Y-110200000D01*
X114026453Y-110200000D01*
X114046738Y-110179715D01*
X114335107Y-109748141D01*
X114533739Y-109268601D01*
X114635000Y-108759525D01*
X114635000Y-108353740D01*
X115595000Y-108353740D01*
X115595000Y-108646260D01*
X115652068Y-108933158D01*
X115764010Y-109203411D01*
X115926525Y-109446632D01*
X116133368Y-109653475D01*
X116376589Y-109815990D01*
X116646842Y-109927932D01*
X116933740Y-109985000D01*
X117226260Y-109985000D01*
X117513158Y-109927932D01*
X117783411Y-109815990D01*
X118026632Y-109653475D01*
X118233475Y-109446632D01*
X118395990Y-109203411D01*
X118507932Y-108933158D01*
X118565000Y-108646260D01*
X118565000Y-108353740D01*
X118507932Y-108066842D01*
X118395990Y-107796589D01*
X118233475Y-107553368D01*
X118026632Y-107346525D01*
X117783411Y-107184010D01*
X117513158Y-107072068D01*
X117226260Y-107015000D01*
X116933740Y-107015000D01*
X116646842Y-107072068D01*
X116376589Y-107184010D01*
X116133368Y-107346525D01*
X115926525Y-107553368D01*
X115764010Y-107796589D01*
X115652068Y-108066842D01*
X115595000Y-108353740D01*
X114635000Y-108353740D01*
X114635000Y-108240475D01*
X114533739Y-107731399D01*
X114335107Y-107251859D01*
X114065925Y-106849000D01*
X125697344Y-106849000D01*
X125808261Y-107015000D01*
X125773740Y-107015000D01*
X125486842Y-107072068D01*
X125216589Y-107184010D01*
X124973368Y-107346525D01*
X124766525Y-107553368D01*
X124604010Y-107796589D01*
X124492068Y-108066842D01*
X124435000Y-108353740D01*
X124435000Y-108646260D01*
X124492068Y-108933158D01*
X124604010Y-109203411D01*
X124766525Y-109446632D01*
X124973368Y-109653475D01*
X125216589Y-109815990D01*
X125486842Y-109927932D01*
X125773740Y-109985000D01*
X126066260Y-109985000D01*
X126353158Y-109927932D01*
X126623411Y-109815990D01*
X126866632Y-109653475D01*
X127073475Y-109446632D01*
X127235990Y-109203411D01*
X127347932Y-108933158D01*
X127405000Y-108646260D01*
X127405000Y-108353740D01*
X127382471Y-108240475D01*
X128365000Y-108240475D01*
X128365000Y-108759525D01*
X128466261Y-109268601D01*
X128664893Y-109748141D01*
X128953262Y-110179715D01*
X129320285Y-110546738D01*
X129751859Y-110835107D01*
X130231399Y-111033739D01*
X130740475Y-111135000D01*
X131259525Y-111135000D01*
X131768601Y-111033739D01*
X132248141Y-110835107D01*
X132679715Y-110546738D01*
X133026453Y-110200000D01*
X138061928Y-110200000D01*
X138061928Y-111800000D01*
X138074188Y-111924482D01*
X138110498Y-112044180D01*
X138169463Y-112154494D01*
X138248815Y-112251185D01*
X138345506Y-112330537D01*
X138455820Y-112389502D01*
X138575518Y-112425812D01*
X138700000Y-112438072D01*
X140300000Y-112438072D01*
X140424482Y-112425812D01*
X140544180Y-112389502D01*
X140654494Y-112330537D01*
X140751185Y-112251185D01*
X140830537Y-112154494D01*
X140889502Y-112044180D01*
X140925812Y-111924482D01*
X140938072Y-111800000D01*
X140938072Y-110200000D01*
X140925812Y-110075518D01*
X140889502Y-109955820D01*
X140830537Y-109845506D01*
X140751185Y-109748815D01*
X140654494Y-109669463D01*
X140544180Y-109610498D01*
X140424482Y-109574188D01*
X140300000Y-109561928D01*
X138700000Y-109561928D01*
X138575518Y-109574188D01*
X138455820Y-109610498D01*
X138345506Y-109669463D01*
X138248815Y-109748815D01*
X138169463Y-109845506D01*
X138110498Y-109955820D01*
X138074188Y-110075518D01*
X138061928Y-110200000D01*
X133026453Y-110200000D01*
X133046738Y-110179715D01*
X133335107Y-109748141D01*
X133533739Y-109268601D01*
X133635000Y-108759525D01*
X133635000Y-108353740D01*
X134595000Y-108353740D01*
X134595000Y-108646260D01*
X134652068Y-108933158D01*
X134764010Y-109203411D01*
X134926525Y-109446632D01*
X135133368Y-109653475D01*
X135376589Y-109815990D01*
X135646842Y-109927932D01*
X135933740Y-109985000D01*
X136226260Y-109985000D01*
X136513158Y-109927932D01*
X136783411Y-109815990D01*
X137026632Y-109653475D01*
X137233475Y-109446632D01*
X137395990Y-109203411D01*
X137507932Y-108933158D01*
X137565000Y-108646260D01*
X137565000Y-108353740D01*
X137507932Y-108066842D01*
X137395990Y-107796589D01*
X137233475Y-107553368D01*
X137026632Y-107346525D01*
X136783411Y-107184010D01*
X136513158Y-107072068D01*
X136226260Y-107015000D01*
X135933740Y-107015000D01*
X135646842Y-107072068D01*
X135376589Y-107184010D01*
X135133368Y-107346525D01*
X134926525Y-107553368D01*
X134764010Y-107796589D01*
X134652068Y-108066842D01*
X134595000Y-108353740D01*
X133635000Y-108353740D01*
X133635000Y-108240475D01*
X133533739Y-107731399D01*
X133335107Y-107251859D01*
X133046738Y-106820285D01*
X132679715Y-106453262D01*
X132248141Y-106164893D01*
X131768601Y-105966261D01*
X131259525Y-105865000D01*
X130740475Y-105865000D01*
X130231399Y-105966261D01*
X129751859Y-106164893D01*
X129320285Y-106453262D01*
X128953262Y-106820285D01*
X128664893Y-107251859D01*
X128466261Y-107731399D01*
X128365000Y-108240475D01*
X127382471Y-108240475D01*
X127347932Y-108066842D01*
X127235990Y-107796589D01*
X127168110Y-107695000D01*
X127360883Y-107695000D01*
X127696081Y-107628325D01*
X128011831Y-107497537D01*
X128295998Y-107307663D01*
X128537663Y-107065998D01*
X128727537Y-106781831D01*
X128858325Y-106466081D01*
X128925000Y-106130883D01*
X128925000Y-105789117D01*
X128858325Y-105453919D01*
X128727537Y-105138169D01*
X128537663Y-104854002D01*
X128295998Y-104612337D01*
X128011831Y-104422463D01*
X127696081Y-104291675D01*
X127360883Y-104225000D01*
X127019117Y-104225000D01*
X126683919Y-104291675D01*
X126368169Y-104422463D01*
X126084002Y-104612337D01*
X125842337Y-104854002D01*
X125697344Y-105071000D01*
X115087907Y-105071000D01*
X115361831Y-104957537D01*
X115645998Y-104767663D01*
X115887663Y-104525998D01*
X116077537Y-104241831D01*
X116208325Y-103926081D01*
X116275000Y-103590883D01*
X116275000Y-103249117D01*
X116272921Y-103238665D01*
X119065000Y-103238665D01*
X119065000Y-103521335D01*
X119120147Y-103798574D01*
X119228320Y-104059727D01*
X119385363Y-104294759D01*
X119585241Y-104494637D01*
X119820273Y-104651680D01*
X120081426Y-104759853D01*
X120358665Y-104815000D01*
X120641335Y-104815000D01*
X120918574Y-104759853D01*
X121179727Y-104651680D01*
X121414759Y-104494637D01*
X121614637Y-104294759D01*
X121771680Y-104059727D01*
X121879853Y-103798574D01*
X121935000Y-103521335D01*
X121935000Y-103249117D01*
X131805000Y-103249117D01*
X131805000Y-103590883D01*
X131871675Y-103926081D01*
X132002463Y-104241831D01*
X132192337Y-104525998D01*
X132434002Y-104767663D01*
X132718169Y-104957537D01*
X133033919Y-105088325D01*
X133369117Y-105155000D01*
X133710883Y-105155000D01*
X134046081Y-105088325D01*
X134361831Y-104957537D01*
X134645998Y-104767663D01*
X134887663Y-104525998D01*
X135077537Y-104241831D01*
X135208325Y-103926081D01*
X135275000Y-103590883D01*
X135275000Y-103249117D01*
X135272921Y-103238665D01*
X138065000Y-103238665D01*
X138065000Y-103521335D01*
X138120147Y-103798574D01*
X138228320Y-104059727D01*
X138385363Y-104294759D01*
X138585241Y-104494637D01*
X138820273Y-104651680D01*
X139081426Y-104759853D01*
X139358665Y-104815000D01*
X139641335Y-104815000D01*
X139918574Y-104759853D01*
X140179727Y-104651680D01*
X140414759Y-104494637D01*
X140614637Y-104294759D01*
X140771680Y-104059727D01*
X140879853Y-103798574D01*
X140935000Y-103521335D01*
X140935000Y-103238665D01*
X140879853Y-102961426D01*
X140771680Y-102700273D01*
X140614637Y-102465241D01*
X140414759Y-102265363D01*
X140179727Y-102108320D01*
X139918574Y-102000147D01*
X139799765Y-101976514D01*
X157669000Y-101976514D01*
X157669000Y-102239486D01*
X157720304Y-102497405D01*
X157820939Y-102740359D01*
X157967038Y-102959013D01*
X158152987Y-103144962D01*
X158371641Y-103291061D01*
X158614595Y-103391696D01*
X158872514Y-103443000D01*
X159135486Y-103443000D01*
X159393405Y-103391696D01*
X159636359Y-103291061D01*
X159855013Y-103144962D01*
X160040962Y-102959013D01*
X160187061Y-102740359D01*
X160287696Y-102497405D01*
X160339000Y-102239486D01*
X160339000Y-101976514D01*
X162241000Y-101976514D01*
X162241000Y-102239486D01*
X162292304Y-102497405D01*
X162392939Y-102740359D01*
X162539038Y-102959013D01*
X162724987Y-103144962D01*
X162943641Y-103291061D01*
X163186595Y-103391696D01*
X163444514Y-103443000D01*
X163707486Y-103443000D01*
X163965405Y-103391696D01*
X164208359Y-103291061D01*
X164427013Y-103144962D01*
X164612962Y-102959013D01*
X164759061Y-102740359D01*
X164859696Y-102497405D01*
X164911000Y-102239486D01*
X164911000Y-101976514D01*
X166813000Y-101976514D01*
X166813000Y-102239486D01*
X166864304Y-102497405D01*
X166964939Y-102740359D01*
X167111038Y-102959013D01*
X167296987Y-103144962D01*
X167515641Y-103291061D01*
X167758595Y-103391696D01*
X168016514Y-103443000D01*
X168279486Y-103443000D01*
X168537405Y-103391696D01*
X168780359Y-103291061D01*
X168999013Y-103144962D01*
X169184962Y-102959013D01*
X169331061Y-102740359D01*
X169431696Y-102497405D01*
X169483000Y-102239486D01*
X169483000Y-101976514D01*
X169431696Y-101718595D01*
X169331061Y-101475641D01*
X169184962Y-101256987D01*
X168999013Y-101071038D01*
X168780359Y-100924939D01*
X168537405Y-100824304D01*
X168279486Y-100773000D01*
X168016514Y-100773000D01*
X167758595Y-100824304D01*
X167515641Y-100924939D01*
X167296987Y-101071038D01*
X167111038Y-101256987D01*
X166964939Y-101475641D01*
X166864304Y-101718595D01*
X166813000Y-101976514D01*
X164911000Y-101976514D01*
X164859696Y-101718595D01*
X164759061Y-101475641D01*
X164612962Y-101256987D01*
X164427013Y-101071038D01*
X164208359Y-100924939D01*
X163965405Y-100824304D01*
X163707486Y-100773000D01*
X163444514Y-100773000D01*
X163186595Y-100824304D01*
X162943641Y-100924939D01*
X162724987Y-101071038D01*
X162539038Y-101256987D01*
X162392939Y-101475641D01*
X162292304Y-101718595D01*
X162241000Y-101976514D01*
X160339000Y-101976514D01*
X160287696Y-101718595D01*
X160187061Y-101475641D01*
X160040962Y-101256987D01*
X159855013Y-101071038D01*
X159636359Y-100924939D01*
X159393405Y-100824304D01*
X159135486Y-100773000D01*
X158872514Y-100773000D01*
X158614595Y-100824304D01*
X158371641Y-100924939D01*
X158152987Y-101071038D01*
X157967038Y-101256987D01*
X157820939Y-101475641D01*
X157720304Y-101718595D01*
X157669000Y-101976514D01*
X139799765Y-101976514D01*
X139641335Y-101945000D01*
X139358665Y-101945000D01*
X139081426Y-102000147D01*
X138820273Y-102108320D01*
X138585241Y-102265363D01*
X138385363Y-102465241D01*
X138228320Y-102700273D01*
X138120147Y-102961426D01*
X138065000Y-103238665D01*
X135272921Y-103238665D01*
X135208325Y-102913919D01*
X135077537Y-102598169D01*
X134887663Y-102314002D01*
X134645998Y-102072337D01*
X134361831Y-101882463D01*
X134046081Y-101751675D01*
X133710883Y-101685000D01*
X133369117Y-101685000D01*
X133033919Y-101751675D01*
X132718169Y-101882463D01*
X132434002Y-102072337D01*
X132192337Y-102314002D01*
X132002463Y-102598169D01*
X131871675Y-102913919D01*
X131805000Y-103249117D01*
X121935000Y-103249117D01*
X121935000Y-103238665D01*
X121879853Y-102961426D01*
X121771680Y-102700273D01*
X121614637Y-102465241D01*
X121414759Y-102265363D01*
X121179727Y-102108320D01*
X120918574Y-102000147D01*
X120641335Y-101945000D01*
X120358665Y-101945000D01*
X120081426Y-102000147D01*
X119820273Y-102108320D01*
X119585241Y-102265363D01*
X119385363Y-102465241D01*
X119228320Y-102700273D01*
X119120147Y-102961426D01*
X119065000Y-103238665D01*
X116272921Y-103238665D01*
X116208325Y-102913919D01*
X116077537Y-102598169D01*
X115887663Y-102314002D01*
X115645998Y-102072337D01*
X115361831Y-101882463D01*
X115046081Y-101751675D01*
X114710883Y-101685000D01*
X114369117Y-101685000D01*
X114033919Y-101751675D01*
X113718169Y-101882463D01*
X113434002Y-102072337D01*
X113192337Y-102314002D01*
X113002463Y-102598169D01*
X112871675Y-102913919D01*
X112805000Y-103249117D01*
X112805000Y-103590883D01*
X112871675Y-103926081D01*
X113002463Y-104241831D01*
X113192337Y-104525998D01*
X113434002Y-104767663D01*
X113718169Y-104957537D01*
X113992093Y-105071000D01*
X109682656Y-105071000D01*
X109537663Y-104854002D01*
X109295998Y-104612337D01*
X109011831Y-104422463D01*
X108696081Y-104291675D01*
X108360883Y-104225000D01*
X108019117Y-104225000D01*
X107683919Y-104291675D01*
X107368169Y-104422463D01*
X107084002Y-104612337D01*
X106842337Y-104854002D01*
X106697344Y-105071000D01*
X96087907Y-105071000D01*
X96361831Y-104957537D01*
X96645998Y-104767663D01*
X96887663Y-104525998D01*
X97077537Y-104241831D01*
X97208325Y-103926081D01*
X97275000Y-103590883D01*
X97275000Y-103249117D01*
X97272921Y-103238665D01*
X100065000Y-103238665D01*
X100065000Y-103521335D01*
X100120147Y-103798574D01*
X100228320Y-104059727D01*
X100385363Y-104294759D01*
X100585241Y-104494637D01*
X100820273Y-104651680D01*
X101081426Y-104759853D01*
X101358665Y-104815000D01*
X101641335Y-104815000D01*
X101918574Y-104759853D01*
X102179727Y-104651680D01*
X102414759Y-104494637D01*
X102614637Y-104294759D01*
X102771680Y-104059727D01*
X102879853Y-103798574D01*
X102935000Y-103521335D01*
X102935000Y-103238665D01*
X102879853Y-102961426D01*
X102771680Y-102700273D01*
X102614637Y-102465241D01*
X102414759Y-102265363D01*
X102179727Y-102108320D01*
X101918574Y-102000147D01*
X101641335Y-101945000D01*
X101358665Y-101945000D01*
X101081426Y-102000147D01*
X100820273Y-102108320D01*
X100585241Y-102265363D01*
X100385363Y-102465241D01*
X100228320Y-102700273D01*
X100120147Y-102961426D01*
X100065000Y-103238665D01*
X97272921Y-103238665D01*
X97208325Y-102913919D01*
X97077537Y-102598169D01*
X96887663Y-102314002D01*
X96645998Y-102072337D01*
X96361831Y-101882463D01*
X96046081Y-101751675D01*
X95710883Y-101685000D01*
X95369117Y-101685000D01*
X95033919Y-101751675D01*
X94718169Y-101882463D01*
X94434002Y-102072337D01*
X94192337Y-102314002D01*
X94002463Y-102598169D01*
X93871675Y-102913919D01*
X93805000Y-103249117D01*
X93805000Y-103590883D01*
X93871675Y-103926081D01*
X94002463Y-104241831D01*
X94192337Y-104525998D01*
X94434002Y-104767663D01*
X94718169Y-104957537D01*
X94992093Y-105071000D01*
X90682656Y-105071000D01*
X90537663Y-104854002D01*
X90295998Y-104612337D01*
X90011831Y-104422463D01*
X89696081Y-104291675D01*
X89360883Y-104225000D01*
X89019117Y-104225000D01*
X88683919Y-104291675D01*
X88368169Y-104422463D01*
X88084002Y-104612337D01*
X87842337Y-104854002D01*
X87652463Y-105138169D01*
X87521675Y-105453919D01*
X87455000Y-105789117D01*
X87455000Y-106130883D01*
X87521675Y-106466081D01*
X87652463Y-106781831D01*
X87808261Y-107015000D01*
X87773740Y-107015000D01*
X87486842Y-107072068D01*
X87216589Y-107184010D01*
X86973368Y-107346525D01*
X86766525Y-107553368D01*
X86604010Y-107796589D01*
X86492068Y-108066842D01*
X86435000Y-108353740D01*
X80660000Y-108353740D01*
X80660000Y-89261740D01*
X86435000Y-89261740D01*
X86435000Y-89554260D01*
X86492068Y-89841158D01*
X86604010Y-90111411D01*
X86766525Y-90354632D01*
X86973368Y-90561475D01*
X87216589Y-90723990D01*
X87486842Y-90835932D01*
X87773740Y-90893000D01*
X88066260Y-90893000D01*
X88353158Y-90835932D01*
X88623411Y-90723990D01*
X88866632Y-90561475D01*
X89073475Y-90354632D01*
X89235990Y-90111411D01*
X89347932Y-89841158D01*
X89405000Y-89554260D01*
X89405000Y-89261740D01*
X89347932Y-88974842D01*
X89235990Y-88704589D01*
X89168110Y-88603000D01*
X89360883Y-88603000D01*
X89696081Y-88536325D01*
X90011831Y-88405537D01*
X90295998Y-88215663D01*
X90537663Y-87973998D01*
X90682656Y-87757000D01*
X90934075Y-87757000D01*
X90664893Y-88159859D01*
X90466261Y-88639399D01*
X90365000Y-89148475D01*
X90365000Y-89667525D01*
X90466261Y-90176601D01*
X90664893Y-90656141D01*
X90953262Y-91087715D01*
X91320285Y-91454738D01*
X91751859Y-91743107D01*
X92231399Y-91941739D01*
X92740475Y-92043000D01*
X93259525Y-92043000D01*
X93768601Y-91941739D01*
X94248141Y-91743107D01*
X94679715Y-91454738D01*
X94934453Y-91200000D01*
X100061928Y-91200000D01*
X100061928Y-92800000D01*
X100074188Y-92924482D01*
X100110498Y-93044180D01*
X100169463Y-93154494D01*
X100248815Y-93251185D01*
X100345506Y-93330537D01*
X100455820Y-93389502D01*
X100575518Y-93425812D01*
X100700000Y-93438072D01*
X102300000Y-93438072D01*
X102424482Y-93425812D01*
X102544180Y-93389502D01*
X102654494Y-93330537D01*
X102751185Y-93251185D01*
X102830537Y-93154494D01*
X102889502Y-93044180D01*
X102925812Y-92924482D01*
X102938072Y-92800000D01*
X102938072Y-91200000D01*
X102925812Y-91075518D01*
X102889502Y-90955820D01*
X102830537Y-90845506D01*
X102751185Y-90748815D01*
X102654494Y-90669463D01*
X102544180Y-90610498D01*
X102424482Y-90574188D01*
X102300000Y-90561928D01*
X100700000Y-90561928D01*
X100575518Y-90574188D01*
X100455820Y-90610498D01*
X100345506Y-90669463D01*
X100248815Y-90748815D01*
X100169463Y-90845506D01*
X100110498Y-90955820D01*
X100074188Y-91075518D01*
X100061928Y-91200000D01*
X94934453Y-91200000D01*
X95046738Y-91087715D01*
X95335107Y-90656141D01*
X95533739Y-90176601D01*
X95635000Y-89667525D01*
X95635000Y-89261740D01*
X96595000Y-89261740D01*
X96595000Y-89554260D01*
X96652068Y-89841158D01*
X96764010Y-90111411D01*
X96926525Y-90354632D01*
X97133368Y-90561475D01*
X97376589Y-90723990D01*
X97646842Y-90835932D01*
X97933740Y-90893000D01*
X98226260Y-90893000D01*
X98513158Y-90835932D01*
X98783411Y-90723990D01*
X99026632Y-90561475D01*
X99233475Y-90354632D01*
X99395990Y-90111411D01*
X99507932Y-89841158D01*
X99565000Y-89554260D01*
X99565000Y-89261740D01*
X99507932Y-88974842D01*
X99395990Y-88704589D01*
X99233475Y-88461368D01*
X99026632Y-88254525D01*
X98783411Y-88092010D01*
X98513158Y-87980068D01*
X98226260Y-87923000D01*
X97933740Y-87923000D01*
X97646842Y-87980068D01*
X97376589Y-88092010D01*
X97133368Y-88254525D01*
X96926525Y-88461368D01*
X96764010Y-88704589D01*
X96652068Y-88974842D01*
X96595000Y-89261740D01*
X95635000Y-89261740D01*
X95635000Y-89148475D01*
X95533739Y-88639399D01*
X95335107Y-88159859D01*
X95065925Y-87757000D01*
X106697344Y-87757000D01*
X106808261Y-87923000D01*
X106773740Y-87923000D01*
X106486842Y-87980068D01*
X106216589Y-88092010D01*
X105973368Y-88254525D01*
X105766525Y-88461368D01*
X105604010Y-88704589D01*
X105492068Y-88974842D01*
X105435000Y-89261740D01*
X105435000Y-89554260D01*
X105492068Y-89841158D01*
X105604010Y-90111411D01*
X105766525Y-90354632D01*
X105973368Y-90561475D01*
X106216589Y-90723990D01*
X106486842Y-90835932D01*
X106773740Y-90893000D01*
X107066260Y-90893000D01*
X107353158Y-90835932D01*
X107623411Y-90723990D01*
X107866632Y-90561475D01*
X108073475Y-90354632D01*
X108235990Y-90111411D01*
X108347932Y-89841158D01*
X108405000Y-89554260D01*
X108405000Y-89261740D01*
X108347932Y-88974842D01*
X108235990Y-88704589D01*
X108168110Y-88603000D01*
X108360883Y-88603000D01*
X108696081Y-88536325D01*
X109011831Y-88405537D01*
X109295998Y-88215663D01*
X109537663Y-87973998D01*
X109682656Y-87757000D01*
X109934075Y-87757000D01*
X109664893Y-88159859D01*
X109466261Y-88639399D01*
X109365000Y-89148475D01*
X109365000Y-89667525D01*
X109466261Y-90176601D01*
X109664893Y-90656141D01*
X109953262Y-91087715D01*
X110320285Y-91454738D01*
X110751859Y-91743107D01*
X111231399Y-91941739D01*
X111740475Y-92043000D01*
X112259525Y-92043000D01*
X112768601Y-91941739D01*
X113248141Y-91743107D01*
X113679715Y-91454738D01*
X113934453Y-91200000D01*
X119061928Y-91200000D01*
X119061928Y-92800000D01*
X119074188Y-92924482D01*
X119110498Y-93044180D01*
X119169463Y-93154494D01*
X119248815Y-93251185D01*
X119345506Y-93330537D01*
X119455820Y-93389502D01*
X119575518Y-93425812D01*
X119700000Y-93438072D01*
X121300000Y-93438072D01*
X121424482Y-93425812D01*
X121544180Y-93389502D01*
X121654494Y-93330537D01*
X121751185Y-93251185D01*
X121830537Y-93154494D01*
X121889502Y-93044180D01*
X121925812Y-92924482D01*
X121938072Y-92800000D01*
X121938072Y-91200000D01*
X121925812Y-91075518D01*
X121889502Y-90955820D01*
X121830537Y-90845506D01*
X121751185Y-90748815D01*
X121654494Y-90669463D01*
X121544180Y-90610498D01*
X121424482Y-90574188D01*
X121300000Y-90561928D01*
X119700000Y-90561928D01*
X119575518Y-90574188D01*
X119455820Y-90610498D01*
X119345506Y-90669463D01*
X119248815Y-90748815D01*
X119169463Y-90845506D01*
X119110498Y-90955820D01*
X119074188Y-91075518D01*
X119061928Y-91200000D01*
X113934453Y-91200000D01*
X114046738Y-91087715D01*
X114335107Y-90656141D01*
X114533739Y-90176601D01*
X114635000Y-89667525D01*
X114635000Y-89261740D01*
X115595000Y-89261740D01*
X115595000Y-89554260D01*
X115652068Y-89841158D01*
X115764010Y-90111411D01*
X115926525Y-90354632D01*
X116133368Y-90561475D01*
X116376589Y-90723990D01*
X116646842Y-90835932D01*
X116933740Y-90893000D01*
X117226260Y-90893000D01*
X117513158Y-90835932D01*
X117783411Y-90723990D01*
X118026632Y-90561475D01*
X118233475Y-90354632D01*
X118395990Y-90111411D01*
X118507932Y-89841158D01*
X118565000Y-89554260D01*
X118565000Y-89261740D01*
X118507932Y-88974842D01*
X118395990Y-88704589D01*
X118233475Y-88461368D01*
X118026632Y-88254525D01*
X117783411Y-88092010D01*
X117513158Y-87980068D01*
X117226260Y-87923000D01*
X116933740Y-87923000D01*
X116646842Y-87980068D01*
X116376589Y-88092010D01*
X116133368Y-88254525D01*
X115926525Y-88461368D01*
X115764010Y-88704589D01*
X115652068Y-88974842D01*
X115595000Y-89261740D01*
X114635000Y-89261740D01*
X114635000Y-89148475D01*
X114533739Y-88639399D01*
X114335107Y-88159859D01*
X114065925Y-87757000D01*
X125697344Y-87757000D01*
X125808261Y-87923000D01*
X125773740Y-87923000D01*
X125486842Y-87980068D01*
X125216589Y-88092010D01*
X124973368Y-88254525D01*
X124766525Y-88461368D01*
X124604010Y-88704589D01*
X124492068Y-88974842D01*
X124435000Y-89261740D01*
X124435000Y-89554260D01*
X124492068Y-89841158D01*
X124604010Y-90111411D01*
X124766525Y-90354632D01*
X124973368Y-90561475D01*
X125216589Y-90723990D01*
X125486842Y-90835932D01*
X125773740Y-90893000D01*
X126066260Y-90893000D01*
X126353158Y-90835932D01*
X126623411Y-90723990D01*
X126866632Y-90561475D01*
X127073475Y-90354632D01*
X127235990Y-90111411D01*
X127347932Y-89841158D01*
X127405000Y-89554260D01*
X127405000Y-89261740D01*
X127382471Y-89148475D01*
X128365000Y-89148475D01*
X128365000Y-89667525D01*
X128466261Y-90176601D01*
X128664893Y-90656141D01*
X128953262Y-91087715D01*
X129320285Y-91454738D01*
X129751859Y-91743107D01*
X130231399Y-91941739D01*
X130740475Y-92043000D01*
X131259525Y-92043000D01*
X131768601Y-91941739D01*
X132248141Y-91743107D01*
X132679715Y-91454738D01*
X132934453Y-91200000D01*
X138061928Y-91200000D01*
X138061928Y-92800000D01*
X138074188Y-92924482D01*
X138110498Y-93044180D01*
X138169463Y-93154494D01*
X138248815Y-93251185D01*
X138345506Y-93330537D01*
X138455820Y-93389502D01*
X138575518Y-93425812D01*
X138700000Y-93438072D01*
X140300000Y-93438072D01*
X140424482Y-93425812D01*
X140544180Y-93389502D01*
X140654494Y-93330537D01*
X140751185Y-93251185D01*
X140830537Y-93154494D01*
X140889502Y-93044180D01*
X140925812Y-92924482D01*
X140938072Y-92800000D01*
X140938072Y-91200000D01*
X140925812Y-91075518D01*
X140889502Y-90955820D01*
X140830537Y-90845506D01*
X140751185Y-90748815D01*
X140654494Y-90669463D01*
X140544180Y-90610498D01*
X140424482Y-90574188D01*
X140300000Y-90561928D01*
X138700000Y-90561928D01*
X138575518Y-90574188D01*
X138455820Y-90610498D01*
X138345506Y-90669463D01*
X138248815Y-90748815D01*
X138169463Y-90845506D01*
X138110498Y-90955820D01*
X138074188Y-91075518D01*
X138061928Y-91200000D01*
X132934453Y-91200000D01*
X133046738Y-91087715D01*
X133335107Y-90656141D01*
X133533739Y-90176601D01*
X133635000Y-89667525D01*
X133635000Y-89261740D01*
X134595000Y-89261740D01*
X134595000Y-89554260D01*
X134652068Y-89841158D01*
X134764010Y-90111411D01*
X134926525Y-90354632D01*
X135133368Y-90561475D01*
X135376589Y-90723990D01*
X135646842Y-90835932D01*
X135933740Y-90893000D01*
X136226260Y-90893000D01*
X136513158Y-90835932D01*
X136783411Y-90723990D01*
X137026632Y-90561475D01*
X137233475Y-90354632D01*
X137395990Y-90111411D01*
X137507932Y-89841158D01*
X137565000Y-89554260D01*
X137565000Y-89261740D01*
X137507932Y-88974842D01*
X137395990Y-88704589D01*
X137233475Y-88461368D01*
X137026632Y-88254525D01*
X136783411Y-88092010D01*
X136513158Y-87980068D01*
X136226260Y-87923000D01*
X135933740Y-87923000D01*
X135646842Y-87980068D01*
X135376589Y-88092010D01*
X135133368Y-88254525D01*
X134926525Y-88461368D01*
X134764010Y-88704589D01*
X134652068Y-88974842D01*
X134595000Y-89261740D01*
X133635000Y-89261740D01*
X133635000Y-89148475D01*
X133533739Y-88639399D01*
X133335107Y-88159859D01*
X133046738Y-87728285D01*
X132679715Y-87361262D01*
X132248141Y-87072893D01*
X131768601Y-86874261D01*
X131259525Y-86773000D01*
X130740475Y-86773000D01*
X130231399Y-86874261D01*
X129751859Y-87072893D01*
X129320285Y-87361262D01*
X128953262Y-87728285D01*
X128664893Y-88159859D01*
X128466261Y-88639399D01*
X128365000Y-89148475D01*
X127382471Y-89148475D01*
X127347932Y-88974842D01*
X127235990Y-88704589D01*
X127168110Y-88603000D01*
X127360883Y-88603000D01*
X127696081Y-88536325D01*
X128011831Y-88405537D01*
X128295998Y-88215663D01*
X128537663Y-87973998D01*
X128727537Y-87689831D01*
X128858325Y-87374081D01*
X128925000Y-87038883D01*
X128925000Y-86697117D01*
X128858325Y-86361919D01*
X128727537Y-86046169D01*
X128537663Y-85762002D01*
X128295998Y-85520337D01*
X128011831Y-85330463D01*
X127696081Y-85199675D01*
X127360883Y-85133000D01*
X127019117Y-85133000D01*
X126683919Y-85199675D01*
X126368169Y-85330463D01*
X126084002Y-85520337D01*
X125842337Y-85762002D01*
X125697344Y-85979000D01*
X115087907Y-85979000D01*
X115361831Y-85865537D01*
X115645998Y-85675663D01*
X115887663Y-85433998D01*
X116077537Y-85149831D01*
X116208325Y-84834081D01*
X116275000Y-84498883D01*
X116275000Y-84238665D01*
X119065000Y-84238665D01*
X119065000Y-84521335D01*
X119120147Y-84798574D01*
X119228320Y-85059727D01*
X119385363Y-85294759D01*
X119585241Y-85494637D01*
X119820273Y-85651680D01*
X120081426Y-85759853D01*
X120358665Y-85815000D01*
X120641335Y-85815000D01*
X120918574Y-85759853D01*
X121179727Y-85651680D01*
X121414759Y-85494637D01*
X121614637Y-85294759D01*
X121771680Y-85059727D01*
X121879853Y-84798574D01*
X121935000Y-84521335D01*
X121935000Y-84238665D01*
X121918779Y-84157117D01*
X131805000Y-84157117D01*
X131805000Y-84498883D01*
X131871675Y-84834081D01*
X132002463Y-85149831D01*
X132192337Y-85433998D01*
X132434002Y-85675663D01*
X132718169Y-85865537D01*
X133033919Y-85996325D01*
X133369117Y-86063000D01*
X133710883Y-86063000D01*
X134046081Y-85996325D01*
X134361831Y-85865537D01*
X134645998Y-85675663D01*
X134887663Y-85433998D01*
X135077537Y-85149831D01*
X135208325Y-84834081D01*
X135275000Y-84498883D01*
X135275000Y-84238665D01*
X138065000Y-84238665D01*
X138065000Y-84521335D01*
X138120147Y-84798574D01*
X138228320Y-85059727D01*
X138385363Y-85294759D01*
X138585241Y-85494637D01*
X138820273Y-85651680D01*
X139081426Y-85759853D01*
X139358665Y-85815000D01*
X139641335Y-85815000D01*
X139918574Y-85759853D01*
X140179727Y-85651680D01*
X140414759Y-85494637D01*
X140614637Y-85294759D01*
X140771680Y-85059727D01*
X140879853Y-84798574D01*
X140935000Y-84521335D01*
X140935000Y-84238665D01*
X140879853Y-83961426D01*
X140771680Y-83700273D01*
X140614637Y-83465241D01*
X140414759Y-83265363D01*
X140179727Y-83108320D01*
X139918574Y-83000147D01*
X139641335Y-82945000D01*
X139358665Y-82945000D01*
X139081426Y-83000147D01*
X138820273Y-83108320D01*
X138585241Y-83265363D01*
X138385363Y-83465241D01*
X138228320Y-83700273D01*
X138120147Y-83961426D01*
X138065000Y-84238665D01*
X135275000Y-84238665D01*
X135275000Y-84157117D01*
X135208325Y-83821919D01*
X135077537Y-83506169D01*
X134887663Y-83222002D01*
X134645998Y-82980337D01*
X134361831Y-82790463D01*
X134046081Y-82659675D01*
X133710883Y-82593000D01*
X133369117Y-82593000D01*
X133033919Y-82659675D01*
X132718169Y-82790463D01*
X132434002Y-82980337D01*
X132192337Y-83222002D01*
X132002463Y-83506169D01*
X131871675Y-83821919D01*
X131805000Y-84157117D01*
X121918779Y-84157117D01*
X121879853Y-83961426D01*
X121771680Y-83700273D01*
X121614637Y-83465241D01*
X121414759Y-83265363D01*
X121179727Y-83108320D01*
X120918574Y-83000147D01*
X120641335Y-82945000D01*
X120358665Y-82945000D01*
X120081426Y-83000147D01*
X119820273Y-83108320D01*
X119585241Y-83265363D01*
X119385363Y-83465241D01*
X119228320Y-83700273D01*
X119120147Y-83961426D01*
X119065000Y-84238665D01*
X116275000Y-84238665D01*
X116275000Y-84157117D01*
X116208325Y-83821919D01*
X116077537Y-83506169D01*
X115887663Y-83222002D01*
X115645998Y-82980337D01*
X115361831Y-82790463D01*
X115046081Y-82659675D01*
X114710883Y-82593000D01*
X114369117Y-82593000D01*
X114033919Y-82659675D01*
X113718169Y-82790463D01*
X113434002Y-82980337D01*
X113192337Y-83222002D01*
X113002463Y-83506169D01*
X112871675Y-83821919D01*
X112805000Y-84157117D01*
X112805000Y-84498883D01*
X112871675Y-84834081D01*
X113002463Y-85149831D01*
X113192337Y-85433998D01*
X113434002Y-85675663D01*
X113718169Y-85865537D01*
X113992093Y-85979000D01*
X109682656Y-85979000D01*
X109537663Y-85762002D01*
X109295998Y-85520337D01*
X109011831Y-85330463D01*
X108696081Y-85199675D01*
X108360883Y-85133000D01*
X108019117Y-85133000D01*
X107683919Y-85199675D01*
X107368169Y-85330463D01*
X107084002Y-85520337D01*
X106842337Y-85762002D01*
X106697344Y-85979000D01*
X96087907Y-85979000D01*
X96361831Y-85865537D01*
X96645998Y-85675663D01*
X96887663Y-85433998D01*
X97077537Y-85149831D01*
X97208325Y-84834081D01*
X97275000Y-84498883D01*
X97275000Y-84238665D01*
X100065000Y-84238665D01*
X100065000Y-84521335D01*
X100120147Y-84798574D01*
X100228320Y-85059727D01*
X100385363Y-85294759D01*
X100585241Y-85494637D01*
X100820273Y-85651680D01*
X101081426Y-85759853D01*
X101358665Y-85815000D01*
X101641335Y-85815000D01*
X101918574Y-85759853D01*
X102179727Y-85651680D01*
X102414759Y-85494637D01*
X102614637Y-85294759D01*
X102771680Y-85059727D01*
X102879853Y-84798574D01*
X102935000Y-84521335D01*
X102935000Y-84238665D01*
X102879853Y-83961426D01*
X102771680Y-83700273D01*
X102614637Y-83465241D01*
X102414759Y-83265363D01*
X102179727Y-83108320D01*
X101918574Y-83000147D01*
X101641335Y-82945000D01*
X101358665Y-82945000D01*
X101081426Y-83000147D01*
X100820273Y-83108320D01*
X100585241Y-83265363D01*
X100385363Y-83465241D01*
X100228320Y-83700273D01*
X100120147Y-83961426D01*
X100065000Y-84238665D01*
X97275000Y-84238665D01*
X97275000Y-84157117D01*
X97208325Y-83821919D01*
X97077537Y-83506169D01*
X96887663Y-83222002D01*
X96645998Y-82980337D01*
X96361831Y-82790463D01*
X96046081Y-82659675D01*
X95710883Y-82593000D01*
X95369117Y-82593000D01*
X95033919Y-82659675D01*
X94718169Y-82790463D01*
X94434002Y-82980337D01*
X94192337Y-83222002D01*
X94002463Y-83506169D01*
X93871675Y-83821919D01*
X93805000Y-84157117D01*
X93805000Y-84498883D01*
X93871675Y-84834081D01*
X94002463Y-85149831D01*
X94192337Y-85433998D01*
X94434002Y-85675663D01*
X94718169Y-85865537D01*
X94992093Y-85979000D01*
X90682656Y-85979000D01*
X90537663Y-85762002D01*
X90295998Y-85520337D01*
X90011831Y-85330463D01*
X89696081Y-85199675D01*
X89360883Y-85133000D01*
X89019117Y-85133000D01*
X88683919Y-85199675D01*
X88368169Y-85330463D01*
X88084002Y-85520337D01*
X87842337Y-85762002D01*
X87652463Y-86046169D01*
X87521675Y-86361919D01*
X87455000Y-86697117D01*
X87455000Y-87038883D01*
X87521675Y-87374081D01*
X87652463Y-87689831D01*
X87808261Y-87923000D01*
X87773740Y-87923000D01*
X87486842Y-87980068D01*
X87216589Y-88092010D01*
X86973368Y-88254525D01*
X86766525Y-88461368D01*
X86604010Y-88704589D01*
X86492068Y-88974842D01*
X86435000Y-89261740D01*
X80660000Y-89261740D01*
X80660000Y-74290514D01*
X151319000Y-74290514D01*
X151319000Y-74553486D01*
X151370304Y-74811405D01*
X151470939Y-75054359D01*
X151617038Y-75273013D01*
X151802987Y-75458962D01*
X152021641Y-75605061D01*
X152264595Y-75705696D01*
X152522514Y-75757000D01*
X152785486Y-75757000D01*
X153043405Y-75705696D01*
X153286359Y-75605061D01*
X153505013Y-75458962D01*
X153690962Y-75273013D01*
X153837061Y-75054359D01*
X153937696Y-74811405D01*
X153989000Y-74553486D01*
X153989000Y-74290514D01*
X153937696Y-74032595D01*
X153837061Y-73789641D01*
X153690962Y-73570987D01*
X153505013Y-73385038D01*
X153286359Y-73238939D01*
X153043405Y-73138304D01*
X152785486Y-73087000D01*
X152522514Y-73087000D01*
X152264595Y-73138304D01*
X152021641Y-73238939D01*
X151802987Y-73385038D01*
X151617038Y-73570987D01*
X151470939Y-73789641D01*
X151370304Y-74032595D01*
X151319000Y-74290514D01*
X80660000Y-74290514D01*
X80660000Y-67432514D01*
X123633000Y-67432514D01*
X123633000Y-67695486D01*
X123684304Y-67953405D01*
X123784939Y-68196359D01*
X123931038Y-68415013D01*
X124116987Y-68600962D01*
X124335641Y-68747061D01*
X124578595Y-68847696D01*
X124836514Y-68899000D01*
X125099486Y-68899000D01*
X125357405Y-68847696D01*
X125600359Y-68747061D01*
X125819013Y-68600962D01*
X126004962Y-68415013D01*
X126151061Y-68196359D01*
X126251696Y-67953405D01*
X126303000Y-67695486D01*
X126303000Y-67432514D01*
X126251696Y-67174595D01*
X126151061Y-66931641D01*
X126004962Y-66712987D01*
X125819013Y-66527038D01*
X125600359Y-66380939D01*
X125357405Y-66280304D01*
X125099486Y-66229000D01*
X124836514Y-66229000D01*
X124578595Y-66280304D01*
X124335641Y-66380939D01*
X124116987Y-66527038D01*
X123931038Y-66712987D01*
X123784939Y-66931641D01*
X123684304Y-67174595D01*
X123633000Y-67432514D01*
X80660000Y-67432514D01*
X80660000Y-63622514D01*
X123633000Y-63622514D01*
X123633000Y-63885486D01*
X123684304Y-64143405D01*
X123784939Y-64386359D01*
X123931038Y-64605013D01*
X124116987Y-64790962D01*
X124335641Y-64937061D01*
X124578595Y-65037696D01*
X124836514Y-65089000D01*
X125099486Y-65089000D01*
X125357405Y-65037696D01*
X125600359Y-64937061D01*
X125819013Y-64790962D01*
X126004962Y-64605013D01*
X126151061Y-64386359D01*
X126251696Y-64143405D01*
X126303000Y-63885486D01*
X126303000Y-63622514D01*
X126251696Y-63364595D01*
X126151061Y-63121641D01*
X126004962Y-62902987D01*
X125819013Y-62717038D01*
X125600359Y-62570939D01*
X125357405Y-62470304D01*
X125099486Y-62419000D01*
X124836514Y-62419000D01*
X124578595Y-62470304D01*
X124335641Y-62570939D01*
X124116987Y-62717038D01*
X123931038Y-62902987D01*
X123784939Y-63121641D01*
X123684304Y-63364595D01*
X123633000Y-63622514D01*
X80660000Y-63622514D01*
X80660000Y-60339424D01*
X144653000Y-60339424D01*
X144653000Y-60564576D01*
X144696925Y-60785401D01*
X144783087Y-60993413D01*
X144907001Y-61178864D01*
X144907000Y-67520333D01*
X144907000Y-67520334D01*
X144907001Y-71663136D01*
X144783087Y-71848587D01*
X144696925Y-72056599D01*
X144653000Y-72277424D01*
X144653000Y-72502576D01*
X144696925Y-72723401D01*
X144783087Y-72931413D01*
X144908174Y-73118620D01*
X145067380Y-73277826D01*
X145254587Y-73402913D01*
X145462599Y-73489075D01*
X145683424Y-73533000D01*
X145908576Y-73533000D01*
X146129401Y-73489075D01*
X146337413Y-73402913D01*
X146524620Y-73277826D01*
X146683826Y-73118620D01*
X146808913Y-72931413D01*
X146895075Y-72723401D01*
X146939000Y-72502576D01*
X146939000Y-72277424D01*
X146895075Y-72056599D01*
X146881334Y-72023424D01*
X169545000Y-72023424D01*
X169545000Y-72248576D01*
X169588925Y-72469401D01*
X169675087Y-72677413D01*
X169799000Y-72862863D01*
X169799001Y-75981136D01*
X169675087Y-76166587D01*
X169588925Y-76374599D01*
X169545000Y-76595424D01*
X169545000Y-76820576D01*
X169588925Y-77041401D01*
X169675087Y-77249413D01*
X169800174Y-77436620D01*
X169959380Y-77595826D01*
X170146587Y-77720913D01*
X170354599Y-77807075D01*
X170575424Y-77851000D01*
X170800576Y-77851000D01*
X171021401Y-77807075D01*
X171229413Y-77720913D01*
X171416620Y-77595826D01*
X171575826Y-77436620D01*
X171700913Y-77249413D01*
X171787075Y-77041401D01*
X171831000Y-76820576D01*
X171831000Y-76595424D01*
X171787075Y-76374599D01*
X171700913Y-76166587D01*
X171577000Y-75981137D01*
X171577000Y-72862863D01*
X171700913Y-72677413D01*
X171787075Y-72469401D01*
X171831000Y-72248576D01*
X171831000Y-72023424D01*
X171787075Y-71802599D01*
X171700913Y-71594587D01*
X171575826Y-71407380D01*
X171416620Y-71248174D01*
X171229413Y-71123087D01*
X171021401Y-71036925D01*
X170800576Y-70993000D01*
X170575424Y-70993000D01*
X170354599Y-71036925D01*
X170146587Y-71123087D01*
X169959380Y-71248174D01*
X169800174Y-71407380D01*
X169675087Y-71594587D01*
X169588925Y-71802599D01*
X169545000Y-72023424D01*
X146881334Y-72023424D01*
X146808913Y-71848587D01*
X146685000Y-71663137D01*
X146685000Y-68514381D01*
X146778587Y-68576913D01*
X146986599Y-68663075D01*
X147207424Y-68707000D01*
X147432576Y-68707000D01*
X147653401Y-68663075D01*
X147861413Y-68576913D01*
X148025275Y-68467424D01*
X151765000Y-68467424D01*
X151765000Y-68692576D01*
X151808925Y-68913401D01*
X151895087Y-69121413D01*
X152020174Y-69308620D01*
X152179380Y-69467826D01*
X152366587Y-69592913D01*
X152574599Y-69679075D01*
X152795424Y-69723000D01*
X153020576Y-69723000D01*
X153241401Y-69679075D01*
X153449413Y-69592913D01*
X153636620Y-69467826D01*
X153795826Y-69308620D01*
X153920913Y-69121413D01*
X154007075Y-68913401D01*
X154051000Y-68692576D01*
X154051000Y-68467424D01*
X154007075Y-68246599D01*
X153920913Y-68038587D01*
X153797000Y-67853137D01*
X153797000Y-61531359D01*
X153957413Y-61464913D01*
X154144620Y-61339826D01*
X154303826Y-61180620D01*
X154428913Y-60993413D01*
X154515075Y-60785401D01*
X154559000Y-60564576D01*
X154559000Y-60554634D01*
X160108210Y-60554634D01*
X160108210Y-60779786D01*
X160152135Y-61000611D01*
X160238297Y-61208623D01*
X160362210Y-61394073D01*
X160362211Y-63281136D01*
X160238297Y-63466587D01*
X160152135Y-63674599D01*
X160108210Y-63895424D01*
X160108210Y-64120576D01*
X160152135Y-64341401D01*
X160238297Y-64549413D01*
X160363384Y-64736620D01*
X160522590Y-64895826D01*
X160709797Y-65020913D01*
X160917809Y-65107075D01*
X161138634Y-65151000D01*
X161363786Y-65151000D01*
X161417735Y-65140269D01*
X161460925Y-65357401D01*
X161547087Y-65565413D01*
X161672174Y-65752620D01*
X161831380Y-65911826D01*
X162018587Y-66036913D01*
X162182311Y-66104730D01*
X162138939Y-66169641D01*
X162038304Y-66412595D01*
X161987000Y-66670514D01*
X161987000Y-66933486D01*
X162038304Y-67191405D01*
X162138939Y-67434359D01*
X162285038Y-67653013D01*
X162470987Y-67838962D01*
X162689641Y-67985061D01*
X162932595Y-68085696D01*
X163190514Y-68137000D01*
X163453486Y-68137000D01*
X163711405Y-68085696D01*
X163954359Y-67985061D01*
X164173013Y-67838962D01*
X164358962Y-67653013D01*
X164505061Y-67434359D01*
X164605696Y-67191405D01*
X164657000Y-66933486D01*
X164657000Y-66670514D01*
X164605696Y-66412595D01*
X164505061Y-66169641D01*
X164358962Y-65950987D01*
X164173013Y-65765038D01*
X163954359Y-65618939D01*
X163711405Y-65518304D01*
X163601483Y-65496439D01*
X163659075Y-65357401D01*
X163703000Y-65136576D01*
X163703000Y-64911424D01*
X163659075Y-64690599D01*
X163572913Y-64482587D01*
X163449000Y-64297137D01*
X163449000Y-63360235D01*
X164706648Y-62102588D01*
X164925401Y-62059075D01*
X165133413Y-61972913D01*
X165320620Y-61847826D01*
X165479826Y-61688620D01*
X165604913Y-61501413D01*
X165691075Y-61293401D01*
X165735000Y-61072576D01*
X165735000Y-60847424D01*
X165691075Y-60626599D01*
X165604913Y-60418587D01*
X165479826Y-60231380D01*
X165320620Y-60072174D01*
X165133413Y-59947087D01*
X164925401Y-59860925D01*
X164704576Y-59817000D01*
X164479424Y-59817000D01*
X164258599Y-59860925D01*
X164050587Y-59947087D01*
X163863380Y-60072174D01*
X163704174Y-60231380D01*
X163579087Y-60418587D01*
X163492925Y-60626599D01*
X163449412Y-60845352D01*
X162140210Y-62154555D01*
X162140210Y-61394073D01*
X162264123Y-61208623D01*
X162350285Y-61000611D01*
X162394210Y-60779786D01*
X162394210Y-60554634D01*
X162350285Y-60333809D01*
X162264123Y-60125797D01*
X162139036Y-59938590D01*
X161979830Y-59779384D01*
X161792623Y-59654297D01*
X161584611Y-59568135D01*
X161363786Y-59524210D01*
X161138634Y-59524210D01*
X160917809Y-59568135D01*
X160709797Y-59654297D01*
X160522590Y-59779384D01*
X160363384Y-59938590D01*
X160238297Y-60125797D01*
X160152135Y-60333809D01*
X160108210Y-60554634D01*
X154559000Y-60554634D01*
X154559000Y-60339424D01*
X154515075Y-60118599D01*
X154428913Y-59910587D01*
X154303826Y-59723380D01*
X154144620Y-59564174D01*
X153957413Y-59439087D01*
X153749401Y-59352925D01*
X153528576Y-59309000D01*
X153303424Y-59309000D01*
X153082599Y-59352925D01*
X152874587Y-59439087D01*
X152687380Y-59564174D01*
X152528174Y-59723380D01*
X152403087Y-59910587D01*
X152316925Y-60118599D01*
X152274841Y-60330170D01*
X152248507Y-60362258D01*
X152248505Y-60362260D01*
X152165248Y-60463709D01*
X152082698Y-60618148D01*
X152031864Y-60785726D01*
X152014700Y-60960000D01*
X152019001Y-61003670D01*
X152019000Y-67853137D01*
X151895087Y-68038587D01*
X151808925Y-68246599D01*
X151765000Y-68467424D01*
X148025275Y-68467424D01*
X148048620Y-68451826D01*
X148207826Y-68292620D01*
X148332913Y-68105413D01*
X148419075Y-67897401D01*
X148463000Y-67676576D01*
X148463000Y-67451424D01*
X148419075Y-67230599D01*
X148332913Y-67022587D01*
X148209000Y-66837137D01*
X148209000Y-61256377D01*
X148324291Y-61194753D01*
X148459659Y-61083659D01*
X148570753Y-60948291D01*
X148653303Y-60793851D01*
X148704136Y-60626274D01*
X148721301Y-60452000D01*
X148704136Y-60277726D01*
X148653303Y-60110149D01*
X148570753Y-59955709D01*
X148459659Y-59820341D01*
X148324291Y-59709247D01*
X148169851Y-59626697D01*
X148085580Y-59601134D01*
X148048620Y-59564174D01*
X147861413Y-59439087D01*
X147653401Y-59352925D01*
X147432576Y-59309000D01*
X147207424Y-59309000D01*
X146986599Y-59352925D01*
X146778587Y-59439087D01*
X146591380Y-59564174D01*
X146558000Y-59597554D01*
X146524620Y-59564174D01*
X146337413Y-59439087D01*
X146129401Y-59352925D01*
X145908576Y-59309000D01*
X145683424Y-59309000D01*
X145462599Y-59352925D01*
X145254587Y-59439087D01*
X145067380Y-59564174D01*
X144908174Y-59723380D01*
X144783087Y-59910587D01*
X144696925Y-60118599D01*
X144653000Y-60339424D01*
X80660000Y-60339424D01*
X80660000Y-56764514D01*
X137349000Y-56764514D01*
X137349000Y-57027486D01*
X137400304Y-57285405D01*
X137500939Y-57528359D01*
X137647038Y-57747013D01*
X137832987Y-57932962D01*
X138051641Y-58079061D01*
X138294595Y-58179696D01*
X138552514Y-58231000D01*
X138815486Y-58231000D01*
X139073405Y-58179696D01*
X139316359Y-58079061D01*
X139535013Y-57932962D01*
X139720962Y-57747013D01*
X139867061Y-57528359D01*
X139967696Y-57285405D01*
X140019000Y-57027486D01*
X140019000Y-56764514D01*
X142429000Y-56764514D01*
X142429000Y-57027486D01*
X142480304Y-57285405D01*
X142580939Y-57528359D01*
X142727038Y-57747013D01*
X142912987Y-57932962D01*
X143131641Y-58079061D01*
X143374595Y-58179696D01*
X143632514Y-58231000D01*
X143895486Y-58231000D01*
X144153405Y-58179696D01*
X144396359Y-58079061D01*
X144615013Y-57932962D01*
X144800962Y-57747013D01*
X144947061Y-57528359D01*
X145047696Y-57285405D01*
X145099000Y-57027486D01*
X145099000Y-56764514D01*
X145047696Y-56506595D01*
X144947061Y-56263641D01*
X144800962Y-56044987D01*
X144615013Y-55859038D01*
X144396359Y-55712939D01*
X144153405Y-55612304D01*
X143895486Y-55561000D01*
X143632514Y-55561000D01*
X143374595Y-55612304D01*
X143131641Y-55712939D01*
X142912987Y-55859038D01*
X142727038Y-56044987D01*
X142580939Y-56263641D01*
X142480304Y-56506595D01*
X142429000Y-56764514D01*
X140019000Y-56764514D01*
X139967696Y-56506595D01*
X139867061Y-56263641D01*
X139720962Y-56044987D01*
X139535013Y-55859038D01*
X139316359Y-55712939D01*
X139073405Y-55612304D01*
X138815486Y-55561000D01*
X138552514Y-55561000D01*
X138294595Y-55612304D01*
X138051641Y-55712939D01*
X137832987Y-55859038D01*
X137647038Y-56044987D01*
X137500939Y-56263641D01*
X137400304Y-56506595D01*
X137349000Y-56764514D01*
X80660000Y-56764514D01*
X80660000Y-54712891D01*
X148418519Y-54712891D01*
X148515843Y-54987252D01*
X148664822Y-55237355D01*
X148859731Y-55453588D01*
X149093080Y-55627641D01*
X149355901Y-55752825D01*
X149503110Y-55797476D01*
X149733000Y-55676155D01*
X149733000Y-54483000D01*
X148539186Y-54483000D01*
X148418519Y-54712891D01*
X80660000Y-54712891D01*
X80660000Y-52192514D01*
X134301000Y-52192514D01*
X134301000Y-52455486D01*
X134352304Y-52713405D01*
X134452939Y-52956359D01*
X134599038Y-53175013D01*
X134784987Y-53360962D01*
X135003641Y-53507061D01*
X135246595Y-53607696D01*
X135504514Y-53659000D01*
X135767486Y-53659000D01*
X136025405Y-53607696D01*
X136268359Y-53507061D01*
X136487013Y-53360962D01*
X136672962Y-53175013D01*
X136819061Y-52956359D01*
X136919696Y-52713405D01*
X136971000Y-52455486D01*
X136971000Y-52192514D01*
X136919696Y-51934595D01*
X136819061Y-51691641D01*
X136804428Y-51669740D01*
X148375000Y-51669740D01*
X148375000Y-51962260D01*
X148432068Y-52249158D01*
X148544010Y-52519411D01*
X148706525Y-52762632D01*
X148913368Y-52969475D01*
X149089406Y-53087100D01*
X148859731Y-53258412D01*
X148664822Y-53474645D01*
X148515843Y-53724748D01*
X148418519Y-53999109D01*
X148539186Y-54229000D01*
X149733000Y-54229000D01*
X149733000Y-54209000D01*
X149987000Y-54209000D01*
X149987000Y-54229000D01*
X150007000Y-54229000D01*
X150007000Y-54483000D01*
X149987000Y-54483000D01*
X149987000Y-55676155D01*
X150216890Y-55797476D01*
X150364099Y-55752825D01*
X150626920Y-55627641D01*
X150860269Y-55453588D01*
X151055178Y-55237355D01*
X151124805Y-55120466D01*
X151246525Y-55302632D01*
X151453368Y-55509475D01*
X151696589Y-55671990D01*
X151966842Y-55783932D01*
X152253740Y-55841000D01*
X152546260Y-55841000D01*
X152833158Y-55783932D01*
X153103411Y-55671990D01*
X153346632Y-55509475D01*
X153553475Y-55302632D01*
X153670000Y-55128240D01*
X153786525Y-55302632D01*
X153993368Y-55509475D01*
X154236589Y-55671990D01*
X154506842Y-55783932D01*
X154793740Y-55841000D01*
X155086260Y-55841000D01*
X155373158Y-55783932D01*
X155643411Y-55671990D01*
X155886632Y-55509475D01*
X156093475Y-55302632D01*
X156255990Y-55059411D01*
X156367932Y-54789158D01*
X156425000Y-54502260D01*
X156425000Y-54209740D01*
X156367932Y-53922842D01*
X156255990Y-53652589D01*
X156093475Y-53409368D01*
X155961620Y-53277513D01*
X156034180Y-53255502D01*
X156144494Y-53196537D01*
X156241185Y-53117185D01*
X156320537Y-53020494D01*
X156379502Y-52910180D01*
X156415812Y-52790482D01*
X156428072Y-52666000D01*
X156428072Y-50966000D01*
X161579928Y-50966000D01*
X161579928Y-52666000D01*
X161592188Y-52790482D01*
X161628498Y-52910180D01*
X161687463Y-53020494D01*
X161766815Y-53117185D01*
X161863506Y-53196537D01*
X161973820Y-53255502D01*
X162046380Y-53277513D01*
X161914525Y-53409368D01*
X161752010Y-53652589D01*
X161640068Y-53922842D01*
X161583000Y-54209740D01*
X161583000Y-54502260D01*
X161640068Y-54789158D01*
X161752010Y-55059411D01*
X161914525Y-55302632D01*
X162121368Y-55509475D01*
X162364589Y-55671990D01*
X162634842Y-55783932D01*
X162921740Y-55841000D01*
X163214260Y-55841000D01*
X163501158Y-55783932D01*
X163771411Y-55671990D01*
X164014632Y-55509475D01*
X164221475Y-55302632D01*
X164339100Y-55126594D01*
X164510412Y-55356269D01*
X164726645Y-55551178D01*
X164976748Y-55700157D01*
X165251109Y-55797481D01*
X165481000Y-55676814D01*
X165481000Y-54483000D01*
X165735000Y-54483000D01*
X165735000Y-55676814D01*
X165964891Y-55797481D01*
X166239252Y-55700157D01*
X166489355Y-55551178D01*
X166705588Y-55356269D01*
X166879641Y-55122920D01*
X167004825Y-54860099D01*
X167049476Y-54712890D01*
X166928155Y-54483000D01*
X165735000Y-54483000D01*
X165481000Y-54483000D01*
X165461000Y-54483000D01*
X165461000Y-54229000D01*
X165481000Y-54229000D01*
X165481000Y-54209000D01*
X165735000Y-54209000D01*
X165735000Y-54229000D01*
X166928155Y-54229000D01*
X167049476Y-53999110D01*
X167004825Y-53851901D01*
X166879641Y-53589080D01*
X166705588Y-53355731D01*
X166489355Y-53160822D01*
X166372466Y-53091195D01*
X166554632Y-52969475D01*
X166761475Y-52762632D01*
X166923990Y-52519411D01*
X167035932Y-52249158D01*
X167093000Y-51962260D01*
X167093000Y-51669740D01*
X167035932Y-51382842D01*
X166923990Y-51112589D01*
X166761475Y-50869368D01*
X166554632Y-50662525D01*
X166311411Y-50500010D01*
X166041158Y-50388068D01*
X165754260Y-50331000D01*
X165461740Y-50331000D01*
X165174842Y-50388068D01*
X164904589Y-50500010D01*
X164661368Y-50662525D01*
X164529513Y-50794380D01*
X164507502Y-50721820D01*
X164448537Y-50611506D01*
X164369185Y-50514815D01*
X164272494Y-50435463D01*
X164162180Y-50376498D01*
X164042482Y-50340188D01*
X163918000Y-50327928D01*
X162218000Y-50327928D01*
X162093518Y-50340188D01*
X161973820Y-50376498D01*
X161863506Y-50435463D01*
X161766815Y-50514815D01*
X161687463Y-50611506D01*
X161628498Y-50721820D01*
X161592188Y-50841518D01*
X161579928Y-50966000D01*
X156428072Y-50966000D01*
X156415812Y-50841518D01*
X156379502Y-50721820D01*
X156320537Y-50611506D01*
X156241185Y-50514815D01*
X156144494Y-50435463D01*
X156034180Y-50376498D01*
X155914482Y-50340188D01*
X155790000Y-50327928D01*
X154090000Y-50327928D01*
X153965518Y-50340188D01*
X153845820Y-50376498D01*
X153735506Y-50435463D01*
X153638815Y-50514815D01*
X153559463Y-50611506D01*
X153500498Y-50721820D01*
X153478487Y-50794380D01*
X153346632Y-50662525D01*
X153103411Y-50500010D01*
X152833158Y-50388068D01*
X152546260Y-50331000D01*
X152253740Y-50331000D01*
X151966842Y-50388068D01*
X151696589Y-50500010D01*
X151453368Y-50662525D01*
X151246525Y-50869368D01*
X151130000Y-51043760D01*
X151013475Y-50869368D01*
X150806632Y-50662525D01*
X150563411Y-50500010D01*
X150293158Y-50388068D01*
X150006260Y-50331000D01*
X149713740Y-50331000D01*
X149426842Y-50388068D01*
X149156589Y-50500010D01*
X148913368Y-50662525D01*
X148706525Y-50869368D01*
X148544010Y-51112589D01*
X148432068Y-51382842D01*
X148375000Y-51669740D01*
X136804428Y-51669740D01*
X136672962Y-51472987D01*
X136487013Y-51287038D01*
X136268359Y-51140939D01*
X136025405Y-51040304D01*
X135767486Y-50989000D01*
X135504514Y-50989000D01*
X135246595Y-51040304D01*
X135003641Y-51140939D01*
X134784987Y-51287038D01*
X134599038Y-51472987D01*
X134452939Y-51691641D01*
X134352304Y-51934595D01*
X134301000Y-52192514D01*
X80660000Y-52192514D01*
X80660000Y-47895000D01*
X90554000Y-47895000D01*
X90554000Y-48295000D01*
X90599624Y-48504233D01*
X90685191Y-48700545D01*
X90807413Y-48876391D01*
X90961592Y-49025014D01*
X91141803Y-49140702D01*
X91344999Y-49212408D01*
X91512000Y-49085502D01*
X91512000Y-47895000D01*
X91766000Y-47895000D01*
X91766000Y-49085502D01*
X91933001Y-49212408D01*
X92136197Y-49140702D01*
X92316408Y-49025014D01*
X92470587Y-48876391D01*
X92592809Y-48700545D01*
X92678376Y-48504233D01*
X92724000Y-48295000D01*
X92724000Y-47895000D01*
X99204000Y-47895000D01*
X99204000Y-48295000D01*
X99249624Y-48504233D01*
X99335191Y-48700545D01*
X99457413Y-48876391D01*
X99611592Y-49025014D01*
X99791803Y-49140702D01*
X99994999Y-49212408D01*
X100162000Y-49085502D01*
X100162000Y-47895000D01*
X100416000Y-47895000D01*
X100416000Y-49085502D01*
X100583001Y-49212408D01*
X100786197Y-49140702D01*
X100966408Y-49025014D01*
X101120587Y-48876391D01*
X101242809Y-48700545D01*
X101328376Y-48504233D01*
X101374000Y-48295000D01*
X101374000Y-47895000D01*
X100416000Y-47895000D01*
X100162000Y-47895000D01*
X99204000Y-47895000D01*
X92724000Y-47895000D01*
X91766000Y-47895000D01*
X91512000Y-47895000D01*
X90554000Y-47895000D01*
X80660000Y-47895000D01*
X80660000Y-47241000D01*
X90554000Y-47241000D01*
X90554000Y-47641000D01*
X91512000Y-47641000D01*
X91512000Y-46450498D01*
X91766000Y-46450498D01*
X91766000Y-47641000D01*
X92724000Y-47641000D01*
X92724000Y-47241000D01*
X92678376Y-47031767D01*
X92645788Y-46957000D01*
X93973928Y-46957000D01*
X93986188Y-47081482D01*
X94022498Y-47201180D01*
X94081463Y-47311494D01*
X94160815Y-47408185D01*
X94257506Y-47487537D01*
X94367820Y-47546502D01*
X94487518Y-47582812D01*
X94612000Y-47595072D01*
X94851250Y-47592000D01*
X95010000Y-47433250D01*
X95010000Y-46609000D01*
X94135750Y-46609000D01*
X93977000Y-46767750D01*
X93973928Y-46957000D01*
X92645788Y-46957000D01*
X92592809Y-46835455D01*
X92470587Y-46659609D01*
X92316408Y-46510986D01*
X92136197Y-46395298D01*
X91933001Y-46323592D01*
X91766000Y-46450498D01*
X91512000Y-46450498D01*
X91344999Y-46323592D01*
X91141803Y-46395298D01*
X90961592Y-46510986D01*
X90807413Y-46659609D01*
X90685191Y-46835455D01*
X90599624Y-47031767D01*
X90554000Y-47241000D01*
X80660000Y-47241000D01*
X80660000Y-45029392D01*
X80705908Y-44515000D01*
X90554000Y-44515000D01*
X90554000Y-45265000D01*
X90599624Y-45474233D01*
X90685191Y-45670545D01*
X90807413Y-45846391D01*
X90961592Y-45995014D01*
X91141803Y-46110702D01*
X91344999Y-46182408D01*
X91512000Y-46055502D01*
X91512000Y-44515000D01*
X90554000Y-44515000D01*
X80705908Y-44515000D01*
X80731173Y-44231917D01*
X80928393Y-43511000D01*
X90554000Y-43511000D01*
X90554000Y-44261000D01*
X91512000Y-44261000D01*
X91512000Y-42720498D01*
X91344999Y-42593592D01*
X91141803Y-42665298D01*
X90961592Y-42780986D01*
X90807413Y-42929609D01*
X90685191Y-43105455D01*
X90599624Y-43301767D01*
X90554000Y-43511000D01*
X80928393Y-43511000D01*
X80934656Y-43488109D01*
X81266638Y-42792095D01*
X81716626Y-42165870D01*
X82270403Y-41629223D01*
X82910451Y-41199129D01*
X83616553Y-40889171D01*
X84371457Y-40707935D01*
X85024207Y-40660000D01*
X94420097Y-40660000D01*
X94363058Y-40690488D01*
G36*
X92884000Y-44638448D02*
G01*
X92884000Y-44827552D01*
X92886070Y-44837960D01*
X92795253Y-44747143D01*
X92809395Y-44733000D01*
X92795253Y-44718858D01*
X92886070Y-44628040D01*
X92884000Y-44638448D01*
G37*
X92884000Y-44638448D02*
X92884000Y-44827552D01*
X92886070Y-44837960D01*
X92795253Y-44747143D01*
X92809395Y-44733000D01*
X92795253Y-44718858D01*
X92886070Y-44628040D01*
X92884000Y-44638448D01*
G36*
X99137748Y-44718858D02*
G01*
X99123605Y-44733000D01*
X99137748Y-44747143D01*
X99053171Y-44831719D01*
X99054000Y-44827552D01*
X99054000Y-44638448D01*
X99053171Y-44634281D01*
X99137748Y-44718858D01*
G37*
X99137748Y-44718858D02*
X99123605Y-44733000D01*
X99137748Y-44747143D01*
X99053171Y-44831719D01*
X99054000Y-44827552D01*
X99054000Y-44638448D01*
X99053171Y-44634281D01*
X99137748Y-44718858D01*
%TD*%
M02*
