M48
; DRILL file {KiCad (5.1.6)-1} date 09/26/20 21:28:58
; FORMAT={-:-/ absolute / inch / decimal}
; #@! TF.CreationDate,2020-09-26T21:28:58-04:00
; #@! TF.GenerationSoftware,Kicad,Pcbnew,(5.1.6)-1
; #@! TF.FileFunction,Plated,1,2,PTH
FMAT,2
INCH
T1C0.0157
T2C0.0200
T3C0.0236
T4C0.0276
T5C0.0300
T6C0.0315
T7C0.0394
T8C0.0591
%
G90
G05
T1
X3.661Y-1.709
X3.661Y-1.7611
X3.6944Y-1.709
X3.6946Y-1.7611
X3.7279Y-1.709
X3.7281Y-1.7611
X3.7614Y-1.709
X3.7616Y-1.7611
X3.7948Y-1.709
X3.795Y-1.7611
X3.8283Y-1.709
X3.8285Y-1.7611
X3.8618Y-1.709
X3.862Y-1.7611
X3.8952Y-1.709
X3.8954Y-1.7611
T2
X3.4Y-1.98
X4.25Y-2.05
X4.25Y-2.21
X4.25Y-2.37
X4.82Y-2.04
X4.91Y-2.03
X5.18Y-2.02
X5.74Y-2.38
X5.74Y-2.85
X5.8Y-2.38
X5.8Y-2.66
X5.8556Y-3.0744
X5.88Y-3.36
X6.0033Y-3.9167
X6.02Y-2.7
X6.03Y-2.26
X6.04Y-2.38
X6.13Y-3.21
X6.18Y-4.46
X6.26Y-2.94
X6.27Y-4.55
X6.3167Y-3.9167
X6.32Y-2.8
X6.34Y-3.0
X6.3485Y-2.3885
X6.3485Y-2.52
X6.4Y-2.56
X6.46Y-2.86
X6.48Y-2.4
X6.56Y-5.3
X6.62Y-4.48
X6.72Y-2.84
X6.72Y-3.02
X6.78Y-2.25
T4
X4.21Y-1.72
X4.92Y-2.66
X4.92Y-2.51
X6.22Y-5.06
X6.22Y-4.98
X6.22Y-4.9
X6.62Y-4.02
X6.01Y-2.93
X6.26Y-4.02
X6.44Y-4.02
X5.66Y-2.24
X5.34Y-2.06
X6.43Y-2.63
X5.46Y-2.24
T5
X5.0Y-1.98
T6
X4.0Y-4.8181
X4.0Y-5.1181
X3.9961Y-3.322
X3.9961Y-3.622
X4.7441Y-4.8181
X4.7441Y-5.1181
X5.4921Y-3.322
X5.4921Y-3.622
X5.4921Y-4.8181
X5.4921Y-5.1181
X5.4921Y-4.0701
X5.4921Y-4.3701
X3.9961Y-4.0701
X3.9961Y-4.3701
X4.7441Y-3.322
X4.7441Y-3.622
X4.7441Y-4.0701
X4.7441Y-4.3701
T7
X6.4Y-4.66
X5.9Y-2.04
X5.9Y-2.14
X6.0Y-2.04
X6.0Y-2.14
X6.1Y-2.04
X6.1Y-2.14
X6.42Y-2.04
X6.42Y-2.14
X6.52Y-2.04
X6.52Y-2.14
T8
X5.0075Y-4.9197
X5.2575Y-4.8197
X4.2594Y-3.42
X4.5094Y-3.32
X3.5114Y-4.1717
X3.7614Y-4.0717
X4.2594Y-4.1717
X4.5094Y-4.0717
X4.2594Y-4.9197
X4.5094Y-4.8197
X3.5114Y-4.9197
X3.7614Y-4.8197
X3.5114Y-3.42
X3.7614Y-3.32
X5.0075Y-3.42
X5.2575Y-3.32
X5.0075Y-4.1717
X5.2575Y-4.0717
T3
G00X3.6078Y-1.718
M15
G01X3.6078Y-1.7771
M16
G05
G00X3.6078Y-1.8649
M15
G01X3.6078Y-1.8964
M16
G05
G00X3.9484Y-1.718
M15
G01X3.9484Y-1.7771
M16
G05
G00X3.9484Y-1.8649
M15
G01X3.9484Y-1.8964
M16
G05
T0
M30
