%TF.GenerationSoftware,KiCad,Pcbnew,(5.1.6)-1*%
%TF.CreationDate,2020-09-26T21:35:22-04:00*%
%TF.ProjectId,QAZ_testboard,51415a5f-7465-4737-9462-6f6172642e6b,v1.0*%
%TF.SameCoordinates,Original*%
%TF.FileFunction,Copper,L1,Top*%
%TF.FilePolarity,Positive*%
%FSLAX46Y46*%
G04 Gerber Fmt 4.6, Leading zero omitted, Abs format (unit mm)*
G04 Created by KiCad (PCBNEW (5.1.6)-1) date 2020-09-26 21:35:22*
%MOMM*%
%LPD*%
G01*
G04 APERTURE LIST*
%TA.AperFunction,SMDPad,CuDef*%
%ADD10R,4.600000X3.300000*%
%TD*%
%TA.AperFunction,ComponentPad*%
%ADD11C,1.400000*%
%TD*%
%TA.AperFunction,ComponentPad*%
%ADD12R,1.650000X1.650000*%
%TD*%
%TA.AperFunction,SMDPad,CuDef*%
%ADD13R,2.600000X2.900000*%
%TD*%
%TA.AperFunction,SMDPad,CuDef*%
%ADD14R,0.650000X1.060000*%
%TD*%
%TA.AperFunction,SMDPad,CuDef*%
%ADD15R,3.300000X4.600000*%
%TD*%
%TA.AperFunction,ComponentPad*%
%ADD16C,2.200000*%
%TD*%
%TA.AperFunction,SMDPad,CuDef*%
%ADD17R,1.550000X1.300000*%
%TD*%
%TA.AperFunction,SMDPad,CuDef*%
%ADD18R,1.300000X0.700000*%
%TD*%
%TA.AperFunction,ComponentPad*%
%ADD19O,1.600000X1.600000*%
%TD*%
%TA.AperFunction,ComponentPad*%
%ADD20R,1.600000X1.600000*%
%TD*%
%TA.AperFunction,ComponentPad*%
%ADD21O,1.700000X1.700000*%
%TD*%
%TA.AperFunction,ComponentPad*%
%ADD22R,1.700000X1.700000*%
%TD*%
%TA.AperFunction,ComponentPad*%
%ADD23C,0.650000*%
%TD*%
%TA.AperFunction,ComponentPad*%
%ADD24O,0.900000X2.400000*%
%TD*%
%TA.AperFunction,ComponentPad*%
%ADD25O,0.900000X1.700000*%
%TD*%
%TA.AperFunction,ViaPad*%
%ADD26C,1.016000*%
%TD*%
%TA.AperFunction,ViaPad*%
%ADD27C,1.524000*%
%TD*%
%TA.AperFunction,Conductor*%
%ADD28C,0.508000*%
%TD*%
%TA.AperFunction,Conductor*%
%ADD29C,0.304800*%
%TD*%
%TA.AperFunction,Conductor*%
%ADD30C,0.254000*%
%TD*%
%TA.AperFunction,Conductor*%
%ADD31C,0.635000*%
%TD*%
%TA.AperFunction,Conductor*%
%ADD32C,0.762000*%
%TD*%
%TA.AperFunction,Conductor*%
%ADD33C,1.016000*%
%TD*%
%TA.AperFunction,Conductor*%
%ADD34C,0.203200*%
%TD*%
%TA.AperFunction,Conductor*%
%ADD35C,0.250000*%
%TD*%
%TA.AperFunction,Conductor*%
%ADD36C,0.406400*%
%TD*%
G04 APERTURE END LIST*
D10*
%TO.P,TP3,1*%
%TO.N,GND*%
X172212000Y-60198000D03*
%TD*%
%TO.P,C11,2*%
%TO.N,+3V3*%
%TA.AperFunction,SMDPad,CuDef*%
G36*
G01*
X158338000Y-80501500D02*
X158338000Y-80026500D01*
G75*
G02*
X158575500Y-79789000I237500J0D01*
G01*
X159150500Y-79789000D01*
G75*
G02*
X159388000Y-80026500I0J-237500D01*
G01*
X159388000Y-80501500D01*
G75*
G02*
X159150500Y-80739000I-237500J0D01*
G01*
X158575500Y-80739000D01*
G75*
G02*
X158338000Y-80501500I0J237500D01*
G01*
G37*
%TD.AperFunction*%
%TO.P,C11,1*%
%TO.N,GND*%
%TA.AperFunction,SMDPad,CuDef*%
G36*
G01*
X156588000Y-80501500D02*
X156588000Y-80026500D01*
G75*
G02*
X156825500Y-79789000I237500J0D01*
G01*
X157400500Y-79789000D01*
G75*
G02*
X157638000Y-80026500I0J-237500D01*
G01*
X157638000Y-80501500D01*
G75*
G02*
X157400500Y-80739000I-237500J0D01*
G01*
X156825500Y-80739000D01*
G75*
G02*
X156588000Y-80501500I0J237500D01*
G01*
G37*
%TD.AperFunction*%
%TD*%
D11*
%TO.P,TP14,1*%
%TO.N,/USB_D+*%
X124968000Y-67564000D03*
%TD*%
%TO.P,TP13,1*%
%TO.N,/USB_D-*%
X124968000Y-63754000D03*
%TD*%
D12*
%TO.P,U3,21*%
%TO.N,GND*%
X162560000Y-118364000D03*
%TO.P,U3,2*%
%TO.N,/RGB0_R*%
%TA.AperFunction,SMDPad,CuDef*%
G36*
G01*
X160285000Y-118014000D02*
X160285000Y-117914000D01*
G75*
G02*
X160335000Y-117864000I50000J0D01*
G01*
X161485000Y-117864000D01*
G75*
G02*
X161535000Y-117914000I0J-50000D01*
G01*
X161535000Y-118014000D01*
G75*
G02*
X161485000Y-118064000I-50000J0D01*
G01*
X160335000Y-118064000D01*
G75*
G02*
X160285000Y-118014000I0J50000D01*
G01*
G37*
%TD.AperFunction*%
%TO.P,U3,1*%
%TO.N,Net-(C13-Pad2)*%
%TA.AperFunction,SMDPad,CuDef*%
G36*
G01*
X160285000Y-117614000D02*
X160285000Y-117514000D01*
G75*
G02*
X160335000Y-117464000I50000J0D01*
G01*
X161485000Y-117464000D01*
G75*
G02*
X161535000Y-117514000I0J-50000D01*
G01*
X161535000Y-117614000D01*
G75*
G02*
X161485000Y-117664000I-50000J0D01*
G01*
X160335000Y-117664000D01*
G75*
G02*
X160285000Y-117614000I0J50000D01*
G01*
G37*
%TD.AperFunction*%
%TO.P,U3,3*%
%TO.N,/RGB0_G*%
%TA.AperFunction,SMDPad,CuDef*%
G36*
G01*
X160285000Y-118414000D02*
X160285000Y-118314000D01*
G75*
G02*
X160335000Y-118264000I50000J0D01*
G01*
X161485000Y-118264000D01*
G75*
G02*
X161535000Y-118314000I0J-50000D01*
G01*
X161535000Y-118414000D01*
G75*
G02*
X161485000Y-118464000I-50000J0D01*
G01*
X160335000Y-118464000D01*
G75*
G02*
X160285000Y-118414000I0J50000D01*
G01*
G37*
%TD.AperFunction*%
%TO.P,U3,7*%
%TO.N,Net-(U3-Pad7)*%
%TA.AperFunction,SMDPad,CuDef*%
G36*
G01*
X162060000Y-120589000D02*
X162060000Y-119439000D01*
G75*
G02*
X162110000Y-119389000I50000J0D01*
G01*
X162210000Y-119389000D01*
G75*
G02*
X162260000Y-119439000I0J-50000D01*
G01*
X162260000Y-120589000D01*
G75*
G02*
X162210000Y-120639000I-50000J0D01*
G01*
X162110000Y-120639000D01*
G75*
G02*
X162060000Y-120589000I0J50000D01*
G01*
G37*
%TD.AperFunction*%
%TO.P,U3,12*%
%TO.N,N/C*%
%TA.AperFunction,SMDPad,CuDef*%
G36*
G01*
X163585000Y-118814000D02*
X163585000Y-118714000D01*
G75*
G02*
X163635000Y-118664000I50000J0D01*
G01*
X164785000Y-118664000D01*
G75*
G02*
X164835000Y-118714000I0J-50000D01*
G01*
X164835000Y-118814000D01*
G75*
G02*
X164785000Y-118864000I-50000J0D01*
G01*
X163635000Y-118864000D01*
G75*
G02*
X163585000Y-118814000I0J50000D01*
G01*
G37*
%TD.AperFunction*%
%TO.P,U3,9*%
%TO.N,Net-(U3-Pad9)*%
%TA.AperFunction,SMDPad,CuDef*%
G36*
G01*
X162860000Y-120589000D02*
X162860000Y-119439000D01*
G75*
G02*
X162910000Y-119389000I50000J0D01*
G01*
X163010000Y-119389000D01*
G75*
G02*
X163060000Y-119439000I0J-50000D01*
G01*
X163060000Y-120589000D01*
G75*
G02*
X163010000Y-120639000I-50000J0D01*
G01*
X162910000Y-120639000D01*
G75*
G02*
X162860000Y-120589000I0J50000D01*
G01*
G37*
%TD.AperFunction*%
%TO.P,U3,20*%
%TO.N,Net-(R6-Pad2)*%
%TA.AperFunction,SMDPad,CuDef*%
G36*
G01*
X161660000Y-117289000D02*
X161660000Y-116139000D01*
G75*
G02*
X161710000Y-116089000I50000J0D01*
G01*
X161810000Y-116089000D01*
G75*
G02*
X161860000Y-116139000I0J-50000D01*
G01*
X161860000Y-117289000D01*
G75*
G02*
X161810000Y-117339000I-50000J0D01*
G01*
X161710000Y-117339000D01*
G75*
G02*
X161660000Y-117289000I0J50000D01*
G01*
G37*
%TD.AperFunction*%
%TO.P,U3,17*%
%TO.N,Net-(SB15-Pad2)*%
%TA.AperFunction,SMDPad,CuDef*%
G36*
G01*
X162860000Y-117289000D02*
X162860000Y-116139000D01*
G75*
G02*
X162910000Y-116089000I50000J0D01*
G01*
X163010000Y-116089000D01*
G75*
G02*
X163060000Y-116139000I0J-50000D01*
G01*
X163060000Y-117289000D01*
G75*
G02*
X163010000Y-117339000I-50000J0D01*
G01*
X162910000Y-117339000D01*
G75*
G02*
X162860000Y-117289000I0J50000D01*
G01*
G37*
%TD.AperFunction*%
%TO.P,U3,4*%
%TO.N,/RGB0_B*%
%TA.AperFunction,SMDPad,CuDef*%
G36*
G01*
X160285000Y-118814000D02*
X160285000Y-118714000D01*
G75*
G02*
X160335000Y-118664000I50000J0D01*
G01*
X161485000Y-118664000D01*
G75*
G02*
X161535000Y-118714000I0J-50000D01*
G01*
X161535000Y-118814000D01*
G75*
G02*
X161485000Y-118864000I-50000J0D01*
G01*
X160335000Y-118864000D01*
G75*
G02*
X160285000Y-118814000I0J50000D01*
G01*
G37*
%TD.AperFunction*%
%TO.P,U3,8*%
%TO.N,Net-(U3-Pad8)*%
%TA.AperFunction,SMDPad,CuDef*%
G36*
G01*
X162460000Y-120589000D02*
X162460000Y-119439000D01*
G75*
G02*
X162510000Y-119389000I50000J0D01*
G01*
X162610000Y-119389000D01*
G75*
G02*
X162660000Y-119439000I0J-50000D01*
G01*
X162660000Y-120589000D01*
G75*
G02*
X162610000Y-120639000I-50000J0D01*
G01*
X162510000Y-120639000D01*
G75*
G02*
X162460000Y-120589000I0J50000D01*
G01*
G37*
%TD.AperFunction*%
%TO.P,U3,15*%
%TO.N,GND*%
%TA.AperFunction,SMDPad,CuDef*%
G36*
G01*
X163585000Y-117614000D02*
X163585000Y-117514000D01*
G75*
G02*
X163635000Y-117464000I50000J0D01*
G01*
X164785000Y-117464000D01*
G75*
G02*
X164835000Y-117514000I0J-50000D01*
G01*
X164835000Y-117614000D01*
G75*
G02*
X164785000Y-117664000I-50000J0D01*
G01*
X163635000Y-117664000D01*
G75*
G02*
X163585000Y-117614000I0J50000D01*
G01*
G37*
%TD.AperFunction*%
%TO.P,U3,10*%
%TO.N,Net-(U3-Pad10)*%
%TA.AperFunction,SMDPad,CuDef*%
G36*
G01*
X163260000Y-120589000D02*
X163260000Y-119439000D01*
G75*
G02*
X163310000Y-119389000I50000J0D01*
G01*
X163410000Y-119389000D01*
G75*
G02*
X163460000Y-119439000I0J-50000D01*
G01*
X163460000Y-120589000D01*
G75*
G02*
X163410000Y-120639000I-50000J0D01*
G01*
X163310000Y-120639000D01*
G75*
G02*
X163260000Y-120589000I0J50000D01*
G01*
G37*
%TD.AperFunction*%
%TO.P,U3,19*%
%TO.N,Net-(SB14-Pad2)*%
%TA.AperFunction,SMDPad,CuDef*%
G36*
G01*
X162060000Y-117289000D02*
X162060000Y-116139000D01*
G75*
G02*
X162110000Y-116089000I50000J0D01*
G01*
X162210000Y-116089000D01*
G75*
G02*
X162260000Y-116139000I0J-50000D01*
G01*
X162260000Y-117289000D01*
G75*
G02*
X162210000Y-117339000I-50000J0D01*
G01*
X162110000Y-117339000D01*
G75*
G02*
X162060000Y-117289000I0J50000D01*
G01*
G37*
%TD.AperFunction*%
%TO.P,U3,16*%
%TO.N,Net-(C12-Pad2)*%
%TA.AperFunction,SMDPad,CuDef*%
G36*
G01*
X163260000Y-117289000D02*
X163260000Y-116139000D01*
G75*
G02*
X163310000Y-116089000I50000J0D01*
G01*
X163410000Y-116089000D01*
G75*
G02*
X163460000Y-116139000I0J-50000D01*
G01*
X163460000Y-117289000D01*
G75*
G02*
X163410000Y-117339000I-50000J0D01*
G01*
X163310000Y-117339000D01*
G75*
G02*
X163260000Y-117289000I0J50000D01*
G01*
G37*
%TD.AperFunction*%
%TO.P,U3,13*%
%TO.N,N/C*%
%TA.AperFunction,SMDPad,CuDef*%
G36*
G01*
X163585000Y-118414000D02*
X163585000Y-118314000D01*
G75*
G02*
X163635000Y-118264000I50000J0D01*
G01*
X164785000Y-118264000D01*
G75*
G02*
X164835000Y-118314000I0J-50000D01*
G01*
X164835000Y-118414000D01*
G75*
G02*
X164785000Y-118464000I-50000J0D01*
G01*
X163635000Y-118464000D01*
G75*
G02*
X163585000Y-118414000I0J50000D01*
G01*
G37*
%TD.AperFunction*%
%TO.P,U3,5*%
%TO.N,Net-(U3-Pad5)*%
%TA.AperFunction,SMDPad,CuDef*%
G36*
G01*
X160285000Y-119214000D02*
X160285000Y-119114000D01*
G75*
G02*
X160335000Y-119064000I50000J0D01*
G01*
X161485000Y-119064000D01*
G75*
G02*
X161535000Y-119114000I0J-50000D01*
G01*
X161535000Y-119214000D01*
G75*
G02*
X161485000Y-119264000I-50000J0D01*
G01*
X160335000Y-119264000D01*
G75*
G02*
X160285000Y-119214000I0J50000D01*
G01*
G37*
%TD.AperFunction*%
%TO.P,U3,11*%
%TO.N,N/C*%
%TA.AperFunction,SMDPad,CuDef*%
G36*
G01*
X163585000Y-119214000D02*
X163585000Y-119114000D01*
G75*
G02*
X163635000Y-119064000I50000J0D01*
G01*
X164785000Y-119064000D01*
G75*
G02*
X164835000Y-119114000I0J-50000D01*
G01*
X164835000Y-119214000D01*
G75*
G02*
X164785000Y-119264000I-50000J0D01*
G01*
X163635000Y-119264000D01*
G75*
G02*
X163585000Y-119214000I0J50000D01*
G01*
G37*
%TD.AperFunction*%
%TO.P,U3,18*%
%TO.N,Net-(SB16-Pad2)*%
%TA.AperFunction,SMDPad,CuDef*%
G36*
G01*
X162460000Y-117289000D02*
X162460000Y-116139000D01*
G75*
G02*
X162510000Y-116089000I50000J0D01*
G01*
X162610000Y-116089000D01*
G75*
G02*
X162660000Y-116139000I0J-50000D01*
G01*
X162660000Y-117289000D01*
G75*
G02*
X162610000Y-117339000I-50000J0D01*
G01*
X162510000Y-117339000D01*
G75*
G02*
X162460000Y-117289000I0J50000D01*
G01*
G37*
%TD.AperFunction*%
%TO.P,U3,6*%
%TO.N,Net-(U3-Pad6)*%
%TA.AperFunction,SMDPad,CuDef*%
G36*
G01*
X161660000Y-120589000D02*
X161660000Y-119439000D01*
G75*
G02*
X161710000Y-119389000I50000J0D01*
G01*
X161810000Y-119389000D01*
G75*
G02*
X161860000Y-119439000I0J-50000D01*
G01*
X161860000Y-120589000D01*
G75*
G02*
X161810000Y-120639000I-50000J0D01*
G01*
X161710000Y-120639000D01*
G75*
G02*
X161660000Y-120589000I0J50000D01*
G01*
G37*
%TD.AperFunction*%
%TO.P,U3,14*%
%TO.N,GND*%
%TA.AperFunction,SMDPad,CuDef*%
G36*
G01*
X163585000Y-118014000D02*
X163585000Y-117914000D01*
G75*
G02*
X163635000Y-117864000I50000J0D01*
G01*
X164785000Y-117864000D01*
G75*
G02*
X164835000Y-117914000I0J-50000D01*
G01*
X164835000Y-118014000D01*
G75*
G02*
X164785000Y-118064000I-50000J0D01*
G01*
X163635000Y-118064000D01*
G75*
G02*
X163585000Y-118014000I0J50000D01*
G01*
G37*
%TD.AperFunction*%
%TD*%
D13*
%TO.P,Y1,2*%
%TO.N,Net-(C8-Pad1)*%
X152400000Y-87994000D03*
%TO.P,Y1,1*%
%TO.N,Net-(C7-Pad1)*%
X152400000Y-82494000D03*
%TD*%
%TO.P,U2,48*%
%TO.N,+3V3*%
%TA.AperFunction,SMDPad,CuDef*%
G36*
G01*
X158044000Y-76560000D02*
X156719000Y-76560000D01*
G75*
G02*
X156644000Y-76485000I0J75000D01*
G01*
X156644000Y-76335000D01*
G75*
G02*
X156719000Y-76260000I75000J0D01*
G01*
X158044000Y-76260000D01*
G75*
G02*
X158119000Y-76335000I0J-75000D01*
G01*
X158119000Y-76485000D01*
G75*
G02*
X158044000Y-76560000I-75000J0D01*
G01*
G37*
%TD.AperFunction*%
%TO.P,U2,47*%
%TO.N,GND*%
%TA.AperFunction,SMDPad,CuDef*%
G36*
G01*
X158044000Y-76060000D02*
X156719000Y-76060000D01*
G75*
G02*
X156644000Y-75985000I0J75000D01*
G01*
X156644000Y-75835000D01*
G75*
G02*
X156719000Y-75760000I75000J0D01*
G01*
X158044000Y-75760000D01*
G75*
G02*
X158119000Y-75835000I0J-75000D01*
G01*
X158119000Y-75985000D01*
G75*
G02*
X158044000Y-76060000I-75000J0D01*
G01*
G37*
%TD.AperFunction*%
%TO.P,U2,46*%
%TO.N,Net-(U2-Pad46)*%
%TA.AperFunction,SMDPad,CuDef*%
G36*
G01*
X158044000Y-75560000D02*
X156719000Y-75560000D01*
G75*
G02*
X156644000Y-75485000I0J75000D01*
G01*
X156644000Y-75335000D01*
G75*
G02*
X156719000Y-75260000I75000J0D01*
G01*
X158044000Y-75260000D01*
G75*
G02*
X158119000Y-75335000I0J-75000D01*
G01*
X158119000Y-75485000D01*
G75*
G02*
X158044000Y-75560000I-75000J0D01*
G01*
G37*
%TD.AperFunction*%
%TO.P,U2,45*%
%TO.N,Net-(U2-Pad45)*%
%TA.AperFunction,SMDPad,CuDef*%
G36*
G01*
X158044000Y-75060000D02*
X156719000Y-75060000D01*
G75*
G02*
X156644000Y-74985000I0J75000D01*
G01*
X156644000Y-74835000D01*
G75*
G02*
X156719000Y-74760000I75000J0D01*
G01*
X158044000Y-74760000D01*
G75*
G02*
X158119000Y-74835000I0J-75000D01*
G01*
X158119000Y-74985000D01*
G75*
G02*
X158044000Y-75060000I-75000J0D01*
G01*
G37*
%TD.AperFunction*%
%TO.P,U2,44*%
%TO.N,/BOOT0*%
%TA.AperFunction,SMDPad,CuDef*%
G36*
G01*
X158044000Y-74560000D02*
X156719000Y-74560000D01*
G75*
G02*
X156644000Y-74485000I0J75000D01*
G01*
X156644000Y-74335000D01*
G75*
G02*
X156719000Y-74260000I75000J0D01*
G01*
X158044000Y-74260000D01*
G75*
G02*
X158119000Y-74335000I0J-75000D01*
G01*
X158119000Y-74485000D01*
G75*
G02*
X158044000Y-74560000I-75000J0D01*
G01*
G37*
%TD.AperFunction*%
%TO.P,U2,43*%
%TO.N,/ROW02*%
%TA.AperFunction,SMDPad,CuDef*%
G36*
G01*
X158044000Y-74060000D02*
X156719000Y-74060000D01*
G75*
G02*
X156644000Y-73985000I0J75000D01*
G01*
X156644000Y-73835000D01*
G75*
G02*
X156719000Y-73760000I75000J0D01*
G01*
X158044000Y-73760000D01*
G75*
G02*
X158119000Y-73835000I0J-75000D01*
G01*
X158119000Y-73985000D01*
G75*
G02*
X158044000Y-74060000I-75000J0D01*
G01*
G37*
%TD.AperFunction*%
%TO.P,U2,42*%
%TO.N,/COL02*%
%TA.AperFunction,SMDPad,CuDef*%
G36*
G01*
X158044000Y-73560000D02*
X156719000Y-73560000D01*
G75*
G02*
X156644000Y-73485000I0J75000D01*
G01*
X156644000Y-73335000D01*
G75*
G02*
X156719000Y-73260000I75000J0D01*
G01*
X158044000Y-73260000D01*
G75*
G02*
X158119000Y-73335000I0J-75000D01*
G01*
X158119000Y-73485000D01*
G75*
G02*
X158044000Y-73560000I-75000J0D01*
G01*
G37*
%TD.AperFunction*%
%TO.P,U2,41*%
%TO.N,/ROW01*%
%TA.AperFunction,SMDPad,CuDef*%
G36*
G01*
X158044000Y-73060000D02*
X156719000Y-73060000D01*
G75*
G02*
X156644000Y-72985000I0J75000D01*
G01*
X156644000Y-72835000D01*
G75*
G02*
X156719000Y-72760000I75000J0D01*
G01*
X158044000Y-72760000D01*
G75*
G02*
X158119000Y-72835000I0J-75000D01*
G01*
X158119000Y-72985000D01*
G75*
G02*
X158044000Y-73060000I-75000J0D01*
G01*
G37*
%TD.AperFunction*%
%TO.P,U2,40*%
%TO.N,/ROW00*%
%TA.AperFunction,SMDPad,CuDef*%
G36*
G01*
X158044000Y-72560000D02*
X156719000Y-72560000D01*
G75*
G02*
X156644000Y-72485000I0J75000D01*
G01*
X156644000Y-72335000D01*
G75*
G02*
X156719000Y-72260000I75000J0D01*
G01*
X158044000Y-72260000D01*
G75*
G02*
X158119000Y-72335000I0J-75000D01*
G01*
X158119000Y-72485000D01*
G75*
G02*
X158044000Y-72560000I-75000J0D01*
G01*
G37*
%TD.AperFunction*%
%TO.P,U2,39*%
%TO.N,/COL01*%
%TA.AperFunction,SMDPad,CuDef*%
G36*
G01*
X158044000Y-72060000D02*
X156719000Y-72060000D01*
G75*
G02*
X156644000Y-71985000I0J75000D01*
G01*
X156644000Y-71835000D01*
G75*
G02*
X156719000Y-71760000I75000J0D01*
G01*
X158044000Y-71760000D01*
G75*
G02*
X158119000Y-71835000I0J-75000D01*
G01*
X158119000Y-71985000D01*
G75*
G02*
X158044000Y-72060000I-75000J0D01*
G01*
G37*
%TD.AperFunction*%
%TO.P,U2,38*%
%TO.N,/COL00*%
%TA.AperFunction,SMDPad,CuDef*%
G36*
G01*
X158044000Y-71560000D02*
X156719000Y-71560000D01*
G75*
G02*
X156644000Y-71485000I0J75000D01*
G01*
X156644000Y-71335000D01*
G75*
G02*
X156719000Y-71260000I75000J0D01*
G01*
X158044000Y-71260000D01*
G75*
G02*
X158119000Y-71335000I0J-75000D01*
G01*
X158119000Y-71485000D01*
G75*
G02*
X158044000Y-71560000I-75000J0D01*
G01*
G37*
%TD.AperFunction*%
%TO.P,U2,37*%
%TO.N,/SWCLK*%
%TA.AperFunction,SMDPad,CuDef*%
G36*
G01*
X158044000Y-71060000D02*
X156719000Y-71060000D01*
G75*
G02*
X156644000Y-70985000I0J75000D01*
G01*
X156644000Y-70835000D01*
G75*
G02*
X156719000Y-70760000I75000J0D01*
G01*
X158044000Y-70760000D01*
G75*
G02*
X158119000Y-70835000I0J-75000D01*
G01*
X158119000Y-70985000D01*
G75*
G02*
X158044000Y-71060000I-75000J0D01*
G01*
G37*
%TD.AperFunction*%
%TO.P,U2,36*%
%TO.N,+3V3*%
%TA.AperFunction,SMDPad,CuDef*%
G36*
G01*
X158869000Y-70235000D02*
X158719000Y-70235000D01*
G75*
G02*
X158644000Y-70160000I0J75000D01*
G01*
X158644000Y-68835000D01*
G75*
G02*
X158719000Y-68760000I75000J0D01*
G01*
X158869000Y-68760000D01*
G75*
G02*
X158944000Y-68835000I0J-75000D01*
G01*
X158944000Y-70160000D01*
G75*
G02*
X158869000Y-70235000I-75000J0D01*
G01*
G37*
%TD.AperFunction*%
%TO.P,U2,35*%
%TO.N,GND*%
%TA.AperFunction,SMDPad,CuDef*%
G36*
G01*
X159369000Y-70235000D02*
X159219000Y-70235000D01*
G75*
G02*
X159144000Y-70160000I0J75000D01*
G01*
X159144000Y-68835000D01*
G75*
G02*
X159219000Y-68760000I75000J0D01*
G01*
X159369000Y-68760000D01*
G75*
G02*
X159444000Y-68835000I0J-75000D01*
G01*
X159444000Y-70160000D01*
G75*
G02*
X159369000Y-70235000I-75000J0D01*
G01*
G37*
%TD.AperFunction*%
%TO.P,U2,34*%
%TO.N,/SWDIO*%
%TA.AperFunction,SMDPad,CuDef*%
G36*
G01*
X159869000Y-70235000D02*
X159719000Y-70235000D01*
G75*
G02*
X159644000Y-70160000I0J75000D01*
G01*
X159644000Y-68835000D01*
G75*
G02*
X159719000Y-68760000I75000J0D01*
G01*
X159869000Y-68760000D01*
G75*
G02*
X159944000Y-68835000I0J-75000D01*
G01*
X159944000Y-70160000D01*
G75*
G02*
X159869000Y-70235000I-75000J0D01*
G01*
G37*
%TD.AperFunction*%
%TO.P,U2,33*%
%TO.N,/USB_D+*%
%TA.AperFunction,SMDPad,CuDef*%
G36*
G01*
X160369000Y-70235000D02*
X160219000Y-70235000D01*
G75*
G02*
X160144000Y-70160000I0J75000D01*
G01*
X160144000Y-68835000D01*
G75*
G02*
X160219000Y-68760000I75000J0D01*
G01*
X160369000Y-68760000D01*
G75*
G02*
X160444000Y-68835000I0J-75000D01*
G01*
X160444000Y-70160000D01*
G75*
G02*
X160369000Y-70235000I-75000J0D01*
G01*
G37*
%TD.AperFunction*%
%TO.P,U2,32*%
%TO.N,/USB_D-*%
%TA.AperFunction,SMDPad,CuDef*%
G36*
G01*
X160869000Y-70235000D02*
X160719000Y-70235000D01*
G75*
G02*
X160644000Y-70160000I0J75000D01*
G01*
X160644000Y-68835000D01*
G75*
G02*
X160719000Y-68760000I75000J0D01*
G01*
X160869000Y-68760000D01*
G75*
G02*
X160944000Y-68835000I0J-75000D01*
G01*
X160944000Y-70160000D01*
G75*
G02*
X160869000Y-70235000I-75000J0D01*
G01*
G37*
%TD.AperFunction*%
%TO.P,U2,31*%
%TO.N,/DBG_RX*%
%TA.AperFunction,SMDPad,CuDef*%
G36*
G01*
X161369000Y-70235000D02*
X161219000Y-70235000D01*
G75*
G02*
X161144000Y-70160000I0J75000D01*
G01*
X161144000Y-68835000D01*
G75*
G02*
X161219000Y-68760000I75000J0D01*
G01*
X161369000Y-68760000D01*
G75*
G02*
X161444000Y-68835000I0J-75000D01*
G01*
X161444000Y-70160000D01*
G75*
G02*
X161369000Y-70235000I-75000J0D01*
G01*
G37*
%TD.AperFunction*%
%TO.P,U2,30*%
%TO.N,/DBG_TX*%
%TA.AperFunction,SMDPad,CuDef*%
G36*
G01*
X161869000Y-70235000D02*
X161719000Y-70235000D01*
G75*
G02*
X161644000Y-70160000I0J75000D01*
G01*
X161644000Y-68835000D01*
G75*
G02*
X161719000Y-68760000I75000J0D01*
G01*
X161869000Y-68760000D01*
G75*
G02*
X161944000Y-68835000I0J-75000D01*
G01*
X161944000Y-70160000D01*
G75*
G02*
X161869000Y-70235000I-75000J0D01*
G01*
G37*
%TD.AperFunction*%
%TO.P,U2,29*%
%TO.N,/CLKOUT*%
%TA.AperFunction,SMDPad,CuDef*%
G36*
G01*
X162369000Y-70235000D02*
X162219000Y-70235000D01*
G75*
G02*
X162144000Y-70160000I0J75000D01*
G01*
X162144000Y-68835000D01*
G75*
G02*
X162219000Y-68760000I75000J0D01*
G01*
X162369000Y-68760000D01*
G75*
G02*
X162444000Y-68835000I0J-75000D01*
G01*
X162444000Y-70160000D01*
G75*
G02*
X162369000Y-70235000I-75000J0D01*
G01*
G37*
%TD.AperFunction*%
%TO.P,U2,28*%
%TO.N,Net-(U2-Pad28)*%
%TA.AperFunction,SMDPad,CuDef*%
G36*
G01*
X162869000Y-70235000D02*
X162719000Y-70235000D01*
G75*
G02*
X162644000Y-70160000I0J75000D01*
G01*
X162644000Y-68835000D01*
G75*
G02*
X162719000Y-68760000I75000J0D01*
G01*
X162869000Y-68760000D01*
G75*
G02*
X162944000Y-68835000I0J-75000D01*
G01*
X162944000Y-70160000D01*
G75*
G02*
X162869000Y-70235000I-75000J0D01*
G01*
G37*
%TD.AperFunction*%
%TO.P,U2,27*%
%TO.N,Net-(U2-Pad27)*%
%TA.AperFunction,SMDPad,CuDef*%
G36*
G01*
X163369000Y-70235000D02*
X163219000Y-70235000D01*
G75*
G02*
X163144000Y-70160000I0J75000D01*
G01*
X163144000Y-68835000D01*
G75*
G02*
X163219000Y-68760000I75000J0D01*
G01*
X163369000Y-68760000D01*
G75*
G02*
X163444000Y-68835000I0J-75000D01*
G01*
X163444000Y-70160000D01*
G75*
G02*
X163369000Y-70235000I-75000J0D01*
G01*
G37*
%TD.AperFunction*%
%TO.P,U2,26*%
%TO.N,/HB_LED*%
%TA.AperFunction,SMDPad,CuDef*%
G36*
G01*
X163869000Y-70235000D02*
X163719000Y-70235000D01*
G75*
G02*
X163644000Y-70160000I0J75000D01*
G01*
X163644000Y-68835000D01*
G75*
G02*
X163719000Y-68760000I75000J0D01*
G01*
X163869000Y-68760000D01*
G75*
G02*
X163944000Y-68835000I0J-75000D01*
G01*
X163944000Y-70160000D01*
G75*
G02*
X163869000Y-70235000I-75000J0D01*
G01*
G37*
%TD.AperFunction*%
%TO.P,U2,25*%
%TO.N,Net-(U2-Pad25)*%
%TA.AperFunction,SMDPad,CuDef*%
G36*
G01*
X164369000Y-70235000D02*
X164219000Y-70235000D01*
G75*
G02*
X164144000Y-70160000I0J75000D01*
G01*
X164144000Y-68835000D01*
G75*
G02*
X164219000Y-68760000I75000J0D01*
G01*
X164369000Y-68760000D01*
G75*
G02*
X164444000Y-68835000I0J-75000D01*
G01*
X164444000Y-70160000D01*
G75*
G02*
X164369000Y-70235000I-75000J0D01*
G01*
G37*
%TD.AperFunction*%
%TO.P,U2,24*%
%TO.N,+3V3*%
%TA.AperFunction,SMDPad,CuDef*%
G36*
G01*
X166369000Y-71060000D02*
X165044000Y-71060000D01*
G75*
G02*
X164969000Y-70985000I0J75000D01*
G01*
X164969000Y-70835000D01*
G75*
G02*
X165044000Y-70760000I75000J0D01*
G01*
X166369000Y-70760000D01*
G75*
G02*
X166444000Y-70835000I0J-75000D01*
G01*
X166444000Y-70985000D01*
G75*
G02*
X166369000Y-71060000I-75000J0D01*
G01*
G37*
%TD.AperFunction*%
%TO.P,U2,23*%
%TO.N,GND*%
%TA.AperFunction,SMDPad,CuDef*%
G36*
G01*
X166369000Y-71560000D02*
X165044000Y-71560000D01*
G75*
G02*
X164969000Y-71485000I0J75000D01*
G01*
X164969000Y-71335000D01*
G75*
G02*
X165044000Y-71260000I75000J0D01*
G01*
X166369000Y-71260000D01*
G75*
G02*
X166444000Y-71335000I0J-75000D01*
G01*
X166444000Y-71485000D01*
G75*
G02*
X166369000Y-71560000I-75000J0D01*
G01*
G37*
%TD.AperFunction*%
%TO.P,U2,22*%
%TO.N,/LED_SDA*%
%TA.AperFunction,SMDPad,CuDef*%
G36*
G01*
X166369000Y-72060000D02*
X165044000Y-72060000D01*
G75*
G02*
X164969000Y-71985000I0J75000D01*
G01*
X164969000Y-71835000D01*
G75*
G02*
X165044000Y-71760000I75000J0D01*
G01*
X166369000Y-71760000D01*
G75*
G02*
X166444000Y-71835000I0J-75000D01*
G01*
X166444000Y-71985000D01*
G75*
G02*
X166369000Y-72060000I-75000J0D01*
G01*
G37*
%TD.AperFunction*%
%TO.P,U2,21*%
%TO.N,/LED_SCL*%
%TA.AperFunction,SMDPad,CuDef*%
G36*
G01*
X166369000Y-72560000D02*
X165044000Y-72560000D01*
G75*
G02*
X164969000Y-72485000I0J75000D01*
G01*
X164969000Y-72335000D01*
G75*
G02*
X165044000Y-72260000I75000J0D01*
G01*
X166369000Y-72260000D01*
G75*
G02*
X166444000Y-72335000I0J-75000D01*
G01*
X166444000Y-72485000D01*
G75*
G02*
X166369000Y-72560000I-75000J0D01*
G01*
G37*
%TD.AperFunction*%
%TO.P,U2,20*%
%TO.N,/LED_EN*%
%TA.AperFunction,SMDPad,CuDef*%
G36*
G01*
X166369000Y-73060000D02*
X165044000Y-73060000D01*
G75*
G02*
X164969000Y-72985000I0J75000D01*
G01*
X164969000Y-72835000D01*
G75*
G02*
X165044000Y-72760000I75000J0D01*
G01*
X166369000Y-72760000D01*
G75*
G02*
X166444000Y-72835000I0J-75000D01*
G01*
X166444000Y-72985000D01*
G75*
G02*
X166369000Y-73060000I-75000J0D01*
G01*
G37*
%TD.AperFunction*%
%TO.P,U2,19*%
%TO.N,Net-(U2-Pad19)*%
%TA.AperFunction,SMDPad,CuDef*%
G36*
G01*
X166369000Y-73560000D02*
X165044000Y-73560000D01*
G75*
G02*
X164969000Y-73485000I0J75000D01*
G01*
X164969000Y-73335000D01*
G75*
G02*
X165044000Y-73260000I75000J0D01*
G01*
X166369000Y-73260000D01*
G75*
G02*
X166444000Y-73335000I0J-75000D01*
G01*
X166444000Y-73485000D01*
G75*
G02*
X166369000Y-73560000I-75000J0D01*
G01*
G37*
%TD.AperFunction*%
%TO.P,U2,18*%
%TO.N,Net-(U2-Pad18)*%
%TA.AperFunction,SMDPad,CuDef*%
G36*
G01*
X166369000Y-74060000D02*
X165044000Y-74060000D01*
G75*
G02*
X164969000Y-73985000I0J75000D01*
G01*
X164969000Y-73835000D01*
G75*
G02*
X165044000Y-73760000I75000J0D01*
G01*
X166369000Y-73760000D01*
G75*
G02*
X166444000Y-73835000I0J-75000D01*
G01*
X166444000Y-73985000D01*
G75*
G02*
X166369000Y-74060000I-75000J0D01*
G01*
G37*
%TD.AperFunction*%
%TO.P,U2,17*%
%TO.N,Net-(U2-Pad17)*%
%TA.AperFunction,SMDPad,CuDef*%
G36*
G01*
X166369000Y-74560000D02*
X165044000Y-74560000D01*
G75*
G02*
X164969000Y-74485000I0J75000D01*
G01*
X164969000Y-74335000D01*
G75*
G02*
X165044000Y-74260000I75000J0D01*
G01*
X166369000Y-74260000D01*
G75*
G02*
X166444000Y-74335000I0J-75000D01*
G01*
X166444000Y-74485000D01*
G75*
G02*
X166369000Y-74560000I-75000J0D01*
G01*
G37*
%TD.AperFunction*%
%TO.P,U2,16*%
%TO.N,Net-(U2-Pad16)*%
%TA.AperFunction,SMDPad,CuDef*%
G36*
G01*
X166369000Y-75060000D02*
X165044000Y-75060000D01*
G75*
G02*
X164969000Y-74985000I0J75000D01*
G01*
X164969000Y-74835000D01*
G75*
G02*
X165044000Y-74760000I75000J0D01*
G01*
X166369000Y-74760000D01*
G75*
G02*
X166444000Y-74835000I0J-75000D01*
G01*
X166444000Y-74985000D01*
G75*
G02*
X166369000Y-75060000I-75000J0D01*
G01*
G37*
%TD.AperFunction*%
%TO.P,U2,15*%
%TO.N,Net-(U2-Pad15)*%
%TA.AperFunction,SMDPad,CuDef*%
G36*
G01*
X166369000Y-75560000D02*
X165044000Y-75560000D01*
G75*
G02*
X164969000Y-75485000I0J75000D01*
G01*
X164969000Y-75335000D01*
G75*
G02*
X165044000Y-75260000I75000J0D01*
G01*
X166369000Y-75260000D01*
G75*
G02*
X166444000Y-75335000I0J-75000D01*
G01*
X166444000Y-75485000D01*
G75*
G02*
X166369000Y-75560000I-75000J0D01*
G01*
G37*
%TD.AperFunction*%
%TO.P,U2,14*%
%TO.N,Net-(U2-Pad14)*%
%TA.AperFunction,SMDPad,CuDef*%
G36*
G01*
X166369000Y-76060000D02*
X165044000Y-76060000D01*
G75*
G02*
X164969000Y-75985000I0J75000D01*
G01*
X164969000Y-75835000D01*
G75*
G02*
X165044000Y-75760000I75000J0D01*
G01*
X166369000Y-75760000D01*
G75*
G02*
X166444000Y-75835000I0J-75000D01*
G01*
X166444000Y-75985000D01*
G75*
G02*
X166369000Y-76060000I-75000J0D01*
G01*
G37*
%TD.AperFunction*%
%TO.P,U2,13*%
%TO.N,Net-(U2-Pad13)*%
%TA.AperFunction,SMDPad,CuDef*%
G36*
G01*
X166369000Y-76560000D02*
X165044000Y-76560000D01*
G75*
G02*
X164969000Y-76485000I0J75000D01*
G01*
X164969000Y-76335000D01*
G75*
G02*
X165044000Y-76260000I75000J0D01*
G01*
X166369000Y-76260000D01*
G75*
G02*
X166444000Y-76335000I0J-75000D01*
G01*
X166444000Y-76485000D01*
G75*
G02*
X166369000Y-76560000I-75000J0D01*
G01*
G37*
%TD.AperFunction*%
%TO.P,U2,12*%
%TO.N,Net-(U2-Pad12)*%
%TA.AperFunction,SMDPad,CuDef*%
G36*
G01*
X164369000Y-78560000D02*
X164219000Y-78560000D01*
G75*
G02*
X164144000Y-78485000I0J75000D01*
G01*
X164144000Y-77160000D01*
G75*
G02*
X164219000Y-77085000I75000J0D01*
G01*
X164369000Y-77085000D01*
G75*
G02*
X164444000Y-77160000I0J-75000D01*
G01*
X164444000Y-78485000D01*
G75*
G02*
X164369000Y-78560000I-75000J0D01*
G01*
G37*
%TD.AperFunction*%
%TO.P,U2,11*%
%TO.N,Net-(U2-Pad11)*%
%TA.AperFunction,SMDPad,CuDef*%
G36*
G01*
X163869000Y-78560000D02*
X163719000Y-78560000D01*
G75*
G02*
X163644000Y-78485000I0J75000D01*
G01*
X163644000Y-77160000D01*
G75*
G02*
X163719000Y-77085000I75000J0D01*
G01*
X163869000Y-77085000D01*
G75*
G02*
X163944000Y-77160000I0J-75000D01*
G01*
X163944000Y-78485000D01*
G75*
G02*
X163869000Y-78560000I-75000J0D01*
G01*
G37*
%TD.AperFunction*%
%TO.P,U2,10*%
%TO.N,Net-(U2-Pad10)*%
%TA.AperFunction,SMDPad,CuDef*%
G36*
G01*
X163369000Y-78560000D02*
X163219000Y-78560000D01*
G75*
G02*
X163144000Y-78485000I0J75000D01*
G01*
X163144000Y-77160000D01*
G75*
G02*
X163219000Y-77085000I75000J0D01*
G01*
X163369000Y-77085000D01*
G75*
G02*
X163444000Y-77160000I0J-75000D01*
G01*
X163444000Y-78485000D01*
G75*
G02*
X163369000Y-78560000I-75000J0D01*
G01*
G37*
%TD.AperFunction*%
%TO.P,U2,9*%
%TO.N,+3V3*%
%TA.AperFunction,SMDPad,CuDef*%
G36*
G01*
X162869000Y-78560000D02*
X162719000Y-78560000D01*
G75*
G02*
X162644000Y-78485000I0J75000D01*
G01*
X162644000Y-77160000D01*
G75*
G02*
X162719000Y-77085000I75000J0D01*
G01*
X162869000Y-77085000D01*
G75*
G02*
X162944000Y-77160000I0J-75000D01*
G01*
X162944000Y-78485000D01*
G75*
G02*
X162869000Y-78560000I-75000J0D01*
G01*
G37*
%TD.AperFunction*%
%TO.P,U2,8*%
%TO.N,GND*%
%TA.AperFunction,SMDPad,CuDef*%
G36*
G01*
X162369000Y-78560000D02*
X162219000Y-78560000D01*
G75*
G02*
X162144000Y-78485000I0J75000D01*
G01*
X162144000Y-77160000D01*
G75*
G02*
X162219000Y-77085000I75000J0D01*
G01*
X162369000Y-77085000D01*
G75*
G02*
X162444000Y-77160000I0J-75000D01*
G01*
X162444000Y-78485000D01*
G75*
G02*
X162369000Y-78560000I-75000J0D01*
G01*
G37*
%TD.AperFunction*%
%TO.P,U2,7*%
%TO.N,/nRESET*%
%TA.AperFunction,SMDPad,CuDef*%
G36*
G01*
X161869000Y-78560000D02*
X161719000Y-78560000D01*
G75*
G02*
X161644000Y-78485000I0J75000D01*
G01*
X161644000Y-77160000D01*
G75*
G02*
X161719000Y-77085000I75000J0D01*
G01*
X161869000Y-77085000D01*
G75*
G02*
X161944000Y-77160000I0J-75000D01*
G01*
X161944000Y-78485000D01*
G75*
G02*
X161869000Y-78560000I-75000J0D01*
G01*
G37*
%TD.AperFunction*%
%TO.P,U2,6*%
%TO.N,/OSC_OUT*%
%TA.AperFunction,SMDPad,CuDef*%
G36*
G01*
X161369000Y-78560000D02*
X161219000Y-78560000D01*
G75*
G02*
X161144000Y-78485000I0J75000D01*
G01*
X161144000Y-77160000D01*
G75*
G02*
X161219000Y-77085000I75000J0D01*
G01*
X161369000Y-77085000D01*
G75*
G02*
X161444000Y-77160000I0J-75000D01*
G01*
X161444000Y-78485000D01*
G75*
G02*
X161369000Y-78560000I-75000J0D01*
G01*
G37*
%TD.AperFunction*%
%TO.P,U2,5*%
%TO.N,/OSC_IN*%
%TA.AperFunction,SMDPad,CuDef*%
G36*
G01*
X160869000Y-78560000D02*
X160719000Y-78560000D01*
G75*
G02*
X160644000Y-78485000I0J75000D01*
G01*
X160644000Y-77160000D01*
G75*
G02*
X160719000Y-77085000I75000J0D01*
G01*
X160869000Y-77085000D01*
G75*
G02*
X160944000Y-77160000I0J-75000D01*
G01*
X160944000Y-78485000D01*
G75*
G02*
X160869000Y-78560000I-75000J0D01*
G01*
G37*
%TD.AperFunction*%
%TO.P,U2,4*%
%TO.N,Net-(U2-Pad4)*%
%TA.AperFunction,SMDPad,CuDef*%
G36*
G01*
X160369000Y-78560000D02*
X160219000Y-78560000D01*
G75*
G02*
X160144000Y-78485000I0J75000D01*
G01*
X160144000Y-77160000D01*
G75*
G02*
X160219000Y-77085000I75000J0D01*
G01*
X160369000Y-77085000D01*
G75*
G02*
X160444000Y-77160000I0J-75000D01*
G01*
X160444000Y-78485000D01*
G75*
G02*
X160369000Y-78560000I-75000J0D01*
G01*
G37*
%TD.AperFunction*%
%TO.P,U2,3*%
%TO.N,Net-(U2-Pad3)*%
%TA.AperFunction,SMDPad,CuDef*%
G36*
G01*
X159869000Y-78560000D02*
X159719000Y-78560000D01*
G75*
G02*
X159644000Y-78485000I0J75000D01*
G01*
X159644000Y-77160000D01*
G75*
G02*
X159719000Y-77085000I75000J0D01*
G01*
X159869000Y-77085000D01*
G75*
G02*
X159944000Y-77160000I0J-75000D01*
G01*
X159944000Y-78485000D01*
G75*
G02*
X159869000Y-78560000I-75000J0D01*
G01*
G37*
%TD.AperFunction*%
%TO.P,U2,2*%
%TO.N,Net-(U2-Pad2)*%
%TA.AperFunction,SMDPad,CuDef*%
G36*
G01*
X159369000Y-78560000D02*
X159219000Y-78560000D01*
G75*
G02*
X159144000Y-78485000I0J75000D01*
G01*
X159144000Y-77160000D01*
G75*
G02*
X159219000Y-77085000I75000J0D01*
G01*
X159369000Y-77085000D01*
G75*
G02*
X159444000Y-77160000I0J-75000D01*
G01*
X159444000Y-78485000D01*
G75*
G02*
X159369000Y-78560000I-75000J0D01*
G01*
G37*
%TD.AperFunction*%
%TO.P,U2,1*%
%TO.N,+3V3*%
%TA.AperFunction,SMDPad,CuDef*%
G36*
G01*
X158869000Y-78560000D02*
X158719000Y-78560000D01*
G75*
G02*
X158644000Y-78485000I0J75000D01*
G01*
X158644000Y-77160000D01*
G75*
G02*
X158719000Y-77085000I75000J0D01*
G01*
X158869000Y-77085000D01*
G75*
G02*
X158944000Y-77160000I0J-75000D01*
G01*
X158944000Y-78485000D01*
G75*
G02*
X158869000Y-78560000I-75000J0D01*
G01*
G37*
%TD.AperFunction*%
%TD*%
D14*
%TO.P,U1,5*%
%TO.N,Net-(C10-Pad2)*%
X128966000Y-54948000D03*
%TO.P,U1,4*%
%TO.N,Net-(U1-Pad4)*%
X127066000Y-54948000D03*
%TO.P,U1,3*%
%TO.N,Net-(SB2-Pad2)*%
X127066000Y-52748000D03*
%TO.P,U1,2*%
%TO.N,GND*%
X128016000Y-52748000D03*
%TO.P,U1,1*%
%TO.N,Net-(SB2-Pad2)*%
X128966000Y-52748000D03*
%TD*%
D11*
%TO.P,TP17,1*%
%TO.N,/RGB0_B*%
X157988000Y-128524000D03*
%TD*%
%TO.P,TP16,1*%
%TO.N,/RGB0_G*%
X157988000Y-126492000D03*
%TD*%
%TO.P,TP15,1*%
%TO.N,/RGB0_R*%
X157988000Y-124460000D03*
%TD*%
%TO.P,TP12,1*%
%TO.N,/CLKOUT*%
X163322000Y-66802000D03*
%TD*%
%TO.P,TP9,1*%
%TO.N,/LED_EN*%
X159004000Y-102108000D03*
%TD*%
%TO.P,TP11,1*%
%TO.N,/LED_SDA*%
X163576000Y-102108000D03*
%TD*%
%TO.P,TP10,1*%
%TO.N,/LED_SCL*%
X168148000Y-102108000D03*
%TD*%
%TO.P,TP8,1*%
%TO.N,/BOOT0*%
X152654000Y-74422000D03*
%TD*%
%TO.P,TP7,1*%
%TO.N,/nRESET*%
X143764000Y-56896000D03*
%TD*%
%TO.P,TP6,1*%
%TO.N,+3V3*%
X138684000Y-56896000D03*
%TD*%
%TO.P,TP5,1*%
%TO.N,Net-(C10-Pad2)*%
X135636000Y-52324000D03*
%TD*%
D10*
%TO.P,TP4,1*%
%TO.N,GND*%
X162560000Y-134620000D03*
%TD*%
D15*
%TO.P,TP2,1*%
%TO.N,GND*%
X86360000Y-46228000D03*
%TD*%
D11*
%TO.P,TP1,1*%
%TO.N,+5V*%
X106934000Y-43688000D03*
%TD*%
D16*
%TO.P,SW10,2*%
%TO.N,/QAZ Testboard Keys/ROW02*%
X127190000Y-124960000D03*
%TO.P,SW10,1*%
%TO.N,Net-(D9-Pad2)*%
X133540000Y-122420000D03*
%TD*%
%TO.P,SW9,2*%
%TO.N,/QAZ Testboard Keys/ROW01*%
X127190000Y-105960000D03*
%TO.P,SW9,1*%
%TO.N,Net-(D8-Pad2)*%
X133540000Y-103420000D03*
%TD*%
%TO.P,SW8,2*%
%TO.N,/QAZ Testboard Keys/ROW00*%
X127190000Y-86868000D03*
%TO.P,SW8,1*%
%TO.N,Net-(D7-Pad2)*%
X133540000Y-84328000D03*
%TD*%
%TO.P,SW7,2*%
%TO.N,/QAZ Testboard Keys/ROW02*%
X108190000Y-124960000D03*
%TO.P,SW7,1*%
%TO.N,Net-(D6-Pad2)*%
X114540000Y-122420000D03*
%TD*%
%TO.P,SW6,2*%
%TO.N,/QAZ Testboard Keys/ROW01*%
X108190000Y-105960000D03*
%TO.P,SW6,1*%
%TO.N,Net-(D5-Pad2)*%
X114540000Y-103420000D03*
%TD*%
%TO.P,SW5,2*%
%TO.N,/QAZ Testboard Keys/ROW00*%
X108190000Y-86868000D03*
%TO.P,SW5,1*%
%TO.N,Net-(D4-Pad2)*%
X114540000Y-84328000D03*
%TD*%
%TO.P,SW4,2*%
%TO.N,/QAZ Testboard Keys/ROW02*%
X89190000Y-124960000D03*
%TO.P,SW4,1*%
%TO.N,Net-(D3-Pad2)*%
X95540000Y-122420000D03*
%TD*%
%TO.P,SW3,2*%
%TO.N,/QAZ Testboard Keys/ROW01*%
X89190000Y-105960000D03*
%TO.P,SW3,1*%
%TO.N,Net-(D2-Pad2)*%
X95540000Y-103420000D03*
%TD*%
%TO.P,SW2,2*%
%TO.N,/QAZ Testboard Keys/ROW00*%
X89190000Y-86868000D03*
%TO.P,SW2,1*%
%TO.N,Net-(D1-Pad2)*%
X95540000Y-84328000D03*
%TD*%
D17*
%TO.P,SW1,2*%
%TO.N,Net-(C1-Pad2)*%
X152484000Y-93254000D03*
%TO.P,SW1,1*%
%TO.N,GND*%
X152484000Y-97754000D03*
X160444000Y-97754000D03*
%TO.P,SW1,2*%
%TO.N,Net-(C1-Pad2)*%
X160444000Y-93254000D03*
%TD*%
%TO.P,SB20,2*%
%TO.N,+5V*%
%TA.AperFunction,SMDPad,CuDef*%
G36*
G01*
X167990000Y-126729500D02*
X167990000Y-126254500D01*
G75*
G02*
X168227500Y-126017000I237500J0D01*
G01*
X168802500Y-126017000D01*
G75*
G02*
X169040000Y-126254500I0J-237500D01*
G01*
X169040000Y-126729500D01*
G75*
G02*
X168802500Y-126967000I-237500J0D01*
G01*
X168227500Y-126967000D01*
G75*
G02*
X167990000Y-126729500I0J237500D01*
G01*
G37*
%TD.AperFunction*%
%TO.P,SB20,1*%
%TO.N,Net-(LED4-Pad4)*%
%TA.AperFunction,SMDPad,CuDef*%
G36*
G01*
X166240000Y-126729500D02*
X166240000Y-126254500D01*
G75*
G02*
X166477500Y-126017000I237500J0D01*
G01*
X167052500Y-126017000D01*
G75*
G02*
X167290000Y-126254500I0J-237500D01*
G01*
X167290000Y-126729500D01*
G75*
G02*
X167052500Y-126967000I-237500J0D01*
G01*
X166477500Y-126967000D01*
G75*
G02*
X166240000Y-126729500I0J237500D01*
G01*
G37*
%TD.AperFunction*%
%TD*%
%TO.P,SB19,2*%
%TO.N,/COL02*%
%TA.AperFunction,SMDPad,CuDef*%
G36*
G01*
X141969500Y-75596000D02*
X141494500Y-75596000D01*
G75*
G02*
X141257000Y-75358500I0J237500D01*
G01*
X141257000Y-74783500D01*
G75*
G02*
X141494500Y-74546000I237500J0D01*
G01*
X141969500Y-74546000D01*
G75*
G02*
X142207000Y-74783500I0J-237500D01*
G01*
X142207000Y-75358500D01*
G75*
G02*
X141969500Y-75596000I-237500J0D01*
G01*
G37*
%TD.AperFunction*%
%TO.P,SB19,1*%
%TO.N,/QAZ Testboard Keys/COL02*%
%TA.AperFunction,SMDPad,CuDef*%
G36*
G01*
X141969500Y-77346000D02*
X141494500Y-77346000D01*
G75*
G02*
X141257000Y-77108500I0J237500D01*
G01*
X141257000Y-76533500D01*
G75*
G02*
X141494500Y-76296000I237500J0D01*
G01*
X141969500Y-76296000D01*
G75*
G02*
X142207000Y-76533500I0J-237500D01*
G01*
X142207000Y-77108500D01*
G75*
G02*
X141969500Y-77346000I-237500J0D01*
G01*
G37*
%TD.AperFunction*%
%TD*%
%TO.P,SB18,2*%
%TO.N,/COL01*%
%TA.AperFunction,SMDPad,CuDef*%
G36*
G01*
X137002000Y-71103500D02*
X137002000Y-70628500D01*
G75*
G02*
X137239500Y-70391000I237500J0D01*
G01*
X137814500Y-70391000D01*
G75*
G02*
X138052000Y-70628500I0J-237500D01*
G01*
X138052000Y-71103500D01*
G75*
G02*
X137814500Y-71341000I-237500J0D01*
G01*
X137239500Y-71341000D01*
G75*
G02*
X137002000Y-71103500I0J237500D01*
G01*
G37*
%TD.AperFunction*%
%TO.P,SB18,1*%
%TO.N,/QAZ Testboard Keys/COL01*%
%TA.AperFunction,SMDPad,CuDef*%
G36*
G01*
X135252000Y-71103500D02*
X135252000Y-70628500D01*
G75*
G02*
X135489500Y-70391000I237500J0D01*
G01*
X136064500Y-70391000D01*
G75*
G02*
X136302000Y-70628500I0J-237500D01*
G01*
X136302000Y-71103500D01*
G75*
G02*
X136064500Y-71341000I-237500J0D01*
G01*
X135489500Y-71341000D01*
G75*
G02*
X135252000Y-71103500I0J237500D01*
G01*
G37*
%TD.AperFunction*%
%TD*%
%TO.P,SB17,2*%
%TO.N,/COL00*%
%TA.AperFunction,SMDPad,CuDef*%
G36*
G01*
X137002000Y-69071500D02*
X137002000Y-68596500D01*
G75*
G02*
X137239500Y-68359000I237500J0D01*
G01*
X137814500Y-68359000D01*
G75*
G02*
X138052000Y-68596500I0J-237500D01*
G01*
X138052000Y-69071500D01*
G75*
G02*
X137814500Y-69309000I-237500J0D01*
G01*
X137239500Y-69309000D01*
G75*
G02*
X137002000Y-69071500I0J237500D01*
G01*
G37*
%TD.AperFunction*%
%TO.P,SB17,1*%
%TO.N,/QAZ Testboard Keys/COL00*%
%TA.AperFunction,SMDPad,CuDef*%
G36*
G01*
X135252000Y-69071500D02*
X135252000Y-68596500D01*
G75*
G02*
X135489500Y-68359000I237500J0D01*
G01*
X136064500Y-68359000D01*
G75*
G02*
X136302000Y-68596500I0J-237500D01*
G01*
X136302000Y-69071500D01*
G75*
G02*
X136064500Y-69309000I-237500J0D01*
G01*
X135489500Y-69309000D01*
G75*
G02*
X135252000Y-69071500I0J237500D01*
G01*
G37*
%TD.AperFunction*%
%TD*%
%TO.P,SB16,2*%
%TO.N,Net-(SB16-Pad2)*%
%TA.AperFunction,SMDPad,CuDef*%
G36*
G01*
X162322500Y-107538000D02*
X162797500Y-107538000D01*
G75*
G02*
X163035000Y-107775500I0J-237500D01*
G01*
X163035000Y-108350500D01*
G75*
G02*
X162797500Y-108588000I-237500J0D01*
G01*
X162322500Y-108588000D01*
G75*
G02*
X162085000Y-108350500I0J237500D01*
G01*
X162085000Y-107775500D01*
G75*
G02*
X162322500Y-107538000I237500J0D01*
G01*
G37*
%TD.AperFunction*%
%TO.P,SB16,1*%
%TO.N,/LED_SDA*%
%TA.AperFunction,SMDPad,CuDef*%
G36*
G01*
X162322500Y-105788000D02*
X162797500Y-105788000D01*
G75*
G02*
X163035000Y-106025500I0J-237500D01*
G01*
X163035000Y-106600500D01*
G75*
G02*
X162797500Y-106838000I-237500J0D01*
G01*
X162322500Y-106838000D01*
G75*
G02*
X162085000Y-106600500I0J237500D01*
G01*
X162085000Y-106025500D01*
G75*
G02*
X162322500Y-105788000I237500J0D01*
G01*
G37*
%TD.AperFunction*%
%TD*%
%TO.P,SB15,2*%
%TO.N,Net-(SB15-Pad2)*%
%TA.AperFunction,SMDPad,CuDef*%
G36*
G01*
X164354500Y-107538000D02*
X164829500Y-107538000D01*
G75*
G02*
X165067000Y-107775500I0J-237500D01*
G01*
X165067000Y-108350500D01*
G75*
G02*
X164829500Y-108588000I-237500J0D01*
G01*
X164354500Y-108588000D01*
G75*
G02*
X164117000Y-108350500I0J237500D01*
G01*
X164117000Y-107775500D01*
G75*
G02*
X164354500Y-107538000I237500J0D01*
G01*
G37*
%TD.AperFunction*%
%TO.P,SB15,1*%
%TO.N,/LED_SCL*%
%TA.AperFunction,SMDPad,CuDef*%
G36*
G01*
X164354500Y-105788000D02*
X164829500Y-105788000D01*
G75*
G02*
X165067000Y-106025500I0J-237500D01*
G01*
X165067000Y-106600500D01*
G75*
G02*
X164829500Y-106838000I-237500J0D01*
G01*
X164354500Y-106838000D01*
G75*
G02*
X164117000Y-106600500I0J237500D01*
G01*
X164117000Y-106025500D01*
G75*
G02*
X164354500Y-105788000I237500J0D01*
G01*
G37*
%TD.AperFunction*%
%TD*%
%TO.P,SB14,2*%
%TO.N,Net-(SB14-Pad2)*%
%TA.AperFunction,SMDPad,CuDef*%
G36*
G01*
X160290500Y-107538000D02*
X160765500Y-107538000D01*
G75*
G02*
X161003000Y-107775500I0J-237500D01*
G01*
X161003000Y-108350500D01*
G75*
G02*
X160765500Y-108588000I-237500J0D01*
G01*
X160290500Y-108588000D01*
G75*
G02*
X160053000Y-108350500I0J237500D01*
G01*
X160053000Y-107775500D01*
G75*
G02*
X160290500Y-107538000I237500J0D01*
G01*
G37*
%TD.AperFunction*%
%TO.P,SB14,1*%
%TO.N,/LED_EN*%
%TA.AperFunction,SMDPad,CuDef*%
G36*
G01*
X160290500Y-105788000D02*
X160765500Y-105788000D01*
G75*
G02*
X161003000Y-106025500I0J-237500D01*
G01*
X161003000Y-106600500D01*
G75*
G02*
X160765500Y-106838000I-237500J0D01*
G01*
X160290500Y-106838000D01*
G75*
G02*
X160053000Y-106600500I0J237500D01*
G01*
X160053000Y-106025500D01*
G75*
G02*
X160290500Y-105788000I237500J0D01*
G01*
G37*
%TD.AperFunction*%
%TD*%
%TO.P,SB13,2*%
%TO.N,+3V3*%
%TA.AperFunction,SMDPad,CuDef*%
G36*
G01*
X165958000Y-111997500D02*
X165958000Y-111522500D01*
G75*
G02*
X166195500Y-111285000I237500J0D01*
G01*
X166770500Y-111285000D01*
G75*
G02*
X167008000Y-111522500I0J-237500D01*
G01*
X167008000Y-111997500D01*
G75*
G02*
X166770500Y-112235000I-237500J0D01*
G01*
X166195500Y-112235000D01*
G75*
G02*
X165958000Y-111997500I0J237500D01*
G01*
G37*
%TD.AperFunction*%
%TO.P,SB13,1*%
%TO.N,Net-(C12-Pad2)*%
%TA.AperFunction,SMDPad,CuDef*%
G36*
G01*
X164208000Y-111997500D02*
X164208000Y-111522500D01*
G75*
G02*
X164445500Y-111285000I237500J0D01*
G01*
X165020500Y-111285000D01*
G75*
G02*
X165258000Y-111522500I0J-237500D01*
G01*
X165258000Y-111997500D01*
G75*
G02*
X165020500Y-112235000I-237500J0D01*
G01*
X164445500Y-112235000D01*
G75*
G02*
X164208000Y-111997500I0J237500D01*
G01*
G37*
%TD.AperFunction*%
%TD*%
%TO.P,SB12,2*%
%TO.N,/QAZ External Connections/nRESET*%
%TA.AperFunction,SMDPad,CuDef*%
G36*
G01*
X147049500Y-52228000D02*
X146574500Y-52228000D01*
G75*
G02*
X146337000Y-51990500I0J237500D01*
G01*
X146337000Y-51415500D01*
G75*
G02*
X146574500Y-51178000I237500J0D01*
G01*
X147049500Y-51178000D01*
G75*
G02*
X147287000Y-51415500I0J-237500D01*
G01*
X147287000Y-51990500D01*
G75*
G02*
X147049500Y-52228000I-237500J0D01*
G01*
G37*
%TD.AperFunction*%
%TO.P,SB12,1*%
%TO.N,/nRESET*%
%TA.AperFunction,SMDPad,CuDef*%
G36*
G01*
X147049500Y-53978000D02*
X146574500Y-53978000D01*
G75*
G02*
X146337000Y-53740500I0J237500D01*
G01*
X146337000Y-53165500D01*
G75*
G02*
X146574500Y-52928000I237500J0D01*
G01*
X147049500Y-52928000D01*
G75*
G02*
X147287000Y-53165500I0J-237500D01*
G01*
X147287000Y-53740500D01*
G75*
G02*
X147049500Y-53978000I-237500J0D01*
G01*
G37*
%TD.AperFunction*%
%TD*%
%TO.P,SB11,2*%
%TO.N,/SWCLK*%
%TA.AperFunction,SMDPad,CuDef*%
G36*
G01*
X155606000Y-59706500D02*
X155606000Y-60181500D01*
G75*
G02*
X155368500Y-60419000I-237500J0D01*
G01*
X154793500Y-60419000D01*
G75*
G02*
X154556000Y-60181500I0J237500D01*
G01*
X154556000Y-59706500D01*
G75*
G02*
X154793500Y-59469000I237500J0D01*
G01*
X155368500Y-59469000D01*
G75*
G02*
X155606000Y-59706500I0J-237500D01*
G01*
G37*
%TD.AperFunction*%
%TO.P,SB11,1*%
%TO.N,/QAZ External Connections/SWCLK*%
%TA.AperFunction,SMDPad,CuDef*%
G36*
G01*
X157356000Y-59706500D02*
X157356000Y-60181500D01*
G75*
G02*
X157118500Y-60419000I-237500J0D01*
G01*
X156543500Y-60419000D01*
G75*
G02*
X156306000Y-60181500I0J237500D01*
G01*
X156306000Y-59706500D01*
G75*
G02*
X156543500Y-59469000I237500J0D01*
G01*
X157118500Y-59469000D01*
G75*
G02*
X157356000Y-59706500I0J-237500D01*
G01*
G37*
%TD.AperFunction*%
%TD*%
%TO.P,SB10,2*%
%TO.N,/SWDIO*%
%TA.AperFunction,SMDPad,CuDef*%
G36*
G01*
X149510000Y-59706500D02*
X149510000Y-60181500D01*
G75*
G02*
X149272500Y-60419000I-237500J0D01*
G01*
X148697500Y-60419000D01*
G75*
G02*
X148460000Y-60181500I0J237500D01*
G01*
X148460000Y-59706500D01*
G75*
G02*
X148697500Y-59469000I237500J0D01*
G01*
X149272500Y-59469000D01*
G75*
G02*
X149510000Y-59706500I0J-237500D01*
G01*
G37*
%TD.AperFunction*%
%TO.P,SB10,1*%
%TO.N,/QAZ External Connections/SWDIO*%
%TA.AperFunction,SMDPad,CuDef*%
G36*
G01*
X151260000Y-59706500D02*
X151260000Y-60181500D01*
G75*
G02*
X151022500Y-60419000I-237500J0D01*
G01*
X150447500Y-60419000D01*
G75*
G02*
X150210000Y-60181500I0J237500D01*
G01*
X150210000Y-59706500D01*
G75*
G02*
X150447500Y-59469000I237500J0D01*
G01*
X151022500Y-59469000D01*
G75*
G02*
X151260000Y-59706500I0J-237500D01*
G01*
G37*
%TD.AperFunction*%
%TD*%
%TO.P,SB9,2*%
%TO.N,/USB_D-*%
%TA.AperFunction,SMDPad,CuDef*%
G36*
G01*
X120746000Y-65007500D02*
X120746000Y-64532500D01*
G75*
G02*
X120983500Y-64295000I237500J0D01*
G01*
X121558500Y-64295000D01*
G75*
G02*
X121796000Y-64532500I0J-237500D01*
G01*
X121796000Y-65007500D01*
G75*
G02*
X121558500Y-65245000I-237500J0D01*
G01*
X120983500Y-65245000D01*
G75*
G02*
X120746000Y-65007500I0J237500D01*
G01*
G37*
%TD.AperFunction*%
%TO.P,SB9,1*%
%TO.N,/QAZ External Connections/USB_D-*%
%TA.AperFunction,SMDPad,CuDef*%
G36*
G01*
X118996000Y-65007500D02*
X118996000Y-64532500D01*
G75*
G02*
X119233500Y-64295000I237500J0D01*
G01*
X119808500Y-64295000D01*
G75*
G02*
X120046000Y-64532500I0J-237500D01*
G01*
X120046000Y-65007500D01*
G75*
G02*
X119808500Y-65245000I-237500J0D01*
G01*
X119233500Y-65245000D01*
G75*
G02*
X118996000Y-65007500I0J237500D01*
G01*
G37*
%TD.AperFunction*%
%TD*%
%TO.P,SB8,2*%
%TO.N,/USB_D+*%
%TA.AperFunction,SMDPad,CuDef*%
G36*
G01*
X120746000Y-66785500D02*
X120746000Y-66310500D01*
G75*
G02*
X120983500Y-66073000I237500J0D01*
G01*
X121558500Y-66073000D01*
G75*
G02*
X121796000Y-66310500I0J-237500D01*
G01*
X121796000Y-66785500D01*
G75*
G02*
X121558500Y-67023000I-237500J0D01*
G01*
X120983500Y-67023000D01*
G75*
G02*
X120746000Y-66785500I0J237500D01*
G01*
G37*
%TD.AperFunction*%
%TO.P,SB8,1*%
%TO.N,/QAZ External Connections/USB_D+*%
%TA.AperFunction,SMDPad,CuDef*%
G36*
G01*
X118996000Y-66785500D02*
X118996000Y-66310500D01*
G75*
G02*
X119233500Y-66073000I237500J0D01*
G01*
X119808500Y-66073000D01*
G75*
G02*
X120046000Y-66310500I0J-237500D01*
G01*
X120046000Y-66785500D01*
G75*
G02*
X119808500Y-67023000I-237500J0D01*
G01*
X119233500Y-67023000D01*
G75*
G02*
X118996000Y-66785500I0J237500D01*
G01*
G37*
%TD.AperFunction*%
%TD*%
%TO.P,SB7,2*%
%TO.N,/QAZ External Connections/DBG_TX*%
%TA.AperFunction,SMDPad,CuDef*%
G36*
G01*
X168893500Y-51974000D02*
X168418500Y-51974000D01*
G75*
G02*
X168181000Y-51736500I0J237500D01*
G01*
X168181000Y-51161500D01*
G75*
G02*
X168418500Y-50924000I237500J0D01*
G01*
X168893500Y-50924000D01*
G75*
G02*
X169131000Y-51161500I0J-237500D01*
G01*
X169131000Y-51736500D01*
G75*
G02*
X168893500Y-51974000I-237500J0D01*
G01*
G37*
%TD.AperFunction*%
%TO.P,SB7,1*%
%TO.N,/DBG_TX*%
%TA.AperFunction,SMDPad,CuDef*%
G36*
G01*
X168893500Y-53724000D02*
X168418500Y-53724000D01*
G75*
G02*
X168181000Y-53486500I0J237500D01*
G01*
X168181000Y-52911500D01*
G75*
G02*
X168418500Y-52674000I237500J0D01*
G01*
X168893500Y-52674000D01*
G75*
G02*
X169131000Y-52911500I0J-237500D01*
G01*
X169131000Y-53486500D01*
G75*
G02*
X168893500Y-53724000I-237500J0D01*
G01*
G37*
%TD.AperFunction*%
%TD*%
%TO.P,SB6,2*%
%TO.N,/QAZ External Connections/DBG_RX*%
%TA.AperFunction,SMDPad,CuDef*%
G36*
G01*
X160257500Y-51974000D02*
X159782500Y-51974000D01*
G75*
G02*
X159545000Y-51736500I0J237500D01*
G01*
X159545000Y-51161500D01*
G75*
G02*
X159782500Y-50924000I237500J0D01*
G01*
X160257500Y-50924000D01*
G75*
G02*
X160495000Y-51161500I0J-237500D01*
G01*
X160495000Y-51736500D01*
G75*
G02*
X160257500Y-51974000I-237500J0D01*
G01*
G37*
%TD.AperFunction*%
%TO.P,SB6,1*%
%TO.N,/DBG_RX*%
%TA.AperFunction,SMDPad,CuDef*%
G36*
G01*
X160257500Y-53724000D02*
X159782500Y-53724000D01*
G75*
G02*
X159545000Y-53486500I0J237500D01*
G01*
X159545000Y-52911500D01*
G75*
G02*
X159782500Y-52674000I237500J0D01*
G01*
X160257500Y-52674000D01*
G75*
G02*
X160495000Y-52911500I0J-237500D01*
G01*
X160495000Y-53486500D01*
G75*
G02*
X160257500Y-53724000I-237500J0D01*
G01*
G37*
%TD.AperFunction*%
%TD*%
%TO.P,SB5,2*%
%TO.N,+3V3*%
%TA.AperFunction,SMDPad,CuDef*%
G36*
G01*
X135398500Y-56230000D02*
X135873500Y-56230000D01*
G75*
G02*
X136111000Y-56467500I0J-237500D01*
G01*
X136111000Y-57042500D01*
G75*
G02*
X135873500Y-57280000I-237500J0D01*
G01*
X135398500Y-57280000D01*
G75*
G02*
X135161000Y-57042500I0J237500D01*
G01*
X135161000Y-56467500D01*
G75*
G02*
X135398500Y-56230000I237500J0D01*
G01*
G37*
%TD.AperFunction*%
%TO.P,SB5,1*%
%TO.N,Net-(C10-Pad2)*%
%TA.AperFunction,SMDPad,CuDef*%
G36*
G01*
X135398500Y-54480000D02*
X135873500Y-54480000D01*
G75*
G02*
X136111000Y-54717500I0J-237500D01*
G01*
X136111000Y-55292500D01*
G75*
G02*
X135873500Y-55530000I-237500J0D01*
G01*
X135398500Y-55530000D01*
G75*
G02*
X135161000Y-55292500I0J237500D01*
G01*
X135161000Y-54717500D01*
G75*
G02*
X135398500Y-54480000I237500J0D01*
G01*
G37*
%TD.AperFunction*%
%TD*%
%TO.P,SB4,2*%
%TO.N,/OSC_OUT*%
%TA.AperFunction,SMDPad,CuDef*%
G36*
G01*
X157322000Y-86597500D02*
X157322000Y-86122500D01*
G75*
G02*
X157559500Y-85885000I237500J0D01*
G01*
X158134500Y-85885000D01*
G75*
G02*
X158372000Y-86122500I0J-237500D01*
G01*
X158372000Y-86597500D01*
G75*
G02*
X158134500Y-86835000I-237500J0D01*
G01*
X157559500Y-86835000D01*
G75*
G02*
X157322000Y-86597500I0J237500D01*
G01*
G37*
%TD.AperFunction*%
%TO.P,SB4,1*%
%TO.N,Net-(C8-Pad1)*%
%TA.AperFunction,SMDPad,CuDef*%
G36*
G01*
X155572000Y-86597500D02*
X155572000Y-86122500D01*
G75*
G02*
X155809500Y-85885000I237500J0D01*
G01*
X156384500Y-85885000D01*
G75*
G02*
X156622000Y-86122500I0J-237500D01*
G01*
X156622000Y-86597500D01*
G75*
G02*
X156384500Y-86835000I-237500J0D01*
G01*
X155809500Y-86835000D01*
G75*
G02*
X155572000Y-86597500I0J237500D01*
G01*
G37*
%TD.AperFunction*%
%TD*%
%TO.P,SB3,2*%
%TO.N,/OSC_IN*%
%TA.AperFunction,SMDPad,CuDef*%
G36*
G01*
X157322000Y-84565500D02*
X157322000Y-84090500D01*
G75*
G02*
X157559500Y-83853000I237500J0D01*
G01*
X158134500Y-83853000D01*
G75*
G02*
X158372000Y-84090500I0J-237500D01*
G01*
X158372000Y-84565500D01*
G75*
G02*
X158134500Y-84803000I-237500J0D01*
G01*
X157559500Y-84803000D01*
G75*
G02*
X157322000Y-84565500I0J237500D01*
G01*
G37*
%TD.AperFunction*%
%TO.P,SB3,1*%
%TO.N,Net-(C7-Pad1)*%
%TA.AperFunction,SMDPad,CuDef*%
G36*
G01*
X155572000Y-84565500D02*
X155572000Y-84090500D01*
G75*
G02*
X155809500Y-83853000I237500J0D01*
G01*
X156384500Y-83853000D01*
G75*
G02*
X156622000Y-84090500I0J-237500D01*
G01*
X156622000Y-84565500D01*
G75*
G02*
X156384500Y-84803000I-237500J0D01*
G01*
X155809500Y-84803000D01*
G75*
G02*
X155572000Y-84565500I0J237500D01*
G01*
G37*
%TD.AperFunction*%
%TD*%
%TO.P,SB2,2*%
%TO.N,Net-(SB2-Pad2)*%
%TA.AperFunction,SMDPad,CuDef*%
G36*
G01*
X128366000Y-48497500D02*
X128366000Y-48022500D01*
G75*
G02*
X128603500Y-47785000I237500J0D01*
G01*
X129178500Y-47785000D01*
G75*
G02*
X129416000Y-48022500I0J-237500D01*
G01*
X129416000Y-48497500D01*
G75*
G02*
X129178500Y-48735000I-237500J0D01*
G01*
X128603500Y-48735000D01*
G75*
G02*
X128366000Y-48497500I0J237500D01*
G01*
G37*
%TD.AperFunction*%
%TO.P,SB2,1*%
%TO.N,+5V*%
%TA.AperFunction,SMDPad,CuDef*%
G36*
G01*
X126616000Y-48497500D02*
X126616000Y-48022500D01*
G75*
G02*
X126853500Y-47785000I237500J0D01*
G01*
X127428500Y-47785000D01*
G75*
G02*
X127666000Y-48022500I0J-237500D01*
G01*
X127666000Y-48497500D01*
G75*
G02*
X127428500Y-48735000I-237500J0D01*
G01*
X126853500Y-48735000D01*
G75*
G02*
X126616000Y-48497500I0J237500D01*
G01*
G37*
%TD.AperFunction*%
%TD*%
%TO.P,SB1,2*%
%TO.N,/nRESET*%
%TA.AperFunction,SMDPad,CuDef*%
G36*
G01*
X163051500Y-83978000D02*
X162576500Y-83978000D01*
G75*
G02*
X162339000Y-83740500I0J237500D01*
G01*
X162339000Y-83165500D01*
G75*
G02*
X162576500Y-82928000I237500J0D01*
G01*
X163051500Y-82928000D01*
G75*
G02*
X163289000Y-83165500I0J-237500D01*
G01*
X163289000Y-83740500D01*
G75*
G02*
X163051500Y-83978000I-237500J0D01*
G01*
G37*
%TD.AperFunction*%
%TO.P,SB1,1*%
%TO.N,Net-(C1-Pad2)*%
%TA.AperFunction,SMDPad,CuDef*%
G36*
G01*
X163051500Y-85728000D02*
X162576500Y-85728000D01*
G75*
G02*
X162339000Y-85490500I0J237500D01*
G01*
X162339000Y-84915500D01*
G75*
G02*
X162576500Y-84678000I237500J0D01*
G01*
X163051500Y-84678000D01*
G75*
G02*
X163289000Y-84915500I0J-237500D01*
G01*
X163289000Y-85490500D01*
G75*
G02*
X163051500Y-85728000I-237500J0D01*
G01*
G37*
%TD.AperFunction*%
%TD*%
%TO.P,R14,2*%
%TO.N,+3V3*%
%TA.AperFunction,SMDPad,CuDef*%
G36*
G01*
X150210000Y-58403500D02*
X150210000Y-57928500D01*
G75*
G02*
X150447500Y-57691000I237500J0D01*
G01*
X151022500Y-57691000D01*
G75*
G02*
X151260000Y-57928500I0J-237500D01*
G01*
X151260000Y-58403500D01*
G75*
G02*
X151022500Y-58641000I-237500J0D01*
G01*
X150447500Y-58641000D01*
G75*
G02*
X150210000Y-58403500I0J237500D01*
G01*
G37*
%TD.AperFunction*%
%TO.P,R14,1*%
%TO.N,/QAZ External Connections/SWDIO*%
%TA.AperFunction,SMDPad,CuDef*%
G36*
G01*
X148460000Y-58403500D02*
X148460000Y-57928500D01*
G75*
G02*
X148697500Y-57691000I237500J0D01*
G01*
X149272500Y-57691000D01*
G75*
G02*
X149510000Y-57928500I0J-237500D01*
G01*
X149510000Y-58403500D01*
G75*
G02*
X149272500Y-58641000I-237500J0D01*
G01*
X148697500Y-58641000D01*
G75*
G02*
X148460000Y-58403500I0J237500D01*
G01*
G37*
%TD.AperFunction*%
%TD*%
%TO.P,R13,2*%
%TO.N,/QAZ External Connections/SWCLK*%
%TA.AperFunction,SMDPad,CuDef*%
G36*
G01*
X156306000Y-58403500D02*
X156306000Y-57928500D01*
G75*
G02*
X156543500Y-57691000I237500J0D01*
G01*
X157118500Y-57691000D01*
G75*
G02*
X157356000Y-57928500I0J-237500D01*
G01*
X157356000Y-58403500D01*
G75*
G02*
X157118500Y-58641000I-237500J0D01*
G01*
X156543500Y-58641000D01*
G75*
G02*
X156306000Y-58403500I0J237500D01*
G01*
G37*
%TD.AperFunction*%
%TO.P,R13,1*%
%TO.N,GND*%
%TA.AperFunction,SMDPad,CuDef*%
G36*
G01*
X154556000Y-58403500D02*
X154556000Y-57928500D01*
G75*
G02*
X154793500Y-57691000I237500J0D01*
G01*
X155368500Y-57691000D01*
G75*
G02*
X155606000Y-57928500I0J-237500D01*
G01*
X155606000Y-58403500D01*
G75*
G02*
X155368500Y-58641000I-237500J0D01*
G01*
X154793500Y-58641000D01*
G75*
G02*
X154556000Y-58403500I0J237500D01*
G01*
G37*
%TD.AperFunction*%
%TD*%
%TO.P,R11,2*%
%TO.N,/ROW02*%
%TA.AperFunction,SMDPad,CuDef*%
G36*
G01*
X144001500Y-75596000D02*
X143526500Y-75596000D01*
G75*
G02*
X143289000Y-75358500I0J237500D01*
G01*
X143289000Y-74783500D01*
G75*
G02*
X143526500Y-74546000I237500J0D01*
G01*
X144001500Y-74546000D01*
G75*
G02*
X144239000Y-74783500I0J-237500D01*
G01*
X144239000Y-75358500D01*
G75*
G02*
X144001500Y-75596000I-237500J0D01*
G01*
G37*
%TD.AperFunction*%
%TO.P,R11,1*%
%TO.N,/QAZ Testboard Keys/ROW02*%
%TA.AperFunction,SMDPad,CuDef*%
G36*
G01*
X144001500Y-77346000D02*
X143526500Y-77346000D01*
G75*
G02*
X143289000Y-77108500I0J237500D01*
G01*
X143289000Y-76533500D01*
G75*
G02*
X143526500Y-76296000I237500J0D01*
G01*
X144001500Y-76296000D01*
G75*
G02*
X144239000Y-76533500I0J-237500D01*
G01*
X144239000Y-77108500D01*
G75*
G02*
X144001500Y-77346000I-237500J0D01*
G01*
G37*
%TD.AperFunction*%
%TD*%
%TO.P,R10,2*%
%TO.N,/ROW01*%
%TA.AperFunction,SMDPad,CuDef*%
G36*
G01*
X139937500Y-75596000D02*
X139462500Y-75596000D01*
G75*
G02*
X139225000Y-75358500I0J237500D01*
G01*
X139225000Y-74783500D01*
G75*
G02*
X139462500Y-74546000I237500J0D01*
G01*
X139937500Y-74546000D01*
G75*
G02*
X140175000Y-74783500I0J-237500D01*
G01*
X140175000Y-75358500D01*
G75*
G02*
X139937500Y-75596000I-237500J0D01*
G01*
G37*
%TD.AperFunction*%
%TO.P,R10,1*%
%TO.N,/QAZ Testboard Keys/ROW01*%
%TA.AperFunction,SMDPad,CuDef*%
G36*
G01*
X139937500Y-77346000D02*
X139462500Y-77346000D01*
G75*
G02*
X139225000Y-77108500I0J237500D01*
G01*
X139225000Y-76533500D01*
G75*
G02*
X139462500Y-76296000I237500J0D01*
G01*
X139937500Y-76296000D01*
G75*
G02*
X140175000Y-76533500I0J-237500D01*
G01*
X140175000Y-77108500D01*
G75*
G02*
X139937500Y-77346000I-237500J0D01*
G01*
G37*
%TD.AperFunction*%
%TD*%
%TO.P,R9,2*%
%TO.N,/ROW00*%
%TA.AperFunction,SMDPad,CuDef*%
G36*
G01*
X137002000Y-73135500D02*
X137002000Y-72660500D01*
G75*
G02*
X137239500Y-72423000I237500J0D01*
G01*
X137814500Y-72423000D01*
G75*
G02*
X138052000Y-72660500I0J-237500D01*
G01*
X138052000Y-73135500D01*
G75*
G02*
X137814500Y-73373000I-237500J0D01*
G01*
X137239500Y-73373000D01*
G75*
G02*
X137002000Y-73135500I0J237500D01*
G01*
G37*
%TD.AperFunction*%
%TO.P,R9,1*%
%TO.N,/QAZ Testboard Keys/ROW00*%
%TA.AperFunction,SMDPad,CuDef*%
G36*
G01*
X135252000Y-73135500D02*
X135252000Y-72660500D01*
G75*
G02*
X135489500Y-72423000I237500J0D01*
G01*
X136064500Y-72423000D01*
G75*
G02*
X136302000Y-72660500I0J-237500D01*
G01*
X136302000Y-73135500D01*
G75*
G02*
X136064500Y-73373000I-237500J0D01*
G01*
X135489500Y-73373000D01*
G75*
G02*
X135252000Y-73135500I0J237500D01*
G01*
G37*
%TD.AperFunction*%
%TD*%
%TO.P,R8,2*%
%TO.N,+3V3*%
%TA.AperFunction,SMDPad,CuDef*%
G36*
G01*
X173578000Y-74405500D02*
X173578000Y-73930500D01*
G75*
G02*
X173815500Y-73693000I237500J0D01*
G01*
X174390500Y-73693000D01*
G75*
G02*
X174628000Y-73930500I0J-237500D01*
G01*
X174628000Y-74405500D01*
G75*
G02*
X174390500Y-74643000I-237500J0D01*
G01*
X173815500Y-74643000D01*
G75*
G02*
X173578000Y-74405500I0J237500D01*
G01*
G37*
%TD.AperFunction*%
%TO.P,R8,1*%
%TO.N,/LED_SDA*%
%TA.AperFunction,SMDPad,CuDef*%
G36*
G01*
X171828000Y-74405500D02*
X171828000Y-73930500D01*
G75*
G02*
X172065500Y-73693000I237500J0D01*
G01*
X172640500Y-73693000D01*
G75*
G02*
X172878000Y-73930500I0J-237500D01*
G01*
X172878000Y-74405500D01*
G75*
G02*
X172640500Y-74643000I-237500J0D01*
G01*
X172065500Y-74643000D01*
G75*
G02*
X171828000Y-74405500I0J237500D01*
G01*
G37*
%TD.AperFunction*%
%TD*%
%TO.P,R7,2*%
%TO.N,+3V3*%
%TA.AperFunction,SMDPad,CuDef*%
G36*
G01*
X173578000Y-77453500D02*
X173578000Y-76978500D01*
G75*
G02*
X173815500Y-76741000I237500J0D01*
G01*
X174390500Y-76741000D01*
G75*
G02*
X174628000Y-76978500I0J-237500D01*
G01*
X174628000Y-77453500D01*
G75*
G02*
X174390500Y-77691000I-237500J0D01*
G01*
X173815500Y-77691000D01*
G75*
G02*
X173578000Y-77453500I0J237500D01*
G01*
G37*
%TD.AperFunction*%
%TO.P,R7,1*%
%TO.N,/LED_SCL*%
%TA.AperFunction,SMDPad,CuDef*%
G36*
G01*
X171828000Y-77453500D02*
X171828000Y-76978500D01*
G75*
G02*
X172065500Y-76741000I237500J0D01*
G01*
X172640500Y-76741000D01*
G75*
G02*
X172878000Y-76978500I0J-237500D01*
G01*
X172878000Y-77453500D01*
G75*
G02*
X172640500Y-77691000I-237500J0D01*
G01*
X172065500Y-77691000D01*
G75*
G02*
X171828000Y-77453500I0J237500D01*
G01*
G37*
%TD.AperFunction*%
%TD*%
%TO.P,R6,2*%
%TO.N,Net-(R6-Pad2)*%
%TA.AperFunction,SMDPad,CuDef*%
G36*
G01*
X159862000Y-113521500D02*
X159862000Y-113046500D01*
G75*
G02*
X160099500Y-112809000I237500J0D01*
G01*
X160674500Y-112809000D01*
G75*
G02*
X160912000Y-113046500I0J-237500D01*
G01*
X160912000Y-113521500D01*
G75*
G02*
X160674500Y-113759000I-237500J0D01*
G01*
X160099500Y-113759000D01*
G75*
G02*
X159862000Y-113521500I0J237500D01*
G01*
G37*
%TD.AperFunction*%
%TO.P,R6,1*%
%TO.N,GND*%
%TA.AperFunction,SMDPad,CuDef*%
G36*
G01*
X158112000Y-113521500D02*
X158112000Y-113046500D01*
G75*
G02*
X158349500Y-112809000I237500J0D01*
G01*
X158924500Y-112809000D01*
G75*
G02*
X159162000Y-113046500I0J-237500D01*
G01*
X159162000Y-113521500D01*
G75*
G02*
X158924500Y-113759000I-237500J0D01*
G01*
X158349500Y-113759000D01*
G75*
G02*
X158112000Y-113521500I0J237500D01*
G01*
G37*
%TD.AperFunction*%
%TD*%
%TO.P,R5,2*%
%TO.N,/HB_LED*%
%TA.AperFunction,SMDPad,CuDef*%
G36*
G01*
X110332000Y-62467500D02*
X110332000Y-61992500D01*
G75*
G02*
X110569500Y-61755000I237500J0D01*
G01*
X111144500Y-61755000D01*
G75*
G02*
X111382000Y-61992500I0J-237500D01*
G01*
X111382000Y-62467500D01*
G75*
G02*
X111144500Y-62705000I-237500J0D01*
G01*
X110569500Y-62705000D01*
G75*
G02*
X110332000Y-62467500I0J237500D01*
G01*
G37*
%TD.AperFunction*%
%TO.P,R5,1*%
%TO.N,Net-(LED3-Pad2)*%
%TA.AperFunction,SMDPad,CuDef*%
G36*
G01*
X108582000Y-62467500D02*
X108582000Y-61992500D01*
G75*
G02*
X108819500Y-61755000I237500J0D01*
G01*
X109394500Y-61755000D01*
G75*
G02*
X109632000Y-61992500I0J-237500D01*
G01*
X109632000Y-62467500D01*
G75*
G02*
X109394500Y-62705000I-237500J0D01*
G01*
X108819500Y-62705000D01*
G75*
G02*
X108582000Y-62467500I0J237500D01*
G01*
G37*
%TD.AperFunction*%
%TD*%
%TO.P,R4,2*%
%TO.N,/BOOT0*%
%TA.AperFunction,SMDPad,CuDef*%
G36*
G01*
X150605500Y-76866000D02*
X150130500Y-76866000D01*
G75*
G02*
X149893000Y-76628500I0J237500D01*
G01*
X149893000Y-76053500D01*
G75*
G02*
X150130500Y-75816000I237500J0D01*
G01*
X150605500Y-75816000D01*
G75*
G02*
X150843000Y-76053500I0J-237500D01*
G01*
X150843000Y-76628500D01*
G75*
G02*
X150605500Y-76866000I-237500J0D01*
G01*
G37*
%TD.AperFunction*%
%TO.P,R4,1*%
%TO.N,GND*%
%TA.AperFunction,SMDPad,CuDef*%
G36*
G01*
X150605500Y-78616000D02*
X150130500Y-78616000D01*
G75*
G02*
X149893000Y-78378500I0J237500D01*
G01*
X149893000Y-77803500D01*
G75*
G02*
X150130500Y-77566000I237500J0D01*
G01*
X150605500Y-77566000D01*
G75*
G02*
X150843000Y-77803500I0J-237500D01*
G01*
X150843000Y-78378500D01*
G75*
G02*
X150605500Y-78616000I-237500J0D01*
G01*
G37*
%TD.AperFunction*%
%TD*%
%TO.P,R3,2*%
%TO.N,+3V3*%
%TA.AperFunction,SMDPad,CuDef*%
G36*
G01*
X152416500Y-77566000D02*
X152891500Y-77566000D01*
G75*
G02*
X153129000Y-77803500I0J-237500D01*
G01*
X153129000Y-78378500D01*
G75*
G02*
X152891500Y-78616000I-237500J0D01*
G01*
X152416500Y-78616000D01*
G75*
G02*
X152179000Y-78378500I0J237500D01*
G01*
X152179000Y-77803500D01*
G75*
G02*
X152416500Y-77566000I237500J0D01*
G01*
G37*
%TD.AperFunction*%
%TO.P,R3,1*%
%TO.N,/BOOT0*%
%TA.AperFunction,SMDPad,CuDef*%
G36*
G01*
X152416500Y-75816000D02*
X152891500Y-75816000D01*
G75*
G02*
X153129000Y-76053500I0J-237500D01*
G01*
X153129000Y-76628500D01*
G75*
G02*
X152891500Y-76866000I-237500J0D01*
G01*
X152416500Y-76866000D01*
G75*
G02*
X152179000Y-76628500I0J237500D01*
G01*
X152179000Y-76053500D01*
G75*
G02*
X152416500Y-75816000I237500J0D01*
G01*
G37*
%TD.AperFunction*%
%TD*%
%TO.P,R2,2*%
%TO.N,+3V3*%
%TA.AperFunction,SMDPad,CuDef*%
G36*
G01*
X110332000Y-58403500D02*
X110332000Y-57928500D01*
G75*
G02*
X110569500Y-57691000I237500J0D01*
G01*
X111144500Y-57691000D01*
G75*
G02*
X111382000Y-57928500I0J-237500D01*
G01*
X111382000Y-58403500D01*
G75*
G02*
X111144500Y-58641000I-237500J0D01*
G01*
X110569500Y-58641000D01*
G75*
G02*
X110332000Y-58403500I0J237500D01*
G01*
G37*
%TD.AperFunction*%
%TO.P,R2,1*%
%TO.N,Net-(LED2-Pad2)*%
%TA.AperFunction,SMDPad,CuDef*%
G36*
G01*
X108582000Y-58403500D02*
X108582000Y-57928500D01*
G75*
G02*
X108819500Y-57691000I237500J0D01*
G01*
X109394500Y-57691000D01*
G75*
G02*
X109632000Y-57928500I0J-237500D01*
G01*
X109632000Y-58403500D01*
G75*
G02*
X109394500Y-58641000I-237500J0D01*
G01*
X108819500Y-58641000D01*
G75*
G02*
X108582000Y-58403500I0J237500D01*
G01*
G37*
%TD.AperFunction*%
%TD*%
%TO.P,R1,2*%
%TO.N,+5V*%
%TA.AperFunction,SMDPad,CuDef*%
G36*
G01*
X110332000Y-54339500D02*
X110332000Y-53864500D01*
G75*
G02*
X110569500Y-53627000I237500J0D01*
G01*
X111144500Y-53627000D01*
G75*
G02*
X111382000Y-53864500I0J-237500D01*
G01*
X111382000Y-54339500D01*
G75*
G02*
X111144500Y-54577000I-237500J0D01*
G01*
X110569500Y-54577000D01*
G75*
G02*
X110332000Y-54339500I0J237500D01*
G01*
G37*
%TD.AperFunction*%
%TO.P,R1,1*%
%TO.N,Net-(LED1-Pad2)*%
%TA.AperFunction,SMDPad,CuDef*%
G36*
G01*
X108582000Y-54339500D02*
X108582000Y-53864500D01*
G75*
G02*
X108819500Y-53627000I237500J0D01*
G01*
X109394500Y-53627000D01*
G75*
G02*
X109632000Y-53864500I0J-237500D01*
G01*
X109632000Y-54339500D01*
G75*
G02*
X109394500Y-54577000I-237500J0D01*
G01*
X108819500Y-54577000D01*
G75*
G02*
X108582000Y-54339500I0J237500D01*
G01*
G37*
%TD.AperFunction*%
%TD*%
D18*
%TO.P,LED4,6*%
%TO.N,Net-(LED4-Pad4)*%
X164110000Y-125392000D03*
%TO.P,LED4,5*%
X164110000Y-126492000D03*
%TO.P,LED4,4*%
X164110000Y-127592000D03*
%TO.P,LED4,3*%
%TO.N,/RGB0_B*%
X161010000Y-127592000D03*
%TO.P,LED4,2*%
%TO.N,/RGB0_G*%
X161010000Y-126492000D03*
%TO.P,LED4,1*%
%TO.N,/RGB0_R*%
X161010000Y-125392000D03*
%TD*%
%TO.P,LED3,2*%
%TO.N,Net-(LED3-Pad2)*%
%TA.AperFunction,SMDPad,CuDef*%
G36*
G01*
X110332000Y-60435500D02*
X110332000Y-59960500D01*
G75*
G02*
X110569500Y-59723000I237500J0D01*
G01*
X111144500Y-59723000D01*
G75*
G02*
X111382000Y-59960500I0J-237500D01*
G01*
X111382000Y-60435500D01*
G75*
G02*
X111144500Y-60673000I-237500J0D01*
G01*
X110569500Y-60673000D01*
G75*
G02*
X110332000Y-60435500I0J237500D01*
G01*
G37*
%TD.AperFunction*%
%TO.P,LED3,1*%
%TO.N,GND*%
%TA.AperFunction,SMDPad,CuDef*%
G36*
G01*
X108582000Y-60435500D02*
X108582000Y-59960500D01*
G75*
G02*
X108819500Y-59723000I237500J0D01*
G01*
X109394500Y-59723000D01*
G75*
G02*
X109632000Y-59960500I0J-237500D01*
G01*
X109632000Y-60435500D01*
G75*
G02*
X109394500Y-60673000I-237500J0D01*
G01*
X108819500Y-60673000D01*
G75*
G02*
X108582000Y-60435500I0J237500D01*
G01*
G37*
%TD.AperFunction*%
%TD*%
%TO.P,LED2,2*%
%TO.N,Net-(LED2-Pad2)*%
%TA.AperFunction,SMDPad,CuDef*%
G36*
G01*
X110332000Y-56371500D02*
X110332000Y-55896500D01*
G75*
G02*
X110569500Y-55659000I237500J0D01*
G01*
X111144500Y-55659000D01*
G75*
G02*
X111382000Y-55896500I0J-237500D01*
G01*
X111382000Y-56371500D01*
G75*
G02*
X111144500Y-56609000I-237500J0D01*
G01*
X110569500Y-56609000D01*
G75*
G02*
X110332000Y-56371500I0J237500D01*
G01*
G37*
%TD.AperFunction*%
%TO.P,LED2,1*%
%TO.N,GND*%
%TA.AperFunction,SMDPad,CuDef*%
G36*
G01*
X108582000Y-56371500D02*
X108582000Y-55896500D01*
G75*
G02*
X108819500Y-55659000I237500J0D01*
G01*
X109394500Y-55659000D01*
G75*
G02*
X109632000Y-55896500I0J-237500D01*
G01*
X109632000Y-56371500D01*
G75*
G02*
X109394500Y-56609000I-237500J0D01*
G01*
X108819500Y-56609000D01*
G75*
G02*
X108582000Y-56371500I0J237500D01*
G01*
G37*
%TD.AperFunction*%
%TD*%
%TO.P,LED1,2*%
%TO.N,Net-(LED1-Pad2)*%
%TA.AperFunction,SMDPad,CuDef*%
G36*
G01*
X110332000Y-52307500D02*
X110332000Y-51832500D01*
G75*
G02*
X110569500Y-51595000I237500J0D01*
G01*
X111144500Y-51595000D01*
G75*
G02*
X111382000Y-51832500I0J-237500D01*
G01*
X111382000Y-52307500D01*
G75*
G02*
X111144500Y-52545000I-237500J0D01*
G01*
X110569500Y-52545000D01*
G75*
G02*
X110332000Y-52307500I0J237500D01*
G01*
G37*
%TD.AperFunction*%
%TO.P,LED1,1*%
%TO.N,GND*%
%TA.AperFunction,SMDPad,CuDef*%
G36*
G01*
X108582000Y-52307500D02*
X108582000Y-51832500D01*
G75*
G02*
X108819500Y-51595000I237500J0D01*
G01*
X109394500Y-51595000D01*
G75*
G02*
X109632000Y-51832500I0J-237500D01*
G01*
X109632000Y-52307500D01*
G75*
G02*
X109394500Y-52545000I-237500J0D01*
G01*
X108819500Y-52545000D01*
G75*
G02*
X108582000Y-52307500I0J237500D01*
G01*
G37*
%TD.AperFunction*%
%TD*%
D19*
%TO.P,D9,2*%
%TO.N,Net-(D9-Pad2)*%
X139500000Y-122380000D03*
D20*
%TO.P,D9,1*%
%TO.N,/QAZ Testboard Keys/COL02*%
X139500000Y-130000000D03*
%TD*%
D19*
%TO.P,D8,2*%
%TO.N,Net-(D8-Pad2)*%
X139500000Y-103380000D03*
D20*
%TO.P,D8,1*%
%TO.N,/QAZ Testboard Keys/COL02*%
X139500000Y-111000000D03*
%TD*%
D19*
%TO.P,D7,2*%
%TO.N,Net-(D7-Pad2)*%
X139500000Y-84380000D03*
D20*
%TO.P,D7,1*%
%TO.N,/QAZ Testboard Keys/COL02*%
X139500000Y-92000000D03*
%TD*%
D19*
%TO.P,D6,2*%
%TO.N,Net-(D6-Pad2)*%
X120500000Y-122380000D03*
D20*
%TO.P,D6,1*%
%TO.N,/QAZ Testboard Keys/COL01*%
X120500000Y-130000000D03*
%TD*%
D19*
%TO.P,D5,2*%
%TO.N,Net-(D5-Pad2)*%
X120500000Y-103380000D03*
D20*
%TO.P,D5,1*%
%TO.N,/QAZ Testboard Keys/COL01*%
X120500000Y-111000000D03*
%TD*%
D19*
%TO.P,D4,2*%
%TO.N,Net-(D4-Pad2)*%
X120500000Y-84380000D03*
D20*
%TO.P,D4,1*%
%TO.N,/QAZ Testboard Keys/COL01*%
X120500000Y-92000000D03*
%TD*%
D19*
%TO.P,D3,2*%
%TO.N,Net-(D3-Pad2)*%
X101600000Y-122380000D03*
D20*
%TO.P,D3,1*%
%TO.N,/QAZ Testboard Keys/COL00*%
X101600000Y-130000000D03*
%TD*%
D19*
%TO.P,D2,2*%
%TO.N,Net-(D2-Pad2)*%
X101500000Y-103380000D03*
D20*
%TO.P,D2,1*%
%TO.N,/QAZ Testboard Keys/COL00*%
X101500000Y-111000000D03*
%TD*%
D19*
%TO.P,D1,2*%
%TO.N,Net-(D1-Pad2)*%
X101500000Y-84380000D03*
D20*
%TO.P,D1,1*%
%TO.N,/QAZ Testboard Keys/COL00*%
X101500000Y-92000000D03*
%TD*%
D21*
%TO.P,CN3,4*%
%TO.N,GND*%
X165608000Y-54356000D03*
%TO.P,CN3,3*%
%TO.N,+3V3*%
X163068000Y-54356000D03*
%TO.P,CN3,2*%
%TO.N,/QAZ External Connections/DBG_TX*%
X165608000Y-51816000D03*
D22*
%TO.P,CN3,1*%
%TO.N,/QAZ External Connections/DBG_RX*%
X163068000Y-51816000D03*
%TD*%
D21*
%TO.P,CN2,6*%
%TO.N,GND*%
X149860000Y-54356000D03*
%TO.P,CN2,5*%
%TO.N,/QAZ External Connections/nRESET*%
X149860000Y-51816000D03*
%TO.P,CN2,4*%
%TO.N,/QAZ External Connections/SWDIO*%
X152400000Y-54356000D03*
%TO.P,CN2,3*%
%TO.N,Net-(CN2-Pad3)*%
X152400000Y-51816000D03*
%TO.P,CN2,2*%
%TO.N,/QAZ External Connections/SWCLK*%
X154940000Y-54356000D03*
D22*
%TO.P,CN2,1*%
%TO.N,+3V3*%
X154940000Y-51816000D03*
%TD*%
D23*
%TO.P,CN1,A5*%
%TO.N,Net-(CN1-PadA5)*%
X94689000Y-43408000D03*
%TO.P,CN1,A1*%
%TO.N,GND*%
X92989000Y-43408000D03*
%TO.P,CN1,A4*%
%TO.N,+5V*%
X93839000Y-43408000D03*
%TO.P,CN1,A6*%
%TO.N,/QAZ External Connections/USB_D+*%
X95539000Y-43408000D03*
%TO.P,CN1,A7*%
%TO.N,/QAZ External Connections/USB_D-*%
X96389000Y-43408000D03*
%TO.P,CN1,A8*%
%TO.N,Net-(CN1-PadA8)*%
X97239000Y-43408000D03*
%TO.P,CN1,A9*%
%TO.N,+5V*%
X98089000Y-43408000D03*
%TO.P,CN1,A12*%
%TO.N,GND*%
X98939000Y-43408000D03*
%TO.P,CN1,B12*%
X92989000Y-44733000D03*
%TO.P,CN1,B9*%
%TO.N,+5V*%
X93844000Y-44733000D03*
%TO.P,CN1,B8*%
%TO.N,Net-(CN1-PadB8)*%
X94694000Y-44733000D03*
%TO.P,CN1,B7*%
%TO.N,/QAZ External Connections/USB_D-*%
X95544000Y-44733000D03*
%TO.P,CN1,B6*%
%TO.N,/QAZ External Connections/USB_D+*%
X96394000Y-44733000D03*
%TO.P,CN1,B5*%
%TO.N,Net-(CN1-PadB5)*%
X97244000Y-44733000D03*
%TO.P,CN1,B4*%
%TO.N,+5V*%
X98094000Y-44733000D03*
%TO.P,CN1,B1*%
%TO.N,GND*%
X98944000Y-44733000D03*
D24*
%TO.P,CN1,S1*%
X91639000Y-44388000D03*
X100289000Y-44388000D03*
D25*
X91639000Y-47768000D03*
X100289000Y-47768000D03*
%TD*%
%TO.P,C13,1*%
%TO.N,GND*%
%TA.AperFunction,SMDPad,CuDef*%
G36*
G01*
X157242500Y-115045000D02*
X157717500Y-115045000D01*
G75*
G02*
X157955000Y-115282500I0J-237500D01*
G01*
X157955000Y-115857500D01*
G75*
G02*
X157717500Y-116095000I-237500J0D01*
G01*
X157242500Y-116095000D01*
G75*
G02*
X157005000Y-115857500I0J237500D01*
G01*
X157005000Y-115282500D01*
G75*
G02*
X157242500Y-115045000I237500J0D01*
G01*
G37*
%TD.AperFunction*%
%TO.P,C13,2*%
%TO.N,Net-(C13-Pad2)*%
%TA.AperFunction,SMDPad,CuDef*%
G36*
G01*
X157242500Y-116795000D02*
X157717500Y-116795000D01*
G75*
G02*
X157955000Y-117032500I0J-237500D01*
G01*
X157955000Y-117607500D01*
G75*
G02*
X157717500Y-117845000I-237500J0D01*
G01*
X157242500Y-117845000D01*
G75*
G02*
X157005000Y-117607500I0J237500D01*
G01*
X157005000Y-117032500D01*
G75*
G02*
X157242500Y-116795000I237500J0D01*
G01*
G37*
%TD.AperFunction*%
%TD*%
%TO.P,C12,2*%
%TO.N,Net-(C12-Pad2)*%
%TA.AperFunction,SMDPad,CuDef*%
G36*
G01*
X165258000Y-113554500D02*
X165258000Y-114029500D01*
G75*
G02*
X165020500Y-114267000I-237500J0D01*
G01*
X164445500Y-114267000D01*
G75*
G02*
X164208000Y-114029500I0J237500D01*
G01*
X164208000Y-113554500D01*
G75*
G02*
X164445500Y-113317000I237500J0D01*
G01*
X165020500Y-113317000D01*
G75*
G02*
X165258000Y-113554500I0J-237500D01*
G01*
G37*
%TD.AperFunction*%
%TO.P,C12,1*%
%TO.N,GND*%
%TA.AperFunction,SMDPad,CuDef*%
G36*
G01*
X167008000Y-113554500D02*
X167008000Y-114029500D01*
G75*
G02*
X166770500Y-114267000I-237500J0D01*
G01*
X166195500Y-114267000D01*
G75*
G02*
X165958000Y-114029500I0J237500D01*
G01*
X165958000Y-113554500D01*
G75*
G02*
X166195500Y-113317000I237500J0D01*
G01*
X166770500Y-113317000D01*
G75*
G02*
X167008000Y-113554500I0J-237500D01*
G01*
G37*
%TD.AperFunction*%
%TD*%
%TO.P,C10,2*%
%TO.N,Net-(C10-Pad2)*%
%TA.AperFunction,SMDPad,CuDef*%
G36*
G01*
X131334500Y-54198000D02*
X131809500Y-54198000D01*
G75*
G02*
X132047000Y-54435500I0J-237500D01*
G01*
X132047000Y-55010500D01*
G75*
G02*
X131809500Y-55248000I-237500J0D01*
G01*
X131334500Y-55248000D01*
G75*
G02*
X131097000Y-55010500I0J237500D01*
G01*
X131097000Y-54435500D01*
G75*
G02*
X131334500Y-54198000I237500J0D01*
G01*
G37*
%TD.AperFunction*%
%TO.P,C10,1*%
%TO.N,GND*%
%TA.AperFunction,SMDPad,CuDef*%
G36*
G01*
X131334500Y-52448000D02*
X131809500Y-52448000D01*
G75*
G02*
X132047000Y-52685500I0J-237500D01*
G01*
X132047000Y-53260500D01*
G75*
G02*
X131809500Y-53498000I-237500J0D01*
G01*
X131334500Y-53498000D01*
G75*
G02*
X131097000Y-53260500I0J237500D01*
G01*
X131097000Y-52685500D01*
G75*
G02*
X131334500Y-52448000I237500J0D01*
G01*
G37*
%TD.AperFunction*%
%TD*%
%TO.P,C9,1*%
%TO.N,GND*%
%TA.AperFunction,SMDPad,CuDef*%
G36*
G01*
X164829500Y-82172000D02*
X164354500Y-82172000D01*
G75*
G02*
X164117000Y-81934500I0J237500D01*
G01*
X164117000Y-81359500D01*
G75*
G02*
X164354500Y-81122000I237500J0D01*
G01*
X164829500Y-81122000D01*
G75*
G02*
X165067000Y-81359500I0J-237500D01*
G01*
X165067000Y-81934500D01*
G75*
G02*
X164829500Y-82172000I-237500J0D01*
G01*
G37*
%TD.AperFunction*%
%TO.P,C9,2*%
%TO.N,+3V3*%
%TA.AperFunction,SMDPad,CuDef*%
G36*
G01*
X164829500Y-80422000D02*
X164354500Y-80422000D01*
G75*
G02*
X164117000Y-80184500I0J237500D01*
G01*
X164117000Y-79609500D01*
G75*
G02*
X164354500Y-79372000I237500J0D01*
G01*
X164829500Y-79372000D01*
G75*
G02*
X165067000Y-79609500I0J-237500D01*
G01*
X165067000Y-80184500D01*
G75*
G02*
X164829500Y-80422000I-237500J0D01*
G01*
G37*
%TD.AperFunction*%
%TD*%
%TO.P,C8,2*%
%TO.N,GND*%
%TA.AperFunction,SMDPad,CuDef*%
G36*
G01*
X149589500Y-87534000D02*
X149114500Y-87534000D01*
G75*
G02*
X148877000Y-87296500I0J237500D01*
G01*
X148877000Y-86721500D01*
G75*
G02*
X149114500Y-86484000I237500J0D01*
G01*
X149589500Y-86484000D01*
G75*
G02*
X149827000Y-86721500I0J-237500D01*
G01*
X149827000Y-87296500D01*
G75*
G02*
X149589500Y-87534000I-237500J0D01*
G01*
G37*
%TD.AperFunction*%
%TO.P,C8,1*%
%TO.N,Net-(C8-Pad1)*%
%TA.AperFunction,SMDPad,CuDef*%
G36*
G01*
X149589500Y-89284000D02*
X149114500Y-89284000D01*
G75*
G02*
X148877000Y-89046500I0J237500D01*
G01*
X148877000Y-88471500D01*
G75*
G02*
X149114500Y-88234000I237500J0D01*
G01*
X149589500Y-88234000D01*
G75*
G02*
X149827000Y-88471500I0J-237500D01*
G01*
X149827000Y-89046500D01*
G75*
G02*
X149589500Y-89284000I-237500J0D01*
G01*
G37*
%TD.AperFunction*%
%TD*%
%TO.P,C7,2*%
%TO.N,GND*%
%TA.AperFunction,SMDPad,CuDef*%
G36*
G01*
X149114500Y-83154000D02*
X149589500Y-83154000D01*
G75*
G02*
X149827000Y-83391500I0J-237500D01*
G01*
X149827000Y-83966500D01*
G75*
G02*
X149589500Y-84204000I-237500J0D01*
G01*
X149114500Y-84204000D01*
G75*
G02*
X148877000Y-83966500I0J237500D01*
G01*
X148877000Y-83391500D01*
G75*
G02*
X149114500Y-83154000I237500J0D01*
G01*
G37*
%TD.AperFunction*%
%TO.P,C7,1*%
%TO.N,Net-(C7-Pad1)*%
%TA.AperFunction,SMDPad,CuDef*%
G36*
G01*
X149114500Y-81404000D02*
X149589500Y-81404000D01*
G75*
G02*
X149827000Y-81641500I0J-237500D01*
G01*
X149827000Y-82216500D01*
G75*
G02*
X149589500Y-82454000I-237500J0D01*
G01*
X149114500Y-82454000D01*
G75*
G02*
X148877000Y-82216500I0J237500D01*
G01*
X148877000Y-81641500D01*
G75*
G02*
X149114500Y-81404000I237500J0D01*
G01*
G37*
%TD.AperFunction*%
%TD*%
%TO.P,C6,2*%
%TO.N,+3V3*%
%TA.AperFunction,SMDPad,CuDef*%
G36*
G01*
X156114000Y-67834500D02*
X156114000Y-68309500D01*
G75*
G02*
X155876500Y-68547000I-237500J0D01*
G01*
X155301500Y-68547000D01*
G75*
G02*
X155064000Y-68309500I0J237500D01*
G01*
X155064000Y-67834500D01*
G75*
G02*
X155301500Y-67597000I237500J0D01*
G01*
X155876500Y-67597000D01*
G75*
G02*
X156114000Y-67834500I0J-237500D01*
G01*
G37*
%TD.AperFunction*%
%TO.P,C6,1*%
%TO.N,GND*%
%TA.AperFunction,SMDPad,CuDef*%
G36*
G01*
X157864000Y-67834500D02*
X157864000Y-68309500D01*
G75*
G02*
X157626500Y-68547000I-237500J0D01*
G01*
X157051500Y-68547000D01*
G75*
G02*
X156814000Y-68309500I0J237500D01*
G01*
X156814000Y-67834500D01*
G75*
G02*
X157051500Y-67597000I237500J0D01*
G01*
X157626500Y-67597000D01*
G75*
G02*
X157864000Y-67834500I0J-237500D01*
G01*
G37*
%TD.AperFunction*%
%TD*%
%TO.P,C5,2*%
%TO.N,+3V3*%
%TA.AperFunction,SMDPad,CuDef*%
G36*
G01*
X154702500Y-77566000D02*
X155177500Y-77566000D01*
G75*
G02*
X155415000Y-77803500I0J-237500D01*
G01*
X155415000Y-78378500D01*
G75*
G02*
X155177500Y-78616000I-237500J0D01*
G01*
X154702500Y-78616000D01*
G75*
G02*
X154465000Y-78378500I0J237500D01*
G01*
X154465000Y-77803500D01*
G75*
G02*
X154702500Y-77566000I237500J0D01*
G01*
G37*
%TD.AperFunction*%
%TO.P,C5,1*%
%TO.N,GND*%
%TA.AperFunction,SMDPad,CuDef*%
G36*
G01*
X154702500Y-75816000D02*
X155177500Y-75816000D01*
G75*
G02*
X155415000Y-76053500I0J-237500D01*
G01*
X155415000Y-76628500D01*
G75*
G02*
X155177500Y-76866000I-237500J0D01*
G01*
X154702500Y-76866000D01*
G75*
G02*
X154465000Y-76628500I0J237500D01*
G01*
X154465000Y-76053500D01*
G75*
G02*
X154702500Y-75816000I237500J0D01*
G01*
G37*
%TD.AperFunction*%
%TD*%
%TO.P,C4,2*%
%TO.N,+5V*%
%TA.AperFunction,SMDPad,CuDef*%
G36*
G01*
X124951500Y-48926000D02*
X124476500Y-48926000D01*
G75*
G02*
X124239000Y-48688500I0J237500D01*
G01*
X124239000Y-48113500D01*
G75*
G02*
X124476500Y-47876000I237500J0D01*
G01*
X124951500Y-47876000D01*
G75*
G02*
X125189000Y-48113500I0J-237500D01*
G01*
X125189000Y-48688500D01*
G75*
G02*
X124951500Y-48926000I-237500J0D01*
G01*
G37*
%TD.AperFunction*%
%TO.P,C4,1*%
%TO.N,GND*%
%TA.AperFunction,SMDPad,CuDef*%
G36*
G01*
X124951500Y-50676000D02*
X124476500Y-50676000D01*
G75*
G02*
X124239000Y-50438500I0J237500D01*
G01*
X124239000Y-49863500D01*
G75*
G02*
X124476500Y-49626000I237500J0D01*
G01*
X124951500Y-49626000D01*
G75*
G02*
X125189000Y-49863500I0J-237500D01*
G01*
X125189000Y-50438500D01*
G75*
G02*
X124951500Y-50676000I-237500J0D01*
G01*
G37*
%TD.AperFunction*%
%TD*%
%TO.P,C3,1*%
%TO.N,GND*%
%TA.AperFunction,SMDPad,CuDef*%
G36*
G01*
X168385500Y-70629000D02*
X167910500Y-70629000D01*
G75*
G02*
X167673000Y-70391500I0J237500D01*
G01*
X167673000Y-69816500D01*
G75*
G02*
X167910500Y-69579000I237500J0D01*
G01*
X168385500Y-69579000D01*
G75*
G02*
X168623000Y-69816500I0J-237500D01*
G01*
X168623000Y-70391500D01*
G75*
G02*
X168385500Y-70629000I-237500J0D01*
G01*
G37*
%TD.AperFunction*%
%TO.P,C3,2*%
%TO.N,+3V3*%
%TA.AperFunction,SMDPad,CuDef*%
G36*
G01*
X168385500Y-68879000D02*
X167910500Y-68879000D01*
G75*
G02*
X167673000Y-68641500I0J237500D01*
G01*
X167673000Y-68066500D01*
G75*
G02*
X167910500Y-67829000I237500J0D01*
G01*
X168385500Y-67829000D01*
G75*
G02*
X168623000Y-68066500I0J-237500D01*
G01*
X168623000Y-68641500D01*
G75*
G02*
X168385500Y-68879000I-237500J0D01*
G01*
G37*
%TD.AperFunction*%
%TD*%
%TO.P,C2,2*%
%TO.N,+5V*%
%TA.AperFunction,SMDPad,CuDef*%
G36*
G01*
X122878001Y-48953000D02*
X121977999Y-48953000D01*
G75*
G02*
X121728000Y-48703001I0J249999D01*
G01*
X121728000Y-48052999D01*
G75*
G02*
X121977999Y-47803000I249999J0D01*
G01*
X122878001Y-47803000D01*
G75*
G02*
X123128000Y-48052999I0J-249999D01*
G01*
X123128000Y-48703001D01*
G75*
G02*
X122878001Y-48953000I-249999J0D01*
G01*
G37*
%TD.AperFunction*%
%TO.P,C2,1*%
%TO.N,GND*%
%TA.AperFunction,SMDPad,CuDef*%
G36*
G01*
X122878001Y-51003000D02*
X121977999Y-51003000D01*
G75*
G02*
X121728000Y-50753001I0J249999D01*
G01*
X121728000Y-50102999D01*
G75*
G02*
X121977999Y-49853000I249999J0D01*
G01*
X122878001Y-49853000D01*
G75*
G02*
X123128000Y-50102999I0J-249999D01*
G01*
X123128000Y-50753001D01*
G75*
G02*
X122878001Y-51003000I-249999J0D01*
G01*
G37*
%TD.AperFunction*%
%TD*%
%TO.P,C1,2*%
%TO.N,Net-(C1-Pad2)*%
%TA.AperFunction,SMDPad,CuDef*%
G36*
G01*
X149589500Y-94646000D02*
X149114500Y-94646000D01*
G75*
G02*
X148877000Y-94408500I0J237500D01*
G01*
X148877000Y-93833500D01*
G75*
G02*
X149114500Y-93596000I237500J0D01*
G01*
X149589500Y-93596000D01*
G75*
G02*
X149827000Y-93833500I0J-237500D01*
G01*
X149827000Y-94408500D01*
G75*
G02*
X149589500Y-94646000I-237500J0D01*
G01*
G37*
%TD.AperFunction*%
%TO.P,C1,1*%
%TO.N,GND*%
%TA.AperFunction,SMDPad,CuDef*%
G36*
G01*
X149589500Y-96396000D02*
X149114500Y-96396000D01*
G75*
G02*
X148877000Y-96158500I0J237500D01*
G01*
X148877000Y-95583500D01*
G75*
G02*
X149114500Y-95346000I237500J0D01*
G01*
X149589500Y-95346000D01*
G75*
G02*
X149827000Y-95583500I0J-237500D01*
G01*
X149827000Y-96158500D01*
G75*
G02*
X149589500Y-96396000I-237500J0D01*
G01*
G37*
%TD.AperFunction*%
%TD*%
D26*
%TO.N,GND*%
X160528000Y-71120000D03*
X164084000Y-72644000D03*
X161036000Y-76200000D03*
X107950000Y-60198000D03*
X107950000Y-56134000D03*
X107950000Y-52070000D03*
X86360000Y-50292000D03*
X166624000Y-134620000D03*
X168148000Y-113792000D03*
X159258000Y-115570000D03*
X156972000Y-113284000D03*
X124714000Y-51562000D03*
X122428000Y-51816000D03*
D27*
X127000000Y-50292000D03*
D26*
X131572000Y-51308000D03*
X160444000Y-99484000D03*
X152484000Y-99484000D03*
X155702000Y-81534000D03*
X149352000Y-85344000D03*
X159004000Y-74676000D03*
X153162000Y-57404000D03*
X172212000Y-57150000D03*
X148731000Y-78091000D03*
%TO.N,/LED_SDA*%
X170688000Y-72136000D03*
X170688000Y-76708000D03*
%TO.N,/nRESET*%
X145796000Y-72390000D03*
X145796000Y-60452000D03*
%TO.N,/DBG_RX*%
X161251210Y-64008000D03*
X161251210Y-60667210D03*
%TO.N,/DBG_TX*%
X162560000Y-65024000D03*
X164592000Y-60960000D03*
%TO.N,/SWDIO*%
X147320000Y-67564000D03*
X147320000Y-60452000D03*
%TO.N,/SWCLK*%
X152908000Y-68580000D03*
X153416000Y-60452000D03*
%TD*%
D28*
%TO.N,Net-(C1-Pad2)*%
X156548000Y-93254000D02*
X152484000Y-93254000D01*
X150219000Y-93254000D02*
X149352000Y-94121000D01*
X152484000Y-93254000D02*
X150219000Y-93254000D01*
X156548000Y-93254000D02*
X160444000Y-93254000D01*
D29*
X162814000Y-90884000D02*
X160444000Y-93254000D01*
X162814000Y-85203000D02*
X162814000Y-90884000D01*
D30*
%TO.N,GND*%
X159294000Y-69497500D02*
X159294000Y-70648000D01*
X159294000Y-70648000D02*
X159766000Y-71120000D01*
X159766000Y-71120000D02*
X160528000Y-71120000D01*
X165706500Y-71410000D02*
X164556000Y-71410000D01*
X164556000Y-71410000D02*
X164084000Y-71882000D01*
X164084000Y-71882000D02*
X164084000Y-72644000D01*
X162270000Y-77822500D02*
X162270000Y-76672000D01*
X162270000Y-76672000D02*
X161798000Y-76200000D01*
X161798000Y-76200000D02*
X161036000Y-76200000D01*
D31*
X109107000Y-52070000D02*
X107950000Y-52070000D01*
X109107000Y-56134000D02*
X107950000Y-56134000D01*
X109107000Y-60198000D02*
X107950000Y-60198000D01*
X107950000Y-60198000D02*
X107950000Y-60198000D01*
X107950000Y-56134000D02*
X107950000Y-56134000D01*
X107950000Y-52070000D02*
X107950000Y-52070000D01*
D28*
X86360000Y-46228000D02*
X86360000Y-50292000D01*
X162560000Y-134620000D02*
X166624000Y-134620000D01*
X166624000Y-134620000D02*
X166624000Y-134620000D01*
X166483000Y-113792000D02*
X168148000Y-113792000D01*
X168148000Y-113792000D02*
X168148000Y-113792000D01*
X158637000Y-113284000D02*
X157480000Y-113284000D01*
X157480000Y-113284000D02*
X156972000Y-113284000D01*
X157480000Y-115570000D02*
X159258000Y-115570000D01*
X159258000Y-115570000D02*
X159258000Y-115570000D01*
X156972000Y-113284000D02*
X156972000Y-113284000D01*
X124714000Y-50151000D02*
X124714000Y-51562000D01*
X122428000Y-50428000D02*
X122428000Y-51816000D01*
X124714000Y-51562000D02*
X124714000Y-51562000D01*
X122428000Y-51816000D02*
X122428000Y-51816000D01*
X128016000Y-52748000D02*
X128016000Y-51816000D01*
X128016000Y-51816000D02*
X128016000Y-51308000D01*
X128016000Y-51308000D02*
X127762000Y-51054000D01*
D32*
X127762000Y-51054000D02*
X127000000Y-50292000D01*
X127000000Y-50292000D02*
X127000000Y-50292000D01*
D28*
X131572000Y-52973000D02*
X131572000Y-51308000D01*
X131572000Y-51308000D02*
X131572000Y-51308000D01*
D29*
X166842000Y-71410000D02*
X168148000Y-70104000D01*
X165706500Y-71410000D02*
X166842000Y-71410000D01*
D28*
X151235000Y-97754000D02*
X149352000Y-95871000D01*
X152484000Y-97754000D02*
X151235000Y-97754000D01*
X152484000Y-97754000D02*
X160444000Y-97754000D01*
X152484000Y-97754000D02*
X152484000Y-99484000D01*
X160444000Y-97754000D02*
X160444000Y-99484000D01*
X160444000Y-99484000D02*
X160444000Y-99484000D01*
X152484000Y-99484000D02*
X152484000Y-99484000D01*
D29*
X155373400Y-75907600D02*
X157381500Y-75907600D01*
X154940000Y-76341000D02*
X155373400Y-75907600D01*
X164589592Y-81901000D02*
X164592000Y-81901000D01*
X162294000Y-79605408D02*
X164589592Y-81901000D01*
X162294000Y-77822500D02*
X162294000Y-79605408D01*
D28*
X157113000Y-80264000D02*
X156972000Y-80264000D01*
X156972000Y-80264000D02*
X155702000Y-81534000D01*
X155702000Y-81534000D02*
X155702000Y-81534000D01*
X149352000Y-83679000D02*
X149352000Y-85344000D01*
X149352000Y-85344000D02*
X149352000Y-87009000D01*
X149352000Y-85344000D02*
X149352000Y-85344000D01*
D30*
X157381500Y-75910000D02*
X158532000Y-75910000D01*
X158532000Y-75910000D02*
X159004000Y-75438000D01*
X159004000Y-75438000D02*
X159004000Y-74676000D01*
X159004000Y-74676000D02*
X159004000Y-74676000D01*
X158607214Y-68072000D02*
X157339000Y-68072000D01*
X159294000Y-68758786D02*
X158607214Y-68072000D01*
X159294000Y-69497500D02*
X159294000Y-68758786D01*
D28*
X155081000Y-58166000D02*
X153924000Y-58166000D01*
X153924000Y-58166000D02*
X153162000Y-57404000D01*
X153162000Y-57404000D02*
X153162000Y-57404000D01*
X172212000Y-60198000D02*
X172212000Y-57150000D01*
X172212000Y-57150000D02*
X172212000Y-57150000D01*
X150368000Y-78091000D02*
X148731000Y-78091000D01*
X148731000Y-78091000D02*
X148731000Y-78091000D01*
D30*
X162960000Y-117964000D02*
X162560000Y-118364000D01*
X164210000Y-117964000D02*
X162960000Y-117964000D01*
X164210000Y-117564000D02*
X164210000Y-117964000D01*
D28*
%TO.N,+5V*%
X93844000Y-43413000D02*
X93839000Y-43408000D01*
X93844000Y-44733000D02*
X93844000Y-43413000D01*
X98089000Y-44728000D02*
X98094000Y-44733000D01*
X98089000Y-43408000D02*
X98089000Y-44728000D01*
X106934000Y-43688000D02*
X105918000Y-44704000D01*
X105918000Y-44704000D02*
X105664000Y-44704000D01*
D32*
X127023000Y-48378000D02*
X127141000Y-48260000D01*
D33*
X122428000Y-48378000D02*
X127023000Y-48378000D01*
X177292000Y-117715000D02*
X168515000Y-126492000D01*
X177292000Y-51308000D02*
X177292000Y-117715000D01*
X170180000Y-44196000D02*
X177292000Y-51308000D01*
X127141000Y-48260000D02*
X127141000Y-47103000D01*
X127141000Y-47103000D02*
X130048000Y-44196000D01*
X130048000Y-44196000D02*
X170180000Y-44196000D01*
D32*
X102362000Y-41656000D02*
X102616000Y-41656000D01*
D33*
X109220000Y-48260000D02*
X105664000Y-44704000D01*
X102616000Y-41656000D02*
X105664000Y-44704000D01*
X100076000Y-41656000D02*
X102362000Y-41656000D01*
D28*
X93839000Y-43408000D02*
X93839000Y-42948381D01*
X98089000Y-43408000D02*
X98089000Y-42717000D01*
D31*
X98089000Y-41701000D02*
X98044000Y-41656000D01*
X98089000Y-42717000D02*
X98089000Y-41701000D01*
D33*
X98044000Y-41656000D02*
X100076000Y-41656000D01*
X94488000Y-41656000D02*
X98044000Y-41656000D01*
D31*
X93839000Y-42305000D02*
X94488000Y-41656000D01*
X93839000Y-42440381D02*
X93839000Y-42305000D01*
D28*
X93839000Y-42948381D02*
X93839000Y-42440381D01*
X110857000Y-54102000D02*
X111760000Y-54102000D01*
X112522000Y-53340000D02*
X112522000Y-48260000D01*
D33*
X123077000Y-48260000D02*
X112522000Y-48260000D01*
D28*
X111760000Y-54102000D02*
X112522000Y-53340000D01*
D33*
X112522000Y-48260000D02*
X109220000Y-48260000D01*
D29*
%TO.N,+3V3*%
X158810000Y-69493500D02*
X158810000Y-71160000D01*
D33*
X174244000Y-103999000D02*
X166483000Y-111760000D01*
D28*
X138543000Y-56755000D02*
X138684000Y-56896000D01*
X135636000Y-56755000D02*
X138543000Y-56755000D01*
X135636000Y-56755000D02*
X114441000Y-56755000D01*
X113030000Y-58166000D02*
X110857000Y-58166000D01*
X114441000Y-56755000D02*
X113030000Y-58166000D01*
D33*
X135636000Y-56755000D02*
X135636000Y-57912000D01*
X135636000Y-57912000D02*
X139700000Y-61976000D01*
X163068000Y-61976000D02*
X166116000Y-65024000D01*
D28*
X163068000Y-61976000D02*
X163068000Y-54356000D01*
X154940000Y-51816000D02*
X155448000Y-51816000D01*
X168148000Y-68354000D02*
X166398000Y-68354000D01*
D33*
X166116000Y-65024000D02*
X166116000Y-68072000D01*
D28*
X166398000Y-68354000D02*
X166116000Y-68072000D01*
D33*
X166116000Y-68072000D02*
X166116000Y-70104000D01*
X174244000Y-74309000D02*
X174103000Y-74168000D01*
X174244000Y-103999000D02*
X174244000Y-74309000D01*
X166116000Y-65024000D02*
X170180000Y-65024000D01*
X174103000Y-68947000D02*
X174103000Y-74168000D01*
X170180000Y-65024000D02*
X174103000Y-68947000D01*
D28*
X154940000Y-78091000D02*
X156605000Y-78091000D01*
X157381500Y-77314500D02*
X157381500Y-76466410D01*
X156605000Y-78091000D02*
X157381500Y-77314500D01*
D29*
X164347866Y-80151000D02*
X164592000Y-80151000D01*
X162794000Y-78597134D02*
X164347866Y-80151000D01*
X162794000Y-77822500D02*
X162794000Y-78597134D01*
X165706500Y-70910000D02*
X164040000Y-70910000D01*
X158794000Y-80195000D02*
X158863000Y-80264000D01*
X158794000Y-77822500D02*
X158794000Y-80195000D01*
D28*
X157014500Y-69497500D02*
X155589000Y-68072000D01*
X158735190Y-69497500D02*
X157014500Y-69497500D01*
X150735000Y-58166000D02*
X151892000Y-58166000D01*
X152146000Y-58420000D02*
X152146000Y-61976000D01*
X151892000Y-58166000D02*
X152146000Y-58420000D01*
D33*
X139700000Y-61976000D02*
X152654000Y-61976000D01*
X152654000Y-61976000D02*
X157988000Y-61976000D01*
D28*
X158496000Y-52832000D02*
X158496000Y-61976000D01*
D33*
X157988000Y-61976000D02*
X158496000Y-61976000D01*
D28*
X157480000Y-51816000D02*
X158496000Y-52832000D01*
X154940000Y-51816000D02*
X157480000Y-51816000D01*
D33*
X158496000Y-61976000D02*
X163068000Y-61976000D01*
D28*
X152654000Y-78091000D02*
X154940000Y-78091000D01*
D29*
X158794000Y-77822500D02*
X158794000Y-76410000D01*
X157393500Y-76390000D02*
X158814000Y-76390000D01*
X158794000Y-76410000D02*
X158814000Y-76390000D01*
X158814000Y-76390000D02*
X159060000Y-76390000D01*
X162794000Y-77822500D02*
X162794000Y-75712000D01*
D34*
X165706500Y-70513500D02*
X166116000Y-70104000D01*
X165706500Y-70910000D02*
X165706500Y-70513500D01*
D28*
%TO.N,Net-(C7-Pad1)*%
X154234000Y-84328000D02*
X152400000Y-82494000D01*
X154234000Y-84328000D02*
X156097000Y-84328000D01*
X151835000Y-81929000D02*
X152400000Y-82494000D01*
X149352000Y-81929000D02*
X151835000Y-81929000D01*
%TO.N,Net-(C8-Pad1)*%
X154034000Y-86360000D02*
X152400000Y-87994000D01*
X154034000Y-86360000D02*
X156097000Y-86360000D01*
X151635000Y-88759000D02*
X152400000Y-87994000D01*
X149352000Y-88759000D02*
X151635000Y-88759000D01*
D33*
%TO.N,Net-(C10-Pad2)*%
X135354000Y-54723000D02*
X135636000Y-55005000D01*
X131572000Y-54723000D02*
X135354000Y-54723000D01*
D28*
X135636000Y-52324000D02*
X135636000Y-55005000D01*
D33*
X131347000Y-54948000D02*
X131572000Y-54723000D01*
X128966000Y-54948000D02*
X131347000Y-54948000D01*
D28*
%TO.N,Net-(C13-Pad2)*%
X157609600Y-117449600D02*
X157480000Y-117320000D01*
X161227800Y-117449600D02*
X157609600Y-117449600D01*
D29*
%TO.N,/QAZ External Connections/USB_D+*%
X96394000Y-45340462D02*
X96394000Y-45720000D01*
X96394000Y-44733000D02*
X96394000Y-45340462D01*
X119521000Y-66802000D02*
X120396000Y-65927000D01*
X120396000Y-65927000D02*
X120396000Y-64008000D01*
D28*
X96394000Y-62358000D02*
X98044000Y-64008000D01*
X96394000Y-45720000D02*
X96394000Y-62358000D01*
X117602000Y-64008000D02*
X118110000Y-63500000D01*
X119888000Y-63500000D02*
X120396000Y-64008000D01*
X98044000Y-64008000D02*
X117602000Y-64008000D01*
X118110000Y-63500000D02*
X119888000Y-63500000D01*
D35*
%TO.N,/QAZ External Connections/USB_D-*%
X96389000Y-43520002D02*
X96389000Y-43408000D01*
X95544000Y-44365002D02*
X96389000Y-43520002D01*
X95544000Y-44733000D02*
X95544000Y-44365002D01*
D28*
X95544000Y-45720000D02*
X95504000Y-45720000D01*
D29*
X95544000Y-44733000D02*
X95544000Y-45720000D01*
D28*
X119368590Y-64922410D02*
X119521000Y-64770000D01*
X117094000Y-64770000D02*
X119521000Y-64770000D01*
X97790000Y-64770000D02*
X117094000Y-64770000D01*
X95544000Y-45720000D02*
X95544000Y-62524000D01*
X95544000Y-62524000D02*
X97790000Y-64770000D01*
%TO.N,/QAZ External Connections/nRESET*%
X149747000Y-51703000D02*
X149860000Y-51816000D01*
X146812000Y-51703000D02*
X149747000Y-51703000D01*
%TO.N,/QAZ External Connections/SWDIO*%
X150735000Y-59916000D02*
X148985000Y-58166000D01*
X150735000Y-59944000D02*
X150735000Y-59916000D01*
X148985000Y-58166000D02*
X148985000Y-57263000D01*
X148985000Y-57263000D02*
X149352000Y-56896000D01*
X149352000Y-56896000D02*
X151384000Y-56896000D01*
X151384000Y-56896000D02*
X152400000Y-55880000D01*
X152400000Y-55880000D02*
X152400000Y-54356000D01*
%TO.N,/QAZ External Connections/SWCLK*%
X156831000Y-59944000D02*
X156831000Y-58166000D01*
X156831000Y-56247000D02*
X154940000Y-54356000D01*
X156831000Y-58166000D02*
X156831000Y-56247000D01*
D29*
%TO.N,/QAZ External Connections/DBG_TX*%
X165975000Y-51449000D02*
X165608000Y-51816000D01*
D28*
X168656000Y-51449000D02*
X165975000Y-51449000D01*
D29*
%TO.N,/QAZ External Connections/DBG_RX*%
X162701000Y-51449000D02*
X163068000Y-51816000D01*
D28*
X160020000Y-51449000D02*
X162701000Y-51449000D01*
%TO.N,Net-(D1-Pad2)*%
X95540000Y-84328000D02*
X101448000Y-84328000D01*
%TO.N,/QAZ Testboard Keys/COL00*%
X101500000Y-117706000D02*
X103886000Y-120092000D01*
X101500000Y-111000000D02*
X101500000Y-117706000D01*
X103886000Y-127614000D02*
X101500000Y-130000000D01*
X103886000Y-120092000D02*
X103886000Y-127614000D01*
X101500000Y-92000000D02*
X101500000Y-98706000D01*
X101500000Y-98706000D02*
X103886000Y-101092000D01*
X103886000Y-108614000D02*
X101500000Y-111000000D01*
X103886000Y-101092000D02*
X103886000Y-108614000D01*
X135252000Y-68834000D02*
X135777000Y-68834000D01*
X101802000Y-92000000D02*
X104140000Y-89662000D01*
X114808000Y-68834000D02*
X135252000Y-68834000D01*
X101500000Y-92000000D02*
X101802000Y-92000000D01*
X104140000Y-79502000D02*
X114808000Y-68834000D01*
X104140000Y-89662000D02*
X104140000Y-79502000D01*
D31*
%TO.N,Net-(D2-Pad2)*%
X101460000Y-103420000D02*
X101500000Y-103380000D01*
X95540000Y-103420000D02*
X101460000Y-103420000D01*
%TO.N,Net-(D3-Pad2)*%
X95540000Y-122420000D02*
X101560000Y-122420000D01*
D28*
%TO.N,Net-(D4-Pad2)*%
X114540000Y-84328000D02*
X120448000Y-84328000D01*
%TO.N,/QAZ Testboard Keys/COL01*%
X120500000Y-117706000D02*
X122886000Y-120092000D01*
X120500000Y-111000000D02*
X120500000Y-117706000D01*
X122886000Y-127614000D02*
X120500000Y-130000000D01*
X122886000Y-120092000D02*
X122886000Y-127614000D01*
X120500000Y-98706000D02*
X122886000Y-101092000D01*
X120500000Y-92000000D02*
X120500000Y-98706000D01*
X122886000Y-108614000D02*
X120500000Y-111000000D01*
X122886000Y-101092000D02*
X122886000Y-108614000D01*
X122936000Y-89408000D02*
X122936000Y-79502000D01*
X131572000Y-70866000D02*
X135777000Y-70866000D01*
X122936000Y-79502000D02*
X131572000Y-70866000D01*
X120500000Y-92000000D02*
X120500000Y-91844000D01*
X120500000Y-91844000D02*
X122936000Y-89408000D01*
%TO.N,Net-(D5-Pad2)*%
X114540000Y-103420000D02*
X120460000Y-103420000D01*
%TO.N,Net-(D6-Pad2)*%
X114540000Y-122420000D02*
X120460000Y-122420000D01*
%TO.N,Net-(D7-Pad2)*%
X133540000Y-84328000D02*
X139448000Y-84328000D01*
%TO.N,/QAZ Testboard Keys/COL02*%
X139500000Y-117706000D02*
X141886000Y-120092000D01*
X139500000Y-111000000D02*
X139500000Y-117706000D01*
X141886000Y-127614000D02*
X139500000Y-130000000D01*
X141886000Y-120092000D02*
X141886000Y-127614000D01*
X139500000Y-98706000D02*
X141886000Y-101092000D01*
X139500000Y-92000000D02*
X139500000Y-98706000D01*
X141886000Y-108614000D02*
X139500000Y-111000000D01*
X141886000Y-101092000D02*
X141886000Y-108614000D01*
X139500000Y-92000000D02*
X139500000Y-90624000D01*
X139500000Y-90624000D02*
X139754000Y-90624000D01*
X139754000Y-90624000D02*
X142748000Y-87630000D01*
X142748000Y-87630000D02*
X142748000Y-82042000D01*
X141732000Y-81026000D02*
X141732000Y-76821000D01*
X142748000Y-82042000D02*
X141732000Y-81026000D01*
%TO.N,Net-(D8-Pad2)*%
X133540000Y-103420000D02*
X139460000Y-103420000D01*
D31*
%TO.N,Net-(D9-Pad2)*%
X133540000Y-122420000D02*
X139460000Y-122420000D01*
D28*
%TO.N,Net-(LED1-Pad2)*%
X109107000Y-53820000D02*
X110857000Y-52070000D01*
X109107000Y-54102000D02*
X109107000Y-53820000D01*
%TO.N,Net-(LED2-Pad2)*%
X109107000Y-57884000D02*
X110857000Y-56134000D01*
X109107000Y-58166000D02*
X109107000Y-57884000D01*
%TO.N,Net-(LED3-Pad2)*%
X109107000Y-61948000D02*
X110857000Y-60198000D01*
X109107000Y-62230000D02*
X109107000Y-61948000D01*
D33*
%TO.N,Net-(LED4-Pad4)*%
X164110000Y-125392000D02*
X164110000Y-127592000D01*
X166765000Y-126492000D02*
X164110000Y-126492000D01*
D34*
%TO.N,/RGB0_B*%
X160910000Y-118764000D02*
X160128000Y-118764000D01*
X160128000Y-118764000D02*
X159512000Y-119380000D01*
D28*
X159512000Y-119380000D02*
X159512000Y-119634000D01*
X159512000Y-119634000D02*
X162814000Y-122936000D01*
D29*
X162814000Y-122936000D02*
X162814000Y-127000000D01*
X162222000Y-127592000D02*
X161010000Y-127592000D01*
X162814000Y-127000000D02*
X162222000Y-127592000D01*
D28*
X158920000Y-127592000D02*
X157988000Y-128524000D01*
X161010000Y-127592000D02*
X158920000Y-127592000D01*
%TO.N,/RGB0_G*%
X158623000Y-119126000D02*
X158623000Y-119888000D01*
X158623000Y-119888000D02*
X161290000Y-122555000D01*
D29*
X161544000Y-126492000D02*
X161010000Y-126492000D01*
D34*
X159385000Y-118364000D02*
X158623000Y-119126000D01*
X160910000Y-118364000D02*
X159385000Y-118364000D01*
D28*
X161290000Y-122555000D02*
X162052000Y-123317000D01*
D29*
X162179000Y-123444000D02*
X162052000Y-123317000D01*
X162179000Y-126111000D02*
X162179000Y-123444000D01*
X161010000Y-126492000D02*
X161798000Y-126492000D01*
X161798000Y-126492000D02*
X162179000Y-126111000D01*
D28*
X161010000Y-126492000D02*
X157988000Y-126492000D01*
D34*
%TO.N,/RGB0_R*%
X160903610Y-117957610D02*
X160910000Y-117964000D01*
X158902390Y-117957610D02*
X160903610Y-117957610D01*
D28*
X161010000Y-123672000D02*
X161010000Y-125392000D01*
X161010000Y-123672000D02*
X161010000Y-123418000D01*
X161010000Y-123418000D02*
X157734000Y-120142000D01*
D34*
X158902390Y-117957610D02*
X157734000Y-119126000D01*
D28*
X157734000Y-120142000D02*
X157734000Y-119126000D01*
X158920000Y-125392000D02*
X157988000Y-124460000D01*
X161010000Y-125392000D02*
X158920000Y-125392000D01*
%TO.N,/BOOT0*%
X150368000Y-76341000D02*
X152654000Y-76341000D01*
D29*
X154585000Y-74410000D02*
X152654000Y-76341000D01*
X157381500Y-74410000D02*
X154585000Y-74410000D01*
X152654000Y-76341000D02*
X152654000Y-74676000D01*
%TO.N,/HB_LED*%
X126746000Y-62230000D02*
X110857000Y-62230000D01*
X127508000Y-62992000D02*
X126746000Y-62230000D01*
X163794000Y-68362000D02*
X164592000Y-67564000D01*
X164592000Y-67564000D02*
X164592000Y-65532000D01*
X163794000Y-69497500D02*
X163794000Y-68362000D01*
X162052000Y-62992000D02*
X127508000Y-62992000D01*
X164592000Y-65532000D02*
X162052000Y-62992000D01*
D28*
%TO.N,Net-(R6-Pad2)*%
X160387000Y-113284000D02*
X160387000Y-114159000D01*
D34*
X161760000Y-116714000D02*
X161760000Y-115868390D01*
X161760000Y-115608000D02*
X161544000Y-115392000D01*
X161760000Y-115868390D02*
X161760000Y-115608000D01*
D28*
X160387000Y-114159000D02*
X161544000Y-115316000D01*
D29*
%TO.N,/LED_SCL*%
X165775000Y-72390000D02*
X167894000Y-72390000D01*
X165706500Y-72410000D02*
X165755000Y-72410000D01*
X167894000Y-72390000D02*
X168275000Y-72771000D01*
X165755000Y-72410000D02*
X165775000Y-72390000D01*
D28*
X168275000Y-72771000D02*
X172212000Y-76708000D01*
X172212000Y-76708000D02*
X172212000Y-99060000D01*
X172212000Y-99060000D02*
X172212000Y-100584000D01*
X166483000Y-106313000D02*
X164592000Y-106313000D01*
X172212000Y-100584000D02*
X169418000Y-103378000D01*
X168148000Y-102108000D02*
X169418000Y-103378000D01*
X169418000Y-103378000D02*
X166483000Y-106313000D01*
D29*
%TO.N,/LED_SDA*%
X165706500Y-71910000D02*
X167358000Y-71910000D01*
X167358000Y-71910000D02*
X167993000Y-71910000D01*
D28*
X172353000Y-74168000D02*
X171196000Y-74168000D01*
X168859191Y-71831191D02*
X167993000Y-71831191D01*
X171196000Y-74168000D02*
X170180000Y-73152000D01*
X170688000Y-72136000D02*
X169926000Y-72898000D01*
X170180000Y-73152000D02*
X169926000Y-72898000D01*
X169926000Y-72898000D02*
X168859191Y-71831191D01*
X162560000Y-104140000D02*
X162560000Y-106313000D01*
X163576000Y-103124000D02*
X162560000Y-104140000D01*
X163576000Y-103124000D02*
X163576000Y-102108000D01*
X163576000Y-103124000D02*
X164592000Y-103124000D01*
X164592000Y-103124000D02*
X170688000Y-97028000D01*
X170688000Y-76708000D02*
X170688000Y-93472000D01*
X170688000Y-97028000D02*
X170688000Y-93472000D01*
D29*
%TO.N,/ROW00*%
X151681870Y-69850000D02*
X154241870Y-72410000D01*
X154666000Y-72410000D02*
X157571630Y-72410000D01*
X154432000Y-72410000D02*
X154666000Y-72410000D01*
X154241870Y-72410000D02*
X154666000Y-72410000D01*
X137668000Y-72898000D02*
X140716000Y-69850000D01*
X137527000Y-72898000D02*
X137668000Y-72898000D01*
X140716000Y-69850000D02*
X151681870Y-69850000D01*
D28*
%TO.N,/QAZ Testboard Keys/ROW00*%
X127190000Y-86868000D02*
X127190000Y-77280000D01*
X131572000Y-72898000D02*
X135777000Y-72898000D01*
X127190000Y-77280000D02*
X131572000Y-72898000D01*
D29*
%TO.N,/ROW01*%
X141732000Y-70358000D02*
X139700000Y-72390000D01*
X151543278Y-70358000D02*
X141732000Y-70358000D01*
X139700000Y-72390000D02*
X139700000Y-75071000D01*
X157381500Y-72910000D02*
X154095278Y-72910000D01*
X154095278Y-72910000D02*
X151543278Y-70358000D01*
D28*
%TO.N,/QAZ Testboard Keys/ROW01*%
X139700000Y-80772000D02*
X139700000Y-76821000D01*
X141732000Y-82804000D02*
X139700000Y-80772000D01*
X127190000Y-105960000D02*
X127190000Y-101156000D01*
X141732000Y-86614000D02*
X141732000Y-82804000D01*
X127190000Y-101156000D02*
X141732000Y-86614000D01*
D29*
%TO.N,/ROW02*%
X143764000Y-75071000D02*
X143764000Y-74930000D01*
X153802094Y-73910000D02*
X157381500Y-73910000D01*
X144526000Y-71374000D02*
X151266094Y-71374000D01*
X151266094Y-71374000D02*
X153802094Y-73910000D01*
X143764000Y-72136000D02*
X144526000Y-71374000D01*
X143764000Y-75071000D02*
X143764000Y-72136000D01*
D28*
%TO.N,/QAZ Testboard Keys/ROW02*%
X144018000Y-77075000D02*
X143764000Y-76821000D01*
X144018000Y-131572000D02*
X144018000Y-77075000D01*
X127190000Y-125920000D02*
X127762000Y-126492000D01*
X141732000Y-133858000D02*
X144018000Y-131572000D01*
X127762000Y-126492000D02*
X127762000Y-130302000D01*
X127190000Y-124960000D02*
X127190000Y-125920000D01*
X127762000Y-130302000D02*
X131318000Y-133858000D01*
X131318000Y-133858000D02*
X141732000Y-133858000D01*
D30*
%TO.N,/nRESET*%
X161771010Y-78004990D02*
X161771010Y-78967010D01*
X161794000Y-77822500D02*
X161794000Y-77982000D01*
X161794000Y-77982000D02*
X161771010Y-78004990D01*
D29*
X162814000Y-81280000D02*
X162814000Y-83453000D01*
X161771010Y-78967010D02*
X161771010Y-80237010D01*
X161771010Y-80237010D02*
X162814000Y-81280000D01*
X162814000Y-83453000D02*
X162673000Y-83453000D01*
D28*
X162673000Y-83453000D02*
X161036000Y-85090000D01*
X161036000Y-85090000D02*
X161036000Y-87122000D01*
X161036000Y-87122000D02*
X157226000Y-90932000D01*
X157226000Y-90932000D02*
X148336000Y-90932000D01*
X145796000Y-88392000D02*
X146558000Y-89154000D01*
X148336000Y-90932000D02*
X146558000Y-89154000D01*
X146558000Y-89154000D02*
X146050000Y-88646000D01*
X145796000Y-54469000D02*
X146812000Y-53453000D01*
X143764000Y-56896000D02*
X145542000Y-56896000D01*
X145796000Y-60452000D02*
X145796000Y-57150000D01*
X145796000Y-57150000D02*
X145796000Y-54469000D01*
X145796000Y-88392000D02*
X145796000Y-72390000D01*
%TO.N,Net-(SB2-Pad2)*%
X127327799Y-53732001D02*
X128704201Y-53732001D01*
X127066000Y-53470202D02*
X127327799Y-53732001D01*
X128966000Y-53470202D02*
X128966000Y-52748000D01*
X128704201Y-53732001D02*
X128966000Y-53470202D01*
X127066000Y-52748000D02*
X127066000Y-53470202D01*
D32*
X128966000Y-48335000D02*
X128891000Y-48260000D01*
X128966000Y-52748000D02*
X128966000Y-48335000D01*
D28*
%TO.N,/OSC_IN*%
X157847000Y-84328000D02*
X158496000Y-84328000D01*
D30*
X160794000Y-79490000D02*
X160794000Y-77822500D01*
D28*
X158496000Y-84328000D02*
X159258000Y-84328000D01*
X159258000Y-84328000D02*
X160782000Y-82804000D01*
X160782000Y-82804000D02*
X160782000Y-81280000D01*
D29*
X160794000Y-81268000D02*
X160782000Y-81280000D01*
X160794000Y-79490000D02*
X160794000Y-81268000D01*
D28*
%TO.N,/OSC_OUT*%
X157847000Y-86360000D02*
X158496000Y-86360000D01*
D30*
X161294000Y-77822500D02*
X161294000Y-79506000D01*
D28*
X158496000Y-86360000D02*
X161442410Y-83413590D01*
X161442410Y-83413590D02*
X161442410Y-83077550D01*
X161442410Y-83077550D02*
X161442410Y-81280000D01*
D29*
X161442410Y-81150134D02*
X161442410Y-81280000D01*
X161294000Y-81001724D02*
X161442410Y-81150134D01*
X161294000Y-79506000D02*
X161294000Y-81001724D01*
%TO.N,/DBG_RX*%
X161251210Y-69303210D02*
X161251210Y-65239210D01*
X161294000Y-69497500D02*
X161294000Y-69346000D01*
X161294000Y-69346000D02*
X161251210Y-69303210D01*
X161251210Y-65239210D02*
X161251210Y-65239210D01*
D28*
X161251210Y-60667210D02*
X161251210Y-57111210D01*
X160020000Y-55880000D02*
X160020000Y-53199000D01*
X161251210Y-57111210D02*
X160020000Y-55880000D01*
D29*
X161251210Y-65239210D02*
X161251210Y-64008000D01*
D28*
%TO.N,/DBG_TX*%
X164592000Y-60960000D02*
X168656000Y-56896000D01*
X168656000Y-56896000D02*
X168656000Y-53199000D01*
D29*
X162560000Y-65524000D02*
X162560000Y-65024000D01*
X161794000Y-66290000D02*
X162560000Y-65524000D01*
X161794000Y-69497500D02*
X161794000Y-66290000D01*
D28*
%TO.N,/USB_D+*%
X121271000Y-66548000D02*
X122834410Y-66548000D01*
X122834410Y-66548000D02*
X123444000Y-65938410D01*
X129286000Y-65938410D02*
X157714450Y-65938410D01*
X124968000Y-66040000D02*
X125069590Y-65938410D01*
X124968000Y-67564000D02*
X124968000Y-66040000D01*
X123444000Y-65938410D02*
X125069590Y-65938410D01*
X125069590Y-65938410D02*
X129286000Y-65938410D01*
X157714450Y-65938410D02*
X159156410Y-65938410D01*
D30*
X160274000Y-69477500D02*
X160294000Y-69497500D01*
X160274000Y-67056000D02*
X160274000Y-69477500D01*
D36*
X159156410Y-65938410D02*
X160274000Y-67056000D01*
D28*
%TO.N,/USB_D-*%
X121271000Y-64770000D02*
X122936000Y-64770000D01*
X122936000Y-64770000D02*
X123444000Y-65278000D01*
X129286000Y-65278000D02*
X157988000Y-65278000D01*
D29*
X160794000Y-69100000D02*
X160794000Y-69497500D01*
X160782000Y-69088000D02*
X160794000Y-69100000D01*
D28*
X124968000Y-63754000D02*
X124968000Y-65278000D01*
X123444000Y-65278000D02*
X124968000Y-65278000D01*
X124968000Y-65278000D02*
X129286000Y-65278000D01*
X159810961Y-65278001D02*
X160655000Y-66122040D01*
X157988000Y-65278000D02*
X159810961Y-65278001D01*
D29*
X160794000Y-66261040D02*
X160655000Y-66122040D01*
X160794000Y-69497500D02*
X160794000Y-66261040D01*
%TO.N,/SWDIO*%
X159794000Y-69497500D02*
X159794000Y-67846000D01*
X159794000Y-67846000D02*
X158750000Y-66802000D01*
D28*
X158750000Y-66802000D02*
X157988000Y-66802000D01*
X157988000Y-66802000D02*
X149606000Y-66802000D01*
X149606000Y-66802000D02*
X148590000Y-66802000D01*
X148590000Y-66802000D02*
X147828000Y-67564000D01*
X147828000Y-67564000D02*
X147828000Y-67564000D01*
X148477000Y-60452000D02*
X148985000Y-59944000D01*
X147320000Y-60452000D02*
X148477000Y-60452000D01*
D29*
%TO.N,/SWCLK*%
X157381500Y-70910000D02*
X155238000Y-70910000D01*
D28*
X152908000Y-68580000D02*
X152908000Y-68580000D01*
X154573000Y-60452000D02*
X155081000Y-59944000D01*
X153416000Y-60452000D02*
X154573000Y-60452000D01*
D29*
X154940000Y-70612000D02*
X152908000Y-68580000D01*
X155238000Y-70910000D02*
X154940000Y-70612000D01*
D34*
%TO.N,Net-(SB14-Pad2)*%
X162160000Y-116714000D02*
X162160000Y-113900000D01*
X161899590Y-113639590D02*
X161899590Y-113284000D01*
X162160000Y-113900000D02*
X161899590Y-113639590D01*
D28*
X161899590Y-109434590D02*
X160528000Y-108063000D01*
X161899590Y-113284000D02*
X161899590Y-109434590D01*
D29*
%TO.N,/LED_EN*%
X165874000Y-72910000D02*
X165919190Y-72955190D01*
X165919190Y-72955190D02*
X167443190Y-72955190D01*
X165706500Y-72910000D02*
X165874000Y-72910000D01*
D36*
X159004000Y-102108000D02*
X160528000Y-102108000D01*
X160528000Y-102108000D02*
X160528000Y-106313000D01*
X168656000Y-74168000D02*
X167443190Y-72955190D01*
X168656000Y-93472000D02*
X168656000Y-74168000D01*
X160528000Y-102108000D02*
X160528000Y-101600000D01*
X160528000Y-101600000D02*
X168656000Y-93472000D01*
D34*
%TO.N,Net-(SB15-Pad2)*%
X162960000Y-116440000D02*
X162954801Y-116434801D01*
X163220410Y-113342024D02*
X163220410Y-113284000D01*
X162960000Y-116714000D02*
X162960000Y-116440000D01*
X162954801Y-116434801D02*
X162954801Y-113905199D01*
X163220410Y-113639590D02*
X163220410Y-113284000D01*
X162954801Y-113905199D02*
X163220410Y-113639590D01*
D28*
X163220410Y-109434590D02*
X164592000Y-108063000D01*
X163220410Y-113284000D02*
X163220410Y-109434590D01*
D34*
%TO.N,Net-(SB16-Pad2)*%
X162560000Y-116714000D02*
X162560000Y-113284000D01*
D28*
X162560000Y-113225976D02*
X162560000Y-108063000D01*
X162560000Y-113284000D02*
X162560000Y-113225976D01*
D29*
%TO.N,/COL00*%
X137527000Y-68834000D02*
X150368000Y-68834000D01*
X150300946Y-68834000D02*
X151959054Y-68834000D01*
X154535054Y-71410000D02*
X157381500Y-71410000D01*
X151959054Y-68834000D02*
X154535054Y-71410000D01*
%TO.N,/COL01*%
X154388462Y-71910000D02*
X157381500Y-71910000D01*
X151820462Y-69342000D02*
X154388462Y-71910000D01*
X139192000Y-69342000D02*
X151820462Y-69342000D01*
X137668000Y-70866000D02*
X139192000Y-69342000D01*
X137527000Y-70866000D02*
X137668000Y-70866000D01*
%TO.N,/COL02*%
X141732000Y-75071000D02*
X141732000Y-72339210D01*
X141732000Y-72339210D02*
X143205210Y-70866000D01*
X143205210Y-70866000D02*
X150368000Y-70866000D01*
X150418790Y-70916790D02*
X151455476Y-70916790D01*
X150368000Y-70866000D02*
X150418790Y-70916790D01*
X153948686Y-73410000D02*
X157381500Y-73410000D01*
X151455476Y-70916790D02*
X153948686Y-73410000D01*
%TO.N,/CLKOUT*%
X162294000Y-69497500D02*
X162294000Y-69354000D01*
X162339190Y-69308810D02*
X162339190Y-67784810D01*
X162294000Y-69354000D02*
X162339190Y-69308810D01*
X162339190Y-67784810D02*
X163322000Y-66802000D01*
D33*
%TO.N,Net-(C12-Pad2)*%
X164733000Y-113792000D02*
X164733000Y-111760000D01*
D29*
X164733000Y-114808000D02*
X163412010Y-116128990D01*
D28*
X164733000Y-113206990D02*
X164733000Y-114808000D01*
%TD*%
D30*
%TO.N,+3V3*%
G36*
X166497000Y-70866000D02*
G01*
X164670490Y-70866000D01*
X165305490Y-69596000D01*
X166497000Y-69596000D01*
X166497000Y-70866000D01*
G37*
X166497000Y-70866000D02*
X164670490Y-70866000D01*
X165305490Y-69596000D01*
X166497000Y-69596000D01*
X166497000Y-70866000D01*
G36*
X158954457Y-70874876D02*
G01*
X158964407Y-70887000D01*
X158992518Y-70921254D01*
X158992524Y-70921260D01*
X159005243Y-70936758D01*
X159020741Y-70949477D01*
X159464522Y-71393259D01*
X159477242Y-71408758D01*
X159492740Y-71421477D01*
X159492745Y-71421482D01*
X159513746Y-71438717D01*
X159539124Y-71459544D01*
X159586749Y-71485000D01*
X159609725Y-71497281D01*
X159686331Y-71520519D01*
X159693604Y-71521235D01*
X159746040Y-71526400D01*
X159746047Y-71526400D01*
X159766000Y-71528365D01*
X159785953Y-71526400D01*
X159852550Y-71526400D01*
X159916386Y-71621938D01*
X160026062Y-71731614D01*
X160155026Y-71817785D01*
X160298324Y-71877141D01*
X160450448Y-71907400D01*
X160605552Y-71907400D01*
X160757676Y-71877141D01*
X160900974Y-71817785D01*
X161029938Y-71731614D01*
X161139614Y-71621938D01*
X161225785Y-71492974D01*
X161285141Y-71349676D01*
X161315400Y-71197552D01*
X161315400Y-71042448D01*
X161285141Y-70890324D01*
X161275066Y-70866000D01*
X164338000Y-70866000D01*
X164338000Y-71065712D01*
X164329124Y-71070456D01*
X164313296Y-71083446D01*
X164282745Y-71108518D01*
X164282740Y-71108523D01*
X164267242Y-71121242D01*
X164254522Y-71136741D01*
X163810746Y-71580518D01*
X163795242Y-71593242D01*
X163744456Y-71655125D01*
X163706719Y-71725726D01*
X163683481Y-71802333D01*
X163677600Y-71862041D01*
X163677600Y-71862047D01*
X163675635Y-71882000D01*
X163677600Y-71901953D01*
X163677600Y-71968549D01*
X163582062Y-72032386D01*
X163472386Y-72142062D01*
X163386215Y-72271026D01*
X163326859Y-72414324D01*
X163296600Y-72566448D01*
X163296600Y-72721552D01*
X163326859Y-72873676D01*
X163386215Y-73016974D01*
X163472386Y-73145938D01*
X163582062Y-73255614D01*
X163711026Y-73341785D01*
X163854324Y-73401141D01*
X164006448Y-73431400D01*
X164161552Y-73431400D01*
X164313676Y-73401141D01*
X164338000Y-73391066D01*
X164338000Y-76454000D01*
X163012449Y-76454000D01*
X162975750Y-76450000D01*
X162971750Y-76454000D01*
X162616250Y-76454000D01*
X162612250Y-76450000D01*
X162612156Y-76450010D01*
X162609544Y-76445124D01*
X162588717Y-76419746D01*
X162571482Y-76398745D01*
X162571477Y-76398740D01*
X162558758Y-76383242D01*
X162543259Y-76370522D01*
X162099482Y-75926746D01*
X162086758Y-75911242D01*
X162024876Y-75860456D01*
X161954275Y-75822719D01*
X161877668Y-75799481D01*
X161817960Y-75793600D01*
X161817953Y-75793600D01*
X161798000Y-75791635D01*
X161778047Y-75793600D01*
X161711450Y-75793600D01*
X161647614Y-75698062D01*
X161537938Y-75588386D01*
X161408974Y-75502215D01*
X161265676Y-75442859D01*
X161113552Y-75412600D01*
X160958448Y-75412600D01*
X160806324Y-75442859D01*
X160663026Y-75502215D01*
X160534062Y-75588386D01*
X160424386Y-75698062D01*
X160338215Y-75827026D01*
X160278859Y-75970324D01*
X160248600Y-76122448D01*
X160248600Y-76277552D01*
X160278859Y-76429676D01*
X160288934Y-76454000D01*
X159012449Y-76454000D01*
X158975750Y-76450000D01*
X158971750Y-76454000D01*
X158750000Y-76454000D01*
X158750000Y-76254288D01*
X158758876Y-76249544D01*
X158820758Y-76198758D01*
X158833482Y-76183254D01*
X159277260Y-75739476D01*
X159292758Y-75726758D01*
X159305477Y-75711260D01*
X159305482Y-75711255D01*
X159328961Y-75682645D01*
X159343544Y-75664876D01*
X159381281Y-75594275D01*
X159388506Y-75570456D01*
X159404519Y-75517669D01*
X159406041Y-75502215D01*
X159410400Y-75457960D01*
X159410400Y-75457953D01*
X159412365Y-75438000D01*
X159410400Y-75418047D01*
X159410400Y-75351450D01*
X159505938Y-75287614D01*
X159615614Y-75177938D01*
X159701785Y-75048974D01*
X159761141Y-74905676D01*
X159791400Y-74753552D01*
X159791400Y-74598448D01*
X159761141Y-74446324D01*
X159701785Y-74303026D01*
X159615614Y-74174062D01*
X159505938Y-74064386D01*
X159376974Y-73978215D01*
X159233676Y-73918859D01*
X159081552Y-73888600D01*
X158926448Y-73888600D01*
X158774324Y-73918859D01*
X158750000Y-73928934D01*
X158750000Y-70866000D01*
X158949713Y-70866000D01*
X158954457Y-70874876D01*
G37*
X158954457Y-70874876D02*
X158964407Y-70887000D01*
X158992518Y-70921254D01*
X158992524Y-70921260D01*
X159005243Y-70936758D01*
X159020741Y-70949477D01*
X159464522Y-71393259D01*
X159477242Y-71408758D01*
X159492740Y-71421477D01*
X159492745Y-71421482D01*
X159513746Y-71438717D01*
X159539124Y-71459544D01*
X159586749Y-71485000D01*
X159609725Y-71497281D01*
X159686331Y-71520519D01*
X159693604Y-71521235D01*
X159746040Y-71526400D01*
X159746047Y-71526400D01*
X159766000Y-71528365D01*
X159785953Y-71526400D01*
X159852550Y-71526400D01*
X159916386Y-71621938D01*
X160026062Y-71731614D01*
X160155026Y-71817785D01*
X160298324Y-71877141D01*
X160450448Y-71907400D01*
X160605552Y-71907400D01*
X160757676Y-71877141D01*
X160900974Y-71817785D01*
X161029938Y-71731614D01*
X161139614Y-71621938D01*
X161225785Y-71492974D01*
X161285141Y-71349676D01*
X161315400Y-71197552D01*
X161315400Y-71042448D01*
X161285141Y-70890324D01*
X161275066Y-70866000D01*
X164338000Y-70866000D01*
X164338000Y-71065712D01*
X164329124Y-71070456D01*
X164313296Y-71083446D01*
X164282745Y-71108518D01*
X164282740Y-71108523D01*
X164267242Y-71121242D01*
X164254522Y-71136741D01*
X163810746Y-71580518D01*
X163795242Y-71593242D01*
X163744456Y-71655125D01*
X163706719Y-71725726D01*
X163683481Y-71802333D01*
X163677600Y-71862041D01*
X163677600Y-71862047D01*
X163675635Y-71882000D01*
X163677600Y-71901953D01*
X163677600Y-71968549D01*
X163582062Y-72032386D01*
X163472386Y-72142062D01*
X163386215Y-72271026D01*
X163326859Y-72414324D01*
X163296600Y-72566448D01*
X163296600Y-72721552D01*
X163326859Y-72873676D01*
X163386215Y-73016974D01*
X163472386Y-73145938D01*
X163582062Y-73255614D01*
X163711026Y-73341785D01*
X163854324Y-73401141D01*
X164006448Y-73431400D01*
X164161552Y-73431400D01*
X164313676Y-73401141D01*
X164338000Y-73391066D01*
X164338000Y-76454000D01*
X163012449Y-76454000D01*
X162975750Y-76450000D01*
X162971750Y-76454000D01*
X162616250Y-76454000D01*
X162612250Y-76450000D01*
X162612156Y-76450010D01*
X162609544Y-76445124D01*
X162588717Y-76419746D01*
X162571482Y-76398745D01*
X162571477Y-76398740D01*
X162558758Y-76383242D01*
X162543259Y-76370522D01*
X162099482Y-75926746D01*
X162086758Y-75911242D01*
X162024876Y-75860456D01*
X161954275Y-75822719D01*
X161877668Y-75799481D01*
X161817960Y-75793600D01*
X161817953Y-75793600D01*
X161798000Y-75791635D01*
X161778047Y-75793600D01*
X161711450Y-75793600D01*
X161647614Y-75698062D01*
X161537938Y-75588386D01*
X161408974Y-75502215D01*
X161265676Y-75442859D01*
X161113552Y-75412600D01*
X160958448Y-75412600D01*
X160806324Y-75442859D01*
X160663026Y-75502215D01*
X160534062Y-75588386D01*
X160424386Y-75698062D01*
X160338215Y-75827026D01*
X160278859Y-75970324D01*
X160248600Y-76122448D01*
X160248600Y-76277552D01*
X160278859Y-76429676D01*
X160288934Y-76454000D01*
X159012449Y-76454000D01*
X158975750Y-76450000D01*
X158971750Y-76454000D01*
X158750000Y-76454000D01*
X158750000Y-76254288D01*
X158758876Y-76249544D01*
X158820758Y-76198758D01*
X158833482Y-76183254D01*
X159277260Y-75739476D01*
X159292758Y-75726758D01*
X159305477Y-75711260D01*
X159305482Y-75711255D01*
X159328961Y-75682645D01*
X159343544Y-75664876D01*
X159381281Y-75594275D01*
X159388506Y-75570456D01*
X159404519Y-75517669D01*
X159406041Y-75502215D01*
X159410400Y-75457960D01*
X159410400Y-75457953D01*
X159412365Y-75438000D01*
X159410400Y-75418047D01*
X159410400Y-75351450D01*
X159505938Y-75287614D01*
X159615614Y-75177938D01*
X159701785Y-75048974D01*
X159761141Y-74905676D01*
X159791400Y-74753552D01*
X159791400Y-74598448D01*
X159761141Y-74446324D01*
X159701785Y-74303026D01*
X159615614Y-74174062D01*
X159505938Y-74064386D01*
X159376974Y-73978215D01*
X159233676Y-73918859D01*
X159081552Y-73888600D01*
X158926448Y-73888600D01*
X158774324Y-73918859D01*
X158750000Y-73928934D01*
X158750000Y-70866000D01*
X158949713Y-70866000D01*
X158954457Y-70874876D01*
%TD*%
M02*
