%TF.GenerationSoftware,KiCad,Pcbnew,(5.1.6)-1*%
%TF.CreationDate,2020-09-26T21:35:22-04:00*%
%TF.ProjectId,QAZ_testboard,51415a5f-7465-4737-9462-6f6172642e6b,v1.0*%
%TF.SameCoordinates,Original*%
%TF.FileFunction,Legend,Bot*%
%TF.FilePolarity,Positive*%
%FSLAX46Y46*%
G04 Gerber Fmt 4.6, Leading zero omitted, Abs format (unit mm)*
G04 Created by KiCad (PCBNEW (5.1.6)-1) date 2020-09-26 21:35:22*
%MOMM*%
%LPD*%
G01*
G04 APERTURE LIST*
%ADD10C,0.120000*%
%ADD11C,0.150000*%
G04 APERTURE END LIST*
D10*
%TO.C,R15*%
X95840733Y-45972000D02*
X96183267Y-45972000D01*
X95840733Y-46992000D02*
X96183267Y-46992000D01*
%TO.C,R12*%
X96183267Y-42166000D02*
X95840733Y-42166000D01*
X96183267Y-41146000D02*
X95840733Y-41146000D01*
%TO.C,D9*%
X140620000Y-127710000D02*
X138380000Y-127710000D01*
X140620000Y-127470000D02*
X138380000Y-127470000D01*
X140620000Y-127590000D02*
X138380000Y-127590000D01*
X139500000Y-123420000D02*
X139500000Y-124070000D01*
X139500000Y-128960000D02*
X139500000Y-128310000D01*
X140620000Y-124070000D02*
X140620000Y-128310000D01*
X138380000Y-124070000D02*
X140620000Y-124070000D01*
X138380000Y-128310000D02*
X138380000Y-124070000D01*
X140620000Y-128310000D02*
X138380000Y-128310000D01*
%TO.C,D8*%
X140620000Y-108710000D02*
X138380000Y-108710000D01*
X140620000Y-108470000D02*
X138380000Y-108470000D01*
X140620000Y-108590000D02*
X138380000Y-108590000D01*
X139500000Y-104420000D02*
X139500000Y-105070000D01*
X139500000Y-109960000D02*
X139500000Y-109310000D01*
X140620000Y-105070000D02*
X140620000Y-109310000D01*
X138380000Y-105070000D02*
X140620000Y-105070000D01*
X138380000Y-109310000D02*
X138380000Y-105070000D01*
X140620000Y-109310000D02*
X138380000Y-109310000D01*
%TO.C,D7*%
X140620000Y-89710000D02*
X138380000Y-89710000D01*
X140620000Y-89470000D02*
X138380000Y-89470000D01*
X140620000Y-89590000D02*
X138380000Y-89590000D01*
X139500000Y-85420000D02*
X139500000Y-86070000D01*
X139500000Y-90960000D02*
X139500000Y-90310000D01*
X140620000Y-86070000D02*
X140620000Y-90310000D01*
X138380000Y-86070000D02*
X140620000Y-86070000D01*
X138380000Y-90310000D02*
X138380000Y-86070000D01*
X140620000Y-90310000D02*
X138380000Y-90310000D01*
%TO.C,D6*%
X121620000Y-127710000D02*
X119380000Y-127710000D01*
X121620000Y-127470000D02*
X119380000Y-127470000D01*
X121620000Y-127590000D02*
X119380000Y-127590000D01*
X120500000Y-123420000D02*
X120500000Y-124070000D01*
X120500000Y-128960000D02*
X120500000Y-128310000D01*
X121620000Y-124070000D02*
X121620000Y-128310000D01*
X119380000Y-124070000D02*
X121620000Y-124070000D01*
X119380000Y-128310000D02*
X119380000Y-124070000D01*
X121620000Y-128310000D02*
X119380000Y-128310000D01*
%TO.C,D5*%
X121620000Y-108710000D02*
X119380000Y-108710000D01*
X121620000Y-108470000D02*
X119380000Y-108470000D01*
X121620000Y-108590000D02*
X119380000Y-108590000D01*
X120500000Y-104420000D02*
X120500000Y-105070000D01*
X120500000Y-109960000D02*
X120500000Y-109310000D01*
X121620000Y-105070000D02*
X121620000Y-109310000D01*
X119380000Y-105070000D02*
X121620000Y-105070000D01*
X119380000Y-109310000D02*
X119380000Y-105070000D01*
X121620000Y-109310000D02*
X119380000Y-109310000D01*
%TO.C,D4*%
X121620000Y-89710000D02*
X119380000Y-89710000D01*
X121620000Y-89470000D02*
X119380000Y-89470000D01*
X121620000Y-89590000D02*
X119380000Y-89590000D01*
X120500000Y-85420000D02*
X120500000Y-86070000D01*
X120500000Y-90960000D02*
X120500000Y-90310000D01*
X121620000Y-86070000D02*
X121620000Y-90310000D01*
X119380000Y-86070000D02*
X121620000Y-86070000D01*
X119380000Y-90310000D02*
X119380000Y-86070000D01*
X121620000Y-90310000D02*
X119380000Y-90310000D01*
%TO.C,D3*%
X102720000Y-127710000D02*
X100480000Y-127710000D01*
X102720000Y-127470000D02*
X100480000Y-127470000D01*
X102720000Y-127590000D02*
X100480000Y-127590000D01*
X101600000Y-123420000D02*
X101600000Y-124070000D01*
X101600000Y-128960000D02*
X101600000Y-128310000D01*
X102720000Y-124070000D02*
X102720000Y-128310000D01*
X100480000Y-124070000D02*
X102720000Y-124070000D01*
X100480000Y-128310000D02*
X100480000Y-124070000D01*
X102720000Y-128310000D02*
X100480000Y-128310000D01*
%TO.C,D2*%
X102620000Y-108710000D02*
X100380000Y-108710000D01*
X102620000Y-108470000D02*
X100380000Y-108470000D01*
X102620000Y-108590000D02*
X100380000Y-108590000D01*
X101500000Y-104420000D02*
X101500000Y-105070000D01*
X101500000Y-109960000D02*
X101500000Y-109310000D01*
X102620000Y-105070000D02*
X102620000Y-109310000D01*
X100380000Y-105070000D02*
X102620000Y-105070000D01*
X100380000Y-109310000D02*
X100380000Y-105070000D01*
X102620000Y-109310000D02*
X100380000Y-109310000D01*
%TO.C,D1*%
X102620000Y-89710000D02*
X100380000Y-89710000D01*
X102620000Y-89470000D02*
X100380000Y-89470000D01*
X102620000Y-89590000D02*
X100380000Y-89590000D01*
X101500000Y-85420000D02*
X101500000Y-86070000D01*
X101500000Y-90960000D02*
X101500000Y-90310000D01*
X102620000Y-86070000D02*
X102620000Y-90310000D01*
X100380000Y-86070000D02*
X102620000Y-86070000D01*
X100380000Y-90310000D02*
X100380000Y-86070000D01*
X102620000Y-90310000D02*
X100380000Y-90310000D01*
%TO.C,R15*%
D11*
X96654857Y-48585380D02*
X96988190Y-48109190D01*
X97226285Y-48585380D02*
X97226285Y-47585380D01*
X96845333Y-47585380D01*
X96750095Y-47633000D01*
X96702476Y-47680619D01*
X96654857Y-47775857D01*
X96654857Y-47918714D01*
X96702476Y-48013952D01*
X96750095Y-48061571D01*
X96845333Y-48109190D01*
X97226285Y-48109190D01*
X95702476Y-48585380D02*
X96273904Y-48585380D01*
X95988190Y-48585380D02*
X95988190Y-47585380D01*
X96083428Y-47728238D01*
X96178666Y-47823476D01*
X96273904Y-47871095D01*
X94797714Y-47585380D02*
X95273904Y-47585380D01*
X95321523Y-48061571D01*
X95273904Y-48013952D01*
X95178666Y-47966333D01*
X94940571Y-47966333D01*
X94845333Y-48013952D01*
X94797714Y-48061571D01*
X94750095Y-48156809D01*
X94750095Y-48394904D01*
X94797714Y-48490142D01*
X94845333Y-48537761D01*
X94940571Y-48585380D01*
X95178666Y-48585380D01*
X95273904Y-48537761D01*
X95321523Y-48490142D01*
%TO.C,R12*%
X93352857Y-42108380D02*
X93686190Y-41632190D01*
X93924285Y-42108380D02*
X93924285Y-41108380D01*
X93543333Y-41108380D01*
X93448095Y-41156000D01*
X93400476Y-41203619D01*
X93352857Y-41298857D01*
X93352857Y-41441714D01*
X93400476Y-41536952D01*
X93448095Y-41584571D01*
X93543333Y-41632190D01*
X93924285Y-41632190D01*
X92400476Y-42108380D02*
X92971904Y-42108380D01*
X92686190Y-42108380D02*
X92686190Y-41108380D01*
X92781428Y-41251238D01*
X92876666Y-41346476D01*
X92971904Y-41394095D01*
X92019523Y-41203619D02*
X91971904Y-41156000D01*
X91876666Y-41108380D01*
X91638571Y-41108380D01*
X91543333Y-41156000D01*
X91495714Y-41203619D01*
X91448095Y-41298857D01*
X91448095Y-41394095D01*
X91495714Y-41536952D01*
X92067142Y-42108380D01*
X91448095Y-42108380D01*
%TO.C,D9*%
X142358095Y-126642380D02*
X142358095Y-125642380D01*
X142120000Y-125642380D01*
X141977142Y-125690000D01*
X141881904Y-125785238D01*
X141834285Y-125880476D01*
X141786666Y-126070952D01*
X141786666Y-126213809D01*
X141834285Y-126404285D01*
X141881904Y-126499523D01*
X141977142Y-126594761D01*
X142120000Y-126642380D01*
X142358095Y-126642380D01*
X141310476Y-126642380D02*
X141120000Y-126642380D01*
X141024761Y-126594761D01*
X140977142Y-126547142D01*
X140881904Y-126404285D01*
X140834285Y-126213809D01*
X140834285Y-125832857D01*
X140881904Y-125737619D01*
X140929523Y-125690000D01*
X141024761Y-125642380D01*
X141215238Y-125642380D01*
X141310476Y-125690000D01*
X141358095Y-125737619D01*
X141405714Y-125832857D01*
X141405714Y-126070952D01*
X141358095Y-126166190D01*
X141310476Y-126213809D01*
X141215238Y-126261428D01*
X141024761Y-126261428D01*
X140929523Y-126213809D01*
X140881904Y-126166190D01*
X140834285Y-126070952D01*
%TO.C,D8*%
X142358095Y-107642380D02*
X142358095Y-106642380D01*
X142120000Y-106642380D01*
X141977142Y-106690000D01*
X141881904Y-106785238D01*
X141834285Y-106880476D01*
X141786666Y-107070952D01*
X141786666Y-107213809D01*
X141834285Y-107404285D01*
X141881904Y-107499523D01*
X141977142Y-107594761D01*
X142120000Y-107642380D01*
X142358095Y-107642380D01*
X141215238Y-107070952D02*
X141310476Y-107023333D01*
X141358095Y-106975714D01*
X141405714Y-106880476D01*
X141405714Y-106832857D01*
X141358095Y-106737619D01*
X141310476Y-106690000D01*
X141215238Y-106642380D01*
X141024761Y-106642380D01*
X140929523Y-106690000D01*
X140881904Y-106737619D01*
X140834285Y-106832857D01*
X140834285Y-106880476D01*
X140881904Y-106975714D01*
X140929523Y-107023333D01*
X141024761Y-107070952D01*
X141215238Y-107070952D01*
X141310476Y-107118571D01*
X141358095Y-107166190D01*
X141405714Y-107261428D01*
X141405714Y-107451904D01*
X141358095Y-107547142D01*
X141310476Y-107594761D01*
X141215238Y-107642380D01*
X141024761Y-107642380D01*
X140929523Y-107594761D01*
X140881904Y-107547142D01*
X140834285Y-107451904D01*
X140834285Y-107261428D01*
X140881904Y-107166190D01*
X140929523Y-107118571D01*
X141024761Y-107070952D01*
%TO.C,D7*%
X142358095Y-88642380D02*
X142358095Y-87642380D01*
X142120000Y-87642380D01*
X141977142Y-87690000D01*
X141881904Y-87785238D01*
X141834285Y-87880476D01*
X141786666Y-88070952D01*
X141786666Y-88213809D01*
X141834285Y-88404285D01*
X141881904Y-88499523D01*
X141977142Y-88594761D01*
X142120000Y-88642380D01*
X142358095Y-88642380D01*
X141453333Y-87642380D02*
X140786666Y-87642380D01*
X141215238Y-88642380D01*
%TO.C,D6*%
X123358095Y-126642380D02*
X123358095Y-125642380D01*
X123120000Y-125642380D01*
X122977142Y-125690000D01*
X122881904Y-125785238D01*
X122834285Y-125880476D01*
X122786666Y-126070952D01*
X122786666Y-126213809D01*
X122834285Y-126404285D01*
X122881904Y-126499523D01*
X122977142Y-126594761D01*
X123120000Y-126642380D01*
X123358095Y-126642380D01*
X121929523Y-125642380D02*
X122120000Y-125642380D01*
X122215238Y-125690000D01*
X122262857Y-125737619D01*
X122358095Y-125880476D01*
X122405714Y-126070952D01*
X122405714Y-126451904D01*
X122358095Y-126547142D01*
X122310476Y-126594761D01*
X122215238Y-126642380D01*
X122024761Y-126642380D01*
X121929523Y-126594761D01*
X121881904Y-126547142D01*
X121834285Y-126451904D01*
X121834285Y-126213809D01*
X121881904Y-126118571D01*
X121929523Y-126070952D01*
X122024761Y-126023333D01*
X122215238Y-126023333D01*
X122310476Y-126070952D01*
X122358095Y-126118571D01*
X122405714Y-126213809D01*
%TO.C,D5*%
X123358095Y-107642380D02*
X123358095Y-106642380D01*
X123120000Y-106642380D01*
X122977142Y-106690000D01*
X122881904Y-106785238D01*
X122834285Y-106880476D01*
X122786666Y-107070952D01*
X122786666Y-107213809D01*
X122834285Y-107404285D01*
X122881904Y-107499523D01*
X122977142Y-107594761D01*
X123120000Y-107642380D01*
X123358095Y-107642380D01*
X121881904Y-106642380D02*
X122358095Y-106642380D01*
X122405714Y-107118571D01*
X122358095Y-107070952D01*
X122262857Y-107023333D01*
X122024761Y-107023333D01*
X121929523Y-107070952D01*
X121881904Y-107118571D01*
X121834285Y-107213809D01*
X121834285Y-107451904D01*
X121881904Y-107547142D01*
X121929523Y-107594761D01*
X122024761Y-107642380D01*
X122262857Y-107642380D01*
X122358095Y-107594761D01*
X122405714Y-107547142D01*
%TO.C,D4*%
X123358095Y-88590380D02*
X123358095Y-87590380D01*
X123120000Y-87590380D01*
X122977142Y-87638000D01*
X122881904Y-87733238D01*
X122834285Y-87828476D01*
X122786666Y-88018952D01*
X122786666Y-88161809D01*
X122834285Y-88352285D01*
X122881904Y-88447523D01*
X122977142Y-88542761D01*
X123120000Y-88590380D01*
X123358095Y-88590380D01*
X121929523Y-87923714D02*
X121929523Y-88590380D01*
X122167619Y-87542761D02*
X122405714Y-88257047D01*
X121786666Y-88257047D01*
%TO.C,D3*%
X104458095Y-126642380D02*
X104458095Y-125642380D01*
X104220000Y-125642380D01*
X104077142Y-125690000D01*
X103981904Y-125785238D01*
X103934285Y-125880476D01*
X103886666Y-126070952D01*
X103886666Y-126213809D01*
X103934285Y-126404285D01*
X103981904Y-126499523D01*
X104077142Y-126594761D01*
X104220000Y-126642380D01*
X104458095Y-126642380D01*
X103553333Y-125642380D02*
X102934285Y-125642380D01*
X103267619Y-126023333D01*
X103124761Y-126023333D01*
X103029523Y-126070952D01*
X102981904Y-126118571D01*
X102934285Y-126213809D01*
X102934285Y-126451904D01*
X102981904Y-126547142D01*
X103029523Y-126594761D01*
X103124761Y-126642380D01*
X103410476Y-126642380D01*
X103505714Y-126594761D01*
X103553333Y-126547142D01*
%TO.C,D2*%
X104358095Y-107642380D02*
X104358095Y-106642380D01*
X104120000Y-106642380D01*
X103977142Y-106690000D01*
X103881904Y-106785238D01*
X103834285Y-106880476D01*
X103786666Y-107070952D01*
X103786666Y-107213809D01*
X103834285Y-107404285D01*
X103881904Y-107499523D01*
X103977142Y-107594761D01*
X104120000Y-107642380D01*
X104358095Y-107642380D01*
X103405714Y-106737619D02*
X103358095Y-106690000D01*
X103262857Y-106642380D01*
X103024761Y-106642380D01*
X102929523Y-106690000D01*
X102881904Y-106737619D01*
X102834285Y-106832857D01*
X102834285Y-106928095D01*
X102881904Y-107070952D01*
X103453333Y-107642380D01*
X102834285Y-107642380D01*
%TO.C,D1*%
X104358095Y-88642380D02*
X104358095Y-87642380D01*
X104120000Y-87642380D01*
X103977142Y-87690000D01*
X103881904Y-87785238D01*
X103834285Y-87880476D01*
X103786666Y-88070952D01*
X103786666Y-88213809D01*
X103834285Y-88404285D01*
X103881904Y-88499523D01*
X103977142Y-88594761D01*
X104120000Y-88642380D01*
X104358095Y-88642380D01*
X102834285Y-88642380D02*
X103405714Y-88642380D01*
X103120000Y-88642380D02*
X103120000Y-87642380D01*
X103215238Y-87785238D01*
X103310476Y-87880476D01*
X103405714Y-87928095D01*
%TD*%
M02*
