%TF.GenerationSoftware,KiCad,Pcbnew,(5.1.6)-1*%
%TF.CreationDate,2020-09-26T21:35:22-04:00*%
%TF.ProjectId,QAZ_testboard,51415a5f-7465-4737-9462-6f6172642e6b,v1.0*%
%TF.SameCoordinates,Original*%
%TF.FileFunction,Legend,Top*%
%TF.FilePolarity,Positive*%
%FSLAX46Y46*%
G04 Gerber Fmt 4.6, Leading zero omitted, Abs format (unit mm)*
G04 Created by KiCad (PCBNEW (5.1.6)-1) date 2020-09-26 21:35:22*
%MOMM*%
%LPD*%
G01*
G04 APERTURE LIST*
%ADD10C,0.300000*%
%ADD11C,0.304800*%
%ADD12C,0.120000*%
%ADD13C,0.150000*%
G04 APERTURE END LIST*
D10*
X162564000Y-49192571D02*
X162064000Y-48478285D01*
X161706857Y-49192571D02*
X161706857Y-47692571D01*
X162278285Y-47692571D01*
X162421142Y-47764000D01*
X162492571Y-47835428D01*
X162564000Y-47978285D01*
X162564000Y-48192571D01*
X162492571Y-48335428D01*
X162421142Y-48406857D01*
X162278285Y-48478285D01*
X161706857Y-48478285D01*
X163064000Y-47692571D02*
X164064000Y-49192571D01*
X164064000Y-47692571D02*
X163064000Y-49192571D01*
X164465142Y-47692571D02*
X165322285Y-47692571D01*
X164893714Y-49192571D02*
X164893714Y-47692571D01*
X165679428Y-47692571D02*
X166679428Y-49192571D01*
X166679428Y-47692571D02*
X165679428Y-49192571D01*
D11*
X87823523Y-75026761D02*
X87630000Y-74930000D01*
X87436476Y-74736476D01*
X87146190Y-74446190D01*
X86952666Y-74349428D01*
X86759142Y-74349428D01*
X86855904Y-74833238D02*
X86662380Y-74736476D01*
X86468857Y-74542952D01*
X86372095Y-74155904D01*
X86372095Y-73478571D01*
X86468857Y-73091523D01*
X86662380Y-72898000D01*
X86855904Y-72801238D01*
X87242952Y-72801238D01*
X87436476Y-72898000D01*
X87630000Y-73091523D01*
X87726761Y-73478571D01*
X87726761Y-74155904D01*
X87630000Y-74542952D01*
X87436476Y-74736476D01*
X87242952Y-74833238D01*
X86855904Y-74833238D01*
X88500857Y-74252666D02*
X89468476Y-74252666D01*
X88307333Y-74833238D02*
X88984666Y-72801238D01*
X89662000Y-74833238D01*
X90145809Y-72801238D02*
X91500476Y-72801238D01*
X90145809Y-74833238D01*
X91500476Y-74833238D01*
X93532476Y-72801238D02*
X94693619Y-72801238D01*
X94113047Y-74833238D02*
X94113047Y-72801238D01*
X96145047Y-74736476D02*
X95951523Y-74833238D01*
X95564476Y-74833238D01*
X95370952Y-74736476D01*
X95274190Y-74542952D01*
X95274190Y-73768857D01*
X95370952Y-73575333D01*
X95564476Y-73478571D01*
X95951523Y-73478571D01*
X96145047Y-73575333D01*
X96241809Y-73768857D01*
X96241809Y-73962380D01*
X95274190Y-74155904D01*
X97015904Y-74736476D02*
X97209428Y-74833238D01*
X97596476Y-74833238D01*
X97789999Y-74736476D01*
X97886761Y-74542952D01*
X97886761Y-74446190D01*
X97789999Y-74252666D01*
X97596476Y-74155904D01*
X97306190Y-74155904D01*
X97112666Y-74059142D01*
X97015904Y-73865619D01*
X97015904Y-73768857D01*
X97112666Y-73575333D01*
X97306190Y-73478571D01*
X97596476Y-73478571D01*
X97789999Y-73575333D01*
X98467333Y-73478571D02*
X99241428Y-73478571D01*
X98757619Y-72801238D02*
X98757619Y-74542952D01*
X98854380Y-74736476D01*
X99047904Y-74833238D01*
X99241428Y-74833238D01*
X102144285Y-73768857D02*
X102434571Y-73865619D01*
X102531333Y-73962380D01*
X102628095Y-74155904D01*
X102628095Y-74446190D01*
X102531333Y-74639714D01*
X102434571Y-74736476D01*
X102241047Y-74833238D01*
X101466952Y-74833238D01*
X101466952Y-72801238D01*
X102144285Y-72801238D01*
X102337809Y-72898000D01*
X102434571Y-72994761D01*
X102531333Y-73188285D01*
X102531333Y-73381809D01*
X102434571Y-73575333D01*
X102337809Y-73672095D01*
X102144285Y-73768857D01*
X101466952Y-73768857D01*
X103789238Y-74833238D02*
X103595714Y-74736476D01*
X103498952Y-74639714D01*
X103402190Y-74446190D01*
X103402190Y-73865619D01*
X103498952Y-73672095D01*
X103595714Y-73575333D01*
X103789238Y-73478571D01*
X104079523Y-73478571D01*
X104273047Y-73575333D01*
X104369809Y-73672095D01*
X104466571Y-73865619D01*
X104466571Y-74446190D01*
X104369809Y-74639714D01*
X104273047Y-74736476D01*
X104079523Y-74833238D01*
X103789238Y-74833238D01*
X106208285Y-74833238D02*
X106208285Y-73768857D01*
X106111523Y-73575333D01*
X105917999Y-73478571D01*
X105530952Y-73478571D01*
X105337428Y-73575333D01*
X106208285Y-74736476D02*
X106014761Y-74833238D01*
X105530952Y-74833238D01*
X105337428Y-74736476D01*
X105240666Y-74542952D01*
X105240666Y-74349428D01*
X105337428Y-74155904D01*
X105530952Y-74059142D01*
X106014761Y-74059142D01*
X106208285Y-73962380D01*
X107175904Y-74833238D02*
X107175904Y-73478571D01*
X107175904Y-73865619D02*
X107272666Y-73672095D01*
X107369428Y-73575333D01*
X107562952Y-73478571D01*
X107756476Y-73478571D01*
X109304666Y-74833238D02*
X109304666Y-72801238D01*
X109304666Y-74736476D02*
X109111142Y-74833238D01*
X108724095Y-74833238D01*
X108530571Y-74736476D01*
X108433809Y-74639714D01*
X108337047Y-74446190D01*
X108337047Y-73865619D01*
X108433809Y-73672095D01*
X108530571Y-73575333D01*
X108724095Y-73478571D01*
X109111142Y-73478571D01*
X109304666Y-73575333D01*
X111626952Y-73478571D02*
X112110761Y-74833238D01*
X112594571Y-73478571D01*
X114433047Y-74833238D02*
X113271904Y-74833238D01*
X113852476Y-74833238D02*
X113852476Y-72801238D01*
X113658952Y-73091523D01*
X113465428Y-73285047D01*
X113271904Y-73381809D01*
X115303904Y-74639714D02*
X115400666Y-74736476D01*
X115303904Y-74833238D01*
X115207142Y-74736476D01*
X115303904Y-74639714D01*
X115303904Y-74833238D01*
X116658571Y-72801238D02*
X116852095Y-72801238D01*
X117045619Y-72898000D01*
X117142380Y-72994761D01*
X117239142Y-73188285D01*
X117335904Y-73575333D01*
X117335904Y-74059142D01*
X117239142Y-74446190D01*
X117142380Y-74639714D01*
X117045619Y-74736476D01*
X116852095Y-74833238D01*
X116658571Y-74833238D01*
X116465047Y-74736476D01*
X116368285Y-74639714D01*
X116271523Y-74446190D01*
X116174761Y-74059142D01*
X116174761Y-73575333D01*
X116271523Y-73188285D01*
X116368285Y-72994761D01*
X116465047Y-72898000D01*
X116658571Y-72801238D01*
X164403072Y-96931238D02*
X163725739Y-95963619D01*
X163241929Y-96931238D02*
X163241929Y-94899238D01*
X164016024Y-94899238D01*
X164209548Y-94996000D01*
X164306310Y-95092761D01*
X164403072Y-95286285D01*
X164403072Y-95576571D01*
X164306310Y-95770095D01*
X164209548Y-95866857D01*
X164016024Y-95963619D01*
X163241929Y-95963619D01*
X165273929Y-95866857D02*
X165951262Y-95866857D01*
X166241548Y-96931238D02*
X165273929Y-96931238D01*
X165273929Y-94899238D01*
X166241548Y-94899238D01*
X167015643Y-96834476D02*
X167305929Y-96931238D01*
X167789739Y-96931238D01*
X167983262Y-96834476D01*
X168080024Y-96737714D01*
X168176786Y-96544190D01*
X168176786Y-96350666D01*
X168080024Y-96157142D01*
X167983262Y-96060380D01*
X167789739Y-95963619D01*
X167402691Y-95866857D01*
X167209167Y-95770095D01*
X167112405Y-95673333D01*
X167015643Y-95479809D01*
X167015643Y-95286285D01*
X167112405Y-95092761D01*
X167209167Y-94996000D01*
X167402691Y-94899238D01*
X167886500Y-94899238D01*
X168176786Y-94996000D01*
X169047643Y-95866857D02*
X169724977Y-95866857D01*
X170015262Y-96931238D02*
X169047643Y-96931238D01*
X169047643Y-94899238D01*
X170015262Y-94899238D01*
X170595834Y-94899238D02*
X171756977Y-94899238D01*
X171176405Y-96931238D02*
X171176405Y-94899238D01*
X112695929Y-61117238D02*
X112695929Y-59085238D01*
X112695929Y-60052857D02*
X113857072Y-60052857D01*
X113857072Y-61117238D02*
X113857072Y-59085238D01*
X115502024Y-60052857D02*
X115792310Y-60149619D01*
X115889072Y-60246380D01*
X115985834Y-60439904D01*
X115985834Y-60730190D01*
X115889072Y-60923714D01*
X115792310Y-61020476D01*
X115598786Y-61117238D01*
X114824691Y-61117238D01*
X114824691Y-59085238D01*
X115502024Y-59085238D01*
X115695548Y-59182000D01*
X115792310Y-59278761D01*
X115889072Y-59472285D01*
X115889072Y-59665809D01*
X115792310Y-59859333D01*
X115695548Y-59956095D01*
X115502024Y-60052857D01*
X114824691Y-60052857D01*
X112502405Y-55021238D02*
X113760310Y-55021238D01*
X113082977Y-55795333D01*
X113373262Y-55795333D01*
X113566786Y-55892095D01*
X113663548Y-55988857D01*
X113760310Y-56182380D01*
X113760310Y-56666190D01*
X113663548Y-56859714D01*
X113566786Y-56956476D01*
X113373262Y-57053238D01*
X112792691Y-57053238D01*
X112599167Y-56956476D01*
X112502405Y-56859714D01*
X114340881Y-55021238D02*
X115018215Y-57053238D01*
X115695548Y-55021238D01*
X116179358Y-55021238D02*
X117437262Y-55021238D01*
X116759929Y-55795333D01*
X117050215Y-55795333D01*
X117243739Y-55892095D01*
X117340500Y-55988857D01*
X117437262Y-56182380D01*
X117437262Y-56666190D01*
X117340500Y-56859714D01*
X117243739Y-56956476D01*
X117050215Y-57053238D01*
X116469643Y-57053238D01*
X116276120Y-56956476D01*
X116179358Y-56859714D01*
X113663548Y-50957238D02*
X112695929Y-50957238D01*
X112599167Y-51924857D01*
X112695929Y-51828095D01*
X112889453Y-51731333D01*
X113373262Y-51731333D01*
X113566786Y-51828095D01*
X113663548Y-51924857D01*
X113760310Y-52118380D01*
X113760310Y-52602190D01*
X113663548Y-52795714D01*
X113566786Y-52892476D01*
X113373262Y-52989238D01*
X112889453Y-52989238D01*
X112695929Y-52892476D01*
X112599167Y-52795714D01*
X114340881Y-50957238D02*
X115018215Y-52989238D01*
X115695548Y-50957238D01*
X116759929Y-50957238D02*
X116953453Y-50957238D01*
X117146977Y-51054000D01*
X117243739Y-51150761D01*
X117340500Y-51344285D01*
X117437262Y-51731333D01*
X117437262Y-52215142D01*
X117340500Y-52602190D01*
X117243739Y-52795714D01*
X117146977Y-52892476D01*
X116953453Y-52989238D01*
X116759929Y-52989238D01*
X116566405Y-52892476D01*
X116469643Y-52795714D01*
X116372881Y-52602190D01*
X116276120Y-52215142D01*
X116276120Y-51731333D01*
X116372881Y-51344285D01*
X116469643Y-51150761D01*
X116566405Y-51054000D01*
X116759929Y-50957238D01*
D12*
%TO.C,TP3*%
X169612000Y-62148000D02*
X174812000Y-62148000D01*
X174812000Y-58248000D02*
X174812000Y-62148000D01*
X169612000Y-62148000D02*
X169612000Y-58248000D01*
X174812000Y-58248000D02*
X169612000Y-58248000D01*
%TO.C,C11*%
X157816733Y-80774000D02*
X158159267Y-80774000D01*
X157816733Y-79754000D02*
X158159267Y-79754000D01*
%TO.C,U3*%
X163720000Y-119974000D02*
X164170000Y-119974000D01*
X161400000Y-119974000D02*
X160950000Y-119974000D01*
X164170000Y-116754000D02*
X164170000Y-117204000D01*
X161400000Y-116754000D02*
X160950000Y-116754000D01*
X164170000Y-119974000D02*
X164170000Y-119524000D01*
X160950000Y-119974000D02*
X160950000Y-119524000D01*
X163720000Y-116754000D02*
X164170000Y-116754000D01*
%TO.C,Y1*%
X150540000Y-82344000D02*
X150540000Y-88344000D01*
X154260000Y-82344000D02*
X154260000Y-88344000D01*
%TO.C,U2*%
X158384000Y-77270000D02*
X158384000Y-78560000D01*
X157934000Y-77270000D02*
X158384000Y-77270000D01*
X157934000Y-76820000D02*
X157934000Y-77270000D01*
X157934000Y-70050000D02*
X158384000Y-70050000D01*
X157934000Y-70500000D02*
X157934000Y-70050000D01*
X165154000Y-77270000D02*
X164704000Y-77270000D01*
X165154000Y-76820000D02*
X165154000Y-77270000D01*
X165154000Y-70050000D02*
X164704000Y-70050000D01*
X165154000Y-70500000D02*
X165154000Y-70050000D01*
%TO.C,U1*%
X129626000Y-54748000D02*
X129626000Y-52298000D01*
X126406000Y-52948000D02*
X126406000Y-54748000D01*
%TO.C,TP4*%
X159960000Y-136570000D02*
X165160000Y-136570000D01*
X165160000Y-132670000D02*
X165160000Y-136570000D01*
X159960000Y-136570000D02*
X159960000Y-132670000D01*
X165160000Y-132670000D02*
X159960000Y-132670000D01*
%TO.C,TP2*%
X88310000Y-48828000D02*
X88310000Y-43628000D01*
X84410000Y-43628000D02*
X88310000Y-43628000D01*
X88310000Y-48828000D02*
X84410000Y-48828000D01*
X84410000Y-43628000D02*
X84410000Y-48828000D01*
%TO.C,SW10*%
X124015000Y-134485000D02*
X124015000Y-120515000D01*
X137985000Y-134485000D02*
X124015000Y-134485000D01*
X137985000Y-120515000D02*
X137985000Y-134485000D01*
X124015000Y-120515000D02*
X137985000Y-120515000D01*
%TO.C,SW9*%
X124015000Y-115485000D02*
X124015000Y-101515000D01*
X137985000Y-115485000D02*
X124015000Y-115485000D01*
X137985000Y-101515000D02*
X137985000Y-115485000D01*
X124015000Y-101515000D02*
X137985000Y-101515000D01*
%TO.C,SW8*%
X124015000Y-96393000D02*
X124015000Y-82423000D01*
X137985000Y-96393000D02*
X124015000Y-96393000D01*
X137985000Y-82423000D02*
X137985000Y-96393000D01*
X124015000Y-82423000D02*
X137985000Y-82423000D01*
%TO.C,SW7*%
X105015000Y-134485000D02*
X105015000Y-120515000D01*
X118985000Y-134485000D02*
X105015000Y-134485000D01*
X118985000Y-120515000D02*
X118985000Y-134485000D01*
X105015000Y-120515000D02*
X118985000Y-120515000D01*
%TO.C,SW6*%
X105015000Y-115485000D02*
X105015000Y-101515000D01*
X118985000Y-115485000D02*
X105015000Y-115485000D01*
X118985000Y-101515000D02*
X118985000Y-115485000D01*
X105015000Y-101515000D02*
X118985000Y-101515000D01*
%TO.C,SW5*%
X105015000Y-96393000D02*
X105015000Y-82423000D01*
X118985000Y-96393000D02*
X105015000Y-96393000D01*
X118985000Y-82423000D02*
X118985000Y-96393000D01*
X105015000Y-82423000D02*
X118985000Y-82423000D01*
%TO.C,SW4*%
X86015000Y-134485000D02*
X86015000Y-120515000D01*
X99985000Y-134485000D02*
X86015000Y-134485000D01*
X99985000Y-120515000D02*
X99985000Y-134485000D01*
X86015000Y-120515000D02*
X99985000Y-120515000D01*
%TO.C,SW3*%
X86015000Y-115485000D02*
X86015000Y-101515000D01*
X99985000Y-115485000D02*
X86015000Y-115485000D01*
X99985000Y-101515000D02*
X99985000Y-115485000D01*
X86015000Y-101515000D02*
X99985000Y-101515000D01*
%TO.C,SW2*%
X86015000Y-96393000D02*
X86015000Y-82423000D01*
X99985000Y-96393000D02*
X86015000Y-96393000D01*
X99985000Y-82423000D02*
X99985000Y-96393000D01*
X86015000Y-82423000D02*
X99985000Y-82423000D01*
%TO.C,SW1*%
X159694000Y-92274000D02*
X153234000Y-92274000D01*
X159694000Y-96804000D02*
X159694000Y-94204000D01*
X159694000Y-98734000D02*
X153234000Y-98734000D01*
X153234000Y-96804000D02*
X153234000Y-94204000D01*
X159694000Y-98704000D02*
X159694000Y-98734000D01*
X159694000Y-92274000D02*
X159694000Y-92304000D01*
X153234000Y-92274000D02*
X153234000Y-92304000D01*
X153234000Y-98734000D02*
X153234000Y-98704000D01*
%TO.C,SB20*%
X167468733Y-127002000D02*
X167811267Y-127002000D01*
X167468733Y-125982000D02*
X167811267Y-125982000D01*
%TO.C,SB19*%
X142242000Y-76117267D02*
X142242000Y-75774733D01*
X141222000Y-76117267D02*
X141222000Y-75774733D01*
%TO.C,SB18*%
X136480733Y-71376000D02*
X136823267Y-71376000D01*
X136480733Y-70356000D02*
X136823267Y-70356000D01*
%TO.C,SB17*%
X136480733Y-69344000D02*
X136823267Y-69344000D01*
X136480733Y-68324000D02*
X136823267Y-68324000D01*
%TO.C,SB16*%
X162050000Y-107016733D02*
X162050000Y-107359267D01*
X163070000Y-107016733D02*
X163070000Y-107359267D01*
%TO.C,SB15*%
X164082000Y-107016733D02*
X164082000Y-107359267D01*
X165102000Y-107016733D02*
X165102000Y-107359267D01*
%TO.C,SB14*%
X160018000Y-107016733D02*
X160018000Y-107359267D01*
X161038000Y-107016733D02*
X161038000Y-107359267D01*
%TO.C,SB13*%
X165436733Y-112270000D02*
X165779267Y-112270000D01*
X165436733Y-111250000D02*
X165779267Y-111250000D01*
%TO.C,SB12*%
X147322000Y-52749267D02*
X147322000Y-52406733D01*
X146302000Y-52749267D02*
X146302000Y-52406733D01*
%TO.C,SB11*%
X156127267Y-59434000D02*
X155784733Y-59434000D01*
X156127267Y-60454000D02*
X155784733Y-60454000D01*
%TO.C,SB10*%
X150031267Y-59434000D02*
X149688733Y-59434000D01*
X150031267Y-60454000D02*
X149688733Y-60454000D01*
%TO.C,SB9*%
X120224733Y-65280000D02*
X120567267Y-65280000D01*
X120224733Y-64260000D02*
X120567267Y-64260000D01*
%TO.C,SB8*%
X120224733Y-67058000D02*
X120567267Y-67058000D01*
X120224733Y-66038000D02*
X120567267Y-66038000D01*
%TO.C,SB7*%
X169166000Y-52495267D02*
X169166000Y-52152733D01*
X168146000Y-52495267D02*
X168146000Y-52152733D01*
%TO.C,SB6*%
X160530000Y-52495267D02*
X160530000Y-52152733D01*
X159510000Y-52495267D02*
X159510000Y-52152733D01*
%TO.C,SB5*%
X135126000Y-55708733D02*
X135126000Y-56051267D01*
X136146000Y-55708733D02*
X136146000Y-56051267D01*
%TO.C,SB4*%
X156800733Y-86870000D02*
X157143267Y-86870000D01*
X156800733Y-85850000D02*
X157143267Y-85850000D01*
%TO.C,SB3*%
X156800733Y-84838000D02*
X157143267Y-84838000D01*
X156800733Y-83818000D02*
X157143267Y-83818000D01*
%TO.C,SB2*%
X127844733Y-48770000D02*
X128187267Y-48770000D01*
X127844733Y-47750000D02*
X128187267Y-47750000D01*
%TO.C,SB1*%
X163324000Y-84499267D02*
X163324000Y-84156733D01*
X162304000Y-84499267D02*
X162304000Y-84156733D01*
%TO.C,R14*%
X149688733Y-58676000D02*
X150031267Y-58676000D01*
X149688733Y-57656000D02*
X150031267Y-57656000D01*
%TO.C,R13*%
X155784733Y-58676000D02*
X156127267Y-58676000D01*
X155784733Y-57656000D02*
X156127267Y-57656000D01*
%TO.C,R11*%
X144274000Y-76117267D02*
X144274000Y-75774733D01*
X143254000Y-76117267D02*
X143254000Y-75774733D01*
%TO.C,R10*%
X140210000Y-76117267D02*
X140210000Y-75774733D01*
X139190000Y-76117267D02*
X139190000Y-75774733D01*
%TO.C,R9*%
X136480733Y-73408000D02*
X136823267Y-73408000D01*
X136480733Y-72388000D02*
X136823267Y-72388000D01*
%TO.C,R8*%
X173056733Y-74678000D02*
X173399267Y-74678000D01*
X173056733Y-73658000D02*
X173399267Y-73658000D01*
%TO.C,R7*%
X173056733Y-77726000D02*
X173399267Y-77726000D01*
X173056733Y-76706000D02*
X173399267Y-76706000D01*
%TO.C,R6*%
X159340733Y-113794000D02*
X159683267Y-113794000D01*
X159340733Y-112774000D02*
X159683267Y-112774000D01*
%TO.C,R5*%
X109810733Y-62740000D02*
X110153267Y-62740000D01*
X109810733Y-61720000D02*
X110153267Y-61720000D01*
%TO.C,R4*%
X150878000Y-77387267D02*
X150878000Y-77044733D01*
X149858000Y-77387267D02*
X149858000Y-77044733D01*
%TO.C,R3*%
X152144000Y-77044733D02*
X152144000Y-77387267D01*
X153164000Y-77044733D02*
X153164000Y-77387267D01*
%TO.C,R2*%
X109810733Y-58676000D02*
X110153267Y-58676000D01*
X109810733Y-57656000D02*
X110153267Y-57656000D01*
%TO.C,R1*%
X109810733Y-54612000D02*
X110153267Y-54612000D01*
X109810733Y-53592000D02*
X110153267Y-53592000D01*
%TO.C,LED4*%
X164910000Y-124692000D02*
X160010000Y-124692000D01*
X160010000Y-128292000D02*
X164910000Y-128292000D01*
X160010000Y-124692000D02*
X160010000Y-125592000D01*
%TO.C,LED3*%
X109810733Y-60708000D02*
X110153267Y-60708000D01*
X109810733Y-59688000D02*
X110153267Y-59688000D01*
%TO.C,LED2*%
X109810733Y-56644000D02*
X110153267Y-56644000D01*
X109810733Y-55624000D02*
X110153267Y-55624000D01*
%TO.C,LED1*%
X109810733Y-52580000D02*
X110153267Y-52580000D01*
X109810733Y-51560000D02*
X110153267Y-51560000D01*
%TO.C,CN3*%
X161738000Y-50486000D02*
X163068000Y-50486000D01*
X161738000Y-51816000D02*
X161738000Y-50486000D01*
X164338000Y-50486000D02*
X166938000Y-50486000D01*
X164338000Y-53086000D02*
X164338000Y-50486000D01*
X161738000Y-53086000D02*
X164338000Y-53086000D01*
X166938000Y-50486000D02*
X166938000Y-55686000D01*
X161738000Y-53086000D02*
X161738000Y-55686000D01*
X161738000Y-55686000D02*
X166938000Y-55686000D01*
%TO.C,CN2*%
X156270000Y-50486000D02*
X156270000Y-51816000D01*
X154940000Y-50486000D02*
X156270000Y-50486000D01*
X156270000Y-53086000D02*
X156270000Y-55686000D01*
X153670000Y-53086000D02*
X156270000Y-53086000D01*
X153670000Y-50486000D02*
X153670000Y-53086000D01*
X156270000Y-55686000D02*
X148530000Y-55686000D01*
X153670000Y-50486000D02*
X148530000Y-50486000D01*
X148530000Y-50486000D02*
X148530000Y-55686000D01*
D13*
%TO.C,CN1*%
X91339000Y-49508000D02*
X100589000Y-49508000D01*
X91489000Y-42848000D02*
X100439000Y-42848000D01*
X100444000Y-51258000D02*
X100439000Y-52018000D01*
X91489000Y-52018000D02*
X100439000Y-52018000D01*
X91489000Y-52018000D02*
X91484000Y-51258000D01*
X95964000Y-49508000D02*
X95964000Y-48238000D01*
D12*
%TO.C,C13*%
X157990000Y-116273733D02*
X157990000Y-116616267D01*
X156970000Y-116273733D02*
X156970000Y-116616267D01*
%TO.C,C12*%
X165779267Y-113282000D02*
X165436733Y-113282000D01*
X165779267Y-114302000D02*
X165436733Y-114302000D01*
%TO.C,C10*%
X131062000Y-53676733D02*
X131062000Y-54019267D01*
X132082000Y-53676733D02*
X132082000Y-54019267D01*
%TO.C,C9*%
X164082000Y-80943267D02*
X164082000Y-80600733D01*
X165102000Y-80943267D02*
X165102000Y-80600733D01*
%TO.C,C8*%
X149862000Y-88055267D02*
X149862000Y-87712733D01*
X148842000Y-88055267D02*
X148842000Y-87712733D01*
%TO.C,C7*%
X148842000Y-82632733D02*
X148842000Y-82975267D01*
X149862000Y-82632733D02*
X149862000Y-82975267D01*
%TO.C,C6*%
X156635267Y-67562000D02*
X156292733Y-67562000D01*
X156635267Y-68582000D02*
X156292733Y-68582000D01*
%TO.C,C5*%
X154430000Y-77044733D02*
X154430000Y-77387267D01*
X155450000Y-77044733D02*
X155450000Y-77387267D01*
%TO.C,C4*%
X125224000Y-49447267D02*
X125224000Y-49104733D01*
X124204000Y-49447267D02*
X124204000Y-49104733D01*
%TO.C,C3*%
X167638000Y-69400267D02*
X167638000Y-69057733D01*
X168658000Y-69400267D02*
X168658000Y-69057733D01*
%TO.C,C2*%
X123138000Y-49664252D02*
X123138000Y-49141748D01*
X121718000Y-49664252D02*
X121718000Y-49141748D01*
%TO.C,C1*%
X149862000Y-95167267D02*
X149862000Y-94824733D01*
X148842000Y-95167267D02*
X148842000Y-94824733D01*
%TO.C,TP3*%
D13*
X170950095Y-62698380D02*
X171521523Y-62698380D01*
X171235809Y-63698380D02*
X171235809Y-62698380D01*
X171854857Y-63698380D02*
X171854857Y-62698380D01*
X172235809Y-62698380D01*
X172331047Y-62746000D01*
X172378666Y-62793619D01*
X172426285Y-62888857D01*
X172426285Y-63031714D01*
X172378666Y-63126952D01*
X172331047Y-63174571D01*
X172235809Y-63222190D01*
X171854857Y-63222190D01*
X172759619Y-62698380D02*
X173378666Y-62698380D01*
X173045333Y-63079333D01*
X173188190Y-63079333D01*
X173283428Y-63126952D01*
X173331047Y-63174571D01*
X173378666Y-63269809D01*
X173378666Y-63507904D01*
X173331047Y-63603142D01*
X173283428Y-63650761D01*
X173188190Y-63698380D01*
X172902476Y-63698380D01*
X172807238Y-63650761D01*
X172759619Y-63603142D01*
%TO.C,C11*%
X160645142Y-80585142D02*
X160597523Y-80632761D01*
X160454666Y-80680380D01*
X160359428Y-80680380D01*
X160216571Y-80632761D01*
X160121333Y-80537523D01*
X160073714Y-80442285D01*
X160026095Y-80251809D01*
X160026095Y-80108952D01*
X160073714Y-79918476D01*
X160121333Y-79823238D01*
X160216571Y-79728000D01*
X160359428Y-79680380D01*
X160454666Y-79680380D01*
X160597523Y-79728000D01*
X160645142Y-79775619D01*
X161597523Y-80680380D02*
X161026095Y-80680380D01*
X161311809Y-80680380D02*
X161311809Y-79680380D01*
X161216571Y-79823238D01*
X161121333Y-79918476D01*
X161026095Y-79966095D01*
X162549904Y-80680380D02*
X161978476Y-80680380D01*
X162264190Y-80680380D02*
X162264190Y-79680380D01*
X162168952Y-79823238D01*
X162073714Y-79918476D01*
X161978476Y-79966095D01*
%TO.C,TP14*%
X123229904Y-61682380D02*
X123801333Y-61682380D01*
X123515619Y-62682380D02*
X123515619Y-61682380D01*
X124134666Y-62682380D02*
X124134666Y-61682380D01*
X124515619Y-61682380D01*
X124610857Y-61730000D01*
X124658476Y-61777619D01*
X124706095Y-61872857D01*
X124706095Y-62015714D01*
X124658476Y-62110952D01*
X124610857Y-62158571D01*
X124515619Y-62206190D01*
X124134666Y-62206190D01*
X125658476Y-62682380D02*
X125087047Y-62682380D01*
X125372761Y-62682380D02*
X125372761Y-61682380D01*
X125277523Y-61825238D01*
X125182285Y-61920476D01*
X125087047Y-61968095D01*
X126515619Y-62015714D02*
X126515619Y-62682380D01*
X126277523Y-61634761D02*
X126039428Y-62349047D01*
X126658476Y-62349047D01*
%TO.C,TP13*%
X123229904Y-68540380D02*
X123801333Y-68540380D01*
X123515619Y-69540380D02*
X123515619Y-68540380D01*
X124134666Y-69540380D02*
X124134666Y-68540380D01*
X124515619Y-68540380D01*
X124610857Y-68588000D01*
X124658476Y-68635619D01*
X124706095Y-68730857D01*
X124706095Y-68873714D01*
X124658476Y-68968952D01*
X124610857Y-69016571D01*
X124515619Y-69064190D01*
X124134666Y-69064190D01*
X125658476Y-69540380D02*
X125087047Y-69540380D01*
X125372761Y-69540380D02*
X125372761Y-68540380D01*
X125277523Y-68683238D01*
X125182285Y-68778476D01*
X125087047Y-68826095D01*
X125991809Y-68540380D02*
X126610857Y-68540380D01*
X126277523Y-68921333D01*
X126420380Y-68921333D01*
X126515619Y-68968952D01*
X126563238Y-69016571D01*
X126610857Y-69111809D01*
X126610857Y-69349904D01*
X126563238Y-69445142D01*
X126515619Y-69492761D01*
X126420380Y-69540380D01*
X126134666Y-69540380D01*
X126039428Y-69492761D01*
X125991809Y-69445142D01*
%TO.C,U3*%
X161798095Y-114816380D02*
X161798095Y-115625904D01*
X161845714Y-115721142D01*
X161893333Y-115768761D01*
X161988571Y-115816380D01*
X162179047Y-115816380D01*
X162274285Y-115768761D01*
X162321904Y-115721142D01*
X162369523Y-115625904D01*
X162369523Y-114816380D01*
X162750476Y-114816380D02*
X163369523Y-114816380D01*
X163036190Y-115197333D01*
X163179047Y-115197333D01*
X163274285Y-115244952D01*
X163321904Y-115292571D01*
X163369523Y-115387809D01*
X163369523Y-115625904D01*
X163321904Y-115721142D01*
X163274285Y-115768761D01*
X163179047Y-115816380D01*
X162893333Y-115816380D01*
X162798095Y-115768761D01*
X162750476Y-115721142D01*
%TO.C,Y1*%
X151923809Y-90654190D02*
X151923809Y-91130380D01*
X151590476Y-90130380D02*
X151923809Y-90654190D01*
X152257142Y-90130380D01*
X153114285Y-91130380D02*
X152542857Y-91130380D01*
X152828571Y-91130380D02*
X152828571Y-90130380D01*
X152733333Y-90273238D01*
X152638095Y-90368476D01*
X152542857Y-90416095D01*
%TO.C,U2*%
X165862095Y-77684380D02*
X165862095Y-78493904D01*
X165909714Y-78589142D01*
X165957333Y-78636761D01*
X166052571Y-78684380D01*
X166243047Y-78684380D01*
X166338285Y-78636761D01*
X166385904Y-78589142D01*
X166433523Y-78493904D01*
X166433523Y-77684380D01*
X166862095Y-77779619D02*
X166909714Y-77732000D01*
X167004952Y-77684380D01*
X167243047Y-77684380D01*
X167338285Y-77732000D01*
X167385904Y-77779619D01*
X167433523Y-77874857D01*
X167433523Y-77970095D01*
X167385904Y-78112952D01*
X166814476Y-78684380D01*
X167433523Y-78684380D01*
%TO.C,U1*%
X126238095Y-56348380D02*
X126238095Y-57157904D01*
X126285714Y-57253142D01*
X126333333Y-57300761D01*
X126428571Y-57348380D01*
X126619047Y-57348380D01*
X126714285Y-57300761D01*
X126761904Y-57253142D01*
X126809523Y-57157904D01*
X126809523Y-56348380D01*
X127809523Y-57348380D02*
X127238095Y-57348380D01*
X127523809Y-57348380D02*
X127523809Y-56348380D01*
X127428571Y-56491238D01*
X127333333Y-56586476D01*
X127238095Y-56634095D01*
%TO.C,TP17*%
X153201904Y-127976380D02*
X153773333Y-127976380D01*
X153487619Y-128976380D02*
X153487619Y-127976380D01*
X154106666Y-128976380D02*
X154106666Y-127976380D01*
X154487619Y-127976380D01*
X154582857Y-128024000D01*
X154630476Y-128071619D01*
X154678095Y-128166857D01*
X154678095Y-128309714D01*
X154630476Y-128404952D01*
X154582857Y-128452571D01*
X154487619Y-128500190D01*
X154106666Y-128500190D01*
X155630476Y-128976380D02*
X155059047Y-128976380D01*
X155344761Y-128976380D02*
X155344761Y-127976380D01*
X155249523Y-128119238D01*
X155154285Y-128214476D01*
X155059047Y-128262095D01*
X155963809Y-127976380D02*
X156630476Y-127976380D01*
X156201904Y-128976380D01*
%TO.C,TP16*%
X153201904Y-125944380D02*
X153773333Y-125944380D01*
X153487619Y-126944380D02*
X153487619Y-125944380D01*
X154106666Y-126944380D02*
X154106666Y-125944380D01*
X154487619Y-125944380D01*
X154582857Y-125992000D01*
X154630476Y-126039619D01*
X154678095Y-126134857D01*
X154678095Y-126277714D01*
X154630476Y-126372952D01*
X154582857Y-126420571D01*
X154487619Y-126468190D01*
X154106666Y-126468190D01*
X155630476Y-126944380D02*
X155059047Y-126944380D01*
X155344761Y-126944380D02*
X155344761Y-125944380D01*
X155249523Y-126087238D01*
X155154285Y-126182476D01*
X155059047Y-126230095D01*
X156487619Y-125944380D02*
X156297142Y-125944380D01*
X156201904Y-125992000D01*
X156154285Y-126039619D01*
X156059047Y-126182476D01*
X156011428Y-126372952D01*
X156011428Y-126753904D01*
X156059047Y-126849142D01*
X156106666Y-126896761D01*
X156201904Y-126944380D01*
X156392380Y-126944380D01*
X156487619Y-126896761D01*
X156535238Y-126849142D01*
X156582857Y-126753904D01*
X156582857Y-126515809D01*
X156535238Y-126420571D01*
X156487619Y-126372952D01*
X156392380Y-126325333D01*
X156201904Y-126325333D01*
X156106666Y-126372952D01*
X156059047Y-126420571D01*
X156011428Y-126515809D01*
%TO.C,TP15*%
X153201904Y-123912380D02*
X153773333Y-123912380D01*
X153487619Y-124912380D02*
X153487619Y-123912380D01*
X154106666Y-124912380D02*
X154106666Y-123912380D01*
X154487619Y-123912380D01*
X154582857Y-123960000D01*
X154630476Y-124007619D01*
X154678095Y-124102857D01*
X154678095Y-124245714D01*
X154630476Y-124340952D01*
X154582857Y-124388571D01*
X154487619Y-124436190D01*
X154106666Y-124436190D01*
X155630476Y-124912380D02*
X155059047Y-124912380D01*
X155344761Y-124912380D02*
X155344761Y-123912380D01*
X155249523Y-124055238D01*
X155154285Y-124150476D01*
X155059047Y-124198095D01*
X156535238Y-123912380D02*
X156059047Y-123912380D01*
X156011428Y-124388571D01*
X156059047Y-124340952D01*
X156154285Y-124293333D01*
X156392380Y-124293333D01*
X156487619Y-124340952D01*
X156535238Y-124388571D01*
X156582857Y-124483809D01*
X156582857Y-124721904D01*
X156535238Y-124817142D01*
X156487619Y-124864761D01*
X156392380Y-124912380D01*
X156154285Y-124912380D01*
X156059047Y-124864761D01*
X156011428Y-124817142D01*
%TO.C,TP12*%
X164377904Y-66254380D02*
X164949333Y-66254380D01*
X164663619Y-67254380D02*
X164663619Y-66254380D01*
X165282666Y-67254380D02*
X165282666Y-66254380D01*
X165663619Y-66254380D01*
X165758857Y-66302000D01*
X165806476Y-66349619D01*
X165854095Y-66444857D01*
X165854095Y-66587714D01*
X165806476Y-66682952D01*
X165758857Y-66730571D01*
X165663619Y-66778190D01*
X165282666Y-66778190D01*
X166806476Y-67254380D02*
X166235047Y-67254380D01*
X166520761Y-67254380D02*
X166520761Y-66254380D01*
X166425523Y-66397238D01*
X166330285Y-66492476D01*
X166235047Y-66540095D01*
X167187428Y-66349619D02*
X167235047Y-66302000D01*
X167330285Y-66254380D01*
X167568380Y-66254380D01*
X167663619Y-66302000D01*
X167711238Y-66349619D01*
X167758857Y-66444857D01*
X167758857Y-66540095D01*
X167711238Y-66682952D01*
X167139809Y-67254380D01*
X167758857Y-67254380D01*
%TO.C,TP9*%
X157742095Y-100036380D02*
X158313523Y-100036380D01*
X158027809Y-101036380D02*
X158027809Y-100036380D01*
X158646857Y-101036380D02*
X158646857Y-100036380D01*
X159027809Y-100036380D01*
X159123047Y-100084000D01*
X159170666Y-100131619D01*
X159218285Y-100226857D01*
X159218285Y-100369714D01*
X159170666Y-100464952D01*
X159123047Y-100512571D01*
X159027809Y-100560190D01*
X158646857Y-100560190D01*
X159694476Y-101036380D02*
X159884952Y-101036380D01*
X159980190Y-100988761D01*
X160027809Y-100941142D01*
X160123047Y-100798285D01*
X160170666Y-100607809D01*
X160170666Y-100226857D01*
X160123047Y-100131619D01*
X160075428Y-100084000D01*
X159980190Y-100036380D01*
X159789714Y-100036380D01*
X159694476Y-100084000D01*
X159646857Y-100131619D01*
X159599238Y-100226857D01*
X159599238Y-100464952D01*
X159646857Y-100560190D01*
X159694476Y-100607809D01*
X159789714Y-100655428D01*
X159980190Y-100655428D01*
X160075428Y-100607809D01*
X160123047Y-100560190D01*
X160170666Y-100464952D01*
%TO.C,TP11*%
X161837904Y-100036380D02*
X162409333Y-100036380D01*
X162123619Y-101036380D02*
X162123619Y-100036380D01*
X162742666Y-101036380D02*
X162742666Y-100036380D01*
X163123619Y-100036380D01*
X163218857Y-100084000D01*
X163266476Y-100131619D01*
X163314095Y-100226857D01*
X163314095Y-100369714D01*
X163266476Y-100464952D01*
X163218857Y-100512571D01*
X163123619Y-100560190D01*
X162742666Y-100560190D01*
X164266476Y-101036380D02*
X163695047Y-101036380D01*
X163980761Y-101036380D02*
X163980761Y-100036380D01*
X163885523Y-100179238D01*
X163790285Y-100274476D01*
X163695047Y-100322095D01*
X165218857Y-101036380D02*
X164647428Y-101036380D01*
X164933142Y-101036380D02*
X164933142Y-100036380D01*
X164837904Y-100179238D01*
X164742666Y-100274476D01*
X164647428Y-100322095D01*
%TO.C,TP10*%
X166409904Y-100036380D02*
X166981333Y-100036380D01*
X166695619Y-101036380D02*
X166695619Y-100036380D01*
X167314666Y-101036380D02*
X167314666Y-100036380D01*
X167695619Y-100036380D01*
X167790857Y-100084000D01*
X167838476Y-100131619D01*
X167886095Y-100226857D01*
X167886095Y-100369714D01*
X167838476Y-100464952D01*
X167790857Y-100512571D01*
X167695619Y-100560190D01*
X167314666Y-100560190D01*
X168838476Y-101036380D02*
X168267047Y-101036380D01*
X168552761Y-101036380D02*
X168552761Y-100036380D01*
X168457523Y-100179238D01*
X168362285Y-100274476D01*
X168267047Y-100322095D01*
X169457523Y-100036380D02*
X169552761Y-100036380D01*
X169648000Y-100084000D01*
X169695619Y-100131619D01*
X169743238Y-100226857D01*
X169790857Y-100417333D01*
X169790857Y-100655428D01*
X169743238Y-100845904D01*
X169695619Y-100941142D01*
X169648000Y-100988761D01*
X169552761Y-101036380D01*
X169457523Y-101036380D01*
X169362285Y-100988761D01*
X169314666Y-100941142D01*
X169267047Y-100845904D01*
X169219428Y-100655428D01*
X169219428Y-100417333D01*
X169267047Y-100226857D01*
X169314666Y-100131619D01*
X169362285Y-100084000D01*
X169457523Y-100036380D01*
%TO.C,TP8*%
X151392095Y-72350380D02*
X151963523Y-72350380D01*
X151677809Y-73350380D02*
X151677809Y-72350380D01*
X152296857Y-73350380D02*
X152296857Y-72350380D01*
X152677809Y-72350380D01*
X152773047Y-72398000D01*
X152820666Y-72445619D01*
X152868285Y-72540857D01*
X152868285Y-72683714D01*
X152820666Y-72778952D01*
X152773047Y-72826571D01*
X152677809Y-72874190D01*
X152296857Y-72874190D01*
X153439714Y-72778952D02*
X153344476Y-72731333D01*
X153296857Y-72683714D01*
X153249238Y-72588476D01*
X153249238Y-72540857D01*
X153296857Y-72445619D01*
X153344476Y-72398000D01*
X153439714Y-72350380D01*
X153630190Y-72350380D01*
X153725428Y-72398000D01*
X153773047Y-72445619D01*
X153820666Y-72540857D01*
X153820666Y-72588476D01*
X153773047Y-72683714D01*
X153725428Y-72731333D01*
X153630190Y-72778952D01*
X153439714Y-72778952D01*
X153344476Y-72826571D01*
X153296857Y-72874190D01*
X153249238Y-72969428D01*
X153249238Y-73159904D01*
X153296857Y-73255142D01*
X153344476Y-73302761D01*
X153439714Y-73350380D01*
X153630190Y-73350380D01*
X153725428Y-73302761D01*
X153773047Y-73255142D01*
X153820666Y-73159904D01*
X153820666Y-72969428D01*
X153773047Y-72874190D01*
X153725428Y-72826571D01*
X153630190Y-72778952D01*
%TO.C,TP7*%
X142502095Y-54824380D02*
X143073523Y-54824380D01*
X142787809Y-55824380D02*
X142787809Y-54824380D01*
X143406857Y-55824380D02*
X143406857Y-54824380D01*
X143787809Y-54824380D01*
X143883047Y-54872000D01*
X143930666Y-54919619D01*
X143978285Y-55014857D01*
X143978285Y-55157714D01*
X143930666Y-55252952D01*
X143883047Y-55300571D01*
X143787809Y-55348190D01*
X143406857Y-55348190D01*
X144311619Y-54824380D02*
X144978285Y-54824380D01*
X144549714Y-55824380D01*
%TO.C,TP6*%
X137422095Y-54824380D02*
X137993523Y-54824380D01*
X137707809Y-55824380D02*
X137707809Y-54824380D01*
X138326857Y-55824380D02*
X138326857Y-54824380D01*
X138707809Y-54824380D01*
X138803047Y-54872000D01*
X138850666Y-54919619D01*
X138898285Y-55014857D01*
X138898285Y-55157714D01*
X138850666Y-55252952D01*
X138803047Y-55300571D01*
X138707809Y-55348190D01*
X138326857Y-55348190D01*
X139755428Y-54824380D02*
X139564952Y-54824380D01*
X139469714Y-54872000D01*
X139422095Y-54919619D01*
X139326857Y-55062476D01*
X139279238Y-55252952D01*
X139279238Y-55633904D01*
X139326857Y-55729142D01*
X139374476Y-55776761D01*
X139469714Y-55824380D01*
X139660190Y-55824380D01*
X139755428Y-55776761D01*
X139803047Y-55729142D01*
X139850666Y-55633904D01*
X139850666Y-55395809D01*
X139803047Y-55300571D01*
X139755428Y-55252952D01*
X139660190Y-55205333D01*
X139469714Y-55205333D01*
X139374476Y-55252952D01*
X139326857Y-55300571D01*
X139279238Y-55395809D01*
%TO.C,TP5*%
X134374095Y-50252380D02*
X134945523Y-50252380D01*
X134659809Y-51252380D02*
X134659809Y-50252380D01*
X135278857Y-51252380D02*
X135278857Y-50252380D01*
X135659809Y-50252380D01*
X135755047Y-50300000D01*
X135802666Y-50347619D01*
X135850285Y-50442857D01*
X135850285Y-50585714D01*
X135802666Y-50680952D01*
X135755047Y-50728571D01*
X135659809Y-50776190D01*
X135278857Y-50776190D01*
X136755047Y-50252380D02*
X136278857Y-50252380D01*
X136231238Y-50728571D01*
X136278857Y-50680952D01*
X136374095Y-50633333D01*
X136612190Y-50633333D01*
X136707428Y-50680952D01*
X136755047Y-50728571D01*
X136802666Y-50823809D01*
X136802666Y-51061904D01*
X136755047Y-51157142D01*
X136707428Y-51204761D01*
X136612190Y-51252380D01*
X136374095Y-51252380D01*
X136278857Y-51204761D01*
X136231238Y-51157142D01*
%TO.C,TP4*%
X161298095Y-131322380D02*
X161869523Y-131322380D01*
X161583809Y-132322380D02*
X161583809Y-131322380D01*
X162202857Y-132322380D02*
X162202857Y-131322380D01*
X162583809Y-131322380D01*
X162679047Y-131370000D01*
X162726666Y-131417619D01*
X162774285Y-131512857D01*
X162774285Y-131655714D01*
X162726666Y-131750952D01*
X162679047Y-131798571D01*
X162583809Y-131846190D01*
X162202857Y-131846190D01*
X163631428Y-131655714D02*
X163631428Y-132322380D01*
X163393333Y-131274761D02*
X163155238Y-131989047D01*
X163774285Y-131989047D01*
%TO.C,TP2*%
X85098095Y-42124380D02*
X85669523Y-42124380D01*
X85383809Y-43124380D02*
X85383809Y-42124380D01*
X86002857Y-43124380D02*
X86002857Y-42124380D01*
X86383809Y-42124380D01*
X86479047Y-42172000D01*
X86526666Y-42219619D01*
X86574285Y-42314857D01*
X86574285Y-42457714D01*
X86526666Y-42552952D01*
X86479047Y-42600571D01*
X86383809Y-42648190D01*
X86002857Y-42648190D01*
X86955238Y-42219619D02*
X87002857Y-42172000D01*
X87098095Y-42124380D01*
X87336190Y-42124380D01*
X87431428Y-42172000D01*
X87479047Y-42219619D01*
X87526666Y-42314857D01*
X87526666Y-42410095D01*
X87479047Y-42552952D01*
X86907619Y-43124380D01*
X87526666Y-43124380D01*
%TO.C,TP1*%
X108212095Y-43140380D02*
X108783523Y-43140380D01*
X108497809Y-44140380D02*
X108497809Y-43140380D01*
X109116857Y-44140380D02*
X109116857Y-43140380D01*
X109497809Y-43140380D01*
X109593047Y-43188000D01*
X109640666Y-43235619D01*
X109688285Y-43330857D01*
X109688285Y-43473714D01*
X109640666Y-43568952D01*
X109593047Y-43616571D01*
X109497809Y-43664190D01*
X109116857Y-43664190D01*
X110640666Y-44140380D02*
X110069238Y-44140380D01*
X110354952Y-44140380D02*
X110354952Y-43140380D01*
X110259714Y-43283238D01*
X110164476Y-43378476D01*
X110069238Y-43426095D01*
%TO.C,SW10*%
X129190476Y-120030761D02*
X129333333Y-120078380D01*
X129571428Y-120078380D01*
X129666666Y-120030761D01*
X129714285Y-119983142D01*
X129761904Y-119887904D01*
X129761904Y-119792666D01*
X129714285Y-119697428D01*
X129666666Y-119649809D01*
X129571428Y-119602190D01*
X129380952Y-119554571D01*
X129285714Y-119506952D01*
X129238095Y-119459333D01*
X129190476Y-119364095D01*
X129190476Y-119268857D01*
X129238095Y-119173619D01*
X129285714Y-119126000D01*
X129380952Y-119078380D01*
X129619047Y-119078380D01*
X129761904Y-119126000D01*
X130095238Y-119078380D02*
X130333333Y-120078380D01*
X130523809Y-119364095D01*
X130714285Y-120078380D01*
X130952380Y-119078380D01*
X131857142Y-120078380D02*
X131285714Y-120078380D01*
X131571428Y-120078380D02*
X131571428Y-119078380D01*
X131476190Y-119221238D01*
X131380952Y-119316476D01*
X131285714Y-119364095D01*
X132476190Y-119078380D02*
X132571428Y-119078380D01*
X132666666Y-119126000D01*
X132714285Y-119173619D01*
X132761904Y-119268857D01*
X132809523Y-119459333D01*
X132809523Y-119697428D01*
X132761904Y-119887904D01*
X132714285Y-119983142D01*
X132666666Y-120030761D01*
X132571428Y-120078380D01*
X132476190Y-120078380D01*
X132380952Y-120030761D01*
X132333333Y-119983142D01*
X132285714Y-119887904D01*
X132238095Y-119697428D01*
X132238095Y-119459333D01*
X132285714Y-119268857D01*
X132333333Y-119173619D01*
X132380952Y-119126000D01*
X132476190Y-119078380D01*
%TO.C,SW9*%
X129666666Y-101030761D02*
X129809523Y-101078380D01*
X130047619Y-101078380D01*
X130142857Y-101030761D01*
X130190476Y-100983142D01*
X130238095Y-100887904D01*
X130238095Y-100792666D01*
X130190476Y-100697428D01*
X130142857Y-100649809D01*
X130047619Y-100602190D01*
X129857142Y-100554571D01*
X129761904Y-100506952D01*
X129714285Y-100459333D01*
X129666666Y-100364095D01*
X129666666Y-100268857D01*
X129714285Y-100173619D01*
X129761904Y-100126000D01*
X129857142Y-100078380D01*
X130095238Y-100078380D01*
X130238095Y-100126000D01*
X130571428Y-100078380D02*
X130809523Y-101078380D01*
X131000000Y-100364095D01*
X131190476Y-101078380D01*
X131428571Y-100078380D01*
X131857142Y-101078380D02*
X132047619Y-101078380D01*
X132142857Y-101030761D01*
X132190476Y-100983142D01*
X132285714Y-100840285D01*
X132333333Y-100649809D01*
X132333333Y-100268857D01*
X132285714Y-100173619D01*
X132238095Y-100126000D01*
X132142857Y-100078380D01*
X131952380Y-100078380D01*
X131857142Y-100126000D01*
X131809523Y-100173619D01*
X131761904Y-100268857D01*
X131761904Y-100506952D01*
X131809523Y-100602190D01*
X131857142Y-100649809D01*
X131952380Y-100697428D01*
X132142857Y-100697428D01*
X132238095Y-100649809D01*
X132285714Y-100602190D01*
X132333333Y-100506952D01*
%TO.C,SW8*%
X129666666Y-81938761D02*
X129809523Y-81986380D01*
X130047619Y-81986380D01*
X130142857Y-81938761D01*
X130190476Y-81891142D01*
X130238095Y-81795904D01*
X130238095Y-81700666D01*
X130190476Y-81605428D01*
X130142857Y-81557809D01*
X130047619Y-81510190D01*
X129857142Y-81462571D01*
X129761904Y-81414952D01*
X129714285Y-81367333D01*
X129666666Y-81272095D01*
X129666666Y-81176857D01*
X129714285Y-81081619D01*
X129761904Y-81034000D01*
X129857142Y-80986380D01*
X130095238Y-80986380D01*
X130238095Y-81034000D01*
X130571428Y-80986380D02*
X130809523Y-81986380D01*
X131000000Y-81272095D01*
X131190476Y-81986380D01*
X131428571Y-80986380D01*
X131952380Y-81414952D02*
X131857142Y-81367333D01*
X131809523Y-81319714D01*
X131761904Y-81224476D01*
X131761904Y-81176857D01*
X131809523Y-81081619D01*
X131857142Y-81034000D01*
X131952380Y-80986380D01*
X132142857Y-80986380D01*
X132238095Y-81034000D01*
X132285714Y-81081619D01*
X132333333Y-81176857D01*
X132333333Y-81224476D01*
X132285714Y-81319714D01*
X132238095Y-81367333D01*
X132142857Y-81414952D01*
X131952380Y-81414952D01*
X131857142Y-81462571D01*
X131809523Y-81510190D01*
X131761904Y-81605428D01*
X131761904Y-81795904D01*
X131809523Y-81891142D01*
X131857142Y-81938761D01*
X131952380Y-81986380D01*
X132142857Y-81986380D01*
X132238095Y-81938761D01*
X132285714Y-81891142D01*
X132333333Y-81795904D01*
X132333333Y-81605428D01*
X132285714Y-81510190D01*
X132238095Y-81462571D01*
X132142857Y-81414952D01*
%TO.C,SW7*%
X110666666Y-120030761D02*
X110809523Y-120078380D01*
X111047619Y-120078380D01*
X111142857Y-120030761D01*
X111190476Y-119983142D01*
X111238095Y-119887904D01*
X111238095Y-119792666D01*
X111190476Y-119697428D01*
X111142857Y-119649809D01*
X111047619Y-119602190D01*
X110857142Y-119554571D01*
X110761904Y-119506952D01*
X110714285Y-119459333D01*
X110666666Y-119364095D01*
X110666666Y-119268857D01*
X110714285Y-119173619D01*
X110761904Y-119126000D01*
X110857142Y-119078380D01*
X111095238Y-119078380D01*
X111238095Y-119126000D01*
X111571428Y-119078380D02*
X111809523Y-120078380D01*
X112000000Y-119364095D01*
X112190476Y-120078380D01*
X112428571Y-119078380D01*
X112714285Y-119078380D02*
X113380952Y-119078380D01*
X112952380Y-120078380D01*
%TO.C,SW6*%
X110666666Y-101030761D02*
X110809523Y-101078380D01*
X111047619Y-101078380D01*
X111142857Y-101030761D01*
X111190476Y-100983142D01*
X111238095Y-100887904D01*
X111238095Y-100792666D01*
X111190476Y-100697428D01*
X111142857Y-100649809D01*
X111047619Y-100602190D01*
X110857142Y-100554571D01*
X110761904Y-100506952D01*
X110714285Y-100459333D01*
X110666666Y-100364095D01*
X110666666Y-100268857D01*
X110714285Y-100173619D01*
X110761904Y-100126000D01*
X110857142Y-100078380D01*
X111095238Y-100078380D01*
X111238095Y-100126000D01*
X111571428Y-100078380D02*
X111809523Y-101078380D01*
X112000000Y-100364095D01*
X112190476Y-101078380D01*
X112428571Y-100078380D01*
X113238095Y-100078380D02*
X113047619Y-100078380D01*
X112952380Y-100126000D01*
X112904761Y-100173619D01*
X112809523Y-100316476D01*
X112761904Y-100506952D01*
X112761904Y-100887904D01*
X112809523Y-100983142D01*
X112857142Y-101030761D01*
X112952380Y-101078380D01*
X113142857Y-101078380D01*
X113238095Y-101030761D01*
X113285714Y-100983142D01*
X113333333Y-100887904D01*
X113333333Y-100649809D01*
X113285714Y-100554571D01*
X113238095Y-100506952D01*
X113142857Y-100459333D01*
X112952380Y-100459333D01*
X112857142Y-100506952D01*
X112809523Y-100554571D01*
X112761904Y-100649809D01*
%TO.C,SW5*%
X110666666Y-81938761D02*
X110809523Y-81986380D01*
X111047619Y-81986380D01*
X111142857Y-81938761D01*
X111190476Y-81891142D01*
X111238095Y-81795904D01*
X111238095Y-81700666D01*
X111190476Y-81605428D01*
X111142857Y-81557809D01*
X111047619Y-81510190D01*
X110857142Y-81462571D01*
X110761904Y-81414952D01*
X110714285Y-81367333D01*
X110666666Y-81272095D01*
X110666666Y-81176857D01*
X110714285Y-81081619D01*
X110761904Y-81034000D01*
X110857142Y-80986380D01*
X111095238Y-80986380D01*
X111238095Y-81034000D01*
X111571428Y-80986380D02*
X111809523Y-81986380D01*
X112000000Y-81272095D01*
X112190476Y-81986380D01*
X112428571Y-80986380D01*
X113285714Y-80986380D02*
X112809523Y-80986380D01*
X112761904Y-81462571D01*
X112809523Y-81414952D01*
X112904761Y-81367333D01*
X113142857Y-81367333D01*
X113238095Y-81414952D01*
X113285714Y-81462571D01*
X113333333Y-81557809D01*
X113333333Y-81795904D01*
X113285714Y-81891142D01*
X113238095Y-81938761D01*
X113142857Y-81986380D01*
X112904761Y-81986380D01*
X112809523Y-81938761D01*
X112761904Y-81891142D01*
%TO.C,SW4*%
X91666666Y-120030761D02*
X91809523Y-120078380D01*
X92047619Y-120078380D01*
X92142857Y-120030761D01*
X92190476Y-119983142D01*
X92238095Y-119887904D01*
X92238095Y-119792666D01*
X92190476Y-119697428D01*
X92142857Y-119649809D01*
X92047619Y-119602190D01*
X91857142Y-119554571D01*
X91761904Y-119506952D01*
X91714285Y-119459333D01*
X91666666Y-119364095D01*
X91666666Y-119268857D01*
X91714285Y-119173619D01*
X91761904Y-119126000D01*
X91857142Y-119078380D01*
X92095238Y-119078380D01*
X92238095Y-119126000D01*
X92571428Y-119078380D02*
X92809523Y-120078380D01*
X93000000Y-119364095D01*
X93190476Y-120078380D01*
X93428571Y-119078380D01*
X94238095Y-119411714D02*
X94238095Y-120078380D01*
X94000000Y-119030761D02*
X93761904Y-119745047D01*
X94380952Y-119745047D01*
%TO.C,SW3*%
X91666666Y-101030761D02*
X91809523Y-101078380D01*
X92047619Y-101078380D01*
X92142857Y-101030761D01*
X92190476Y-100983142D01*
X92238095Y-100887904D01*
X92238095Y-100792666D01*
X92190476Y-100697428D01*
X92142857Y-100649809D01*
X92047619Y-100602190D01*
X91857142Y-100554571D01*
X91761904Y-100506952D01*
X91714285Y-100459333D01*
X91666666Y-100364095D01*
X91666666Y-100268857D01*
X91714285Y-100173619D01*
X91761904Y-100126000D01*
X91857142Y-100078380D01*
X92095238Y-100078380D01*
X92238095Y-100126000D01*
X92571428Y-100078380D02*
X92809523Y-101078380D01*
X93000000Y-100364095D01*
X93190476Y-101078380D01*
X93428571Y-100078380D01*
X93714285Y-100078380D02*
X94333333Y-100078380D01*
X94000000Y-100459333D01*
X94142857Y-100459333D01*
X94238095Y-100506952D01*
X94285714Y-100554571D01*
X94333333Y-100649809D01*
X94333333Y-100887904D01*
X94285714Y-100983142D01*
X94238095Y-101030761D01*
X94142857Y-101078380D01*
X93857142Y-101078380D01*
X93761904Y-101030761D01*
X93714285Y-100983142D01*
%TO.C,SW2*%
X91666666Y-81938761D02*
X91809523Y-81986380D01*
X92047619Y-81986380D01*
X92142857Y-81938761D01*
X92190476Y-81891142D01*
X92238095Y-81795904D01*
X92238095Y-81700666D01*
X92190476Y-81605428D01*
X92142857Y-81557809D01*
X92047619Y-81510190D01*
X91857142Y-81462571D01*
X91761904Y-81414952D01*
X91714285Y-81367333D01*
X91666666Y-81272095D01*
X91666666Y-81176857D01*
X91714285Y-81081619D01*
X91761904Y-81034000D01*
X91857142Y-80986380D01*
X92095238Y-80986380D01*
X92238095Y-81034000D01*
X92571428Y-80986380D02*
X92809523Y-81986380D01*
X93000000Y-81272095D01*
X93190476Y-81986380D01*
X93428571Y-80986380D01*
X93761904Y-81081619D02*
X93809523Y-81034000D01*
X93904761Y-80986380D01*
X94142857Y-80986380D01*
X94238095Y-81034000D01*
X94285714Y-81081619D01*
X94333333Y-81176857D01*
X94333333Y-81272095D01*
X94285714Y-81414952D01*
X93714285Y-81986380D01*
X94333333Y-81986380D01*
%TO.C,SW1*%
X148272666Y-98956761D02*
X148415523Y-99004380D01*
X148653619Y-99004380D01*
X148748857Y-98956761D01*
X148796476Y-98909142D01*
X148844095Y-98813904D01*
X148844095Y-98718666D01*
X148796476Y-98623428D01*
X148748857Y-98575809D01*
X148653619Y-98528190D01*
X148463142Y-98480571D01*
X148367904Y-98432952D01*
X148320285Y-98385333D01*
X148272666Y-98290095D01*
X148272666Y-98194857D01*
X148320285Y-98099619D01*
X148367904Y-98052000D01*
X148463142Y-98004380D01*
X148701238Y-98004380D01*
X148844095Y-98052000D01*
X149177428Y-98004380D02*
X149415523Y-99004380D01*
X149606000Y-98290095D01*
X149796476Y-99004380D01*
X150034571Y-98004380D01*
X150939333Y-99004380D02*
X150367904Y-99004380D01*
X150653619Y-99004380D02*
X150653619Y-98004380D01*
X150558380Y-98147238D01*
X150463142Y-98242476D01*
X150367904Y-98290095D01*
%TO.C,SB20*%
X165901904Y-125466761D02*
X166044761Y-125514380D01*
X166282857Y-125514380D01*
X166378095Y-125466761D01*
X166425714Y-125419142D01*
X166473333Y-125323904D01*
X166473333Y-125228666D01*
X166425714Y-125133428D01*
X166378095Y-125085809D01*
X166282857Y-125038190D01*
X166092380Y-124990571D01*
X165997142Y-124942952D01*
X165949523Y-124895333D01*
X165901904Y-124800095D01*
X165901904Y-124704857D01*
X165949523Y-124609619D01*
X165997142Y-124562000D01*
X166092380Y-124514380D01*
X166330476Y-124514380D01*
X166473333Y-124562000D01*
X167235238Y-124990571D02*
X167378095Y-125038190D01*
X167425714Y-125085809D01*
X167473333Y-125181047D01*
X167473333Y-125323904D01*
X167425714Y-125419142D01*
X167378095Y-125466761D01*
X167282857Y-125514380D01*
X166901904Y-125514380D01*
X166901904Y-124514380D01*
X167235238Y-124514380D01*
X167330476Y-124562000D01*
X167378095Y-124609619D01*
X167425714Y-124704857D01*
X167425714Y-124800095D01*
X167378095Y-124895333D01*
X167330476Y-124942952D01*
X167235238Y-124990571D01*
X166901904Y-124990571D01*
X167854285Y-124609619D02*
X167901904Y-124562000D01*
X167997142Y-124514380D01*
X168235238Y-124514380D01*
X168330476Y-124562000D01*
X168378095Y-124609619D01*
X168425714Y-124704857D01*
X168425714Y-124800095D01*
X168378095Y-124942952D01*
X167806666Y-125514380D01*
X168425714Y-125514380D01*
X169044761Y-124514380D02*
X169140000Y-124514380D01*
X169235238Y-124562000D01*
X169282857Y-124609619D01*
X169330476Y-124704857D01*
X169378095Y-124895333D01*
X169378095Y-125133428D01*
X169330476Y-125323904D01*
X169282857Y-125419142D01*
X169235238Y-125466761D01*
X169140000Y-125514380D01*
X169044761Y-125514380D01*
X168949523Y-125466761D01*
X168901904Y-125419142D01*
X168854285Y-125323904D01*
X168806666Y-125133428D01*
X168806666Y-124895333D01*
X168854285Y-124704857D01*
X168901904Y-124609619D01*
X168949523Y-124562000D01*
X169044761Y-124514380D01*
%TO.C,SB19*%
X139993904Y-73810761D02*
X140136761Y-73858380D01*
X140374857Y-73858380D01*
X140470095Y-73810761D01*
X140517714Y-73763142D01*
X140565333Y-73667904D01*
X140565333Y-73572666D01*
X140517714Y-73477428D01*
X140470095Y-73429809D01*
X140374857Y-73382190D01*
X140184380Y-73334571D01*
X140089142Y-73286952D01*
X140041523Y-73239333D01*
X139993904Y-73144095D01*
X139993904Y-73048857D01*
X140041523Y-72953619D01*
X140089142Y-72906000D01*
X140184380Y-72858380D01*
X140422476Y-72858380D01*
X140565333Y-72906000D01*
X141327238Y-73334571D02*
X141470095Y-73382190D01*
X141517714Y-73429809D01*
X141565333Y-73525047D01*
X141565333Y-73667904D01*
X141517714Y-73763142D01*
X141470095Y-73810761D01*
X141374857Y-73858380D01*
X140993904Y-73858380D01*
X140993904Y-72858380D01*
X141327238Y-72858380D01*
X141422476Y-72906000D01*
X141470095Y-72953619D01*
X141517714Y-73048857D01*
X141517714Y-73144095D01*
X141470095Y-73239333D01*
X141422476Y-73286952D01*
X141327238Y-73334571D01*
X140993904Y-73334571D01*
X142517714Y-73858380D02*
X141946285Y-73858380D01*
X142232000Y-73858380D02*
X142232000Y-72858380D01*
X142136761Y-73001238D01*
X142041523Y-73096476D01*
X141946285Y-73144095D01*
X142993904Y-73858380D02*
X143184380Y-73858380D01*
X143279619Y-73810761D01*
X143327238Y-73763142D01*
X143422476Y-73620285D01*
X143470095Y-73429809D01*
X143470095Y-73048857D01*
X143422476Y-72953619D01*
X143374857Y-72906000D01*
X143279619Y-72858380D01*
X143089142Y-72858380D01*
X142993904Y-72906000D01*
X142946285Y-72953619D01*
X142898666Y-73048857D01*
X142898666Y-73286952D01*
X142946285Y-73382190D01*
X142993904Y-73429809D01*
X143089142Y-73477428D01*
X143279619Y-73477428D01*
X143374857Y-73429809D01*
X143422476Y-73382190D01*
X143470095Y-73286952D01*
%TO.C,SB18*%
X131103904Y-71270761D02*
X131246761Y-71318380D01*
X131484857Y-71318380D01*
X131580095Y-71270761D01*
X131627714Y-71223142D01*
X131675333Y-71127904D01*
X131675333Y-71032666D01*
X131627714Y-70937428D01*
X131580095Y-70889809D01*
X131484857Y-70842190D01*
X131294380Y-70794571D01*
X131199142Y-70746952D01*
X131151523Y-70699333D01*
X131103904Y-70604095D01*
X131103904Y-70508857D01*
X131151523Y-70413619D01*
X131199142Y-70366000D01*
X131294380Y-70318380D01*
X131532476Y-70318380D01*
X131675333Y-70366000D01*
X132437238Y-70794571D02*
X132580095Y-70842190D01*
X132627714Y-70889809D01*
X132675333Y-70985047D01*
X132675333Y-71127904D01*
X132627714Y-71223142D01*
X132580095Y-71270761D01*
X132484857Y-71318380D01*
X132103904Y-71318380D01*
X132103904Y-70318380D01*
X132437238Y-70318380D01*
X132532476Y-70366000D01*
X132580095Y-70413619D01*
X132627714Y-70508857D01*
X132627714Y-70604095D01*
X132580095Y-70699333D01*
X132532476Y-70746952D01*
X132437238Y-70794571D01*
X132103904Y-70794571D01*
X133627714Y-71318380D02*
X133056285Y-71318380D01*
X133342000Y-71318380D02*
X133342000Y-70318380D01*
X133246761Y-70461238D01*
X133151523Y-70556476D01*
X133056285Y-70604095D01*
X134199142Y-70746952D02*
X134103904Y-70699333D01*
X134056285Y-70651714D01*
X134008666Y-70556476D01*
X134008666Y-70508857D01*
X134056285Y-70413619D01*
X134103904Y-70366000D01*
X134199142Y-70318380D01*
X134389619Y-70318380D01*
X134484857Y-70366000D01*
X134532476Y-70413619D01*
X134580095Y-70508857D01*
X134580095Y-70556476D01*
X134532476Y-70651714D01*
X134484857Y-70699333D01*
X134389619Y-70746952D01*
X134199142Y-70746952D01*
X134103904Y-70794571D01*
X134056285Y-70842190D01*
X134008666Y-70937428D01*
X134008666Y-71127904D01*
X134056285Y-71223142D01*
X134103904Y-71270761D01*
X134199142Y-71318380D01*
X134389619Y-71318380D01*
X134484857Y-71270761D01*
X134532476Y-71223142D01*
X134580095Y-71127904D01*
X134580095Y-70937428D01*
X134532476Y-70842190D01*
X134484857Y-70794571D01*
X134389619Y-70746952D01*
%TO.C,SB17*%
X131103904Y-69238761D02*
X131246761Y-69286380D01*
X131484857Y-69286380D01*
X131580095Y-69238761D01*
X131627714Y-69191142D01*
X131675333Y-69095904D01*
X131675333Y-69000666D01*
X131627714Y-68905428D01*
X131580095Y-68857809D01*
X131484857Y-68810190D01*
X131294380Y-68762571D01*
X131199142Y-68714952D01*
X131151523Y-68667333D01*
X131103904Y-68572095D01*
X131103904Y-68476857D01*
X131151523Y-68381619D01*
X131199142Y-68334000D01*
X131294380Y-68286380D01*
X131532476Y-68286380D01*
X131675333Y-68334000D01*
X132437238Y-68762571D02*
X132580095Y-68810190D01*
X132627714Y-68857809D01*
X132675333Y-68953047D01*
X132675333Y-69095904D01*
X132627714Y-69191142D01*
X132580095Y-69238761D01*
X132484857Y-69286380D01*
X132103904Y-69286380D01*
X132103904Y-68286380D01*
X132437238Y-68286380D01*
X132532476Y-68334000D01*
X132580095Y-68381619D01*
X132627714Y-68476857D01*
X132627714Y-68572095D01*
X132580095Y-68667333D01*
X132532476Y-68714952D01*
X132437238Y-68762571D01*
X132103904Y-68762571D01*
X133627714Y-69286380D02*
X133056285Y-69286380D01*
X133342000Y-69286380D02*
X133342000Y-68286380D01*
X133246761Y-68429238D01*
X133151523Y-68524476D01*
X133056285Y-68572095D01*
X133961047Y-68286380D02*
X134627714Y-68286380D01*
X134199142Y-69286380D01*
%TO.C,SB16*%
X160821904Y-105052761D02*
X160964761Y-105100380D01*
X161202857Y-105100380D01*
X161298095Y-105052761D01*
X161345714Y-105005142D01*
X161393333Y-104909904D01*
X161393333Y-104814666D01*
X161345714Y-104719428D01*
X161298095Y-104671809D01*
X161202857Y-104624190D01*
X161012380Y-104576571D01*
X160917142Y-104528952D01*
X160869523Y-104481333D01*
X160821904Y-104386095D01*
X160821904Y-104290857D01*
X160869523Y-104195619D01*
X160917142Y-104148000D01*
X161012380Y-104100380D01*
X161250476Y-104100380D01*
X161393333Y-104148000D01*
X162155238Y-104576571D02*
X162298095Y-104624190D01*
X162345714Y-104671809D01*
X162393333Y-104767047D01*
X162393333Y-104909904D01*
X162345714Y-105005142D01*
X162298095Y-105052761D01*
X162202857Y-105100380D01*
X161821904Y-105100380D01*
X161821904Y-104100380D01*
X162155238Y-104100380D01*
X162250476Y-104148000D01*
X162298095Y-104195619D01*
X162345714Y-104290857D01*
X162345714Y-104386095D01*
X162298095Y-104481333D01*
X162250476Y-104528952D01*
X162155238Y-104576571D01*
X161821904Y-104576571D01*
X163345714Y-105100380D02*
X162774285Y-105100380D01*
X163060000Y-105100380D02*
X163060000Y-104100380D01*
X162964761Y-104243238D01*
X162869523Y-104338476D01*
X162774285Y-104386095D01*
X164202857Y-104100380D02*
X164012380Y-104100380D01*
X163917142Y-104148000D01*
X163869523Y-104195619D01*
X163774285Y-104338476D01*
X163726666Y-104528952D01*
X163726666Y-104909904D01*
X163774285Y-105005142D01*
X163821904Y-105052761D01*
X163917142Y-105100380D01*
X164107619Y-105100380D01*
X164202857Y-105052761D01*
X164250476Y-105005142D01*
X164298095Y-104909904D01*
X164298095Y-104671809D01*
X164250476Y-104576571D01*
X164202857Y-104528952D01*
X164107619Y-104481333D01*
X163917142Y-104481333D01*
X163821904Y-104528952D01*
X163774285Y-104576571D01*
X163726666Y-104671809D01*
%TO.C,SB15*%
X165901904Y-107592761D02*
X166044761Y-107640380D01*
X166282857Y-107640380D01*
X166378095Y-107592761D01*
X166425714Y-107545142D01*
X166473333Y-107449904D01*
X166473333Y-107354666D01*
X166425714Y-107259428D01*
X166378095Y-107211809D01*
X166282857Y-107164190D01*
X166092380Y-107116571D01*
X165997142Y-107068952D01*
X165949523Y-107021333D01*
X165901904Y-106926095D01*
X165901904Y-106830857D01*
X165949523Y-106735619D01*
X165997142Y-106688000D01*
X166092380Y-106640380D01*
X166330476Y-106640380D01*
X166473333Y-106688000D01*
X167235238Y-107116571D02*
X167378095Y-107164190D01*
X167425714Y-107211809D01*
X167473333Y-107307047D01*
X167473333Y-107449904D01*
X167425714Y-107545142D01*
X167378095Y-107592761D01*
X167282857Y-107640380D01*
X166901904Y-107640380D01*
X166901904Y-106640380D01*
X167235238Y-106640380D01*
X167330476Y-106688000D01*
X167378095Y-106735619D01*
X167425714Y-106830857D01*
X167425714Y-106926095D01*
X167378095Y-107021333D01*
X167330476Y-107068952D01*
X167235238Y-107116571D01*
X166901904Y-107116571D01*
X168425714Y-107640380D02*
X167854285Y-107640380D01*
X168140000Y-107640380D02*
X168140000Y-106640380D01*
X168044761Y-106783238D01*
X167949523Y-106878476D01*
X167854285Y-106926095D01*
X169330476Y-106640380D02*
X168854285Y-106640380D01*
X168806666Y-107116571D01*
X168854285Y-107068952D01*
X168949523Y-107021333D01*
X169187619Y-107021333D01*
X169282857Y-107068952D01*
X169330476Y-107116571D01*
X169378095Y-107211809D01*
X169378095Y-107449904D01*
X169330476Y-107545142D01*
X169282857Y-107592761D01*
X169187619Y-107640380D01*
X168949523Y-107640380D01*
X168854285Y-107592761D01*
X168806666Y-107545142D01*
%TO.C,SB14*%
X155741904Y-107592761D02*
X155884761Y-107640380D01*
X156122857Y-107640380D01*
X156218095Y-107592761D01*
X156265714Y-107545142D01*
X156313333Y-107449904D01*
X156313333Y-107354666D01*
X156265714Y-107259428D01*
X156218095Y-107211809D01*
X156122857Y-107164190D01*
X155932380Y-107116571D01*
X155837142Y-107068952D01*
X155789523Y-107021333D01*
X155741904Y-106926095D01*
X155741904Y-106830857D01*
X155789523Y-106735619D01*
X155837142Y-106688000D01*
X155932380Y-106640380D01*
X156170476Y-106640380D01*
X156313333Y-106688000D01*
X157075238Y-107116571D02*
X157218095Y-107164190D01*
X157265714Y-107211809D01*
X157313333Y-107307047D01*
X157313333Y-107449904D01*
X157265714Y-107545142D01*
X157218095Y-107592761D01*
X157122857Y-107640380D01*
X156741904Y-107640380D01*
X156741904Y-106640380D01*
X157075238Y-106640380D01*
X157170476Y-106688000D01*
X157218095Y-106735619D01*
X157265714Y-106830857D01*
X157265714Y-106926095D01*
X157218095Y-107021333D01*
X157170476Y-107068952D01*
X157075238Y-107116571D01*
X156741904Y-107116571D01*
X158265714Y-107640380D02*
X157694285Y-107640380D01*
X157980000Y-107640380D02*
X157980000Y-106640380D01*
X157884761Y-106783238D01*
X157789523Y-106878476D01*
X157694285Y-106926095D01*
X159122857Y-106973714D02*
X159122857Y-107640380D01*
X158884761Y-106592761D02*
X158646666Y-107307047D01*
X159265714Y-107307047D01*
%TO.C,SB13*%
X163869904Y-110734761D02*
X164012761Y-110782380D01*
X164250857Y-110782380D01*
X164346095Y-110734761D01*
X164393714Y-110687142D01*
X164441333Y-110591904D01*
X164441333Y-110496666D01*
X164393714Y-110401428D01*
X164346095Y-110353809D01*
X164250857Y-110306190D01*
X164060380Y-110258571D01*
X163965142Y-110210952D01*
X163917523Y-110163333D01*
X163869904Y-110068095D01*
X163869904Y-109972857D01*
X163917523Y-109877619D01*
X163965142Y-109830000D01*
X164060380Y-109782380D01*
X164298476Y-109782380D01*
X164441333Y-109830000D01*
X165203238Y-110258571D02*
X165346095Y-110306190D01*
X165393714Y-110353809D01*
X165441333Y-110449047D01*
X165441333Y-110591904D01*
X165393714Y-110687142D01*
X165346095Y-110734761D01*
X165250857Y-110782380D01*
X164869904Y-110782380D01*
X164869904Y-109782380D01*
X165203238Y-109782380D01*
X165298476Y-109830000D01*
X165346095Y-109877619D01*
X165393714Y-109972857D01*
X165393714Y-110068095D01*
X165346095Y-110163333D01*
X165298476Y-110210952D01*
X165203238Y-110258571D01*
X164869904Y-110258571D01*
X166393714Y-110782380D02*
X165822285Y-110782380D01*
X166108000Y-110782380D02*
X166108000Y-109782380D01*
X166012761Y-109925238D01*
X165917523Y-110020476D01*
X165822285Y-110068095D01*
X166727047Y-109782380D02*
X167346095Y-109782380D01*
X167012761Y-110163333D01*
X167155619Y-110163333D01*
X167250857Y-110210952D01*
X167298476Y-110258571D01*
X167346095Y-110353809D01*
X167346095Y-110591904D01*
X167298476Y-110687142D01*
X167250857Y-110734761D01*
X167155619Y-110782380D01*
X166869904Y-110782380D01*
X166774666Y-110734761D01*
X166727047Y-110687142D01*
%TO.C,SB12*%
X143643904Y-50442761D02*
X143786761Y-50490380D01*
X144024857Y-50490380D01*
X144120095Y-50442761D01*
X144167714Y-50395142D01*
X144215333Y-50299904D01*
X144215333Y-50204666D01*
X144167714Y-50109428D01*
X144120095Y-50061809D01*
X144024857Y-50014190D01*
X143834380Y-49966571D01*
X143739142Y-49918952D01*
X143691523Y-49871333D01*
X143643904Y-49776095D01*
X143643904Y-49680857D01*
X143691523Y-49585619D01*
X143739142Y-49538000D01*
X143834380Y-49490380D01*
X144072476Y-49490380D01*
X144215333Y-49538000D01*
X144977238Y-49966571D02*
X145120095Y-50014190D01*
X145167714Y-50061809D01*
X145215333Y-50157047D01*
X145215333Y-50299904D01*
X145167714Y-50395142D01*
X145120095Y-50442761D01*
X145024857Y-50490380D01*
X144643904Y-50490380D01*
X144643904Y-49490380D01*
X144977238Y-49490380D01*
X145072476Y-49538000D01*
X145120095Y-49585619D01*
X145167714Y-49680857D01*
X145167714Y-49776095D01*
X145120095Y-49871333D01*
X145072476Y-49918952D01*
X144977238Y-49966571D01*
X144643904Y-49966571D01*
X146167714Y-50490380D02*
X145596285Y-50490380D01*
X145882000Y-50490380D02*
X145882000Y-49490380D01*
X145786761Y-49633238D01*
X145691523Y-49728476D01*
X145596285Y-49776095D01*
X146548666Y-49585619D02*
X146596285Y-49538000D01*
X146691523Y-49490380D01*
X146929619Y-49490380D01*
X147024857Y-49538000D01*
X147072476Y-49585619D01*
X147120095Y-49680857D01*
X147120095Y-49776095D01*
X147072476Y-49918952D01*
X146501047Y-50490380D01*
X147120095Y-50490380D01*
%TO.C,SB11*%
X154217904Y-61778761D02*
X154360761Y-61826380D01*
X154598857Y-61826380D01*
X154694095Y-61778761D01*
X154741714Y-61731142D01*
X154789333Y-61635904D01*
X154789333Y-61540666D01*
X154741714Y-61445428D01*
X154694095Y-61397809D01*
X154598857Y-61350190D01*
X154408380Y-61302571D01*
X154313142Y-61254952D01*
X154265523Y-61207333D01*
X154217904Y-61112095D01*
X154217904Y-61016857D01*
X154265523Y-60921619D01*
X154313142Y-60874000D01*
X154408380Y-60826380D01*
X154646476Y-60826380D01*
X154789333Y-60874000D01*
X155551238Y-61302571D02*
X155694095Y-61350190D01*
X155741714Y-61397809D01*
X155789333Y-61493047D01*
X155789333Y-61635904D01*
X155741714Y-61731142D01*
X155694095Y-61778761D01*
X155598857Y-61826380D01*
X155217904Y-61826380D01*
X155217904Y-60826380D01*
X155551238Y-60826380D01*
X155646476Y-60874000D01*
X155694095Y-60921619D01*
X155741714Y-61016857D01*
X155741714Y-61112095D01*
X155694095Y-61207333D01*
X155646476Y-61254952D01*
X155551238Y-61302571D01*
X155217904Y-61302571D01*
X156741714Y-61826380D02*
X156170285Y-61826380D01*
X156456000Y-61826380D02*
X156456000Y-60826380D01*
X156360761Y-60969238D01*
X156265523Y-61064476D01*
X156170285Y-61112095D01*
X157694095Y-61826380D02*
X157122666Y-61826380D01*
X157408380Y-61826380D02*
X157408380Y-60826380D01*
X157313142Y-60969238D01*
X157217904Y-61064476D01*
X157122666Y-61112095D01*
%TO.C,SB10*%
X148121904Y-61872761D02*
X148264761Y-61920380D01*
X148502857Y-61920380D01*
X148598095Y-61872761D01*
X148645714Y-61825142D01*
X148693333Y-61729904D01*
X148693333Y-61634666D01*
X148645714Y-61539428D01*
X148598095Y-61491809D01*
X148502857Y-61444190D01*
X148312380Y-61396571D01*
X148217142Y-61348952D01*
X148169523Y-61301333D01*
X148121904Y-61206095D01*
X148121904Y-61110857D01*
X148169523Y-61015619D01*
X148217142Y-60968000D01*
X148312380Y-60920380D01*
X148550476Y-60920380D01*
X148693333Y-60968000D01*
X149455238Y-61396571D02*
X149598095Y-61444190D01*
X149645714Y-61491809D01*
X149693333Y-61587047D01*
X149693333Y-61729904D01*
X149645714Y-61825142D01*
X149598095Y-61872761D01*
X149502857Y-61920380D01*
X149121904Y-61920380D01*
X149121904Y-60920380D01*
X149455238Y-60920380D01*
X149550476Y-60968000D01*
X149598095Y-61015619D01*
X149645714Y-61110857D01*
X149645714Y-61206095D01*
X149598095Y-61301333D01*
X149550476Y-61348952D01*
X149455238Y-61396571D01*
X149121904Y-61396571D01*
X150645714Y-61920380D02*
X150074285Y-61920380D01*
X150360000Y-61920380D02*
X150360000Y-60920380D01*
X150264761Y-61063238D01*
X150169523Y-61158476D01*
X150074285Y-61206095D01*
X151264761Y-60920380D02*
X151360000Y-60920380D01*
X151455238Y-60968000D01*
X151502857Y-61015619D01*
X151550476Y-61110857D01*
X151598095Y-61301333D01*
X151598095Y-61539428D01*
X151550476Y-61729904D01*
X151502857Y-61825142D01*
X151455238Y-61872761D01*
X151360000Y-61920380D01*
X151264761Y-61920380D01*
X151169523Y-61872761D01*
X151121904Y-61825142D01*
X151074285Y-61729904D01*
X151026666Y-61539428D01*
X151026666Y-61301333D01*
X151074285Y-61110857D01*
X151121904Y-61015619D01*
X151169523Y-60968000D01*
X151264761Y-60920380D01*
%TO.C,SB9*%
X119134095Y-63650761D02*
X119276952Y-63698380D01*
X119515047Y-63698380D01*
X119610285Y-63650761D01*
X119657904Y-63603142D01*
X119705523Y-63507904D01*
X119705523Y-63412666D01*
X119657904Y-63317428D01*
X119610285Y-63269809D01*
X119515047Y-63222190D01*
X119324571Y-63174571D01*
X119229333Y-63126952D01*
X119181714Y-63079333D01*
X119134095Y-62984095D01*
X119134095Y-62888857D01*
X119181714Y-62793619D01*
X119229333Y-62746000D01*
X119324571Y-62698380D01*
X119562666Y-62698380D01*
X119705523Y-62746000D01*
X120467428Y-63174571D02*
X120610285Y-63222190D01*
X120657904Y-63269809D01*
X120705523Y-63365047D01*
X120705523Y-63507904D01*
X120657904Y-63603142D01*
X120610285Y-63650761D01*
X120515047Y-63698380D01*
X120134095Y-63698380D01*
X120134095Y-62698380D01*
X120467428Y-62698380D01*
X120562666Y-62746000D01*
X120610285Y-62793619D01*
X120657904Y-62888857D01*
X120657904Y-62984095D01*
X120610285Y-63079333D01*
X120562666Y-63126952D01*
X120467428Y-63174571D01*
X120134095Y-63174571D01*
X121181714Y-63698380D02*
X121372190Y-63698380D01*
X121467428Y-63650761D01*
X121515047Y-63603142D01*
X121610285Y-63460285D01*
X121657904Y-63269809D01*
X121657904Y-62888857D01*
X121610285Y-62793619D01*
X121562666Y-62746000D01*
X121467428Y-62698380D01*
X121276952Y-62698380D01*
X121181714Y-62746000D01*
X121134095Y-62793619D01*
X121086476Y-62888857D01*
X121086476Y-63126952D01*
X121134095Y-63222190D01*
X121181714Y-63269809D01*
X121276952Y-63317428D01*
X121467428Y-63317428D01*
X121562666Y-63269809D01*
X121610285Y-63222190D01*
X121657904Y-63126952D01*
%TO.C,SB8*%
X119134095Y-68476761D02*
X119276952Y-68524380D01*
X119515047Y-68524380D01*
X119610285Y-68476761D01*
X119657904Y-68429142D01*
X119705523Y-68333904D01*
X119705523Y-68238666D01*
X119657904Y-68143428D01*
X119610285Y-68095809D01*
X119515047Y-68048190D01*
X119324571Y-68000571D01*
X119229333Y-67952952D01*
X119181714Y-67905333D01*
X119134095Y-67810095D01*
X119134095Y-67714857D01*
X119181714Y-67619619D01*
X119229333Y-67572000D01*
X119324571Y-67524380D01*
X119562666Y-67524380D01*
X119705523Y-67572000D01*
X120467428Y-68000571D02*
X120610285Y-68048190D01*
X120657904Y-68095809D01*
X120705523Y-68191047D01*
X120705523Y-68333904D01*
X120657904Y-68429142D01*
X120610285Y-68476761D01*
X120515047Y-68524380D01*
X120134095Y-68524380D01*
X120134095Y-67524380D01*
X120467428Y-67524380D01*
X120562666Y-67572000D01*
X120610285Y-67619619D01*
X120657904Y-67714857D01*
X120657904Y-67810095D01*
X120610285Y-67905333D01*
X120562666Y-67952952D01*
X120467428Y-68000571D01*
X120134095Y-68000571D01*
X121276952Y-67952952D02*
X121181714Y-67905333D01*
X121134095Y-67857714D01*
X121086476Y-67762476D01*
X121086476Y-67714857D01*
X121134095Y-67619619D01*
X121181714Y-67572000D01*
X121276952Y-67524380D01*
X121467428Y-67524380D01*
X121562666Y-67572000D01*
X121610285Y-67619619D01*
X121657904Y-67714857D01*
X121657904Y-67762476D01*
X121610285Y-67857714D01*
X121562666Y-67905333D01*
X121467428Y-67952952D01*
X121276952Y-67952952D01*
X121181714Y-68000571D01*
X121134095Y-68048190D01*
X121086476Y-68143428D01*
X121086476Y-68333904D01*
X121134095Y-68429142D01*
X121181714Y-68476761D01*
X121276952Y-68524380D01*
X121467428Y-68524380D01*
X121562666Y-68476761D01*
X121610285Y-68429142D01*
X121657904Y-68333904D01*
X121657904Y-68143428D01*
X121610285Y-68048190D01*
X121562666Y-68000571D01*
X121467428Y-67952952D01*
%TO.C,SB7*%
X167902095Y-50188761D02*
X168044952Y-50236380D01*
X168283047Y-50236380D01*
X168378285Y-50188761D01*
X168425904Y-50141142D01*
X168473523Y-50045904D01*
X168473523Y-49950666D01*
X168425904Y-49855428D01*
X168378285Y-49807809D01*
X168283047Y-49760190D01*
X168092571Y-49712571D01*
X167997333Y-49664952D01*
X167949714Y-49617333D01*
X167902095Y-49522095D01*
X167902095Y-49426857D01*
X167949714Y-49331619D01*
X167997333Y-49284000D01*
X168092571Y-49236380D01*
X168330666Y-49236380D01*
X168473523Y-49284000D01*
X169235428Y-49712571D02*
X169378285Y-49760190D01*
X169425904Y-49807809D01*
X169473523Y-49903047D01*
X169473523Y-50045904D01*
X169425904Y-50141142D01*
X169378285Y-50188761D01*
X169283047Y-50236380D01*
X168902095Y-50236380D01*
X168902095Y-49236380D01*
X169235428Y-49236380D01*
X169330666Y-49284000D01*
X169378285Y-49331619D01*
X169425904Y-49426857D01*
X169425904Y-49522095D01*
X169378285Y-49617333D01*
X169330666Y-49664952D01*
X169235428Y-49712571D01*
X168902095Y-49712571D01*
X169806857Y-49236380D02*
X170473523Y-49236380D01*
X170044952Y-50236380D01*
%TO.C,SB6*%
X158250095Y-50188761D02*
X158392952Y-50236380D01*
X158631047Y-50236380D01*
X158726285Y-50188761D01*
X158773904Y-50141142D01*
X158821523Y-50045904D01*
X158821523Y-49950666D01*
X158773904Y-49855428D01*
X158726285Y-49807809D01*
X158631047Y-49760190D01*
X158440571Y-49712571D01*
X158345333Y-49664952D01*
X158297714Y-49617333D01*
X158250095Y-49522095D01*
X158250095Y-49426857D01*
X158297714Y-49331619D01*
X158345333Y-49284000D01*
X158440571Y-49236380D01*
X158678666Y-49236380D01*
X158821523Y-49284000D01*
X159583428Y-49712571D02*
X159726285Y-49760190D01*
X159773904Y-49807809D01*
X159821523Y-49903047D01*
X159821523Y-50045904D01*
X159773904Y-50141142D01*
X159726285Y-50188761D01*
X159631047Y-50236380D01*
X159250095Y-50236380D01*
X159250095Y-49236380D01*
X159583428Y-49236380D01*
X159678666Y-49284000D01*
X159726285Y-49331619D01*
X159773904Y-49426857D01*
X159773904Y-49522095D01*
X159726285Y-49617333D01*
X159678666Y-49664952D01*
X159583428Y-49712571D01*
X159250095Y-49712571D01*
X160678666Y-49236380D02*
X160488190Y-49236380D01*
X160392952Y-49284000D01*
X160345333Y-49331619D01*
X160250095Y-49474476D01*
X160202476Y-49664952D01*
X160202476Y-50045904D01*
X160250095Y-50141142D01*
X160297714Y-50188761D01*
X160392952Y-50236380D01*
X160583428Y-50236380D01*
X160678666Y-50188761D01*
X160726285Y-50141142D01*
X160773904Y-50045904D01*
X160773904Y-49807809D01*
X160726285Y-49712571D01*
X160678666Y-49664952D01*
X160583428Y-49617333D01*
X160392952Y-49617333D01*
X160297714Y-49664952D01*
X160250095Y-49712571D01*
X160202476Y-49807809D01*
%TO.C,SB5*%
X134374095Y-58824761D02*
X134516952Y-58872380D01*
X134755047Y-58872380D01*
X134850285Y-58824761D01*
X134897904Y-58777142D01*
X134945523Y-58681904D01*
X134945523Y-58586666D01*
X134897904Y-58491428D01*
X134850285Y-58443809D01*
X134755047Y-58396190D01*
X134564571Y-58348571D01*
X134469333Y-58300952D01*
X134421714Y-58253333D01*
X134374095Y-58158095D01*
X134374095Y-58062857D01*
X134421714Y-57967619D01*
X134469333Y-57920000D01*
X134564571Y-57872380D01*
X134802666Y-57872380D01*
X134945523Y-57920000D01*
X135707428Y-58348571D02*
X135850285Y-58396190D01*
X135897904Y-58443809D01*
X135945523Y-58539047D01*
X135945523Y-58681904D01*
X135897904Y-58777142D01*
X135850285Y-58824761D01*
X135755047Y-58872380D01*
X135374095Y-58872380D01*
X135374095Y-57872380D01*
X135707428Y-57872380D01*
X135802666Y-57920000D01*
X135850285Y-57967619D01*
X135897904Y-58062857D01*
X135897904Y-58158095D01*
X135850285Y-58253333D01*
X135802666Y-58300952D01*
X135707428Y-58348571D01*
X135374095Y-58348571D01*
X136850285Y-57872380D02*
X136374095Y-57872380D01*
X136326476Y-58348571D01*
X136374095Y-58300952D01*
X136469333Y-58253333D01*
X136707428Y-58253333D01*
X136802666Y-58300952D01*
X136850285Y-58348571D01*
X136897904Y-58443809D01*
X136897904Y-58681904D01*
X136850285Y-58777142D01*
X136802666Y-58824761D01*
X136707428Y-58872380D01*
X136469333Y-58872380D01*
X136374095Y-58824761D01*
X136326476Y-58777142D01*
%TO.C,SB4*%
X155710095Y-88288761D02*
X155852952Y-88336380D01*
X156091047Y-88336380D01*
X156186285Y-88288761D01*
X156233904Y-88241142D01*
X156281523Y-88145904D01*
X156281523Y-88050666D01*
X156233904Y-87955428D01*
X156186285Y-87907809D01*
X156091047Y-87860190D01*
X155900571Y-87812571D01*
X155805333Y-87764952D01*
X155757714Y-87717333D01*
X155710095Y-87622095D01*
X155710095Y-87526857D01*
X155757714Y-87431619D01*
X155805333Y-87384000D01*
X155900571Y-87336380D01*
X156138666Y-87336380D01*
X156281523Y-87384000D01*
X157043428Y-87812571D02*
X157186285Y-87860190D01*
X157233904Y-87907809D01*
X157281523Y-88003047D01*
X157281523Y-88145904D01*
X157233904Y-88241142D01*
X157186285Y-88288761D01*
X157091047Y-88336380D01*
X156710095Y-88336380D01*
X156710095Y-87336380D01*
X157043428Y-87336380D01*
X157138666Y-87384000D01*
X157186285Y-87431619D01*
X157233904Y-87526857D01*
X157233904Y-87622095D01*
X157186285Y-87717333D01*
X157138666Y-87764952D01*
X157043428Y-87812571D01*
X156710095Y-87812571D01*
X158138666Y-87669714D02*
X158138666Y-88336380D01*
X157900571Y-87288761D02*
X157662476Y-88003047D01*
X158281523Y-88003047D01*
%TO.C,SB3*%
X155710095Y-83208761D02*
X155852952Y-83256380D01*
X156091047Y-83256380D01*
X156186285Y-83208761D01*
X156233904Y-83161142D01*
X156281523Y-83065904D01*
X156281523Y-82970666D01*
X156233904Y-82875428D01*
X156186285Y-82827809D01*
X156091047Y-82780190D01*
X155900571Y-82732571D01*
X155805333Y-82684952D01*
X155757714Y-82637333D01*
X155710095Y-82542095D01*
X155710095Y-82446857D01*
X155757714Y-82351619D01*
X155805333Y-82304000D01*
X155900571Y-82256380D01*
X156138666Y-82256380D01*
X156281523Y-82304000D01*
X157043428Y-82732571D02*
X157186285Y-82780190D01*
X157233904Y-82827809D01*
X157281523Y-82923047D01*
X157281523Y-83065904D01*
X157233904Y-83161142D01*
X157186285Y-83208761D01*
X157091047Y-83256380D01*
X156710095Y-83256380D01*
X156710095Y-82256380D01*
X157043428Y-82256380D01*
X157138666Y-82304000D01*
X157186285Y-82351619D01*
X157233904Y-82446857D01*
X157233904Y-82542095D01*
X157186285Y-82637333D01*
X157138666Y-82684952D01*
X157043428Y-82732571D01*
X156710095Y-82732571D01*
X157614857Y-82256380D02*
X158233904Y-82256380D01*
X157900571Y-82637333D01*
X158043428Y-82637333D01*
X158138666Y-82684952D01*
X158186285Y-82732571D01*
X158233904Y-82827809D01*
X158233904Y-83065904D01*
X158186285Y-83161142D01*
X158138666Y-83208761D01*
X158043428Y-83256380D01*
X157757714Y-83256380D01*
X157662476Y-83208761D01*
X157614857Y-83161142D01*
%TO.C,SB2*%
X126754095Y-47140761D02*
X126896952Y-47188380D01*
X127135047Y-47188380D01*
X127230285Y-47140761D01*
X127277904Y-47093142D01*
X127325523Y-46997904D01*
X127325523Y-46902666D01*
X127277904Y-46807428D01*
X127230285Y-46759809D01*
X127135047Y-46712190D01*
X126944571Y-46664571D01*
X126849333Y-46616952D01*
X126801714Y-46569333D01*
X126754095Y-46474095D01*
X126754095Y-46378857D01*
X126801714Y-46283619D01*
X126849333Y-46236000D01*
X126944571Y-46188380D01*
X127182666Y-46188380D01*
X127325523Y-46236000D01*
X128087428Y-46664571D02*
X128230285Y-46712190D01*
X128277904Y-46759809D01*
X128325523Y-46855047D01*
X128325523Y-46997904D01*
X128277904Y-47093142D01*
X128230285Y-47140761D01*
X128135047Y-47188380D01*
X127754095Y-47188380D01*
X127754095Y-46188380D01*
X128087428Y-46188380D01*
X128182666Y-46236000D01*
X128230285Y-46283619D01*
X128277904Y-46378857D01*
X128277904Y-46474095D01*
X128230285Y-46569333D01*
X128182666Y-46616952D01*
X128087428Y-46664571D01*
X127754095Y-46664571D01*
X128706476Y-46283619D02*
X128754095Y-46236000D01*
X128849333Y-46188380D01*
X129087428Y-46188380D01*
X129182666Y-46236000D01*
X129230285Y-46283619D01*
X129277904Y-46378857D01*
X129277904Y-46474095D01*
X129230285Y-46616952D01*
X128658857Y-47188380D01*
X129277904Y-47188380D01*
%TO.C,SB1*%
X161552095Y-87272761D02*
X161694952Y-87320380D01*
X161933047Y-87320380D01*
X162028285Y-87272761D01*
X162075904Y-87225142D01*
X162123523Y-87129904D01*
X162123523Y-87034666D01*
X162075904Y-86939428D01*
X162028285Y-86891809D01*
X161933047Y-86844190D01*
X161742571Y-86796571D01*
X161647333Y-86748952D01*
X161599714Y-86701333D01*
X161552095Y-86606095D01*
X161552095Y-86510857D01*
X161599714Y-86415619D01*
X161647333Y-86368000D01*
X161742571Y-86320380D01*
X161980666Y-86320380D01*
X162123523Y-86368000D01*
X162885428Y-86796571D02*
X163028285Y-86844190D01*
X163075904Y-86891809D01*
X163123523Y-86987047D01*
X163123523Y-87129904D01*
X163075904Y-87225142D01*
X163028285Y-87272761D01*
X162933047Y-87320380D01*
X162552095Y-87320380D01*
X162552095Y-86320380D01*
X162885428Y-86320380D01*
X162980666Y-86368000D01*
X163028285Y-86415619D01*
X163075904Y-86510857D01*
X163075904Y-86606095D01*
X163028285Y-86701333D01*
X162980666Y-86748952D01*
X162885428Y-86796571D01*
X162552095Y-86796571D01*
X164075904Y-87320380D02*
X163504476Y-87320380D01*
X163790190Y-87320380D02*
X163790190Y-86320380D01*
X163694952Y-86463238D01*
X163599714Y-86558476D01*
X163504476Y-86606095D01*
%TO.C,R14*%
X145661142Y-58872380D02*
X145327809Y-58396190D01*
X145089714Y-58872380D02*
X145089714Y-57872380D01*
X145470666Y-57872380D01*
X145565904Y-57920000D01*
X145613523Y-57967619D01*
X145661142Y-58062857D01*
X145661142Y-58205714D01*
X145613523Y-58300952D01*
X145565904Y-58348571D01*
X145470666Y-58396190D01*
X145089714Y-58396190D01*
X146613523Y-58872380D02*
X146042095Y-58872380D01*
X146327809Y-58872380D02*
X146327809Y-57872380D01*
X146232571Y-58015238D01*
X146137333Y-58110476D01*
X146042095Y-58158095D01*
X147470666Y-58205714D02*
X147470666Y-58872380D01*
X147232571Y-57824761D02*
X146994476Y-58539047D01*
X147613523Y-58539047D01*
%TO.C,R13*%
X158615142Y-58618380D02*
X158281809Y-58142190D01*
X158043714Y-58618380D02*
X158043714Y-57618380D01*
X158424666Y-57618380D01*
X158519904Y-57666000D01*
X158567523Y-57713619D01*
X158615142Y-57808857D01*
X158615142Y-57951714D01*
X158567523Y-58046952D01*
X158519904Y-58094571D01*
X158424666Y-58142190D01*
X158043714Y-58142190D01*
X159567523Y-58618380D02*
X158996095Y-58618380D01*
X159281809Y-58618380D02*
X159281809Y-57618380D01*
X159186571Y-57761238D01*
X159091333Y-57856476D01*
X158996095Y-57904095D01*
X159900857Y-57618380D02*
X160519904Y-57618380D01*
X160186571Y-57999333D01*
X160329428Y-57999333D01*
X160424666Y-58046952D01*
X160472285Y-58094571D01*
X160519904Y-58189809D01*
X160519904Y-58427904D01*
X160472285Y-58523142D01*
X160424666Y-58570761D01*
X160329428Y-58618380D01*
X160043714Y-58618380D01*
X159948476Y-58570761D01*
X159900857Y-58523142D01*
%TO.C,R11*%
X143121142Y-78938380D02*
X142787809Y-78462190D01*
X142549714Y-78938380D02*
X142549714Y-77938380D01*
X142930666Y-77938380D01*
X143025904Y-77986000D01*
X143073523Y-78033619D01*
X143121142Y-78128857D01*
X143121142Y-78271714D01*
X143073523Y-78366952D01*
X143025904Y-78414571D01*
X142930666Y-78462190D01*
X142549714Y-78462190D01*
X144073523Y-78938380D02*
X143502095Y-78938380D01*
X143787809Y-78938380D02*
X143787809Y-77938380D01*
X143692571Y-78081238D01*
X143597333Y-78176476D01*
X143502095Y-78224095D01*
X145025904Y-78938380D02*
X144454476Y-78938380D01*
X144740190Y-78938380D02*
X144740190Y-77938380D01*
X144644952Y-78081238D01*
X144549714Y-78176476D01*
X144454476Y-78224095D01*
%TO.C,R10*%
X138549142Y-78938380D02*
X138215809Y-78462190D01*
X137977714Y-78938380D02*
X137977714Y-77938380D01*
X138358666Y-77938380D01*
X138453904Y-77986000D01*
X138501523Y-78033619D01*
X138549142Y-78128857D01*
X138549142Y-78271714D01*
X138501523Y-78366952D01*
X138453904Y-78414571D01*
X138358666Y-78462190D01*
X137977714Y-78462190D01*
X139501523Y-78938380D02*
X138930095Y-78938380D01*
X139215809Y-78938380D02*
X139215809Y-77938380D01*
X139120571Y-78081238D01*
X139025333Y-78176476D01*
X138930095Y-78224095D01*
X140120571Y-77938380D02*
X140215809Y-77938380D01*
X140311047Y-77986000D01*
X140358666Y-78033619D01*
X140406285Y-78128857D01*
X140453904Y-78319333D01*
X140453904Y-78557428D01*
X140406285Y-78747904D01*
X140358666Y-78843142D01*
X140311047Y-78890761D01*
X140215809Y-78938380D01*
X140120571Y-78938380D01*
X140025333Y-78890761D01*
X139977714Y-78843142D01*
X139930095Y-78747904D01*
X139882476Y-78557428D01*
X139882476Y-78319333D01*
X139930095Y-78128857D01*
X139977714Y-78033619D01*
X140025333Y-77986000D01*
X140120571Y-77938380D01*
%TO.C,R9*%
X133691333Y-73350380D02*
X133358000Y-72874190D01*
X133119904Y-73350380D02*
X133119904Y-72350380D01*
X133500857Y-72350380D01*
X133596095Y-72398000D01*
X133643714Y-72445619D01*
X133691333Y-72540857D01*
X133691333Y-72683714D01*
X133643714Y-72778952D01*
X133596095Y-72826571D01*
X133500857Y-72874190D01*
X133119904Y-72874190D01*
X134167523Y-73350380D02*
X134358000Y-73350380D01*
X134453238Y-73302761D01*
X134500857Y-73255142D01*
X134596095Y-73112285D01*
X134643714Y-72921809D01*
X134643714Y-72540857D01*
X134596095Y-72445619D01*
X134548476Y-72398000D01*
X134453238Y-72350380D01*
X134262761Y-72350380D01*
X134167523Y-72398000D01*
X134119904Y-72445619D01*
X134072285Y-72540857D01*
X134072285Y-72778952D01*
X134119904Y-72874190D01*
X134167523Y-72921809D01*
X134262761Y-72969428D01*
X134453238Y-72969428D01*
X134548476Y-72921809D01*
X134596095Y-72874190D01*
X134643714Y-72778952D01*
%TO.C,R8*%
X176109333Y-74620380D02*
X175776000Y-74144190D01*
X175537904Y-74620380D02*
X175537904Y-73620380D01*
X175918857Y-73620380D01*
X176014095Y-73668000D01*
X176061714Y-73715619D01*
X176109333Y-73810857D01*
X176109333Y-73953714D01*
X176061714Y-74048952D01*
X176014095Y-74096571D01*
X175918857Y-74144190D01*
X175537904Y-74144190D01*
X176680761Y-74048952D02*
X176585523Y-74001333D01*
X176537904Y-73953714D01*
X176490285Y-73858476D01*
X176490285Y-73810857D01*
X176537904Y-73715619D01*
X176585523Y-73668000D01*
X176680761Y-73620380D01*
X176871238Y-73620380D01*
X176966476Y-73668000D01*
X177014095Y-73715619D01*
X177061714Y-73810857D01*
X177061714Y-73858476D01*
X177014095Y-73953714D01*
X176966476Y-74001333D01*
X176871238Y-74048952D01*
X176680761Y-74048952D01*
X176585523Y-74096571D01*
X176537904Y-74144190D01*
X176490285Y-74239428D01*
X176490285Y-74429904D01*
X176537904Y-74525142D01*
X176585523Y-74572761D01*
X176680761Y-74620380D01*
X176871238Y-74620380D01*
X176966476Y-74572761D01*
X177014095Y-74525142D01*
X177061714Y-74429904D01*
X177061714Y-74239428D01*
X177014095Y-74144190D01*
X176966476Y-74096571D01*
X176871238Y-74048952D01*
%TO.C,R7*%
X175968333Y-77668380D02*
X175635000Y-77192190D01*
X175396904Y-77668380D02*
X175396904Y-76668380D01*
X175777857Y-76668380D01*
X175873095Y-76716000D01*
X175920714Y-76763619D01*
X175968333Y-76858857D01*
X175968333Y-77001714D01*
X175920714Y-77096952D01*
X175873095Y-77144571D01*
X175777857Y-77192190D01*
X175396904Y-77192190D01*
X176301666Y-76668380D02*
X176968333Y-76668380D01*
X176539761Y-77668380D01*
%TO.C,R6*%
X159345333Y-112306380D02*
X159012000Y-111830190D01*
X158773904Y-112306380D02*
X158773904Y-111306380D01*
X159154857Y-111306380D01*
X159250095Y-111354000D01*
X159297714Y-111401619D01*
X159345333Y-111496857D01*
X159345333Y-111639714D01*
X159297714Y-111734952D01*
X159250095Y-111782571D01*
X159154857Y-111830190D01*
X158773904Y-111830190D01*
X160202476Y-111306380D02*
X160012000Y-111306380D01*
X159916761Y-111354000D01*
X159869142Y-111401619D01*
X159773904Y-111544476D01*
X159726285Y-111734952D01*
X159726285Y-112115904D01*
X159773904Y-112211142D01*
X159821523Y-112258761D01*
X159916761Y-112306380D01*
X160107238Y-112306380D01*
X160202476Y-112258761D01*
X160250095Y-112211142D01*
X160297714Y-112115904D01*
X160297714Y-111877809D01*
X160250095Y-111782571D01*
X160202476Y-111734952D01*
X160107238Y-111687333D01*
X159916761Y-111687333D01*
X159821523Y-111734952D01*
X159773904Y-111782571D01*
X159726285Y-111877809D01*
%TO.C,R5*%
X106201642Y-62682380D02*
X105868309Y-62206190D01*
X105630214Y-62682380D02*
X105630214Y-61682380D01*
X106011166Y-61682380D01*
X106106404Y-61730000D01*
X106154023Y-61777619D01*
X106201642Y-61872857D01*
X106201642Y-62015714D01*
X106154023Y-62110952D01*
X106106404Y-62158571D01*
X106011166Y-62206190D01*
X105630214Y-62206190D01*
X107106404Y-61682380D02*
X106630214Y-61682380D01*
X106582595Y-62158571D01*
X106630214Y-62110952D01*
X106725452Y-62063333D01*
X106963547Y-62063333D01*
X107058785Y-62110952D01*
X107106404Y-62158571D01*
X107154023Y-62253809D01*
X107154023Y-62491904D01*
X107106404Y-62587142D01*
X107058785Y-62634761D01*
X106963547Y-62682380D01*
X106725452Y-62682380D01*
X106630214Y-62634761D01*
X106582595Y-62587142D01*
%TO.C,R4*%
X150201333Y-80208380D02*
X149868000Y-79732190D01*
X149629904Y-80208380D02*
X149629904Y-79208380D01*
X150010857Y-79208380D01*
X150106095Y-79256000D01*
X150153714Y-79303619D01*
X150201333Y-79398857D01*
X150201333Y-79541714D01*
X150153714Y-79636952D01*
X150106095Y-79684571D01*
X150010857Y-79732190D01*
X149629904Y-79732190D01*
X151058476Y-79541714D02*
X151058476Y-80208380D01*
X150820380Y-79160761D02*
X150582285Y-79875047D01*
X151201333Y-79875047D01*
%TO.C,R3*%
X152487333Y-80208380D02*
X152154000Y-79732190D01*
X151915904Y-80208380D02*
X151915904Y-79208380D01*
X152296857Y-79208380D01*
X152392095Y-79256000D01*
X152439714Y-79303619D01*
X152487333Y-79398857D01*
X152487333Y-79541714D01*
X152439714Y-79636952D01*
X152392095Y-79684571D01*
X152296857Y-79732190D01*
X151915904Y-79732190D01*
X152820666Y-79208380D02*
X153439714Y-79208380D01*
X153106380Y-79589333D01*
X153249238Y-79589333D01*
X153344476Y-79636952D01*
X153392095Y-79684571D01*
X153439714Y-79779809D01*
X153439714Y-80017904D01*
X153392095Y-80113142D01*
X153344476Y-80160761D01*
X153249238Y-80208380D01*
X152963523Y-80208380D01*
X152868285Y-80160761D01*
X152820666Y-80113142D01*
%TO.C,R2*%
X106201642Y-58618380D02*
X105868309Y-58142190D01*
X105630214Y-58618380D02*
X105630214Y-57618380D01*
X106011166Y-57618380D01*
X106106404Y-57666000D01*
X106154023Y-57713619D01*
X106201642Y-57808857D01*
X106201642Y-57951714D01*
X106154023Y-58046952D01*
X106106404Y-58094571D01*
X106011166Y-58142190D01*
X105630214Y-58142190D01*
X106582595Y-57713619D02*
X106630214Y-57666000D01*
X106725452Y-57618380D01*
X106963547Y-57618380D01*
X107058785Y-57666000D01*
X107106404Y-57713619D01*
X107154023Y-57808857D01*
X107154023Y-57904095D01*
X107106404Y-58046952D01*
X106534976Y-58618380D01*
X107154023Y-58618380D01*
%TO.C,R1*%
X106201642Y-54554380D02*
X105868309Y-54078190D01*
X105630214Y-54554380D02*
X105630214Y-53554380D01*
X106011166Y-53554380D01*
X106106404Y-53602000D01*
X106154023Y-53649619D01*
X106201642Y-53744857D01*
X106201642Y-53887714D01*
X106154023Y-53982952D01*
X106106404Y-54030571D01*
X106011166Y-54078190D01*
X105630214Y-54078190D01*
X107154023Y-54554380D02*
X106582595Y-54554380D01*
X106868309Y-54554380D02*
X106868309Y-53554380D01*
X106773071Y-53697238D01*
X106677833Y-53792476D01*
X106582595Y-53840095D01*
%TO.C,LED4*%
X161440952Y-124394380D02*
X160964761Y-124394380D01*
X160964761Y-123394380D01*
X161774285Y-123870571D02*
X162107619Y-123870571D01*
X162250476Y-124394380D02*
X161774285Y-124394380D01*
X161774285Y-123394380D01*
X162250476Y-123394380D01*
X162679047Y-124394380D02*
X162679047Y-123394380D01*
X162917142Y-123394380D01*
X163060000Y-123442000D01*
X163155238Y-123537238D01*
X163202857Y-123632476D01*
X163250476Y-123822952D01*
X163250476Y-123965809D01*
X163202857Y-124156285D01*
X163155238Y-124251523D01*
X163060000Y-124346761D01*
X162917142Y-124394380D01*
X162679047Y-124394380D01*
X164107619Y-123727714D02*
X164107619Y-124394380D01*
X163869523Y-123346761D02*
X163631428Y-124061047D01*
X164250476Y-124061047D01*
%TO.C,LED3*%
X104392119Y-60650380D02*
X103915928Y-60650380D01*
X103915928Y-59650380D01*
X104725452Y-60126571D02*
X105058785Y-60126571D01*
X105201642Y-60650380D02*
X104725452Y-60650380D01*
X104725452Y-59650380D01*
X105201642Y-59650380D01*
X105630214Y-60650380D02*
X105630214Y-59650380D01*
X105868309Y-59650380D01*
X106011166Y-59698000D01*
X106106404Y-59793238D01*
X106154023Y-59888476D01*
X106201642Y-60078952D01*
X106201642Y-60221809D01*
X106154023Y-60412285D01*
X106106404Y-60507523D01*
X106011166Y-60602761D01*
X105868309Y-60650380D01*
X105630214Y-60650380D01*
X106534976Y-59650380D02*
X107154023Y-59650380D01*
X106820690Y-60031333D01*
X106963547Y-60031333D01*
X107058785Y-60078952D01*
X107106404Y-60126571D01*
X107154023Y-60221809D01*
X107154023Y-60459904D01*
X107106404Y-60555142D01*
X107058785Y-60602761D01*
X106963547Y-60650380D01*
X106677833Y-60650380D01*
X106582595Y-60602761D01*
X106534976Y-60555142D01*
%TO.C,LED2*%
X104392119Y-56586380D02*
X103915928Y-56586380D01*
X103915928Y-55586380D01*
X104725452Y-56062571D02*
X105058785Y-56062571D01*
X105201642Y-56586380D02*
X104725452Y-56586380D01*
X104725452Y-55586380D01*
X105201642Y-55586380D01*
X105630214Y-56586380D02*
X105630214Y-55586380D01*
X105868309Y-55586380D01*
X106011166Y-55634000D01*
X106106404Y-55729238D01*
X106154023Y-55824476D01*
X106201642Y-56014952D01*
X106201642Y-56157809D01*
X106154023Y-56348285D01*
X106106404Y-56443523D01*
X106011166Y-56538761D01*
X105868309Y-56586380D01*
X105630214Y-56586380D01*
X106582595Y-55681619D02*
X106630214Y-55634000D01*
X106725452Y-55586380D01*
X106963547Y-55586380D01*
X107058785Y-55634000D01*
X107106404Y-55681619D01*
X107154023Y-55776857D01*
X107154023Y-55872095D01*
X107106404Y-56014952D01*
X106534976Y-56586380D01*
X107154023Y-56586380D01*
%TO.C,LED1*%
X104392119Y-52522380D02*
X103915928Y-52522380D01*
X103915928Y-51522380D01*
X104725452Y-51998571D02*
X105058785Y-51998571D01*
X105201642Y-52522380D02*
X104725452Y-52522380D01*
X104725452Y-51522380D01*
X105201642Y-51522380D01*
X105630214Y-52522380D02*
X105630214Y-51522380D01*
X105868309Y-51522380D01*
X106011166Y-51570000D01*
X106106404Y-51665238D01*
X106154023Y-51760476D01*
X106201642Y-51950952D01*
X106201642Y-52093809D01*
X106154023Y-52284285D01*
X106106404Y-52379523D01*
X106011166Y-52474761D01*
X105868309Y-52522380D01*
X105630214Y-52522380D01*
X107154023Y-52522380D02*
X106582595Y-52522380D01*
X106868309Y-52522380D02*
X106868309Y-51522380D01*
X106773071Y-51665238D01*
X106677833Y-51760476D01*
X106582595Y-51808095D01*
%TO.C,CN3*%
X165425523Y-57507142D02*
X165377904Y-57554761D01*
X165235047Y-57602380D01*
X165139809Y-57602380D01*
X164996952Y-57554761D01*
X164901714Y-57459523D01*
X164854095Y-57364285D01*
X164806476Y-57173809D01*
X164806476Y-57030952D01*
X164854095Y-56840476D01*
X164901714Y-56745238D01*
X164996952Y-56650000D01*
X165139809Y-56602380D01*
X165235047Y-56602380D01*
X165377904Y-56650000D01*
X165425523Y-56697619D01*
X165854095Y-57602380D02*
X165854095Y-56602380D01*
X166425523Y-57602380D01*
X166425523Y-56602380D01*
X166806476Y-56602380D02*
X167425523Y-56602380D01*
X167092190Y-56983333D01*
X167235047Y-56983333D01*
X167330285Y-57030952D01*
X167377904Y-57078571D01*
X167425523Y-57173809D01*
X167425523Y-57411904D01*
X167377904Y-57507142D01*
X167330285Y-57554761D01*
X167235047Y-57602380D01*
X166949333Y-57602380D01*
X166854095Y-57554761D01*
X166806476Y-57507142D01*
%TO.C,CN2*%
X154757523Y-49633142D02*
X154709904Y-49680761D01*
X154567047Y-49728380D01*
X154471809Y-49728380D01*
X154328952Y-49680761D01*
X154233714Y-49585523D01*
X154186095Y-49490285D01*
X154138476Y-49299809D01*
X154138476Y-49156952D01*
X154186095Y-48966476D01*
X154233714Y-48871238D01*
X154328952Y-48776000D01*
X154471809Y-48728380D01*
X154567047Y-48728380D01*
X154709904Y-48776000D01*
X154757523Y-48823619D01*
X155186095Y-49728380D02*
X155186095Y-48728380D01*
X155757523Y-49728380D01*
X155757523Y-48728380D01*
X156186095Y-48823619D02*
X156233714Y-48776000D01*
X156328952Y-48728380D01*
X156567047Y-48728380D01*
X156662285Y-48776000D01*
X156709904Y-48823619D01*
X156757523Y-48918857D01*
X156757523Y-49014095D01*
X156709904Y-49156952D01*
X156138476Y-49728380D01*
X156757523Y-49728380D01*
%TO.C,CN1*%
X102433523Y-46585142D02*
X102385904Y-46632761D01*
X102243047Y-46680380D01*
X102147809Y-46680380D01*
X102004952Y-46632761D01*
X101909714Y-46537523D01*
X101862095Y-46442285D01*
X101814476Y-46251809D01*
X101814476Y-46108952D01*
X101862095Y-45918476D01*
X101909714Y-45823238D01*
X102004952Y-45728000D01*
X102147809Y-45680380D01*
X102243047Y-45680380D01*
X102385904Y-45728000D01*
X102433523Y-45775619D01*
X102862095Y-46680380D02*
X102862095Y-45680380D01*
X103433523Y-46680380D01*
X103433523Y-45680380D01*
X104433523Y-46680380D02*
X103862095Y-46680380D01*
X104147809Y-46680380D02*
X104147809Y-45680380D01*
X104052571Y-45823238D01*
X103957333Y-45918476D01*
X103862095Y-45966095D01*
%TO.C,C13*%
X154297142Y-115673142D02*
X154249523Y-115720761D01*
X154106666Y-115768380D01*
X154011428Y-115768380D01*
X153868571Y-115720761D01*
X153773333Y-115625523D01*
X153725714Y-115530285D01*
X153678095Y-115339809D01*
X153678095Y-115196952D01*
X153725714Y-115006476D01*
X153773333Y-114911238D01*
X153868571Y-114816000D01*
X154011428Y-114768380D01*
X154106666Y-114768380D01*
X154249523Y-114816000D01*
X154297142Y-114863619D01*
X155249523Y-115768380D02*
X154678095Y-115768380D01*
X154963809Y-115768380D02*
X154963809Y-114768380D01*
X154868571Y-114911238D01*
X154773333Y-115006476D01*
X154678095Y-115054095D01*
X155582857Y-114768380D02*
X156201904Y-114768380D01*
X155868571Y-115149333D01*
X156011428Y-115149333D01*
X156106666Y-115196952D01*
X156154285Y-115244571D01*
X156201904Y-115339809D01*
X156201904Y-115577904D01*
X156154285Y-115673142D01*
X156106666Y-115720761D01*
X156011428Y-115768380D01*
X155725714Y-115768380D01*
X155630476Y-115720761D01*
X155582857Y-115673142D01*
%TO.C,C12*%
X164965142Y-115579142D02*
X164917523Y-115626761D01*
X164774666Y-115674380D01*
X164679428Y-115674380D01*
X164536571Y-115626761D01*
X164441333Y-115531523D01*
X164393714Y-115436285D01*
X164346095Y-115245809D01*
X164346095Y-115102952D01*
X164393714Y-114912476D01*
X164441333Y-114817238D01*
X164536571Y-114722000D01*
X164679428Y-114674380D01*
X164774666Y-114674380D01*
X164917523Y-114722000D01*
X164965142Y-114769619D01*
X165917523Y-115674380D02*
X165346095Y-115674380D01*
X165631809Y-115674380D02*
X165631809Y-114674380D01*
X165536571Y-114817238D01*
X165441333Y-114912476D01*
X165346095Y-114960095D01*
X166298476Y-114769619D02*
X166346095Y-114722000D01*
X166441333Y-114674380D01*
X166679428Y-114674380D01*
X166774666Y-114722000D01*
X166822285Y-114769619D01*
X166869904Y-114864857D01*
X166869904Y-114960095D01*
X166822285Y-115102952D01*
X166250857Y-115674380D01*
X166869904Y-115674380D01*
%TO.C,C10*%
X130929142Y-56745142D02*
X130881523Y-56792761D01*
X130738666Y-56840380D01*
X130643428Y-56840380D01*
X130500571Y-56792761D01*
X130405333Y-56697523D01*
X130357714Y-56602285D01*
X130310095Y-56411809D01*
X130310095Y-56268952D01*
X130357714Y-56078476D01*
X130405333Y-55983238D01*
X130500571Y-55888000D01*
X130643428Y-55840380D01*
X130738666Y-55840380D01*
X130881523Y-55888000D01*
X130929142Y-55935619D01*
X131881523Y-56840380D02*
X131310095Y-56840380D01*
X131595809Y-56840380D02*
X131595809Y-55840380D01*
X131500571Y-55983238D01*
X131405333Y-56078476D01*
X131310095Y-56126095D01*
X132500571Y-55840380D02*
X132595809Y-55840380D01*
X132691047Y-55888000D01*
X132738666Y-55935619D01*
X132786285Y-56030857D01*
X132833904Y-56221333D01*
X132833904Y-56459428D01*
X132786285Y-56649904D01*
X132738666Y-56745142D01*
X132691047Y-56792761D01*
X132595809Y-56840380D01*
X132500571Y-56840380D01*
X132405333Y-56792761D01*
X132357714Y-56745142D01*
X132310095Y-56649904D01*
X132262476Y-56459428D01*
X132262476Y-56221333D01*
X132310095Y-56030857D01*
X132357714Y-55935619D01*
X132405333Y-55888000D01*
X132500571Y-55840380D01*
%TO.C,C9*%
X166203333Y-81383142D02*
X166155714Y-81430761D01*
X166012857Y-81478380D01*
X165917619Y-81478380D01*
X165774761Y-81430761D01*
X165679523Y-81335523D01*
X165631904Y-81240285D01*
X165584285Y-81049809D01*
X165584285Y-80906952D01*
X165631904Y-80716476D01*
X165679523Y-80621238D01*
X165774761Y-80526000D01*
X165917619Y-80478380D01*
X166012857Y-80478380D01*
X166155714Y-80526000D01*
X166203333Y-80573619D01*
X166679523Y-81478380D02*
X166870000Y-81478380D01*
X166965238Y-81430761D01*
X167012857Y-81383142D01*
X167108095Y-81240285D01*
X167155714Y-81049809D01*
X167155714Y-80668857D01*
X167108095Y-80573619D01*
X167060476Y-80526000D01*
X166965238Y-80478380D01*
X166774761Y-80478380D01*
X166679523Y-80526000D01*
X166631904Y-80573619D01*
X166584285Y-80668857D01*
X166584285Y-80906952D01*
X166631904Y-81002190D01*
X166679523Y-81049809D01*
X166774761Y-81097428D01*
X166965238Y-81097428D01*
X167060476Y-81049809D01*
X167108095Y-81002190D01*
X167155714Y-80906952D01*
%TO.C,C8*%
X147153333Y-88241142D02*
X147105714Y-88288761D01*
X146962857Y-88336380D01*
X146867619Y-88336380D01*
X146724761Y-88288761D01*
X146629523Y-88193523D01*
X146581904Y-88098285D01*
X146534285Y-87907809D01*
X146534285Y-87764952D01*
X146581904Y-87574476D01*
X146629523Y-87479238D01*
X146724761Y-87384000D01*
X146867619Y-87336380D01*
X146962857Y-87336380D01*
X147105714Y-87384000D01*
X147153333Y-87431619D01*
X147724761Y-87764952D02*
X147629523Y-87717333D01*
X147581904Y-87669714D01*
X147534285Y-87574476D01*
X147534285Y-87526857D01*
X147581904Y-87431619D01*
X147629523Y-87384000D01*
X147724761Y-87336380D01*
X147915238Y-87336380D01*
X148010476Y-87384000D01*
X148058095Y-87431619D01*
X148105714Y-87526857D01*
X148105714Y-87574476D01*
X148058095Y-87669714D01*
X148010476Y-87717333D01*
X147915238Y-87764952D01*
X147724761Y-87764952D01*
X147629523Y-87812571D01*
X147581904Y-87860190D01*
X147534285Y-87955428D01*
X147534285Y-88145904D01*
X147581904Y-88241142D01*
X147629523Y-88288761D01*
X147724761Y-88336380D01*
X147915238Y-88336380D01*
X148010476Y-88288761D01*
X148058095Y-88241142D01*
X148105714Y-88145904D01*
X148105714Y-87955428D01*
X148058095Y-87860190D01*
X148010476Y-87812571D01*
X147915238Y-87764952D01*
%TO.C,C7*%
X147153333Y-83161142D02*
X147105714Y-83208761D01*
X146962857Y-83256380D01*
X146867619Y-83256380D01*
X146724761Y-83208761D01*
X146629523Y-83113523D01*
X146581904Y-83018285D01*
X146534285Y-82827809D01*
X146534285Y-82684952D01*
X146581904Y-82494476D01*
X146629523Y-82399238D01*
X146724761Y-82304000D01*
X146867619Y-82256380D01*
X146962857Y-82256380D01*
X147105714Y-82304000D01*
X147153333Y-82351619D01*
X147486666Y-82256380D02*
X148153333Y-82256380D01*
X147724761Y-83256380D01*
%TO.C,C6*%
X155281333Y-69953142D02*
X155233714Y-70000761D01*
X155090857Y-70048380D01*
X154995619Y-70048380D01*
X154852761Y-70000761D01*
X154757523Y-69905523D01*
X154709904Y-69810285D01*
X154662285Y-69619809D01*
X154662285Y-69476952D01*
X154709904Y-69286476D01*
X154757523Y-69191238D01*
X154852761Y-69096000D01*
X154995619Y-69048380D01*
X155090857Y-69048380D01*
X155233714Y-69096000D01*
X155281333Y-69143619D01*
X156138476Y-69048380D02*
X155948000Y-69048380D01*
X155852761Y-69096000D01*
X155805142Y-69143619D01*
X155709904Y-69286476D01*
X155662285Y-69476952D01*
X155662285Y-69857904D01*
X155709904Y-69953142D01*
X155757523Y-70000761D01*
X155852761Y-70048380D01*
X156043238Y-70048380D01*
X156138476Y-70000761D01*
X156186095Y-69953142D01*
X156233714Y-69857904D01*
X156233714Y-69619809D01*
X156186095Y-69524571D01*
X156138476Y-69476952D01*
X156043238Y-69429333D01*
X155852761Y-69429333D01*
X155757523Y-69476952D01*
X155709904Y-69524571D01*
X155662285Y-69619809D01*
%TO.C,C5*%
X154773333Y-80113142D02*
X154725714Y-80160761D01*
X154582857Y-80208380D01*
X154487619Y-80208380D01*
X154344761Y-80160761D01*
X154249523Y-80065523D01*
X154201904Y-79970285D01*
X154154285Y-79779809D01*
X154154285Y-79636952D01*
X154201904Y-79446476D01*
X154249523Y-79351238D01*
X154344761Y-79256000D01*
X154487619Y-79208380D01*
X154582857Y-79208380D01*
X154725714Y-79256000D01*
X154773333Y-79303619D01*
X155678095Y-79208380D02*
X155201904Y-79208380D01*
X155154285Y-79684571D01*
X155201904Y-79636952D01*
X155297142Y-79589333D01*
X155535238Y-79589333D01*
X155630476Y-79636952D01*
X155678095Y-79684571D01*
X155725714Y-79779809D01*
X155725714Y-80017904D01*
X155678095Y-80113142D01*
X155630476Y-80160761D01*
X155535238Y-80208380D01*
X155297142Y-80208380D01*
X155201904Y-80160761D01*
X155154285Y-80113142D01*
%TO.C,C4*%
X124801333Y-47093142D02*
X124753714Y-47140761D01*
X124610857Y-47188380D01*
X124515619Y-47188380D01*
X124372761Y-47140761D01*
X124277523Y-47045523D01*
X124229904Y-46950285D01*
X124182285Y-46759809D01*
X124182285Y-46616952D01*
X124229904Y-46426476D01*
X124277523Y-46331238D01*
X124372761Y-46236000D01*
X124515619Y-46188380D01*
X124610857Y-46188380D01*
X124753714Y-46236000D01*
X124801333Y-46283619D01*
X125658476Y-46521714D02*
X125658476Y-47188380D01*
X125420380Y-46140761D02*
X125182285Y-46855047D01*
X125801333Y-46855047D01*
%TO.C,C3*%
X169759333Y-70715142D02*
X169711714Y-70762761D01*
X169568857Y-70810380D01*
X169473619Y-70810380D01*
X169330761Y-70762761D01*
X169235523Y-70667523D01*
X169187904Y-70572285D01*
X169140285Y-70381809D01*
X169140285Y-70238952D01*
X169187904Y-70048476D01*
X169235523Y-69953238D01*
X169330761Y-69858000D01*
X169473619Y-69810380D01*
X169568857Y-69810380D01*
X169711714Y-69858000D01*
X169759333Y-69905619D01*
X170092666Y-69810380D02*
X170711714Y-69810380D01*
X170378380Y-70191333D01*
X170521238Y-70191333D01*
X170616476Y-70238952D01*
X170664095Y-70286571D01*
X170711714Y-70381809D01*
X170711714Y-70619904D01*
X170664095Y-70715142D01*
X170616476Y-70762761D01*
X170521238Y-70810380D01*
X170235523Y-70810380D01*
X170140285Y-70762761D01*
X170092666Y-70715142D01*
%TO.C,C2*%
X122261333Y-47093142D02*
X122213714Y-47140761D01*
X122070857Y-47188380D01*
X121975619Y-47188380D01*
X121832761Y-47140761D01*
X121737523Y-47045523D01*
X121689904Y-46950285D01*
X121642285Y-46759809D01*
X121642285Y-46616952D01*
X121689904Y-46426476D01*
X121737523Y-46331238D01*
X121832761Y-46236000D01*
X121975619Y-46188380D01*
X122070857Y-46188380D01*
X122213714Y-46236000D01*
X122261333Y-46283619D01*
X122642285Y-46283619D02*
X122689904Y-46236000D01*
X122785142Y-46188380D01*
X123023238Y-46188380D01*
X123118476Y-46236000D01*
X123166095Y-46283619D01*
X123213714Y-46378857D01*
X123213714Y-46474095D01*
X123166095Y-46616952D01*
X122594666Y-47188380D01*
X123213714Y-47188380D01*
%TO.C,C1*%
X147407333Y-95607142D02*
X147359714Y-95654761D01*
X147216857Y-95702380D01*
X147121619Y-95702380D01*
X146978761Y-95654761D01*
X146883523Y-95559523D01*
X146835904Y-95464285D01*
X146788285Y-95273809D01*
X146788285Y-95130952D01*
X146835904Y-94940476D01*
X146883523Y-94845238D01*
X146978761Y-94750000D01*
X147121619Y-94702380D01*
X147216857Y-94702380D01*
X147359714Y-94750000D01*
X147407333Y-94797619D01*
X148359714Y-95702380D02*
X147788285Y-95702380D01*
X148074000Y-95702380D02*
X148074000Y-94702380D01*
X147978761Y-94845238D01*
X147883523Y-94940476D01*
X147788285Y-94988095D01*
%TD*%
M02*
