<?xml version="1.0" encoding="UTF-8" standalone="no"?>
<svg
   xmlns:dc="http://purl.org/dc/elements/1.1/"
   xmlns:cc="http://creativecommons.org/ns#"
   xmlns:rdf="http://www.w3.org/1999/02/22-rdf-syntax-ns#"
   xmlns:svg="http://www.w3.org/2000/svg"
   xmlns="http://www.w3.org/2000/svg"
   xmlns:sodipodi="http://sodipodi.sourceforge.net/DTD/sodipodi-0.dtd"
   xmlns:inkscape="http://www.inkscape.org/namespaces/inkscape"
   width="336.802mm"
   height="127.251mm"
   viewBox="0.000 0.000 336.802 127.251"
   version="1.1"
   id="svg43937"
   sodipodi:docname="bottom_layer_v0.svg"
   inkscape:version="0.92.4 (5da689c313, 2019-01-14)">
  <metadata
     id="metadata43943">
    <rdf:RDF>
      <cc:Work
         rdf:about="">
        <dc:format>image/svg+xml</dc:format>
        <dc:type
           rdf:resource="http://purl.org/dc/dcmitype/StillImage" />
      </cc:Work>
    </rdf:RDF>
  </metadata>
  <defs
     id="defs43941" />
  <sodipodi:namedview
     inkscape:document-rotation="0"
     pagecolor="#ffffff"
     bordercolor="#666666"
     borderopacity="1"
     objecttolerance="10"
     gridtolerance="10"
     guidetolerance="10"
     inkscape:pageopacity="0"
     inkscape:pageshadow="2"
     inkscape:window-width="2560"
     inkscape:window-height="1387"
     id="namedview43939"
     showgrid="false"
     inkscape:zoom="1.6764177"
     inkscape:cx="700.77544"
     inkscape:cy="234.53491"
     inkscape:window-x="1912"
     inkscape:window-y="-8"
     inkscape:window-maximized="1"
     inkscape:current-layer="layer2" />
  <g
     inkscape:groupmode="layer"
     id="layer2"
     inkscape:label="Layer 1"
     style="display:inline">
    <g
       id="g44794"
       transform="translate(0.00850034,0.0032998)">
      <g
         id="layer1"
         inkscape:label="Layer 1"
         style="display:inline">
        <g
           id="g43004"
           transform="matrix(-0.00254,0,0,0.00254,380.34398,-73.724647)">
          <g
             id="g41004"
             style="fill:#000000;fill-opacity:1;stroke:#000000;stroke-linecap:round;stroke-linejoin:round;stroke-opacity:1" />
          <g
             id="g41006"
             style="fill:#000000;fill-opacity:0;stroke:#000000;stroke-width:-0.000393701;stroke-linecap:round;stroke-linejoin:round;stroke-opacity:1" />
          <g
             id="g41572"
             style="fill:#000000;fill-opacity:0;stroke:#000000;stroke-width:74.375;stroke-linecap:round;stroke-linejoin:round;stroke-miterlimit:4;stroke-dasharray:none;stroke-opacity:1">
            <path
               id="circle41008"
               d="m 41655.633,50070.102 a 562.73514,562.73514 0 0 1 -562.735,562.735 562.73514,562.73514 0 0 1 -562.735,-562.735 562.73514,562.73514 0 0 1 562.735,-562.735 562.73514,562.73514 0 0 1 562.735,562.735"
               style="stroke-width:74.37500079;stroke-miterlimit:4;stroke-dasharray:none" />
            <path
               id="circle41010"
               d="m 50415.536,58042.5 a 562.73514,562.73514 0 0 1 -562.735,562.735 562.73514,562.73514 0 0 1 -562.735,-562.735 562.73514,562.73514 0 0 1 562.735,-562.735 562.73514,562.73514 0 0 1 562.735,562.735"
               style="stroke-width:74.37500079;stroke-miterlimit:4;stroke-dasharray:none" />
            <path
               id="circle41012"
               d="m 72758.032,50070.102 a 562.73514,562.73514 0 0 1 -562.735,562.735 562.73514,562.73514 0 0 1 -562.735,-562.735 562.73514,562.73514 0 0 1 562.735,-562.735 562.73514,562.73514 0 0 1 562.735,562.735"
               style="stroke-width:74.37500079;stroke-miterlimit:4;stroke-dasharray:none" />
            <path
               id="circle41014"
               d="m 89687.133,58042.5 a 562.73514,562.73514 0 0 1 -562.735,562.735 562.73514,562.73514 0 0 1 -562.735,-562.735 562.73514,562.73514 0 0 1 562.735,-562.735 562.73514,562.73514 0 0 1 562.735,562.735"
               style="stroke-width:74.37500079;stroke-miterlimit:4;stroke-dasharray:none" />
            <path
               id="circle41016"
               d="m 110159.73,50070.102 a 562.73514,562.73514 0 0 1 -562.73,562.735 562.73514,562.73514 0 0 1 -562.73,-562.735 562.73514,562.73514 0 0 1 562.73,-562.735 562.73514,562.73514 0 0 1 562.73,562.735"
               style="stroke-width:74.37500079;stroke-miterlimit:4;stroke-dasharray:none" />
            <path
               id="circle41018"
               d="m 127088.73,58042.5 a 562.73514,562.73514 0 0 1 -562.73,562.735 562.73514,562.73514 0 0 1 -562.73,-562.735 562.73514,562.73514 0 0 1 562.73,-562.735 562.73514,562.73514 0 0 1 562.73,562.735"
               style="stroke-width:74.37500079;stroke-miterlimit:4;stroke-dasharray:none" />
            <g
               id="g43875"
               transform="matrix(-393.70079,0,0,393.70079,149330.71,29409.414)"
               style="stroke-width:0.188912;stroke-miterlimit:4;stroke-dasharray:none" />
            <text
               xml:space="preserve"
               style="font-style:normal;font-variant:normal;font-weight:normal;font-stretch:normal;font-size:1666.66662598px;line-height:1.25;font-family:Consolas;-inkscape-font-specification:'Consolas, Normal';font-variant-ligatures:normal;font-variant-caps:normal;font-variant-numeric:normal;font-feature-settings:normal;text-align:start;letter-spacing:0px;word-spacing:0px;writing-mode:lr-tb;text-anchor:start;fill:#000000;fill-opacity:1;stroke:none;stroke-width:104.16666412"
               x="-145072.42"
               y="32826.098"
               id="text903"
               transform="scale(-1,1)"><tspan
                 sodipodi:role="line"
                 id="tspan901"
                 x="-145072.42"
                 y="32826.098"
                 style="font-style:normal;font-variant:normal;font-weight:normal;font-stretch:normal;font-size:1666.66662598px;font-family:Consolas;-inkscape-font-specification:'Consolas, Normal';font-variant-ligatures:normal;font-variant-caps:normal;font-variant-numeric:normal;font-feature-settings:normal;text-align:start;writing-mode:lr-tb;text-anchor:start;stroke-width:104.16666412">v1</tspan></text>
            <polygon
               points="7.348,9.338 7.663,9.653 8.059,9.856 8.5,9.926 8.941,9.856 9.338,9.653 9.653,9.338 9.856,8.941 9.925,8.501 9.856,8.059 9.653,7.663 9.338,7.348 8.941,7.145 8.5,7.076 8.059,7.145 7.663,7.348 7.348,7.663 7.145,8.059 7.075,8.501 7.145,8.941 "
               style="fill:none;stroke:#000000;stroke-width:0.05mm"
               id="polygon2533"
               transform="matrix(393.70079,0,0,393.70079,17145.858,29024.152)" />
            <polygon
               points="87.298,9.338 87.613,9.653 88.01,9.856 88.451,9.926 88.891,9.856 89.288,9.653 89.604,9.338 89.806,8.941 89.876,8.501 89.806,8.059 89.604,7.663 89.288,7.348 88.891,7.145 88.451,7.076 88.01,7.145 87.613,7.348 87.298,7.663 87.095,8.059 87.026,8.501 87.095,8.941 "
               style="fill:none;stroke:#000000;stroke-width:0.05mm"
               id="polygon2539"
               transform="matrix(393.70079,0,0,393.70079,17145.858,29024.152)" />
            <polygon
               transform="matrix(393.70079,0,0,393.70079,43145.314,29024.104)"
               id="polygon2539-6-0"
               style="fill:none;stroke:#000000;stroke-width:0.05mm"
               points="89.288,9.653 89.604,9.338 89.806,8.941 89.876,8.501 89.806,8.059 89.604,7.663 89.288,7.348 88.891,7.145 88.451,7.076 88.01,7.145 87.613,7.348 87.298,7.663 87.095,8.059 87.026,8.501 87.095,8.941 87.298,9.338 87.613,9.653 88.01,9.856 88.451,9.926 88.891,9.856 " />
          </g>
        </g>
      </g>
    </g>
    <polygon
       points="330.977,5.382 331.1,5.48 331.216,5.586 331.322,5.702 331.42,5.825 331.507,5.956 331.584,6.093 331.649,6.235 331.704,6.382 331.746,6.534 331.777,6.688 331.795,6.844 331.802,7.001 331.802,120.251 331.795,120.408 331.777,120.564 331.746,120.718 331.704,120.87 331.649,121.017 331.584,121.159 331.507,121.296 331.42,121.427 331.322,121.55 331.216,121.666 331.1,121.772 330.977,121.87 330.846,121.957 330.709,122.034 330.567,122.099 330.42,122.154 330.268,122.196 330.114,122.227 329.958,122.245 329.802,122.251 7.001,122.251 6.844,122.245 6.688,122.227 6.534,122.196 6.382,122.154 6.235,122.099 6.093,122.034 5.956,121.957 5.825,121.87 5.702,121.772 5.586,121.666 5.48,121.55 5.382,121.427 5.295,121.296 5.218,121.159 5.153,121.017 5.098,120.87 5.056,120.718 5.025,120.564 5.007,120.408 5,120.252 5.001,7.001 5.007,6.844 5.025,6.688 5.056,6.534 5.098,6.382 5.153,6.235 5.218,6.093 5.295,5.956 5.382,5.825 5.48,5.702 5.586,5.586 5.702,5.48 5.825,5.382 5.956,5.295 6.093,5.218 6.235,5.153 6.382,5.098 6.534,5.056 6.688,5.025 6.844,5.007 7.001,5 329.802,5.001 329.958,5.007 330.114,5.025 330.268,5.056 330.42,5.098 330.567,5.153 330.709,5.218 330.846,5.295 "
       style="fill:none;stroke:#000000;stroke-width:0.05mm"
       id="polygon43911" />
    <polygon
       points="8.059,120.107 8.5,120.176 8.941,120.107 9.338,119.904 9.653,119.589 9.856,119.192 9.925,118.751 9.856,118.311 9.653,117.914 9.338,117.599 8.941,117.396 8.5,117.327 8.059,117.396 7.663,117.599 7.348,117.914 7.145,118.311 7.075,118.751 7.145,119.192 7.348,119.589 7.663,119.904 "
       style="fill:none;stroke:#000000;stroke-width:0.05mm"
       id="polygon43913" />
    <polygon
       points="88.01,120.107 88.451,120.176 88.891,120.107 89.288,119.904 89.604,119.589 89.806,119.192 89.876,118.751 89.806,118.311 89.604,117.914 89.288,117.599 88.891,117.396 88.451,117.327 88.01,117.396 87.613,117.599 87.298,117.914 87.095,118.311 87.026,118.751 87.095,119.192 87.298,119.589 87.613,119.904 "
       style="fill:none;stroke:#000000;stroke-width:0.05mm"
       id="polygon43915" />
    <polygon
       points="167.961,120.107 168.401,120.176 168.841,120.107 169.239,119.904 169.554,119.589 169.756,119.192 169.826,118.751 169.756,118.311 169.554,117.914 169.239,117.599 168.841,117.396 168.401,117.327 167.961,117.396 167.563,117.599 167.248,117.914 167.046,118.311 166.976,118.751 167.046,119.192 167.248,119.589 167.563,119.904 "
       style="fill:none;stroke:#000000;stroke-width:0.05mm"
       id="polygon43917" />
    <polygon
       points="247.911,120.107 248.351,120.176 248.792,120.107 249.189,119.904 249.504,119.589 249.707,119.192 249.776,118.751 249.707,118.311 249.504,117.914 249.189,117.599 248.792,117.396 248.351,117.327 247.911,117.396 247.514,117.599 247.198,117.914 246.996,118.311 246.926,118.751 246.996,119.192 247.198,119.589 247.514,119.904 "
       style="fill:none;stroke:#000000;stroke-width:0.05mm"
       id="polygon43919" />
    <polygon
       points="327.861,120.107 328.302,120.176 328.742,120.107 329.139,119.904 329.454,119.589 329.657,119.192 329.727,118.751 329.657,118.311 329.454,117.914 329.139,117.599 328.742,117.396 328.302,117.327 327.861,117.396 327.464,117.599 327.149,117.914 326.946,118.311 326.877,118.751 326.946,119.192 327.149,119.589 327.464,119.904 "
       style="fill:none;stroke:#000000;stroke-width:0.05mm"
       id="polygon43921" />
    <polygon
       points="8.059,64.981 8.5,65.051 8.941,64.981 9.338,64.779 9.653,64.463 9.856,64.066 9.925,63.626 9.856,63.186 9.653,62.788 9.338,62.473 8.941,62.271 8.5,62.201 8.059,62.271 7.663,62.473 7.348,62.788 7.145,63.186 7.075,63.626 7.145,64.066 7.348,64.463 7.663,64.779 "
       style="fill:none;stroke:#000000;stroke-width:0.05mm"
       id="polygon43923" />
    <polygon
       points="327.861,64.981 328.302,65.051 328.742,64.981 329.139,64.779 329.454,64.463 329.657,64.066 329.727,63.626 329.657,63.186 329.454,62.788 329.139,62.473 328.742,62.271 328.302,62.201 327.861,62.271 327.464,62.473 327.149,62.788 326.946,63.186 326.877,63.626 326.946,64.066 327.149,64.463 327.464,64.779 "
       style="fill:none;stroke:#000000;stroke-width:0.05mm"
       id="polygon43925" />
    <polygon
       points="8.059,9.856 8.5,9.926 8.941,9.856 9.338,9.653 9.653,9.338 9.856,8.941 9.925,8.501 9.856,8.059 9.653,7.663 9.338,7.348 8.941,7.145 8.5,7.076 8.059,7.145 7.663,7.348 7.348,7.663 7.145,8.059 7.075,8.501 7.145,8.941 7.348,9.338 7.663,9.653 "
       style="fill:none;stroke:#000000;stroke-width:0.05mm"
       id="polygon43927" />
    <polygon
       points="88.01,9.856 88.451,9.926 88.891,9.856 89.288,9.653 89.604,9.338 89.806,8.941 89.876,8.501 89.806,8.059 89.604,7.663 89.288,7.348 88.891,7.145 88.451,7.076 88.01,7.145 87.613,7.348 87.298,7.663 87.095,8.059 87.026,8.501 87.095,8.941 87.298,9.338 87.613,9.653 "
       style="fill:none;stroke:#000000;stroke-width:0.05mm"
       id="polygon43935" />
  </g>
</svg>
