%TF.GenerationSoftware,KiCad,Pcbnew,(5.1.6)-1*%
%TF.CreationDate,2021-06-16T19:52:11-04:00*%
%TF.ProjectId,QAZ_media,51415a5f-6d65-4646-9961-2e6b69636164,rev?*%
%TF.SameCoordinates,Original*%
%TF.FileFunction,Copper,L1,Top*%
%TF.FilePolarity,Positive*%
%FSLAX46Y46*%
G04 Gerber Fmt 4.6, Leading zero omitted, Abs format (unit mm)*
G04 Created by KiCad (PCBNEW (5.1.6)-1) date 2021-06-16 19:52:11*
%MOMM*%
%LPD*%
G01*
G04 APERTURE LIST*
%TA.AperFunction,ComponentPad*%
%ADD10C,2.540000*%
%TD*%
%TA.AperFunction,ComponentPad*%
%ADD11O,1.700000X1.700000*%
%TD*%
%TA.AperFunction,ComponentPad*%
%ADD12R,1.700000X1.700000*%
%TD*%
%TA.AperFunction,ComponentPad*%
%ADD13C,1.400000*%
%TD*%
%TA.AperFunction,SMDPad,CuDef*%
%ADD14R,2.900000X2.600000*%
%TD*%
%TA.AperFunction,SMDPad,CuDef*%
%ADD15R,0.650000X1.060000*%
%TD*%
%TA.AperFunction,SMDPad,CuDef*%
%ADD16R,4.600000X3.300000*%
%TD*%
%TA.AperFunction,ComponentPad*%
%ADD17C,2.000000*%
%TD*%
%TA.AperFunction,ComponentPad*%
%ADD18R,3.200000X2.000000*%
%TD*%
%TA.AperFunction,ComponentPad*%
%ADD19R,2.000000X2.000000*%
%TD*%
%TA.AperFunction,SMDPad,CuDef*%
%ADD20R,2.500000X1.000000*%
%TD*%
%TA.AperFunction,ComponentPad*%
%ADD21O,1.000000X1.000000*%
%TD*%
%TA.AperFunction,ComponentPad*%
%ADD22R,1.000000X1.000000*%
%TD*%
%TA.AperFunction,ComponentPad*%
%ADD23C,0.650000*%
%TD*%
%TA.AperFunction,ComponentPad*%
%ADD24O,0.900000X2.400000*%
%TD*%
%TA.AperFunction,ComponentPad*%
%ADD25O,0.900000X1.700000*%
%TD*%
%TA.AperFunction,ViaPad*%
%ADD26C,0.800000*%
%TD*%
%TA.AperFunction,ViaPad*%
%ADD27C,0.600000*%
%TD*%
%TA.AperFunction,ViaPad*%
%ADD28C,1.000000*%
%TD*%
%TA.AperFunction,Conductor*%
%ADD29C,0.300000*%
%TD*%
%TA.AperFunction,Conductor*%
%ADD30C,0.609600*%
%TD*%
%TA.AperFunction,Conductor*%
%ADD31C,0.250000*%
%TD*%
%TA.AperFunction,Conductor*%
%ADD32C,1.000000*%
%TD*%
%TA.AperFunction,Conductor*%
%ADD33C,0.500000*%
%TD*%
%TA.AperFunction,Conductor*%
%ADD34C,0.254000*%
%TD*%
G04 APERTURE END LIST*
D10*
%TO.P,SW5,1*%
%TO.N,GND*%
X129500000Y-106000000D03*
%TO.P,SW5,2*%
%TO.N,/PLAY_PAUSE*%
X134580000Y-100920000D03*
%TD*%
D11*
%TO.P,D4,2*%
%TO.N,Net-(D4-Pad2)*%
X114740000Y-111200000D03*
D12*
%TO.P,D4,1*%
%TO.N,GND*%
X112200000Y-111200000D03*
%TD*%
D13*
%TO.P,TP10,1*%
%TO.N,/SWCLK*%
X95750000Y-93250000D03*
%TD*%
%TO.P,SB2,2*%
%TO.N,+3V3*%
%TA.AperFunction,SMDPad,CuDef*%
G36*
G01*
X134762500Y-95850000D02*
X135237500Y-95850000D01*
G75*
G02*
X135475000Y-96087500I0J-237500D01*
G01*
X135475000Y-96662500D01*
G75*
G02*
X135237500Y-96900000I-237500J0D01*
G01*
X134762500Y-96900000D01*
G75*
G02*
X134525000Y-96662500I0J237500D01*
G01*
X134525000Y-96087500D01*
G75*
G02*
X134762500Y-95850000I237500J0D01*
G01*
G37*
%TD.AperFunction*%
%TO.P,SB2,1*%
%TO.N,Net-(C9-Pad1)*%
%TA.AperFunction,SMDPad,CuDef*%
G36*
G01*
X134762500Y-94100000D02*
X135237500Y-94100000D01*
G75*
G02*
X135475000Y-94337500I0J-237500D01*
G01*
X135475000Y-94912500D01*
G75*
G02*
X135237500Y-95150000I-237500J0D01*
G01*
X134762500Y-95150000D01*
G75*
G02*
X134525000Y-94912500I0J237500D01*
G01*
X134525000Y-94337500D01*
G75*
G02*
X134762500Y-94100000I237500J0D01*
G01*
G37*
%TD.AperFunction*%
%TD*%
D14*
%TO.P,Y1,2*%
%TO.N,/OSC_IN*%
X99100000Y-110250000D03*
%TO.P,Y1,1*%
%TO.N,/OSC_OUT*%
X104600000Y-110250000D03*
%TD*%
%TO.P,U2,1*%
%TO.N,+3V3*%
%TA.AperFunction,SMDPad,CuDef*%
G36*
G01*
X104825000Y-107400000D02*
X104675000Y-107400000D01*
G75*
G02*
X104600000Y-107325000I0J75000D01*
G01*
X104600000Y-106000000D01*
G75*
G02*
X104675000Y-105925000I75000J0D01*
G01*
X104825000Y-105925000D01*
G75*
G02*
X104900000Y-106000000I0J-75000D01*
G01*
X104900000Y-107325000D01*
G75*
G02*
X104825000Y-107400000I-75000J0D01*
G01*
G37*
%TD.AperFunction*%
%TO.P,U2,2*%
%TO.N,N/C*%
%TA.AperFunction,SMDPad,CuDef*%
G36*
G01*
X105325000Y-107400000D02*
X105175000Y-107400000D01*
G75*
G02*
X105100000Y-107325000I0J75000D01*
G01*
X105100000Y-106000000D01*
G75*
G02*
X105175000Y-105925000I75000J0D01*
G01*
X105325000Y-105925000D01*
G75*
G02*
X105400000Y-106000000I0J-75000D01*
G01*
X105400000Y-107325000D01*
G75*
G02*
X105325000Y-107400000I-75000J0D01*
G01*
G37*
%TD.AperFunction*%
%TO.P,U2,3*%
%TA.AperFunction,SMDPad,CuDef*%
G36*
G01*
X105825000Y-107400000D02*
X105675000Y-107400000D01*
G75*
G02*
X105600000Y-107325000I0J75000D01*
G01*
X105600000Y-106000000D01*
G75*
G02*
X105675000Y-105925000I75000J0D01*
G01*
X105825000Y-105925000D01*
G75*
G02*
X105900000Y-106000000I0J-75000D01*
G01*
X105900000Y-107325000D01*
G75*
G02*
X105825000Y-107400000I-75000J0D01*
G01*
G37*
%TD.AperFunction*%
%TO.P,U2,4*%
%TA.AperFunction,SMDPad,CuDef*%
G36*
G01*
X106325000Y-107400000D02*
X106175000Y-107400000D01*
G75*
G02*
X106100000Y-107325000I0J75000D01*
G01*
X106100000Y-106000000D01*
G75*
G02*
X106175000Y-105925000I75000J0D01*
G01*
X106325000Y-105925000D01*
G75*
G02*
X106400000Y-106000000I0J-75000D01*
G01*
X106400000Y-107325000D01*
G75*
G02*
X106325000Y-107400000I-75000J0D01*
G01*
G37*
%TD.AperFunction*%
%TO.P,U2,5*%
%TO.N,/OSC_IN*%
%TA.AperFunction,SMDPad,CuDef*%
G36*
G01*
X106825000Y-107400000D02*
X106675000Y-107400000D01*
G75*
G02*
X106600000Y-107325000I0J75000D01*
G01*
X106600000Y-106000000D01*
G75*
G02*
X106675000Y-105925000I75000J0D01*
G01*
X106825000Y-105925000D01*
G75*
G02*
X106900000Y-106000000I0J-75000D01*
G01*
X106900000Y-107325000D01*
G75*
G02*
X106825000Y-107400000I-75000J0D01*
G01*
G37*
%TD.AperFunction*%
%TO.P,U2,6*%
%TO.N,/OSC_OUT*%
%TA.AperFunction,SMDPad,CuDef*%
G36*
G01*
X107325000Y-107400000D02*
X107175000Y-107400000D01*
G75*
G02*
X107100000Y-107325000I0J75000D01*
G01*
X107100000Y-106000000D01*
G75*
G02*
X107175000Y-105925000I75000J0D01*
G01*
X107325000Y-105925000D01*
G75*
G02*
X107400000Y-106000000I0J-75000D01*
G01*
X107400000Y-107325000D01*
G75*
G02*
X107325000Y-107400000I-75000J0D01*
G01*
G37*
%TD.AperFunction*%
%TO.P,U2,7*%
%TO.N,/nRESET*%
%TA.AperFunction,SMDPad,CuDef*%
G36*
G01*
X107825000Y-107400000D02*
X107675000Y-107400000D01*
G75*
G02*
X107600000Y-107325000I0J75000D01*
G01*
X107600000Y-106000000D01*
G75*
G02*
X107675000Y-105925000I75000J0D01*
G01*
X107825000Y-105925000D01*
G75*
G02*
X107900000Y-106000000I0J-75000D01*
G01*
X107900000Y-107325000D01*
G75*
G02*
X107825000Y-107400000I-75000J0D01*
G01*
G37*
%TD.AperFunction*%
%TO.P,U2,8*%
%TO.N,GND*%
%TA.AperFunction,SMDPad,CuDef*%
G36*
G01*
X108325000Y-107400000D02*
X108175000Y-107400000D01*
G75*
G02*
X108100000Y-107325000I0J75000D01*
G01*
X108100000Y-106000000D01*
G75*
G02*
X108175000Y-105925000I75000J0D01*
G01*
X108325000Y-105925000D01*
G75*
G02*
X108400000Y-106000000I0J-75000D01*
G01*
X108400000Y-107325000D01*
G75*
G02*
X108325000Y-107400000I-75000J0D01*
G01*
G37*
%TD.AperFunction*%
%TO.P,U2,9*%
%TO.N,+3V3*%
%TA.AperFunction,SMDPad,CuDef*%
G36*
G01*
X108825000Y-107400000D02*
X108675000Y-107400000D01*
G75*
G02*
X108600000Y-107325000I0J75000D01*
G01*
X108600000Y-106000000D01*
G75*
G02*
X108675000Y-105925000I75000J0D01*
G01*
X108825000Y-105925000D01*
G75*
G02*
X108900000Y-106000000I0J-75000D01*
G01*
X108900000Y-107325000D01*
G75*
G02*
X108825000Y-107400000I-75000J0D01*
G01*
G37*
%TD.AperFunction*%
%TO.P,U2,10*%
%TO.N,N/C*%
%TA.AperFunction,SMDPad,CuDef*%
G36*
G01*
X109325000Y-107400000D02*
X109175000Y-107400000D01*
G75*
G02*
X109100000Y-107325000I0J75000D01*
G01*
X109100000Y-106000000D01*
G75*
G02*
X109175000Y-105925000I75000J0D01*
G01*
X109325000Y-105925000D01*
G75*
G02*
X109400000Y-106000000I0J-75000D01*
G01*
X109400000Y-107325000D01*
G75*
G02*
X109325000Y-107400000I-75000J0D01*
G01*
G37*
%TD.AperFunction*%
%TO.P,U2,11*%
%TA.AperFunction,SMDPad,CuDef*%
G36*
G01*
X109825000Y-107400000D02*
X109675000Y-107400000D01*
G75*
G02*
X109600000Y-107325000I0J75000D01*
G01*
X109600000Y-106000000D01*
G75*
G02*
X109675000Y-105925000I75000J0D01*
G01*
X109825000Y-105925000D01*
G75*
G02*
X109900000Y-106000000I0J-75000D01*
G01*
X109900000Y-107325000D01*
G75*
G02*
X109825000Y-107400000I-75000J0D01*
G01*
G37*
%TD.AperFunction*%
%TO.P,U2,12*%
%TA.AperFunction,SMDPad,CuDef*%
G36*
G01*
X110325000Y-107400000D02*
X110175000Y-107400000D01*
G75*
G02*
X110100000Y-107325000I0J75000D01*
G01*
X110100000Y-106000000D01*
G75*
G02*
X110175000Y-105925000I75000J0D01*
G01*
X110325000Y-105925000D01*
G75*
G02*
X110400000Y-106000000I0J-75000D01*
G01*
X110400000Y-107325000D01*
G75*
G02*
X110325000Y-107400000I-75000J0D01*
G01*
G37*
%TD.AperFunction*%
%TO.P,U2,13*%
%TO.N,/MUTE_LED*%
%TA.AperFunction,SMDPad,CuDef*%
G36*
G01*
X112325000Y-105400000D02*
X111000000Y-105400000D01*
G75*
G02*
X110925000Y-105325000I0J75000D01*
G01*
X110925000Y-105175000D01*
G75*
G02*
X111000000Y-105100000I75000J0D01*
G01*
X112325000Y-105100000D01*
G75*
G02*
X112400000Y-105175000I0J-75000D01*
G01*
X112400000Y-105325000D01*
G75*
G02*
X112325000Y-105400000I-75000J0D01*
G01*
G37*
%TD.AperFunction*%
%TO.P,U2,14*%
%TO.N,N/C*%
%TA.AperFunction,SMDPad,CuDef*%
G36*
G01*
X112325000Y-104900000D02*
X111000000Y-104900000D01*
G75*
G02*
X110925000Y-104825000I0J75000D01*
G01*
X110925000Y-104675000D01*
G75*
G02*
X111000000Y-104600000I75000J0D01*
G01*
X112325000Y-104600000D01*
G75*
G02*
X112400000Y-104675000I0J-75000D01*
G01*
X112400000Y-104825000D01*
G75*
G02*
X112325000Y-104900000I-75000J0D01*
G01*
G37*
%TD.AperFunction*%
%TO.P,U2,15*%
%TO.N,/HB_LED*%
%TA.AperFunction,SMDPad,CuDef*%
G36*
G01*
X112325000Y-104400000D02*
X111000000Y-104400000D01*
G75*
G02*
X110925000Y-104325000I0J75000D01*
G01*
X110925000Y-104175000D01*
G75*
G02*
X111000000Y-104100000I75000J0D01*
G01*
X112325000Y-104100000D01*
G75*
G02*
X112400000Y-104175000I0J-75000D01*
G01*
X112400000Y-104325000D01*
G75*
G02*
X112325000Y-104400000I-75000J0D01*
G01*
G37*
%TD.AperFunction*%
%TO.P,U2,16*%
%TO.N,N/C*%
%TA.AperFunction,SMDPad,CuDef*%
G36*
G01*
X112325000Y-103900000D02*
X111000000Y-103900000D01*
G75*
G02*
X110925000Y-103825000I0J75000D01*
G01*
X110925000Y-103675000D01*
G75*
G02*
X111000000Y-103600000I75000J0D01*
G01*
X112325000Y-103600000D01*
G75*
G02*
X112400000Y-103675000I0J-75000D01*
G01*
X112400000Y-103825000D01*
G75*
G02*
X112325000Y-103900000I-75000J0D01*
G01*
G37*
%TD.AperFunction*%
%TO.P,U2,17*%
%TA.AperFunction,SMDPad,CuDef*%
G36*
G01*
X112325000Y-103400000D02*
X111000000Y-103400000D01*
G75*
G02*
X110925000Y-103325000I0J75000D01*
G01*
X110925000Y-103175000D01*
G75*
G02*
X111000000Y-103100000I75000J0D01*
G01*
X112325000Y-103100000D01*
G75*
G02*
X112400000Y-103175000I0J-75000D01*
G01*
X112400000Y-103325000D01*
G75*
G02*
X112325000Y-103400000I-75000J0D01*
G01*
G37*
%TD.AperFunction*%
%TO.P,U2,18*%
%TA.AperFunction,SMDPad,CuDef*%
G36*
G01*
X112325000Y-102900000D02*
X111000000Y-102900000D01*
G75*
G02*
X110925000Y-102825000I0J75000D01*
G01*
X110925000Y-102675000D01*
G75*
G02*
X111000000Y-102600000I75000J0D01*
G01*
X112325000Y-102600000D01*
G75*
G02*
X112400000Y-102675000I0J-75000D01*
G01*
X112400000Y-102825000D01*
G75*
G02*
X112325000Y-102900000I-75000J0D01*
G01*
G37*
%TD.AperFunction*%
%TO.P,U2,19*%
%TO.N,/STOP*%
%TA.AperFunction,SMDPad,CuDef*%
G36*
G01*
X112325000Y-102400000D02*
X111000000Y-102400000D01*
G75*
G02*
X110925000Y-102325000I0J75000D01*
G01*
X110925000Y-102175000D01*
G75*
G02*
X111000000Y-102100000I75000J0D01*
G01*
X112325000Y-102100000D01*
G75*
G02*
X112400000Y-102175000I0J-75000D01*
G01*
X112400000Y-102325000D01*
G75*
G02*
X112325000Y-102400000I-75000J0D01*
G01*
G37*
%TD.AperFunction*%
%TO.P,U2,20*%
%TO.N,/PREVIOUS*%
%TA.AperFunction,SMDPad,CuDef*%
G36*
G01*
X112325000Y-101900000D02*
X111000000Y-101900000D01*
G75*
G02*
X110925000Y-101825000I0J75000D01*
G01*
X110925000Y-101675000D01*
G75*
G02*
X111000000Y-101600000I75000J0D01*
G01*
X112325000Y-101600000D01*
G75*
G02*
X112400000Y-101675000I0J-75000D01*
G01*
X112400000Y-101825000D01*
G75*
G02*
X112325000Y-101900000I-75000J0D01*
G01*
G37*
%TD.AperFunction*%
%TO.P,U2,21*%
%TO.N,/PLAY_PAUSE*%
%TA.AperFunction,SMDPad,CuDef*%
G36*
G01*
X112325000Y-101400000D02*
X111000000Y-101400000D01*
G75*
G02*
X110925000Y-101325000I0J75000D01*
G01*
X110925000Y-101175000D01*
G75*
G02*
X111000000Y-101100000I75000J0D01*
G01*
X112325000Y-101100000D01*
G75*
G02*
X112400000Y-101175000I0J-75000D01*
G01*
X112400000Y-101325000D01*
G75*
G02*
X112325000Y-101400000I-75000J0D01*
G01*
G37*
%TD.AperFunction*%
%TO.P,U2,22*%
%TO.N,/NEXT*%
%TA.AperFunction,SMDPad,CuDef*%
G36*
G01*
X112325000Y-100900000D02*
X111000000Y-100900000D01*
G75*
G02*
X110925000Y-100825000I0J75000D01*
G01*
X110925000Y-100675000D01*
G75*
G02*
X111000000Y-100600000I75000J0D01*
G01*
X112325000Y-100600000D01*
G75*
G02*
X112400000Y-100675000I0J-75000D01*
G01*
X112400000Y-100825000D01*
G75*
G02*
X112325000Y-100900000I-75000J0D01*
G01*
G37*
%TD.AperFunction*%
%TO.P,U2,23*%
%TO.N,GND*%
%TA.AperFunction,SMDPad,CuDef*%
G36*
G01*
X112325000Y-100400000D02*
X111000000Y-100400000D01*
G75*
G02*
X110925000Y-100325000I0J75000D01*
G01*
X110925000Y-100175000D01*
G75*
G02*
X111000000Y-100100000I75000J0D01*
G01*
X112325000Y-100100000D01*
G75*
G02*
X112400000Y-100175000I0J-75000D01*
G01*
X112400000Y-100325000D01*
G75*
G02*
X112325000Y-100400000I-75000J0D01*
G01*
G37*
%TD.AperFunction*%
%TO.P,U2,24*%
%TO.N,+3V3*%
%TA.AperFunction,SMDPad,CuDef*%
G36*
G01*
X112325000Y-99900000D02*
X111000000Y-99900000D01*
G75*
G02*
X110925000Y-99825000I0J75000D01*
G01*
X110925000Y-99675000D01*
G75*
G02*
X111000000Y-99600000I75000J0D01*
G01*
X112325000Y-99600000D01*
G75*
G02*
X112400000Y-99675000I0J-75000D01*
G01*
X112400000Y-99825000D01*
G75*
G02*
X112325000Y-99900000I-75000J0D01*
G01*
G37*
%TD.AperFunction*%
%TO.P,U2,25*%
%TO.N,N/C*%
%TA.AperFunction,SMDPad,CuDef*%
G36*
G01*
X110325000Y-99075000D02*
X110175000Y-99075000D01*
G75*
G02*
X110100000Y-99000000I0J75000D01*
G01*
X110100000Y-97675000D01*
G75*
G02*
X110175000Y-97600000I75000J0D01*
G01*
X110325000Y-97600000D01*
G75*
G02*
X110400000Y-97675000I0J-75000D01*
G01*
X110400000Y-99000000D01*
G75*
G02*
X110325000Y-99075000I-75000J0D01*
G01*
G37*
%TD.AperFunction*%
%TO.P,U2,26*%
%TA.AperFunction,SMDPad,CuDef*%
G36*
G01*
X109825000Y-99075000D02*
X109675000Y-99075000D01*
G75*
G02*
X109600000Y-99000000I0J75000D01*
G01*
X109600000Y-97675000D01*
G75*
G02*
X109675000Y-97600000I75000J0D01*
G01*
X109825000Y-97600000D01*
G75*
G02*
X109900000Y-97675000I0J-75000D01*
G01*
X109900000Y-99000000D01*
G75*
G02*
X109825000Y-99075000I-75000J0D01*
G01*
G37*
%TD.AperFunction*%
%TO.P,U2,27*%
%TA.AperFunction,SMDPad,CuDef*%
G36*
G01*
X109325000Y-99075000D02*
X109175000Y-99075000D01*
G75*
G02*
X109100000Y-99000000I0J75000D01*
G01*
X109100000Y-97675000D01*
G75*
G02*
X109175000Y-97600000I75000J0D01*
G01*
X109325000Y-97600000D01*
G75*
G02*
X109400000Y-97675000I0J-75000D01*
G01*
X109400000Y-99000000D01*
G75*
G02*
X109325000Y-99075000I-75000J0D01*
G01*
G37*
%TD.AperFunction*%
%TO.P,U2,28*%
%TA.AperFunction,SMDPad,CuDef*%
G36*
G01*
X108825000Y-99075000D02*
X108675000Y-99075000D01*
G75*
G02*
X108600000Y-99000000I0J75000D01*
G01*
X108600000Y-97675000D01*
G75*
G02*
X108675000Y-97600000I75000J0D01*
G01*
X108825000Y-97600000D01*
G75*
G02*
X108900000Y-97675000I0J-75000D01*
G01*
X108900000Y-99000000D01*
G75*
G02*
X108825000Y-99075000I-75000J0D01*
G01*
G37*
%TD.AperFunction*%
%TO.P,U2,29*%
%TO.N,/CLKOUT*%
%TA.AperFunction,SMDPad,CuDef*%
G36*
G01*
X108325000Y-99075000D02*
X108175000Y-99075000D01*
G75*
G02*
X108100000Y-99000000I0J75000D01*
G01*
X108100000Y-97675000D01*
G75*
G02*
X108175000Y-97600000I75000J0D01*
G01*
X108325000Y-97600000D01*
G75*
G02*
X108400000Y-97675000I0J-75000D01*
G01*
X108400000Y-99000000D01*
G75*
G02*
X108325000Y-99075000I-75000J0D01*
G01*
G37*
%TD.AperFunction*%
%TO.P,U2,30*%
%TO.N,/DBG_TX*%
%TA.AperFunction,SMDPad,CuDef*%
G36*
G01*
X107825000Y-99075000D02*
X107675000Y-99075000D01*
G75*
G02*
X107600000Y-99000000I0J75000D01*
G01*
X107600000Y-97675000D01*
G75*
G02*
X107675000Y-97600000I75000J0D01*
G01*
X107825000Y-97600000D01*
G75*
G02*
X107900000Y-97675000I0J-75000D01*
G01*
X107900000Y-99000000D01*
G75*
G02*
X107825000Y-99075000I-75000J0D01*
G01*
G37*
%TD.AperFunction*%
%TO.P,U2,31*%
%TO.N,N/C*%
%TA.AperFunction,SMDPad,CuDef*%
G36*
G01*
X107325000Y-99075000D02*
X107175000Y-99075000D01*
G75*
G02*
X107100000Y-99000000I0J75000D01*
G01*
X107100000Y-97675000D01*
G75*
G02*
X107175000Y-97600000I75000J0D01*
G01*
X107325000Y-97600000D01*
G75*
G02*
X107400000Y-97675000I0J-75000D01*
G01*
X107400000Y-99000000D01*
G75*
G02*
X107325000Y-99075000I-75000J0D01*
G01*
G37*
%TD.AperFunction*%
%TO.P,U2,32*%
%TO.N,/USB_D_-*%
%TA.AperFunction,SMDPad,CuDef*%
G36*
G01*
X106825000Y-99075000D02*
X106675000Y-99075000D01*
G75*
G02*
X106600000Y-99000000I0J75000D01*
G01*
X106600000Y-97675000D01*
G75*
G02*
X106675000Y-97600000I75000J0D01*
G01*
X106825000Y-97600000D01*
G75*
G02*
X106900000Y-97675000I0J-75000D01*
G01*
X106900000Y-99000000D01*
G75*
G02*
X106825000Y-99075000I-75000J0D01*
G01*
G37*
%TD.AperFunction*%
%TO.P,U2,33*%
%TO.N,/USB_D_+*%
%TA.AperFunction,SMDPad,CuDef*%
G36*
G01*
X106325000Y-99075000D02*
X106175000Y-99075000D01*
G75*
G02*
X106100000Y-99000000I0J75000D01*
G01*
X106100000Y-97675000D01*
G75*
G02*
X106175000Y-97600000I75000J0D01*
G01*
X106325000Y-97600000D01*
G75*
G02*
X106400000Y-97675000I0J-75000D01*
G01*
X106400000Y-99000000D01*
G75*
G02*
X106325000Y-99075000I-75000J0D01*
G01*
G37*
%TD.AperFunction*%
%TO.P,U2,34*%
%TO.N,/SWDIO*%
%TA.AperFunction,SMDPad,CuDef*%
G36*
G01*
X105825000Y-99075000D02*
X105675000Y-99075000D01*
G75*
G02*
X105600000Y-99000000I0J75000D01*
G01*
X105600000Y-97675000D01*
G75*
G02*
X105675000Y-97600000I75000J0D01*
G01*
X105825000Y-97600000D01*
G75*
G02*
X105900000Y-97675000I0J-75000D01*
G01*
X105900000Y-99000000D01*
G75*
G02*
X105825000Y-99075000I-75000J0D01*
G01*
G37*
%TD.AperFunction*%
%TO.P,U2,35*%
%TO.N,GND*%
%TA.AperFunction,SMDPad,CuDef*%
G36*
G01*
X105325000Y-99075000D02*
X105175000Y-99075000D01*
G75*
G02*
X105100000Y-99000000I0J75000D01*
G01*
X105100000Y-97675000D01*
G75*
G02*
X105175000Y-97600000I75000J0D01*
G01*
X105325000Y-97600000D01*
G75*
G02*
X105400000Y-97675000I0J-75000D01*
G01*
X105400000Y-99000000D01*
G75*
G02*
X105325000Y-99075000I-75000J0D01*
G01*
G37*
%TD.AperFunction*%
%TO.P,U2,36*%
%TO.N,+3V3*%
%TA.AperFunction,SMDPad,CuDef*%
G36*
G01*
X104825000Y-99075000D02*
X104675000Y-99075000D01*
G75*
G02*
X104600000Y-99000000I0J75000D01*
G01*
X104600000Y-97675000D01*
G75*
G02*
X104675000Y-97600000I75000J0D01*
G01*
X104825000Y-97600000D01*
G75*
G02*
X104900000Y-97675000I0J-75000D01*
G01*
X104900000Y-99000000D01*
G75*
G02*
X104825000Y-99075000I-75000J0D01*
G01*
G37*
%TD.AperFunction*%
%TO.P,U2,37*%
%TO.N,/SWCLK*%
%TA.AperFunction,SMDPad,CuDef*%
G36*
G01*
X104000000Y-99900000D02*
X102675000Y-99900000D01*
G75*
G02*
X102600000Y-99825000I0J75000D01*
G01*
X102600000Y-99675000D01*
G75*
G02*
X102675000Y-99600000I75000J0D01*
G01*
X104000000Y-99600000D01*
G75*
G02*
X104075000Y-99675000I0J-75000D01*
G01*
X104075000Y-99825000D01*
G75*
G02*
X104000000Y-99900000I-75000J0D01*
G01*
G37*
%TD.AperFunction*%
%TO.P,U2,38*%
%TO.N,/MUTE*%
%TA.AperFunction,SMDPad,CuDef*%
G36*
G01*
X104000000Y-100400000D02*
X102675000Y-100400000D01*
G75*
G02*
X102600000Y-100325000I0J75000D01*
G01*
X102600000Y-100175000D01*
G75*
G02*
X102675000Y-100100000I75000J0D01*
G01*
X104000000Y-100100000D01*
G75*
G02*
X104075000Y-100175000I0J-75000D01*
G01*
X104075000Y-100325000D01*
G75*
G02*
X104000000Y-100400000I-75000J0D01*
G01*
G37*
%TD.AperFunction*%
%TO.P,U2,39*%
%TO.N,N/C*%
%TA.AperFunction,SMDPad,CuDef*%
G36*
G01*
X104000000Y-100900000D02*
X102675000Y-100900000D01*
G75*
G02*
X102600000Y-100825000I0J75000D01*
G01*
X102600000Y-100675000D01*
G75*
G02*
X102675000Y-100600000I75000J0D01*
G01*
X104000000Y-100600000D01*
G75*
G02*
X104075000Y-100675000I0J-75000D01*
G01*
X104075000Y-100825000D01*
G75*
G02*
X104000000Y-100900000I-75000J0D01*
G01*
G37*
%TD.AperFunction*%
%TO.P,U2,40*%
%TO.N,/ROT_B*%
%TA.AperFunction,SMDPad,CuDef*%
G36*
G01*
X104000000Y-101400000D02*
X102675000Y-101400000D01*
G75*
G02*
X102600000Y-101325000I0J75000D01*
G01*
X102600000Y-101175000D01*
G75*
G02*
X102675000Y-101100000I75000J0D01*
G01*
X104000000Y-101100000D01*
G75*
G02*
X104075000Y-101175000I0J-75000D01*
G01*
X104075000Y-101325000D01*
G75*
G02*
X104000000Y-101400000I-75000J0D01*
G01*
G37*
%TD.AperFunction*%
%TO.P,U2,41*%
%TO.N,/ROT_A*%
%TA.AperFunction,SMDPad,CuDef*%
G36*
G01*
X104000000Y-101900000D02*
X102675000Y-101900000D01*
G75*
G02*
X102600000Y-101825000I0J75000D01*
G01*
X102600000Y-101675000D01*
G75*
G02*
X102675000Y-101600000I75000J0D01*
G01*
X104000000Y-101600000D01*
G75*
G02*
X104075000Y-101675000I0J-75000D01*
G01*
X104075000Y-101825000D01*
G75*
G02*
X104000000Y-101900000I-75000J0D01*
G01*
G37*
%TD.AperFunction*%
%TO.P,U2,42*%
%TO.N,N/C*%
%TA.AperFunction,SMDPad,CuDef*%
G36*
G01*
X104000000Y-102400000D02*
X102675000Y-102400000D01*
G75*
G02*
X102600000Y-102325000I0J75000D01*
G01*
X102600000Y-102175000D01*
G75*
G02*
X102675000Y-102100000I75000J0D01*
G01*
X104000000Y-102100000D01*
G75*
G02*
X104075000Y-102175000I0J-75000D01*
G01*
X104075000Y-102325000D01*
G75*
G02*
X104000000Y-102400000I-75000J0D01*
G01*
G37*
%TD.AperFunction*%
%TO.P,U2,43*%
%TA.AperFunction,SMDPad,CuDef*%
G36*
G01*
X104000000Y-102900000D02*
X102675000Y-102900000D01*
G75*
G02*
X102600000Y-102825000I0J75000D01*
G01*
X102600000Y-102675000D01*
G75*
G02*
X102675000Y-102600000I75000J0D01*
G01*
X104000000Y-102600000D01*
G75*
G02*
X104075000Y-102675000I0J-75000D01*
G01*
X104075000Y-102825000D01*
G75*
G02*
X104000000Y-102900000I-75000J0D01*
G01*
G37*
%TD.AperFunction*%
%TO.P,U2,44*%
%TO.N,/BOOT0*%
%TA.AperFunction,SMDPad,CuDef*%
G36*
G01*
X104000000Y-103400000D02*
X102675000Y-103400000D01*
G75*
G02*
X102600000Y-103325000I0J75000D01*
G01*
X102600000Y-103175000D01*
G75*
G02*
X102675000Y-103100000I75000J0D01*
G01*
X104000000Y-103100000D01*
G75*
G02*
X104075000Y-103175000I0J-75000D01*
G01*
X104075000Y-103325000D01*
G75*
G02*
X104000000Y-103400000I-75000J0D01*
G01*
G37*
%TD.AperFunction*%
%TO.P,U2,45*%
%TO.N,N/C*%
%TA.AperFunction,SMDPad,CuDef*%
G36*
G01*
X104000000Y-103900000D02*
X102675000Y-103900000D01*
G75*
G02*
X102600000Y-103825000I0J75000D01*
G01*
X102600000Y-103675000D01*
G75*
G02*
X102675000Y-103600000I75000J0D01*
G01*
X104000000Y-103600000D01*
G75*
G02*
X104075000Y-103675000I0J-75000D01*
G01*
X104075000Y-103825000D01*
G75*
G02*
X104000000Y-103900000I-75000J0D01*
G01*
G37*
%TD.AperFunction*%
%TO.P,U2,46*%
%TA.AperFunction,SMDPad,CuDef*%
G36*
G01*
X104000000Y-104400000D02*
X102675000Y-104400000D01*
G75*
G02*
X102600000Y-104325000I0J75000D01*
G01*
X102600000Y-104175000D01*
G75*
G02*
X102675000Y-104100000I75000J0D01*
G01*
X104000000Y-104100000D01*
G75*
G02*
X104075000Y-104175000I0J-75000D01*
G01*
X104075000Y-104325000D01*
G75*
G02*
X104000000Y-104400000I-75000J0D01*
G01*
G37*
%TD.AperFunction*%
%TO.P,U2,47*%
%TO.N,GND*%
%TA.AperFunction,SMDPad,CuDef*%
G36*
G01*
X104000000Y-104900000D02*
X102675000Y-104900000D01*
G75*
G02*
X102600000Y-104825000I0J75000D01*
G01*
X102600000Y-104675000D01*
G75*
G02*
X102675000Y-104600000I75000J0D01*
G01*
X104000000Y-104600000D01*
G75*
G02*
X104075000Y-104675000I0J-75000D01*
G01*
X104075000Y-104825000D01*
G75*
G02*
X104000000Y-104900000I-75000J0D01*
G01*
G37*
%TD.AperFunction*%
%TO.P,U2,48*%
%TO.N,+3V3*%
%TA.AperFunction,SMDPad,CuDef*%
G36*
G01*
X104000000Y-105400000D02*
X102675000Y-105400000D01*
G75*
G02*
X102600000Y-105325000I0J75000D01*
G01*
X102600000Y-105175000D01*
G75*
G02*
X102675000Y-105100000I75000J0D01*
G01*
X104000000Y-105100000D01*
G75*
G02*
X104075000Y-105175000I0J-75000D01*
G01*
X104075000Y-105325000D01*
G75*
G02*
X104000000Y-105400000I-75000J0D01*
G01*
G37*
%TD.AperFunction*%
%TD*%
D15*
%TO.P,U1,5*%
%TO.N,Net-(C9-Pad1)*%
X139050000Y-94300000D03*
%TO.P,U1,4*%
%TO.N,N/C*%
X140950000Y-94300000D03*
%TO.P,U1,3*%
%TO.N,Net-(SB1-Pad2)*%
X140950000Y-96500000D03*
%TO.P,U1,2*%
%TO.N,GND*%
X140000000Y-96500000D03*
%TO.P,U1,1*%
%TO.N,Net-(SB1-Pad2)*%
X139050000Y-96500000D03*
%TD*%
D13*
%TO.P,TP9,1*%
%TO.N,/SWDIO*%
X105250000Y-94750000D03*
%TD*%
%TO.P,TP8,1*%
%TO.N,/DBG_TX*%
X108250000Y-95750000D03*
%TD*%
%TO.P,TP7,1*%
%TO.N,/CLKOUT*%
X110000000Y-95750000D03*
%TD*%
%TO.P,TP6,1*%
%TO.N,/nRESET*%
X109250000Y-110750000D03*
%TD*%
%TO.P,TP5,1*%
%TO.N,Net-(C9-Pad1)*%
X133100000Y-94600000D03*
%TD*%
%TO.P,TP4,1*%
%TO.N,GND*%
X118300000Y-106100000D03*
%TD*%
D16*
%TO.P,TP3,1*%
%TO.N,GND*%
X84300000Y-95900000D03*
%TD*%
%TO.P,TP2,1*%
%TO.N,GND*%
X135700000Y-109800000D03*
%TD*%
D13*
%TO.P,TP1,1*%
%TO.N,+5V*%
X149200000Y-93400000D03*
%TD*%
D10*
%TO.P,SW6,1*%
%TO.N,GND*%
X114500000Y-106000000D03*
%TO.P,SW6,2*%
%TO.N,/NEXT*%
X119580000Y-100920000D03*
%TD*%
D17*
%TO.P,SW4,S1*%
%TO.N,/MUTE*%
X84500000Y-105000000D03*
%TO.P,SW4,S2*%
%TO.N,GND*%
X84500000Y-100000000D03*
D18*
%TO.P,SW4,MP*%
%TO.N,N/C*%
X91500000Y-108100000D03*
X91500000Y-96900000D03*
D17*
%TO.P,SW4,B*%
%TO.N,Net-(R11-Pad2)*%
X99000000Y-105000000D03*
%TO.P,SW4,C*%
%TO.N,GND*%
X99000000Y-102500000D03*
D19*
%TO.P,SW4,A*%
%TO.N,Net-(R10-Pad2)*%
X99000000Y-100000000D03*
%TD*%
D10*
%TO.P,SW3,1*%
%TO.N,GND*%
X144500000Y-106000000D03*
%TO.P,SW3,2*%
%TO.N,/PREVIOUS*%
X149580000Y-100920000D03*
%TD*%
%TO.P,SW2,1*%
%TO.N,GND*%
X159500000Y-106000000D03*
%TO.P,SW2,2*%
%TO.N,/STOP*%
X164580000Y-100920000D03*
%TD*%
D20*
%TO.P,SW1,2*%
%TO.N,Net-(R2-Pad2)*%
X85100000Y-102500000D03*
%TO.P,SW1,3*%
%TO.N,+3V3*%
X90700000Y-100000000D03*
%TO.P,SW1,1*%
%TO.N,GND*%
X90700000Y-105000000D03*
%TD*%
%TO.P,SB4,2*%
%TO.N,/USB_D_-*%
%TA.AperFunction,SMDPad,CuDef*%
G36*
G01*
X149550000Y-97862500D02*
X149550000Y-98337500D01*
G75*
G02*
X149312500Y-98575000I-237500J0D01*
G01*
X148737500Y-98575000D01*
G75*
G02*
X148500000Y-98337500I0J237500D01*
G01*
X148500000Y-97862500D01*
G75*
G02*
X148737500Y-97625000I237500J0D01*
G01*
X149312500Y-97625000D01*
G75*
G02*
X149550000Y-97862500I0J-237500D01*
G01*
G37*
%TD.AperFunction*%
%TO.P,SB4,1*%
%TO.N,/USB_D-*%
%TA.AperFunction,SMDPad,CuDef*%
G36*
G01*
X151300000Y-97862500D02*
X151300000Y-98337500D01*
G75*
G02*
X151062500Y-98575000I-237500J0D01*
G01*
X150487500Y-98575000D01*
G75*
G02*
X150250000Y-98337500I0J237500D01*
G01*
X150250000Y-97862500D01*
G75*
G02*
X150487500Y-97625000I237500J0D01*
G01*
X151062500Y-97625000D01*
G75*
G02*
X151300000Y-97862500I0J-237500D01*
G01*
G37*
%TD.AperFunction*%
%TD*%
%TO.P,SB3,2*%
%TO.N,/USB_D_+*%
%TA.AperFunction,SMDPad,CuDef*%
G36*
G01*
X149550000Y-96262500D02*
X149550000Y-96737500D01*
G75*
G02*
X149312500Y-96975000I-237500J0D01*
G01*
X148737500Y-96975000D01*
G75*
G02*
X148500000Y-96737500I0J237500D01*
G01*
X148500000Y-96262500D01*
G75*
G02*
X148737500Y-96025000I237500J0D01*
G01*
X149312500Y-96025000D01*
G75*
G02*
X149550000Y-96262500I0J-237500D01*
G01*
G37*
%TD.AperFunction*%
%TO.P,SB3,1*%
%TO.N,/USB_D+*%
%TA.AperFunction,SMDPad,CuDef*%
G36*
G01*
X151300000Y-96262500D02*
X151300000Y-96737500D01*
G75*
G02*
X151062500Y-96975000I-237500J0D01*
G01*
X150487500Y-96975000D01*
G75*
G02*
X150250000Y-96737500I0J237500D01*
G01*
X150250000Y-96262500D01*
G75*
G02*
X150487500Y-96025000I237500J0D01*
G01*
X151062500Y-96025000D01*
G75*
G02*
X151300000Y-96262500I0J-237500D01*
G01*
G37*
%TD.AperFunction*%
%TD*%
%TO.P,SB1,2*%
%TO.N,Net-(SB1-Pad2)*%
%TA.AperFunction,SMDPad,CuDef*%
G36*
G01*
X142762500Y-95850000D02*
X143237500Y-95850000D01*
G75*
G02*
X143475000Y-96087500I0J-237500D01*
G01*
X143475000Y-96662500D01*
G75*
G02*
X143237500Y-96900000I-237500J0D01*
G01*
X142762500Y-96900000D01*
G75*
G02*
X142525000Y-96662500I0J237500D01*
G01*
X142525000Y-96087500D01*
G75*
G02*
X142762500Y-95850000I237500J0D01*
G01*
G37*
%TD.AperFunction*%
%TO.P,SB1,1*%
%TO.N,+5V*%
%TA.AperFunction,SMDPad,CuDef*%
G36*
G01*
X142762500Y-94100000D02*
X143237500Y-94100000D01*
G75*
G02*
X143475000Y-94337500I0J-237500D01*
G01*
X143475000Y-94912500D01*
G75*
G02*
X143237500Y-95150000I-237500J0D01*
G01*
X142762500Y-95150000D01*
G75*
G02*
X142525000Y-94912500I0J237500D01*
G01*
X142525000Y-94337500D01*
G75*
G02*
X142762500Y-94100000I237500J0D01*
G01*
G37*
%TD.AperFunction*%
%TD*%
%TO.P,R18,2*%
%TO.N,/NEXT*%
%TA.AperFunction,SMDPad,CuDef*%
G36*
G01*
X115150000Y-99762500D02*
X115150000Y-100237500D01*
G75*
G02*
X114912500Y-100475000I-237500J0D01*
G01*
X114337500Y-100475000D01*
G75*
G02*
X114100000Y-100237500I0J237500D01*
G01*
X114100000Y-99762500D01*
G75*
G02*
X114337500Y-99525000I237500J0D01*
G01*
X114912500Y-99525000D01*
G75*
G02*
X115150000Y-99762500I0J-237500D01*
G01*
G37*
%TD.AperFunction*%
%TO.P,R18,1*%
%TO.N,+3V3*%
%TA.AperFunction,SMDPad,CuDef*%
G36*
G01*
X116900000Y-99762500D02*
X116900000Y-100237500D01*
G75*
G02*
X116662500Y-100475000I-237500J0D01*
G01*
X116087500Y-100475000D01*
G75*
G02*
X115850000Y-100237500I0J237500D01*
G01*
X115850000Y-99762500D01*
G75*
G02*
X116087500Y-99525000I237500J0D01*
G01*
X116662500Y-99525000D01*
G75*
G02*
X116900000Y-99762500I0J-237500D01*
G01*
G37*
%TD.AperFunction*%
%TD*%
%TO.P,R17,2*%
%TO.N,/MUTE*%
%TA.AperFunction,SMDPad,CuDef*%
G36*
G01*
X86850000Y-107762500D02*
X86850000Y-108237500D01*
G75*
G02*
X86612500Y-108475000I-237500J0D01*
G01*
X86037500Y-108475000D01*
G75*
G02*
X85800000Y-108237500I0J237500D01*
G01*
X85800000Y-107762500D01*
G75*
G02*
X86037500Y-107525000I237500J0D01*
G01*
X86612500Y-107525000D01*
G75*
G02*
X86850000Y-107762500I0J-237500D01*
G01*
G37*
%TD.AperFunction*%
%TO.P,R17,1*%
%TO.N,+3V3*%
%TA.AperFunction,SMDPad,CuDef*%
G36*
G01*
X88600000Y-107762500D02*
X88600000Y-108237500D01*
G75*
G02*
X88362500Y-108475000I-237500J0D01*
G01*
X87787500Y-108475000D01*
G75*
G02*
X87550000Y-108237500I0J237500D01*
G01*
X87550000Y-107762500D01*
G75*
G02*
X87787500Y-107525000I237500J0D01*
G01*
X88362500Y-107525000D01*
G75*
G02*
X88600000Y-107762500I0J-237500D01*
G01*
G37*
%TD.AperFunction*%
%TD*%
%TO.P,R16,2*%
%TO.N,Net-(CN1-PadB5)*%
%TA.AperFunction,SMDPad,CuDef*%
G36*
G01*
X162450000Y-91437500D02*
X162450000Y-90962500D01*
G75*
G02*
X162687500Y-90725000I237500J0D01*
G01*
X163262500Y-90725000D01*
G75*
G02*
X163500000Y-90962500I0J-237500D01*
G01*
X163500000Y-91437500D01*
G75*
G02*
X163262500Y-91675000I-237500J0D01*
G01*
X162687500Y-91675000D01*
G75*
G02*
X162450000Y-91437500I0J237500D01*
G01*
G37*
%TD.AperFunction*%
%TO.P,R16,1*%
%TO.N,GND*%
%TA.AperFunction,SMDPad,CuDef*%
G36*
G01*
X160700000Y-91437500D02*
X160700000Y-90962500D01*
G75*
G02*
X160937500Y-90725000I237500J0D01*
G01*
X161512500Y-90725000D01*
G75*
G02*
X161750000Y-90962500I0J-237500D01*
G01*
X161750000Y-91437500D01*
G75*
G02*
X161512500Y-91675000I-237500J0D01*
G01*
X160937500Y-91675000D01*
G75*
G02*
X160700000Y-91437500I0J237500D01*
G01*
G37*
%TD.AperFunction*%
%TD*%
%TO.P,R15,2*%
%TO.N,/PLAY_PAUSE*%
%TA.AperFunction,SMDPad,CuDef*%
G36*
G01*
X129150000Y-101012500D02*
X129150000Y-101487500D01*
G75*
G02*
X128912500Y-101725000I-237500J0D01*
G01*
X128337500Y-101725000D01*
G75*
G02*
X128100000Y-101487500I0J237500D01*
G01*
X128100000Y-101012500D01*
G75*
G02*
X128337500Y-100775000I237500J0D01*
G01*
X128912500Y-100775000D01*
G75*
G02*
X129150000Y-101012500I0J-237500D01*
G01*
G37*
%TD.AperFunction*%
%TO.P,R15,1*%
%TO.N,+3V3*%
%TA.AperFunction,SMDPad,CuDef*%
G36*
G01*
X130900000Y-101012500D02*
X130900000Y-101487500D01*
G75*
G02*
X130662500Y-101725000I-237500J0D01*
G01*
X130087500Y-101725000D01*
G75*
G02*
X129850000Y-101487500I0J237500D01*
G01*
X129850000Y-101012500D01*
G75*
G02*
X130087500Y-100775000I237500J0D01*
G01*
X130662500Y-100775000D01*
G75*
G02*
X130900000Y-101012500I0J-237500D01*
G01*
G37*
%TD.AperFunction*%
%TD*%
%TO.P,R14,2*%
%TO.N,Net-(R11-Pad2)*%
%TA.AperFunction,SMDPad,CuDef*%
G36*
G01*
X95987500Y-106400000D02*
X95512500Y-106400000D01*
G75*
G02*
X95275000Y-106162500I0J237500D01*
G01*
X95275000Y-105587500D01*
G75*
G02*
X95512500Y-105350000I237500J0D01*
G01*
X95987500Y-105350000D01*
G75*
G02*
X96225000Y-105587500I0J-237500D01*
G01*
X96225000Y-106162500D01*
G75*
G02*
X95987500Y-106400000I-237500J0D01*
G01*
G37*
%TD.AperFunction*%
%TO.P,R14,1*%
%TO.N,+3V3*%
%TA.AperFunction,SMDPad,CuDef*%
G36*
G01*
X95987500Y-108150000D02*
X95512500Y-108150000D01*
G75*
G02*
X95275000Y-107912500I0J237500D01*
G01*
X95275000Y-107337500D01*
G75*
G02*
X95512500Y-107100000I237500J0D01*
G01*
X95987500Y-107100000D01*
G75*
G02*
X96225000Y-107337500I0J-237500D01*
G01*
X96225000Y-107912500D01*
G75*
G02*
X95987500Y-108150000I-237500J0D01*
G01*
G37*
%TD.AperFunction*%
%TD*%
%TO.P,R13,2*%
%TO.N,/PREVIOUS*%
%TA.AperFunction,SMDPad,CuDef*%
G36*
G01*
X144400000Y-101012500D02*
X144400000Y-101487500D01*
G75*
G02*
X144162500Y-101725000I-237500J0D01*
G01*
X143587500Y-101725000D01*
G75*
G02*
X143350000Y-101487500I0J237500D01*
G01*
X143350000Y-101012500D01*
G75*
G02*
X143587500Y-100775000I237500J0D01*
G01*
X144162500Y-100775000D01*
G75*
G02*
X144400000Y-101012500I0J-237500D01*
G01*
G37*
%TD.AperFunction*%
%TO.P,R13,1*%
%TO.N,+3V3*%
%TA.AperFunction,SMDPad,CuDef*%
G36*
G01*
X146150000Y-101012500D02*
X146150000Y-101487500D01*
G75*
G02*
X145912500Y-101725000I-237500J0D01*
G01*
X145337500Y-101725000D01*
G75*
G02*
X145100000Y-101487500I0J237500D01*
G01*
X145100000Y-101012500D01*
G75*
G02*
X145337500Y-100775000I237500J0D01*
G01*
X145912500Y-100775000D01*
G75*
G02*
X146150000Y-101012500I0J-237500D01*
G01*
G37*
%TD.AperFunction*%
%TD*%
%TO.P,R12,2*%
%TO.N,Net-(R10-Pad2)*%
%TA.AperFunction,SMDPad,CuDef*%
G36*
G01*
X95512500Y-103600000D02*
X95987500Y-103600000D01*
G75*
G02*
X96225000Y-103837500I0J-237500D01*
G01*
X96225000Y-104412500D01*
G75*
G02*
X95987500Y-104650000I-237500J0D01*
G01*
X95512500Y-104650000D01*
G75*
G02*
X95275000Y-104412500I0J237500D01*
G01*
X95275000Y-103837500D01*
G75*
G02*
X95512500Y-103600000I237500J0D01*
G01*
G37*
%TD.AperFunction*%
%TO.P,R12,1*%
%TO.N,+3V3*%
%TA.AperFunction,SMDPad,CuDef*%
G36*
G01*
X95512500Y-101850000D02*
X95987500Y-101850000D01*
G75*
G02*
X96225000Y-102087500I0J-237500D01*
G01*
X96225000Y-102662500D01*
G75*
G02*
X95987500Y-102900000I-237500J0D01*
G01*
X95512500Y-102900000D01*
G75*
G02*
X95275000Y-102662500I0J237500D01*
G01*
X95275000Y-102087500D01*
G75*
G02*
X95512500Y-101850000I237500J0D01*
G01*
G37*
%TD.AperFunction*%
%TD*%
%TO.P,R11,2*%
%TO.N,Net-(R11-Pad2)*%
%TA.AperFunction,SMDPad,CuDef*%
G36*
G01*
X91512500Y-102850000D02*
X91987500Y-102850000D01*
G75*
G02*
X92225000Y-103087500I0J-237500D01*
G01*
X92225000Y-103662500D01*
G75*
G02*
X91987500Y-103900000I-237500J0D01*
G01*
X91512500Y-103900000D01*
G75*
G02*
X91275000Y-103662500I0J237500D01*
G01*
X91275000Y-103087500D01*
G75*
G02*
X91512500Y-102850000I237500J0D01*
G01*
G37*
%TD.AperFunction*%
%TO.P,R11,1*%
%TO.N,/ROT_B*%
%TA.AperFunction,SMDPad,CuDef*%
G36*
G01*
X91512500Y-101100000D02*
X91987500Y-101100000D01*
G75*
G02*
X92225000Y-101337500I0J-237500D01*
G01*
X92225000Y-101912500D01*
G75*
G02*
X91987500Y-102150000I-237500J0D01*
G01*
X91512500Y-102150000D01*
G75*
G02*
X91275000Y-101912500I0J237500D01*
G01*
X91275000Y-101337500D01*
G75*
G02*
X91512500Y-101100000I237500J0D01*
G01*
G37*
%TD.AperFunction*%
%TD*%
%TO.P,R10,2*%
%TO.N,Net-(R10-Pad2)*%
%TA.AperFunction,SMDPad,CuDef*%
G36*
G01*
X93262500Y-102850000D02*
X93737500Y-102850000D01*
G75*
G02*
X93975000Y-103087500I0J-237500D01*
G01*
X93975000Y-103662500D01*
G75*
G02*
X93737500Y-103900000I-237500J0D01*
G01*
X93262500Y-103900000D01*
G75*
G02*
X93025000Y-103662500I0J237500D01*
G01*
X93025000Y-103087500D01*
G75*
G02*
X93262500Y-102850000I237500J0D01*
G01*
G37*
%TD.AperFunction*%
%TO.P,R10,1*%
%TO.N,/ROT_A*%
%TA.AperFunction,SMDPad,CuDef*%
G36*
G01*
X93262500Y-101100000D02*
X93737500Y-101100000D01*
G75*
G02*
X93975000Y-101337500I0J-237500D01*
G01*
X93975000Y-101912500D01*
G75*
G02*
X93737500Y-102150000I-237500J0D01*
G01*
X93262500Y-102150000D01*
G75*
G02*
X93025000Y-101912500I0J237500D01*
G01*
X93025000Y-101337500D01*
G75*
G02*
X93262500Y-101100000I237500J0D01*
G01*
G37*
%TD.AperFunction*%
%TD*%
%TO.P,R9,2*%
%TO.N,GND*%
%TA.AperFunction,SMDPad,CuDef*%
G36*
G01*
X153762500Y-97800000D02*
X154237500Y-97800000D01*
G75*
G02*
X154475000Y-98037500I0J-237500D01*
G01*
X154475000Y-98612500D01*
G75*
G02*
X154237500Y-98850000I-237500J0D01*
G01*
X153762500Y-98850000D01*
G75*
G02*
X153525000Y-98612500I0J237500D01*
G01*
X153525000Y-98037500D01*
G75*
G02*
X153762500Y-97800000I237500J0D01*
G01*
G37*
%TD.AperFunction*%
%TO.P,R9,1*%
%TO.N,Net-(CN1-PadA5)*%
%TA.AperFunction,SMDPad,CuDef*%
G36*
G01*
X153762500Y-96050000D02*
X154237500Y-96050000D01*
G75*
G02*
X154475000Y-96287500I0J-237500D01*
G01*
X154475000Y-96862500D01*
G75*
G02*
X154237500Y-97100000I-237500J0D01*
G01*
X153762500Y-97100000D01*
G75*
G02*
X153525000Y-96862500I0J237500D01*
G01*
X153525000Y-96287500D01*
G75*
G02*
X153762500Y-96050000I237500J0D01*
G01*
G37*
%TD.AperFunction*%
%TD*%
%TO.P,R8,2*%
%TO.N,/STOP*%
%TA.AperFunction,SMDPad,CuDef*%
G36*
G01*
X161100000Y-100237500D02*
X161100000Y-99762500D01*
G75*
G02*
X161337500Y-99525000I237500J0D01*
G01*
X161912500Y-99525000D01*
G75*
G02*
X162150000Y-99762500I0J-237500D01*
G01*
X162150000Y-100237500D01*
G75*
G02*
X161912500Y-100475000I-237500J0D01*
G01*
X161337500Y-100475000D01*
G75*
G02*
X161100000Y-100237500I0J237500D01*
G01*
G37*
%TD.AperFunction*%
%TO.P,R8,1*%
%TO.N,+3V3*%
%TA.AperFunction,SMDPad,CuDef*%
G36*
G01*
X159350000Y-100237500D02*
X159350000Y-99762500D01*
G75*
G02*
X159587500Y-99525000I237500J0D01*
G01*
X160162500Y-99525000D01*
G75*
G02*
X160400000Y-99762500I0J-237500D01*
G01*
X160400000Y-100237500D01*
G75*
G02*
X160162500Y-100475000I-237500J0D01*
G01*
X159587500Y-100475000D01*
G75*
G02*
X159350000Y-100237500I0J237500D01*
G01*
G37*
%TD.AperFunction*%
%TD*%
%TO.P,R7,2*%
%TO.N,GND*%
%TA.AperFunction,SMDPad,CuDef*%
G36*
G01*
X99350000Y-94487500D02*
X99350000Y-94012500D01*
G75*
G02*
X99587500Y-93775000I237500J0D01*
G01*
X100162500Y-93775000D01*
G75*
G02*
X100400000Y-94012500I0J-237500D01*
G01*
X100400000Y-94487500D01*
G75*
G02*
X100162500Y-94725000I-237500J0D01*
G01*
X99587500Y-94725000D01*
G75*
G02*
X99350000Y-94487500I0J237500D01*
G01*
G37*
%TD.AperFunction*%
%TO.P,R7,1*%
%TO.N,/SWCLK*%
%TA.AperFunction,SMDPad,CuDef*%
G36*
G01*
X97600000Y-94487500D02*
X97600000Y-94012500D01*
G75*
G02*
X97837500Y-93775000I237500J0D01*
G01*
X98412500Y-93775000D01*
G75*
G02*
X98650000Y-94012500I0J-237500D01*
G01*
X98650000Y-94487500D01*
G75*
G02*
X98412500Y-94725000I-237500J0D01*
G01*
X97837500Y-94725000D01*
G75*
G02*
X97600000Y-94487500I0J237500D01*
G01*
G37*
%TD.AperFunction*%
%TD*%
%TO.P,R6,2*%
%TO.N,/SWDIO*%
%TA.AperFunction,SMDPad,CuDef*%
G36*
G01*
X102850000Y-94487500D02*
X102850000Y-94012500D01*
G75*
G02*
X103087500Y-93775000I237500J0D01*
G01*
X103662500Y-93775000D01*
G75*
G02*
X103900000Y-94012500I0J-237500D01*
G01*
X103900000Y-94487500D01*
G75*
G02*
X103662500Y-94725000I-237500J0D01*
G01*
X103087500Y-94725000D01*
G75*
G02*
X102850000Y-94487500I0J237500D01*
G01*
G37*
%TD.AperFunction*%
%TO.P,R6,1*%
%TO.N,+3V3*%
%TA.AperFunction,SMDPad,CuDef*%
G36*
G01*
X101100000Y-94487500D02*
X101100000Y-94012500D01*
G75*
G02*
X101337500Y-93775000I237500J0D01*
G01*
X101912500Y-93775000D01*
G75*
G02*
X102150000Y-94012500I0J-237500D01*
G01*
X102150000Y-94487500D01*
G75*
G02*
X101912500Y-94725000I-237500J0D01*
G01*
X101337500Y-94725000D01*
G75*
G02*
X101100000Y-94487500I0J237500D01*
G01*
G37*
%TD.AperFunction*%
%TD*%
%TO.P,R5,2*%
%TO.N,Net-(D4-Pad2)*%
%TA.AperFunction,SMDPad,CuDef*%
G36*
G01*
X114850000Y-109237500D02*
X114850000Y-108762500D01*
G75*
G02*
X115087500Y-108525000I237500J0D01*
G01*
X115662500Y-108525000D01*
G75*
G02*
X115900000Y-108762500I0J-237500D01*
G01*
X115900000Y-109237500D01*
G75*
G02*
X115662500Y-109475000I-237500J0D01*
G01*
X115087500Y-109475000D01*
G75*
G02*
X114850000Y-109237500I0J237500D01*
G01*
G37*
%TD.AperFunction*%
%TO.P,R5,1*%
%TO.N,/MUTE_LED*%
%TA.AperFunction,SMDPad,CuDef*%
G36*
G01*
X113100000Y-109237500D02*
X113100000Y-108762500D01*
G75*
G02*
X113337500Y-108525000I237500J0D01*
G01*
X113912500Y-108525000D01*
G75*
G02*
X114150000Y-108762500I0J-237500D01*
G01*
X114150000Y-109237500D01*
G75*
G02*
X113912500Y-109475000I-237500J0D01*
G01*
X113337500Y-109475000D01*
G75*
G02*
X113100000Y-109237500I0J237500D01*
G01*
G37*
%TD.AperFunction*%
%TD*%
%TO.P,R4,2*%
%TO.N,Net-(D3-Pad2)*%
%TA.AperFunction,SMDPad,CuDef*%
G36*
G01*
X124437500Y-107650000D02*
X123962500Y-107650000D01*
G75*
G02*
X123725000Y-107412500I0J237500D01*
G01*
X123725000Y-106837500D01*
G75*
G02*
X123962500Y-106600000I237500J0D01*
G01*
X124437500Y-106600000D01*
G75*
G02*
X124675000Y-106837500I0J-237500D01*
G01*
X124675000Y-107412500D01*
G75*
G02*
X124437500Y-107650000I-237500J0D01*
G01*
G37*
%TD.AperFunction*%
%TO.P,R4,1*%
%TO.N,Net-(JP3-Pad2)*%
%TA.AperFunction,SMDPad,CuDef*%
G36*
G01*
X124437500Y-109400000D02*
X123962500Y-109400000D01*
G75*
G02*
X123725000Y-109162500I0J237500D01*
G01*
X123725000Y-108587500D01*
G75*
G02*
X123962500Y-108350000I237500J0D01*
G01*
X124437500Y-108350000D01*
G75*
G02*
X124675000Y-108587500I0J-237500D01*
G01*
X124675000Y-109162500D01*
G75*
G02*
X124437500Y-109400000I-237500J0D01*
G01*
G37*
%TD.AperFunction*%
%TD*%
%TO.P,R3,2*%
%TO.N,Net-(D2-Pad2)*%
%TA.AperFunction,SMDPad,CuDef*%
G36*
G01*
X122487500Y-93800000D02*
X122012500Y-93800000D01*
G75*
G02*
X121775000Y-93562500I0J237500D01*
G01*
X121775000Y-92987500D01*
G75*
G02*
X122012500Y-92750000I237500J0D01*
G01*
X122487500Y-92750000D01*
G75*
G02*
X122725000Y-92987500I0J-237500D01*
G01*
X122725000Y-93562500D01*
G75*
G02*
X122487500Y-93800000I-237500J0D01*
G01*
G37*
%TD.AperFunction*%
%TO.P,R3,1*%
%TO.N,Net-(JP2-Pad2)*%
%TA.AperFunction,SMDPad,CuDef*%
G36*
G01*
X122487500Y-95550000D02*
X122012500Y-95550000D01*
G75*
G02*
X121775000Y-95312500I0J237500D01*
G01*
X121775000Y-94737500D01*
G75*
G02*
X122012500Y-94500000I237500J0D01*
G01*
X122487500Y-94500000D01*
G75*
G02*
X122725000Y-94737500I0J-237500D01*
G01*
X122725000Y-95312500D01*
G75*
G02*
X122487500Y-95550000I-237500J0D01*
G01*
G37*
%TD.AperFunction*%
%TD*%
%TO.P,R2,2*%
%TO.N,Net-(R2-Pad2)*%
%TA.AperFunction,SMDPad,CuDef*%
G36*
G01*
X91150000Y-110512500D02*
X91150000Y-110987500D01*
G75*
G02*
X90912500Y-111225000I-237500J0D01*
G01*
X90337500Y-111225000D01*
G75*
G02*
X90100000Y-110987500I0J237500D01*
G01*
X90100000Y-110512500D01*
G75*
G02*
X90337500Y-110275000I237500J0D01*
G01*
X90912500Y-110275000D01*
G75*
G02*
X91150000Y-110512500I0J-237500D01*
G01*
G37*
%TD.AperFunction*%
%TO.P,R2,1*%
%TO.N,/BOOT0*%
%TA.AperFunction,SMDPad,CuDef*%
G36*
G01*
X92900000Y-110512500D02*
X92900000Y-110987500D01*
G75*
G02*
X92662500Y-111225000I-237500J0D01*
G01*
X92087500Y-111225000D01*
G75*
G02*
X91850000Y-110987500I0J237500D01*
G01*
X91850000Y-110512500D01*
G75*
G02*
X92087500Y-110275000I237500J0D01*
G01*
X92662500Y-110275000D01*
G75*
G02*
X92900000Y-110512500I0J-237500D01*
G01*
G37*
%TD.AperFunction*%
%TD*%
%TO.P,R1,2*%
%TO.N,Net-(D1-Pad2)*%
%TA.AperFunction,SMDPad,CuDef*%
G36*
G01*
X127737500Y-93800000D02*
X127262500Y-93800000D01*
G75*
G02*
X127025000Y-93562500I0J237500D01*
G01*
X127025000Y-92987500D01*
G75*
G02*
X127262500Y-92750000I237500J0D01*
G01*
X127737500Y-92750000D01*
G75*
G02*
X127975000Y-92987500I0J-237500D01*
G01*
X127975000Y-93562500D01*
G75*
G02*
X127737500Y-93800000I-237500J0D01*
G01*
G37*
%TD.AperFunction*%
%TO.P,R1,1*%
%TO.N,Net-(JP1-Pad2)*%
%TA.AperFunction,SMDPad,CuDef*%
G36*
G01*
X127737500Y-95550000D02*
X127262500Y-95550000D01*
G75*
G02*
X127025000Y-95312500I0J237500D01*
G01*
X127025000Y-94737500D01*
G75*
G02*
X127262500Y-94500000I237500J0D01*
G01*
X127737500Y-94500000D01*
G75*
G02*
X127975000Y-94737500I0J-237500D01*
G01*
X127975000Y-95312500D01*
G75*
G02*
X127737500Y-95550000I-237500J0D01*
G01*
G37*
%TD.AperFunction*%
%TD*%
D21*
%TO.P,JP3,2*%
%TO.N,Net-(JP3-Pad2)*%
X124170000Y-111200000D03*
D22*
%TO.P,JP3,1*%
%TO.N,/HB_LED*%
X122900000Y-111200000D03*
%TD*%
%TO.P,JP2,1*%
%TO.N,+3V3*%
X118750000Y-93900000D03*
D21*
%TO.P,JP2,2*%
%TO.N,Net-(JP2-Pad2)*%
X120020000Y-93900000D03*
%TD*%
D22*
%TO.P,JP1,1*%
%TO.N,+5V*%
X131000000Y-93900000D03*
D21*
%TO.P,JP1,2*%
%TO.N,Net-(JP1-Pad2)*%
X129730000Y-93900000D03*
%TD*%
%TO.P,D3,2*%
%TO.N,Net-(D3-Pad2)*%
%TA.AperFunction,SMDPad,CuDef*%
G36*
G01*
X126037500Y-107650000D02*
X125562500Y-107650000D01*
G75*
G02*
X125325000Y-107412500I0J237500D01*
G01*
X125325000Y-106837500D01*
G75*
G02*
X125562500Y-106600000I237500J0D01*
G01*
X126037500Y-106600000D01*
G75*
G02*
X126275000Y-106837500I0J-237500D01*
G01*
X126275000Y-107412500D01*
G75*
G02*
X126037500Y-107650000I-237500J0D01*
G01*
G37*
%TD.AperFunction*%
%TO.P,D3,1*%
%TO.N,GND*%
%TA.AperFunction,SMDPad,CuDef*%
G36*
G01*
X126037500Y-109400000D02*
X125562500Y-109400000D01*
G75*
G02*
X125325000Y-109162500I0J237500D01*
G01*
X125325000Y-108587500D01*
G75*
G02*
X125562500Y-108350000I237500J0D01*
G01*
X126037500Y-108350000D01*
G75*
G02*
X126275000Y-108587500I0J-237500D01*
G01*
X126275000Y-109162500D01*
G75*
G02*
X126037500Y-109400000I-237500J0D01*
G01*
G37*
%TD.AperFunction*%
%TD*%
%TO.P,D2,2*%
%TO.N,Net-(D2-Pad2)*%
%TA.AperFunction,SMDPad,CuDef*%
G36*
G01*
X124237500Y-93800000D02*
X123762500Y-93800000D01*
G75*
G02*
X123525000Y-93562500I0J237500D01*
G01*
X123525000Y-92987500D01*
G75*
G02*
X123762500Y-92750000I237500J0D01*
G01*
X124237500Y-92750000D01*
G75*
G02*
X124475000Y-92987500I0J-237500D01*
G01*
X124475000Y-93562500D01*
G75*
G02*
X124237500Y-93800000I-237500J0D01*
G01*
G37*
%TD.AperFunction*%
%TO.P,D2,1*%
%TO.N,GND*%
%TA.AperFunction,SMDPad,CuDef*%
G36*
G01*
X124237500Y-95550000D02*
X123762500Y-95550000D01*
G75*
G02*
X123525000Y-95312500I0J237500D01*
G01*
X123525000Y-94737500D01*
G75*
G02*
X123762500Y-94500000I237500J0D01*
G01*
X124237500Y-94500000D01*
G75*
G02*
X124475000Y-94737500I0J-237500D01*
G01*
X124475000Y-95312500D01*
G75*
G02*
X124237500Y-95550000I-237500J0D01*
G01*
G37*
%TD.AperFunction*%
%TD*%
%TO.P,D1,2*%
%TO.N,Net-(D1-Pad2)*%
%TA.AperFunction,SMDPad,CuDef*%
G36*
G01*
X125987500Y-93800000D02*
X125512500Y-93800000D01*
G75*
G02*
X125275000Y-93562500I0J237500D01*
G01*
X125275000Y-92987500D01*
G75*
G02*
X125512500Y-92750000I237500J0D01*
G01*
X125987500Y-92750000D01*
G75*
G02*
X126225000Y-92987500I0J-237500D01*
G01*
X126225000Y-93562500D01*
G75*
G02*
X125987500Y-93800000I-237500J0D01*
G01*
G37*
%TD.AperFunction*%
%TO.P,D1,1*%
%TO.N,GND*%
%TA.AperFunction,SMDPad,CuDef*%
G36*
G01*
X125987500Y-95550000D02*
X125512500Y-95550000D01*
G75*
G02*
X125275000Y-95312500I0J237500D01*
G01*
X125275000Y-94737500D01*
G75*
G02*
X125512500Y-94500000I237500J0D01*
G01*
X125987500Y-94500000D01*
G75*
G02*
X126225000Y-94737500I0J-237500D01*
G01*
X126225000Y-95312500D01*
G75*
G02*
X125987500Y-95550000I-237500J0D01*
G01*
G37*
%TD.AperFunction*%
%TD*%
D23*
%TO.P,CN1,A5*%
%TO.N,Net-(CN1-PadA5)*%
X160725000Y-94100000D03*
%TO.P,CN1,A1*%
%TO.N,GND*%
X159025000Y-94100000D03*
%TO.P,CN1,A4*%
%TO.N,+5V*%
X159875000Y-94100000D03*
%TO.P,CN1,A6*%
%TO.N,/USB_D+*%
X161575000Y-94100000D03*
%TO.P,CN1,A7*%
%TO.N,/USB_D-*%
X162425000Y-94100000D03*
%TO.P,CN1,A8*%
%TO.N,N/C*%
X163275000Y-94100000D03*
%TO.P,CN1,A9*%
%TO.N,+5V*%
X164125000Y-94100000D03*
%TO.P,CN1,A12*%
%TO.N,GND*%
X164975000Y-94100000D03*
%TO.P,CN1,B12*%
X159025000Y-92775000D03*
%TO.P,CN1,B9*%
%TO.N,+5V*%
X159880000Y-92775000D03*
%TO.P,CN1,B8*%
%TO.N,N/C*%
X160730000Y-92775000D03*
%TO.P,CN1,B7*%
%TO.N,/USB_D-*%
X161580000Y-92775000D03*
%TO.P,CN1,B6*%
%TO.N,/USB_D+*%
X162430000Y-92775000D03*
%TO.P,CN1,B5*%
%TO.N,Net-(CN1-PadB5)*%
X163280000Y-92775000D03*
%TO.P,CN1,B4*%
%TO.N,+5V*%
X164130000Y-92775000D03*
%TO.P,CN1,B1*%
%TO.N,GND*%
X164980000Y-92775000D03*
D24*
%TO.P,CN1,S1*%
X157675000Y-93120000D03*
X166325000Y-93120000D03*
D25*
X157675000Y-89740000D03*
X166325000Y-89740000D03*
%TD*%
%TO.P,C11,2*%
%TO.N,GND*%
%TA.AperFunction,SMDPad,CuDef*%
G36*
G01*
X95512500Y-100100000D02*
X95987500Y-100100000D01*
G75*
G02*
X96225000Y-100337500I0J-237500D01*
G01*
X96225000Y-100912500D01*
G75*
G02*
X95987500Y-101150000I-237500J0D01*
G01*
X95512500Y-101150000D01*
G75*
G02*
X95275000Y-100912500I0J237500D01*
G01*
X95275000Y-100337500D01*
G75*
G02*
X95512500Y-100100000I237500J0D01*
G01*
G37*
%TD.AperFunction*%
%TO.P,C11,1*%
%TO.N,/ROT_A*%
%TA.AperFunction,SMDPad,CuDef*%
G36*
G01*
X95512500Y-98350000D02*
X95987500Y-98350000D01*
G75*
G02*
X96225000Y-98587500I0J-237500D01*
G01*
X96225000Y-99162500D01*
G75*
G02*
X95987500Y-99400000I-237500J0D01*
G01*
X95512500Y-99400000D01*
G75*
G02*
X95275000Y-99162500I0J237500D01*
G01*
X95275000Y-98587500D01*
G75*
G02*
X95512500Y-98350000I237500J0D01*
G01*
G37*
%TD.AperFunction*%
%TD*%
%TO.P,C10,2*%
%TO.N,GND*%
%TA.AperFunction,SMDPad,CuDef*%
G36*
G01*
X95987500Y-95900000D02*
X95512500Y-95900000D01*
G75*
G02*
X95275000Y-95662500I0J237500D01*
G01*
X95275000Y-95087500D01*
G75*
G02*
X95512500Y-94850000I237500J0D01*
G01*
X95987500Y-94850000D01*
G75*
G02*
X96225000Y-95087500I0J-237500D01*
G01*
X96225000Y-95662500D01*
G75*
G02*
X95987500Y-95900000I-237500J0D01*
G01*
G37*
%TD.AperFunction*%
%TO.P,C10,1*%
%TO.N,/ROT_B*%
%TA.AperFunction,SMDPad,CuDef*%
G36*
G01*
X95987500Y-97650000D02*
X95512500Y-97650000D01*
G75*
G02*
X95275000Y-97412500I0J237500D01*
G01*
X95275000Y-96837500D01*
G75*
G02*
X95512500Y-96600000I237500J0D01*
G01*
X95987500Y-96600000D01*
G75*
G02*
X96225000Y-96837500I0J-237500D01*
G01*
X96225000Y-97412500D01*
G75*
G02*
X95987500Y-97650000I-237500J0D01*
G01*
G37*
%TD.AperFunction*%
%TD*%
%TO.P,C9,2*%
%TO.N,GND*%
%TA.AperFunction,SMDPad,CuDef*%
G36*
G01*
X136762500Y-95850000D02*
X137237500Y-95850000D01*
G75*
G02*
X137475000Y-96087500I0J-237500D01*
G01*
X137475000Y-96662500D01*
G75*
G02*
X137237500Y-96900000I-237500J0D01*
G01*
X136762500Y-96900000D01*
G75*
G02*
X136525000Y-96662500I0J237500D01*
G01*
X136525000Y-96087500D01*
G75*
G02*
X136762500Y-95850000I237500J0D01*
G01*
G37*
%TD.AperFunction*%
%TO.P,C9,1*%
%TO.N,Net-(C9-Pad1)*%
%TA.AperFunction,SMDPad,CuDef*%
G36*
G01*
X136762500Y-94100000D02*
X137237500Y-94100000D01*
G75*
G02*
X137475000Y-94337500I0J-237500D01*
G01*
X137475000Y-94912500D01*
G75*
G02*
X137237500Y-95150000I-237500J0D01*
G01*
X136762500Y-95150000D01*
G75*
G02*
X136525000Y-94912500I0J237500D01*
G01*
X136525000Y-94337500D01*
G75*
G02*
X136762500Y-94100000I237500J0D01*
G01*
G37*
%TD.AperFunction*%
%TD*%
%TO.P,C8,2*%
%TO.N,GND*%
%TA.AperFunction,SMDPad,CuDef*%
G36*
G01*
X112487500Y-97150000D02*
X112012500Y-97150000D01*
G75*
G02*
X111775000Y-96912500I0J237500D01*
G01*
X111775000Y-96337500D01*
G75*
G02*
X112012500Y-96100000I237500J0D01*
G01*
X112487500Y-96100000D01*
G75*
G02*
X112725000Y-96337500I0J-237500D01*
G01*
X112725000Y-96912500D01*
G75*
G02*
X112487500Y-97150000I-237500J0D01*
G01*
G37*
%TD.AperFunction*%
%TO.P,C8,1*%
%TO.N,+3V3*%
%TA.AperFunction,SMDPad,CuDef*%
G36*
G01*
X112487500Y-98900000D02*
X112012500Y-98900000D01*
G75*
G02*
X111775000Y-98662500I0J237500D01*
G01*
X111775000Y-98087500D01*
G75*
G02*
X112012500Y-97850000I237500J0D01*
G01*
X112487500Y-97850000D01*
G75*
G02*
X112725000Y-98087500I0J-237500D01*
G01*
X112725000Y-98662500D01*
G75*
G02*
X112487500Y-98900000I-237500J0D01*
G01*
G37*
%TD.AperFunction*%
%TD*%
%TO.P,C7,2*%
%TO.N,GND*%
%TA.AperFunction,SMDPad,CuDef*%
G36*
G01*
X110650000Y-108762500D02*
X110650000Y-109237500D01*
G75*
G02*
X110412500Y-109475000I-237500J0D01*
G01*
X109837500Y-109475000D01*
G75*
G02*
X109600000Y-109237500I0J237500D01*
G01*
X109600000Y-108762500D01*
G75*
G02*
X109837500Y-108525000I237500J0D01*
G01*
X110412500Y-108525000D01*
G75*
G02*
X110650000Y-108762500I0J-237500D01*
G01*
G37*
%TD.AperFunction*%
%TO.P,C7,1*%
%TO.N,+3V3*%
%TA.AperFunction,SMDPad,CuDef*%
G36*
G01*
X112400000Y-108762500D02*
X112400000Y-109237500D01*
G75*
G02*
X112162500Y-109475000I-237500J0D01*
G01*
X111587500Y-109475000D01*
G75*
G02*
X111350000Y-109237500I0J237500D01*
G01*
X111350000Y-108762500D01*
G75*
G02*
X111587500Y-108525000I237500J0D01*
G01*
X112162500Y-108525000D01*
G75*
G02*
X112400000Y-108762500I0J-237500D01*
G01*
G37*
%TD.AperFunction*%
%TD*%
%TO.P,C6,2*%
%TO.N,GND*%
%TA.AperFunction,SMDPad,CuDef*%
G36*
G01*
X144762500Y-95850000D02*
X145237500Y-95850000D01*
G75*
G02*
X145475000Y-96087500I0J-237500D01*
G01*
X145475000Y-96662500D01*
G75*
G02*
X145237500Y-96900000I-237500J0D01*
G01*
X144762500Y-96900000D01*
G75*
G02*
X144525000Y-96662500I0J237500D01*
G01*
X144525000Y-96087500D01*
G75*
G02*
X144762500Y-95850000I237500J0D01*
G01*
G37*
%TD.AperFunction*%
%TO.P,C6,1*%
%TO.N,+5V*%
%TA.AperFunction,SMDPad,CuDef*%
G36*
G01*
X144762500Y-94100000D02*
X145237500Y-94100000D01*
G75*
G02*
X145475000Y-94337500I0J-237500D01*
G01*
X145475000Y-94912500D01*
G75*
G02*
X145237500Y-95150000I-237500J0D01*
G01*
X144762500Y-95150000D01*
G75*
G02*
X144525000Y-94912500I0J237500D01*
G01*
X144525000Y-94337500D01*
G75*
G02*
X144762500Y-94100000I237500J0D01*
G01*
G37*
%TD.AperFunction*%
%TD*%
%TO.P,C5,2*%
%TO.N,GND*%
%TA.AperFunction,SMDPad,CuDef*%
G36*
G01*
X101637500Y-105250000D02*
X101162500Y-105250000D01*
G75*
G02*
X100925000Y-105012500I0J237500D01*
G01*
X100925000Y-104437500D01*
G75*
G02*
X101162500Y-104200000I237500J0D01*
G01*
X101637500Y-104200000D01*
G75*
G02*
X101875000Y-104437500I0J-237500D01*
G01*
X101875000Y-105012500D01*
G75*
G02*
X101637500Y-105250000I-237500J0D01*
G01*
G37*
%TD.AperFunction*%
%TO.P,C5,1*%
%TO.N,+3V3*%
%TA.AperFunction,SMDPad,CuDef*%
G36*
G01*
X101637500Y-107000000D02*
X101162500Y-107000000D01*
G75*
G02*
X100925000Y-106762500I0J237500D01*
G01*
X100925000Y-106187500D01*
G75*
G02*
X101162500Y-105950000I237500J0D01*
G01*
X101637500Y-105950000D01*
G75*
G02*
X101875000Y-106187500I0J-237500D01*
G01*
X101875000Y-106762500D01*
G75*
G02*
X101637500Y-107000000I-237500J0D01*
G01*
G37*
%TD.AperFunction*%
%TD*%
%TO.P,C4,2*%
%TO.N,GND*%
%TA.AperFunction,SMDPad,CuDef*%
G36*
G01*
X107012500Y-111100000D02*
X107487500Y-111100000D01*
G75*
G02*
X107725000Y-111337500I0J-237500D01*
G01*
X107725000Y-111912500D01*
G75*
G02*
X107487500Y-112150000I-237500J0D01*
G01*
X107012500Y-112150000D01*
G75*
G02*
X106775000Y-111912500I0J237500D01*
G01*
X106775000Y-111337500D01*
G75*
G02*
X107012500Y-111100000I237500J0D01*
G01*
G37*
%TD.AperFunction*%
%TO.P,C4,1*%
%TO.N,/OSC_OUT*%
%TA.AperFunction,SMDPad,CuDef*%
G36*
G01*
X107012500Y-109350000D02*
X107487500Y-109350000D01*
G75*
G02*
X107725000Y-109587500I0J-237500D01*
G01*
X107725000Y-110162500D01*
G75*
G02*
X107487500Y-110400000I-237500J0D01*
G01*
X107012500Y-110400000D01*
G75*
G02*
X106775000Y-110162500I0J237500D01*
G01*
X106775000Y-109587500D01*
G75*
G02*
X107012500Y-109350000I237500J0D01*
G01*
G37*
%TD.AperFunction*%
%TD*%
%TO.P,C3,2*%
%TO.N,GND*%
%TA.AperFunction,SMDPad,CuDef*%
G36*
G01*
X94662500Y-111100000D02*
X95137500Y-111100000D01*
G75*
G02*
X95375000Y-111337500I0J-237500D01*
G01*
X95375000Y-111912500D01*
G75*
G02*
X95137500Y-112150000I-237500J0D01*
G01*
X94662500Y-112150000D01*
G75*
G02*
X94425000Y-111912500I0J237500D01*
G01*
X94425000Y-111337500D01*
G75*
G02*
X94662500Y-111100000I237500J0D01*
G01*
G37*
%TD.AperFunction*%
%TO.P,C3,1*%
%TO.N,/OSC_IN*%
%TA.AperFunction,SMDPad,CuDef*%
G36*
G01*
X94662500Y-109350000D02*
X95137500Y-109350000D01*
G75*
G02*
X95375000Y-109587500I0J-237500D01*
G01*
X95375000Y-110162500D01*
G75*
G02*
X95137500Y-110400000I-237500J0D01*
G01*
X94662500Y-110400000D01*
G75*
G02*
X94425000Y-110162500I0J237500D01*
G01*
X94425000Y-109587500D01*
G75*
G02*
X94662500Y-109350000I237500J0D01*
G01*
G37*
%TD.AperFunction*%
%TD*%
%TO.P,C2,2*%
%TO.N,GND*%
%TA.AperFunction,SMDPad,CuDef*%
G36*
G01*
X146549999Y-95950000D02*
X147450001Y-95950000D01*
G75*
G02*
X147700000Y-96199999I0J-249999D01*
G01*
X147700000Y-96850001D01*
G75*
G02*
X147450001Y-97100000I-249999J0D01*
G01*
X146549999Y-97100000D01*
G75*
G02*
X146300000Y-96850001I0J249999D01*
G01*
X146300000Y-96199999D01*
G75*
G02*
X146549999Y-95950000I249999J0D01*
G01*
G37*
%TD.AperFunction*%
%TO.P,C2,1*%
%TO.N,+5V*%
%TA.AperFunction,SMDPad,CuDef*%
G36*
G01*
X146549999Y-93900000D02*
X147450001Y-93900000D01*
G75*
G02*
X147700000Y-94149999I0J-249999D01*
G01*
X147700000Y-94800001D01*
G75*
G02*
X147450001Y-95050000I-249999J0D01*
G01*
X146549999Y-95050000D01*
G75*
G02*
X146300000Y-94800001I0J249999D01*
G01*
X146300000Y-94149999D01*
G75*
G02*
X146549999Y-93900000I249999J0D01*
G01*
G37*
%TD.AperFunction*%
%TD*%
%TO.P,C1,2*%
%TO.N,GND*%
%TA.AperFunction,SMDPad,CuDef*%
G36*
G01*
X103437500Y-96400000D02*
X102962500Y-96400000D01*
G75*
G02*
X102725000Y-96162500I0J237500D01*
G01*
X102725000Y-95587500D01*
G75*
G02*
X102962500Y-95350000I237500J0D01*
G01*
X103437500Y-95350000D01*
G75*
G02*
X103675000Y-95587500I0J-237500D01*
G01*
X103675000Y-96162500D01*
G75*
G02*
X103437500Y-96400000I-237500J0D01*
G01*
G37*
%TD.AperFunction*%
%TO.P,C1,1*%
%TO.N,+3V3*%
%TA.AperFunction,SMDPad,CuDef*%
G36*
G01*
X103437500Y-98150000D02*
X102962500Y-98150000D01*
G75*
G02*
X102725000Y-97912500I0J237500D01*
G01*
X102725000Y-97337500D01*
G75*
G02*
X102962500Y-97100000I237500J0D01*
G01*
X103437500Y-97100000D01*
G75*
G02*
X103675000Y-97337500I0J-237500D01*
G01*
X103675000Y-97912500D01*
G75*
G02*
X103437500Y-98150000I-237500J0D01*
G01*
G37*
%TD.AperFunction*%
%TD*%
D26*
%TO.N,GND*%
X87700000Y-95900000D03*
D27*
X105000000Y-104200000D03*
X110000000Y-100800000D03*
X105800000Y-100000000D03*
X107800000Y-105000000D03*
D26*
X124900000Y-96200000D03*
X94625000Y-100750000D03*
X94625000Y-95375000D03*
X99800000Y-93050000D03*
X93525000Y-111625000D03*
X108750000Y-112000000D03*
X93250000Y-105750000D03*
X155500000Y-97750000D03*
X127125000Y-108875000D03*
X132300000Y-109800000D03*
X145800000Y-98400000D03*
X145800000Y-97400000D03*
X137500000Y-97600000D03*
D28*
X140000000Y-98100000D03*
X141200000Y-98100000D03*
X138800000Y-98100000D03*
D26*
%TO.N,/BOOT0*%
X101500000Y-103250000D03*
X99750000Y-107250000D03*
%TD*%
D29*
%TO.N,GND*%
X84300000Y-95900000D02*
X87700000Y-95900000D01*
X103337500Y-104750000D02*
X104450000Y-104750000D01*
X104450000Y-104750000D02*
X104900000Y-104300000D01*
X111662500Y-100250000D02*
X110550000Y-100250000D01*
X110550000Y-100250000D02*
X110100000Y-100700000D01*
D30*
X164975000Y-92775000D02*
X165980000Y-92775000D01*
X159020000Y-92775000D02*
X158020000Y-92775000D01*
D29*
X105250000Y-98337500D02*
X105250000Y-99450000D01*
X105250000Y-99450000D02*
X105700000Y-99900000D01*
X105700000Y-99900000D02*
X105800000Y-100000000D01*
X105800000Y-100000000D02*
X105800000Y-100000000D01*
X108250000Y-106662500D02*
X108250000Y-105450000D01*
X108250000Y-105450000D02*
X107800000Y-105000000D01*
X107800000Y-105000000D02*
X107800000Y-105000000D01*
X101425000Y-104750000D02*
X101400000Y-104725000D01*
X103337500Y-104750000D02*
X101425000Y-104750000D01*
X109000000Y-109000000D02*
X110125000Y-109000000D01*
X108250000Y-106662500D02*
X108250000Y-108250000D01*
X108250000Y-108250000D02*
X109000000Y-109000000D01*
X113500000Y-97875000D02*
X112250000Y-96625000D01*
X103200000Y-95875000D02*
X103825000Y-96500000D01*
X103825000Y-96500000D02*
X105000000Y-96500000D01*
X105250000Y-96750000D02*
X105250000Y-98337500D01*
X105000000Y-96500000D02*
X105250000Y-96750000D01*
X124900000Y-95100000D02*
X124900000Y-96200000D01*
X124975000Y-95025000D02*
X124900000Y-95100000D01*
X124975000Y-95025000D02*
X125750000Y-95025000D01*
X124000000Y-95025000D02*
X124975000Y-95025000D01*
D31*
X95750000Y-95375000D02*
X94625000Y-95375000D01*
X94625000Y-95375000D02*
X94625000Y-95375000D01*
X99800000Y-94325000D02*
X99800000Y-93300000D01*
X99800000Y-93300000D02*
X99800000Y-93050000D01*
X99800000Y-93050000D02*
X99800000Y-93050000D01*
X94900000Y-111625000D02*
X93525000Y-111625000D01*
X95125000Y-111625000D02*
X95125000Y-111625000D01*
X107250000Y-111625000D02*
X108375000Y-111625000D01*
X108375000Y-111625000D02*
X108750000Y-112000000D01*
X108750000Y-112000000D02*
X108750000Y-112000000D01*
X95625000Y-100750000D02*
X95750000Y-100625000D01*
X94625000Y-100750000D02*
X95625000Y-100750000D01*
X91100000Y-105000000D02*
X92500000Y-105000000D01*
X92500000Y-105000000D02*
X93250000Y-105750000D01*
X93250000Y-105750000D02*
X93250000Y-105750000D01*
D29*
X125800000Y-108875000D02*
X127125000Y-108875000D01*
X127125000Y-108875000D02*
X127125000Y-108875000D01*
X135700000Y-109800000D02*
X132300000Y-109800000D01*
X146000000Y-98400000D02*
X145800000Y-98400000D01*
X147000000Y-96525000D02*
X147000000Y-97400000D01*
X147000000Y-97400000D02*
X146000000Y-98400000D01*
X145000000Y-96600000D02*
X145800000Y-97400000D01*
X145000000Y-96375000D02*
X145000000Y-96600000D01*
X161225000Y-91200000D02*
X159700000Y-91200000D01*
X159025000Y-91875000D02*
X159025000Y-92775000D01*
X159700000Y-91200000D02*
X159025000Y-91875000D01*
X137000000Y-96375000D02*
X137000000Y-97100000D01*
X137000000Y-97100000D02*
X137500000Y-97600000D01*
X137500000Y-97600000D02*
X137500000Y-97600000D01*
X111662500Y-100250000D02*
X113000000Y-100250000D01*
X113000000Y-100250000D02*
X113500000Y-99750000D01*
X113500000Y-99750000D02*
X113500000Y-97875000D01*
X154925000Y-98325000D02*
X155500000Y-97750000D01*
X154000000Y-98325000D02*
X154925000Y-98325000D01*
%TO.N,+3V3*%
X108750000Y-107500000D02*
X109250000Y-108000000D01*
X108750000Y-106662500D02*
X108750000Y-107500000D01*
X110875000Y-108000000D02*
X111875000Y-109000000D01*
X109250000Y-108000000D02*
X110875000Y-108000000D01*
X112250000Y-99162500D02*
X111662500Y-99750000D01*
X112250000Y-98375000D02*
X112250000Y-99162500D01*
D32*
X102125000Y-97375000D02*
X101500000Y-96750000D01*
X103200000Y-97375000D02*
X102125000Y-97375000D01*
X101500000Y-96750000D02*
X101500000Y-94000000D01*
X101500000Y-94000000D02*
X102500000Y-93000000D01*
X102500000Y-93000000D02*
X114500000Y-93000000D01*
D29*
X117825000Y-95875000D02*
X117375000Y-95875000D01*
X118750000Y-94950000D02*
X117825000Y-95875000D01*
X118750000Y-94150000D02*
X118750000Y-94950000D01*
D32*
X114500000Y-93000000D02*
X117375000Y-95875000D01*
X134500928Y-96874072D02*
X135000000Y-96375000D01*
X134147999Y-97227001D02*
X134500928Y-96874072D01*
X118727001Y-97227001D02*
X134147999Y-97227001D01*
X117375000Y-95875000D02*
X118727001Y-97227001D01*
D31*
X97250000Y-100875000D02*
X95750000Y-102375000D01*
X98000000Y-98000000D02*
X97250000Y-98750000D01*
X101225000Y-106475000D02*
X100500000Y-105750000D01*
X97250000Y-98750000D02*
X97250000Y-100875000D01*
X101400000Y-106475000D02*
X101225000Y-106475000D01*
X99500000Y-98000000D02*
X98000000Y-98000000D01*
X100500000Y-105750000D02*
X100500000Y-99000000D01*
X100500000Y-99000000D02*
X99500000Y-98000000D01*
X89750000Y-106500000D02*
X89250000Y-106000000D01*
X96900000Y-106475000D02*
X95750000Y-107625000D01*
X101400000Y-106475000D02*
X96900000Y-106475000D01*
D29*
X147500000Y-99000000D02*
X151000000Y-99000000D01*
X146250000Y-100250000D02*
X147500000Y-99000000D01*
X117250000Y-99250000D02*
X121000000Y-99250000D01*
X136250000Y-99000000D02*
X137500000Y-100250000D01*
X113250000Y-95250000D02*
X117250000Y-99250000D01*
X111250000Y-98250000D02*
X111250000Y-95750000D01*
X111250000Y-95750000D02*
X111750000Y-95250000D01*
X111750000Y-95250000D02*
X113250000Y-95250000D01*
X137500000Y-100250000D02*
X146250000Y-100250000D01*
X121000000Y-99250000D02*
X122000000Y-100250000D01*
X131000000Y-100250000D02*
X132250000Y-99000000D01*
X132250000Y-99000000D02*
X136250000Y-99000000D01*
X131000000Y-100625000D02*
X130375000Y-101250000D01*
X131000000Y-100250000D02*
X131000000Y-100625000D01*
X146250000Y-100625000D02*
X145625000Y-101250000D01*
X146250000Y-100250000D02*
X146250000Y-100625000D01*
X151000000Y-99000000D02*
X151625000Y-99625000D01*
X151625000Y-99625000D02*
X151750000Y-99750000D01*
X88075000Y-107125000D02*
X88075000Y-108000000D01*
X89200000Y-106000000D02*
X88075000Y-107125000D01*
X88600000Y-104200000D02*
X89250000Y-103550000D01*
X89250000Y-103550000D02*
X89250000Y-101850000D01*
X89200000Y-106000000D02*
X88600000Y-105400000D01*
X88600000Y-105400000D02*
X88600000Y-104200000D01*
X89250000Y-101850000D02*
X90550000Y-100550000D01*
D31*
X90550000Y-100550000D02*
X91100000Y-100000000D01*
D29*
X95750000Y-107625000D02*
X94625000Y-106500000D01*
X94625000Y-106500000D02*
X90100000Y-106500000D01*
X90100000Y-106500000D02*
X89750000Y-106500000D01*
X89700000Y-106500000D02*
X88600000Y-105400000D01*
X89750000Y-106500000D02*
X89700000Y-106500000D01*
X116375000Y-100000000D02*
X116500000Y-100000000D01*
X116500000Y-100000000D02*
X117250000Y-99250000D01*
X122000000Y-100250000D02*
X131000000Y-100250000D01*
X108750000Y-106662500D02*
X108750000Y-105150000D01*
X159375000Y-100500000D02*
X159875000Y-100000000D01*
X151625000Y-99625000D02*
X152500000Y-100500000D01*
X152500000Y-100500000D02*
X159375000Y-100500000D01*
D30*
%TO.N,+5V*%
X164125000Y-94100000D02*
X164125000Y-92780000D01*
X159875000Y-94100000D02*
X159875000Y-92780000D01*
D32*
X146850000Y-94625000D02*
X147000000Y-94475000D01*
X143000000Y-94625000D02*
X146850000Y-94625000D01*
D33*
X149200000Y-93400000D02*
X149200000Y-95100000D01*
D32*
X147625000Y-95100000D02*
X147000000Y-94475000D01*
X149200000Y-95100000D02*
X147625000Y-95100000D01*
D29*
X131000000Y-93350000D02*
X131350000Y-93000000D01*
X131000000Y-94150000D02*
X131000000Y-93350000D01*
X141375000Y-93000000D02*
X143000000Y-94625000D01*
X131350000Y-93000000D02*
X141375000Y-93000000D01*
D33*
X159875000Y-94100000D02*
X159875000Y-94875000D01*
D32*
X149200000Y-95100000D02*
X156850000Y-95100000D01*
D33*
X159650000Y-95100000D02*
X159875000Y-94875000D01*
X156850000Y-95100000D02*
X159650000Y-95100000D01*
D29*
%TO.N,/OSC_IN*%
X98725000Y-109875000D02*
X99100000Y-110250000D01*
X96500000Y-109875000D02*
X98725000Y-109875000D01*
X99250000Y-110250000D02*
X99100000Y-110250000D01*
X106750000Y-107397818D02*
X106147818Y-108000000D01*
X106750000Y-106662500D02*
X106750000Y-107397818D01*
X100850000Y-110250000D02*
X99100000Y-110250000D01*
X106147818Y-108000000D02*
X103250000Y-108000000D01*
X103250000Y-108000000D02*
X103000000Y-108000000D01*
X103250000Y-108000000D02*
X102000000Y-108000000D01*
X102000000Y-108000000D02*
X101500000Y-108500000D01*
X101500000Y-108500000D02*
X101500000Y-109600000D01*
X101500000Y-109600000D02*
X100850000Y-110250000D01*
X96500000Y-109875000D02*
X94900000Y-109875000D01*
%TO.N,/OSC_OUT*%
X105000000Y-109850000D02*
X104600000Y-110250000D01*
X104975000Y-109875000D02*
X104600000Y-110250000D01*
X107250000Y-109875000D02*
X104975000Y-109875000D01*
X107250000Y-107501700D02*
X106251700Y-108500000D01*
X107250000Y-106662500D02*
X107250000Y-107501700D01*
X106251700Y-108500000D02*
X102250000Y-108500000D01*
X102250000Y-108500000D02*
X102000000Y-108750000D01*
X102850000Y-110250000D02*
X104600000Y-110250000D01*
X102000000Y-109400000D02*
X102850000Y-110250000D01*
X102000000Y-108750000D02*
X102000000Y-109400000D01*
D31*
%TO.N,/ROT_B*%
X102637536Y-101250000D02*
X103337500Y-101250000D01*
X95870980Y-97245980D02*
X99812324Y-97245980D01*
X95750000Y-97125000D02*
X95870980Y-97245980D01*
X99812324Y-97245980D02*
X101377009Y-98810665D01*
X101377009Y-98810665D02*
X101377010Y-99989474D01*
X101377010Y-99989474D02*
X102637536Y-101250000D01*
X91775000Y-101625000D02*
X91750000Y-101625000D01*
X95750000Y-97650000D02*
X91775000Y-101625000D01*
X95750000Y-97125000D02*
X95750000Y-97650000D01*
%TO.N,/ROT_A*%
X95250000Y-98875000D02*
X93500000Y-100625000D01*
X95750000Y-98875000D02*
X95250000Y-98875000D01*
X103337500Y-101750000D02*
X102500000Y-101750000D01*
X102500000Y-101750000D02*
X101000000Y-100250000D01*
X101000000Y-100250000D02*
X101000000Y-98966828D01*
X97002010Y-97622990D02*
X96437500Y-98187500D01*
X99656162Y-97622990D02*
X97002010Y-97622990D01*
X101000000Y-98966828D02*
X99656162Y-97622990D01*
X96437500Y-98187500D02*
X95750000Y-98875000D01*
X93500000Y-100625000D02*
X93500000Y-101625000D01*
D29*
%TO.N,Net-(CN1-PadA5)*%
X160725000Y-94100000D02*
X160725000Y-95275000D01*
X154499072Y-96075928D02*
X154000000Y-96575000D01*
X159924072Y-96075928D02*
X154499072Y-96075928D01*
X160725000Y-95275000D02*
X159924072Y-96075928D01*
%TO.N,/USB_D+*%
X161575000Y-94089619D02*
X161575000Y-94100000D01*
X162430000Y-93234619D02*
X161575000Y-94089619D01*
X162430000Y-92775000D02*
X162430000Y-93234619D01*
X150775000Y-96575000D02*
X150775000Y-96500000D01*
X161575000Y-96425000D02*
X161575000Y-94100000D01*
X161250000Y-96750000D02*
X161575000Y-96425000D01*
X152000000Y-96500000D02*
X152500000Y-97000000D01*
X150775000Y-96500000D02*
X152000000Y-96500000D01*
X158750000Y-96750000D02*
X161250000Y-96750000D01*
X152500000Y-97000000D02*
X152500000Y-98896118D01*
X152500000Y-98896118D02*
X153103882Y-99500000D01*
X153103882Y-99500000D02*
X156000000Y-99500000D01*
X156000000Y-99500000D02*
X158750000Y-96750000D01*
%TO.N,/USB_D-*%
X162425000Y-96325000D02*
X162425000Y-94100000D01*
X161500000Y-97250000D02*
X162425000Y-96325000D01*
X159000000Y-97250000D02*
X161500000Y-97250000D01*
X151850000Y-98100000D02*
X152000000Y-98250000D01*
X150775000Y-98100000D02*
X151850000Y-98100000D01*
X152000000Y-98250000D02*
X152000000Y-99000000D01*
X152000000Y-99000000D02*
X153000000Y-100000000D01*
X153000000Y-100000000D02*
X156250000Y-100000000D01*
X156250000Y-100000000D02*
X159000000Y-97250000D01*
D30*
%TO.N,Net-(CN1-PadB5)*%
X163280000Y-91405000D02*
X162875000Y-91000000D01*
D29*
X163280000Y-91505000D02*
X162975000Y-91200000D01*
X163280000Y-92775000D02*
X163280000Y-91505000D01*
%TO.N,Net-(D1-Pad2)*%
X125750000Y-93275000D02*
X127500000Y-93275000D01*
%TO.N,Net-(D2-Pad2)*%
X122250000Y-93275000D02*
X124000000Y-93275000D01*
%TO.N,Net-(D3-Pad2)*%
X124200000Y-107125000D02*
X125800000Y-107125000D01*
%TO.N,Net-(D4-Pad2)*%
X115375000Y-110565000D02*
X114740000Y-111200000D01*
X115375000Y-109000000D02*
X115375000Y-110565000D01*
%TO.N,Net-(JP1-Pad2)*%
X128375000Y-94150000D02*
X127500000Y-95025000D01*
X129730000Y-94150000D02*
X128375000Y-94150000D01*
%TO.N,Net-(JP2-Pad2)*%
X121375000Y-94150000D02*
X122250000Y-95025000D01*
X120020000Y-94150000D02*
X121375000Y-94150000D01*
%TO.N,Net-(JP3-Pad2)*%
X123995000Y-108670000D02*
X124200000Y-108875000D01*
X124170000Y-108905000D02*
X124200000Y-108875000D01*
X124170000Y-111200000D02*
X124170000Y-108905000D01*
%TO.N,/HB_LED*%
X122900000Y-111200000D02*
X122900000Y-108500000D01*
X122900000Y-108500000D02*
X118650000Y-104250000D01*
X118650000Y-104250000D02*
X121800000Y-107400000D01*
X111662500Y-104250000D02*
X118650000Y-104250000D01*
%TO.N,/MUTE_LED*%
X111662500Y-107037500D02*
X113625000Y-109000000D01*
X111662500Y-105250000D02*
X111662500Y-107037500D01*
D31*
%TO.N,Net-(R2-Pad2)*%
X83000000Y-103500000D02*
X84000000Y-102500000D01*
X84000000Y-102500000D02*
X85500000Y-102500000D01*
X83000000Y-106750000D02*
X83000000Y-103500000D01*
X87000000Y-110750000D02*
X83000000Y-106750000D01*
X90625000Y-110750000D02*
X87000000Y-110750000D01*
%TO.N,/BOOT0*%
X103337500Y-103250000D02*
X101500000Y-103250000D01*
X101500000Y-103250000D02*
X101500000Y-103250000D01*
X94050000Y-108750000D02*
X92375000Y-110425000D01*
X96500000Y-108750000D02*
X94050000Y-108750000D01*
X92375000Y-110425000D02*
X92375000Y-110750000D01*
X99750000Y-107250000D02*
X98000000Y-107250000D01*
X98000000Y-107250000D02*
X96500000Y-108750000D01*
D29*
%TO.N,/SWDIO*%
X105750000Y-95250000D02*
X105250000Y-94750000D01*
X105750000Y-98337500D02*
X105750000Y-95250000D01*
X103875000Y-94750000D02*
X103375000Y-94250000D01*
X105250000Y-94750000D02*
X103875000Y-94750000D01*
D31*
%TO.N,/SWCLK*%
X103337500Y-99750000D02*
X102500000Y-99750000D01*
X102500000Y-99750000D02*
X102250000Y-99500000D01*
X102250000Y-99500000D02*
X102250000Y-98563502D01*
X98125000Y-94438502D02*
X98125000Y-94250000D01*
X102250000Y-98563502D02*
X98125000Y-94438502D01*
X97125000Y-93250000D02*
X98125000Y-94250000D01*
X95750000Y-93250000D02*
X97125000Y-93250000D01*
D29*
%TO.N,/STOP*%
X161625000Y-99875000D02*
X161625000Y-101250000D01*
X149750000Y-103750000D02*
X152250000Y-101250000D01*
X123000000Y-105500000D02*
X124750000Y-103750000D01*
X124750000Y-103750000D02*
X135500000Y-103750000D01*
X152250000Y-101250000D02*
X164250000Y-101250000D01*
X135500000Y-103750000D02*
X136250000Y-104500000D01*
X164250000Y-101250000D02*
X164580000Y-100920000D01*
X136250000Y-104500000D02*
X138250000Y-104500000D01*
X138250000Y-104500000D02*
X139000000Y-103750000D01*
X139000000Y-103750000D02*
X149750000Y-103750000D01*
X121250000Y-105500000D02*
X123000000Y-105500000D01*
X111662500Y-102250000D02*
X112850000Y-102250000D01*
X119377010Y-103627010D02*
X121250000Y-105500000D01*
X112850000Y-102250000D02*
X114227010Y-103627010D01*
X114227010Y-103627010D02*
X119377010Y-103627010D01*
D31*
%TO.N,Net-(R10-Pad2)*%
X95750000Y-104125000D02*
X96375000Y-104125000D01*
X96375000Y-104125000D02*
X97250000Y-103250000D01*
X97250000Y-101750000D02*
X99000000Y-100000000D01*
X97250000Y-103250000D02*
X97250000Y-101750000D01*
X94375000Y-104125000D02*
X95750000Y-104125000D01*
X93500000Y-103250000D02*
X94375000Y-104125000D01*
%TO.N,Net-(R11-Pad2)*%
X98125000Y-105875000D02*
X99000000Y-105000000D01*
X95750000Y-105875000D02*
X98125000Y-105875000D01*
X94375000Y-105875000D02*
X95750000Y-105875000D01*
X91750000Y-103250000D02*
X94375000Y-105875000D01*
D29*
%TO.N,/PREVIOUS*%
X143875000Y-101125000D02*
X143875000Y-102250000D01*
X135500000Y-103000000D02*
X136250000Y-102250000D01*
X124500000Y-103000000D02*
X135500000Y-103000000D01*
X136250000Y-102250000D02*
X148250000Y-102250000D01*
X148250000Y-102250000D02*
X149580000Y-100920000D01*
X121500000Y-104750000D02*
X122750000Y-104750000D01*
X122750000Y-104750000D02*
X124500000Y-103000000D01*
X111662500Y-101750000D02*
X113150000Y-101750000D01*
X119950000Y-103200000D02*
X121500000Y-104750000D01*
X113150000Y-101750000D02*
X114600000Y-103200000D01*
X114600000Y-103200000D02*
X119950000Y-103200000D01*
%TO.N,/PLAY_PAUSE*%
X133250000Y-102250000D02*
X134580000Y-100920000D01*
X121250000Y-102250000D02*
X133250000Y-102250000D01*
X128625000Y-101000000D02*
X128625000Y-102125000D01*
X111662500Y-101250000D02*
X113396117Y-101250000D01*
X120750000Y-102750000D02*
X121250000Y-102250000D01*
X114896117Y-102750000D02*
X120750000Y-102750000D01*
X113396117Y-101250000D02*
X114896117Y-102750000D01*
D31*
%TO.N,/MUTE*%
X102466828Y-100250000D02*
X101754018Y-99537190D01*
X103337500Y-100250000D02*
X102466828Y-100250000D01*
X101754018Y-98654504D02*
X101174757Y-98075243D01*
X101754018Y-99537190D02*
X101754018Y-98654504D01*
X101174757Y-98075243D02*
X101349514Y-98250000D01*
X99968486Y-96868970D02*
X99068970Y-96868970D01*
X88500000Y-103250000D02*
X86750000Y-105000000D01*
X88500000Y-96250000D02*
X88500000Y-103250000D01*
X101174757Y-98075243D02*
X99968486Y-96868970D01*
X99068970Y-96868970D02*
X96600000Y-94400000D01*
X96600000Y-94400000D02*
X90350000Y-94400000D01*
X90350000Y-94400000D02*
X88500000Y-96250000D01*
D29*
X86325000Y-108000000D02*
X86325000Y-105075000D01*
D31*
X86750000Y-105000000D02*
X86400000Y-105000000D01*
X86400000Y-105000000D02*
X84500000Y-105000000D01*
D29*
%TO.N,/NEXT*%
X119410000Y-100750000D02*
X119580000Y-100920000D01*
X114625000Y-100875000D02*
X114670000Y-100920000D01*
X114625000Y-100000000D02*
X114625000Y-100875000D01*
X111662500Y-100750000D02*
X113500000Y-100750000D01*
X113670000Y-100920000D02*
X114670000Y-100920000D01*
X113500000Y-100750000D02*
X113670000Y-100920000D01*
X114670000Y-100920000D02*
X119580000Y-100920000D01*
D32*
%TO.N,Net-(SB1-Pad2)*%
X143000000Y-96375000D02*
X141050001Y-96375000D01*
D33*
X139050000Y-95784998D02*
X139050000Y-96500000D01*
X140685001Y-95519999D02*
X139314999Y-95519999D01*
X139314999Y-95519999D02*
X139050000Y-95784998D01*
X140950000Y-95784998D02*
X140685001Y-95519999D01*
X140950000Y-96500000D02*
X140950000Y-95784998D01*
D29*
%TO.N,/USB_D_-*%
X106750000Y-95550000D02*
X107800000Y-94500000D01*
X106750000Y-98337500D02*
X106750000Y-95550000D01*
X107800000Y-94500000D02*
X113500000Y-94500000D01*
X116500000Y-97500000D02*
X116125000Y-97125000D01*
X113500000Y-94500000D02*
X116125000Y-97125000D01*
X147753883Y-98100000D02*
X149025000Y-98100000D01*
X146103883Y-99750000D02*
X147753883Y-98100000D01*
X137750000Y-99750000D02*
X146103883Y-99750000D01*
X136500000Y-98500000D02*
X137750000Y-99750000D01*
X117750000Y-98750000D02*
X121250000Y-98750000D01*
X130750000Y-99750000D02*
X132000000Y-98500000D01*
X116125000Y-97125000D02*
X117750000Y-98750000D01*
X132000000Y-98500000D02*
X136500000Y-98500000D01*
X122250000Y-99750000D02*
X130750000Y-99750000D01*
X121250000Y-98750000D02*
X122250000Y-99750000D01*
%TO.N,/USB_D_+*%
X106250000Y-96750000D02*
X106250000Y-95550000D01*
X106250000Y-98337500D02*
X106250000Y-96750000D01*
X107554696Y-94000000D02*
X106250000Y-95304696D01*
X113750000Y-94000000D02*
X107554696Y-94000000D01*
X118000000Y-98250000D02*
X113750000Y-94000000D01*
X121500000Y-98250000D02*
X118000000Y-98250000D01*
X146000000Y-99250000D02*
X138000000Y-99250000D01*
X138000000Y-99250000D02*
X136750000Y-98000000D01*
X131892106Y-98004011D02*
X130646117Y-99250000D01*
X106250000Y-95304696D02*
X106250000Y-96750000D01*
X136750000Y-98000000D02*
X134473858Y-98000000D01*
X134473858Y-98000000D02*
X134469847Y-98004011D01*
X134469847Y-98004011D02*
X131892106Y-98004011D01*
X130646117Y-99250000D02*
X122500000Y-99250000D01*
X122500000Y-99250000D02*
X121500000Y-98250000D01*
X149025000Y-96500000D02*
X148900000Y-96500000D01*
X149025000Y-96500000D02*
X149000000Y-96500000D01*
X147852009Y-97672991D02*
X149025000Y-96500000D01*
X147577010Y-97672991D02*
X147852009Y-97672991D01*
X146000000Y-99250000D02*
X147577010Y-97672991D01*
%TO.N,/nRESET*%
X109000000Y-110500000D02*
X109250000Y-110750000D01*
X109000000Y-109750000D02*
X109000000Y-110500000D01*
X107750000Y-106662500D02*
X107750000Y-108500000D01*
X107750000Y-108500000D02*
X109000000Y-109750000D01*
%TO.N,/CLKOUT*%
X109750000Y-96000000D02*
X110000000Y-95750000D01*
X109750000Y-96750000D02*
X109750000Y-96000000D01*
X109500000Y-97000000D02*
X109750000Y-96750000D01*
X108500000Y-97000000D02*
X109500000Y-97000000D01*
X108250000Y-98337500D02*
X108250000Y-97250000D01*
X108250000Y-97250000D02*
X108500000Y-97000000D01*
%TO.N,/DBG_TX*%
X107750000Y-96250000D02*
X108250000Y-95750000D01*
X107750000Y-98337500D02*
X107750000Y-96250000D01*
D32*
%TO.N,Net-(C9-Pad1)*%
X135000000Y-94625000D02*
X137000000Y-94625000D01*
X138725000Y-94625000D02*
X139050000Y-94300000D01*
X137000000Y-94625000D02*
X138725000Y-94625000D01*
D33*
X133125000Y-94625000D02*
X133100000Y-94600000D01*
X135000000Y-94625000D02*
X133125000Y-94625000D01*
%TD*%
D34*
%TO.N,+3V3*%
G36*
X104773000Y-99400000D02*
G01*
X104775440Y-99424776D01*
X104782667Y-99448601D01*
X104794403Y-99470557D01*
X104810197Y-99489803D01*
X104829443Y-99505597D01*
X104850638Y-99516926D01*
X104851847Y-99529198D01*
X104873884Y-99601846D01*
X104874948Y-99605352D01*
X104912462Y-99675535D01*
X104950300Y-99721642D01*
X104950304Y-99721646D01*
X104962948Y-99737053D01*
X104978355Y-99749697D01*
X105246000Y-100017343D01*
X105246000Y-100054564D01*
X105267289Y-100161596D01*
X105309051Y-100262418D01*
X105369680Y-100353155D01*
X105446845Y-100430320D01*
X105537582Y-100490949D01*
X105638404Y-100532711D01*
X105745436Y-100554000D01*
X105854564Y-100554000D01*
X105961596Y-100532711D01*
X106062418Y-100490949D01*
X106153155Y-100430320D01*
X106230320Y-100353155D01*
X106290949Y-100262418D01*
X106332711Y-100161596D01*
X106354000Y-100054564D01*
X106354000Y-99945436D01*
X106332711Y-99838404D01*
X106290949Y-99737582D01*
X106230320Y-99646845D01*
X106153155Y-99569680D01*
X106089280Y-99527000D01*
X110375032Y-99527000D01*
X110380764Y-99882369D01*
X110368294Y-99889034D01*
X110324463Y-99912462D01*
X110278357Y-99950300D01*
X110278354Y-99950303D01*
X110262947Y-99962947D01*
X110250303Y-99978354D01*
X109982658Y-100246000D01*
X109945436Y-100246000D01*
X109838404Y-100267289D01*
X109737582Y-100309051D01*
X109646845Y-100369680D01*
X109569680Y-100446845D01*
X109509051Y-100537582D01*
X109467289Y-100638404D01*
X109446000Y-100745436D01*
X109446000Y-100854564D01*
X109467289Y-100961596D01*
X109509051Y-101062418D01*
X109569680Y-101153155D01*
X109646845Y-101230320D01*
X109737582Y-101290949D01*
X109838404Y-101332711D01*
X109945436Y-101354000D01*
X110054564Y-101354000D01*
X110161596Y-101332711D01*
X110262418Y-101290949D01*
X110353155Y-101230320D01*
X110401722Y-101181753D01*
X110470936Y-105473000D01*
X108654000Y-105473000D01*
X108654000Y-105469837D01*
X108655954Y-105449999D01*
X108653215Y-105422188D01*
X108648154Y-105370802D01*
X108625053Y-105294648D01*
X108607590Y-105261978D01*
X108587538Y-105224463D01*
X108549700Y-105178357D01*
X108549697Y-105178354D01*
X108537053Y-105162947D01*
X108521646Y-105150303D01*
X108354000Y-104982657D01*
X108354000Y-104945436D01*
X108332711Y-104838404D01*
X108290949Y-104737582D01*
X108230320Y-104646845D01*
X108153155Y-104569680D01*
X108062418Y-104509051D01*
X107961596Y-104467289D01*
X107854564Y-104446000D01*
X107745436Y-104446000D01*
X107638404Y-104467289D01*
X107537582Y-104509051D01*
X107446845Y-104569680D01*
X107369680Y-104646845D01*
X107309051Y-104737582D01*
X107267289Y-104838404D01*
X107246000Y-104945436D01*
X107246000Y-105054564D01*
X107267289Y-105161596D01*
X107309051Y-105262418D01*
X107369680Y-105353155D01*
X107446845Y-105430320D01*
X107510720Y-105473000D01*
X104912500Y-105473000D01*
X104887724Y-105475440D01*
X104863899Y-105482667D01*
X104841943Y-105494403D01*
X104822697Y-105510197D01*
X104806903Y-105529443D01*
X104795167Y-105551399D01*
X104787940Y-105575224D01*
X104785507Y-105598677D01*
X104768066Y-107273000D01*
X101032722Y-107273000D01*
X101027530Y-106027000D01*
X101900000Y-106027000D01*
X101924776Y-106024560D01*
X101948601Y-106017333D01*
X101970557Y-106005597D01*
X101989803Y-105989803D01*
X102007696Y-105967310D01*
X102470390Y-105227000D01*
X104400000Y-105227000D01*
X104424776Y-105224560D01*
X104448601Y-105217333D01*
X104470557Y-105205597D01*
X104489803Y-105189803D01*
X104505597Y-105170557D01*
X104516926Y-105149363D01*
X104529198Y-105148154D01*
X104605352Y-105125053D01*
X104675536Y-105087538D01*
X104737053Y-105037053D01*
X104749701Y-105021641D01*
X105017343Y-104754000D01*
X105054564Y-104754000D01*
X105161596Y-104732711D01*
X105262418Y-104690949D01*
X105353155Y-104630320D01*
X105430320Y-104553155D01*
X105490949Y-104462418D01*
X105532711Y-104361596D01*
X105554000Y-104254564D01*
X105554000Y-104145436D01*
X105532711Y-104038404D01*
X105490949Y-103937582D01*
X105430320Y-103846845D01*
X105353155Y-103769680D01*
X105262418Y-103709051D01*
X105161596Y-103667289D01*
X105054564Y-103646000D01*
X104945436Y-103646000D01*
X104838404Y-103667289D01*
X104737582Y-103709051D01*
X104646845Y-103769680D01*
X104569680Y-103846845D01*
X104527000Y-103910720D01*
X104527000Y-99200000D01*
X104524560Y-99175224D01*
X104517333Y-99151399D01*
X104505597Y-99129443D01*
X104489803Y-99110197D01*
X104470557Y-99094403D01*
X104448601Y-99082667D01*
X104424776Y-99075440D01*
X104400000Y-99073000D01*
X102727000Y-99073000D01*
X102727000Y-97127000D01*
X104773000Y-97127000D01*
X104773000Y-99400000D01*
G37*
X104773000Y-99400000D02*
X104775440Y-99424776D01*
X104782667Y-99448601D01*
X104794403Y-99470557D01*
X104810197Y-99489803D01*
X104829443Y-99505597D01*
X104850638Y-99516926D01*
X104851847Y-99529198D01*
X104873884Y-99601846D01*
X104874948Y-99605352D01*
X104912462Y-99675535D01*
X104950300Y-99721642D01*
X104950304Y-99721646D01*
X104962948Y-99737053D01*
X104978355Y-99749697D01*
X105246000Y-100017343D01*
X105246000Y-100054564D01*
X105267289Y-100161596D01*
X105309051Y-100262418D01*
X105369680Y-100353155D01*
X105446845Y-100430320D01*
X105537582Y-100490949D01*
X105638404Y-100532711D01*
X105745436Y-100554000D01*
X105854564Y-100554000D01*
X105961596Y-100532711D01*
X106062418Y-100490949D01*
X106153155Y-100430320D01*
X106230320Y-100353155D01*
X106290949Y-100262418D01*
X106332711Y-100161596D01*
X106354000Y-100054564D01*
X106354000Y-99945436D01*
X106332711Y-99838404D01*
X106290949Y-99737582D01*
X106230320Y-99646845D01*
X106153155Y-99569680D01*
X106089280Y-99527000D01*
X110375032Y-99527000D01*
X110380764Y-99882369D01*
X110368294Y-99889034D01*
X110324463Y-99912462D01*
X110278357Y-99950300D01*
X110278354Y-99950303D01*
X110262947Y-99962947D01*
X110250303Y-99978354D01*
X109982658Y-100246000D01*
X109945436Y-100246000D01*
X109838404Y-100267289D01*
X109737582Y-100309051D01*
X109646845Y-100369680D01*
X109569680Y-100446845D01*
X109509051Y-100537582D01*
X109467289Y-100638404D01*
X109446000Y-100745436D01*
X109446000Y-100854564D01*
X109467289Y-100961596D01*
X109509051Y-101062418D01*
X109569680Y-101153155D01*
X109646845Y-101230320D01*
X109737582Y-101290949D01*
X109838404Y-101332711D01*
X109945436Y-101354000D01*
X110054564Y-101354000D01*
X110161596Y-101332711D01*
X110262418Y-101290949D01*
X110353155Y-101230320D01*
X110401722Y-101181753D01*
X110470936Y-105473000D01*
X108654000Y-105473000D01*
X108654000Y-105469837D01*
X108655954Y-105449999D01*
X108653215Y-105422188D01*
X108648154Y-105370802D01*
X108625053Y-105294648D01*
X108607590Y-105261978D01*
X108587538Y-105224463D01*
X108549700Y-105178357D01*
X108549697Y-105178354D01*
X108537053Y-105162947D01*
X108521646Y-105150303D01*
X108354000Y-104982657D01*
X108354000Y-104945436D01*
X108332711Y-104838404D01*
X108290949Y-104737582D01*
X108230320Y-104646845D01*
X108153155Y-104569680D01*
X108062418Y-104509051D01*
X107961596Y-104467289D01*
X107854564Y-104446000D01*
X107745436Y-104446000D01*
X107638404Y-104467289D01*
X107537582Y-104509051D01*
X107446845Y-104569680D01*
X107369680Y-104646845D01*
X107309051Y-104737582D01*
X107267289Y-104838404D01*
X107246000Y-104945436D01*
X107246000Y-105054564D01*
X107267289Y-105161596D01*
X107309051Y-105262418D01*
X107369680Y-105353155D01*
X107446845Y-105430320D01*
X107510720Y-105473000D01*
X104912500Y-105473000D01*
X104887724Y-105475440D01*
X104863899Y-105482667D01*
X104841943Y-105494403D01*
X104822697Y-105510197D01*
X104806903Y-105529443D01*
X104795167Y-105551399D01*
X104787940Y-105575224D01*
X104785507Y-105598677D01*
X104768066Y-107273000D01*
X101032722Y-107273000D01*
X101027530Y-106027000D01*
X101900000Y-106027000D01*
X101924776Y-106024560D01*
X101948601Y-106017333D01*
X101970557Y-106005597D01*
X101989803Y-105989803D01*
X102007696Y-105967310D01*
X102470390Y-105227000D01*
X104400000Y-105227000D01*
X104424776Y-105224560D01*
X104448601Y-105217333D01*
X104470557Y-105205597D01*
X104489803Y-105189803D01*
X104505597Y-105170557D01*
X104516926Y-105149363D01*
X104529198Y-105148154D01*
X104605352Y-105125053D01*
X104675536Y-105087538D01*
X104737053Y-105037053D01*
X104749701Y-105021641D01*
X105017343Y-104754000D01*
X105054564Y-104754000D01*
X105161596Y-104732711D01*
X105262418Y-104690949D01*
X105353155Y-104630320D01*
X105430320Y-104553155D01*
X105490949Y-104462418D01*
X105532711Y-104361596D01*
X105554000Y-104254564D01*
X105554000Y-104145436D01*
X105532711Y-104038404D01*
X105490949Y-103937582D01*
X105430320Y-103846845D01*
X105353155Y-103769680D01*
X105262418Y-103709051D01*
X105161596Y-103667289D01*
X105054564Y-103646000D01*
X104945436Y-103646000D01*
X104838404Y-103667289D01*
X104737582Y-103709051D01*
X104646845Y-103769680D01*
X104569680Y-103846845D01*
X104527000Y-103910720D01*
X104527000Y-99200000D01*
X104524560Y-99175224D01*
X104517333Y-99151399D01*
X104505597Y-99129443D01*
X104489803Y-99110197D01*
X104470557Y-99094403D01*
X104448601Y-99082667D01*
X104424776Y-99075440D01*
X104400000Y-99073000D01*
X102727000Y-99073000D01*
X102727000Y-97127000D01*
X104773000Y-97127000D01*
X104773000Y-99400000D01*
G36*
X112573000Y-98782992D02*
G01*
X112302998Y-99773000D01*
X110561039Y-99773000D01*
X110364239Y-99527000D01*
X110700000Y-99527000D01*
X110724776Y-99524560D01*
X110748601Y-99517333D01*
X110770557Y-99505597D01*
X110789803Y-99489803D01*
X110805597Y-99470557D01*
X110817333Y-99448601D01*
X110824560Y-99424776D01*
X110827000Y-99400000D01*
X110827000Y-98027000D01*
X112573000Y-98027000D01*
X112573000Y-98782992D01*
G37*
X112573000Y-98782992D02*
X112302998Y-99773000D01*
X110561039Y-99773000D01*
X110364239Y-99527000D01*
X110700000Y-99527000D01*
X110724776Y-99524560D01*
X110748601Y-99517333D01*
X110770557Y-99505597D01*
X110789803Y-99489803D01*
X110805597Y-99470557D01*
X110817333Y-99448601D01*
X110824560Y-99424776D01*
X110827000Y-99400000D01*
X110827000Y-98027000D01*
X112573000Y-98027000D01*
X112573000Y-98782992D01*
%TO.N,GND*%
G36*
X140273000Y-97100000D02*
G01*
X140275440Y-97124776D01*
X140282667Y-97148601D01*
X140294403Y-97170557D01*
X140310197Y-97189803D01*
X140510197Y-97389803D01*
X140529443Y-97405597D01*
X140551399Y-97417333D01*
X140575224Y-97424560D01*
X140600000Y-97427000D01*
X141673000Y-97427000D01*
X141673000Y-98773000D01*
X138327000Y-98773000D01*
X138327000Y-97427000D01*
X139400000Y-97427000D01*
X139424776Y-97424560D01*
X139448601Y-97417333D01*
X139470557Y-97405597D01*
X139489803Y-97389803D01*
X139689803Y-97189803D01*
X139705597Y-97170557D01*
X139717333Y-97148601D01*
X139724560Y-97124776D01*
X139727000Y-97100000D01*
X139727000Y-96027000D01*
X140273000Y-96027000D01*
X140273000Y-97100000D01*
G37*
X140273000Y-97100000D02*
X140275440Y-97124776D01*
X140282667Y-97148601D01*
X140294403Y-97170557D01*
X140310197Y-97189803D01*
X140510197Y-97389803D01*
X140529443Y-97405597D01*
X140551399Y-97417333D01*
X140575224Y-97424560D01*
X140600000Y-97427000D01*
X141673000Y-97427000D01*
X141673000Y-98773000D01*
X138327000Y-98773000D01*
X138327000Y-97427000D01*
X139400000Y-97427000D01*
X139424776Y-97424560D01*
X139448601Y-97417333D01*
X139470557Y-97405597D01*
X139489803Y-97389803D01*
X139689803Y-97189803D01*
X139705597Y-97170557D01*
X139717333Y-97148601D01*
X139724560Y-97124776D01*
X139727000Y-97100000D01*
X139727000Y-96027000D01*
X140273000Y-96027000D01*
X140273000Y-97100000D01*
%TD*%
M02*
