%TF.GenerationSoftware,KiCad,Pcbnew,(5.1.6)-1*%
%TF.CreationDate,2021-06-16T19:52:11-04:00*%
%TF.ProjectId,QAZ_media,51415a5f-6d65-4646-9961-2e6b69636164,rev?*%
%TF.SameCoordinates,Original*%
%TF.FileFunction,Soldermask,Top*%
%TF.FilePolarity,Negative*%
%FSLAX46Y46*%
G04 Gerber Fmt 4.6, Leading zero omitted, Abs format (unit mm)*
G04 Created by KiCad (PCBNEW (5.1.6)-1) date 2021-06-16 19:52:11*
%MOMM*%
%LPD*%
G01*
G04 APERTURE LIST*
%ADD10C,3.044800*%
%ADD11C,2.740000*%
%ADD12C,1.216000*%
%ADD13O,1.900000X1.900000*%
%ADD14R,1.900000X1.900000*%
%ADD15C,1.600000*%
%ADD16R,3.100000X2.800000*%
%ADD17R,0.850000X1.260000*%
%ADD18R,4.800000X3.500000*%
%ADD19C,2.200000*%
%ADD20R,3.400000X2.200000*%
%ADD21R,2.200000X2.200000*%
%ADD22R,2.700000X1.200000*%
%ADD23O,1.200000X1.200000*%
%ADD24R,1.200000X1.200000*%
%ADD25C,0.850000*%
%ADD26O,1.100000X2.600000*%
%ADD27O,1.100000X1.900000*%
G04 APERTURE END LIST*
D10*
%TO.C,H2*%
X80100000Y-102500000D03*
%TD*%
%TO.C,H1*%
X172600000Y-102500000D03*
%TD*%
D11*
%TO.C,SW5*%
X129500000Y-106000000D03*
D12*
X129500000Y-98380000D03*
D11*
X134580000Y-100920000D03*
D12*
X137120000Y-103460000D03*
%TD*%
D13*
%TO.C,D4*%
X114740000Y-111200000D03*
D14*
X112200000Y-111200000D03*
%TD*%
D15*
%TO.C,TP10*%
X95750000Y-93250000D03*
%TD*%
%TO.C,SB2*%
G36*
G01*
X134712500Y-95750000D02*
X135287500Y-95750000D01*
G75*
G02*
X135575000Y-96037500I0J-287500D01*
G01*
X135575000Y-96712500D01*
G75*
G02*
X135287500Y-97000000I-287500J0D01*
G01*
X134712500Y-97000000D01*
G75*
G02*
X134425000Y-96712500I0J287500D01*
G01*
X134425000Y-96037500D01*
G75*
G02*
X134712500Y-95750000I287500J0D01*
G01*
G37*
G36*
G01*
X134712500Y-94000000D02*
X135287500Y-94000000D01*
G75*
G02*
X135575000Y-94287500I0J-287500D01*
G01*
X135575000Y-94962500D01*
G75*
G02*
X135287500Y-95250000I-287500J0D01*
G01*
X134712500Y-95250000D01*
G75*
G02*
X134425000Y-94962500I0J287500D01*
G01*
X134425000Y-94287500D01*
G75*
G02*
X134712500Y-94000000I287500J0D01*
G01*
G37*
%TD*%
D16*
%TO.C,Y1*%
X99100000Y-110250000D03*
X104600000Y-110250000D03*
%TD*%
%TO.C,U2*%
G36*
G01*
X104875000Y-107500000D02*
X104625000Y-107500000D01*
G75*
G02*
X104500000Y-107375000I0J125000D01*
G01*
X104500000Y-105950000D01*
G75*
G02*
X104625000Y-105825000I125000J0D01*
G01*
X104875000Y-105825000D01*
G75*
G02*
X105000000Y-105950000I0J-125000D01*
G01*
X105000000Y-107375000D01*
G75*
G02*
X104875000Y-107500000I-125000J0D01*
G01*
G37*
G36*
G01*
X105375000Y-107500000D02*
X105125000Y-107500000D01*
G75*
G02*
X105000000Y-107375000I0J125000D01*
G01*
X105000000Y-105950000D01*
G75*
G02*
X105125000Y-105825000I125000J0D01*
G01*
X105375000Y-105825000D01*
G75*
G02*
X105500000Y-105950000I0J-125000D01*
G01*
X105500000Y-107375000D01*
G75*
G02*
X105375000Y-107500000I-125000J0D01*
G01*
G37*
G36*
G01*
X105875000Y-107500000D02*
X105625000Y-107500000D01*
G75*
G02*
X105500000Y-107375000I0J125000D01*
G01*
X105500000Y-105950000D01*
G75*
G02*
X105625000Y-105825000I125000J0D01*
G01*
X105875000Y-105825000D01*
G75*
G02*
X106000000Y-105950000I0J-125000D01*
G01*
X106000000Y-107375000D01*
G75*
G02*
X105875000Y-107500000I-125000J0D01*
G01*
G37*
G36*
G01*
X106375000Y-107500000D02*
X106125000Y-107500000D01*
G75*
G02*
X106000000Y-107375000I0J125000D01*
G01*
X106000000Y-105950000D01*
G75*
G02*
X106125000Y-105825000I125000J0D01*
G01*
X106375000Y-105825000D01*
G75*
G02*
X106500000Y-105950000I0J-125000D01*
G01*
X106500000Y-107375000D01*
G75*
G02*
X106375000Y-107500000I-125000J0D01*
G01*
G37*
G36*
G01*
X106875000Y-107500000D02*
X106625000Y-107500000D01*
G75*
G02*
X106500000Y-107375000I0J125000D01*
G01*
X106500000Y-105950000D01*
G75*
G02*
X106625000Y-105825000I125000J0D01*
G01*
X106875000Y-105825000D01*
G75*
G02*
X107000000Y-105950000I0J-125000D01*
G01*
X107000000Y-107375000D01*
G75*
G02*
X106875000Y-107500000I-125000J0D01*
G01*
G37*
G36*
G01*
X107375000Y-107500000D02*
X107125000Y-107500000D01*
G75*
G02*
X107000000Y-107375000I0J125000D01*
G01*
X107000000Y-105950000D01*
G75*
G02*
X107125000Y-105825000I125000J0D01*
G01*
X107375000Y-105825000D01*
G75*
G02*
X107500000Y-105950000I0J-125000D01*
G01*
X107500000Y-107375000D01*
G75*
G02*
X107375000Y-107500000I-125000J0D01*
G01*
G37*
G36*
G01*
X107875000Y-107500000D02*
X107625000Y-107500000D01*
G75*
G02*
X107500000Y-107375000I0J125000D01*
G01*
X107500000Y-105950000D01*
G75*
G02*
X107625000Y-105825000I125000J0D01*
G01*
X107875000Y-105825000D01*
G75*
G02*
X108000000Y-105950000I0J-125000D01*
G01*
X108000000Y-107375000D01*
G75*
G02*
X107875000Y-107500000I-125000J0D01*
G01*
G37*
G36*
G01*
X108375000Y-107500000D02*
X108125000Y-107500000D01*
G75*
G02*
X108000000Y-107375000I0J125000D01*
G01*
X108000000Y-105950000D01*
G75*
G02*
X108125000Y-105825000I125000J0D01*
G01*
X108375000Y-105825000D01*
G75*
G02*
X108500000Y-105950000I0J-125000D01*
G01*
X108500000Y-107375000D01*
G75*
G02*
X108375000Y-107500000I-125000J0D01*
G01*
G37*
G36*
G01*
X108875000Y-107500000D02*
X108625000Y-107500000D01*
G75*
G02*
X108500000Y-107375000I0J125000D01*
G01*
X108500000Y-105950000D01*
G75*
G02*
X108625000Y-105825000I125000J0D01*
G01*
X108875000Y-105825000D01*
G75*
G02*
X109000000Y-105950000I0J-125000D01*
G01*
X109000000Y-107375000D01*
G75*
G02*
X108875000Y-107500000I-125000J0D01*
G01*
G37*
G36*
G01*
X109375000Y-107500000D02*
X109125000Y-107500000D01*
G75*
G02*
X109000000Y-107375000I0J125000D01*
G01*
X109000000Y-105950000D01*
G75*
G02*
X109125000Y-105825000I125000J0D01*
G01*
X109375000Y-105825000D01*
G75*
G02*
X109500000Y-105950000I0J-125000D01*
G01*
X109500000Y-107375000D01*
G75*
G02*
X109375000Y-107500000I-125000J0D01*
G01*
G37*
G36*
G01*
X109875000Y-107500000D02*
X109625000Y-107500000D01*
G75*
G02*
X109500000Y-107375000I0J125000D01*
G01*
X109500000Y-105950000D01*
G75*
G02*
X109625000Y-105825000I125000J0D01*
G01*
X109875000Y-105825000D01*
G75*
G02*
X110000000Y-105950000I0J-125000D01*
G01*
X110000000Y-107375000D01*
G75*
G02*
X109875000Y-107500000I-125000J0D01*
G01*
G37*
G36*
G01*
X110375000Y-107500000D02*
X110125000Y-107500000D01*
G75*
G02*
X110000000Y-107375000I0J125000D01*
G01*
X110000000Y-105950000D01*
G75*
G02*
X110125000Y-105825000I125000J0D01*
G01*
X110375000Y-105825000D01*
G75*
G02*
X110500000Y-105950000I0J-125000D01*
G01*
X110500000Y-107375000D01*
G75*
G02*
X110375000Y-107500000I-125000J0D01*
G01*
G37*
G36*
G01*
X112375000Y-105500000D02*
X110950000Y-105500000D01*
G75*
G02*
X110825000Y-105375000I0J125000D01*
G01*
X110825000Y-105125000D01*
G75*
G02*
X110950000Y-105000000I125000J0D01*
G01*
X112375000Y-105000000D01*
G75*
G02*
X112500000Y-105125000I0J-125000D01*
G01*
X112500000Y-105375000D01*
G75*
G02*
X112375000Y-105500000I-125000J0D01*
G01*
G37*
G36*
G01*
X112375000Y-105000000D02*
X110950000Y-105000000D01*
G75*
G02*
X110825000Y-104875000I0J125000D01*
G01*
X110825000Y-104625000D01*
G75*
G02*
X110950000Y-104500000I125000J0D01*
G01*
X112375000Y-104500000D01*
G75*
G02*
X112500000Y-104625000I0J-125000D01*
G01*
X112500000Y-104875000D01*
G75*
G02*
X112375000Y-105000000I-125000J0D01*
G01*
G37*
G36*
G01*
X112375000Y-104500000D02*
X110950000Y-104500000D01*
G75*
G02*
X110825000Y-104375000I0J125000D01*
G01*
X110825000Y-104125000D01*
G75*
G02*
X110950000Y-104000000I125000J0D01*
G01*
X112375000Y-104000000D01*
G75*
G02*
X112500000Y-104125000I0J-125000D01*
G01*
X112500000Y-104375000D01*
G75*
G02*
X112375000Y-104500000I-125000J0D01*
G01*
G37*
G36*
G01*
X112375000Y-104000000D02*
X110950000Y-104000000D01*
G75*
G02*
X110825000Y-103875000I0J125000D01*
G01*
X110825000Y-103625000D01*
G75*
G02*
X110950000Y-103500000I125000J0D01*
G01*
X112375000Y-103500000D01*
G75*
G02*
X112500000Y-103625000I0J-125000D01*
G01*
X112500000Y-103875000D01*
G75*
G02*
X112375000Y-104000000I-125000J0D01*
G01*
G37*
G36*
G01*
X112375000Y-103500000D02*
X110950000Y-103500000D01*
G75*
G02*
X110825000Y-103375000I0J125000D01*
G01*
X110825000Y-103125000D01*
G75*
G02*
X110950000Y-103000000I125000J0D01*
G01*
X112375000Y-103000000D01*
G75*
G02*
X112500000Y-103125000I0J-125000D01*
G01*
X112500000Y-103375000D01*
G75*
G02*
X112375000Y-103500000I-125000J0D01*
G01*
G37*
G36*
G01*
X112375000Y-103000000D02*
X110950000Y-103000000D01*
G75*
G02*
X110825000Y-102875000I0J125000D01*
G01*
X110825000Y-102625000D01*
G75*
G02*
X110950000Y-102500000I125000J0D01*
G01*
X112375000Y-102500000D01*
G75*
G02*
X112500000Y-102625000I0J-125000D01*
G01*
X112500000Y-102875000D01*
G75*
G02*
X112375000Y-103000000I-125000J0D01*
G01*
G37*
G36*
G01*
X112375000Y-102500000D02*
X110950000Y-102500000D01*
G75*
G02*
X110825000Y-102375000I0J125000D01*
G01*
X110825000Y-102125000D01*
G75*
G02*
X110950000Y-102000000I125000J0D01*
G01*
X112375000Y-102000000D01*
G75*
G02*
X112500000Y-102125000I0J-125000D01*
G01*
X112500000Y-102375000D01*
G75*
G02*
X112375000Y-102500000I-125000J0D01*
G01*
G37*
G36*
G01*
X112375000Y-102000000D02*
X110950000Y-102000000D01*
G75*
G02*
X110825000Y-101875000I0J125000D01*
G01*
X110825000Y-101625000D01*
G75*
G02*
X110950000Y-101500000I125000J0D01*
G01*
X112375000Y-101500000D01*
G75*
G02*
X112500000Y-101625000I0J-125000D01*
G01*
X112500000Y-101875000D01*
G75*
G02*
X112375000Y-102000000I-125000J0D01*
G01*
G37*
G36*
G01*
X112375000Y-101500000D02*
X110950000Y-101500000D01*
G75*
G02*
X110825000Y-101375000I0J125000D01*
G01*
X110825000Y-101125000D01*
G75*
G02*
X110950000Y-101000000I125000J0D01*
G01*
X112375000Y-101000000D01*
G75*
G02*
X112500000Y-101125000I0J-125000D01*
G01*
X112500000Y-101375000D01*
G75*
G02*
X112375000Y-101500000I-125000J0D01*
G01*
G37*
G36*
G01*
X112375000Y-101000000D02*
X110950000Y-101000000D01*
G75*
G02*
X110825000Y-100875000I0J125000D01*
G01*
X110825000Y-100625000D01*
G75*
G02*
X110950000Y-100500000I125000J0D01*
G01*
X112375000Y-100500000D01*
G75*
G02*
X112500000Y-100625000I0J-125000D01*
G01*
X112500000Y-100875000D01*
G75*
G02*
X112375000Y-101000000I-125000J0D01*
G01*
G37*
G36*
G01*
X112375000Y-100500000D02*
X110950000Y-100500000D01*
G75*
G02*
X110825000Y-100375000I0J125000D01*
G01*
X110825000Y-100125000D01*
G75*
G02*
X110950000Y-100000000I125000J0D01*
G01*
X112375000Y-100000000D01*
G75*
G02*
X112500000Y-100125000I0J-125000D01*
G01*
X112500000Y-100375000D01*
G75*
G02*
X112375000Y-100500000I-125000J0D01*
G01*
G37*
G36*
G01*
X112375000Y-100000000D02*
X110950000Y-100000000D01*
G75*
G02*
X110825000Y-99875000I0J125000D01*
G01*
X110825000Y-99625000D01*
G75*
G02*
X110950000Y-99500000I125000J0D01*
G01*
X112375000Y-99500000D01*
G75*
G02*
X112500000Y-99625000I0J-125000D01*
G01*
X112500000Y-99875000D01*
G75*
G02*
X112375000Y-100000000I-125000J0D01*
G01*
G37*
G36*
G01*
X110375000Y-99175000D02*
X110125000Y-99175000D01*
G75*
G02*
X110000000Y-99050000I0J125000D01*
G01*
X110000000Y-97625000D01*
G75*
G02*
X110125000Y-97500000I125000J0D01*
G01*
X110375000Y-97500000D01*
G75*
G02*
X110500000Y-97625000I0J-125000D01*
G01*
X110500000Y-99050000D01*
G75*
G02*
X110375000Y-99175000I-125000J0D01*
G01*
G37*
G36*
G01*
X109875000Y-99175000D02*
X109625000Y-99175000D01*
G75*
G02*
X109500000Y-99050000I0J125000D01*
G01*
X109500000Y-97625000D01*
G75*
G02*
X109625000Y-97500000I125000J0D01*
G01*
X109875000Y-97500000D01*
G75*
G02*
X110000000Y-97625000I0J-125000D01*
G01*
X110000000Y-99050000D01*
G75*
G02*
X109875000Y-99175000I-125000J0D01*
G01*
G37*
G36*
G01*
X109375000Y-99175000D02*
X109125000Y-99175000D01*
G75*
G02*
X109000000Y-99050000I0J125000D01*
G01*
X109000000Y-97625000D01*
G75*
G02*
X109125000Y-97500000I125000J0D01*
G01*
X109375000Y-97500000D01*
G75*
G02*
X109500000Y-97625000I0J-125000D01*
G01*
X109500000Y-99050000D01*
G75*
G02*
X109375000Y-99175000I-125000J0D01*
G01*
G37*
G36*
G01*
X108875000Y-99175000D02*
X108625000Y-99175000D01*
G75*
G02*
X108500000Y-99050000I0J125000D01*
G01*
X108500000Y-97625000D01*
G75*
G02*
X108625000Y-97500000I125000J0D01*
G01*
X108875000Y-97500000D01*
G75*
G02*
X109000000Y-97625000I0J-125000D01*
G01*
X109000000Y-99050000D01*
G75*
G02*
X108875000Y-99175000I-125000J0D01*
G01*
G37*
G36*
G01*
X108375000Y-99175000D02*
X108125000Y-99175000D01*
G75*
G02*
X108000000Y-99050000I0J125000D01*
G01*
X108000000Y-97625000D01*
G75*
G02*
X108125000Y-97500000I125000J0D01*
G01*
X108375000Y-97500000D01*
G75*
G02*
X108500000Y-97625000I0J-125000D01*
G01*
X108500000Y-99050000D01*
G75*
G02*
X108375000Y-99175000I-125000J0D01*
G01*
G37*
G36*
G01*
X107875000Y-99175000D02*
X107625000Y-99175000D01*
G75*
G02*
X107500000Y-99050000I0J125000D01*
G01*
X107500000Y-97625000D01*
G75*
G02*
X107625000Y-97500000I125000J0D01*
G01*
X107875000Y-97500000D01*
G75*
G02*
X108000000Y-97625000I0J-125000D01*
G01*
X108000000Y-99050000D01*
G75*
G02*
X107875000Y-99175000I-125000J0D01*
G01*
G37*
G36*
G01*
X107375000Y-99175000D02*
X107125000Y-99175000D01*
G75*
G02*
X107000000Y-99050000I0J125000D01*
G01*
X107000000Y-97625000D01*
G75*
G02*
X107125000Y-97500000I125000J0D01*
G01*
X107375000Y-97500000D01*
G75*
G02*
X107500000Y-97625000I0J-125000D01*
G01*
X107500000Y-99050000D01*
G75*
G02*
X107375000Y-99175000I-125000J0D01*
G01*
G37*
G36*
G01*
X106875000Y-99175000D02*
X106625000Y-99175000D01*
G75*
G02*
X106500000Y-99050000I0J125000D01*
G01*
X106500000Y-97625000D01*
G75*
G02*
X106625000Y-97500000I125000J0D01*
G01*
X106875000Y-97500000D01*
G75*
G02*
X107000000Y-97625000I0J-125000D01*
G01*
X107000000Y-99050000D01*
G75*
G02*
X106875000Y-99175000I-125000J0D01*
G01*
G37*
G36*
G01*
X106375000Y-99175000D02*
X106125000Y-99175000D01*
G75*
G02*
X106000000Y-99050000I0J125000D01*
G01*
X106000000Y-97625000D01*
G75*
G02*
X106125000Y-97500000I125000J0D01*
G01*
X106375000Y-97500000D01*
G75*
G02*
X106500000Y-97625000I0J-125000D01*
G01*
X106500000Y-99050000D01*
G75*
G02*
X106375000Y-99175000I-125000J0D01*
G01*
G37*
G36*
G01*
X105875000Y-99175000D02*
X105625000Y-99175000D01*
G75*
G02*
X105500000Y-99050000I0J125000D01*
G01*
X105500000Y-97625000D01*
G75*
G02*
X105625000Y-97500000I125000J0D01*
G01*
X105875000Y-97500000D01*
G75*
G02*
X106000000Y-97625000I0J-125000D01*
G01*
X106000000Y-99050000D01*
G75*
G02*
X105875000Y-99175000I-125000J0D01*
G01*
G37*
G36*
G01*
X105375000Y-99175000D02*
X105125000Y-99175000D01*
G75*
G02*
X105000000Y-99050000I0J125000D01*
G01*
X105000000Y-97625000D01*
G75*
G02*
X105125000Y-97500000I125000J0D01*
G01*
X105375000Y-97500000D01*
G75*
G02*
X105500000Y-97625000I0J-125000D01*
G01*
X105500000Y-99050000D01*
G75*
G02*
X105375000Y-99175000I-125000J0D01*
G01*
G37*
G36*
G01*
X104875000Y-99175000D02*
X104625000Y-99175000D01*
G75*
G02*
X104500000Y-99050000I0J125000D01*
G01*
X104500000Y-97625000D01*
G75*
G02*
X104625000Y-97500000I125000J0D01*
G01*
X104875000Y-97500000D01*
G75*
G02*
X105000000Y-97625000I0J-125000D01*
G01*
X105000000Y-99050000D01*
G75*
G02*
X104875000Y-99175000I-125000J0D01*
G01*
G37*
G36*
G01*
X104050000Y-100000000D02*
X102625000Y-100000000D01*
G75*
G02*
X102500000Y-99875000I0J125000D01*
G01*
X102500000Y-99625000D01*
G75*
G02*
X102625000Y-99500000I125000J0D01*
G01*
X104050000Y-99500000D01*
G75*
G02*
X104175000Y-99625000I0J-125000D01*
G01*
X104175000Y-99875000D01*
G75*
G02*
X104050000Y-100000000I-125000J0D01*
G01*
G37*
G36*
G01*
X104050000Y-100500000D02*
X102625000Y-100500000D01*
G75*
G02*
X102500000Y-100375000I0J125000D01*
G01*
X102500000Y-100125000D01*
G75*
G02*
X102625000Y-100000000I125000J0D01*
G01*
X104050000Y-100000000D01*
G75*
G02*
X104175000Y-100125000I0J-125000D01*
G01*
X104175000Y-100375000D01*
G75*
G02*
X104050000Y-100500000I-125000J0D01*
G01*
G37*
G36*
G01*
X104050000Y-101000000D02*
X102625000Y-101000000D01*
G75*
G02*
X102500000Y-100875000I0J125000D01*
G01*
X102500000Y-100625000D01*
G75*
G02*
X102625000Y-100500000I125000J0D01*
G01*
X104050000Y-100500000D01*
G75*
G02*
X104175000Y-100625000I0J-125000D01*
G01*
X104175000Y-100875000D01*
G75*
G02*
X104050000Y-101000000I-125000J0D01*
G01*
G37*
G36*
G01*
X104050000Y-101500000D02*
X102625000Y-101500000D01*
G75*
G02*
X102500000Y-101375000I0J125000D01*
G01*
X102500000Y-101125000D01*
G75*
G02*
X102625000Y-101000000I125000J0D01*
G01*
X104050000Y-101000000D01*
G75*
G02*
X104175000Y-101125000I0J-125000D01*
G01*
X104175000Y-101375000D01*
G75*
G02*
X104050000Y-101500000I-125000J0D01*
G01*
G37*
G36*
G01*
X104050000Y-102000000D02*
X102625000Y-102000000D01*
G75*
G02*
X102500000Y-101875000I0J125000D01*
G01*
X102500000Y-101625000D01*
G75*
G02*
X102625000Y-101500000I125000J0D01*
G01*
X104050000Y-101500000D01*
G75*
G02*
X104175000Y-101625000I0J-125000D01*
G01*
X104175000Y-101875000D01*
G75*
G02*
X104050000Y-102000000I-125000J0D01*
G01*
G37*
G36*
G01*
X104050000Y-102500000D02*
X102625000Y-102500000D01*
G75*
G02*
X102500000Y-102375000I0J125000D01*
G01*
X102500000Y-102125000D01*
G75*
G02*
X102625000Y-102000000I125000J0D01*
G01*
X104050000Y-102000000D01*
G75*
G02*
X104175000Y-102125000I0J-125000D01*
G01*
X104175000Y-102375000D01*
G75*
G02*
X104050000Y-102500000I-125000J0D01*
G01*
G37*
G36*
G01*
X104050000Y-103000000D02*
X102625000Y-103000000D01*
G75*
G02*
X102500000Y-102875000I0J125000D01*
G01*
X102500000Y-102625000D01*
G75*
G02*
X102625000Y-102500000I125000J0D01*
G01*
X104050000Y-102500000D01*
G75*
G02*
X104175000Y-102625000I0J-125000D01*
G01*
X104175000Y-102875000D01*
G75*
G02*
X104050000Y-103000000I-125000J0D01*
G01*
G37*
G36*
G01*
X104050000Y-103500000D02*
X102625000Y-103500000D01*
G75*
G02*
X102500000Y-103375000I0J125000D01*
G01*
X102500000Y-103125000D01*
G75*
G02*
X102625000Y-103000000I125000J0D01*
G01*
X104050000Y-103000000D01*
G75*
G02*
X104175000Y-103125000I0J-125000D01*
G01*
X104175000Y-103375000D01*
G75*
G02*
X104050000Y-103500000I-125000J0D01*
G01*
G37*
G36*
G01*
X104050000Y-104000000D02*
X102625000Y-104000000D01*
G75*
G02*
X102500000Y-103875000I0J125000D01*
G01*
X102500000Y-103625000D01*
G75*
G02*
X102625000Y-103500000I125000J0D01*
G01*
X104050000Y-103500000D01*
G75*
G02*
X104175000Y-103625000I0J-125000D01*
G01*
X104175000Y-103875000D01*
G75*
G02*
X104050000Y-104000000I-125000J0D01*
G01*
G37*
G36*
G01*
X104050000Y-104500000D02*
X102625000Y-104500000D01*
G75*
G02*
X102500000Y-104375000I0J125000D01*
G01*
X102500000Y-104125000D01*
G75*
G02*
X102625000Y-104000000I125000J0D01*
G01*
X104050000Y-104000000D01*
G75*
G02*
X104175000Y-104125000I0J-125000D01*
G01*
X104175000Y-104375000D01*
G75*
G02*
X104050000Y-104500000I-125000J0D01*
G01*
G37*
G36*
G01*
X104050000Y-105000000D02*
X102625000Y-105000000D01*
G75*
G02*
X102500000Y-104875000I0J125000D01*
G01*
X102500000Y-104625000D01*
G75*
G02*
X102625000Y-104500000I125000J0D01*
G01*
X104050000Y-104500000D01*
G75*
G02*
X104175000Y-104625000I0J-125000D01*
G01*
X104175000Y-104875000D01*
G75*
G02*
X104050000Y-105000000I-125000J0D01*
G01*
G37*
G36*
G01*
X104050000Y-105500000D02*
X102625000Y-105500000D01*
G75*
G02*
X102500000Y-105375000I0J125000D01*
G01*
X102500000Y-105125000D01*
G75*
G02*
X102625000Y-105000000I125000J0D01*
G01*
X104050000Y-105000000D01*
G75*
G02*
X104175000Y-105125000I0J-125000D01*
G01*
X104175000Y-105375000D01*
G75*
G02*
X104050000Y-105500000I-125000J0D01*
G01*
G37*
%TD*%
D17*
%TO.C,U1*%
X139050000Y-94300000D03*
X140950000Y-94300000D03*
X140950000Y-96500000D03*
X140000000Y-96500000D03*
X139050000Y-96500000D03*
%TD*%
D15*
%TO.C,TP9*%
X105250000Y-94750000D03*
%TD*%
%TO.C,TP8*%
X108250000Y-95750000D03*
%TD*%
%TO.C,TP7*%
X110000000Y-95750000D03*
%TD*%
%TO.C,TP6*%
X109250000Y-110750000D03*
%TD*%
%TO.C,TP5*%
X133100000Y-94600000D03*
%TD*%
%TO.C,TP4*%
X118300000Y-106100000D03*
%TD*%
D18*
%TO.C,TP3*%
X84300000Y-95900000D03*
%TD*%
%TO.C,TP2*%
X135700000Y-109800000D03*
%TD*%
D15*
%TO.C,TP1*%
X149200000Y-93400000D03*
%TD*%
D11*
%TO.C,SW6*%
X114500000Y-106000000D03*
D12*
X114500000Y-98380000D03*
D11*
X119580000Y-100920000D03*
D12*
X122120000Y-103460000D03*
%TD*%
D19*
%TO.C,SW4*%
X84500000Y-105000000D03*
X84500000Y-100000000D03*
D20*
X91500000Y-108100000D03*
X91500000Y-96900000D03*
D19*
X99000000Y-105000000D03*
X99000000Y-102500000D03*
D21*
X99000000Y-100000000D03*
%TD*%
D11*
%TO.C,SW3*%
X144500000Y-106000000D03*
D12*
X144500000Y-98380000D03*
D11*
X149580000Y-100920000D03*
D12*
X152120000Y-103460000D03*
%TD*%
D11*
%TO.C,SW2*%
X159500000Y-106000000D03*
D12*
X159500000Y-98380000D03*
D11*
X164580000Y-100920000D03*
D12*
X167120000Y-103460000D03*
%TD*%
D22*
%TO.C,SW1*%
X85100000Y-102500000D03*
X90700000Y-100000000D03*
X90700000Y-105000000D03*
%TD*%
%TO.C,SB4*%
G36*
G01*
X149650000Y-97812500D02*
X149650000Y-98387500D01*
G75*
G02*
X149362500Y-98675000I-287500J0D01*
G01*
X148687500Y-98675000D01*
G75*
G02*
X148400000Y-98387500I0J287500D01*
G01*
X148400000Y-97812500D01*
G75*
G02*
X148687500Y-97525000I287500J0D01*
G01*
X149362500Y-97525000D01*
G75*
G02*
X149650000Y-97812500I0J-287500D01*
G01*
G37*
G36*
G01*
X151400000Y-97812500D02*
X151400000Y-98387500D01*
G75*
G02*
X151112500Y-98675000I-287500J0D01*
G01*
X150437500Y-98675000D01*
G75*
G02*
X150150000Y-98387500I0J287500D01*
G01*
X150150000Y-97812500D01*
G75*
G02*
X150437500Y-97525000I287500J0D01*
G01*
X151112500Y-97525000D01*
G75*
G02*
X151400000Y-97812500I0J-287500D01*
G01*
G37*
%TD*%
%TO.C,SB3*%
G36*
G01*
X149650000Y-96212500D02*
X149650000Y-96787500D01*
G75*
G02*
X149362500Y-97075000I-287500J0D01*
G01*
X148687500Y-97075000D01*
G75*
G02*
X148400000Y-96787500I0J287500D01*
G01*
X148400000Y-96212500D01*
G75*
G02*
X148687500Y-95925000I287500J0D01*
G01*
X149362500Y-95925000D01*
G75*
G02*
X149650000Y-96212500I0J-287500D01*
G01*
G37*
G36*
G01*
X151400000Y-96212500D02*
X151400000Y-96787500D01*
G75*
G02*
X151112500Y-97075000I-287500J0D01*
G01*
X150437500Y-97075000D01*
G75*
G02*
X150150000Y-96787500I0J287500D01*
G01*
X150150000Y-96212500D01*
G75*
G02*
X150437500Y-95925000I287500J0D01*
G01*
X151112500Y-95925000D01*
G75*
G02*
X151400000Y-96212500I0J-287500D01*
G01*
G37*
%TD*%
%TO.C,SB1*%
G36*
G01*
X142712500Y-95750000D02*
X143287500Y-95750000D01*
G75*
G02*
X143575000Y-96037500I0J-287500D01*
G01*
X143575000Y-96712500D01*
G75*
G02*
X143287500Y-97000000I-287500J0D01*
G01*
X142712500Y-97000000D01*
G75*
G02*
X142425000Y-96712500I0J287500D01*
G01*
X142425000Y-96037500D01*
G75*
G02*
X142712500Y-95750000I287500J0D01*
G01*
G37*
G36*
G01*
X142712500Y-94000000D02*
X143287500Y-94000000D01*
G75*
G02*
X143575000Y-94287500I0J-287500D01*
G01*
X143575000Y-94962500D01*
G75*
G02*
X143287500Y-95250000I-287500J0D01*
G01*
X142712500Y-95250000D01*
G75*
G02*
X142425000Y-94962500I0J287500D01*
G01*
X142425000Y-94287500D01*
G75*
G02*
X142712500Y-94000000I287500J0D01*
G01*
G37*
%TD*%
%TO.C,R18*%
G36*
G01*
X115250000Y-99712500D02*
X115250000Y-100287500D01*
G75*
G02*
X114962500Y-100575000I-287500J0D01*
G01*
X114287500Y-100575000D01*
G75*
G02*
X114000000Y-100287500I0J287500D01*
G01*
X114000000Y-99712500D01*
G75*
G02*
X114287500Y-99425000I287500J0D01*
G01*
X114962500Y-99425000D01*
G75*
G02*
X115250000Y-99712500I0J-287500D01*
G01*
G37*
G36*
G01*
X117000000Y-99712500D02*
X117000000Y-100287500D01*
G75*
G02*
X116712500Y-100575000I-287500J0D01*
G01*
X116037500Y-100575000D01*
G75*
G02*
X115750000Y-100287500I0J287500D01*
G01*
X115750000Y-99712500D01*
G75*
G02*
X116037500Y-99425000I287500J0D01*
G01*
X116712500Y-99425000D01*
G75*
G02*
X117000000Y-99712500I0J-287500D01*
G01*
G37*
%TD*%
%TO.C,R17*%
G36*
G01*
X86950000Y-107712500D02*
X86950000Y-108287500D01*
G75*
G02*
X86662500Y-108575000I-287500J0D01*
G01*
X85987500Y-108575000D01*
G75*
G02*
X85700000Y-108287500I0J287500D01*
G01*
X85700000Y-107712500D01*
G75*
G02*
X85987500Y-107425000I287500J0D01*
G01*
X86662500Y-107425000D01*
G75*
G02*
X86950000Y-107712500I0J-287500D01*
G01*
G37*
G36*
G01*
X88700000Y-107712500D02*
X88700000Y-108287500D01*
G75*
G02*
X88412500Y-108575000I-287500J0D01*
G01*
X87737500Y-108575000D01*
G75*
G02*
X87450000Y-108287500I0J287500D01*
G01*
X87450000Y-107712500D01*
G75*
G02*
X87737500Y-107425000I287500J0D01*
G01*
X88412500Y-107425000D01*
G75*
G02*
X88700000Y-107712500I0J-287500D01*
G01*
G37*
%TD*%
%TO.C,R16*%
G36*
G01*
X162350000Y-91487500D02*
X162350000Y-90912500D01*
G75*
G02*
X162637500Y-90625000I287500J0D01*
G01*
X163312500Y-90625000D01*
G75*
G02*
X163600000Y-90912500I0J-287500D01*
G01*
X163600000Y-91487500D01*
G75*
G02*
X163312500Y-91775000I-287500J0D01*
G01*
X162637500Y-91775000D01*
G75*
G02*
X162350000Y-91487500I0J287500D01*
G01*
G37*
G36*
G01*
X160600000Y-91487500D02*
X160600000Y-90912500D01*
G75*
G02*
X160887500Y-90625000I287500J0D01*
G01*
X161562500Y-90625000D01*
G75*
G02*
X161850000Y-90912500I0J-287500D01*
G01*
X161850000Y-91487500D01*
G75*
G02*
X161562500Y-91775000I-287500J0D01*
G01*
X160887500Y-91775000D01*
G75*
G02*
X160600000Y-91487500I0J287500D01*
G01*
G37*
%TD*%
%TO.C,R15*%
G36*
G01*
X129250000Y-100962500D02*
X129250000Y-101537500D01*
G75*
G02*
X128962500Y-101825000I-287500J0D01*
G01*
X128287500Y-101825000D01*
G75*
G02*
X128000000Y-101537500I0J287500D01*
G01*
X128000000Y-100962500D01*
G75*
G02*
X128287500Y-100675000I287500J0D01*
G01*
X128962500Y-100675000D01*
G75*
G02*
X129250000Y-100962500I0J-287500D01*
G01*
G37*
G36*
G01*
X131000000Y-100962500D02*
X131000000Y-101537500D01*
G75*
G02*
X130712500Y-101825000I-287500J0D01*
G01*
X130037500Y-101825000D01*
G75*
G02*
X129750000Y-101537500I0J287500D01*
G01*
X129750000Y-100962500D01*
G75*
G02*
X130037500Y-100675000I287500J0D01*
G01*
X130712500Y-100675000D01*
G75*
G02*
X131000000Y-100962500I0J-287500D01*
G01*
G37*
%TD*%
%TO.C,R14*%
G36*
G01*
X96037500Y-106500000D02*
X95462500Y-106500000D01*
G75*
G02*
X95175000Y-106212500I0J287500D01*
G01*
X95175000Y-105537500D01*
G75*
G02*
X95462500Y-105250000I287500J0D01*
G01*
X96037500Y-105250000D01*
G75*
G02*
X96325000Y-105537500I0J-287500D01*
G01*
X96325000Y-106212500D01*
G75*
G02*
X96037500Y-106500000I-287500J0D01*
G01*
G37*
G36*
G01*
X96037500Y-108250000D02*
X95462500Y-108250000D01*
G75*
G02*
X95175000Y-107962500I0J287500D01*
G01*
X95175000Y-107287500D01*
G75*
G02*
X95462500Y-107000000I287500J0D01*
G01*
X96037500Y-107000000D01*
G75*
G02*
X96325000Y-107287500I0J-287500D01*
G01*
X96325000Y-107962500D01*
G75*
G02*
X96037500Y-108250000I-287500J0D01*
G01*
G37*
%TD*%
%TO.C,R13*%
G36*
G01*
X144500000Y-100962500D02*
X144500000Y-101537500D01*
G75*
G02*
X144212500Y-101825000I-287500J0D01*
G01*
X143537500Y-101825000D01*
G75*
G02*
X143250000Y-101537500I0J287500D01*
G01*
X143250000Y-100962500D01*
G75*
G02*
X143537500Y-100675000I287500J0D01*
G01*
X144212500Y-100675000D01*
G75*
G02*
X144500000Y-100962500I0J-287500D01*
G01*
G37*
G36*
G01*
X146250000Y-100962500D02*
X146250000Y-101537500D01*
G75*
G02*
X145962500Y-101825000I-287500J0D01*
G01*
X145287500Y-101825000D01*
G75*
G02*
X145000000Y-101537500I0J287500D01*
G01*
X145000000Y-100962500D01*
G75*
G02*
X145287500Y-100675000I287500J0D01*
G01*
X145962500Y-100675000D01*
G75*
G02*
X146250000Y-100962500I0J-287500D01*
G01*
G37*
%TD*%
%TO.C,R12*%
G36*
G01*
X95462500Y-103500000D02*
X96037500Y-103500000D01*
G75*
G02*
X96325000Y-103787500I0J-287500D01*
G01*
X96325000Y-104462500D01*
G75*
G02*
X96037500Y-104750000I-287500J0D01*
G01*
X95462500Y-104750000D01*
G75*
G02*
X95175000Y-104462500I0J287500D01*
G01*
X95175000Y-103787500D01*
G75*
G02*
X95462500Y-103500000I287500J0D01*
G01*
G37*
G36*
G01*
X95462500Y-101750000D02*
X96037500Y-101750000D01*
G75*
G02*
X96325000Y-102037500I0J-287500D01*
G01*
X96325000Y-102712500D01*
G75*
G02*
X96037500Y-103000000I-287500J0D01*
G01*
X95462500Y-103000000D01*
G75*
G02*
X95175000Y-102712500I0J287500D01*
G01*
X95175000Y-102037500D01*
G75*
G02*
X95462500Y-101750000I287500J0D01*
G01*
G37*
%TD*%
%TO.C,R11*%
G36*
G01*
X91462500Y-102750000D02*
X92037500Y-102750000D01*
G75*
G02*
X92325000Y-103037500I0J-287500D01*
G01*
X92325000Y-103712500D01*
G75*
G02*
X92037500Y-104000000I-287500J0D01*
G01*
X91462500Y-104000000D01*
G75*
G02*
X91175000Y-103712500I0J287500D01*
G01*
X91175000Y-103037500D01*
G75*
G02*
X91462500Y-102750000I287500J0D01*
G01*
G37*
G36*
G01*
X91462500Y-101000000D02*
X92037500Y-101000000D01*
G75*
G02*
X92325000Y-101287500I0J-287500D01*
G01*
X92325000Y-101962500D01*
G75*
G02*
X92037500Y-102250000I-287500J0D01*
G01*
X91462500Y-102250000D01*
G75*
G02*
X91175000Y-101962500I0J287500D01*
G01*
X91175000Y-101287500D01*
G75*
G02*
X91462500Y-101000000I287500J0D01*
G01*
G37*
%TD*%
%TO.C,R10*%
G36*
G01*
X93212500Y-102750000D02*
X93787500Y-102750000D01*
G75*
G02*
X94075000Y-103037500I0J-287500D01*
G01*
X94075000Y-103712500D01*
G75*
G02*
X93787500Y-104000000I-287500J0D01*
G01*
X93212500Y-104000000D01*
G75*
G02*
X92925000Y-103712500I0J287500D01*
G01*
X92925000Y-103037500D01*
G75*
G02*
X93212500Y-102750000I287500J0D01*
G01*
G37*
G36*
G01*
X93212500Y-101000000D02*
X93787500Y-101000000D01*
G75*
G02*
X94075000Y-101287500I0J-287500D01*
G01*
X94075000Y-101962500D01*
G75*
G02*
X93787500Y-102250000I-287500J0D01*
G01*
X93212500Y-102250000D01*
G75*
G02*
X92925000Y-101962500I0J287500D01*
G01*
X92925000Y-101287500D01*
G75*
G02*
X93212500Y-101000000I287500J0D01*
G01*
G37*
%TD*%
%TO.C,R9*%
G36*
G01*
X153712500Y-97700000D02*
X154287500Y-97700000D01*
G75*
G02*
X154575000Y-97987500I0J-287500D01*
G01*
X154575000Y-98662500D01*
G75*
G02*
X154287500Y-98950000I-287500J0D01*
G01*
X153712500Y-98950000D01*
G75*
G02*
X153425000Y-98662500I0J287500D01*
G01*
X153425000Y-97987500D01*
G75*
G02*
X153712500Y-97700000I287500J0D01*
G01*
G37*
G36*
G01*
X153712500Y-95950000D02*
X154287500Y-95950000D01*
G75*
G02*
X154575000Y-96237500I0J-287500D01*
G01*
X154575000Y-96912500D01*
G75*
G02*
X154287500Y-97200000I-287500J0D01*
G01*
X153712500Y-97200000D01*
G75*
G02*
X153425000Y-96912500I0J287500D01*
G01*
X153425000Y-96237500D01*
G75*
G02*
X153712500Y-95950000I287500J0D01*
G01*
G37*
%TD*%
%TO.C,R8*%
G36*
G01*
X161000000Y-100287500D02*
X161000000Y-99712500D01*
G75*
G02*
X161287500Y-99425000I287500J0D01*
G01*
X161962500Y-99425000D01*
G75*
G02*
X162250000Y-99712500I0J-287500D01*
G01*
X162250000Y-100287500D01*
G75*
G02*
X161962500Y-100575000I-287500J0D01*
G01*
X161287500Y-100575000D01*
G75*
G02*
X161000000Y-100287500I0J287500D01*
G01*
G37*
G36*
G01*
X159250000Y-100287500D02*
X159250000Y-99712500D01*
G75*
G02*
X159537500Y-99425000I287500J0D01*
G01*
X160212500Y-99425000D01*
G75*
G02*
X160500000Y-99712500I0J-287500D01*
G01*
X160500000Y-100287500D01*
G75*
G02*
X160212500Y-100575000I-287500J0D01*
G01*
X159537500Y-100575000D01*
G75*
G02*
X159250000Y-100287500I0J287500D01*
G01*
G37*
%TD*%
%TO.C,R7*%
G36*
G01*
X99250000Y-94537500D02*
X99250000Y-93962500D01*
G75*
G02*
X99537500Y-93675000I287500J0D01*
G01*
X100212500Y-93675000D01*
G75*
G02*
X100500000Y-93962500I0J-287500D01*
G01*
X100500000Y-94537500D01*
G75*
G02*
X100212500Y-94825000I-287500J0D01*
G01*
X99537500Y-94825000D01*
G75*
G02*
X99250000Y-94537500I0J287500D01*
G01*
G37*
G36*
G01*
X97500000Y-94537500D02*
X97500000Y-93962500D01*
G75*
G02*
X97787500Y-93675000I287500J0D01*
G01*
X98462500Y-93675000D01*
G75*
G02*
X98750000Y-93962500I0J-287500D01*
G01*
X98750000Y-94537500D01*
G75*
G02*
X98462500Y-94825000I-287500J0D01*
G01*
X97787500Y-94825000D01*
G75*
G02*
X97500000Y-94537500I0J287500D01*
G01*
G37*
%TD*%
%TO.C,R6*%
G36*
G01*
X102750000Y-94537500D02*
X102750000Y-93962500D01*
G75*
G02*
X103037500Y-93675000I287500J0D01*
G01*
X103712500Y-93675000D01*
G75*
G02*
X104000000Y-93962500I0J-287500D01*
G01*
X104000000Y-94537500D01*
G75*
G02*
X103712500Y-94825000I-287500J0D01*
G01*
X103037500Y-94825000D01*
G75*
G02*
X102750000Y-94537500I0J287500D01*
G01*
G37*
G36*
G01*
X101000000Y-94537500D02*
X101000000Y-93962500D01*
G75*
G02*
X101287500Y-93675000I287500J0D01*
G01*
X101962500Y-93675000D01*
G75*
G02*
X102250000Y-93962500I0J-287500D01*
G01*
X102250000Y-94537500D01*
G75*
G02*
X101962500Y-94825000I-287500J0D01*
G01*
X101287500Y-94825000D01*
G75*
G02*
X101000000Y-94537500I0J287500D01*
G01*
G37*
%TD*%
%TO.C,R5*%
G36*
G01*
X114750000Y-109287500D02*
X114750000Y-108712500D01*
G75*
G02*
X115037500Y-108425000I287500J0D01*
G01*
X115712500Y-108425000D01*
G75*
G02*
X116000000Y-108712500I0J-287500D01*
G01*
X116000000Y-109287500D01*
G75*
G02*
X115712500Y-109575000I-287500J0D01*
G01*
X115037500Y-109575000D01*
G75*
G02*
X114750000Y-109287500I0J287500D01*
G01*
G37*
G36*
G01*
X113000000Y-109287500D02*
X113000000Y-108712500D01*
G75*
G02*
X113287500Y-108425000I287500J0D01*
G01*
X113962500Y-108425000D01*
G75*
G02*
X114250000Y-108712500I0J-287500D01*
G01*
X114250000Y-109287500D01*
G75*
G02*
X113962500Y-109575000I-287500J0D01*
G01*
X113287500Y-109575000D01*
G75*
G02*
X113000000Y-109287500I0J287500D01*
G01*
G37*
%TD*%
%TO.C,R4*%
G36*
G01*
X124487500Y-107750000D02*
X123912500Y-107750000D01*
G75*
G02*
X123625000Y-107462500I0J287500D01*
G01*
X123625000Y-106787500D01*
G75*
G02*
X123912500Y-106500000I287500J0D01*
G01*
X124487500Y-106500000D01*
G75*
G02*
X124775000Y-106787500I0J-287500D01*
G01*
X124775000Y-107462500D01*
G75*
G02*
X124487500Y-107750000I-287500J0D01*
G01*
G37*
G36*
G01*
X124487500Y-109500000D02*
X123912500Y-109500000D01*
G75*
G02*
X123625000Y-109212500I0J287500D01*
G01*
X123625000Y-108537500D01*
G75*
G02*
X123912500Y-108250000I287500J0D01*
G01*
X124487500Y-108250000D01*
G75*
G02*
X124775000Y-108537500I0J-287500D01*
G01*
X124775000Y-109212500D01*
G75*
G02*
X124487500Y-109500000I-287500J0D01*
G01*
G37*
%TD*%
%TO.C,R3*%
G36*
G01*
X122537500Y-93900000D02*
X121962500Y-93900000D01*
G75*
G02*
X121675000Y-93612500I0J287500D01*
G01*
X121675000Y-92937500D01*
G75*
G02*
X121962500Y-92650000I287500J0D01*
G01*
X122537500Y-92650000D01*
G75*
G02*
X122825000Y-92937500I0J-287500D01*
G01*
X122825000Y-93612500D01*
G75*
G02*
X122537500Y-93900000I-287500J0D01*
G01*
G37*
G36*
G01*
X122537500Y-95650000D02*
X121962500Y-95650000D01*
G75*
G02*
X121675000Y-95362500I0J287500D01*
G01*
X121675000Y-94687500D01*
G75*
G02*
X121962500Y-94400000I287500J0D01*
G01*
X122537500Y-94400000D01*
G75*
G02*
X122825000Y-94687500I0J-287500D01*
G01*
X122825000Y-95362500D01*
G75*
G02*
X122537500Y-95650000I-287500J0D01*
G01*
G37*
%TD*%
%TO.C,R2*%
G36*
G01*
X91250000Y-110462500D02*
X91250000Y-111037500D01*
G75*
G02*
X90962500Y-111325000I-287500J0D01*
G01*
X90287500Y-111325000D01*
G75*
G02*
X90000000Y-111037500I0J287500D01*
G01*
X90000000Y-110462500D01*
G75*
G02*
X90287500Y-110175000I287500J0D01*
G01*
X90962500Y-110175000D01*
G75*
G02*
X91250000Y-110462500I0J-287500D01*
G01*
G37*
G36*
G01*
X93000000Y-110462500D02*
X93000000Y-111037500D01*
G75*
G02*
X92712500Y-111325000I-287500J0D01*
G01*
X92037500Y-111325000D01*
G75*
G02*
X91750000Y-111037500I0J287500D01*
G01*
X91750000Y-110462500D01*
G75*
G02*
X92037500Y-110175000I287500J0D01*
G01*
X92712500Y-110175000D01*
G75*
G02*
X93000000Y-110462500I0J-287500D01*
G01*
G37*
%TD*%
%TO.C,R1*%
G36*
G01*
X127787500Y-93900000D02*
X127212500Y-93900000D01*
G75*
G02*
X126925000Y-93612500I0J287500D01*
G01*
X126925000Y-92937500D01*
G75*
G02*
X127212500Y-92650000I287500J0D01*
G01*
X127787500Y-92650000D01*
G75*
G02*
X128075000Y-92937500I0J-287500D01*
G01*
X128075000Y-93612500D01*
G75*
G02*
X127787500Y-93900000I-287500J0D01*
G01*
G37*
G36*
G01*
X127787500Y-95650000D02*
X127212500Y-95650000D01*
G75*
G02*
X126925000Y-95362500I0J287500D01*
G01*
X126925000Y-94687500D01*
G75*
G02*
X127212500Y-94400000I287500J0D01*
G01*
X127787500Y-94400000D01*
G75*
G02*
X128075000Y-94687500I0J-287500D01*
G01*
X128075000Y-95362500D01*
G75*
G02*
X127787500Y-95650000I-287500J0D01*
G01*
G37*
%TD*%
D23*
%TO.C,JP3*%
X124170000Y-111200000D03*
D24*
X122900000Y-111200000D03*
%TD*%
%TO.C,JP2*%
X118750000Y-93900000D03*
D23*
X120020000Y-93900000D03*
%TD*%
D24*
%TO.C,JP1*%
X131000000Y-93900000D03*
D23*
X129730000Y-93900000D03*
%TD*%
%TO.C,D3*%
G36*
G01*
X126087500Y-107750000D02*
X125512500Y-107750000D01*
G75*
G02*
X125225000Y-107462500I0J287500D01*
G01*
X125225000Y-106787500D01*
G75*
G02*
X125512500Y-106500000I287500J0D01*
G01*
X126087500Y-106500000D01*
G75*
G02*
X126375000Y-106787500I0J-287500D01*
G01*
X126375000Y-107462500D01*
G75*
G02*
X126087500Y-107750000I-287500J0D01*
G01*
G37*
G36*
G01*
X126087500Y-109500000D02*
X125512500Y-109500000D01*
G75*
G02*
X125225000Y-109212500I0J287500D01*
G01*
X125225000Y-108537500D01*
G75*
G02*
X125512500Y-108250000I287500J0D01*
G01*
X126087500Y-108250000D01*
G75*
G02*
X126375000Y-108537500I0J-287500D01*
G01*
X126375000Y-109212500D01*
G75*
G02*
X126087500Y-109500000I-287500J0D01*
G01*
G37*
%TD*%
%TO.C,D2*%
G36*
G01*
X124287500Y-93900000D02*
X123712500Y-93900000D01*
G75*
G02*
X123425000Y-93612500I0J287500D01*
G01*
X123425000Y-92937500D01*
G75*
G02*
X123712500Y-92650000I287500J0D01*
G01*
X124287500Y-92650000D01*
G75*
G02*
X124575000Y-92937500I0J-287500D01*
G01*
X124575000Y-93612500D01*
G75*
G02*
X124287500Y-93900000I-287500J0D01*
G01*
G37*
G36*
G01*
X124287500Y-95650000D02*
X123712500Y-95650000D01*
G75*
G02*
X123425000Y-95362500I0J287500D01*
G01*
X123425000Y-94687500D01*
G75*
G02*
X123712500Y-94400000I287500J0D01*
G01*
X124287500Y-94400000D01*
G75*
G02*
X124575000Y-94687500I0J-287500D01*
G01*
X124575000Y-95362500D01*
G75*
G02*
X124287500Y-95650000I-287500J0D01*
G01*
G37*
%TD*%
%TO.C,D1*%
G36*
G01*
X126037500Y-93900000D02*
X125462500Y-93900000D01*
G75*
G02*
X125175000Y-93612500I0J287500D01*
G01*
X125175000Y-92937500D01*
G75*
G02*
X125462500Y-92650000I287500J0D01*
G01*
X126037500Y-92650000D01*
G75*
G02*
X126325000Y-92937500I0J-287500D01*
G01*
X126325000Y-93612500D01*
G75*
G02*
X126037500Y-93900000I-287500J0D01*
G01*
G37*
G36*
G01*
X126037500Y-95650000D02*
X125462500Y-95650000D01*
G75*
G02*
X125175000Y-95362500I0J287500D01*
G01*
X125175000Y-94687500D01*
G75*
G02*
X125462500Y-94400000I287500J0D01*
G01*
X126037500Y-94400000D01*
G75*
G02*
X126325000Y-94687500I0J-287500D01*
G01*
X126325000Y-95362500D01*
G75*
G02*
X126037500Y-95650000I-287500J0D01*
G01*
G37*
%TD*%
D25*
%TO.C,CN1*%
X160725000Y-94100000D03*
X159025000Y-94100000D03*
X159875000Y-94100000D03*
X161575000Y-94100000D03*
X162425000Y-94100000D03*
X163275000Y-94100000D03*
X164125000Y-94100000D03*
X164975000Y-94100000D03*
X159025000Y-92775000D03*
X159880000Y-92775000D03*
X160730000Y-92775000D03*
X161580000Y-92775000D03*
X162430000Y-92775000D03*
X163280000Y-92775000D03*
X164130000Y-92775000D03*
X164980000Y-92775000D03*
D26*
X157675000Y-93120000D03*
X166325000Y-93120000D03*
D27*
X157675000Y-89740000D03*
X166325000Y-89740000D03*
%TD*%
%TO.C,C11*%
G36*
G01*
X95462500Y-100000000D02*
X96037500Y-100000000D01*
G75*
G02*
X96325000Y-100287500I0J-287500D01*
G01*
X96325000Y-100962500D01*
G75*
G02*
X96037500Y-101250000I-287500J0D01*
G01*
X95462500Y-101250000D01*
G75*
G02*
X95175000Y-100962500I0J287500D01*
G01*
X95175000Y-100287500D01*
G75*
G02*
X95462500Y-100000000I287500J0D01*
G01*
G37*
G36*
G01*
X95462500Y-98250000D02*
X96037500Y-98250000D01*
G75*
G02*
X96325000Y-98537500I0J-287500D01*
G01*
X96325000Y-99212500D01*
G75*
G02*
X96037500Y-99500000I-287500J0D01*
G01*
X95462500Y-99500000D01*
G75*
G02*
X95175000Y-99212500I0J287500D01*
G01*
X95175000Y-98537500D01*
G75*
G02*
X95462500Y-98250000I287500J0D01*
G01*
G37*
%TD*%
%TO.C,C10*%
G36*
G01*
X96037500Y-96000000D02*
X95462500Y-96000000D01*
G75*
G02*
X95175000Y-95712500I0J287500D01*
G01*
X95175000Y-95037500D01*
G75*
G02*
X95462500Y-94750000I287500J0D01*
G01*
X96037500Y-94750000D01*
G75*
G02*
X96325000Y-95037500I0J-287500D01*
G01*
X96325000Y-95712500D01*
G75*
G02*
X96037500Y-96000000I-287500J0D01*
G01*
G37*
G36*
G01*
X96037500Y-97750000D02*
X95462500Y-97750000D01*
G75*
G02*
X95175000Y-97462500I0J287500D01*
G01*
X95175000Y-96787500D01*
G75*
G02*
X95462500Y-96500000I287500J0D01*
G01*
X96037500Y-96500000D01*
G75*
G02*
X96325000Y-96787500I0J-287500D01*
G01*
X96325000Y-97462500D01*
G75*
G02*
X96037500Y-97750000I-287500J0D01*
G01*
G37*
%TD*%
%TO.C,C9*%
G36*
G01*
X136712500Y-95750000D02*
X137287500Y-95750000D01*
G75*
G02*
X137575000Y-96037500I0J-287500D01*
G01*
X137575000Y-96712500D01*
G75*
G02*
X137287500Y-97000000I-287500J0D01*
G01*
X136712500Y-97000000D01*
G75*
G02*
X136425000Y-96712500I0J287500D01*
G01*
X136425000Y-96037500D01*
G75*
G02*
X136712500Y-95750000I287500J0D01*
G01*
G37*
G36*
G01*
X136712500Y-94000000D02*
X137287500Y-94000000D01*
G75*
G02*
X137575000Y-94287500I0J-287500D01*
G01*
X137575000Y-94962500D01*
G75*
G02*
X137287500Y-95250000I-287500J0D01*
G01*
X136712500Y-95250000D01*
G75*
G02*
X136425000Y-94962500I0J287500D01*
G01*
X136425000Y-94287500D01*
G75*
G02*
X136712500Y-94000000I287500J0D01*
G01*
G37*
%TD*%
%TO.C,C8*%
G36*
G01*
X112537500Y-97250000D02*
X111962500Y-97250000D01*
G75*
G02*
X111675000Y-96962500I0J287500D01*
G01*
X111675000Y-96287500D01*
G75*
G02*
X111962500Y-96000000I287500J0D01*
G01*
X112537500Y-96000000D01*
G75*
G02*
X112825000Y-96287500I0J-287500D01*
G01*
X112825000Y-96962500D01*
G75*
G02*
X112537500Y-97250000I-287500J0D01*
G01*
G37*
G36*
G01*
X112537500Y-99000000D02*
X111962500Y-99000000D01*
G75*
G02*
X111675000Y-98712500I0J287500D01*
G01*
X111675000Y-98037500D01*
G75*
G02*
X111962500Y-97750000I287500J0D01*
G01*
X112537500Y-97750000D01*
G75*
G02*
X112825000Y-98037500I0J-287500D01*
G01*
X112825000Y-98712500D01*
G75*
G02*
X112537500Y-99000000I-287500J0D01*
G01*
G37*
%TD*%
%TO.C,C7*%
G36*
G01*
X110750000Y-108712500D02*
X110750000Y-109287500D01*
G75*
G02*
X110462500Y-109575000I-287500J0D01*
G01*
X109787500Y-109575000D01*
G75*
G02*
X109500000Y-109287500I0J287500D01*
G01*
X109500000Y-108712500D01*
G75*
G02*
X109787500Y-108425000I287500J0D01*
G01*
X110462500Y-108425000D01*
G75*
G02*
X110750000Y-108712500I0J-287500D01*
G01*
G37*
G36*
G01*
X112500000Y-108712500D02*
X112500000Y-109287500D01*
G75*
G02*
X112212500Y-109575000I-287500J0D01*
G01*
X111537500Y-109575000D01*
G75*
G02*
X111250000Y-109287500I0J287500D01*
G01*
X111250000Y-108712500D01*
G75*
G02*
X111537500Y-108425000I287500J0D01*
G01*
X112212500Y-108425000D01*
G75*
G02*
X112500000Y-108712500I0J-287500D01*
G01*
G37*
%TD*%
%TO.C,C6*%
G36*
G01*
X144712500Y-95750000D02*
X145287500Y-95750000D01*
G75*
G02*
X145575000Y-96037500I0J-287500D01*
G01*
X145575000Y-96712500D01*
G75*
G02*
X145287500Y-97000000I-287500J0D01*
G01*
X144712500Y-97000000D01*
G75*
G02*
X144425000Y-96712500I0J287500D01*
G01*
X144425000Y-96037500D01*
G75*
G02*
X144712500Y-95750000I287500J0D01*
G01*
G37*
G36*
G01*
X144712500Y-94000000D02*
X145287500Y-94000000D01*
G75*
G02*
X145575000Y-94287500I0J-287500D01*
G01*
X145575000Y-94962500D01*
G75*
G02*
X145287500Y-95250000I-287500J0D01*
G01*
X144712500Y-95250000D01*
G75*
G02*
X144425000Y-94962500I0J287500D01*
G01*
X144425000Y-94287500D01*
G75*
G02*
X144712500Y-94000000I287500J0D01*
G01*
G37*
%TD*%
%TO.C,C5*%
G36*
G01*
X101687500Y-105350000D02*
X101112500Y-105350000D01*
G75*
G02*
X100825000Y-105062500I0J287500D01*
G01*
X100825000Y-104387500D01*
G75*
G02*
X101112500Y-104100000I287500J0D01*
G01*
X101687500Y-104100000D01*
G75*
G02*
X101975000Y-104387500I0J-287500D01*
G01*
X101975000Y-105062500D01*
G75*
G02*
X101687500Y-105350000I-287500J0D01*
G01*
G37*
G36*
G01*
X101687500Y-107100000D02*
X101112500Y-107100000D01*
G75*
G02*
X100825000Y-106812500I0J287500D01*
G01*
X100825000Y-106137500D01*
G75*
G02*
X101112500Y-105850000I287500J0D01*
G01*
X101687500Y-105850000D01*
G75*
G02*
X101975000Y-106137500I0J-287500D01*
G01*
X101975000Y-106812500D01*
G75*
G02*
X101687500Y-107100000I-287500J0D01*
G01*
G37*
%TD*%
%TO.C,C4*%
G36*
G01*
X106962500Y-111000000D02*
X107537500Y-111000000D01*
G75*
G02*
X107825000Y-111287500I0J-287500D01*
G01*
X107825000Y-111962500D01*
G75*
G02*
X107537500Y-112250000I-287500J0D01*
G01*
X106962500Y-112250000D01*
G75*
G02*
X106675000Y-111962500I0J287500D01*
G01*
X106675000Y-111287500D01*
G75*
G02*
X106962500Y-111000000I287500J0D01*
G01*
G37*
G36*
G01*
X106962500Y-109250000D02*
X107537500Y-109250000D01*
G75*
G02*
X107825000Y-109537500I0J-287500D01*
G01*
X107825000Y-110212500D01*
G75*
G02*
X107537500Y-110500000I-287500J0D01*
G01*
X106962500Y-110500000D01*
G75*
G02*
X106675000Y-110212500I0J287500D01*
G01*
X106675000Y-109537500D01*
G75*
G02*
X106962500Y-109250000I287500J0D01*
G01*
G37*
%TD*%
%TO.C,C3*%
G36*
G01*
X94612500Y-111000000D02*
X95187500Y-111000000D01*
G75*
G02*
X95475000Y-111287500I0J-287500D01*
G01*
X95475000Y-111962500D01*
G75*
G02*
X95187500Y-112250000I-287500J0D01*
G01*
X94612500Y-112250000D01*
G75*
G02*
X94325000Y-111962500I0J287500D01*
G01*
X94325000Y-111287500D01*
G75*
G02*
X94612500Y-111000000I287500J0D01*
G01*
G37*
G36*
G01*
X94612500Y-109250000D02*
X95187500Y-109250000D01*
G75*
G02*
X95475000Y-109537500I0J-287500D01*
G01*
X95475000Y-110212500D01*
G75*
G02*
X95187500Y-110500000I-287500J0D01*
G01*
X94612500Y-110500000D01*
G75*
G02*
X94325000Y-110212500I0J287500D01*
G01*
X94325000Y-109537500D01*
G75*
G02*
X94612500Y-109250000I287500J0D01*
G01*
G37*
%TD*%
%TO.C,C2*%
G36*
G01*
X146493477Y-95850000D02*
X147506523Y-95850000D01*
G75*
G02*
X147800000Y-96143477I0J-293477D01*
G01*
X147800000Y-96906523D01*
G75*
G02*
X147506523Y-97200000I-293477J0D01*
G01*
X146493477Y-97200000D01*
G75*
G02*
X146200000Y-96906523I0J293477D01*
G01*
X146200000Y-96143477D01*
G75*
G02*
X146493477Y-95850000I293477J0D01*
G01*
G37*
G36*
G01*
X146493477Y-93800000D02*
X147506523Y-93800000D01*
G75*
G02*
X147800000Y-94093477I0J-293477D01*
G01*
X147800000Y-94856523D01*
G75*
G02*
X147506523Y-95150000I-293477J0D01*
G01*
X146493477Y-95150000D01*
G75*
G02*
X146200000Y-94856523I0J293477D01*
G01*
X146200000Y-94093477D01*
G75*
G02*
X146493477Y-93800000I293477J0D01*
G01*
G37*
%TD*%
%TO.C,C1*%
G36*
G01*
X103487500Y-96500000D02*
X102912500Y-96500000D01*
G75*
G02*
X102625000Y-96212500I0J287500D01*
G01*
X102625000Y-95537500D01*
G75*
G02*
X102912500Y-95250000I287500J0D01*
G01*
X103487500Y-95250000D01*
G75*
G02*
X103775000Y-95537500I0J-287500D01*
G01*
X103775000Y-96212500D01*
G75*
G02*
X103487500Y-96500000I-287500J0D01*
G01*
G37*
G36*
G01*
X103487500Y-98250000D02*
X102912500Y-98250000D01*
G75*
G02*
X102625000Y-97962500I0J287500D01*
G01*
X102625000Y-97287500D01*
G75*
G02*
X102912500Y-97000000I287500J0D01*
G01*
X103487500Y-97000000D01*
G75*
G02*
X103775000Y-97287500I0J-287500D01*
G01*
X103775000Y-97962500D01*
G75*
G02*
X103487500Y-98250000I-287500J0D01*
G01*
G37*
%TD*%
M02*
