M48
; DRILL file {KiCad (5.1.6)-1} date 06/16/21 19:52:10
; FORMAT={-:-/ absolute / inch / decimal}
; #@! TF.CreationDate,2021-06-16T19:52:10-04:00
; #@! TF.GenerationSoftware,Kicad,Pcbnew,(5.1.6)-1
; #@! TF.FileFunction,Plated,1,2,PTH
FMAT,2
INCH
T1C0.0118
T2C0.0157
T3C0.0197
T4C0.0236
T5C0.0256
T6C0.0276
T7C0.0394
T8C0.0500
T9C0.0591
%
G90
G05
T1
X4.1339Y-4.1024
X4.1654Y-3.937
X4.2441Y-4.1339
X4.3307Y-3.9685
T2
X3.4528Y-3.7756
X3.6713Y-4.1634
X3.6821Y-4.3947
X3.7254Y-3.7549
X3.7254Y-3.9665
X3.9272Y-4.2224
X3.9291Y-3.6634
X3.9961Y-4.065
X4.2815Y-4.4094
X4.9173Y-3.7874
X5.0049Y-4.2864
X5.2087Y-4.3228
X5.4134Y-3.8425
X5.7402Y-3.8346
X5.7402Y-3.874
X6.122Y-3.8484
X6.2608Y-3.6526
X6.2608Y-3.7047
X6.2943Y-3.7047
X6.2945Y-3.6526
X6.3278Y-3.7047
X6.328Y-3.6526
X6.3612Y-3.7047
X6.3614Y-3.6526
X6.3947Y-3.7047
X6.3949Y-3.6526
X6.4281Y-3.7047
X6.4283Y-3.6526
X6.4616Y-3.7047
X6.4618Y-3.6526
X6.4951Y-3.7047
X6.4953Y-3.6526
T3
X5.4646Y-3.8622
X5.5118Y-3.8622
X5.5591Y-3.8622
T5
X5.1075Y-3.6969
X5.1575Y-3.6969
X4.6752Y-3.6969
X4.7252Y-3.6969
X4.8386Y-4.378
X4.8886Y-4.378
T6
X4.3012Y-4.3602
X4.3307Y-3.7697
X4.1437Y-3.7303
X5.874Y-3.6772
X3.7697Y-3.6713
X5.2402Y-3.7244
X4.2618Y-3.7697
X4.6575Y-4.1772
T7
X4.4173Y-4.378
X4.5173Y-4.378
X3.3268Y-3.937
X3.3268Y-4.1339
X3.8976Y-3.937
X3.8976Y-4.0354
X3.8976Y-4.1339
T8
X6.2795Y-4.1732
X6.4795Y-3.9732
X5.689Y-4.1732
X5.889Y-3.9732
X5.0984Y-4.1732
X5.2984Y-3.9732
X4.5079Y-4.1732
X4.7079Y-3.9732
T4
G00X6.2077Y-3.5173
M15
G01X6.2077Y-3.5488
M16
G05
G00X6.2077Y-3.6366
M15
G01X6.2077Y-3.6957
M16
G05
G00X6.5482Y-3.5173
M15
G01X6.5482Y-3.5488
M16
G05
G00X6.5482Y-3.6366
M15
G01X6.5482Y-3.6957
M16
G05
T9
G00X3.628Y-3.815
M15
G01X3.5768Y-3.815
M16
G05
G00X3.628Y-4.2559
M15
G01X3.5768Y-4.2559
M16
G05
T0
M30
