%TF.GenerationSoftware,KiCad,Pcbnew,(5.1.6)-1*%
%TF.CreationDate,2021-06-16T19:52:11-04:00*%
%TF.ProjectId,QAZ_media,51415a5f-6d65-4646-9961-2e6b69636164,rev?*%
%TF.SameCoordinates,Original*%
%TF.FileFunction,Legend,Top*%
%TF.FilePolarity,Positive*%
%FSLAX46Y46*%
G04 Gerber Fmt 4.6, Leading zero omitted, Abs format (unit mm)*
G04 Created by KiCad (PCBNEW (5.1.6)-1) date 2021-06-16 19:52:11*
%MOMM*%
%LPD*%
G01*
G04 APERTURE LIST*
%ADD10C,0.200000*%
%ADD11C,0.120000*%
%ADD12C,0.150000*%
%ADD13C,0.010000*%
G04 APERTURE END LIST*
D10*
X116823809Y-109585714D02*
X116823809Y-110252380D01*
X116823809Y-109680952D02*
X116871428Y-109633333D01*
X116966666Y-109585714D01*
X117109523Y-109585714D01*
X117204761Y-109633333D01*
X117252380Y-109728571D01*
X117252380Y-110252380D01*
X118300000Y-110252380D02*
X117966666Y-109776190D01*
X117728571Y-110252380D02*
X117728571Y-109252380D01*
X118109523Y-109252380D01*
X118204761Y-109300000D01*
X118252380Y-109347619D01*
X118300000Y-109442857D01*
X118300000Y-109585714D01*
X118252380Y-109680952D01*
X118204761Y-109728571D01*
X118109523Y-109776190D01*
X117728571Y-109776190D01*
X118728571Y-109728571D02*
X119061904Y-109728571D01*
X119204761Y-110252380D02*
X118728571Y-110252380D01*
X118728571Y-109252380D01*
X119204761Y-109252380D01*
X119585714Y-110204761D02*
X119728571Y-110252380D01*
X119966666Y-110252380D01*
X120061904Y-110204761D01*
X120109523Y-110157142D01*
X120157142Y-110061904D01*
X120157142Y-109966666D01*
X120109523Y-109871428D01*
X120061904Y-109823809D01*
X119966666Y-109776190D01*
X119776190Y-109728571D01*
X119680952Y-109680952D01*
X119633333Y-109633333D01*
X119585714Y-109538095D01*
X119585714Y-109442857D01*
X119633333Y-109347619D01*
X119680952Y-109300000D01*
X119776190Y-109252380D01*
X120014285Y-109252380D01*
X120157142Y-109300000D01*
X120585714Y-109728571D02*
X120919047Y-109728571D01*
X121061904Y-110252380D02*
X120585714Y-110252380D01*
X120585714Y-109252380D01*
X121061904Y-109252380D01*
X121347619Y-109252380D02*
X121919047Y-109252380D01*
X121633333Y-110252380D02*
X121633333Y-109252380D01*
D11*
X110100000Y-109900000D02*
X116500000Y-109900000D01*
X109850385Y-110033590D02*
G75*
G02*
X110100000Y-109900000I249615J-166410D01*
G01*
D12*
X90138095Y-93604761D02*
X90280952Y-93652380D01*
X90519047Y-93652380D01*
X90614285Y-93604761D01*
X90661904Y-93557142D01*
X90709523Y-93461904D01*
X90709523Y-93366666D01*
X90661904Y-93271428D01*
X90614285Y-93223809D01*
X90519047Y-93176190D01*
X90328571Y-93128571D01*
X90233333Y-93080952D01*
X90185714Y-93033333D01*
X90138095Y-92938095D01*
X90138095Y-92842857D01*
X90185714Y-92747619D01*
X90233333Y-92700000D01*
X90328571Y-92652380D01*
X90566666Y-92652380D01*
X90709523Y-92700000D01*
X91042857Y-92652380D02*
X91280952Y-93652380D01*
X91471428Y-92938095D01*
X91661904Y-93652380D01*
X91900000Y-92652380D01*
X92852380Y-93557142D02*
X92804761Y-93604761D01*
X92661904Y-93652380D01*
X92566666Y-93652380D01*
X92423809Y-93604761D01*
X92328571Y-93509523D01*
X92280952Y-93414285D01*
X92233333Y-93223809D01*
X92233333Y-93080952D01*
X92280952Y-92890476D01*
X92328571Y-92795238D01*
X92423809Y-92700000D01*
X92566666Y-92652380D01*
X92661904Y-92652380D01*
X92804761Y-92700000D01*
X92852380Y-92747619D01*
X93757142Y-93652380D02*
X93280952Y-93652380D01*
X93280952Y-92652380D01*
X94090476Y-93652380D02*
X94090476Y-92652380D01*
X94661904Y-93652380D02*
X94233333Y-93080952D01*
X94661904Y-92652380D02*
X94090476Y-93223809D01*
D11*
X107283774Y-95516227D02*
G75*
G02*
X107200001Y-95000001I316226J316227D01*
G01*
X111379473Y-95726491D02*
G75*
G02*
X111000000Y-96000000I-379473J126491D01*
G01*
X106224265Y-93658579D02*
G75*
G02*
X106000000Y-94200000I-424265J-141421D01*
G01*
D12*
X104080952Y-93404761D02*
X104223809Y-93452380D01*
X104461904Y-93452380D01*
X104557142Y-93404761D01*
X104604761Y-93357142D01*
X104652380Y-93261904D01*
X104652380Y-93166666D01*
X104604761Y-93071428D01*
X104557142Y-93023809D01*
X104461904Y-92976190D01*
X104271428Y-92928571D01*
X104176190Y-92880952D01*
X104128571Y-92833333D01*
X104080952Y-92738095D01*
X104080952Y-92642857D01*
X104128571Y-92547619D01*
X104176190Y-92500000D01*
X104271428Y-92452380D01*
X104509523Y-92452380D01*
X104652380Y-92500000D01*
X104985714Y-92452380D02*
X105223809Y-93452380D01*
X105414285Y-92738095D01*
X105604761Y-93452380D01*
X105842857Y-92452380D01*
X106223809Y-93452380D02*
X106223809Y-92452380D01*
X106461904Y-92452380D01*
X106604761Y-92500000D01*
X106700000Y-92595238D01*
X106747619Y-92690476D01*
X106795238Y-92880952D01*
X106795238Y-93023809D01*
X106747619Y-93214285D01*
X106700000Y-93309523D01*
X106604761Y-93404761D01*
X106461904Y-93452380D01*
X106223809Y-93452380D01*
X107223809Y-93452380D02*
X107223809Y-92452380D01*
X107890476Y-92452380D02*
X108080952Y-92452380D01*
X108176190Y-92500000D01*
X108271428Y-92595238D01*
X108319047Y-92785714D01*
X108319047Y-93119047D01*
X108271428Y-93309523D01*
X108176190Y-93404761D01*
X108080952Y-93452380D01*
X107890476Y-93452380D01*
X107795238Y-93404761D01*
X107700000Y-93309523D01*
X107652380Y-93119047D01*
X107652380Y-92785714D01*
X107700000Y-92595238D01*
X107795238Y-92500000D01*
X107890476Y-92452380D01*
D10*
X106938095Y-94652380D02*
X106938095Y-93652380D01*
X107176190Y-93652380D01*
X107319047Y-93700000D01*
X107414285Y-93795238D01*
X107461904Y-93890476D01*
X107509523Y-94080952D01*
X107509523Y-94223809D01*
X107461904Y-94414285D01*
X107414285Y-94509523D01*
X107319047Y-94604761D01*
X107176190Y-94652380D01*
X106938095Y-94652380D01*
X108271428Y-94128571D02*
X108414285Y-94176190D01*
X108461904Y-94223809D01*
X108509523Y-94319047D01*
X108509523Y-94461904D01*
X108461904Y-94557142D01*
X108414285Y-94604761D01*
X108319047Y-94652380D01*
X107938095Y-94652380D01*
X107938095Y-93652380D01*
X108271428Y-93652380D01*
X108366666Y-93700000D01*
X108414285Y-93747619D01*
X108461904Y-93842857D01*
X108461904Y-93938095D01*
X108414285Y-94033333D01*
X108366666Y-94080952D01*
X108271428Y-94128571D01*
X107938095Y-94128571D01*
X109461904Y-93700000D02*
X109366666Y-93652380D01*
X109223809Y-93652380D01*
X109080952Y-93700000D01*
X108985714Y-93795238D01*
X108938095Y-93890476D01*
X108890476Y-94080952D01*
X108890476Y-94223809D01*
X108938095Y-94414285D01*
X108985714Y-94509523D01*
X109080952Y-94604761D01*
X109223809Y-94652380D01*
X109319047Y-94652380D01*
X109461904Y-94604761D01*
X109509523Y-94557142D01*
X109509523Y-94223809D01*
X109319047Y-94223809D01*
X111604761Y-95357142D02*
X111557142Y-95404761D01*
X111414285Y-95452380D01*
X111319047Y-95452380D01*
X111176190Y-95404761D01*
X111080952Y-95309523D01*
X111033333Y-95214285D01*
X110985714Y-95023809D01*
X110985714Y-94880952D01*
X111033333Y-94690476D01*
X111080952Y-94595238D01*
X111176190Y-94500000D01*
X111319047Y-94452380D01*
X111414285Y-94452380D01*
X111557142Y-94500000D01*
X111604761Y-94547619D01*
X112509523Y-95452380D02*
X112033333Y-95452380D01*
X112033333Y-94452380D01*
X112842857Y-95452380D02*
X112842857Y-94452380D01*
X113414285Y-95452380D02*
X112985714Y-94880952D01*
X113414285Y-94452380D02*
X112842857Y-95023809D01*
X118861904Y-94652380D02*
X119480952Y-94652380D01*
X119147619Y-95033333D01*
X119290476Y-95033333D01*
X119385714Y-95080952D01*
X119433333Y-95128571D01*
X119480952Y-95223809D01*
X119480952Y-95461904D01*
X119433333Y-95557142D01*
X119385714Y-95604761D01*
X119290476Y-95652380D01*
X119004761Y-95652380D01*
X118909523Y-95604761D01*
X118861904Y-95557142D01*
X119766666Y-94652380D02*
X120100000Y-95652380D01*
X120433333Y-94652380D01*
X120671428Y-94652380D02*
X121290476Y-94652380D01*
X120957142Y-95033333D01*
X121100000Y-95033333D01*
X121195238Y-95080952D01*
X121242857Y-95128571D01*
X121290476Y-95223809D01*
X121290476Y-95461904D01*
X121242857Y-95557142D01*
X121195238Y-95604761D01*
X121100000Y-95652380D01*
X120814285Y-95652380D01*
X120719047Y-95604761D01*
X120671428Y-95557142D01*
X129109523Y-94652380D02*
X128633333Y-94652380D01*
X128585714Y-95128571D01*
X128633333Y-95080952D01*
X128728571Y-95033333D01*
X128966666Y-95033333D01*
X129061904Y-95080952D01*
X129109523Y-95128571D01*
X129157142Y-95223809D01*
X129157142Y-95461904D01*
X129109523Y-95557142D01*
X129061904Y-95604761D01*
X128966666Y-95652380D01*
X128728571Y-95652380D01*
X128633333Y-95604761D01*
X128585714Y-95557142D01*
X129442857Y-94652380D02*
X129776190Y-95652380D01*
X130109523Y-94652380D01*
X132438095Y-93071428D02*
X133200000Y-93071428D01*
X132819047Y-93452380D02*
X132819047Y-92690476D01*
X133580952Y-92452380D02*
X134200000Y-92452380D01*
X133866666Y-92833333D01*
X134009523Y-92833333D01*
X134104761Y-92880952D01*
X134152380Y-92928571D01*
X134200000Y-93023809D01*
X134200000Y-93261904D01*
X134152380Y-93357142D01*
X134104761Y-93404761D01*
X134009523Y-93452380D01*
X133723809Y-93452380D01*
X133628571Y-93404761D01*
X133580952Y-93357142D01*
X134485714Y-92452380D02*
X134819047Y-93452380D01*
X135152380Y-92452380D01*
X135390476Y-92452380D02*
X136009523Y-92452380D01*
X135676190Y-92833333D01*
X135819047Y-92833333D01*
X135914285Y-92880952D01*
X135961904Y-92928571D01*
X136009523Y-93023809D01*
X136009523Y-93261904D01*
X135961904Y-93357142D01*
X135914285Y-93404761D01*
X135819047Y-93452380D01*
X135533333Y-93452380D01*
X135438095Y-93404761D01*
X135390476Y-93357142D01*
X125014285Y-111052380D02*
X125014285Y-110052380D01*
X125014285Y-110528571D02*
X125585714Y-110528571D01*
X125585714Y-111052380D02*
X125585714Y-110052380D01*
X126395238Y-110528571D02*
X126538095Y-110576190D01*
X126585714Y-110623809D01*
X126633333Y-110719047D01*
X126633333Y-110861904D01*
X126585714Y-110957142D01*
X126538095Y-111004761D01*
X126442857Y-111052380D01*
X126061904Y-111052380D01*
X126061904Y-110052380D01*
X126395238Y-110052380D01*
X126490476Y-110100000D01*
X126538095Y-110147619D01*
X126585714Y-110242857D01*
X126585714Y-110338095D01*
X126538095Y-110433333D01*
X126490476Y-110480952D01*
X126395238Y-110528571D01*
X126061904Y-110528571D01*
X145414285Y-93071428D02*
X146176190Y-93071428D01*
X145795238Y-93452380D02*
X145795238Y-92690476D01*
X147128571Y-92452380D02*
X146652380Y-92452380D01*
X146604761Y-92928571D01*
X146652380Y-92880952D01*
X146747619Y-92833333D01*
X146985714Y-92833333D01*
X147080952Y-92880952D01*
X147128571Y-92928571D01*
X147176190Y-93023809D01*
X147176190Y-93261904D01*
X147128571Y-93357142D01*
X147080952Y-93404761D01*
X146985714Y-93452380D01*
X146747619Y-93452380D01*
X146652380Y-93404761D01*
X146604761Y-93357142D01*
X147461904Y-92452380D02*
X147795238Y-93452380D01*
X148128571Y-92452380D01*
X83538095Y-92600000D02*
X83442857Y-92552380D01*
X83300000Y-92552380D01*
X83157142Y-92600000D01*
X83061904Y-92695238D01*
X83014285Y-92790476D01*
X82966666Y-92980952D01*
X82966666Y-93123809D01*
X83014285Y-93314285D01*
X83061904Y-93409523D01*
X83157142Y-93504761D01*
X83300000Y-93552380D01*
X83395238Y-93552380D01*
X83538095Y-93504761D01*
X83585714Y-93457142D01*
X83585714Y-93123809D01*
X83395238Y-93123809D01*
X84014285Y-93552380D02*
X84014285Y-92552380D01*
X84585714Y-93552380D01*
X84585714Y-92552380D01*
X85061904Y-93552380D02*
X85061904Y-92552380D01*
X85300000Y-92552380D01*
X85442857Y-92600000D01*
X85538095Y-92695238D01*
X85585714Y-92790476D01*
X85633333Y-92980952D01*
X85633333Y-93123809D01*
X85585714Y-93314285D01*
X85538095Y-93409523D01*
X85442857Y-93504761D01*
X85300000Y-93552380D01*
X85061904Y-93552380D01*
X134938095Y-106500000D02*
X134842857Y-106452380D01*
X134700000Y-106452380D01*
X134557142Y-106500000D01*
X134461904Y-106595238D01*
X134414285Y-106690476D01*
X134366666Y-106880952D01*
X134366666Y-107023809D01*
X134414285Y-107214285D01*
X134461904Y-107309523D01*
X134557142Y-107404761D01*
X134700000Y-107452380D01*
X134795238Y-107452380D01*
X134938095Y-107404761D01*
X134985714Y-107357142D01*
X134985714Y-107023809D01*
X134795238Y-107023809D01*
X135414285Y-107452380D02*
X135414285Y-106452380D01*
X135985714Y-107452380D01*
X135985714Y-106452380D01*
X136461904Y-107452380D02*
X136461904Y-106452380D01*
X136700000Y-106452380D01*
X136842857Y-106500000D01*
X136938095Y-106595238D01*
X136985714Y-106690476D01*
X137033333Y-106880952D01*
X137033333Y-107023809D01*
X136985714Y-107214285D01*
X136938095Y-107309523D01*
X136842857Y-107404761D01*
X136700000Y-107452380D01*
X136461904Y-107452380D01*
X117488095Y-104000000D02*
X117392857Y-103952380D01*
X117250000Y-103952380D01*
X117107142Y-104000000D01*
X117011904Y-104095238D01*
X116964285Y-104190476D01*
X116916666Y-104380952D01*
X116916666Y-104523809D01*
X116964285Y-104714285D01*
X117011904Y-104809523D01*
X117107142Y-104904761D01*
X117250000Y-104952380D01*
X117345238Y-104952380D01*
X117488095Y-104904761D01*
X117535714Y-104857142D01*
X117535714Y-104523809D01*
X117345238Y-104523809D01*
X117964285Y-104952380D02*
X117964285Y-103952380D01*
X118535714Y-104952380D01*
X118535714Y-103952380D01*
X119011904Y-104952380D02*
X119011904Y-103952380D01*
X119250000Y-103952380D01*
X119392857Y-104000000D01*
X119488095Y-104095238D01*
X119535714Y-104190476D01*
X119583333Y-104380952D01*
X119583333Y-104523809D01*
X119535714Y-104714285D01*
X119488095Y-104809523D01*
X119392857Y-104904761D01*
X119250000Y-104952380D01*
X119011904Y-104952380D01*
D13*
%TO.C,G\u002A\u002A\u002A*%
G36*
X162723512Y-109929543D02*
G01*
X162795696Y-109991395D01*
X162812666Y-110080000D01*
X162790025Y-110179414D01*
X162745704Y-110223637D01*
X162614537Y-110248365D01*
X162493470Y-110230530D01*
X162440133Y-110198533D01*
X162390564Y-110102272D01*
X162409569Y-110005894D01*
X162484758Y-109934045D01*
X162584837Y-109910666D01*
X162723512Y-109929543D01*
G37*
X162723512Y-109929543D02*
X162795696Y-109991395D01*
X162812666Y-110080000D01*
X162790025Y-110179414D01*
X162745704Y-110223637D01*
X162614537Y-110248365D01*
X162493470Y-110230530D01*
X162440133Y-110198533D01*
X162390564Y-110102272D01*
X162409569Y-110005894D01*
X162484758Y-109934045D01*
X162584837Y-109910666D01*
X162723512Y-109929543D01*
G36*
X168477422Y-111527776D02*
G01*
X168613827Y-111565706D01*
X168656808Y-111628124D01*
X168663192Y-111711876D01*
X168625000Y-111800958D01*
X168511462Y-111849042D01*
X168470712Y-111849957D01*
X168360776Y-111849094D01*
X168299312Y-111811439D01*
X168267692Y-111755960D01*
X168245341Y-111639136D01*
X168295154Y-111560167D01*
X168410274Y-111526517D01*
X168477422Y-111527776D01*
G37*
X168477422Y-111527776D02*
X168613827Y-111565706D01*
X168656808Y-111628124D01*
X168663192Y-111711876D01*
X168625000Y-111800958D01*
X168511462Y-111849042D01*
X168470712Y-111849957D01*
X168360776Y-111849094D01*
X168299312Y-111811439D01*
X168267692Y-111755960D01*
X168245341Y-111639136D01*
X168295154Y-111560167D01*
X168410274Y-111526517D01*
X168477422Y-111527776D01*
G36*
X167526040Y-109976370D02*
G01*
X167565543Y-110033889D01*
X167587182Y-110140889D01*
X167596103Y-110305772D01*
X167597455Y-110536944D01*
X167596385Y-110842808D01*
X167596333Y-110905500D01*
X167596333Y-111858000D01*
X167173000Y-111858000D01*
X167173000Y-110366458D01*
X167077750Y-110394210D01*
X166966873Y-110421832D01*
X166841783Y-110447528D01*
X166747119Y-110459712D01*
X166712054Y-110434131D01*
X166713177Y-110349681D01*
X166714783Y-110333043D01*
X166725413Y-110264935D01*
X166752148Y-110216065D01*
X166811206Y-110175085D01*
X166918805Y-110130648D01*
X167086418Y-110072996D01*
X167248860Y-110016643D01*
X167372846Y-109976151D01*
X167463523Y-109959925D01*
X167526040Y-109976370D01*
G37*
X167526040Y-109976370D02*
X167565543Y-110033889D01*
X167587182Y-110140889D01*
X167596103Y-110305772D01*
X167597455Y-110536944D01*
X167596385Y-110842808D01*
X167596333Y-110905500D01*
X167596333Y-111858000D01*
X167173000Y-111858000D01*
X167173000Y-110366458D01*
X167077750Y-110394210D01*
X166966873Y-110421832D01*
X166841783Y-110447528D01*
X166747119Y-110459712D01*
X166712054Y-110434131D01*
X166713177Y-110349681D01*
X166714783Y-110333043D01*
X166725413Y-110264935D01*
X166752148Y-110216065D01*
X166811206Y-110175085D01*
X166918805Y-110130648D01*
X167086418Y-110072996D01*
X167248860Y-110016643D01*
X167372846Y-109976151D01*
X167463523Y-109959925D01*
X167526040Y-109976370D01*
G36*
X166427479Y-110468153D02*
G01*
X166483942Y-110491289D01*
X166485748Y-110513916D01*
X166465964Y-110570317D01*
X166423587Y-110691885D01*
X166363778Y-110863797D01*
X166291693Y-111071229D01*
X166242668Y-111212416D01*
X166018564Y-111858000D01*
X165659459Y-111858000D01*
X165421396Y-111184411D01*
X165342731Y-110960427D01*
X165275031Y-110764977D01*
X165222942Y-110611699D01*
X165191113Y-110514232D01*
X165183333Y-110485911D01*
X165221429Y-110471696D01*
X165318830Y-110462677D01*
X165395000Y-110461000D01*
X165525515Y-110469653D01*
X165597827Y-110493000D01*
X165606666Y-110507794D01*
X165618391Y-110567136D01*
X165649732Y-110685975D01*
X165694941Y-110843031D01*
X165717297Y-110917292D01*
X165769437Y-111083159D01*
X165809118Y-111181275D01*
X165843186Y-111208944D01*
X165878487Y-111163473D01*
X165921866Y-111042166D01*
X165980170Y-110842330D01*
X165989257Y-110810250D01*
X166088124Y-110461000D01*
X166296424Y-110461000D01*
X166427479Y-110468153D01*
G37*
X166427479Y-110468153D02*
X166483942Y-110491289D01*
X166485748Y-110513916D01*
X166465964Y-110570317D01*
X166423587Y-110691885D01*
X166363778Y-110863797D01*
X166291693Y-111071229D01*
X166242668Y-111212416D01*
X166018564Y-111858000D01*
X165659459Y-111858000D01*
X165421396Y-111184411D01*
X165342731Y-110960427D01*
X165275031Y-110764977D01*
X165222942Y-110611699D01*
X165191113Y-110514232D01*
X165183333Y-110485911D01*
X165221429Y-110471696D01*
X165318830Y-110462677D01*
X165395000Y-110461000D01*
X165525515Y-110469653D01*
X165597827Y-110493000D01*
X165606666Y-110507794D01*
X165618391Y-110567136D01*
X165649732Y-110685975D01*
X165694941Y-110843031D01*
X165717297Y-110917292D01*
X165769437Y-111083159D01*
X165809118Y-111181275D01*
X165843186Y-111208944D01*
X165878487Y-111163473D01*
X165921866Y-111042166D01*
X165980170Y-110842330D01*
X165989257Y-110810250D01*
X166088124Y-110461000D01*
X166296424Y-110461000D01*
X166427479Y-110468153D01*
G36*
X162812666Y-111858000D02*
G01*
X162389333Y-111858000D01*
X162389333Y-110461000D01*
X162812666Y-110461000D01*
X162812666Y-111858000D01*
G37*
X162812666Y-111858000D02*
X162389333Y-111858000D01*
X162389333Y-110461000D01*
X162812666Y-110461000D01*
X162812666Y-111858000D01*
G36*
X157756334Y-110610438D02*
G01*
X157843330Y-110836375D01*
X157919243Y-111018891D01*
X157979504Y-111147938D01*
X158019541Y-111213468D01*
X158032444Y-111217426D01*
X158057438Y-111161690D01*
X158105603Y-111041610D01*
X158171032Y-110872362D01*
X158247816Y-110669118D01*
X158288435Y-110559988D01*
X158513247Y-109953000D01*
X159045000Y-109953000D01*
X159045000Y-111858000D01*
X158621666Y-111858000D01*
X158619703Y-111275916D01*
X158617739Y-110693833D01*
X158397453Y-111277279D01*
X158177166Y-111860726D01*
X158009521Y-111848779D01*
X157841875Y-111836833D01*
X157628521Y-111272430D01*
X157415166Y-110708027D01*
X157403388Y-111283013D01*
X157391610Y-111858000D01*
X157013000Y-111858000D01*
X157013000Y-109953000D01*
X157511403Y-109953000D01*
X157756334Y-110610438D01*
G37*
X157756334Y-110610438D02*
X157843330Y-110836375D01*
X157919243Y-111018891D01*
X157979504Y-111147938D01*
X158019541Y-111213468D01*
X158032444Y-111217426D01*
X158057438Y-111161690D01*
X158105603Y-111041610D01*
X158171032Y-110872362D01*
X158247816Y-110669118D01*
X158288435Y-110559988D01*
X158513247Y-109953000D01*
X159045000Y-109953000D01*
X159045000Y-111858000D01*
X158621666Y-111858000D01*
X158619703Y-111275916D01*
X158617739Y-110693833D01*
X158397453Y-111277279D01*
X158177166Y-111860726D01*
X158009521Y-111848779D01*
X157841875Y-111836833D01*
X157628521Y-111272430D01*
X157415166Y-110708027D01*
X157403388Y-111283013D01*
X157391610Y-111858000D01*
X157013000Y-111858000D01*
X157013000Y-109953000D01*
X157511403Y-109953000D01*
X157756334Y-110610438D01*
G36*
X155997000Y-110061723D02*
G01*
X155971606Y-110141467D01*
X155897733Y-110282164D01*
X155778846Y-110477905D01*
X155618408Y-110722781D01*
X155552858Y-110819326D01*
X155410370Y-111029051D01*
X155283968Y-111218037D01*
X155181759Y-111373929D01*
X155111846Y-111484370D01*
X155082662Y-111536103D01*
X155080207Y-111565302D01*
X155108115Y-111584794D01*
X155179370Y-111596473D01*
X155306954Y-111602233D01*
X155503850Y-111603968D01*
X155547970Y-111604000D01*
X156039333Y-111604000D01*
X156039333Y-111858000D01*
X154557666Y-111858000D01*
X154557666Y-111731193D01*
X154573875Y-111658674D01*
X154625328Y-111548152D01*
X154716267Y-111392333D01*
X154850933Y-111183923D01*
X155023333Y-110930434D01*
X155167470Y-110720605D01*
X155293468Y-110534852D01*
X155393941Y-110384253D01*
X155461504Y-110279890D01*
X155488773Y-110232842D01*
X155489000Y-110231740D01*
X155449517Y-110221798D01*
X155342460Y-110213764D01*
X155184916Y-110208544D01*
X155023333Y-110207000D01*
X154557666Y-110207000D01*
X154557666Y-109953000D01*
X155997000Y-109953000D01*
X155997000Y-110061723D01*
G37*
X155997000Y-110061723D02*
X155971606Y-110141467D01*
X155897733Y-110282164D01*
X155778846Y-110477905D01*
X155618408Y-110722781D01*
X155552858Y-110819326D01*
X155410370Y-111029051D01*
X155283968Y-111218037D01*
X155181759Y-111373929D01*
X155111846Y-111484370D01*
X155082662Y-111536103D01*
X155080207Y-111565302D01*
X155108115Y-111584794D01*
X155179370Y-111596473D01*
X155306954Y-111602233D01*
X155503850Y-111603968D01*
X155547970Y-111604000D01*
X156039333Y-111604000D01*
X156039333Y-111858000D01*
X154557666Y-111858000D01*
X154557666Y-111731193D01*
X154573875Y-111658674D01*
X154625328Y-111548152D01*
X154716267Y-111392333D01*
X154850933Y-111183923D01*
X155023333Y-110930434D01*
X155167470Y-110720605D01*
X155293468Y-110534852D01*
X155393941Y-110384253D01*
X155461504Y-110279890D01*
X155488773Y-110232842D01*
X155489000Y-110231740D01*
X155449517Y-110221798D01*
X155342460Y-110213764D01*
X155184916Y-110208544D01*
X155023333Y-110207000D01*
X154557666Y-110207000D01*
X154557666Y-109953000D01*
X155997000Y-109953000D01*
X155997000Y-110061723D01*
G36*
X154084742Y-110877679D02*
G01*
X154182758Y-111140828D01*
X154269994Y-111377227D01*
X154342302Y-111575453D01*
X154395532Y-111724084D01*
X154425537Y-111811697D01*
X154430666Y-111830179D01*
X154392644Y-111846277D01*
X154295744Y-111856322D01*
X154225875Y-111858000D01*
X154021085Y-111858000D01*
X153941942Y-111625166D01*
X153862800Y-111392333D01*
X153218462Y-111392333D01*
X153145067Y-111625166D01*
X153071673Y-111858000D01*
X152859066Y-111858000D01*
X152724402Y-111850612D01*
X152664285Y-111826832D01*
X152660145Y-111804164D01*
X152678479Y-111750414D01*
X152722302Y-111629502D01*
X152787167Y-111453461D01*
X152868628Y-111234326D01*
X152916424Y-111106583D01*
X153329991Y-111106583D01*
X153368085Y-111124698D01*
X153465472Y-111136193D01*
X153541666Y-111138333D01*
X153662532Y-111132617D01*
X153739364Y-111118004D01*
X153753761Y-111106583D01*
X153740599Y-111045050D01*
X153706462Y-110937747D01*
X153660610Y-110809434D01*
X153612300Y-110684874D01*
X153570791Y-110588829D01*
X153545340Y-110546060D01*
X153544042Y-110545666D01*
X153520494Y-110581709D01*
X153479553Y-110673391D01*
X153430633Y-110796038D01*
X153383149Y-110924981D01*
X153346516Y-111035545D01*
X153330150Y-111103061D01*
X153329991Y-111106583D01*
X152916424Y-111106583D01*
X152962240Y-110984134D01*
X153012020Y-110851664D01*
X153350207Y-109953000D01*
X153738819Y-109953000D01*
X154084742Y-110877679D01*
G37*
X154084742Y-110877679D02*
X154182758Y-111140828D01*
X154269994Y-111377227D01*
X154342302Y-111575453D01*
X154395532Y-111724084D01*
X154425537Y-111811697D01*
X154430666Y-111830179D01*
X154392644Y-111846277D01*
X154295744Y-111856322D01*
X154225875Y-111858000D01*
X154021085Y-111858000D01*
X153941942Y-111625166D01*
X153862800Y-111392333D01*
X153218462Y-111392333D01*
X153145067Y-111625166D01*
X153071673Y-111858000D01*
X152859066Y-111858000D01*
X152724402Y-111850612D01*
X152664285Y-111826832D01*
X152660145Y-111804164D01*
X152678479Y-111750414D01*
X152722302Y-111629502D01*
X152787167Y-111453461D01*
X152868628Y-111234326D01*
X152916424Y-111106583D01*
X153329991Y-111106583D01*
X153368085Y-111124698D01*
X153465472Y-111136193D01*
X153541666Y-111138333D01*
X153662532Y-111132617D01*
X153739364Y-111118004D01*
X153753761Y-111106583D01*
X153740599Y-111045050D01*
X153706462Y-110937747D01*
X153660610Y-110809434D01*
X153612300Y-110684874D01*
X153570791Y-110588829D01*
X153545340Y-110546060D01*
X153544042Y-110545666D01*
X153520494Y-110581709D01*
X153479553Y-110673391D01*
X153430633Y-110796038D01*
X153383149Y-110924981D01*
X153346516Y-111035545D01*
X153330150Y-111103061D01*
X153329991Y-111106583D01*
X152916424Y-111106583D01*
X152962240Y-110984134D01*
X153012020Y-110851664D01*
X153350207Y-109953000D01*
X153738819Y-109953000D01*
X154084742Y-110877679D01*
G36*
X169908259Y-109975412D02*
G01*
X170006436Y-110014483D01*
X170043630Y-110036339D01*
X170153515Y-110124093D01*
X170232147Y-110237424D01*
X170283919Y-110390239D01*
X170313225Y-110596446D01*
X170324457Y-110869953D01*
X170324896Y-110926666D01*
X170323481Y-111150908D01*
X170315363Y-111311035D01*
X170297873Y-111427502D01*
X170268341Y-111520764D01*
X170239261Y-111582833D01*
X170106483Y-111753087D01*
X169920353Y-111860170D01*
X169688123Y-111900033D01*
X169670666Y-111900201D01*
X169514001Y-111882771D01*
X169364267Y-111839549D01*
X169334905Y-111826184D01*
X169195917Y-111720595D01*
X169096822Y-111561155D01*
X169033609Y-111338860D01*
X169004488Y-111084246D01*
X169003213Y-110744202D01*
X169016575Y-110648481D01*
X169418985Y-110648481D01*
X169420850Y-110831548D01*
X169424006Y-110961500D01*
X169430834Y-111181639D01*
X169439619Y-111333320D01*
X169453416Y-111432744D01*
X169475273Y-111496113D01*
X169508245Y-111539629D01*
X169537773Y-111565501D01*
X169629016Y-111629936D01*
X169696996Y-111636198D01*
X169779955Y-111584272D01*
X169803560Y-111565406D01*
X169844473Y-111528047D01*
X169872371Y-111483657D01*
X169889739Y-111416563D01*
X169899060Y-111311092D01*
X169902818Y-111151570D01*
X169903500Y-110934851D01*
X169902107Y-110703985D01*
X169896598Y-110541957D01*
X169884980Y-110432968D01*
X169865255Y-110361216D01*
X169835431Y-110310900D01*
X169822855Y-110296111D01*
X169716481Y-110219028D01*
X169611372Y-110226139D01*
X169505159Y-110317639D01*
X169501162Y-110322665D01*
X169462999Y-110377704D01*
X169437973Y-110438835D01*
X169423997Y-110523336D01*
X169418985Y-110648481D01*
X169016575Y-110648481D01*
X169043388Y-110456421D01*
X169123195Y-110229785D01*
X169203769Y-110109908D01*
X169275918Y-110038109D01*
X169349784Y-109996313D01*
X169453043Y-109974578D01*
X169612790Y-109962993D01*
X169787159Y-109959971D01*
X169908259Y-109975412D01*
G37*
X169908259Y-109975412D02*
X170006436Y-110014483D01*
X170043630Y-110036339D01*
X170153515Y-110124093D01*
X170232147Y-110237424D01*
X170283919Y-110390239D01*
X170313225Y-110596446D01*
X170324457Y-110869953D01*
X170324896Y-110926666D01*
X170323481Y-111150908D01*
X170315363Y-111311035D01*
X170297873Y-111427502D01*
X170268341Y-111520764D01*
X170239261Y-111582833D01*
X170106483Y-111753087D01*
X169920353Y-111860170D01*
X169688123Y-111900033D01*
X169670666Y-111900201D01*
X169514001Y-111882771D01*
X169364267Y-111839549D01*
X169334905Y-111826184D01*
X169195917Y-111720595D01*
X169096822Y-111561155D01*
X169033609Y-111338860D01*
X169004488Y-111084246D01*
X169003213Y-110744202D01*
X169016575Y-110648481D01*
X169418985Y-110648481D01*
X169420850Y-110831548D01*
X169424006Y-110961500D01*
X169430834Y-111181639D01*
X169439619Y-111333320D01*
X169453416Y-111432744D01*
X169475273Y-111496113D01*
X169508245Y-111539629D01*
X169537773Y-111565501D01*
X169629016Y-111629936D01*
X169696996Y-111636198D01*
X169779955Y-111584272D01*
X169803560Y-111565406D01*
X169844473Y-111528047D01*
X169872371Y-111483657D01*
X169889739Y-111416563D01*
X169899060Y-111311092D01*
X169902818Y-111151570D01*
X169903500Y-110934851D01*
X169902107Y-110703985D01*
X169896598Y-110541957D01*
X169884980Y-110432968D01*
X169865255Y-110361216D01*
X169835431Y-110310900D01*
X169822855Y-110296111D01*
X169716481Y-110219028D01*
X169611372Y-110226139D01*
X169505159Y-110317639D01*
X169501162Y-110322665D01*
X169462999Y-110377704D01*
X169437973Y-110438835D01*
X169423997Y-110523336D01*
X169418985Y-110648481D01*
X169016575Y-110648481D01*
X169043388Y-110456421D01*
X169123195Y-110229785D01*
X169203769Y-110109908D01*
X169275918Y-110038109D01*
X169349784Y-109996313D01*
X169453043Y-109974578D01*
X169612790Y-109962993D01*
X169787159Y-109959971D01*
X169908259Y-109975412D01*
G36*
X163878397Y-110441545D02*
G01*
X163988121Y-110451443D01*
X164060995Y-110476665D01*
X164120927Y-110524352D01*
X164170805Y-110578084D01*
X164224439Y-110641523D01*
X164259779Y-110701112D01*
X164280665Y-110775848D01*
X164290940Y-110884727D01*
X164294443Y-111046745D01*
X164294911Y-111191917D01*
X164297419Y-111393780D01*
X164303764Y-111572287D01*
X164312924Y-111705582D01*
X164321648Y-111765170D01*
X164331142Y-111819593D01*
X164310400Y-111848765D01*
X164241550Y-111860502D01*
X164106722Y-111862620D01*
X164098820Y-111862614D01*
X163907634Y-111866160D01*
X163704389Y-111875420D01*
X163617000Y-111881511D01*
X163415447Y-111880777D01*
X163272793Y-111838374D01*
X163268814Y-111836189D01*
X163139311Y-111729386D01*
X163076390Y-111582922D01*
X163066666Y-111468035D01*
X163075805Y-111423150D01*
X163447666Y-111423150D01*
X163476945Y-111510196D01*
X163544955Y-111595361D01*
X163621961Y-111643961D01*
X163639018Y-111646333D01*
X163705371Y-111621948D01*
X163796345Y-111562830D01*
X163801790Y-111558594D01*
X163895182Y-111441745D01*
X163913333Y-111346927D01*
X163903847Y-111261696D01*
X163857912Y-111228233D01*
X163774586Y-111223000D01*
X163636651Y-111246322D01*
X163521690Y-111305921D01*
X163455102Y-111386247D01*
X163447666Y-111423150D01*
X163075805Y-111423150D01*
X163103557Y-111286854D01*
X163210407Y-111147854D01*
X163381480Y-111055287D01*
X163611041Y-111013401D01*
X163682987Y-111011333D01*
X163922511Y-111011333D01*
X163893352Y-110895153D01*
X163856311Y-110789576D01*
X163820079Y-110725820D01*
X163732684Y-110677925D01*
X163624090Y-110684509D01*
X163534116Y-110741353D01*
X163522508Y-110757333D01*
X163463640Y-110813639D01*
X163363382Y-110838518D01*
X163272113Y-110842000D01*
X163152776Y-110837800D01*
X163098997Y-110819453D01*
X163091849Y-110778334D01*
X163095620Y-110761589D01*
X163138816Y-110681458D01*
X163219561Y-110583569D01*
X163242604Y-110560506D01*
X163312540Y-110499792D01*
X163381787Y-110463753D01*
X163474886Y-110446023D01*
X163616380Y-110440237D01*
X163707918Y-110439833D01*
X163878397Y-110441545D01*
G37*
X163878397Y-110441545D02*
X163988121Y-110451443D01*
X164060995Y-110476665D01*
X164120927Y-110524352D01*
X164170805Y-110578084D01*
X164224439Y-110641523D01*
X164259779Y-110701112D01*
X164280665Y-110775848D01*
X164290940Y-110884727D01*
X164294443Y-111046745D01*
X164294911Y-111191917D01*
X164297419Y-111393780D01*
X164303764Y-111572287D01*
X164312924Y-111705582D01*
X164321648Y-111765170D01*
X164331142Y-111819593D01*
X164310400Y-111848765D01*
X164241550Y-111860502D01*
X164106722Y-111862620D01*
X164098820Y-111862614D01*
X163907634Y-111866160D01*
X163704389Y-111875420D01*
X163617000Y-111881511D01*
X163415447Y-111880777D01*
X163272793Y-111838374D01*
X163268814Y-111836189D01*
X163139311Y-111729386D01*
X163076390Y-111582922D01*
X163066666Y-111468035D01*
X163075805Y-111423150D01*
X163447666Y-111423150D01*
X163476945Y-111510196D01*
X163544955Y-111595361D01*
X163621961Y-111643961D01*
X163639018Y-111646333D01*
X163705371Y-111621948D01*
X163796345Y-111562830D01*
X163801790Y-111558594D01*
X163895182Y-111441745D01*
X163913333Y-111346927D01*
X163903847Y-111261696D01*
X163857912Y-111228233D01*
X163774586Y-111223000D01*
X163636651Y-111246322D01*
X163521690Y-111305921D01*
X163455102Y-111386247D01*
X163447666Y-111423150D01*
X163075805Y-111423150D01*
X163103557Y-111286854D01*
X163210407Y-111147854D01*
X163381480Y-111055287D01*
X163611041Y-111013401D01*
X163682987Y-111011333D01*
X163922511Y-111011333D01*
X163893352Y-110895153D01*
X163856311Y-110789576D01*
X163820079Y-110725820D01*
X163732684Y-110677925D01*
X163624090Y-110684509D01*
X163534116Y-110741353D01*
X163522508Y-110757333D01*
X163463640Y-110813639D01*
X163363382Y-110838518D01*
X163272113Y-110842000D01*
X163152776Y-110837800D01*
X163098997Y-110819453D01*
X163091849Y-110778334D01*
X163095620Y-110761589D01*
X163138816Y-110681458D01*
X163219561Y-110583569D01*
X163242604Y-110560506D01*
X163312540Y-110499792D01*
X163381787Y-110463753D01*
X163474886Y-110446023D01*
X163616380Y-110440237D01*
X163707918Y-110439833D01*
X163878397Y-110441545D01*
G36*
X162093000Y-111862350D02*
G01*
X161870750Y-111859861D01*
X161688829Y-111862902D01*
X161489658Y-111873477D01*
X161415666Y-111879589D01*
X161228909Y-111883397D01*
X161094635Y-111850482D01*
X161066649Y-111836340D01*
X160920539Y-111706194D01*
X160826988Y-111511087D01*
X160786757Y-111253030D01*
X160787048Y-111104346D01*
X161167987Y-111104346D01*
X161178085Y-111280828D01*
X161226555Y-111439139D01*
X161308029Y-111549686D01*
X161399581Y-111621804D01*
X161463702Y-111639992D01*
X161534753Y-111608198D01*
X161575580Y-111580432D01*
X161622072Y-111539525D01*
X161650194Y-111483432D01*
X161664445Y-111391949D01*
X161669327Y-111244875D01*
X161669666Y-111158075D01*
X161667923Y-110982357D01*
X161659260Y-110870839D01*
X161638526Y-110803074D01*
X161600567Y-110758615D01*
X161562099Y-110731137D01*
X161461576Y-110685331D01*
X161367862Y-110700411D01*
X161354649Y-110706166D01*
X161257597Y-110792986D01*
X161194933Y-110933722D01*
X161167987Y-111104346D01*
X160787048Y-111104346D01*
X160787063Y-111096766D01*
X160799677Y-110917054D01*
X160823024Y-110793357D01*
X160864992Y-110697071D01*
X160919056Y-110618219D01*
X161055249Y-110491594D01*
X161228590Y-110428402D01*
X161451626Y-110424613D01*
X161503014Y-110430590D01*
X161669666Y-110452943D01*
X161669666Y-109868333D01*
X162093000Y-109868333D01*
X162093000Y-111862350D01*
G37*
X162093000Y-111862350D02*
X161870750Y-111859861D01*
X161688829Y-111862902D01*
X161489658Y-111873477D01*
X161415666Y-111879589D01*
X161228909Y-111883397D01*
X161094635Y-111850482D01*
X161066649Y-111836340D01*
X160920539Y-111706194D01*
X160826988Y-111511087D01*
X160786757Y-111253030D01*
X160787048Y-111104346D01*
X161167987Y-111104346D01*
X161178085Y-111280828D01*
X161226555Y-111439139D01*
X161308029Y-111549686D01*
X161399581Y-111621804D01*
X161463702Y-111639992D01*
X161534753Y-111608198D01*
X161575580Y-111580432D01*
X161622072Y-111539525D01*
X161650194Y-111483432D01*
X161664445Y-111391949D01*
X161669327Y-111244875D01*
X161669666Y-111158075D01*
X161667923Y-110982357D01*
X161659260Y-110870839D01*
X161638526Y-110803074D01*
X161600567Y-110758615D01*
X161562099Y-110731137D01*
X161461576Y-110685331D01*
X161367862Y-110700411D01*
X161354649Y-110706166D01*
X161257597Y-110792986D01*
X161194933Y-110933722D01*
X161167987Y-111104346D01*
X160787048Y-111104346D01*
X160787063Y-111096766D01*
X160799677Y-110917054D01*
X160823024Y-110793357D01*
X160864992Y-110697071D01*
X160919056Y-110618219D01*
X161055249Y-110491594D01*
X161228590Y-110428402D01*
X161451626Y-110424613D01*
X161503014Y-110430590D01*
X161669666Y-110452943D01*
X161669666Y-109868333D01*
X162093000Y-109868333D01*
X162093000Y-111862350D01*
G36*
X160206537Y-110453660D02*
G01*
X160395710Y-110554792D01*
X160528869Y-110716288D01*
X160600352Y-110932375D01*
X160611333Y-111075690D01*
X160611333Y-111223000D01*
X160169331Y-111223000D01*
X159984061Y-111226708D01*
X159831820Y-111236726D01*
X159731513Y-111251391D01*
X159701935Y-111264090D01*
X159700308Y-111337082D01*
X159746183Y-111436207D01*
X159821675Y-111533809D01*
X159908900Y-111602234D01*
X159925444Y-111609700D01*
X160014179Y-111630023D01*
X160108114Y-111611547D01*
X160222052Y-111558444D01*
X160404272Y-111462791D01*
X160493735Y-111552253D01*
X160551913Y-111626122D01*
X160546831Y-111682805D01*
X160531818Y-111703625D01*
X160398715Y-111805380D01*
X160214023Y-111870968D01*
X160004326Y-111896743D01*
X159796207Y-111879058D01*
X159638510Y-111826184D01*
X159466186Y-111703093D01*
X159356459Y-111534142D01*
X159304692Y-111310574D01*
X159299065Y-111184989D01*
X159317066Y-111011333D01*
X159684404Y-111011333D01*
X159951498Y-111011333D01*
X160096250Y-111009799D01*
X160174257Y-110999942D01*
X160203436Y-110973876D01*
X160201709Y-110923715D01*
X160197867Y-110902919D01*
X160140582Y-110775419D01*
X160043478Y-110706324D01*
X159929023Y-110696684D01*
X159819680Y-110747551D01*
X159737914Y-110859977D01*
X159729834Y-110881011D01*
X159684404Y-111011333D01*
X159317066Y-111011333D01*
X159327946Y-110906385D01*
X159413664Y-110689157D01*
X159555048Y-110534648D01*
X159750927Y-110444201D01*
X159967013Y-110418666D01*
X160206537Y-110453660D01*
G37*
X160206537Y-110453660D02*
X160395710Y-110554792D01*
X160528869Y-110716288D01*
X160600352Y-110932375D01*
X160611333Y-111075690D01*
X160611333Y-111223000D01*
X160169331Y-111223000D01*
X159984061Y-111226708D01*
X159831820Y-111236726D01*
X159731513Y-111251391D01*
X159701935Y-111264090D01*
X159700308Y-111337082D01*
X159746183Y-111436207D01*
X159821675Y-111533809D01*
X159908900Y-111602234D01*
X159925444Y-111609700D01*
X160014179Y-111630023D01*
X160108114Y-111611547D01*
X160222052Y-111558444D01*
X160404272Y-111462791D01*
X160493735Y-111552253D01*
X160551913Y-111626122D01*
X160546831Y-111682805D01*
X160531818Y-111703625D01*
X160398715Y-111805380D01*
X160214023Y-111870968D01*
X160004326Y-111896743D01*
X159796207Y-111879058D01*
X159638510Y-111826184D01*
X159466186Y-111703093D01*
X159356459Y-111534142D01*
X159304692Y-111310574D01*
X159299065Y-111184989D01*
X159317066Y-111011333D01*
X159684404Y-111011333D01*
X159951498Y-111011333D01*
X160096250Y-111009799D01*
X160174257Y-110999942D01*
X160203436Y-110973876D01*
X160201709Y-110923715D01*
X160197867Y-110902919D01*
X160140582Y-110775419D01*
X160043478Y-110706324D01*
X159929023Y-110696684D01*
X159819680Y-110747551D01*
X159737914Y-110859977D01*
X159729834Y-110881011D01*
X159684404Y-111011333D01*
X159317066Y-111011333D01*
X159327946Y-110906385D01*
X159413664Y-110689157D01*
X159555048Y-110534648D01*
X159750927Y-110444201D01*
X159967013Y-110418666D01*
X160206537Y-110453660D01*
G36*
X151924409Y-109981752D02*
G01*
X152142987Y-110069483D01*
X152305860Y-110218404D01*
X152414942Y-110430727D01*
X152472144Y-110708663D01*
X152482403Y-110917443D01*
X152465741Y-111209433D01*
X152411437Y-111437375D01*
X152315627Y-111614858D01*
X152268097Y-111671299D01*
X152183901Y-111760921D01*
X152336737Y-111877494D01*
X152489572Y-111994068D01*
X152394407Y-112095367D01*
X152318253Y-112165484D01*
X152249825Y-112188361D01*
X152167442Y-112161388D01*
X152049421Y-112081954D01*
X152005127Y-112048500D01*
X151859024Y-111951945D01*
X151731257Y-111907671D01*
X151637846Y-111900333D01*
X151392013Y-111862505D01*
X151184085Y-111754324D01*
X151019778Y-111583747D01*
X150904808Y-111358731D01*
X150844890Y-111087232D01*
X150844404Y-110926666D01*
X151255666Y-110926666D01*
X151273131Y-111170145D01*
X151329750Y-111356127D01*
X151431863Y-111505164D01*
X151435199Y-111508750D01*
X151560336Y-111585611D01*
X151714967Y-111601282D01*
X151850678Y-111560411D01*
X151965534Y-111451118D01*
X152039709Y-111268708D01*
X152072707Y-111014590D01*
X152074504Y-110926666D01*
X152054939Y-110654422D01*
X151994897Y-110454408D01*
X151892358Y-110323424D01*
X151745302Y-110258270D01*
X151646829Y-110249333D01*
X151501138Y-110288424D01*
X151384830Y-110399874D01*
X151302947Y-110574951D01*
X151260534Y-110804922D01*
X151255666Y-110926666D01*
X150844404Y-110926666D01*
X150844005Y-110795258D01*
X150901767Y-110498799D01*
X151014121Y-110263531D01*
X151178379Y-110092267D01*
X151391857Y-109987821D01*
X151648213Y-109953000D01*
X151924409Y-109981752D01*
G37*
X151924409Y-109981752D02*
X152142987Y-110069483D01*
X152305860Y-110218404D01*
X152414942Y-110430727D01*
X152472144Y-110708663D01*
X152482403Y-110917443D01*
X152465741Y-111209433D01*
X152411437Y-111437375D01*
X152315627Y-111614858D01*
X152268097Y-111671299D01*
X152183901Y-111760921D01*
X152336737Y-111877494D01*
X152489572Y-111994068D01*
X152394407Y-112095367D01*
X152318253Y-112165484D01*
X152249825Y-112188361D01*
X152167442Y-112161388D01*
X152049421Y-112081954D01*
X152005127Y-112048500D01*
X151859024Y-111951945D01*
X151731257Y-111907671D01*
X151637846Y-111900333D01*
X151392013Y-111862505D01*
X151184085Y-111754324D01*
X151019778Y-111583747D01*
X150904808Y-111358731D01*
X150844890Y-111087232D01*
X150844404Y-110926666D01*
X151255666Y-110926666D01*
X151273131Y-111170145D01*
X151329750Y-111356127D01*
X151431863Y-111505164D01*
X151435199Y-111508750D01*
X151560336Y-111585611D01*
X151714967Y-111601282D01*
X151850678Y-111560411D01*
X151965534Y-111451118D01*
X152039709Y-111268708D01*
X152072707Y-111014590D01*
X152074504Y-110926666D01*
X152054939Y-110654422D01*
X151994897Y-110454408D01*
X151892358Y-110323424D01*
X151745302Y-110258270D01*
X151646829Y-110249333D01*
X151501138Y-110288424D01*
X151384830Y-110399874D01*
X151302947Y-110574951D01*
X151260534Y-110804922D01*
X151255666Y-110926666D01*
X150844404Y-110926666D01*
X150844005Y-110795258D01*
X150901767Y-110498799D01*
X151014121Y-110263531D01*
X151178379Y-110092267D01*
X151391857Y-109987821D01*
X151648213Y-109953000D01*
X151924409Y-109981752D01*
D11*
%TO.C,H2*%
X82894000Y-102500000D02*
G75*
G03*
X82894000Y-102500000I-2794000J0D01*
G01*
%TO.C,H1*%
X175394000Y-102500000D02*
G75*
G03*
X175394000Y-102500000I-2794000J0D01*
G01*
%TO.C,SB2*%
X134490000Y-95328733D02*
X134490000Y-95671267D01*
X135510000Y-95328733D02*
X135510000Y-95671267D01*
%TO.C,Y1*%
X104750000Y-108390000D02*
X98750000Y-108390000D01*
X104750000Y-112110000D02*
X98750000Y-112110000D01*
%TO.C,U2*%
X111110000Y-99340000D02*
X111110000Y-98890000D01*
X111110000Y-98890000D02*
X110660000Y-98890000D01*
X111110000Y-105660000D02*
X111110000Y-106110000D01*
X111110000Y-106110000D02*
X110660000Y-106110000D01*
X103890000Y-99340000D02*
X103890000Y-98890000D01*
X103890000Y-98890000D02*
X104340000Y-98890000D01*
X103890000Y-105660000D02*
X103890000Y-106110000D01*
X103890000Y-106110000D02*
X104340000Y-106110000D01*
X104340000Y-106110000D02*
X104340000Y-107400000D01*
%TO.C,U1*%
X138390000Y-94500000D02*
X138390000Y-96950000D01*
X141610000Y-96300000D02*
X141610000Y-94500000D01*
%TO.C,TP3*%
X81700000Y-97850000D02*
X86900000Y-97850000D01*
X86900000Y-93950000D02*
X86900000Y-97850000D01*
X81700000Y-97850000D02*
X81700000Y-93950000D01*
X86900000Y-93950000D02*
X81700000Y-93950000D01*
%TO.C,TP2*%
X133100000Y-111750000D02*
X138300000Y-111750000D01*
X138300000Y-107850000D02*
X138300000Y-111750000D01*
X133100000Y-111750000D02*
X133100000Y-107850000D01*
X138300000Y-107850000D02*
X133100000Y-107850000D01*
%TO.C,SW1*%
X89600000Y-98250000D02*
X89600000Y-106750000D01*
X86100000Y-98250000D02*
X89600000Y-98250000D01*
X86100000Y-106750000D02*
X86100000Y-98250000D01*
X89600000Y-106750000D02*
X86100000Y-106750000D01*
%TO.C,SB4*%
X150071267Y-97590000D02*
X149728733Y-97590000D01*
X150071267Y-98610000D02*
X149728733Y-98610000D01*
%TO.C,SB3*%
X150071267Y-95990000D02*
X149728733Y-95990000D01*
X150071267Y-97010000D02*
X149728733Y-97010000D01*
%TO.C,SB1*%
X142490000Y-95328733D02*
X142490000Y-95671267D01*
X143510000Y-95328733D02*
X143510000Y-95671267D01*
%TO.C,R18*%
X115671267Y-99490000D02*
X115328733Y-99490000D01*
X115671267Y-100510000D02*
X115328733Y-100510000D01*
%TO.C,R17*%
X87371267Y-107490000D02*
X87028733Y-107490000D01*
X87371267Y-108510000D02*
X87028733Y-108510000D01*
%TO.C,R16*%
X161928733Y-91710000D02*
X162271267Y-91710000D01*
X161928733Y-90690000D02*
X162271267Y-90690000D01*
%TO.C,R15*%
X129671267Y-100740000D02*
X129328733Y-100740000D01*
X129671267Y-101760000D02*
X129328733Y-101760000D01*
%TO.C,R14*%
X96260000Y-106921267D02*
X96260000Y-106578733D01*
X95240000Y-106921267D02*
X95240000Y-106578733D01*
%TO.C,R13*%
X144921267Y-100740000D02*
X144578733Y-100740000D01*
X144921267Y-101760000D02*
X144578733Y-101760000D01*
%TO.C,R12*%
X95240000Y-103078733D02*
X95240000Y-103421267D01*
X96260000Y-103078733D02*
X96260000Y-103421267D01*
%TO.C,R11*%
X91240000Y-102328733D02*
X91240000Y-102671267D01*
X92260000Y-102328733D02*
X92260000Y-102671267D01*
%TO.C,R10*%
X92990000Y-102328733D02*
X92990000Y-102671267D01*
X94010000Y-102328733D02*
X94010000Y-102671267D01*
%TO.C,R9*%
X153490000Y-97278733D02*
X153490000Y-97621267D01*
X154510000Y-97278733D02*
X154510000Y-97621267D01*
%TO.C,R8*%
X160578733Y-100510000D02*
X160921267Y-100510000D01*
X160578733Y-99490000D02*
X160921267Y-99490000D01*
%TO.C,R7*%
X98828733Y-94760000D02*
X99171267Y-94760000D01*
X98828733Y-93740000D02*
X99171267Y-93740000D01*
%TO.C,R6*%
X102328733Y-94760000D02*
X102671267Y-94760000D01*
X102328733Y-93740000D02*
X102671267Y-93740000D01*
%TO.C,R5*%
X114328733Y-109510000D02*
X114671267Y-109510000D01*
X114328733Y-108490000D02*
X114671267Y-108490000D01*
%TO.C,R4*%
X124710000Y-108171267D02*
X124710000Y-107828733D01*
X123690000Y-108171267D02*
X123690000Y-107828733D01*
%TO.C,R3*%
X122760000Y-94321267D02*
X122760000Y-93978733D01*
X121740000Y-94321267D02*
X121740000Y-93978733D01*
%TO.C,R2*%
X91671267Y-110240000D02*
X91328733Y-110240000D01*
X91671267Y-111260000D02*
X91328733Y-111260000D01*
%TO.C,R1*%
X128010000Y-94321267D02*
X128010000Y-93978733D01*
X126990000Y-94321267D02*
X126990000Y-93978733D01*
%TO.C,D3*%
X126310000Y-108171267D02*
X126310000Y-107828733D01*
X125290000Y-108171267D02*
X125290000Y-107828733D01*
%TO.C,D2*%
X124510000Y-94321267D02*
X124510000Y-93978733D01*
X123490000Y-94321267D02*
X123490000Y-93978733D01*
%TO.C,D1*%
X126260000Y-94321267D02*
X126260000Y-93978733D01*
X125240000Y-94321267D02*
X125240000Y-93978733D01*
%TO.C,C11*%
X95240000Y-99578733D02*
X95240000Y-99921267D01*
X96260000Y-99578733D02*
X96260000Y-99921267D01*
%TO.C,C10*%
X96260000Y-96421267D02*
X96260000Y-96078733D01*
X95240000Y-96421267D02*
X95240000Y-96078733D01*
%TO.C,C9*%
X136490000Y-95328733D02*
X136490000Y-95671267D01*
X137510000Y-95328733D02*
X137510000Y-95671267D01*
%TO.C,C8*%
X112760000Y-97671267D02*
X112760000Y-97328733D01*
X111740000Y-97671267D02*
X111740000Y-97328733D01*
%TO.C,C7*%
X111171267Y-108490000D02*
X110828733Y-108490000D01*
X111171267Y-109510000D02*
X110828733Y-109510000D01*
%TO.C,C6*%
X144490000Y-95328733D02*
X144490000Y-95671267D01*
X145510000Y-95328733D02*
X145510000Y-95671267D01*
%TO.C,C5*%
X101910000Y-105771267D02*
X101910000Y-105428733D01*
X100890000Y-105771267D02*
X100890000Y-105428733D01*
%TO.C,C4*%
X106740000Y-110578733D02*
X106740000Y-110921267D01*
X107760000Y-110578733D02*
X107760000Y-110921267D01*
%TO.C,C3*%
X94390000Y-110578733D02*
X94390000Y-110921267D01*
X95410000Y-110578733D02*
X95410000Y-110921267D01*
%TO.C,C2*%
X146290000Y-95238748D02*
X146290000Y-95761252D01*
X147710000Y-95238748D02*
X147710000Y-95761252D01*
%TO.C,C1*%
X103710000Y-96921267D02*
X103710000Y-96578733D01*
X102690000Y-96921267D02*
X102690000Y-96578733D01*
%TO.C,D4*%
D12*
X116811904Y-112302380D02*
X116811904Y-111302380D01*
X117050000Y-111302380D01*
X117192857Y-111350000D01*
X117288095Y-111445238D01*
X117335714Y-111540476D01*
X117383333Y-111730952D01*
X117383333Y-111873809D01*
X117335714Y-112064285D01*
X117288095Y-112159523D01*
X117192857Y-112254761D01*
X117050000Y-112302380D01*
X116811904Y-112302380D01*
X118240476Y-111635714D02*
X118240476Y-112302380D01*
X118002380Y-111254761D02*
X117764285Y-111969047D01*
X118383333Y-111969047D01*
%TO.C,SB2*%
X133338095Y-98404761D02*
X133480952Y-98452380D01*
X133719047Y-98452380D01*
X133814285Y-98404761D01*
X133861904Y-98357142D01*
X133909523Y-98261904D01*
X133909523Y-98166666D01*
X133861904Y-98071428D01*
X133814285Y-98023809D01*
X133719047Y-97976190D01*
X133528571Y-97928571D01*
X133433333Y-97880952D01*
X133385714Y-97833333D01*
X133338095Y-97738095D01*
X133338095Y-97642857D01*
X133385714Y-97547619D01*
X133433333Y-97500000D01*
X133528571Y-97452380D01*
X133766666Y-97452380D01*
X133909523Y-97500000D01*
X134671428Y-97928571D02*
X134814285Y-97976190D01*
X134861904Y-98023809D01*
X134909523Y-98119047D01*
X134909523Y-98261904D01*
X134861904Y-98357142D01*
X134814285Y-98404761D01*
X134719047Y-98452380D01*
X134338095Y-98452380D01*
X134338095Y-97452380D01*
X134671428Y-97452380D01*
X134766666Y-97500000D01*
X134814285Y-97547619D01*
X134861904Y-97642857D01*
X134861904Y-97738095D01*
X134814285Y-97833333D01*
X134766666Y-97880952D01*
X134671428Y-97928571D01*
X134338095Y-97928571D01*
X135290476Y-97547619D02*
X135338095Y-97500000D01*
X135433333Y-97452380D01*
X135671428Y-97452380D01*
X135766666Y-97500000D01*
X135814285Y-97547619D01*
X135861904Y-97642857D01*
X135861904Y-97738095D01*
X135814285Y-97880952D01*
X135242857Y-98452380D01*
X135861904Y-98452380D01*
%TO.C,Y1*%
X96323809Y-111776190D02*
X96323809Y-112252380D01*
X95990476Y-111252380D02*
X96323809Y-111776190D01*
X96657142Y-111252380D01*
X97514285Y-112252380D02*
X96942857Y-112252380D01*
X97228571Y-112252380D02*
X97228571Y-111252380D01*
X97133333Y-111395238D01*
X97038095Y-111490476D01*
X96942857Y-111538095D01*
%TO.C,U2*%
X100438095Y-99252380D02*
X100438095Y-100061904D01*
X100485714Y-100157142D01*
X100533333Y-100204761D01*
X100628571Y-100252380D01*
X100819047Y-100252380D01*
X100914285Y-100204761D01*
X100961904Y-100157142D01*
X101009523Y-100061904D01*
X101009523Y-99252380D01*
X101438095Y-99347619D02*
X101485714Y-99300000D01*
X101580952Y-99252380D01*
X101819047Y-99252380D01*
X101914285Y-99300000D01*
X101961904Y-99347619D01*
X102009523Y-99442857D01*
X102009523Y-99538095D01*
X101961904Y-99680952D01*
X101390476Y-100252380D01*
X102009523Y-100252380D01*
%TO.C,U1*%
X139138095Y-92352380D02*
X139138095Y-93161904D01*
X139185714Y-93257142D01*
X139233333Y-93304761D01*
X139328571Y-93352380D01*
X139519047Y-93352380D01*
X139614285Y-93304761D01*
X139661904Y-93257142D01*
X139709523Y-93161904D01*
X139709523Y-92352380D01*
X140709523Y-93352380D02*
X140138095Y-93352380D01*
X140423809Y-93352380D02*
X140423809Y-92352380D01*
X140328571Y-92495238D01*
X140233333Y-92590476D01*
X140138095Y-92638095D01*
%TO.C,SW1*%
X89866666Y-99204761D02*
X90009523Y-99252380D01*
X90247619Y-99252380D01*
X90342857Y-99204761D01*
X90390476Y-99157142D01*
X90438095Y-99061904D01*
X90438095Y-98966666D01*
X90390476Y-98871428D01*
X90342857Y-98823809D01*
X90247619Y-98776190D01*
X90057142Y-98728571D01*
X89961904Y-98680952D01*
X89914285Y-98633333D01*
X89866666Y-98538095D01*
X89866666Y-98442857D01*
X89914285Y-98347619D01*
X89961904Y-98300000D01*
X90057142Y-98252380D01*
X90295238Y-98252380D01*
X90438095Y-98300000D01*
X90771428Y-98252380D02*
X91009523Y-99252380D01*
X91200000Y-98538095D01*
X91390476Y-99252380D01*
X91628571Y-98252380D01*
X92533333Y-99252380D02*
X91961904Y-99252380D01*
X92247619Y-99252380D02*
X92247619Y-98252380D01*
X92152380Y-98395238D01*
X92057142Y-98490476D01*
X91961904Y-98538095D01*
%TO.C,SB4*%
X150938095Y-100004761D02*
X151080952Y-100052380D01*
X151319047Y-100052380D01*
X151414285Y-100004761D01*
X151461904Y-99957142D01*
X151509523Y-99861904D01*
X151509523Y-99766666D01*
X151461904Y-99671428D01*
X151414285Y-99623809D01*
X151319047Y-99576190D01*
X151128571Y-99528571D01*
X151033333Y-99480952D01*
X150985714Y-99433333D01*
X150938095Y-99338095D01*
X150938095Y-99242857D01*
X150985714Y-99147619D01*
X151033333Y-99100000D01*
X151128571Y-99052380D01*
X151366666Y-99052380D01*
X151509523Y-99100000D01*
X152271428Y-99528571D02*
X152414285Y-99576190D01*
X152461904Y-99623809D01*
X152509523Y-99719047D01*
X152509523Y-99861904D01*
X152461904Y-99957142D01*
X152414285Y-100004761D01*
X152319047Y-100052380D01*
X151938095Y-100052380D01*
X151938095Y-99052380D01*
X152271428Y-99052380D01*
X152366666Y-99100000D01*
X152414285Y-99147619D01*
X152461904Y-99242857D01*
X152461904Y-99338095D01*
X152414285Y-99433333D01*
X152366666Y-99480952D01*
X152271428Y-99528571D01*
X151938095Y-99528571D01*
X153366666Y-99385714D02*
X153366666Y-100052380D01*
X153128571Y-99004761D02*
X152890476Y-99719047D01*
X153509523Y-99719047D01*
%TO.C,SB3*%
X148538095Y-95404761D02*
X148680952Y-95452380D01*
X148919047Y-95452380D01*
X149014285Y-95404761D01*
X149061904Y-95357142D01*
X149109523Y-95261904D01*
X149109523Y-95166666D01*
X149061904Y-95071428D01*
X149014285Y-95023809D01*
X148919047Y-94976190D01*
X148728571Y-94928571D01*
X148633333Y-94880952D01*
X148585714Y-94833333D01*
X148538095Y-94738095D01*
X148538095Y-94642857D01*
X148585714Y-94547619D01*
X148633333Y-94500000D01*
X148728571Y-94452380D01*
X148966666Y-94452380D01*
X149109523Y-94500000D01*
X149871428Y-94928571D02*
X150014285Y-94976190D01*
X150061904Y-95023809D01*
X150109523Y-95119047D01*
X150109523Y-95261904D01*
X150061904Y-95357142D01*
X150014285Y-95404761D01*
X149919047Y-95452380D01*
X149538095Y-95452380D01*
X149538095Y-94452380D01*
X149871428Y-94452380D01*
X149966666Y-94500000D01*
X150014285Y-94547619D01*
X150061904Y-94642857D01*
X150061904Y-94738095D01*
X150014285Y-94833333D01*
X149966666Y-94880952D01*
X149871428Y-94928571D01*
X149538095Y-94928571D01*
X150442857Y-94452380D02*
X151061904Y-94452380D01*
X150728571Y-94833333D01*
X150871428Y-94833333D01*
X150966666Y-94880952D01*
X151014285Y-94928571D01*
X151061904Y-95023809D01*
X151061904Y-95261904D01*
X151014285Y-95357142D01*
X150966666Y-95404761D01*
X150871428Y-95452380D01*
X150585714Y-95452380D01*
X150490476Y-95404761D01*
X150442857Y-95357142D01*
%TO.C,SB1*%
X141538095Y-98404761D02*
X141680952Y-98452380D01*
X141919047Y-98452380D01*
X142014285Y-98404761D01*
X142061904Y-98357142D01*
X142109523Y-98261904D01*
X142109523Y-98166666D01*
X142061904Y-98071428D01*
X142014285Y-98023809D01*
X141919047Y-97976190D01*
X141728571Y-97928571D01*
X141633333Y-97880952D01*
X141585714Y-97833333D01*
X141538095Y-97738095D01*
X141538095Y-97642857D01*
X141585714Y-97547619D01*
X141633333Y-97500000D01*
X141728571Y-97452380D01*
X141966666Y-97452380D01*
X142109523Y-97500000D01*
X142871428Y-97928571D02*
X143014285Y-97976190D01*
X143061904Y-98023809D01*
X143109523Y-98119047D01*
X143109523Y-98261904D01*
X143061904Y-98357142D01*
X143014285Y-98404761D01*
X142919047Y-98452380D01*
X142538095Y-98452380D01*
X142538095Y-97452380D01*
X142871428Y-97452380D01*
X142966666Y-97500000D01*
X143014285Y-97547619D01*
X143061904Y-97642857D01*
X143061904Y-97738095D01*
X143014285Y-97833333D01*
X142966666Y-97880952D01*
X142871428Y-97928571D01*
X142538095Y-97928571D01*
X144061904Y-98452380D02*
X143490476Y-98452380D01*
X143776190Y-98452380D02*
X143776190Y-97452380D01*
X143680952Y-97595238D01*
X143585714Y-97690476D01*
X143490476Y-97738095D01*
%TO.C,R18*%
X114857142Y-101882380D02*
X114523809Y-101406190D01*
X114285714Y-101882380D02*
X114285714Y-100882380D01*
X114666666Y-100882380D01*
X114761904Y-100930000D01*
X114809523Y-100977619D01*
X114857142Y-101072857D01*
X114857142Y-101215714D01*
X114809523Y-101310952D01*
X114761904Y-101358571D01*
X114666666Y-101406190D01*
X114285714Y-101406190D01*
X115809523Y-101882380D02*
X115238095Y-101882380D01*
X115523809Y-101882380D02*
X115523809Y-100882380D01*
X115428571Y-101025238D01*
X115333333Y-101120476D01*
X115238095Y-101168095D01*
X116380952Y-101310952D02*
X116285714Y-101263333D01*
X116238095Y-101215714D01*
X116190476Y-101120476D01*
X116190476Y-101072857D01*
X116238095Y-100977619D01*
X116285714Y-100930000D01*
X116380952Y-100882380D01*
X116571428Y-100882380D01*
X116666666Y-100930000D01*
X116714285Y-100977619D01*
X116761904Y-101072857D01*
X116761904Y-101120476D01*
X116714285Y-101215714D01*
X116666666Y-101263333D01*
X116571428Y-101310952D01*
X116380952Y-101310952D01*
X116285714Y-101358571D01*
X116238095Y-101406190D01*
X116190476Y-101501428D01*
X116190476Y-101691904D01*
X116238095Y-101787142D01*
X116285714Y-101834761D01*
X116380952Y-101882380D01*
X116571428Y-101882380D01*
X116666666Y-101834761D01*
X116714285Y-101787142D01*
X116761904Y-101691904D01*
X116761904Y-101501428D01*
X116714285Y-101406190D01*
X116666666Y-101358571D01*
X116571428Y-101310952D01*
%TO.C,R17*%
X83357142Y-108452380D02*
X83023809Y-107976190D01*
X82785714Y-108452380D02*
X82785714Y-107452380D01*
X83166666Y-107452380D01*
X83261904Y-107500000D01*
X83309523Y-107547619D01*
X83357142Y-107642857D01*
X83357142Y-107785714D01*
X83309523Y-107880952D01*
X83261904Y-107928571D01*
X83166666Y-107976190D01*
X82785714Y-107976190D01*
X84309523Y-108452380D02*
X83738095Y-108452380D01*
X84023809Y-108452380D02*
X84023809Y-107452380D01*
X83928571Y-107595238D01*
X83833333Y-107690476D01*
X83738095Y-107738095D01*
X84642857Y-107452380D02*
X85309523Y-107452380D01*
X84880952Y-108452380D01*
%TO.C,R16*%
X161457142Y-90252380D02*
X161123809Y-89776190D01*
X160885714Y-90252380D02*
X160885714Y-89252380D01*
X161266666Y-89252380D01*
X161361904Y-89300000D01*
X161409523Y-89347619D01*
X161457142Y-89442857D01*
X161457142Y-89585714D01*
X161409523Y-89680952D01*
X161361904Y-89728571D01*
X161266666Y-89776190D01*
X160885714Y-89776190D01*
X162409523Y-90252380D02*
X161838095Y-90252380D01*
X162123809Y-90252380D02*
X162123809Y-89252380D01*
X162028571Y-89395238D01*
X161933333Y-89490476D01*
X161838095Y-89538095D01*
X163266666Y-89252380D02*
X163076190Y-89252380D01*
X162980952Y-89300000D01*
X162933333Y-89347619D01*
X162838095Y-89490476D01*
X162790476Y-89680952D01*
X162790476Y-90061904D01*
X162838095Y-90157142D01*
X162885714Y-90204761D01*
X162980952Y-90252380D01*
X163171428Y-90252380D01*
X163266666Y-90204761D01*
X163314285Y-90157142D01*
X163361904Y-90061904D01*
X163361904Y-89823809D01*
X163314285Y-89728571D01*
X163266666Y-89680952D01*
X163171428Y-89633333D01*
X162980952Y-89633333D01*
X162885714Y-89680952D01*
X162838095Y-89728571D01*
X162790476Y-89823809D01*
%TO.C,R15*%
X128857142Y-103132380D02*
X128523809Y-102656190D01*
X128285714Y-103132380D02*
X128285714Y-102132380D01*
X128666666Y-102132380D01*
X128761904Y-102180000D01*
X128809523Y-102227619D01*
X128857142Y-102322857D01*
X128857142Y-102465714D01*
X128809523Y-102560952D01*
X128761904Y-102608571D01*
X128666666Y-102656190D01*
X128285714Y-102656190D01*
X129809523Y-103132380D02*
X129238095Y-103132380D01*
X129523809Y-103132380D02*
X129523809Y-102132380D01*
X129428571Y-102275238D01*
X129333333Y-102370476D01*
X129238095Y-102418095D01*
X130714285Y-102132380D02*
X130238095Y-102132380D01*
X130190476Y-102608571D01*
X130238095Y-102560952D01*
X130333333Y-102513333D01*
X130571428Y-102513333D01*
X130666666Y-102560952D01*
X130714285Y-102608571D01*
X130761904Y-102703809D01*
X130761904Y-102941904D01*
X130714285Y-103037142D01*
X130666666Y-103084761D01*
X130571428Y-103132380D01*
X130333333Y-103132380D01*
X130238095Y-103084761D01*
X130190476Y-103037142D01*
%TO.C,R14*%
X97652380Y-107442857D02*
X97176190Y-107776190D01*
X97652380Y-108014285D02*
X96652380Y-108014285D01*
X96652380Y-107633333D01*
X96700000Y-107538095D01*
X96747619Y-107490476D01*
X96842857Y-107442857D01*
X96985714Y-107442857D01*
X97080952Y-107490476D01*
X97128571Y-107538095D01*
X97176190Y-107633333D01*
X97176190Y-108014285D01*
X97652380Y-106490476D02*
X97652380Y-107061904D01*
X97652380Y-106776190D02*
X96652380Y-106776190D01*
X96795238Y-106871428D01*
X96890476Y-106966666D01*
X96938095Y-107061904D01*
X96985714Y-105633333D02*
X97652380Y-105633333D01*
X96604761Y-105871428D02*
X97319047Y-106109523D01*
X97319047Y-105490476D01*
%TO.C,R13*%
X144107142Y-103132380D02*
X143773809Y-102656190D01*
X143535714Y-103132380D02*
X143535714Y-102132380D01*
X143916666Y-102132380D01*
X144011904Y-102180000D01*
X144059523Y-102227619D01*
X144107142Y-102322857D01*
X144107142Y-102465714D01*
X144059523Y-102560952D01*
X144011904Y-102608571D01*
X143916666Y-102656190D01*
X143535714Y-102656190D01*
X145059523Y-103132380D02*
X144488095Y-103132380D01*
X144773809Y-103132380D02*
X144773809Y-102132380D01*
X144678571Y-102275238D01*
X144583333Y-102370476D01*
X144488095Y-102418095D01*
X145392857Y-102132380D02*
X146011904Y-102132380D01*
X145678571Y-102513333D01*
X145821428Y-102513333D01*
X145916666Y-102560952D01*
X145964285Y-102608571D01*
X146011904Y-102703809D01*
X146011904Y-102941904D01*
X145964285Y-103037142D01*
X145916666Y-103084761D01*
X145821428Y-103132380D01*
X145535714Y-103132380D01*
X145440476Y-103084761D01*
X145392857Y-103037142D01*
%TO.C,R12*%
X97652380Y-103842857D02*
X97176190Y-104176190D01*
X97652380Y-104414285D02*
X96652380Y-104414285D01*
X96652380Y-104033333D01*
X96700000Y-103938095D01*
X96747619Y-103890476D01*
X96842857Y-103842857D01*
X96985714Y-103842857D01*
X97080952Y-103890476D01*
X97128571Y-103938095D01*
X97176190Y-104033333D01*
X97176190Y-104414285D01*
X97652380Y-102890476D02*
X97652380Y-103461904D01*
X97652380Y-103176190D02*
X96652380Y-103176190D01*
X96795238Y-103271428D01*
X96890476Y-103366666D01*
X96938095Y-103461904D01*
X96747619Y-102509523D02*
X96700000Y-102461904D01*
X96652380Y-102366666D01*
X96652380Y-102128571D01*
X96700000Y-102033333D01*
X96747619Y-101985714D01*
X96842857Y-101938095D01*
X96938095Y-101938095D01*
X97080952Y-101985714D01*
X97652380Y-102557142D01*
X97652380Y-101938095D01*
%TO.C,R11*%
X90852380Y-103142857D02*
X90376190Y-103476190D01*
X90852380Y-103714285D02*
X89852380Y-103714285D01*
X89852380Y-103333333D01*
X89900000Y-103238095D01*
X89947619Y-103190476D01*
X90042857Y-103142857D01*
X90185714Y-103142857D01*
X90280952Y-103190476D01*
X90328571Y-103238095D01*
X90376190Y-103333333D01*
X90376190Y-103714285D01*
X90852380Y-102190476D02*
X90852380Y-102761904D01*
X90852380Y-102476190D02*
X89852380Y-102476190D01*
X89995238Y-102571428D01*
X90090476Y-102666666D01*
X90138095Y-102761904D01*
X90852380Y-101238095D02*
X90852380Y-101809523D01*
X90852380Y-101523809D02*
X89852380Y-101523809D01*
X89995238Y-101619047D01*
X90090476Y-101714285D01*
X90138095Y-101809523D01*
%TO.C,R10*%
X92957142Y-100452380D02*
X92623809Y-99976190D01*
X92385714Y-100452380D02*
X92385714Y-99452380D01*
X92766666Y-99452380D01*
X92861904Y-99500000D01*
X92909523Y-99547619D01*
X92957142Y-99642857D01*
X92957142Y-99785714D01*
X92909523Y-99880952D01*
X92861904Y-99928571D01*
X92766666Y-99976190D01*
X92385714Y-99976190D01*
X93909523Y-100452380D02*
X93338095Y-100452380D01*
X93623809Y-100452380D02*
X93623809Y-99452380D01*
X93528571Y-99595238D01*
X93433333Y-99690476D01*
X93338095Y-99738095D01*
X94528571Y-99452380D02*
X94623809Y-99452380D01*
X94719047Y-99500000D01*
X94766666Y-99547619D01*
X94814285Y-99642857D01*
X94861904Y-99833333D01*
X94861904Y-100071428D01*
X94814285Y-100261904D01*
X94766666Y-100357142D01*
X94719047Y-100404761D01*
X94623809Y-100452380D01*
X94528571Y-100452380D01*
X94433333Y-100404761D01*
X94385714Y-100357142D01*
X94338095Y-100261904D01*
X94290476Y-100071428D01*
X94290476Y-99833333D01*
X94338095Y-99642857D01*
X94385714Y-99547619D01*
X94433333Y-99500000D01*
X94528571Y-99452380D01*
%TO.C,R9*%
X155433333Y-96902380D02*
X155100000Y-96426190D01*
X154861904Y-96902380D02*
X154861904Y-95902380D01*
X155242857Y-95902380D01*
X155338095Y-95950000D01*
X155385714Y-95997619D01*
X155433333Y-96092857D01*
X155433333Y-96235714D01*
X155385714Y-96330952D01*
X155338095Y-96378571D01*
X155242857Y-96426190D01*
X154861904Y-96426190D01*
X155909523Y-96902380D02*
X156100000Y-96902380D01*
X156195238Y-96854761D01*
X156242857Y-96807142D01*
X156338095Y-96664285D01*
X156385714Y-96473809D01*
X156385714Y-96092857D01*
X156338095Y-95997619D01*
X156290476Y-95950000D01*
X156195238Y-95902380D01*
X156004761Y-95902380D01*
X155909523Y-95950000D01*
X155861904Y-95997619D01*
X155814285Y-96092857D01*
X155814285Y-96330952D01*
X155861904Y-96426190D01*
X155909523Y-96473809D01*
X156004761Y-96521428D01*
X156195238Y-96521428D01*
X156290476Y-96473809D01*
X156338095Y-96426190D01*
X156385714Y-96330952D01*
%TO.C,R8*%
X157833333Y-100452380D02*
X157500000Y-99976190D01*
X157261904Y-100452380D02*
X157261904Y-99452380D01*
X157642857Y-99452380D01*
X157738095Y-99500000D01*
X157785714Y-99547619D01*
X157833333Y-99642857D01*
X157833333Y-99785714D01*
X157785714Y-99880952D01*
X157738095Y-99928571D01*
X157642857Y-99976190D01*
X157261904Y-99976190D01*
X158404761Y-99880952D02*
X158309523Y-99833333D01*
X158261904Y-99785714D01*
X158214285Y-99690476D01*
X158214285Y-99642857D01*
X158261904Y-99547619D01*
X158309523Y-99500000D01*
X158404761Y-99452380D01*
X158595238Y-99452380D01*
X158690476Y-99500000D01*
X158738095Y-99547619D01*
X158785714Y-99642857D01*
X158785714Y-99690476D01*
X158738095Y-99785714D01*
X158690476Y-99833333D01*
X158595238Y-99880952D01*
X158404761Y-99880952D01*
X158309523Y-99928571D01*
X158261904Y-99976190D01*
X158214285Y-100071428D01*
X158214285Y-100261904D01*
X158261904Y-100357142D01*
X158309523Y-100404761D01*
X158404761Y-100452380D01*
X158595238Y-100452380D01*
X158690476Y-100404761D01*
X158738095Y-100357142D01*
X158785714Y-100261904D01*
X158785714Y-100071428D01*
X158738095Y-99976190D01*
X158690476Y-99928571D01*
X158595238Y-99880952D01*
%TO.C,R7*%
X98833333Y-93272380D02*
X98500000Y-92796190D01*
X98261904Y-93272380D02*
X98261904Y-92272380D01*
X98642857Y-92272380D01*
X98738095Y-92320000D01*
X98785714Y-92367619D01*
X98833333Y-92462857D01*
X98833333Y-92605714D01*
X98785714Y-92700952D01*
X98738095Y-92748571D01*
X98642857Y-92796190D01*
X98261904Y-92796190D01*
X99166666Y-92272380D02*
X99833333Y-92272380D01*
X99404761Y-93272380D01*
%TO.C,R6*%
X102333333Y-93272380D02*
X102000000Y-92796190D01*
X101761904Y-93272380D02*
X101761904Y-92272380D01*
X102142857Y-92272380D01*
X102238095Y-92320000D01*
X102285714Y-92367619D01*
X102333333Y-92462857D01*
X102333333Y-92605714D01*
X102285714Y-92700952D01*
X102238095Y-92748571D01*
X102142857Y-92796190D01*
X101761904Y-92796190D01*
X103190476Y-92272380D02*
X103000000Y-92272380D01*
X102904761Y-92320000D01*
X102857142Y-92367619D01*
X102761904Y-92510476D01*
X102714285Y-92700952D01*
X102714285Y-93081904D01*
X102761904Y-93177142D01*
X102809523Y-93224761D01*
X102904761Y-93272380D01*
X103095238Y-93272380D01*
X103190476Y-93224761D01*
X103238095Y-93177142D01*
X103285714Y-93081904D01*
X103285714Y-92843809D01*
X103238095Y-92748571D01*
X103190476Y-92700952D01*
X103095238Y-92653333D01*
X102904761Y-92653333D01*
X102809523Y-92700952D01*
X102761904Y-92748571D01*
X102714285Y-92843809D01*
%TO.C,R5*%
X116083333Y-108022380D02*
X115750000Y-107546190D01*
X115511904Y-108022380D02*
X115511904Y-107022380D01*
X115892857Y-107022380D01*
X115988095Y-107070000D01*
X116035714Y-107117619D01*
X116083333Y-107212857D01*
X116083333Y-107355714D01*
X116035714Y-107450952D01*
X115988095Y-107498571D01*
X115892857Y-107546190D01*
X115511904Y-107546190D01*
X116988095Y-107022380D02*
X116511904Y-107022380D01*
X116464285Y-107498571D01*
X116511904Y-107450952D01*
X116607142Y-107403333D01*
X116845238Y-107403333D01*
X116940476Y-107450952D01*
X116988095Y-107498571D01*
X117035714Y-107593809D01*
X117035714Y-107831904D01*
X116988095Y-107927142D01*
X116940476Y-107974761D01*
X116845238Y-108022380D01*
X116607142Y-108022380D01*
X116511904Y-107974761D01*
X116464285Y-107927142D01*
%TO.C,R4*%
X124033333Y-106052380D02*
X123700000Y-105576190D01*
X123461904Y-106052380D02*
X123461904Y-105052380D01*
X123842857Y-105052380D01*
X123938095Y-105100000D01*
X123985714Y-105147619D01*
X124033333Y-105242857D01*
X124033333Y-105385714D01*
X123985714Y-105480952D01*
X123938095Y-105528571D01*
X123842857Y-105576190D01*
X123461904Y-105576190D01*
X124890476Y-105385714D02*
X124890476Y-106052380D01*
X124652380Y-105004761D02*
X124414285Y-105719047D01*
X125033333Y-105719047D01*
%TO.C,R3*%
X121633333Y-96952380D02*
X121300000Y-96476190D01*
X121061904Y-96952380D02*
X121061904Y-95952380D01*
X121442857Y-95952380D01*
X121538095Y-96000000D01*
X121585714Y-96047619D01*
X121633333Y-96142857D01*
X121633333Y-96285714D01*
X121585714Y-96380952D01*
X121538095Y-96428571D01*
X121442857Y-96476190D01*
X121061904Y-96476190D01*
X121966666Y-95952380D02*
X122585714Y-95952380D01*
X122252380Y-96333333D01*
X122395238Y-96333333D01*
X122490476Y-96380952D01*
X122538095Y-96428571D01*
X122585714Y-96523809D01*
X122585714Y-96761904D01*
X122538095Y-96857142D01*
X122490476Y-96904761D01*
X122395238Y-96952380D01*
X122109523Y-96952380D01*
X122014285Y-96904761D01*
X121966666Y-96857142D01*
%TO.C,R2*%
X88633333Y-111252380D02*
X88300000Y-110776190D01*
X88061904Y-111252380D02*
X88061904Y-110252380D01*
X88442857Y-110252380D01*
X88538095Y-110300000D01*
X88585714Y-110347619D01*
X88633333Y-110442857D01*
X88633333Y-110585714D01*
X88585714Y-110680952D01*
X88538095Y-110728571D01*
X88442857Y-110776190D01*
X88061904Y-110776190D01*
X89014285Y-110347619D02*
X89061904Y-110300000D01*
X89157142Y-110252380D01*
X89395238Y-110252380D01*
X89490476Y-110300000D01*
X89538095Y-110347619D01*
X89585714Y-110442857D01*
X89585714Y-110538095D01*
X89538095Y-110680952D01*
X88966666Y-111252380D01*
X89585714Y-111252380D01*
%TO.C,R1*%
X127833333Y-96952380D02*
X127500000Y-96476190D01*
X127261904Y-96952380D02*
X127261904Y-95952380D01*
X127642857Y-95952380D01*
X127738095Y-96000000D01*
X127785714Y-96047619D01*
X127833333Y-96142857D01*
X127833333Y-96285714D01*
X127785714Y-96380952D01*
X127738095Y-96428571D01*
X127642857Y-96476190D01*
X127261904Y-96476190D01*
X128785714Y-96952380D02*
X128214285Y-96952380D01*
X128500000Y-96952380D02*
X128500000Y-95952380D01*
X128404761Y-96095238D01*
X128309523Y-96190476D01*
X128214285Y-96238095D01*
%TO.C,D3*%
X125261904Y-106052380D02*
X125261904Y-105052380D01*
X125500000Y-105052380D01*
X125642857Y-105100000D01*
X125738095Y-105195238D01*
X125785714Y-105290476D01*
X125833333Y-105480952D01*
X125833333Y-105623809D01*
X125785714Y-105814285D01*
X125738095Y-105909523D01*
X125642857Y-106004761D01*
X125500000Y-106052380D01*
X125261904Y-106052380D01*
X126166666Y-105052380D02*
X126785714Y-105052380D01*
X126452380Y-105433333D01*
X126595238Y-105433333D01*
X126690476Y-105480952D01*
X126738095Y-105528571D01*
X126785714Y-105623809D01*
X126785714Y-105861904D01*
X126738095Y-105957142D01*
X126690476Y-106004761D01*
X126595238Y-106052380D01*
X126309523Y-106052380D01*
X126214285Y-106004761D01*
X126166666Y-105957142D01*
%TO.C,D2*%
X122861904Y-96952380D02*
X122861904Y-95952380D01*
X123100000Y-95952380D01*
X123242857Y-96000000D01*
X123338095Y-96095238D01*
X123385714Y-96190476D01*
X123433333Y-96380952D01*
X123433333Y-96523809D01*
X123385714Y-96714285D01*
X123338095Y-96809523D01*
X123242857Y-96904761D01*
X123100000Y-96952380D01*
X122861904Y-96952380D01*
X123814285Y-96047619D02*
X123861904Y-96000000D01*
X123957142Y-95952380D01*
X124195238Y-95952380D01*
X124290476Y-96000000D01*
X124338095Y-96047619D01*
X124385714Y-96142857D01*
X124385714Y-96238095D01*
X124338095Y-96380952D01*
X123766666Y-96952380D01*
X124385714Y-96952380D01*
%TO.C,D1*%
X125461904Y-96952380D02*
X125461904Y-95952380D01*
X125700000Y-95952380D01*
X125842857Y-96000000D01*
X125938095Y-96095238D01*
X125985714Y-96190476D01*
X126033333Y-96380952D01*
X126033333Y-96523809D01*
X125985714Y-96714285D01*
X125938095Y-96809523D01*
X125842857Y-96904761D01*
X125700000Y-96952380D01*
X125461904Y-96952380D01*
X126985714Y-96952380D02*
X126414285Y-96952380D01*
X126700000Y-96952380D02*
X126700000Y-95952380D01*
X126604761Y-96095238D01*
X126509523Y-96190476D01*
X126414285Y-96238095D01*
%TO.C,C11*%
X97557142Y-100442857D02*
X97604761Y-100490476D01*
X97652380Y-100633333D01*
X97652380Y-100728571D01*
X97604761Y-100871428D01*
X97509523Y-100966666D01*
X97414285Y-101014285D01*
X97223809Y-101061904D01*
X97080952Y-101061904D01*
X96890476Y-101014285D01*
X96795238Y-100966666D01*
X96700000Y-100871428D01*
X96652380Y-100728571D01*
X96652380Y-100633333D01*
X96700000Y-100490476D01*
X96747619Y-100442857D01*
X97652380Y-99490476D02*
X97652380Y-100061904D01*
X97652380Y-99776190D02*
X96652380Y-99776190D01*
X96795238Y-99871428D01*
X96890476Y-99966666D01*
X96938095Y-100061904D01*
X97652380Y-98538095D02*
X97652380Y-99109523D01*
X97652380Y-98823809D02*
X96652380Y-98823809D01*
X96795238Y-98919047D01*
X96890476Y-99014285D01*
X96938095Y-99109523D01*
%TO.C,C10*%
X97557142Y-97042857D02*
X97604761Y-97090476D01*
X97652380Y-97233333D01*
X97652380Y-97328571D01*
X97604761Y-97471428D01*
X97509523Y-97566666D01*
X97414285Y-97614285D01*
X97223809Y-97661904D01*
X97080952Y-97661904D01*
X96890476Y-97614285D01*
X96795238Y-97566666D01*
X96700000Y-97471428D01*
X96652380Y-97328571D01*
X96652380Y-97233333D01*
X96700000Y-97090476D01*
X96747619Y-97042857D01*
X97652380Y-96090476D02*
X97652380Y-96661904D01*
X97652380Y-96376190D02*
X96652380Y-96376190D01*
X96795238Y-96471428D01*
X96890476Y-96566666D01*
X96938095Y-96661904D01*
X96652380Y-95471428D02*
X96652380Y-95376190D01*
X96700000Y-95280952D01*
X96747619Y-95233333D01*
X96842857Y-95185714D01*
X97033333Y-95138095D01*
X97271428Y-95138095D01*
X97461904Y-95185714D01*
X97557142Y-95233333D01*
X97604761Y-95280952D01*
X97652380Y-95376190D01*
X97652380Y-95471428D01*
X97604761Y-95566666D01*
X97557142Y-95614285D01*
X97461904Y-95661904D01*
X97271428Y-95709523D01*
X97033333Y-95709523D01*
X96842857Y-95661904D01*
X96747619Y-95614285D01*
X96700000Y-95566666D01*
X96652380Y-95471428D01*
%TO.C,C9*%
X136833333Y-98357142D02*
X136785714Y-98404761D01*
X136642857Y-98452380D01*
X136547619Y-98452380D01*
X136404761Y-98404761D01*
X136309523Y-98309523D01*
X136261904Y-98214285D01*
X136214285Y-98023809D01*
X136214285Y-97880952D01*
X136261904Y-97690476D01*
X136309523Y-97595238D01*
X136404761Y-97500000D01*
X136547619Y-97452380D01*
X136642857Y-97452380D01*
X136785714Y-97500000D01*
X136833333Y-97547619D01*
X137309523Y-98452380D02*
X137500000Y-98452380D01*
X137595238Y-98404761D01*
X137642857Y-98357142D01*
X137738095Y-98214285D01*
X137785714Y-98023809D01*
X137785714Y-97642857D01*
X137738095Y-97547619D01*
X137690476Y-97500000D01*
X137595238Y-97452380D01*
X137404761Y-97452380D01*
X137309523Y-97500000D01*
X137261904Y-97547619D01*
X137214285Y-97642857D01*
X137214285Y-97880952D01*
X137261904Y-97976190D01*
X137309523Y-98023809D01*
X137404761Y-98071428D01*
X137595238Y-98071428D01*
X137690476Y-98023809D01*
X137738095Y-97976190D01*
X137785714Y-97880952D01*
%TO.C,C8*%
X113933333Y-96857142D02*
X113885714Y-96904761D01*
X113742857Y-96952380D01*
X113647619Y-96952380D01*
X113504761Y-96904761D01*
X113409523Y-96809523D01*
X113361904Y-96714285D01*
X113314285Y-96523809D01*
X113314285Y-96380952D01*
X113361904Y-96190476D01*
X113409523Y-96095238D01*
X113504761Y-96000000D01*
X113647619Y-95952380D01*
X113742857Y-95952380D01*
X113885714Y-96000000D01*
X113933333Y-96047619D01*
X114504761Y-96380952D02*
X114409523Y-96333333D01*
X114361904Y-96285714D01*
X114314285Y-96190476D01*
X114314285Y-96142857D01*
X114361904Y-96047619D01*
X114409523Y-96000000D01*
X114504761Y-95952380D01*
X114695238Y-95952380D01*
X114790476Y-96000000D01*
X114838095Y-96047619D01*
X114885714Y-96142857D01*
X114885714Y-96190476D01*
X114838095Y-96285714D01*
X114790476Y-96333333D01*
X114695238Y-96380952D01*
X114504761Y-96380952D01*
X114409523Y-96428571D01*
X114361904Y-96476190D01*
X114314285Y-96571428D01*
X114314285Y-96761904D01*
X114361904Y-96857142D01*
X114409523Y-96904761D01*
X114504761Y-96952380D01*
X114695238Y-96952380D01*
X114790476Y-96904761D01*
X114838095Y-96857142D01*
X114885714Y-96761904D01*
X114885714Y-96571428D01*
X114838095Y-96476190D01*
X114790476Y-96428571D01*
X114695238Y-96380952D01*
%TO.C,C7*%
X111633333Y-107757142D02*
X111585714Y-107804761D01*
X111442857Y-107852380D01*
X111347619Y-107852380D01*
X111204761Y-107804761D01*
X111109523Y-107709523D01*
X111061904Y-107614285D01*
X111014285Y-107423809D01*
X111014285Y-107280952D01*
X111061904Y-107090476D01*
X111109523Y-106995238D01*
X111204761Y-106900000D01*
X111347619Y-106852380D01*
X111442857Y-106852380D01*
X111585714Y-106900000D01*
X111633333Y-106947619D01*
X111966666Y-106852380D02*
X112633333Y-106852380D01*
X112204761Y-107852380D01*
%TO.C,C6*%
X144033333Y-93357142D02*
X143985714Y-93404761D01*
X143842857Y-93452380D01*
X143747619Y-93452380D01*
X143604761Y-93404761D01*
X143509523Y-93309523D01*
X143461904Y-93214285D01*
X143414285Y-93023809D01*
X143414285Y-92880952D01*
X143461904Y-92690476D01*
X143509523Y-92595238D01*
X143604761Y-92500000D01*
X143747619Y-92452380D01*
X143842857Y-92452380D01*
X143985714Y-92500000D01*
X144033333Y-92547619D01*
X144890476Y-92452380D02*
X144700000Y-92452380D01*
X144604761Y-92500000D01*
X144557142Y-92547619D01*
X144461904Y-92690476D01*
X144414285Y-92880952D01*
X144414285Y-93261904D01*
X144461904Y-93357142D01*
X144509523Y-93404761D01*
X144604761Y-93452380D01*
X144795238Y-93452380D01*
X144890476Y-93404761D01*
X144938095Y-93357142D01*
X144985714Y-93261904D01*
X144985714Y-93023809D01*
X144938095Y-92928571D01*
X144890476Y-92880952D01*
X144795238Y-92833333D01*
X144604761Y-92833333D01*
X144509523Y-92880952D01*
X144461904Y-92928571D01*
X144414285Y-93023809D01*
%TO.C,C5*%
X103033333Y-107357142D02*
X102985714Y-107404761D01*
X102842857Y-107452380D01*
X102747619Y-107452380D01*
X102604761Y-107404761D01*
X102509523Y-107309523D01*
X102461904Y-107214285D01*
X102414285Y-107023809D01*
X102414285Y-106880952D01*
X102461904Y-106690476D01*
X102509523Y-106595238D01*
X102604761Y-106500000D01*
X102747619Y-106452380D01*
X102842857Y-106452380D01*
X102985714Y-106500000D01*
X103033333Y-106547619D01*
X103938095Y-106452380D02*
X103461904Y-106452380D01*
X103414285Y-106928571D01*
X103461904Y-106880952D01*
X103557142Y-106833333D01*
X103795238Y-106833333D01*
X103890476Y-106880952D01*
X103938095Y-106928571D01*
X103985714Y-107023809D01*
X103985714Y-107261904D01*
X103938095Y-107357142D01*
X103890476Y-107404761D01*
X103795238Y-107452380D01*
X103557142Y-107452380D01*
X103461904Y-107404761D01*
X103414285Y-107357142D01*
%TO.C,C4*%
X107033333Y-108757142D02*
X106985714Y-108804761D01*
X106842857Y-108852380D01*
X106747619Y-108852380D01*
X106604761Y-108804761D01*
X106509523Y-108709523D01*
X106461904Y-108614285D01*
X106414285Y-108423809D01*
X106414285Y-108280952D01*
X106461904Y-108090476D01*
X106509523Y-107995238D01*
X106604761Y-107900000D01*
X106747619Y-107852380D01*
X106842857Y-107852380D01*
X106985714Y-107900000D01*
X107033333Y-107947619D01*
X107890476Y-108185714D02*
X107890476Y-108852380D01*
X107652380Y-107804761D02*
X107414285Y-108519047D01*
X108033333Y-108519047D01*
%TO.C,C3*%
X93933333Y-108857142D02*
X93885714Y-108904761D01*
X93742857Y-108952380D01*
X93647619Y-108952380D01*
X93504761Y-108904761D01*
X93409523Y-108809523D01*
X93361904Y-108714285D01*
X93314285Y-108523809D01*
X93314285Y-108380952D01*
X93361904Y-108190476D01*
X93409523Y-108095238D01*
X93504761Y-108000000D01*
X93647619Y-107952380D01*
X93742857Y-107952380D01*
X93885714Y-108000000D01*
X93933333Y-108047619D01*
X94266666Y-107952380D02*
X94885714Y-107952380D01*
X94552380Y-108333333D01*
X94695238Y-108333333D01*
X94790476Y-108380952D01*
X94838095Y-108428571D01*
X94885714Y-108523809D01*
X94885714Y-108761904D01*
X94838095Y-108857142D01*
X94790476Y-108904761D01*
X94695238Y-108952380D01*
X94409523Y-108952380D01*
X94314285Y-108904761D01*
X94266666Y-108857142D01*
%TO.C,C2*%
X146833333Y-98557142D02*
X146785714Y-98604761D01*
X146642857Y-98652380D01*
X146547619Y-98652380D01*
X146404761Y-98604761D01*
X146309523Y-98509523D01*
X146261904Y-98414285D01*
X146214285Y-98223809D01*
X146214285Y-98080952D01*
X146261904Y-97890476D01*
X146309523Y-97795238D01*
X146404761Y-97700000D01*
X146547619Y-97652380D01*
X146642857Y-97652380D01*
X146785714Y-97700000D01*
X146833333Y-97747619D01*
X147214285Y-97747619D02*
X147261904Y-97700000D01*
X147357142Y-97652380D01*
X147595238Y-97652380D01*
X147690476Y-97700000D01*
X147738095Y-97747619D01*
X147785714Y-97842857D01*
X147785714Y-97938095D01*
X147738095Y-98080952D01*
X147166666Y-98652380D01*
X147785714Y-98652380D01*
%TO.C,C1*%
X101233333Y-96157142D02*
X101185714Y-96204761D01*
X101042857Y-96252380D01*
X100947619Y-96252380D01*
X100804761Y-96204761D01*
X100709523Y-96109523D01*
X100661904Y-96014285D01*
X100614285Y-95823809D01*
X100614285Y-95680952D01*
X100661904Y-95490476D01*
X100709523Y-95395238D01*
X100804761Y-95300000D01*
X100947619Y-95252380D01*
X101042857Y-95252380D01*
X101185714Y-95300000D01*
X101233333Y-95347619D01*
X102185714Y-96252380D02*
X101614285Y-96252380D01*
X101900000Y-96252380D02*
X101900000Y-95252380D01*
X101804761Y-95395238D01*
X101709523Y-95490476D01*
X101614285Y-95538095D01*
%TD*%
M02*
