%TF.GenerationSoftware,KiCad,Pcbnew,(5.1.6)-1*%
%TF.CreationDate,2021-06-16T19:52:11-04:00*%
%TF.ProjectId,QAZ_media,51415a5f-6d65-4646-9961-2e6b69636164,rev?*%
%TF.SameCoordinates,Original*%
%TF.FileFunction,Copper,L2,Bot*%
%TF.FilePolarity,Positive*%
%FSLAX46Y46*%
G04 Gerber Fmt 4.6, Leading zero omitted, Abs format (unit mm)*
G04 Created by KiCad (PCBNEW (5.1.6)-1) date 2021-06-16 19:52:11*
%MOMM*%
%LPD*%
G01*
G04 APERTURE LIST*
%TA.AperFunction,ComponentPad*%
%ADD10C,2.540000*%
%TD*%
%TA.AperFunction,ComponentPad*%
%ADD11O,1.700000X1.700000*%
%TD*%
%TA.AperFunction,ComponentPad*%
%ADD12R,1.700000X1.700000*%
%TD*%
%TA.AperFunction,ComponentPad*%
%ADD13C,1.400000*%
%TD*%
%TA.AperFunction,ComponentPad*%
%ADD14C,2.000000*%
%TD*%
%TA.AperFunction,ComponentPad*%
%ADD15R,3.200000X2.000000*%
%TD*%
%TA.AperFunction,ComponentPad*%
%ADD16R,2.000000X2.000000*%
%TD*%
%TA.AperFunction,ComponentPad*%
%ADD17O,1.000000X1.000000*%
%TD*%
%TA.AperFunction,ComponentPad*%
%ADD18R,1.000000X1.000000*%
%TD*%
%TA.AperFunction,ComponentPad*%
%ADD19C,0.650000*%
%TD*%
%TA.AperFunction,ComponentPad*%
%ADD20O,0.900000X2.400000*%
%TD*%
%TA.AperFunction,ComponentPad*%
%ADD21O,0.900000X1.700000*%
%TD*%
%TA.AperFunction,ViaPad*%
%ADD22C,0.800000*%
%TD*%
%TA.AperFunction,ViaPad*%
%ADD23C,0.600000*%
%TD*%
%TA.AperFunction,ViaPad*%
%ADD24C,1.000000*%
%TD*%
%TA.AperFunction,Conductor*%
%ADD25C,0.609600*%
%TD*%
%TA.AperFunction,Conductor*%
%ADD26C,1.524000*%
%TD*%
%TA.AperFunction,Conductor*%
%ADD27C,0.500000*%
%TD*%
%TA.AperFunction,Conductor*%
%ADD28C,0.300000*%
%TD*%
%TA.AperFunction,Conductor*%
%ADD29C,0.250000*%
%TD*%
%TA.AperFunction,Conductor*%
%ADD30C,0.254000*%
%TD*%
G04 APERTURE END LIST*
D10*
%TO.P,SW5,1*%
%TO.N,GND*%
X129500000Y-106000000D03*
%TO.P,SW5,2*%
%TO.N,/PLAY_PAUSE*%
X134580000Y-100920000D03*
%TD*%
D11*
%TO.P,D4,2*%
%TO.N,Net-(D4-Pad2)*%
X114740000Y-111200000D03*
D12*
%TO.P,D4,1*%
%TO.N,GND*%
X112200000Y-111200000D03*
%TD*%
D13*
%TO.P,TP10,1*%
%TO.N,/SWCLK*%
X95750000Y-93250000D03*
%TD*%
%TO.P,TP9,1*%
%TO.N,/SWDIO*%
X105250000Y-94750000D03*
%TD*%
%TO.P,TP8,1*%
%TO.N,/DBG_TX*%
X108250000Y-95750000D03*
%TD*%
%TO.P,TP7,1*%
%TO.N,/CLKOUT*%
X110000000Y-95750000D03*
%TD*%
%TO.P,TP6,1*%
%TO.N,/nRESET*%
X109250000Y-110750000D03*
%TD*%
%TO.P,TP5,1*%
%TO.N,Net-(C9-Pad1)*%
X133100000Y-94600000D03*
%TD*%
%TO.P,TP4,1*%
%TO.N,GND*%
X118300000Y-106100000D03*
%TD*%
%TO.P,TP1,1*%
%TO.N,+5V*%
X149200000Y-93400000D03*
%TD*%
D10*
%TO.P,SW6,1*%
%TO.N,GND*%
X114500000Y-106000000D03*
%TO.P,SW6,2*%
%TO.N,/NEXT*%
X119580000Y-100920000D03*
%TD*%
D14*
%TO.P,SW4,S1*%
%TO.N,/MUTE*%
X84500000Y-105000000D03*
%TO.P,SW4,S2*%
%TO.N,GND*%
X84500000Y-100000000D03*
D15*
%TO.P,SW4,MP*%
%TO.N,N/C*%
X91500000Y-108100000D03*
X91500000Y-96900000D03*
D14*
%TO.P,SW4,B*%
%TO.N,Net-(R11-Pad2)*%
X99000000Y-105000000D03*
%TO.P,SW4,C*%
%TO.N,GND*%
X99000000Y-102500000D03*
D16*
%TO.P,SW4,A*%
%TO.N,Net-(R10-Pad2)*%
X99000000Y-100000000D03*
%TD*%
D10*
%TO.P,SW3,1*%
%TO.N,GND*%
X144500000Y-106000000D03*
%TO.P,SW3,2*%
%TO.N,/PREVIOUS*%
X149580000Y-100920000D03*
%TD*%
%TO.P,SW2,1*%
%TO.N,GND*%
X159500000Y-106000000D03*
%TO.P,SW2,2*%
%TO.N,/STOP*%
X164580000Y-100920000D03*
%TD*%
D17*
%TO.P,JP3,2*%
%TO.N,Net-(JP3-Pad2)*%
X124170000Y-111200000D03*
D18*
%TO.P,JP3,1*%
%TO.N,/HB_LED*%
X122900000Y-111200000D03*
%TD*%
%TO.P,JP2,1*%
%TO.N,+3V3*%
X118750000Y-93900000D03*
D17*
%TO.P,JP2,2*%
%TO.N,Net-(JP2-Pad2)*%
X120020000Y-93900000D03*
%TD*%
D18*
%TO.P,JP1,1*%
%TO.N,+5V*%
X131000000Y-93900000D03*
D17*
%TO.P,JP1,2*%
%TO.N,Net-(JP1-Pad2)*%
X129730000Y-93900000D03*
%TD*%
D19*
%TO.P,CN1,A5*%
%TO.N,Net-(CN1-PadA5)*%
X160725000Y-94100000D03*
%TO.P,CN1,A1*%
%TO.N,GND*%
X159025000Y-94100000D03*
%TO.P,CN1,A4*%
%TO.N,+5V*%
X159875000Y-94100000D03*
%TO.P,CN1,A6*%
%TO.N,/USB_D+*%
X161575000Y-94100000D03*
%TO.P,CN1,A7*%
%TO.N,/USB_D-*%
X162425000Y-94100000D03*
%TO.P,CN1,A8*%
%TO.N,N/C*%
X163275000Y-94100000D03*
%TO.P,CN1,A9*%
%TO.N,+5V*%
X164125000Y-94100000D03*
%TO.P,CN1,A12*%
%TO.N,GND*%
X164975000Y-94100000D03*
%TO.P,CN1,B12*%
X159025000Y-92775000D03*
%TO.P,CN1,B9*%
%TO.N,+5V*%
X159880000Y-92775000D03*
%TO.P,CN1,B8*%
%TO.N,N/C*%
X160730000Y-92775000D03*
%TO.P,CN1,B7*%
%TO.N,/USB_D-*%
X161580000Y-92775000D03*
%TO.P,CN1,B6*%
%TO.N,/USB_D+*%
X162430000Y-92775000D03*
%TO.P,CN1,B5*%
%TO.N,Net-(CN1-PadB5)*%
X163280000Y-92775000D03*
%TO.P,CN1,B4*%
%TO.N,+5V*%
X164130000Y-92775000D03*
%TO.P,CN1,B1*%
%TO.N,GND*%
X164980000Y-92775000D03*
D20*
%TO.P,CN1,S1*%
X157675000Y-93120000D03*
X166325000Y-93120000D03*
D21*
X157675000Y-89740000D03*
X166325000Y-89740000D03*
%TD*%
D22*
%TO.N,GND*%
X87700000Y-95900000D03*
D23*
X105000000Y-104200000D03*
X110000000Y-100800000D03*
X105800000Y-100000000D03*
X107800000Y-105000000D03*
D22*
X124900000Y-96200000D03*
X94625000Y-100750000D03*
X94625000Y-95375000D03*
X99800000Y-93050000D03*
X93525000Y-111625000D03*
X108750000Y-112000000D03*
X93250000Y-105750000D03*
X155500000Y-97750000D03*
X127125000Y-108875000D03*
X132300000Y-109800000D03*
X145800000Y-98400000D03*
X145800000Y-97400000D03*
X137500000Y-97600000D03*
D24*
X140000000Y-98100000D03*
X141200000Y-98100000D03*
X138800000Y-98100000D03*
D22*
%TO.N,/BOOT0*%
X101500000Y-103250000D03*
X99750000Y-107250000D03*
%TD*%
D25*
%TO.N,GND*%
X157625000Y-92780000D02*
X157630000Y-92775000D01*
X157630000Y-92775000D02*
X157630000Y-91130000D01*
%TO.N,+5V*%
X159880000Y-92775000D02*
X159880000Y-91120000D01*
D26*
X164130000Y-91130000D02*
X159890000Y-91130000D01*
D27*
X164130000Y-92586038D02*
X164130000Y-91130000D01*
X164130000Y-92775000D02*
X164130000Y-92586038D01*
D28*
%TO.N,/USB_D-*%
X161580000Y-93234619D02*
X162425000Y-94079619D01*
X161580000Y-92775000D02*
X161580000Y-93234619D01*
D29*
%TO.N,/BOOT0*%
X101500000Y-103250000D02*
X100500000Y-104250000D01*
X100500000Y-104250000D02*
X100500000Y-106500000D01*
X100500000Y-106500000D02*
X99750000Y-107250000D01*
X99750000Y-107250000D02*
X99750000Y-107250000D01*
%TD*%
D30*
%TO.N,GND*%
G36*
X166565424Y-86169580D02*
G01*
X166628356Y-86188580D01*
X166686405Y-86219445D01*
X166737343Y-86260989D01*
X166779248Y-86311644D01*
X166810515Y-86369471D01*
X166829956Y-86432272D01*
X166840001Y-86527845D01*
X166840001Y-88378727D01*
X166822197Y-88367298D01*
X166619001Y-88295592D01*
X166452000Y-88422498D01*
X166452000Y-89613000D01*
X166472000Y-89613000D01*
X166472000Y-89867000D01*
X166452000Y-89867000D01*
X166452000Y-91057502D01*
X166619001Y-91184408D01*
X166822197Y-91112702D01*
X166845901Y-91097485D01*
X166864041Y-91270069D01*
X166876068Y-91328658D01*
X166887277Y-91387423D01*
X166889941Y-91396245D01*
X166907148Y-91451833D01*
X166822197Y-91397298D01*
X166619001Y-91325592D01*
X166452000Y-91452498D01*
X166452000Y-92993000D01*
X167410000Y-92993000D01*
X167410000Y-92246947D01*
X167529469Y-92344384D01*
X167579277Y-92377477D01*
X167628651Y-92411284D01*
X167636757Y-92415667D01*
X167809080Y-92507292D01*
X167864392Y-92530090D01*
X167919366Y-92553652D01*
X167928169Y-92556377D01*
X168115006Y-92612786D01*
X168173686Y-92624405D01*
X168232196Y-92636842D01*
X168241361Y-92637805D01*
X168435594Y-92656850D01*
X168435598Y-92656850D01*
X168467581Y-92660000D01*
X174467721Y-92660000D01*
X174565424Y-92669580D01*
X174628356Y-92688580D01*
X174686405Y-92719445D01*
X174737343Y-92760989D01*
X174779248Y-92811644D01*
X174810515Y-92869471D01*
X174829956Y-92932272D01*
X174840000Y-93027835D01*
X174840001Y-111967711D01*
X174830420Y-112065424D01*
X174811420Y-112128357D01*
X174780554Y-112186406D01*
X174739011Y-112237343D01*
X174688356Y-112279248D01*
X174630529Y-112310515D01*
X174567728Y-112329956D01*
X174472165Y-112340000D01*
X115700107Y-112340000D01*
X115893475Y-112146632D01*
X116055990Y-111903411D01*
X116167932Y-111633158D01*
X116225000Y-111346260D01*
X116225000Y-111053740D01*
X116167932Y-110766842D01*
X116140246Y-110700000D01*
X121761928Y-110700000D01*
X121761928Y-111700000D01*
X121774188Y-111824482D01*
X121810498Y-111944180D01*
X121869463Y-112054494D01*
X121948815Y-112151185D01*
X122045506Y-112230537D01*
X122155820Y-112289502D01*
X122275518Y-112325812D01*
X122400000Y-112338072D01*
X123400000Y-112338072D01*
X123524482Y-112325812D01*
X123644180Y-112289502D01*
X123727226Y-112245112D01*
X123838933Y-112291383D01*
X124058212Y-112335000D01*
X124281788Y-112335000D01*
X124501067Y-112291383D01*
X124707624Y-112205824D01*
X124893520Y-112081612D01*
X125051612Y-111923520D01*
X125175824Y-111737624D01*
X125261383Y-111531067D01*
X125305000Y-111311788D01*
X125305000Y-111088212D01*
X125261383Y-110868933D01*
X125175824Y-110662376D01*
X125051612Y-110476480D01*
X124893520Y-110318388D01*
X124707624Y-110194176D01*
X124501067Y-110108617D01*
X124281788Y-110065000D01*
X124058212Y-110065000D01*
X123838933Y-110108617D01*
X123727226Y-110154888D01*
X123644180Y-110110498D01*
X123524482Y-110074188D01*
X123400000Y-110061928D01*
X122400000Y-110061928D01*
X122275518Y-110074188D01*
X122155820Y-110110498D01*
X122045506Y-110169463D01*
X121948815Y-110248815D01*
X121869463Y-110345506D01*
X121810498Y-110455820D01*
X121774188Y-110575518D01*
X121761928Y-110700000D01*
X116140246Y-110700000D01*
X116055990Y-110496589D01*
X115893475Y-110253368D01*
X115686632Y-110046525D01*
X115443411Y-109884010D01*
X115173158Y-109772068D01*
X114886260Y-109715000D01*
X114593740Y-109715000D01*
X114306842Y-109772068D01*
X114036589Y-109884010D01*
X113793368Y-110046525D01*
X113661513Y-110178380D01*
X113639502Y-110105820D01*
X113580537Y-109995506D01*
X113501185Y-109898815D01*
X113404494Y-109819463D01*
X113294180Y-109760498D01*
X113174482Y-109724188D01*
X113050000Y-109711928D01*
X112485750Y-109715000D01*
X112327000Y-109873750D01*
X112327000Y-111073000D01*
X112347000Y-111073000D01*
X112347000Y-111327000D01*
X112327000Y-111327000D01*
X112327000Y-111347000D01*
X112073000Y-111347000D01*
X112073000Y-111327000D01*
X110873750Y-111327000D01*
X110715000Y-111485750D01*
X110711928Y-112050000D01*
X110724188Y-112174482D01*
X110760498Y-112294180D01*
X110784990Y-112340000D01*
X78132279Y-112340000D01*
X78034576Y-112330420D01*
X77971643Y-112311420D01*
X77913594Y-112280554D01*
X77862657Y-112239011D01*
X77820752Y-112188356D01*
X77789485Y-112130529D01*
X77770044Y-112067728D01*
X77760000Y-111972165D01*
X77760000Y-110618514D01*
X107915000Y-110618514D01*
X107915000Y-110881486D01*
X107966304Y-111139405D01*
X108066939Y-111382359D01*
X108213038Y-111601013D01*
X108398987Y-111786962D01*
X108617641Y-111933061D01*
X108860595Y-112033696D01*
X109118514Y-112085000D01*
X109381486Y-112085000D01*
X109639405Y-112033696D01*
X109882359Y-111933061D01*
X110101013Y-111786962D01*
X110286962Y-111601013D01*
X110433061Y-111382359D01*
X110533696Y-111139405D01*
X110585000Y-110881486D01*
X110585000Y-110618514D01*
X110533696Y-110360595D01*
X110529308Y-110350000D01*
X110711928Y-110350000D01*
X110715000Y-110914250D01*
X110873750Y-111073000D01*
X112073000Y-111073000D01*
X112073000Y-109873750D01*
X111914250Y-109715000D01*
X111350000Y-109711928D01*
X111225518Y-109724188D01*
X111105820Y-109760498D01*
X110995506Y-109819463D01*
X110898815Y-109898815D01*
X110819463Y-109995506D01*
X110760498Y-110105820D01*
X110724188Y-110225518D01*
X110711928Y-110350000D01*
X110529308Y-110350000D01*
X110433061Y-110117641D01*
X110286962Y-109898987D01*
X110101013Y-109713038D01*
X109882359Y-109566939D01*
X109639405Y-109466304D01*
X109381486Y-109415000D01*
X109118514Y-109415000D01*
X108860595Y-109466304D01*
X108617641Y-109566939D01*
X108398987Y-109713038D01*
X108213038Y-109898987D01*
X108066939Y-110117641D01*
X107966304Y-110360595D01*
X107915000Y-110618514D01*
X77760000Y-110618514D01*
X77760000Y-107100000D01*
X89261928Y-107100000D01*
X89261928Y-109100000D01*
X89274188Y-109224482D01*
X89310498Y-109344180D01*
X89369463Y-109454494D01*
X89448815Y-109551185D01*
X89545506Y-109630537D01*
X89655820Y-109689502D01*
X89775518Y-109725812D01*
X89900000Y-109738072D01*
X93100000Y-109738072D01*
X93224482Y-109725812D01*
X93344180Y-109689502D01*
X93454494Y-109630537D01*
X93551185Y-109551185D01*
X93630537Y-109454494D01*
X93689502Y-109344180D01*
X93725812Y-109224482D01*
X93738072Y-109100000D01*
X93738072Y-107100000D01*
X93725812Y-106975518D01*
X93689502Y-106855820D01*
X93630537Y-106745506D01*
X93551185Y-106648815D01*
X93454494Y-106569463D01*
X93344180Y-106510498D01*
X93224482Y-106474188D01*
X93100000Y-106461928D01*
X89900000Y-106461928D01*
X89775518Y-106474188D01*
X89655820Y-106510498D01*
X89545506Y-106569463D01*
X89448815Y-106648815D01*
X89369463Y-106745506D01*
X89310498Y-106855820D01*
X89274188Y-106975518D01*
X89261928Y-107100000D01*
X77760000Y-107100000D01*
X77760000Y-104838967D01*
X82865000Y-104838967D01*
X82865000Y-105161033D01*
X82927832Y-105476912D01*
X83051082Y-105774463D01*
X83230013Y-106042252D01*
X83457748Y-106269987D01*
X83725537Y-106448918D01*
X84023088Y-106572168D01*
X84338967Y-106635000D01*
X84661033Y-106635000D01*
X84976912Y-106572168D01*
X85274463Y-106448918D01*
X85542252Y-106269987D01*
X85769987Y-106042252D01*
X85948918Y-105774463D01*
X86072168Y-105476912D01*
X86135000Y-105161033D01*
X86135000Y-104838967D01*
X86072168Y-104523088D01*
X85948918Y-104225537D01*
X85769987Y-103957748D01*
X85542252Y-103730013D01*
X85274463Y-103551082D01*
X84976912Y-103427832D01*
X84661033Y-103365000D01*
X84338967Y-103365000D01*
X84023088Y-103427832D01*
X83725537Y-103551082D01*
X83457748Y-103730013D01*
X83230013Y-103957748D01*
X83051082Y-104225537D01*
X82927832Y-104523088D01*
X82865000Y-104838967D01*
X77760000Y-104838967D01*
X77760000Y-102297364D01*
X78042600Y-102297364D01*
X78042600Y-102702636D01*
X78121665Y-103100121D01*
X78276756Y-103474544D01*
X78501913Y-103811516D01*
X78788484Y-104098087D01*
X79125456Y-104323244D01*
X79499879Y-104478335D01*
X79897364Y-104557400D01*
X80302636Y-104557400D01*
X80700121Y-104478335D01*
X81074544Y-104323244D01*
X81411516Y-104098087D01*
X81698087Y-103811516D01*
X81923244Y-103474544D01*
X82078335Y-103100121D01*
X82157400Y-102702636D01*
X82157400Y-102562595D01*
X97358282Y-102562595D01*
X97402039Y-102881675D01*
X97507205Y-103186088D01*
X97600186Y-103360044D01*
X97864587Y-103455808D01*
X98820395Y-102500000D01*
X98806253Y-102485858D01*
X98985858Y-102306253D01*
X99000000Y-102320395D01*
X99014143Y-102306253D01*
X99193748Y-102485858D01*
X99179605Y-102500000D01*
X99193748Y-102514143D01*
X99014143Y-102693748D01*
X99000000Y-102679605D01*
X98044192Y-103635413D01*
X98054935Y-103665075D01*
X97957748Y-103730013D01*
X97730013Y-103957748D01*
X97551082Y-104225537D01*
X97427832Y-104523088D01*
X97365000Y-104838967D01*
X97365000Y-105161033D01*
X97427832Y-105476912D01*
X97551082Y-105774463D01*
X97730013Y-106042252D01*
X97957748Y-106269987D01*
X98225537Y-106448918D01*
X98523088Y-106572168D01*
X98838967Y-106635000D01*
X98916146Y-106635000D01*
X98832795Y-106759744D01*
X98754774Y-106948102D01*
X98715000Y-107148061D01*
X98715000Y-107351939D01*
X98754774Y-107551898D01*
X98832795Y-107740256D01*
X98946063Y-107909774D01*
X99090226Y-108053937D01*
X99259744Y-108167205D01*
X99448102Y-108245226D01*
X99648061Y-108285000D01*
X99851939Y-108285000D01*
X100051898Y-108245226D01*
X100240256Y-108167205D01*
X100409774Y-108053937D01*
X100553937Y-107909774D01*
X100667205Y-107740256D01*
X100745226Y-107551898D01*
X100785000Y-107351939D01*
X100785000Y-107327852D01*
X113351753Y-107327852D01*
X113480076Y-107619871D01*
X113815695Y-107787723D01*
X114177611Y-107886874D01*
X114551916Y-107913514D01*
X114924227Y-107866618D01*
X115280235Y-107747988D01*
X115519924Y-107619871D01*
X115648247Y-107327852D01*
X114500000Y-106179605D01*
X113351753Y-107327852D01*
X100785000Y-107327852D01*
X100785000Y-107289802D01*
X101011002Y-107063799D01*
X101040001Y-107040001D01*
X101134974Y-106924276D01*
X101205546Y-106792247D01*
X101249003Y-106648986D01*
X101260000Y-106537333D01*
X101260000Y-106537324D01*
X101263676Y-106500001D01*
X101260000Y-106462678D01*
X101260000Y-106051916D01*
X112586486Y-106051916D01*
X112633382Y-106424227D01*
X112752012Y-106780235D01*
X112880129Y-107019924D01*
X113172148Y-107148247D01*
X114320395Y-106000000D01*
X114679605Y-106000000D01*
X115827852Y-107148247D01*
X116116810Y-107021269D01*
X117558336Y-107021269D01*
X117617797Y-107255037D01*
X117856242Y-107365934D01*
X118111740Y-107428183D01*
X118374473Y-107439390D01*
X118634344Y-107399125D01*
X118829554Y-107327852D01*
X128351753Y-107327852D01*
X128480076Y-107619871D01*
X128815695Y-107787723D01*
X129177611Y-107886874D01*
X129551916Y-107913514D01*
X129924227Y-107866618D01*
X130280235Y-107747988D01*
X130519924Y-107619871D01*
X130648247Y-107327852D01*
X143351753Y-107327852D01*
X143480076Y-107619871D01*
X143815695Y-107787723D01*
X144177611Y-107886874D01*
X144551916Y-107913514D01*
X144924227Y-107866618D01*
X145280235Y-107747988D01*
X145519924Y-107619871D01*
X145648247Y-107327852D01*
X158351753Y-107327852D01*
X158480076Y-107619871D01*
X158815695Y-107787723D01*
X159177611Y-107886874D01*
X159551916Y-107913514D01*
X159924227Y-107866618D01*
X160280235Y-107747988D01*
X160519924Y-107619871D01*
X160648247Y-107327852D01*
X159500000Y-106179605D01*
X158351753Y-107327852D01*
X145648247Y-107327852D01*
X144500000Y-106179605D01*
X143351753Y-107327852D01*
X130648247Y-107327852D01*
X129500000Y-106179605D01*
X128351753Y-107327852D01*
X118829554Y-107327852D01*
X118881366Y-107308935D01*
X118982203Y-107255037D01*
X119041664Y-107021269D01*
X118300000Y-106279605D01*
X117558336Y-107021269D01*
X116116810Y-107021269D01*
X116119871Y-107019924D01*
X116287723Y-106684305D01*
X116386874Y-106322389D01*
X116397401Y-106174473D01*
X116960610Y-106174473D01*
X117000875Y-106434344D01*
X117091065Y-106681366D01*
X117144963Y-106782203D01*
X117378731Y-106841664D01*
X118120395Y-106100000D01*
X118479605Y-106100000D01*
X119221269Y-106841664D01*
X119455037Y-106782203D01*
X119565934Y-106543758D01*
X119628183Y-106288260D01*
X119638264Y-106051916D01*
X127586486Y-106051916D01*
X127633382Y-106424227D01*
X127752012Y-106780235D01*
X127880129Y-107019924D01*
X128172148Y-107148247D01*
X129320395Y-106000000D01*
X129679605Y-106000000D01*
X130827852Y-107148247D01*
X131119871Y-107019924D01*
X131287723Y-106684305D01*
X131386874Y-106322389D01*
X131406124Y-106051916D01*
X142586486Y-106051916D01*
X142633382Y-106424227D01*
X142752012Y-106780235D01*
X142880129Y-107019924D01*
X143172148Y-107148247D01*
X144320395Y-106000000D01*
X144679605Y-106000000D01*
X145827852Y-107148247D01*
X146119871Y-107019924D01*
X146287723Y-106684305D01*
X146386874Y-106322389D01*
X146406124Y-106051916D01*
X157586486Y-106051916D01*
X157633382Y-106424227D01*
X157752012Y-106780235D01*
X157880129Y-107019924D01*
X158172148Y-107148247D01*
X159320395Y-106000000D01*
X159679605Y-106000000D01*
X160827852Y-107148247D01*
X161119871Y-107019924D01*
X161287723Y-106684305D01*
X161386874Y-106322389D01*
X161413514Y-105948084D01*
X161366618Y-105575773D01*
X161247988Y-105219765D01*
X161119871Y-104980076D01*
X160827852Y-104851753D01*
X159679605Y-106000000D01*
X159320395Y-106000000D01*
X158172148Y-104851753D01*
X157880129Y-104980076D01*
X157712277Y-105315695D01*
X157613126Y-105677611D01*
X157586486Y-106051916D01*
X146406124Y-106051916D01*
X146413514Y-105948084D01*
X146366618Y-105575773D01*
X146247988Y-105219765D01*
X146119871Y-104980076D01*
X145827852Y-104851753D01*
X144679605Y-106000000D01*
X144320395Y-106000000D01*
X143172148Y-104851753D01*
X142880129Y-104980076D01*
X142712277Y-105315695D01*
X142613126Y-105677611D01*
X142586486Y-106051916D01*
X131406124Y-106051916D01*
X131413514Y-105948084D01*
X131366618Y-105575773D01*
X131247988Y-105219765D01*
X131119871Y-104980076D01*
X130827852Y-104851753D01*
X129679605Y-106000000D01*
X129320395Y-106000000D01*
X128172148Y-104851753D01*
X127880129Y-104980076D01*
X127712277Y-105315695D01*
X127613126Y-105677611D01*
X127586486Y-106051916D01*
X119638264Y-106051916D01*
X119639390Y-106025527D01*
X119599125Y-105765656D01*
X119508935Y-105518634D01*
X119455037Y-105417797D01*
X119221269Y-105358336D01*
X118479605Y-106100000D01*
X118120395Y-106100000D01*
X117378731Y-105358336D01*
X117144963Y-105417797D01*
X117034066Y-105656242D01*
X116971817Y-105911740D01*
X116960610Y-106174473D01*
X116397401Y-106174473D01*
X116413514Y-105948084D01*
X116366618Y-105575773D01*
X116247988Y-105219765D01*
X116226055Y-105178731D01*
X117558336Y-105178731D01*
X118300000Y-105920395D01*
X119041664Y-105178731D01*
X118982203Y-104944963D01*
X118743758Y-104834066D01*
X118488260Y-104771817D01*
X118225527Y-104760610D01*
X117965656Y-104800875D01*
X117718634Y-104891065D01*
X117617797Y-104944963D01*
X117558336Y-105178731D01*
X116226055Y-105178731D01*
X116119871Y-104980076D01*
X115827852Y-104851753D01*
X114679605Y-106000000D01*
X114320395Y-106000000D01*
X113172148Y-104851753D01*
X112880129Y-104980076D01*
X112712277Y-105315695D01*
X112613126Y-105677611D01*
X112586486Y-106051916D01*
X101260000Y-106051916D01*
X101260000Y-104672148D01*
X113351753Y-104672148D01*
X114500000Y-105820395D01*
X115648247Y-104672148D01*
X128351753Y-104672148D01*
X129500000Y-105820395D01*
X130648247Y-104672148D01*
X143351753Y-104672148D01*
X144500000Y-105820395D01*
X145648247Y-104672148D01*
X158351753Y-104672148D01*
X159500000Y-105820395D01*
X160648247Y-104672148D01*
X160519924Y-104380129D01*
X160184305Y-104212277D01*
X159822389Y-104113126D01*
X159448084Y-104086486D01*
X159075773Y-104133382D01*
X158719765Y-104252012D01*
X158480076Y-104380129D01*
X158351753Y-104672148D01*
X145648247Y-104672148D01*
X145519924Y-104380129D01*
X145184305Y-104212277D01*
X144822389Y-104113126D01*
X144448084Y-104086486D01*
X144075773Y-104133382D01*
X143719765Y-104252012D01*
X143480076Y-104380129D01*
X143351753Y-104672148D01*
X130648247Y-104672148D01*
X130519924Y-104380129D01*
X130184305Y-104212277D01*
X129822389Y-104113126D01*
X129448084Y-104086486D01*
X129075773Y-104133382D01*
X128719765Y-104252012D01*
X128480076Y-104380129D01*
X128351753Y-104672148D01*
X115648247Y-104672148D01*
X115519924Y-104380129D01*
X115184305Y-104212277D01*
X114822389Y-104113126D01*
X114448084Y-104086486D01*
X114075773Y-104133382D01*
X113719765Y-104252012D01*
X113480076Y-104380129D01*
X113351753Y-104672148D01*
X101260000Y-104672148D01*
X101260000Y-104564801D01*
X101539802Y-104285000D01*
X101601939Y-104285000D01*
X101801898Y-104245226D01*
X101990256Y-104167205D01*
X102159774Y-104053937D01*
X102303937Y-103909774D01*
X102417205Y-103740256D01*
X102495226Y-103551898D01*
X102535000Y-103351939D01*
X102535000Y-103347424D01*
X120977000Y-103347424D01*
X120977000Y-103572576D01*
X121020925Y-103793401D01*
X121107087Y-104001413D01*
X121232174Y-104188620D01*
X121391380Y-104347826D01*
X121578587Y-104472913D01*
X121786599Y-104559075D01*
X122007424Y-104603000D01*
X122232576Y-104603000D01*
X122453401Y-104559075D01*
X122661413Y-104472913D01*
X122848620Y-104347826D01*
X123007826Y-104188620D01*
X123132913Y-104001413D01*
X123219075Y-103793401D01*
X123263000Y-103572576D01*
X123263000Y-103347424D01*
X135977000Y-103347424D01*
X135977000Y-103572576D01*
X136020925Y-103793401D01*
X136107087Y-104001413D01*
X136232174Y-104188620D01*
X136391380Y-104347826D01*
X136578587Y-104472913D01*
X136786599Y-104559075D01*
X137007424Y-104603000D01*
X137232576Y-104603000D01*
X137453401Y-104559075D01*
X137661413Y-104472913D01*
X137848620Y-104347826D01*
X138007826Y-104188620D01*
X138132913Y-104001413D01*
X138219075Y-103793401D01*
X138263000Y-103572576D01*
X138263000Y-103347424D01*
X150977000Y-103347424D01*
X150977000Y-103572576D01*
X151020925Y-103793401D01*
X151107087Y-104001413D01*
X151232174Y-104188620D01*
X151391380Y-104347826D01*
X151578587Y-104472913D01*
X151786599Y-104559075D01*
X152007424Y-104603000D01*
X152232576Y-104603000D01*
X152453401Y-104559075D01*
X152661413Y-104472913D01*
X152848620Y-104347826D01*
X153007826Y-104188620D01*
X153132913Y-104001413D01*
X153219075Y-103793401D01*
X153263000Y-103572576D01*
X153263000Y-103347424D01*
X165977000Y-103347424D01*
X165977000Y-103572576D01*
X166020925Y-103793401D01*
X166107087Y-104001413D01*
X166232174Y-104188620D01*
X166391380Y-104347826D01*
X166578587Y-104472913D01*
X166786599Y-104559075D01*
X167007424Y-104603000D01*
X167232576Y-104603000D01*
X167453401Y-104559075D01*
X167661413Y-104472913D01*
X167848620Y-104347826D01*
X168007826Y-104188620D01*
X168132913Y-104001413D01*
X168219075Y-103793401D01*
X168263000Y-103572576D01*
X168263000Y-103347424D01*
X168219075Y-103126599D01*
X168132913Y-102918587D01*
X168007826Y-102731380D01*
X167848620Y-102572174D01*
X167661413Y-102447087D01*
X167453401Y-102360925D01*
X167232576Y-102317000D01*
X167007424Y-102317000D01*
X166786599Y-102360925D01*
X166578587Y-102447087D01*
X166391380Y-102572174D01*
X166232174Y-102731380D01*
X166107087Y-102918587D01*
X166020925Y-103126599D01*
X165977000Y-103347424D01*
X153263000Y-103347424D01*
X153219075Y-103126599D01*
X153132913Y-102918587D01*
X153007826Y-102731380D01*
X152848620Y-102572174D01*
X152661413Y-102447087D01*
X152453401Y-102360925D01*
X152232576Y-102317000D01*
X152007424Y-102317000D01*
X151786599Y-102360925D01*
X151578587Y-102447087D01*
X151391380Y-102572174D01*
X151232174Y-102731380D01*
X151107087Y-102918587D01*
X151020925Y-103126599D01*
X150977000Y-103347424D01*
X138263000Y-103347424D01*
X138219075Y-103126599D01*
X138132913Y-102918587D01*
X138007826Y-102731380D01*
X137848620Y-102572174D01*
X137661413Y-102447087D01*
X137453401Y-102360925D01*
X137232576Y-102317000D01*
X137007424Y-102317000D01*
X136786599Y-102360925D01*
X136578587Y-102447087D01*
X136391380Y-102572174D01*
X136232174Y-102731380D01*
X136107087Y-102918587D01*
X136020925Y-103126599D01*
X135977000Y-103347424D01*
X123263000Y-103347424D01*
X123219075Y-103126599D01*
X123132913Y-102918587D01*
X123007826Y-102731380D01*
X122848620Y-102572174D01*
X122661413Y-102447087D01*
X122453401Y-102360925D01*
X122232576Y-102317000D01*
X122007424Y-102317000D01*
X121786599Y-102360925D01*
X121578587Y-102447087D01*
X121391380Y-102572174D01*
X121232174Y-102731380D01*
X121107087Y-102918587D01*
X121020925Y-103126599D01*
X120977000Y-103347424D01*
X102535000Y-103347424D01*
X102535000Y-103148061D01*
X102495226Y-102948102D01*
X102417205Y-102759744D01*
X102303937Y-102590226D01*
X102159774Y-102446063D01*
X101990256Y-102332795D01*
X101801898Y-102254774D01*
X101601939Y-102215000D01*
X101398061Y-102215000D01*
X101198102Y-102254774D01*
X101009744Y-102332795D01*
X100840226Y-102446063D01*
X100696063Y-102590226D01*
X100626243Y-102694719D01*
X100641718Y-102437405D01*
X100597961Y-102118325D01*
X100492795Y-101813912D01*
X100399814Y-101639956D01*
X100250777Y-101585976D01*
X100354494Y-101530537D01*
X100451185Y-101451185D01*
X100530537Y-101354494D01*
X100589502Y-101244180D01*
X100625812Y-101124482D01*
X100638072Y-101000000D01*
X100638072Y-100732374D01*
X117675000Y-100732374D01*
X117675000Y-101107626D01*
X117748209Y-101475668D01*
X117891811Y-101822356D01*
X118100290Y-102134366D01*
X118365634Y-102399710D01*
X118677644Y-102608189D01*
X119024332Y-102751791D01*
X119392374Y-102825000D01*
X119767626Y-102825000D01*
X120135668Y-102751791D01*
X120482356Y-102608189D01*
X120794366Y-102399710D01*
X121059710Y-102134366D01*
X121268189Y-101822356D01*
X121411791Y-101475668D01*
X121485000Y-101107626D01*
X121485000Y-100732374D01*
X132675000Y-100732374D01*
X132675000Y-101107626D01*
X132748209Y-101475668D01*
X132891811Y-101822356D01*
X133100290Y-102134366D01*
X133365634Y-102399710D01*
X133677644Y-102608189D01*
X134024332Y-102751791D01*
X134392374Y-102825000D01*
X134767626Y-102825000D01*
X135135668Y-102751791D01*
X135482356Y-102608189D01*
X135794366Y-102399710D01*
X136059710Y-102134366D01*
X136268189Y-101822356D01*
X136411791Y-101475668D01*
X136485000Y-101107626D01*
X136485000Y-100732374D01*
X147675000Y-100732374D01*
X147675000Y-101107626D01*
X147748209Y-101475668D01*
X147891811Y-101822356D01*
X148100290Y-102134366D01*
X148365634Y-102399710D01*
X148677644Y-102608189D01*
X149024332Y-102751791D01*
X149392374Y-102825000D01*
X149767626Y-102825000D01*
X150135668Y-102751791D01*
X150482356Y-102608189D01*
X150794366Y-102399710D01*
X151059710Y-102134366D01*
X151268189Y-101822356D01*
X151411791Y-101475668D01*
X151485000Y-101107626D01*
X151485000Y-100732374D01*
X162675000Y-100732374D01*
X162675000Y-101107626D01*
X162748209Y-101475668D01*
X162891811Y-101822356D01*
X163100290Y-102134366D01*
X163365634Y-102399710D01*
X163677644Y-102608189D01*
X164024332Y-102751791D01*
X164392374Y-102825000D01*
X164767626Y-102825000D01*
X165135668Y-102751791D01*
X165482356Y-102608189D01*
X165794366Y-102399710D01*
X165896712Y-102297364D01*
X170542600Y-102297364D01*
X170542600Y-102702636D01*
X170621665Y-103100121D01*
X170776756Y-103474544D01*
X171001913Y-103811516D01*
X171288484Y-104098087D01*
X171625456Y-104323244D01*
X171999879Y-104478335D01*
X172397364Y-104557400D01*
X172802636Y-104557400D01*
X173200121Y-104478335D01*
X173574544Y-104323244D01*
X173911516Y-104098087D01*
X174198087Y-103811516D01*
X174423244Y-103474544D01*
X174578335Y-103100121D01*
X174657400Y-102702636D01*
X174657400Y-102297364D01*
X174578335Y-101899879D01*
X174423244Y-101525456D01*
X174198087Y-101188484D01*
X173911516Y-100901913D01*
X173574544Y-100676756D01*
X173200121Y-100521665D01*
X172802636Y-100442600D01*
X172397364Y-100442600D01*
X171999879Y-100521665D01*
X171625456Y-100676756D01*
X171288484Y-100901913D01*
X171001913Y-101188484D01*
X170776756Y-101525456D01*
X170621665Y-101899879D01*
X170542600Y-102297364D01*
X165896712Y-102297364D01*
X166059710Y-102134366D01*
X166268189Y-101822356D01*
X166411791Y-101475668D01*
X166485000Y-101107626D01*
X166485000Y-100732374D01*
X166411791Y-100364332D01*
X166268189Y-100017644D01*
X166059710Y-99705634D01*
X165794366Y-99440290D01*
X165482356Y-99231811D01*
X165135668Y-99088209D01*
X164767626Y-99015000D01*
X164392374Y-99015000D01*
X164024332Y-99088209D01*
X163677644Y-99231811D01*
X163365634Y-99440290D01*
X163100290Y-99705634D01*
X162891811Y-100017644D01*
X162748209Y-100364332D01*
X162675000Y-100732374D01*
X151485000Y-100732374D01*
X151411791Y-100364332D01*
X151268189Y-100017644D01*
X151059710Y-99705634D01*
X150794366Y-99440290D01*
X150482356Y-99231811D01*
X150135668Y-99088209D01*
X149767626Y-99015000D01*
X149392374Y-99015000D01*
X149024332Y-99088209D01*
X148677644Y-99231811D01*
X148365634Y-99440290D01*
X148100290Y-99705634D01*
X147891811Y-100017644D01*
X147748209Y-100364332D01*
X147675000Y-100732374D01*
X136485000Y-100732374D01*
X136411791Y-100364332D01*
X136268189Y-100017644D01*
X136059710Y-99705634D01*
X135794366Y-99440290D01*
X135482356Y-99231811D01*
X135135668Y-99088209D01*
X134767626Y-99015000D01*
X134392374Y-99015000D01*
X134024332Y-99088209D01*
X133677644Y-99231811D01*
X133365634Y-99440290D01*
X133100290Y-99705634D01*
X132891811Y-100017644D01*
X132748209Y-100364332D01*
X132675000Y-100732374D01*
X121485000Y-100732374D01*
X121411791Y-100364332D01*
X121268189Y-100017644D01*
X121059710Y-99705634D01*
X120794366Y-99440290D01*
X120482356Y-99231811D01*
X120135668Y-99088209D01*
X119767626Y-99015000D01*
X119392374Y-99015000D01*
X119024332Y-99088209D01*
X118677644Y-99231811D01*
X118365634Y-99440290D01*
X118100290Y-99705634D01*
X117891811Y-100017644D01*
X117748209Y-100364332D01*
X117675000Y-100732374D01*
X100638072Y-100732374D01*
X100638072Y-99000000D01*
X100625812Y-98875518D01*
X100589502Y-98755820D01*
X100530537Y-98645506D01*
X100451185Y-98548815D01*
X100354494Y-98469463D01*
X100244180Y-98410498D01*
X100124482Y-98374188D01*
X100000000Y-98361928D01*
X98000000Y-98361928D01*
X97875518Y-98374188D01*
X97755820Y-98410498D01*
X97645506Y-98469463D01*
X97548815Y-98548815D01*
X97469463Y-98645506D01*
X97410498Y-98755820D01*
X97374188Y-98875518D01*
X97361928Y-99000000D01*
X97361928Y-101000000D01*
X97374188Y-101124482D01*
X97410498Y-101244180D01*
X97469463Y-101354494D01*
X97548815Y-101451185D01*
X97645506Y-101530537D01*
X97749223Y-101585976D01*
X97600186Y-101639956D01*
X97459296Y-101929571D01*
X97377616Y-102241108D01*
X97358282Y-102562595D01*
X82157400Y-102562595D01*
X82157400Y-102297364D01*
X82078335Y-101899879D01*
X81923244Y-101525456D01*
X81698087Y-101188484D01*
X81645016Y-101135413D01*
X83544192Y-101135413D01*
X83639956Y-101399814D01*
X83929571Y-101540704D01*
X84241108Y-101622384D01*
X84562595Y-101641718D01*
X84881675Y-101597961D01*
X85186088Y-101492795D01*
X85360044Y-101399814D01*
X85455808Y-101135413D01*
X84500000Y-100179605D01*
X83544192Y-101135413D01*
X81645016Y-101135413D01*
X81411516Y-100901913D01*
X81074544Y-100676756D01*
X80700121Y-100521665D01*
X80302636Y-100442600D01*
X79897364Y-100442600D01*
X79499879Y-100521665D01*
X79125456Y-100676756D01*
X78788484Y-100901913D01*
X78501913Y-101188484D01*
X78276756Y-101525456D01*
X78121665Y-101899879D01*
X78042600Y-102297364D01*
X77760000Y-102297364D01*
X77760000Y-100062595D01*
X82858282Y-100062595D01*
X82902039Y-100381675D01*
X83007205Y-100686088D01*
X83100186Y-100860044D01*
X83364587Y-100955808D01*
X84320395Y-100000000D01*
X84679605Y-100000000D01*
X85635413Y-100955808D01*
X85899814Y-100860044D01*
X86040704Y-100570429D01*
X86122384Y-100258892D01*
X86141718Y-99937405D01*
X86097961Y-99618325D01*
X85992795Y-99313912D01*
X85899814Y-99139956D01*
X85635413Y-99044192D01*
X84679605Y-100000000D01*
X84320395Y-100000000D01*
X83364587Y-99044192D01*
X83100186Y-99139956D01*
X82959296Y-99429571D01*
X82877616Y-99741108D01*
X82858282Y-100062595D01*
X77760000Y-100062595D01*
X77760000Y-98864587D01*
X83544192Y-98864587D01*
X84500000Y-99820395D01*
X85455808Y-98864587D01*
X85360044Y-98600186D01*
X85070429Y-98459296D01*
X84758892Y-98377616D01*
X84437405Y-98358282D01*
X84118325Y-98402039D01*
X83813912Y-98507205D01*
X83639956Y-98600186D01*
X83544192Y-98864587D01*
X77760000Y-98864587D01*
X77760000Y-95900000D01*
X89261928Y-95900000D01*
X89261928Y-97900000D01*
X89274188Y-98024482D01*
X89310498Y-98144180D01*
X89369463Y-98254494D01*
X89448815Y-98351185D01*
X89545506Y-98430537D01*
X89655820Y-98489502D01*
X89775518Y-98525812D01*
X89900000Y-98538072D01*
X93100000Y-98538072D01*
X93224482Y-98525812D01*
X93344180Y-98489502D01*
X93454494Y-98430537D01*
X93551185Y-98351185D01*
X93619925Y-98267424D01*
X113357000Y-98267424D01*
X113357000Y-98492576D01*
X113400925Y-98713401D01*
X113487087Y-98921413D01*
X113612174Y-99108620D01*
X113771380Y-99267826D01*
X113958587Y-99392913D01*
X114166599Y-99479075D01*
X114387424Y-99523000D01*
X114612576Y-99523000D01*
X114833401Y-99479075D01*
X115041413Y-99392913D01*
X115228620Y-99267826D01*
X115387826Y-99108620D01*
X115512913Y-98921413D01*
X115599075Y-98713401D01*
X115643000Y-98492576D01*
X115643000Y-98267424D01*
X128357000Y-98267424D01*
X128357000Y-98492576D01*
X128400925Y-98713401D01*
X128487087Y-98921413D01*
X128612174Y-99108620D01*
X128771380Y-99267826D01*
X128958587Y-99392913D01*
X129166599Y-99479075D01*
X129387424Y-99523000D01*
X129612576Y-99523000D01*
X129833401Y-99479075D01*
X130041413Y-99392913D01*
X130228620Y-99267826D01*
X130387826Y-99108620D01*
X130512913Y-98921413D01*
X130599075Y-98713401D01*
X130643000Y-98492576D01*
X130643000Y-98267424D01*
X143357000Y-98267424D01*
X143357000Y-98492576D01*
X143400925Y-98713401D01*
X143487087Y-98921413D01*
X143612174Y-99108620D01*
X143771380Y-99267826D01*
X143958587Y-99392913D01*
X144166599Y-99479075D01*
X144387424Y-99523000D01*
X144612576Y-99523000D01*
X144833401Y-99479075D01*
X145041413Y-99392913D01*
X145228620Y-99267826D01*
X145387826Y-99108620D01*
X145512913Y-98921413D01*
X145599075Y-98713401D01*
X145643000Y-98492576D01*
X145643000Y-98267424D01*
X158357000Y-98267424D01*
X158357000Y-98492576D01*
X158400925Y-98713401D01*
X158487087Y-98921413D01*
X158612174Y-99108620D01*
X158771380Y-99267826D01*
X158958587Y-99392913D01*
X159166599Y-99479075D01*
X159387424Y-99523000D01*
X159612576Y-99523000D01*
X159833401Y-99479075D01*
X160041413Y-99392913D01*
X160228620Y-99267826D01*
X160387826Y-99108620D01*
X160512913Y-98921413D01*
X160599075Y-98713401D01*
X160643000Y-98492576D01*
X160643000Y-98267424D01*
X160599075Y-98046599D01*
X160512913Y-97838587D01*
X160387826Y-97651380D01*
X160228620Y-97492174D01*
X160041413Y-97367087D01*
X159833401Y-97280925D01*
X159612576Y-97237000D01*
X159387424Y-97237000D01*
X159166599Y-97280925D01*
X158958587Y-97367087D01*
X158771380Y-97492174D01*
X158612174Y-97651380D01*
X158487087Y-97838587D01*
X158400925Y-98046599D01*
X158357000Y-98267424D01*
X145643000Y-98267424D01*
X145599075Y-98046599D01*
X145512913Y-97838587D01*
X145387826Y-97651380D01*
X145228620Y-97492174D01*
X145041413Y-97367087D01*
X144833401Y-97280925D01*
X144612576Y-97237000D01*
X144387424Y-97237000D01*
X144166599Y-97280925D01*
X143958587Y-97367087D01*
X143771380Y-97492174D01*
X143612174Y-97651380D01*
X143487087Y-97838587D01*
X143400925Y-98046599D01*
X143357000Y-98267424D01*
X130643000Y-98267424D01*
X130599075Y-98046599D01*
X130512913Y-97838587D01*
X130387826Y-97651380D01*
X130228620Y-97492174D01*
X130041413Y-97367087D01*
X129833401Y-97280925D01*
X129612576Y-97237000D01*
X129387424Y-97237000D01*
X129166599Y-97280925D01*
X128958587Y-97367087D01*
X128771380Y-97492174D01*
X128612174Y-97651380D01*
X128487087Y-97838587D01*
X128400925Y-98046599D01*
X128357000Y-98267424D01*
X115643000Y-98267424D01*
X115599075Y-98046599D01*
X115512913Y-97838587D01*
X115387826Y-97651380D01*
X115228620Y-97492174D01*
X115041413Y-97367087D01*
X114833401Y-97280925D01*
X114612576Y-97237000D01*
X114387424Y-97237000D01*
X114166599Y-97280925D01*
X113958587Y-97367087D01*
X113771380Y-97492174D01*
X113612174Y-97651380D01*
X113487087Y-97838587D01*
X113400925Y-98046599D01*
X113357000Y-98267424D01*
X93619925Y-98267424D01*
X93630537Y-98254494D01*
X93689502Y-98144180D01*
X93725812Y-98024482D01*
X93738072Y-97900000D01*
X93738072Y-95900000D01*
X93725812Y-95775518D01*
X93689502Y-95655820D01*
X93630537Y-95545506D01*
X93551185Y-95448815D01*
X93454494Y-95369463D01*
X93344180Y-95310498D01*
X93224482Y-95274188D01*
X93100000Y-95261928D01*
X89900000Y-95261928D01*
X89775518Y-95274188D01*
X89655820Y-95310498D01*
X89545506Y-95369463D01*
X89448815Y-95448815D01*
X89369463Y-95545506D01*
X89310498Y-95655820D01*
X89274188Y-95775518D01*
X89261928Y-95900000D01*
X77760000Y-95900000D01*
X77760000Y-94618514D01*
X103915000Y-94618514D01*
X103915000Y-94881486D01*
X103966304Y-95139405D01*
X104066939Y-95382359D01*
X104213038Y-95601013D01*
X104398987Y-95786962D01*
X104617641Y-95933061D01*
X104860595Y-96033696D01*
X105118514Y-96085000D01*
X105381486Y-96085000D01*
X105639405Y-96033696D01*
X105882359Y-95933061D01*
X106101013Y-95786962D01*
X106269461Y-95618514D01*
X106915000Y-95618514D01*
X106915000Y-95881486D01*
X106966304Y-96139405D01*
X107066939Y-96382359D01*
X107213038Y-96601013D01*
X107398987Y-96786962D01*
X107617641Y-96933061D01*
X107860595Y-97033696D01*
X108118514Y-97085000D01*
X108381486Y-97085000D01*
X108639405Y-97033696D01*
X108882359Y-96933061D01*
X109101013Y-96786962D01*
X109125000Y-96762975D01*
X109148987Y-96786962D01*
X109367641Y-96933061D01*
X109610595Y-97033696D01*
X109868514Y-97085000D01*
X110131486Y-97085000D01*
X110389405Y-97033696D01*
X110632359Y-96933061D01*
X110851013Y-96786962D01*
X111036962Y-96601013D01*
X111183061Y-96382359D01*
X111283696Y-96139405D01*
X111335000Y-95881486D01*
X111335000Y-95618514D01*
X111283696Y-95360595D01*
X111183061Y-95117641D01*
X111036962Y-94898987D01*
X110851013Y-94713038D01*
X110632359Y-94566939D01*
X110389405Y-94466304D01*
X110131486Y-94415000D01*
X109868514Y-94415000D01*
X109610595Y-94466304D01*
X109367641Y-94566939D01*
X109148987Y-94713038D01*
X109125000Y-94737025D01*
X109101013Y-94713038D01*
X108882359Y-94566939D01*
X108639405Y-94466304D01*
X108381486Y-94415000D01*
X108118514Y-94415000D01*
X107860595Y-94466304D01*
X107617641Y-94566939D01*
X107398987Y-94713038D01*
X107213038Y-94898987D01*
X107066939Y-95117641D01*
X106966304Y-95360595D01*
X106915000Y-95618514D01*
X106269461Y-95618514D01*
X106286962Y-95601013D01*
X106433061Y-95382359D01*
X106533696Y-95139405D01*
X106585000Y-94881486D01*
X106585000Y-94618514D01*
X106533696Y-94360595D01*
X106433061Y-94117641D01*
X106286962Y-93898987D01*
X106101013Y-93713038D01*
X105882359Y-93566939D01*
X105639405Y-93466304D01*
X105381486Y-93415000D01*
X105118514Y-93415000D01*
X104860595Y-93466304D01*
X104617641Y-93566939D01*
X104398987Y-93713038D01*
X104213038Y-93898987D01*
X104066939Y-94117641D01*
X103966304Y-94360595D01*
X103915000Y-94618514D01*
X77760000Y-94618514D01*
X77760000Y-93032279D01*
X77769580Y-92934576D01*
X77788580Y-92871644D01*
X77819445Y-92813595D01*
X77860989Y-92762657D01*
X77911644Y-92720752D01*
X77969471Y-92689485D01*
X78032272Y-92670044D01*
X78127835Y-92660000D01*
X94549393Y-92660000D01*
X94466304Y-92860595D01*
X94415000Y-93118514D01*
X94415000Y-93381486D01*
X94466304Y-93639405D01*
X94566939Y-93882359D01*
X94713038Y-94101013D01*
X94898987Y-94286962D01*
X95117641Y-94433061D01*
X95360595Y-94533696D01*
X95618514Y-94585000D01*
X95881486Y-94585000D01*
X96139405Y-94533696D01*
X96382359Y-94433061D01*
X96601013Y-94286962D01*
X96786962Y-94101013D01*
X96933061Y-93882359D01*
X97033696Y-93639405D01*
X97081317Y-93400000D01*
X117611928Y-93400000D01*
X117611928Y-94400000D01*
X117624188Y-94524482D01*
X117660498Y-94644180D01*
X117719463Y-94754494D01*
X117798815Y-94851185D01*
X117895506Y-94930537D01*
X118005820Y-94989502D01*
X118125518Y-95025812D01*
X118250000Y-95038072D01*
X119250000Y-95038072D01*
X119374482Y-95025812D01*
X119494180Y-94989502D01*
X119577226Y-94945112D01*
X119688933Y-94991383D01*
X119908212Y-95035000D01*
X120131788Y-95035000D01*
X120351067Y-94991383D01*
X120557624Y-94905824D01*
X120743520Y-94781612D01*
X120901612Y-94623520D01*
X121025824Y-94437624D01*
X121111383Y-94231067D01*
X121155000Y-94011788D01*
X121155000Y-93788212D01*
X128595000Y-93788212D01*
X128595000Y-94011788D01*
X128638617Y-94231067D01*
X128724176Y-94437624D01*
X128848388Y-94623520D01*
X129006480Y-94781612D01*
X129192376Y-94905824D01*
X129398933Y-94991383D01*
X129618212Y-95035000D01*
X129841788Y-95035000D01*
X130061067Y-94991383D01*
X130172774Y-94945112D01*
X130255820Y-94989502D01*
X130375518Y-95025812D01*
X130500000Y-95038072D01*
X131500000Y-95038072D01*
X131624482Y-95025812D01*
X131744180Y-94989502D01*
X131809390Y-94954646D01*
X131816304Y-94989405D01*
X131916939Y-95232359D01*
X132063038Y-95451013D01*
X132248987Y-95636962D01*
X132467641Y-95783061D01*
X132710595Y-95883696D01*
X132968514Y-95935000D01*
X133231486Y-95935000D01*
X133489405Y-95883696D01*
X133732359Y-95783061D01*
X133951013Y-95636962D01*
X134136962Y-95451013D01*
X134283061Y-95232359D01*
X134383696Y-94989405D01*
X134435000Y-94731486D01*
X134435000Y-94468514D01*
X134383696Y-94210595D01*
X134283061Y-93967641D01*
X134136962Y-93748987D01*
X133951013Y-93563038D01*
X133732359Y-93416939D01*
X133489405Y-93316304D01*
X133231486Y-93265000D01*
X132968514Y-93265000D01*
X132710595Y-93316304D01*
X132467641Y-93416939D01*
X132248987Y-93563038D01*
X132138072Y-93673953D01*
X132138072Y-93400000D01*
X132125812Y-93275518D01*
X132089502Y-93155820D01*
X132030537Y-93045506D01*
X131951185Y-92948815D01*
X131854494Y-92869463D01*
X131744180Y-92810498D01*
X131624482Y-92774188D01*
X131500000Y-92761928D01*
X130500000Y-92761928D01*
X130375518Y-92774188D01*
X130255820Y-92810498D01*
X130172774Y-92854888D01*
X130061067Y-92808617D01*
X129841788Y-92765000D01*
X129618212Y-92765000D01*
X129398933Y-92808617D01*
X129192376Y-92894176D01*
X129006480Y-93018388D01*
X128848388Y-93176480D01*
X128724176Y-93362376D01*
X128638617Y-93568933D01*
X128595000Y-93788212D01*
X121155000Y-93788212D01*
X121111383Y-93568933D01*
X121025824Y-93362376D01*
X120901612Y-93176480D01*
X120743520Y-93018388D01*
X120557624Y-92894176D01*
X120351067Y-92808617D01*
X120131788Y-92765000D01*
X119908212Y-92765000D01*
X119688933Y-92808617D01*
X119577226Y-92854888D01*
X119494180Y-92810498D01*
X119374482Y-92774188D01*
X119250000Y-92761928D01*
X118250000Y-92761928D01*
X118125518Y-92774188D01*
X118005820Y-92810498D01*
X117895506Y-92869463D01*
X117798815Y-92948815D01*
X117719463Y-93045506D01*
X117660498Y-93155820D01*
X117624188Y-93275518D01*
X117611928Y-93400000D01*
X97081317Y-93400000D01*
X97085000Y-93381486D01*
X97085000Y-93118514D01*
X97033696Y-92860595D01*
X96950607Y-92660000D01*
X148088862Y-92660000D01*
X148016939Y-92767641D01*
X147916304Y-93010595D01*
X147865000Y-93268514D01*
X147865000Y-93531486D01*
X147916304Y-93789405D01*
X148016939Y-94032359D01*
X148163038Y-94251013D01*
X148348987Y-94436962D01*
X148567641Y-94583061D01*
X148810595Y-94683696D01*
X149068514Y-94735000D01*
X149331486Y-94735000D01*
X149589405Y-94683696D01*
X149832359Y-94583061D01*
X150051013Y-94436962D01*
X150236962Y-94251013D01*
X150383061Y-94032359D01*
X150483696Y-93789405D01*
X150535000Y-93531486D01*
X150535000Y-93268514D01*
X150530721Y-93247000D01*
X156590000Y-93247000D01*
X156590000Y-93997000D01*
X156635624Y-94206233D01*
X156721191Y-94402545D01*
X156843413Y-94578391D01*
X156997592Y-94727014D01*
X157177803Y-94842702D01*
X157380999Y-94914408D01*
X157548000Y-94787502D01*
X157548000Y-93247000D01*
X156590000Y-93247000D01*
X150530721Y-93247000D01*
X150483696Y-93010595D01*
X150383061Y-92767641D01*
X150311138Y-92660000D01*
X155532419Y-92660000D01*
X155560674Y-92657217D01*
X155566801Y-92657260D01*
X155575972Y-92656360D01*
X155770069Y-92635959D01*
X155828658Y-92623932D01*
X155887423Y-92612723D01*
X155896245Y-92610059D01*
X156082683Y-92552347D01*
X156137838Y-92529162D01*
X156193291Y-92506758D01*
X156201427Y-92502432D01*
X156373104Y-92409607D01*
X156422699Y-92376154D01*
X156472753Y-92343400D01*
X156479894Y-92337576D01*
X156590000Y-92246488D01*
X156590000Y-92993000D01*
X157548000Y-92993000D01*
X157548000Y-91452498D01*
X157380999Y-91325592D01*
X157177803Y-91397298D01*
X157092547Y-91452029D01*
X157112786Y-91384994D01*
X157124405Y-91326314D01*
X157136842Y-91267804D01*
X157137805Y-91258639D01*
X157153636Y-91097188D01*
X157177803Y-91112702D01*
X157380999Y-91184408D01*
X157548000Y-91057502D01*
X157548000Y-89867000D01*
X157802000Y-89867000D01*
X157802000Y-91057502D01*
X157969001Y-91184408D01*
X158172197Y-91112702D01*
X158352408Y-90997014D01*
X158506587Y-90848391D01*
X158522517Y-90825472D01*
X158513214Y-90856140D01*
X158486241Y-91130000D01*
X158513214Y-91403860D01*
X158593096Y-91667195D01*
X158701569Y-91870135D01*
X158651886Y-91890400D01*
X158628809Y-91837455D01*
X158506587Y-91661609D01*
X158352408Y-91512986D01*
X158172197Y-91397298D01*
X157969001Y-91325592D01*
X157802000Y-91452498D01*
X157802000Y-92993000D01*
X158089369Y-92993000D01*
X158100392Y-93050028D01*
X158171813Y-93225126D01*
X158176730Y-93234323D01*
X158359073Y-93247000D01*
X157802000Y-93247000D01*
X157802000Y-94787502D01*
X157969001Y-94914408D01*
X158172197Y-94842702D01*
X158352408Y-94727014D01*
X158506587Y-94578391D01*
X158628809Y-94402545D01*
X158695225Y-94250170D01*
X158845395Y-94100000D01*
X158831253Y-94085858D01*
X158915829Y-94001281D01*
X158915000Y-94005448D01*
X158915000Y-94194552D01*
X158947361Y-94357244D01*
X158552069Y-94752536D01*
X158565677Y-94948270D01*
X158739992Y-95021581D01*
X158925260Y-95059475D01*
X159114361Y-95060497D01*
X159300028Y-95024608D01*
X159450462Y-94963247D01*
X159594978Y-95023108D01*
X159780448Y-95060000D01*
X159969552Y-95060000D01*
X160155022Y-95023108D01*
X160300000Y-94963056D01*
X160444978Y-95023108D01*
X160630448Y-95060000D01*
X160819552Y-95060000D01*
X161005022Y-95023108D01*
X161150000Y-94963056D01*
X161294978Y-95023108D01*
X161480448Y-95060000D01*
X161669552Y-95060000D01*
X161855022Y-95023108D01*
X162000000Y-94963056D01*
X162144978Y-95023108D01*
X162330448Y-95060000D01*
X162519552Y-95060000D01*
X162705022Y-95023108D01*
X162850000Y-94963056D01*
X162994978Y-95023108D01*
X163180448Y-95060000D01*
X163369552Y-95060000D01*
X163555022Y-95023108D01*
X163700000Y-94963056D01*
X163844978Y-95023108D01*
X164030448Y-95060000D01*
X164219552Y-95060000D01*
X164405022Y-95023108D01*
X164550420Y-94962882D01*
X164689992Y-95021581D01*
X164875260Y-95059475D01*
X165064361Y-95060497D01*
X165250028Y-95024608D01*
X165425126Y-94953187D01*
X165434323Y-94948270D01*
X165447931Y-94752536D01*
X165052639Y-94357244D01*
X165085000Y-94194552D01*
X165085000Y-94005448D01*
X165084171Y-94001281D01*
X165168748Y-94085858D01*
X165154605Y-94100000D01*
X165304775Y-94250170D01*
X165371191Y-94402545D01*
X165493413Y-94578391D01*
X165647592Y-94727014D01*
X165827803Y-94842702D01*
X166030999Y-94914408D01*
X166198000Y-94787502D01*
X166198000Y-93247000D01*
X166452000Y-93247000D01*
X166452000Y-94787502D01*
X166619001Y-94914408D01*
X166822197Y-94842702D01*
X167002408Y-94727014D01*
X167156587Y-94578391D01*
X167278809Y-94402545D01*
X167364376Y-94206233D01*
X167410000Y-93997000D01*
X167410000Y-93247000D01*
X166452000Y-93247000D01*
X166198000Y-93247000D01*
X165645927Y-93247000D01*
X165828270Y-93234323D01*
X165901581Y-93060008D01*
X165915287Y-92993000D01*
X166198000Y-92993000D01*
X166198000Y-91452498D01*
X166030999Y-91325592D01*
X165827803Y-91397298D01*
X165647592Y-91512986D01*
X165493413Y-91661609D01*
X165371191Y-91837455D01*
X165348861Y-91888685D01*
X165315921Y-91874831D01*
X165426904Y-91667195D01*
X165506786Y-91403860D01*
X165533759Y-91130000D01*
X165507346Y-90861822D01*
X165647592Y-90997014D01*
X165827803Y-91112702D01*
X166030999Y-91184408D01*
X166198000Y-91057502D01*
X166198000Y-89867000D01*
X165240000Y-89867000D01*
X165240000Y-90267000D01*
X165243990Y-90285296D01*
X165122608Y-90137392D01*
X164909887Y-89962817D01*
X164667195Y-89833096D01*
X164403860Y-89753214D01*
X164198625Y-89733000D01*
X159821375Y-89733000D01*
X159616140Y-89753214D01*
X159352805Y-89833096D01*
X159110113Y-89962817D01*
X158897392Y-90137392D01*
X158748774Y-90318485D01*
X158760000Y-90267000D01*
X158760000Y-89867000D01*
X157802000Y-89867000D01*
X157548000Y-89867000D01*
X157528000Y-89867000D01*
X157528000Y-89613000D01*
X157548000Y-89613000D01*
X157548000Y-88422498D01*
X157802000Y-88422498D01*
X157802000Y-89613000D01*
X158760000Y-89613000D01*
X158760000Y-89213000D01*
X165240000Y-89213000D01*
X165240000Y-89613000D01*
X166198000Y-89613000D01*
X166198000Y-88422498D01*
X166030999Y-88295592D01*
X165827803Y-88367298D01*
X165647592Y-88482986D01*
X165493413Y-88631609D01*
X165371191Y-88807455D01*
X165285624Y-89003767D01*
X165240000Y-89213000D01*
X158760000Y-89213000D01*
X158714376Y-89003767D01*
X158628809Y-88807455D01*
X158506587Y-88631609D01*
X158352408Y-88482986D01*
X158172197Y-88367298D01*
X157969001Y-88295592D01*
X157802000Y-88422498D01*
X157548000Y-88422498D01*
X157380999Y-88295592D01*
X157177803Y-88367298D01*
X157160000Y-88378727D01*
X157160000Y-86532279D01*
X157169580Y-86434576D01*
X157188580Y-86371644D01*
X157219445Y-86313595D01*
X157260989Y-86262657D01*
X157311644Y-86220752D01*
X157369471Y-86189485D01*
X157432272Y-86170044D01*
X157527835Y-86160000D01*
X166467721Y-86160000D01*
X166565424Y-86169580D01*
G37*
X166565424Y-86169580D02*
X166628356Y-86188580D01*
X166686405Y-86219445D01*
X166737343Y-86260989D01*
X166779248Y-86311644D01*
X166810515Y-86369471D01*
X166829956Y-86432272D01*
X166840001Y-86527845D01*
X166840001Y-88378727D01*
X166822197Y-88367298D01*
X166619001Y-88295592D01*
X166452000Y-88422498D01*
X166452000Y-89613000D01*
X166472000Y-89613000D01*
X166472000Y-89867000D01*
X166452000Y-89867000D01*
X166452000Y-91057502D01*
X166619001Y-91184408D01*
X166822197Y-91112702D01*
X166845901Y-91097485D01*
X166864041Y-91270069D01*
X166876068Y-91328658D01*
X166887277Y-91387423D01*
X166889941Y-91396245D01*
X166907148Y-91451833D01*
X166822197Y-91397298D01*
X166619001Y-91325592D01*
X166452000Y-91452498D01*
X166452000Y-92993000D01*
X167410000Y-92993000D01*
X167410000Y-92246947D01*
X167529469Y-92344384D01*
X167579277Y-92377477D01*
X167628651Y-92411284D01*
X167636757Y-92415667D01*
X167809080Y-92507292D01*
X167864392Y-92530090D01*
X167919366Y-92553652D01*
X167928169Y-92556377D01*
X168115006Y-92612786D01*
X168173686Y-92624405D01*
X168232196Y-92636842D01*
X168241361Y-92637805D01*
X168435594Y-92656850D01*
X168435598Y-92656850D01*
X168467581Y-92660000D01*
X174467721Y-92660000D01*
X174565424Y-92669580D01*
X174628356Y-92688580D01*
X174686405Y-92719445D01*
X174737343Y-92760989D01*
X174779248Y-92811644D01*
X174810515Y-92869471D01*
X174829956Y-92932272D01*
X174840000Y-93027835D01*
X174840001Y-111967711D01*
X174830420Y-112065424D01*
X174811420Y-112128357D01*
X174780554Y-112186406D01*
X174739011Y-112237343D01*
X174688356Y-112279248D01*
X174630529Y-112310515D01*
X174567728Y-112329956D01*
X174472165Y-112340000D01*
X115700107Y-112340000D01*
X115893475Y-112146632D01*
X116055990Y-111903411D01*
X116167932Y-111633158D01*
X116225000Y-111346260D01*
X116225000Y-111053740D01*
X116167932Y-110766842D01*
X116140246Y-110700000D01*
X121761928Y-110700000D01*
X121761928Y-111700000D01*
X121774188Y-111824482D01*
X121810498Y-111944180D01*
X121869463Y-112054494D01*
X121948815Y-112151185D01*
X122045506Y-112230537D01*
X122155820Y-112289502D01*
X122275518Y-112325812D01*
X122400000Y-112338072D01*
X123400000Y-112338072D01*
X123524482Y-112325812D01*
X123644180Y-112289502D01*
X123727226Y-112245112D01*
X123838933Y-112291383D01*
X124058212Y-112335000D01*
X124281788Y-112335000D01*
X124501067Y-112291383D01*
X124707624Y-112205824D01*
X124893520Y-112081612D01*
X125051612Y-111923520D01*
X125175824Y-111737624D01*
X125261383Y-111531067D01*
X125305000Y-111311788D01*
X125305000Y-111088212D01*
X125261383Y-110868933D01*
X125175824Y-110662376D01*
X125051612Y-110476480D01*
X124893520Y-110318388D01*
X124707624Y-110194176D01*
X124501067Y-110108617D01*
X124281788Y-110065000D01*
X124058212Y-110065000D01*
X123838933Y-110108617D01*
X123727226Y-110154888D01*
X123644180Y-110110498D01*
X123524482Y-110074188D01*
X123400000Y-110061928D01*
X122400000Y-110061928D01*
X122275518Y-110074188D01*
X122155820Y-110110498D01*
X122045506Y-110169463D01*
X121948815Y-110248815D01*
X121869463Y-110345506D01*
X121810498Y-110455820D01*
X121774188Y-110575518D01*
X121761928Y-110700000D01*
X116140246Y-110700000D01*
X116055990Y-110496589D01*
X115893475Y-110253368D01*
X115686632Y-110046525D01*
X115443411Y-109884010D01*
X115173158Y-109772068D01*
X114886260Y-109715000D01*
X114593740Y-109715000D01*
X114306842Y-109772068D01*
X114036589Y-109884010D01*
X113793368Y-110046525D01*
X113661513Y-110178380D01*
X113639502Y-110105820D01*
X113580537Y-109995506D01*
X113501185Y-109898815D01*
X113404494Y-109819463D01*
X113294180Y-109760498D01*
X113174482Y-109724188D01*
X113050000Y-109711928D01*
X112485750Y-109715000D01*
X112327000Y-109873750D01*
X112327000Y-111073000D01*
X112347000Y-111073000D01*
X112347000Y-111327000D01*
X112327000Y-111327000D01*
X112327000Y-111347000D01*
X112073000Y-111347000D01*
X112073000Y-111327000D01*
X110873750Y-111327000D01*
X110715000Y-111485750D01*
X110711928Y-112050000D01*
X110724188Y-112174482D01*
X110760498Y-112294180D01*
X110784990Y-112340000D01*
X78132279Y-112340000D01*
X78034576Y-112330420D01*
X77971643Y-112311420D01*
X77913594Y-112280554D01*
X77862657Y-112239011D01*
X77820752Y-112188356D01*
X77789485Y-112130529D01*
X77770044Y-112067728D01*
X77760000Y-111972165D01*
X77760000Y-110618514D01*
X107915000Y-110618514D01*
X107915000Y-110881486D01*
X107966304Y-111139405D01*
X108066939Y-111382359D01*
X108213038Y-111601013D01*
X108398987Y-111786962D01*
X108617641Y-111933061D01*
X108860595Y-112033696D01*
X109118514Y-112085000D01*
X109381486Y-112085000D01*
X109639405Y-112033696D01*
X109882359Y-111933061D01*
X110101013Y-111786962D01*
X110286962Y-111601013D01*
X110433061Y-111382359D01*
X110533696Y-111139405D01*
X110585000Y-110881486D01*
X110585000Y-110618514D01*
X110533696Y-110360595D01*
X110529308Y-110350000D01*
X110711928Y-110350000D01*
X110715000Y-110914250D01*
X110873750Y-111073000D01*
X112073000Y-111073000D01*
X112073000Y-109873750D01*
X111914250Y-109715000D01*
X111350000Y-109711928D01*
X111225518Y-109724188D01*
X111105820Y-109760498D01*
X110995506Y-109819463D01*
X110898815Y-109898815D01*
X110819463Y-109995506D01*
X110760498Y-110105820D01*
X110724188Y-110225518D01*
X110711928Y-110350000D01*
X110529308Y-110350000D01*
X110433061Y-110117641D01*
X110286962Y-109898987D01*
X110101013Y-109713038D01*
X109882359Y-109566939D01*
X109639405Y-109466304D01*
X109381486Y-109415000D01*
X109118514Y-109415000D01*
X108860595Y-109466304D01*
X108617641Y-109566939D01*
X108398987Y-109713038D01*
X108213038Y-109898987D01*
X108066939Y-110117641D01*
X107966304Y-110360595D01*
X107915000Y-110618514D01*
X77760000Y-110618514D01*
X77760000Y-107100000D01*
X89261928Y-107100000D01*
X89261928Y-109100000D01*
X89274188Y-109224482D01*
X89310498Y-109344180D01*
X89369463Y-109454494D01*
X89448815Y-109551185D01*
X89545506Y-109630537D01*
X89655820Y-109689502D01*
X89775518Y-109725812D01*
X89900000Y-109738072D01*
X93100000Y-109738072D01*
X93224482Y-109725812D01*
X93344180Y-109689502D01*
X93454494Y-109630537D01*
X93551185Y-109551185D01*
X93630537Y-109454494D01*
X93689502Y-109344180D01*
X93725812Y-109224482D01*
X93738072Y-109100000D01*
X93738072Y-107100000D01*
X93725812Y-106975518D01*
X93689502Y-106855820D01*
X93630537Y-106745506D01*
X93551185Y-106648815D01*
X93454494Y-106569463D01*
X93344180Y-106510498D01*
X93224482Y-106474188D01*
X93100000Y-106461928D01*
X89900000Y-106461928D01*
X89775518Y-106474188D01*
X89655820Y-106510498D01*
X89545506Y-106569463D01*
X89448815Y-106648815D01*
X89369463Y-106745506D01*
X89310498Y-106855820D01*
X89274188Y-106975518D01*
X89261928Y-107100000D01*
X77760000Y-107100000D01*
X77760000Y-104838967D01*
X82865000Y-104838967D01*
X82865000Y-105161033D01*
X82927832Y-105476912D01*
X83051082Y-105774463D01*
X83230013Y-106042252D01*
X83457748Y-106269987D01*
X83725537Y-106448918D01*
X84023088Y-106572168D01*
X84338967Y-106635000D01*
X84661033Y-106635000D01*
X84976912Y-106572168D01*
X85274463Y-106448918D01*
X85542252Y-106269987D01*
X85769987Y-106042252D01*
X85948918Y-105774463D01*
X86072168Y-105476912D01*
X86135000Y-105161033D01*
X86135000Y-104838967D01*
X86072168Y-104523088D01*
X85948918Y-104225537D01*
X85769987Y-103957748D01*
X85542252Y-103730013D01*
X85274463Y-103551082D01*
X84976912Y-103427832D01*
X84661033Y-103365000D01*
X84338967Y-103365000D01*
X84023088Y-103427832D01*
X83725537Y-103551082D01*
X83457748Y-103730013D01*
X83230013Y-103957748D01*
X83051082Y-104225537D01*
X82927832Y-104523088D01*
X82865000Y-104838967D01*
X77760000Y-104838967D01*
X77760000Y-102297364D01*
X78042600Y-102297364D01*
X78042600Y-102702636D01*
X78121665Y-103100121D01*
X78276756Y-103474544D01*
X78501913Y-103811516D01*
X78788484Y-104098087D01*
X79125456Y-104323244D01*
X79499879Y-104478335D01*
X79897364Y-104557400D01*
X80302636Y-104557400D01*
X80700121Y-104478335D01*
X81074544Y-104323244D01*
X81411516Y-104098087D01*
X81698087Y-103811516D01*
X81923244Y-103474544D01*
X82078335Y-103100121D01*
X82157400Y-102702636D01*
X82157400Y-102562595D01*
X97358282Y-102562595D01*
X97402039Y-102881675D01*
X97507205Y-103186088D01*
X97600186Y-103360044D01*
X97864587Y-103455808D01*
X98820395Y-102500000D01*
X98806253Y-102485858D01*
X98985858Y-102306253D01*
X99000000Y-102320395D01*
X99014143Y-102306253D01*
X99193748Y-102485858D01*
X99179605Y-102500000D01*
X99193748Y-102514143D01*
X99014143Y-102693748D01*
X99000000Y-102679605D01*
X98044192Y-103635413D01*
X98054935Y-103665075D01*
X97957748Y-103730013D01*
X97730013Y-103957748D01*
X97551082Y-104225537D01*
X97427832Y-104523088D01*
X97365000Y-104838967D01*
X97365000Y-105161033D01*
X97427832Y-105476912D01*
X97551082Y-105774463D01*
X97730013Y-106042252D01*
X97957748Y-106269987D01*
X98225537Y-106448918D01*
X98523088Y-106572168D01*
X98838967Y-106635000D01*
X98916146Y-106635000D01*
X98832795Y-106759744D01*
X98754774Y-106948102D01*
X98715000Y-107148061D01*
X98715000Y-107351939D01*
X98754774Y-107551898D01*
X98832795Y-107740256D01*
X98946063Y-107909774D01*
X99090226Y-108053937D01*
X99259744Y-108167205D01*
X99448102Y-108245226D01*
X99648061Y-108285000D01*
X99851939Y-108285000D01*
X100051898Y-108245226D01*
X100240256Y-108167205D01*
X100409774Y-108053937D01*
X100553937Y-107909774D01*
X100667205Y-107740256D01*
X100745226Y-107551898D01*
X100785000Y-107351939D01*
X100785000Y-107327852D01*
X113351753Y-107327852D01*
X113480076Y-107619871D01*
X113815695Y-107787723D01*
X114177611Y-107886874D01*
X114551916Y-107913514D01*
X114924227Y-107866618D01*
X115280235Y-107747988D01*
X115519924Y-107619871D01*
X115648247Y-107327852D01*
X114500000Y-106179605D01*
X113351753Y-107327852D01*
X100785000Y-107327852D01*
X100785000Y-107289802D01*
X101011002Y-107063799D01*
X101040001Y-107040001D01*
X101134974Y-106924276D01*
X101205546Y-106792247D01*
X101249003Y-106648986D01*
X101260000Y-106537333D01*
X101260000Y-106537324D01*
X101263676Y-106500001D01*
X101260000Y-106462678D01*
X101260000Y-106051916D01*
X112586486Y-106051916D01*
X112633382Y-106424227D01*
X112752012Y-106780235D01*
X112880129Y-107019924D01*
X113172148Y-107148247D01*
X114320395Y-106000000D01*
X114679605Y-106000000D01*
X115827852Y-107148247D01*
X116116810Y-107021269D01*
X117558336Y-107021269D01*
X117617797Y-107255037D01*
X117856242Y-107365934D01*
X118111740Y-107428183D01*
X118374473Y-107439390D01*
X118634344Y-107399125D01*
X118829554Y-107327852D01*
X128351753Y-107327852D01*
X128480076Y-107619871D01*
X128815695Y-107787723D01*
X129177611Y-107886874D01*
X129551916Y-107913514D01*
X129924227Y-107866618D01*
X130280235Y-107747988D01*
X130519924Y-107619871D01*
X130648247Y-107327852D01*
X143351753Y-107327852D01*
X143480076Y-107619871D01*
X143815695Y-107787723D01*
X144177611Y-107886874D01*
X144551916Y-107913514D01*
X144924227Y-107866618D01*
X145280235Y-107747988D01*
X145519924Y-107619871D01*
X145648247Y-107327852D01*
X158351753Y-107327852D01*
X158480076Y-107619871D01*
X158815695Y-107787723D01*
X159177611Y-107886874D01*
X159551916Y-107913514D01*
X159924227Y-107866618D01*
X160280235Y-107747988D01*
X160519924Y-107619871D01*
X160648247Y-107327852D01*
X159500000Y-106179605D01*
X158351753Y-107327852D01*
X145648247Y-107327852D01*
X144500000Y-106179605D01*
X143351753Y-107327852D01*
X130648247Y-107327852D01*
X129500000Y-106179605D01*
X128351753Y-107327852D01*
X118829554Y-107327852D01*
X118881366Y-107308935D01*
X118982203Y-107255037D01*
X119041664Y-107021269D01*
X118300000Y-106279605D01*
X117558336Y-107021269D01*
X116116810Y-107021269D01*
X116119871Y-107019924D01*
X116287723Y-106684305D01*
X116386874Y-106322389D01*
X116397401Y-106174473D01*
X116960610Y-106174473D01*
X117000875Y-106434344D01*
X117091065Y-106681366D01*
X117144963Y-106782203D01*
X117378731Y-106841664D01*
X118120395Y-106100000D01*
X118479605Y-106100000D01*
X119221269Y-106841664D01*
X119455037Y-106782203D01*
X119565934Y-106543758D01*
X119628183Y-106288260D01*
X119638264Y-106051916D01*
X127586486Y-106051916D01*
X127633382Y-106424227D01*
X127752012Y-106780235D01*
X127880129Y-107019924D01*
X128172148Y-107148247D01*
X129320395Y-106000000D01*
X129679605Y-106000000D01*
X130827852Y-107148247D01*
X131119871Y-107019924D01*
X131287723Y-106684305D01*
X131386874Y-106322389D01*
X131406124Y-106051916D01*
X142586486Y-106051916D01*
X142633382Y-106424227D01*
X142752012Y-106780235D01*
X142880129Y-107019924D01*
X143172148Y-107148247D01*
X144320395Y-106000000D01*
X144679605Y-106000000D01*
X145827852Y-107148247D01*
X146119871Y-107019924D01*
X146287723Y-106684305D01*
X146386874Y-106322389D01*
X146406124Y-106051916D01*
X157586486Y-106051916D01*
X157633382Y-106424227D01*
X157752012Y-106780235D01*
X157880129Y-107019924D01*
X158172148Y-107148247D01*
X159320395Y-106000000D01*
X159679605Y-106000000D01*
X160827852Y-107148247D01*
X161119871Y-107019924D01*
X161287723Y-106684305D01*
X161386874Y-106322389D01*
X161413514Y-105948084D01*
X161366618Y-105575773D01*
X161247988Y-105219765D01*
X161119871Y-104980076D01*
X160827852Y-104851753D01*
X159679605Y-106000000D01*
X159320395Y-106000000D01*
X158172148Y-104851753D01*
X157880129Y-104980076D01*
X157712277Y-105315695D01*
X157613126Y-105677611D01*
X157586486Y-106051916D01*
X146406124Y-106051916D01*
X146413514Y-105948084D01*
X146366618Y-105575773D01*
X146247988Y-105219765D01*
X146119871Y-104980076D01*
X145827852Y-104851753D01*
X144679605Y-106000000D01*
X144320395Y-106000000D01*
X143172148Y-104851753D01*
X142880129Y-104980076D01*
X142712277Y-105315695D01*
X142613126Y-105677611D01*
X142586486Y-106051916D01*
X131406124Y-106051916D01*
X131413514Y-105948084D01*
X131366618Y-105575773D01*
X131247988Y-105219765D01*
X131119871Y-104980076D01*
X130827852Y-104851753D01*
X129679605Y-106000000D01*
X129320395Y-106000000D01*
X128172148Y-104851753D01*
X127880129Y-104980076D01*
X127712277Y-105315695D01*
X127613126Y-105677611D01*
X127586486Y-106051916D01*
X119638264Y-106051916D01*
X119639390Y-106025527D01*
X119599125Y-105765656D01*
X119508935Y-105518634D01*
X119455037Y-105417797D01*
X119221269Y-105358336D01*
X118479605Y-106100000D01*
X118120395Y-106100000D01*
X117378731Y-105358336D01*
X117144963Y-105417797D01*
X117034066Y-105656242D01*
X116971817Y-105911740D01*
X116960610Y-106174473D01*
X116397401Y-106174473D01*
X116413514Y-105948084D01*
X116366618Y-105575773D01*
X116247988Y-105219765D01*
X116226055Y-105178731D01*
X117558336Y-105178731D01*
X118300000Y-105920395D01*
X119041664Y-105178731D01*
X118982203Y-104944963D01*
X118743758Y-104834066D01*
X118488260Y-104771817D01*
X118225527Y-104760610D01*
X117965656Y-104800875D01*
X117718634Y-104891065D01*
X117617797Y-104944963D01*
X117558336Y-105178731D01*
X116226055Y-105178731D01*
X116119871Y-104980076D01*
X115827852Y-104851753D01*
X114679605Y-106000000D01*
X114320395Y-106000000D01*
X113172148Y-104851753D01*
X112880129Y-104980076D01*
X112712277Y-105315695D01*
X112613126Y-105677611D01*
X112586486Y-106051916D01*
X101260000Y-106051916D01*
X101260000Y-104672148D01*
X113351753Y-104672148D01*
X114500000Y-105820395D01*
X115648247Y-104672148D01*
X128351753Y-104672148D01*
X129500000Y-105820395D01*
X130648247Y-104672148D01*
X143351753Y-104672148D01*
X144500000Y-105820395D01*
X145648247Y-104672148D01*
X158351753Y-104672148D01*
X159500000Y-105820395D01*
X160648247Y-104672148D01*
X160519924Y-104380129D01*
X160184305Y-104212277D01*
X159822389Y-104113126D01*
X159448084Y-104086486D01*
X159075773Y-104133382D01*
X158719765Y-104252012D01*
X158480076Y-104380129D01*
X158351753Y-104672148D01*
X145648247Y-104672148D01*
X145519924Y-104380129D01*
X145184305Y-104212277D01*
X144822389Y-104113126D01*
X144448084Y-104086486D01*
X144075773Y-104133382D01*
X143719765Y-104252012D01*
X143480076Y-104380129D01*
X143351753Y-104672148D01*
X130648247Y-104672148D01*
X130519924Y-104380129D01*
X130184305Y-104212277D01*
X129822389Y-104113126D01*
X129448084Y-104086486D01*
X129075773Y-104133382D01*
X128719765Y-104252012D01*
X128480076Y-104380129D01*
X128351753Y-104672148D01*
X115648247Y-104672148D01*
X115519924Y-104380129D01*
X115184305Y-104212277D01*
X114822389Y-104113126D01*
X114448084Y-104086486D01*
X114075773Y-104133382D01*
X113719765Y-104252012D01*
X113480076Y-104380129D01*
X113351753Y-104672148D01*
X101260000Y-104672148D01*
X101260000Y-104564801D01*
X101539802Y-104285000D01*
X101601939Y-104285000D01*
X101801898Y-104245226D01*
X101990256Y-104167205D01*
X102159774Y-104053937D01*
X102303937Y-103909774D01*
X102417205Y-103740256D01*
X102495226Y-103551898D01*
X102535000Y-103351939D01*
X102535000Y-103347424D01*
X120977000Y-103347424D01*
X120977000Y-103572576D01*
X121020925Y-103793401D01*
X121107087Y-104001413D01*
X121232174Y-104188620D01*
X121391380Y-104347826D01*
X121578587Y-104472913D01*
X121786599Y-104559075D01*
X122007424Y-104603000D01*
X122232576Y-104603000D01*
X122453401Y-104559075D01*
X122661413Y-104472913D01*
X122848620Y-104347826D01*
X123007826Y-104188620D01*
X123132913Y-104001413D01*
X123219075Y-103793401D01*
X123263000Y-103572576D01*
X123263000Y-103347424D01*
X135977000Y-103347424D01*
X135977000Y-103572576D01*
X136020925Y-103793401D01*
X136107087Y-104001413D01*
X136232174Y-104188620D01*
X136391380Y-104347826D01*
X136578587Y-104472913D01*
X136786599Y-104559075D01*
X137007424Y-104603000D01*
X137232576Y-104603000D01*
X137453401Y-104559075D01*
X137661413Y-104472913D01*
X137848620Y-104347826D01*
X138007826Y-104188620D01*
X138132913Y-104001413D01*
X138219075Y-103793401D01*
X138263000Y-103572576D01*
X138263000Y-103347424D01*
X150977000Y-103347424D01*
X150977000Y-103572576D01*
X151020925Y-103793401D01*
X151107087Y-104001413D01*
X151232174Y-104188620D01*
X151391380Y-104347826D01*
X151578587Y-104472913D01*
X151786599Y-104559075D01*
X152007424Y-104603000D01*
X152232576Y-104603000D01*
X152453401Y-104559075D01*
X152661413Y-104472913D01*
X152848620Y-104347826D01*
X153007826Y-104188620D01*
X153132913Y-104001413D01*
X153219075Y-103793401D01*
X153263000Y-103572576D01*
X153263000Y-103347424D01*
X165977000Y-103347424D01*
X165977000Y-103572576D01*
X166020925Y-103793401D01*
X166107087Y-104001413D01*
X166232174Y-104188620D01*
X166391380Y-104347826D01*
X166578587Y-104472913D01*
X166786599Y-104559075D01*
X167007424Y-104603000D01*
X167232576Y-104603000D01*
X167453401Y-104559075D01*
X167661413Y-104472913D01*
X167848620Y-104347826D01*
X168007826Y-104188620D01*
X168132913Y-104001413D01*
X168219075Y-103793401D01*
X168263000Y-103572576D01*
X168263000Y-103347424D01*
X168219075Y-103126599D01*
X168132913Y-102918587D01*
X168007826Y-102731380D01*
X167848620Y-102572174D01*
X167661413Y-102447087D01*
X167453401Y-102360925D01*
X167232576Y-102317000D01*
X167007424Y-102317000D01*
X166786599Y-102360925D01*
X166578587Y-102447087D01*
X166391380Y-102572174D01*
X166232174Y-102731380D01*
X166107087Y-102918587D01*
X166020925Y-103126599D01*
X165977000Y-103347424D01*
X153263000Y-103347424D01*
X153219075Y-103126599D01*
X153132913Y-102918587D01*
X153007826Y-102731380D01*
X152848620Y-102572174D01*
X152661413Y-102447087D01*
X152453401Y-102360925D01*
X152232576Y-102317000D01*
X152007424Y-102317000D01*
X151786599Y-102360925D01*
X151578587Y-102447087D01*
X151391380Y-102572174D01*
X151232174Y-102731380D01*
X151107087Y-102918587D01*
X151020925Y-103126599D01*
X150977000Y-103347424D01*
X138263000Y-103347424D01*
X138219075Y-103126599D01*
X138132913Y-102918587D01*
X138007826Y-102731380D01*
X137848620Y-102572174D01*
X137661413Y-102447087D01*
X137453401Y-102360925D01*
X137232576Y-102317000D01*
X137007424Y-102317000D01*
X136786599Y-102360925D01*
X136578587Y-102447087D01*
X136391380Y-102572174D01*
X136232174Y-102731380D01*
X136107087Y-102918587D01*
X136020925Y-103126599D01*
X135977000Y-103347424D01*
X123263000Y-103347424D01*
X123219075Y-103126599D01*
X123132913Y-102918587D01*
X123007826Y-102731380D01*
X122848620Y-102572174D01*
X122661413Y-102447087D01*
X122453401Y-102360925D01*
X122232576Y-102317000D01*
X122007424Y-102317000D01*
X121786599Y-102360925D01*
X121578587Y-102447087D01*
X121391380Y-102572174D01*
X121232174Y-102731380D01*
X121107087Y-102918587D01*
X121020925Y-103126599D01*
X120977000Y-103347424D01*
X102535000Y-103347424D01*
X102535000Y-103148061D01*
X102495226Y-102948102D01*
X102417205Y-102759744D01*
X102303937Y-102590226D01*
X102159774Y-102446063D01*
X101990256Y-102332795D01*
X101801898Y-102254774D01*
X101601939Y-102215000D01*
X101398061Y-102215000D01*
X101198102Y-102254774D01*
X101009744Y-102332795D01*
X100840226Y-102446063D01*
X100696063Y-102590226D01*
X100626243Y-102694719D01*
X100641718Y-102437405D01*
X100597961Y-102118325D01*
X100492795Y-101813912D01*
X100399814Y-101639956D01*
X100250777Y-101585976D01*
X100354494Y-101530537D01*
X100451185Y-101451185D01*
X100530537Y-101354494D01*
X100589502Y-101244180D01*
X100625812Y-101124482D01*
X100638072Y-101000000D01*
X100638072Y-100732374D01*
X117675000Y-100732374D01*
X117675000Y-101107626D01*
X117748209Y-101475668D01*
X117891811Y-101822356D01*
X118100290Y-102134366D01*
X118365634Y-102399710D01*
X118677644Y-102608189D01*
X119024332Y-102751791D01*
X119392374Y-102825000D01*
X119767626Y-102825000D01*
X120135668Y-102751791D01*
X120482356Y-102608189D01*
X120794366Y-102399710D01*
X121059710Y-102134366D01*
X121268189Y-101822356D01*
X121411791Y-101475668D01*
X121485000Y-101107626D01*
X121485000Y-100732374D01*
X132675000Y-100732374D01*
X132675000Y-101107626D01*
X132748209Y-101475668D01*
X132891811Y-101822356D01*
X133100290Y-102134366D01*
X133365634Y-102399710D01*
X133677644Y-102608189D01*
X134024332Y-102751791D01*
X134392374Y-102825000D01*
X134767626Y-102825000D01*
X135135668Y-102751791D01*
X135482356Y-102608189D01*
X135794366Y-102399710D01*
X136059710Y-102134366D01*
X136268189Y-101822356D01*
X136411791Y-101475668D01*
X136485000Y-101107626D01*
X136485000Y-100732374D01*
X147675000Y-100732374D01*
X147675000Y-101107626D01*
X147748209Y-101475668D01*
X147891811Y-101822356D01*
X148100290Y-102134366D01*
X148365634Y-102399710D01*
X148677644Y-102608189D01*
X149024332Y-102751791D01*
X149392374Y-102825000D01*
X149767626Y-102825000D01*
X150135668Y-102751791D01*
X150482356Y-102608189D01*
X150794366Y-102399710D01*
X151059710Y-102134366D01*
X151268189Y-101822356D01*
X151411791Y-101475668D01*
X151485000Y-101107626D01*
X151485000Y-100732374D01*
X162675000Y-100732374D01*
X162675000Y-101107626D01*
X162748209Y-101475668D01*
X162891811Y-101822356D01*
X163100290Y-102134366D01*
X163365634Y-102399710D01*
X163677644Y-102608189D01*
X164024332Y-102751791D01*
X164392374Y-102825000D01*
X164767626Y-102825000D01*
X165135668Y-102751791D01*
X165482356Y-102608189D01*
X165794366Y-102399710D01*
X165896712Y-102297364D01*
X170542600Y-102297364D01*
X170542600Y-102702636D01*
X170621665Y-103100121D01*
X170776756Y-103474544D01*
X171001913Y-103811516D01*
X171288484Y-104098087D01*
X171625456Y-104323244D01*
X171999879Y-104478335D01*
X172397364Y-104557400D01*
X172802636Y-104557400D01*
X173200121Y-104478335D01*
X173574544Y-104323244D01*
X173911516Y-104098087D01*
X174198087Y-103811516D01*
X174423244Y-103474544D01*
X174578335Y-103100121D01*
X174657400Y-102702636D01*
X174657400Y-102297364D01*
X174578335Y-101899879D01*
X174423244Y-101525456D01*
X174198087Y-101188484D01*
X173911516Y-100901913D01*
X173574544Y-100676756D01*
X173200121Y-100521665D01*
X172802636Y-100442600D01*
X172397364Y-100442600D01*
X171999879Y-100521665D01*
X171625456Y-100676756D01*
X171288484Y-100901913D01*
X171001913Y-101188484D01*
X170776756Y-101525456D01*
X170621665Y-101899879D01*
X170542600Y-102297364D01*
X165896712Y-102297364D01*
X166059710Y-102134366D01*
X166268189Y-101822356D01*
X166411791Y-101475668D01*
X166485000Y-101107626D01*
X166485000Y-100732374D01*
X166411791Y-100364332D01*
X166268189Y-100017644D01*
X166059710Y-99705634D01*
X165794366Y-99440290D01*
X165482356Y-99231811D01*
X165135668Y-99088209D01*
X164767626Y-99015000D01*
X164392374Y-99015000D01*
X164024332Y-99088209D01*
X163677644Y-99231811D01*
X163365634Y-99440290D01*
X163100290Y-99705634D01*
X162891811Y-100017644D01*
X162748209Y-100364332D01*
X162675000Y-100732374D01*
X151485000Y-100732374D01*
X151411791Y-100364332D01*
X151268189Y-100017644D01*
X151059710Y-99705634D01*
X150794366Y-99440290D01*
X150482356Y-99231811D01*
X150135668Y-99088209D01*
X149767626Y-99015000D01*
X149392374Y-99015000D01*
X149024332Y-99088209D01*
X148677644Y-99231811D01*
X148365634Y-99440290D01*
X148100290Y-99705634D01*
X147891811Y-100017644D01*
X147748209Y-100364332D01*
X147675000Y-100732374D01*
X136485000Y-100732374D01*
X136411791Y-100364332D01*
X136268189Y-100017644D01*
X136059710Y-99705634D01*
X135794366Y-99440290D01*
X135482356Y-99231811D01*
X135135668Y-99088209D01*
X134767626Y-99015000D01*
X134392374Y-99015000D01*
X134024332Y-99088209D01*
X133677644Y-99231811D01*
X133365634Y-99440290D01*
X133100290Y-99705634D01*
X132891811Y-100017644D01*
X132748209Y-100364332D01*
X132675000Y-100732374D01*
X121485000Y-100732374D01*
X121411791Y-100364332D01*
X121268189Y-100017644D01*
X121059710Y-99705634D01*
X120794366Y-99440290D01*
X120482356Y-99231811D01*
X120135668Y-99088209D01*
X119767626Y-99015000D01*
X119392374Y-99015000D01*
X119024332Y-99088209D01*
X118677644Y-99231811D01*
X118365634Y-99440290D01*
X118100290Y-99705634D01*
X117891811Y-100017644D01*
X117748209Y-100364332D01*
X117675000Y-100732374D01*
X100638072Y-100732374D01*
X100638072Y-99000000D01*
X100625812Y-98875518D01*
X100589502Y-98755820D01*
X100530537Y-98645506D01*
X100451185Y-98548815D01*
X100354494Y-98469463D01*
X100244180Y-98410498D01*
X100124482Y-98374188D01*
X100000000Y-98361928D01*
X98000000Y-98361928D01*
X97875518Y-98374188D01*
X97755820Y-98410498D01*
X97645506Y-98469463D01*
X97548815Y-98548815D01*
X97469463Y-98645506D01*
X97410498Y-98755820D01*
X97374188Y-98875518D01*
X97361928Y-99000000D01*
X97361928Y-101000000D01*
X97374188Y-101124482D01*
X97410498Y-101244180D01*
X97469463Y-101354494D01*
X97548815Y-101451185D01*
X97645506Y-101530537D01*
X97749223Y-101585976D01*
X97600186Y-101639956D01*
X97459296Y-101929571D01*
X97377616Y-102241108D01*
X97358282Y-102562595D01*
X82157400Y-102562595D01*
X82157400Y-102297364D01*
X82078335Y-101899879D01*
X81923244Y-101525456D01*
X81698087Y-101188484D01*
X81645016Y-101135413D01*
X83544192Y-101135413D01*
X83639956Y-101399814D01*
X83929571Y-101540704D01*
X84241108Y-101622384D01*
X84562595Y-101641718D01*
X84881675Y-101597961D01*
X85186088Y-101492795D01*
X85360044Y-101399814D01*
X85455808Y-101135413D01*
X84500000Y-100179605D01*
X83544192Y-101135413D01*
X81645016Y-101135413D01*
X81411516Y-100901913D01*
X81074544Y-100676756D01*
X80700121Y-100521665D01*
X80302636Y-100442600D01*
X79897364Y-100442600D01*
X79499879Y-100521665D01*
X79125456Y-100676756D01*
X78788484Y-100901913D01*
X78501913Y-101188484D01*
X78276756Y-101525456D01*
X78121665Y-101899879D01*
X78042600Y-102297364D01*
X77760000Y-102297364D01*
X77760000Y-100062595D01*
X82858282Y-100062595D01*
X82902039Y-100381675D01*
X83007205Y-100686088D01*
X83100186Y-100860044D01*
X83364587Y-100955808D01*
X84320395Y-100000000D01*
X84679605Y-100000000D01*
X85635413Y-100955808D01*
X85899814Y-100860044D01*
X86040704Y-100570429D01*
X86122384Y-100258892D01*
X86141718Y-99937405D01*
X86097961Y-99618325D01*
X85992795Y-99313912D01*
X85899814Y-99139956D01*
X85635413Y-99044192D01*
X84679605Y-100000000D01*
X84320395Y-100000000D01*
X83364587Y-99044192D01*
X83100186Y-99139956D01*
X82959296Y-99429571D01*
X82877616Y-99741108D01*
X82858282Y-100062595D01*
X77760000Y-100062595D01*
X77760000Y-98864587D01*
X83544192Y-98864587D01*
X84500000Y-99820395D01*
X85455808Y-98864587D01*
X85360044Y-98600186D01*
X85070429Y-98459296D01*
X84758892Y-98377616D01*
X84437405Y-98358282D01*
X84118325Y-98402039D01*
X83813912Y-98507205D01*
X83639956Y-98600186D01*
X83544192Y-98864587D01*
X77760000Y-98864587D01*
X77760000Y-95900000D01*
X89261928Y-95900000D01*
X89261928Y-97900000D01*
X89274188Y-98024482D01*
X89310498Y-98144180D01*
X89369463Y-98254494D01*
X89448815Y-98351185D01*
X89545506Y-98430537D01*
X89655820Y-98489502D01*
X89775518Y-98525812D01*
X89900000Y-98538072D01*
X93100000Y-98538072D01*
X93224482Y-98525812D01*
X93344180Y-98489502D01*
X93454494Y-98430537D01*
X93551185Y-98351185D01*
X93619925Y-98267424D01*
X113357000Y-98267424D01*
X113357000Y-98492576D01*
X113400925Y-98713401D01*
X113487087Y-98921413D01*
X113612174Y-99108620D01*
X113771380Y-99267826D01*
X113958587Y-99392913D01*
X114166599Y-99479075D01*
X114387424Y-99523000D01*
X114612576Y-99523000D01*
X114833401Y-99479075D01*
X115041413Y-99392913D01*
X115228620Y-99267826D01*
X115387826Y-99108620D01*
X115512913Y-98921413D01*
X115599075Y-98713401D01*
X115643000Y-98492576D01*
X115643000Y-98267424D01*
X128357000Y-98267424D01*
X128357000Y-98492576D01*
X128400925Y-98713401D01*
X128487087Y-98921413D01*
X128612174Y-99108620D01*
X128771380Y-99267826D01*
X128958587Y-99392913D01*
X129166599Y-99479075D01*
X129387424Y-99523000D01*
X129612576Y-99523000D01*
X129833401Y-99479075D01*
X130041413Y-99392913D01*
X130228620Y-99267826D01*
X130387826Y-99108620D01*
X130512913Y-98921413D01*
X130599075Y-98713401D01*
X130643000Y-98492576D01*
X130643000Y-98267424D01*
X143357000Y-98267424D01*
X143357000Y-98492576D01*
X143400925Y-98713401D01*
X143487087Y-98921413D01*
X143612174Y-99108620D01*
X143771380Y-99267826D01*
X143958587Y-99392913D01*
X144166599Y-99479075D01*
X144387424Y-99523000D01*
X144612576Y-99523000D01*
X144833401Y-99479075D01*
X145041413Y-99392913D01*
X145228620Y-99267826D01*
X145387826Y-99108620D01*
X145512913Y-98921413D01*
X145599075Y-98713401D01*
X145643000Y-98492576D01*
X145643000Y-98267424D01*
X158357000Y-98267424D01*
X158357000Y-98492576D01*
X158400925Y-98713401D01*
X158487087Y-98921413D01*
X158612174Y-99108620D01*
X158771380Y-99267826D01*
X158958587Y-99392913D01*
X159166599Y-99479075D01*
X159387424Y-99523000D01*
X159612576Y-99523000D01*
X159833401Y-99479075D01*
X160041413Y-99392913D01*
X160228620Y-99267826D01*
X160387826Y-99108620D01*
X160512913Y-98921413D01*
X160599075Y-98713401D01*
X160643000Y-98492576D01*
X160643000Y-98267424D01*
X160599075Y-98046599D01*
X160512913Y-97838587D01*
X160387826Y-97651380D01*
X160228620Y-97492174D01*
X160041413Y-97367087D01*
X159833401Y-97280925D01*
X159612576Y-97237000D01*
X159387424Y-97237000D01*
X159166599Y-97280925D01*
X158958587Y-97367087D01*
X158771380Y-97492174D01*
X158612174Y-97651380D01*
X158487087Y-97838587D01*
X158400925Y-98046599D01*
X158357000Y-98267424D01*
X145643000Y-98267424D01*
X145599075Y-98046599D01*
X145512913Y-97838587D01*
X145387826Y-97651380D01*
X145228620Y-97492174D01*
X145041413Y-97367087D01*
X144833401Y-97280925D01*
X144612576Y-97237000D01*
X144387424Y-97237000D01*
X144166599Y-97280925D01*
X143958587Y-97367087D01*
X143771380Y-97492174D01*
X143612174Y-97651380D01*
X143487087Y-97838587D01*
X143400925Y-98046599D01*
X143357000Y-98267424D01*
X130643000Y-98267424D01*
X130599075Y-98046599D01*
X130512913Y-97838587D01*
X130387826Y-97651380D01*
X130228620Y-97492174D01*
X130041413Y-97367087D01*
X129833401Y-97280925D01*
X129612576Y-97237000D01*
X129387424Y-97237000D01*
X129166599Y-97280925D01*
X128958587Y-97367087D01*
X128771380Y-97492174D01*
X128612174Y-97651380D01*
X128487087Y-97838587D01*
X128400925Y-98046599D01*
X128357000Y-98267424D01*
X115643000Y-98267424D01*
X115599075Y-98046599D01*
X115512913Y-97838587D01*
X115387826Y-97651380D01*
X115228620Y-97492174D01*
X115041413Y-97367087D01*
X114833401Y-97280925D01*
X114612576Y-97237000D01*
X114387424Y-97237000D01*
X114166599Y-97280925D01*
X113958587Y-97367087D01*
X113771380Y-97492174D01*
X113612174Y-97651380D01*
X113487087Y-97838587D01*
X113400925Y-98046599D01*
X113357000Y-98267424D01*
X93619925Y-98267424D01*
X93630537Y-98254494D01*
X93689502Y-98144180D01*
X93725812Y-98024482D01*
X93738072Y-97900000D01*
X93738072Y-95900000D01*
X93725812Y-95775518D01*
X93689502Y-95655820D01*
X93630537Y-95545506D01*
X93551185Y-95448815D01*
X93454494Y-95369463D01*
X93344180Y-95310498D01*
X93224482Y-95274188D01*
X93100000Y-95261928D01*
X89900000Y-95261928D01*
X89775518Y-95274188D01*
X89655820Y-95310498D01*
X89545506Y-95369463D01*
X89448815Y-95448815D01*
X89369463Y-95545506D01*
X89310498Y-95655820D01*
X89274188Y-95775518D01*
X89261928Y-95900000D01*
X77760000Y-95900000D01*
X77760000Y-94618514D01*
X103915000Y-94618514D01*
X103915000Y-94881486D01*
X103966304Y-95139405D01*
X104066939Y-95382359D01*
X104213038Y-95601013D01*
X104398987Y-95786962D01*
X104617641Y-95933061D01*
X104860595Y-96033696D01*
X105118514Y-96085000D01*
X105381486Y-96085000D01*
X105639405Y-96033696D01*
X105882359Y-95933061D01*
X106101013Y-95786962D01*
X106269461Y-95618514D01*
X106915000Y-95618514D01*
X106915000Y-95881486D01*
X106966304Y-96139405D01*
X107066939Y-96382359D01*
X107213038Y-96601013D01*
X107398987Y-96786962D01*
X107617641Y-96933061D01*
X107860595Y-97033696D01*
X108118514Y-97085000D01*
X108381486Y-97085000D01*
X108639405Y-97033696D01*
X108882359Y-96933061D01*
X109101013Y-96786962D01*
X109125000Y-96762975D01*
X109148987Y-96786962D01*
X109367641Y-96933061D01*
X109610595Y-97033696D01*
X109868514Y-97085000D01*
X110131486Y-97085000D01*
X110389405Y-97033696D01*
X110632359Y-96933061D01*
X110851013Y-96786962D01*
X111036962Y-96601013D01*
X111183061Y-96382359D01*
X111283696Y-96139405D01*
X111335000Y-95881486D01*
X111335000Y-95618514D01*
X111283696Y-95360595D01*
X111183061Y-95117641D01*
X111036962Y-94898987D01*
X110851013Y-94713038D01*
X110632359Y-94566939D01*
X110389405Y-94466304D01*
X110131486Y-94415000D01*
X109868514Y-94415000D01*
X109610595Y-94466304D01*
X109367641Y-94566939D01*
X109148987Y-94713038D01*
X109125000Y-94737025D01*
X109101013Y-94713038D01*
X108882359Y-94566939D01*
X108639405Y-94466304D01*
X108381486Y-94415000D01*
X108118514Y-94415000D01*
X107860595Y-94466304D01*
X107617641Y-94566939D01*
X107398987Y-94713038D01*
X107213038Y-94898987D01*
X107066939Y-95117641D01*
X106966304Y-95360595D01*
X106915000Y-95618514D01*
X106269461Y-95618514D01*
X106286962Y-95601013D01*
X106433061Y-95382359D01*
X106533696Y-95139405D01*
X106585000Y-94881486D01*
X106585000Y-94618514D01*
X106533696Y-94360595D01*
X106433061Y-94117641D01*
X106286962Y-93898987D01*
X106101013Y-93713038D01*
X105882359Y-93566939D01*
X105639405Y-93466304D01*
X105381486Y-93415000D01*
X105118514Y-93415000D01*
X104860595Y-93466304D01*
X104617641Y-93566939D01*
X104398987Y-93713038D01*
X104213038Y-93898987D01*
X104066939Y-94117641D01*
X103966304Y-94360595D01*
X103915000Y-94618514D01*
X77760000Y-94618514D01*
X77760000Y-93032279D01*
X77769580Y-92934576D01*
X77788580Y-92871644D01*
X77819445Y-92813595D01*
X77860989Y-92762657D01*
X77911644Y-92720752D01*
X77969471Y-92689485D01*
X78032272Y-92670044D01*
X78127835Y-92660000D01*
X94549393Y-92660000D01*
X94466304Y-92860595D01*
X94415000Y-93118514D01*
X94415000Y-93381486D01*
X94466304Y-93639405D01*
X94566939Y-93882359D01*
X94713038Y-94101013D01*
X94898987Y-94286962D01*
X95117641Y-94433061D01*
X95360595Y-94533696D01*
X95618514Y-94585000D01*
X95881486Y-94585000D01*
X96139405Y-94533696D01*
X96382359Y-94433061D01*
X96601013Y-94286962D01*
X96786962Y-94101013D01*
X96933061Y-93882359D01*
X97033696Y-93639405D01*
X97081317Y-93400000D01*
X117611928Y-93400000D01*
X117611928Y-94400000D01*
X117624188Y-94524482D01*
X117660498Y-94644180D01*
X117719463Y-94754494D01*
X117798815Y-94851185D01*
X117895506Y-94930537D01*
X118005820Y-94989502D01*
X118125518Y-95025812D01*
X118250000Y-95038072D01*
X119250000Y-95038072D01*
X119374482Y-95025812D01*
X119494180Y-94989502D01*
X119577226Y-94945112D01*
X119688933Y-94991383D01*
X119908212Y-95035000D01*
X120131788Y-95035000D01*
X120351067Y-94991383D01*
X120557624Y-94905824D01*
X120743520Y-94781612D01*
X120901612Y-94623520D01*
X121025824Y-94437624D01*
X121111383Y-94231067D01*
X121155000Y-94011788D01*
X121155000Y-93788212D01*
X128595000Y-93788212D01*
X128595000Y-94011788D01*
X128638617Y-94231067D01*
X128724176Y-94437624D01*
X128848388Y-94623520D01*
X129006480Y-94781612D01*
X129192376Y-94905824D01*
X129398933Y-94991383D01*
X129618212Y-95035000D01*
X129841788Y-95035000D01*
X130061067Y-94991383D01*
X130172774Y-94945112D01*
X130255820Y-94989502D01*
X130375518Y-95025812D01*
X130500000Y-95038072D01*
X131500000Y-95038072D01*
X131624482Y-95025812D01*
X131744180Y-94989502D01*
X131809390Y-94954646D01*
X131816304Y-94989405D01*
X131916939Y-95232359D01*
X132063038Y-95451013D01*
X132248987Y-95636962D01*
X132467641Y-95783061D01*
X132710595Y-95883696D01*
X132968514Y-95935000D01*
X133231486Y-95935000D01*
X133489405Y-95883696D01*
X133732359Y-95783061D01*
X133951013Y-95636962D01*
X134136962Y-95451013D01*
X134283061Y-95232359D01*
X134383696Y-94989405D01*
X134435000Y-94731486D01*
X134435000Y-94468514D01*
X134383696Y-94210595D01*
X134283061Y-93967641D01*
X134136962Y-93748987D01*
X133951013Y-93563038D01*
X133732359Y-93416939D01*
X133489405Y-93316304D01*
X133231486Y-93265000D01*
X132968514Y-93265000D01*
X132710595Y-93316304D01*
X132467641Y-93416939D01*
X132248987Y-93563038D01*
X132138072Y-93673953D01*
X132138072Y-93400000D01*
X132125812Y-93275518D01*
X132089502Y-93155820D01*
X132030537Y-93045506D01*
X131951185Y-92948815D01*
X131854494Y-92869463D01*
X131744180Y-92810498D01*
X131624482Y-92774188D01*
X131500000Y-92761928D01*
X130500000Y-92761928D01*
X130375518Y-92774188D01*
X130255820Y-92810498D01*
X130172774Y-92854888D01*
X130061067Y-92808617D01*
X129841788Y-92765000D01*
X129618212Y-92765000D01*
X129398933Y-92808617D01*
X129192376Y-92894176D01*
X129006480Y-93018388D01*
X128848388Y-93176480D01*
X128724176Y-93362376D01*
X128638617Y-93568933D01*
X128595000Y-93788212D01*
X121155000Y-93788212D01*
X121111383Y-93568933D01*
X121025824Y-93362376D01*
X120901612Y-93176480D01*
X120743520Y-93018388D01*
X120557624Y-92894176D01*
X120351067Y-92808617D01*
X120131788Y-92765000D01*
X119908212Y-92765000D01*
X119688933Y-92808617D01*
X119577226Y-92854888D01*
X119494180Y-92810498D01*
X119374482Y-92774188D01*
X119250000Y-92761928D01*
X118250000Y-92761928D01*
X118125518Y-92774188D01*
X118005820Y-92810498D01*
X117895506Y-92869463D01*
X117798815Y-92948815D01*
X117719463Y-93045506D01*
X117660498Y-93155820D01*
X117624188Y-93275518D01*
X117611928Y-93400000D01*
X97081317Y-93400000D01*
X97085000Y-93381486D01*
X97085000Y-93118514D01*
X97033696Y-92860595D01*
X96950607Y-92660000D01*
X148088862Y-92660000D01*
X148016939Y-92767641D01*
X147916304Y-93010595D01*
X147865000Y-93268514D01*
X147865000Y-93531486D01*
X147916304Y-93789405D01*
X148016939Y-94032359D01*
X148163038Y-94251013D01*
X148348987Y-94436962D01*
X148567641Y-94583061D01*
X148810595Y-94683696D01*
X149068514Y-94735000D01*
X149331486Y-94735000D01*
X149589405Y-94683696D01*
X149832359Y-94583061D01*
X150051013Y-94436962D01*
X150236962Y-94251013D01*
X150383061Y-94032359D01*
X150483696Y-93789405D01*
X150535000Y-93531486D01*
X150535000Y-93268514D01*
X150530721Y-93247000D01*
X156590000Y-93247000D01*
X156590000Y-93997000D01*
X156635624Y-94206233D01*
X156721191Y-94402545D01*
X156843413Y-94578391D01*
X156997592Y-94727014D01*
X157177803Y-94842702D01*
X157380999Y-94914408D01*
X157548000Y-94787502D01*
X157548000Y-93247000D01*
X156590000Y-93247000D01*
X150530721Y-93247000D01*
X150483696Y-93010595D01*
X150383061Y-92767641D01*
X150311138Y-92660000D01*
X155532419Y-92660000D01*
X155560674Y-92657217D01*
X155566801Y-92657260D01*
X155575972Y-92656360D01*
X155770069Y-92635959D01*
X155828658Y-92623932D01*
X155887423Y-92612723D01*
X155896245Y-92610059D01*
X156082683Y-92552347D01*
X156137838Y-92529162D01*
X156193291Y-92506758D01*
X156201427Y-92502432D01*
X156373104Y-92409607D01*
X156422699Y-92376154D01*
X156472753Y-92343400D01*
X156479894Y-92337576D01*
X156590000Y-92246488D01*
X156590000Y-92993000D01*
X157548000Y-92993000D01*
X157548000Y-91452498D01*
X157380999Y-91325592D01*
X157177803Y-91397298D01*
X157092547Y-91452029D01*
X157112786Y-91384994D01*
X157124405Y-91326314D01*
X157136842Y-91267804D01*
X157137805Y-91258639D01*
X157153636Y-91097188D01*
X157177803Y-91112702D01*
X157380999Y-91184408D01*
X157548000Y-91057502D01*
X157548000Y-89867000D01*
X157802000Y-89867000D01*
X157802000Y-91057502D01*
X157969001Y-91184408D01*
X158172197Y-91112702D01*
X158352408Y-90997014D01*
X158506587Y-90848391D01*
X158522517Y-90825472D01*
X158513214Y-90856140D01*
X158486241Y-91130000D01*
X158513214Y-91403860D01*
X158593096Y-91667195D01*
X158701569Y-91870135D01*
X158651886Y-91890400D01*
X158628809Y-91837455D01*
X158506587Y-91661609D01*
X158352408Y-91512986D01*
X158172197Y-91397298D01*
X157969001Y-91325592D01*
X157802000Y-91452498D01*
X157802000Y-92993000D01*
X158089369Y-92993000D01*
X158100392Y-93050028D01*
X158171813Y-93225126D01*
X158176730Y-93234323D01*
X158359073Y-93247000D01*
X157802000Y-93247000D01*
X157802000Y-94787502D01*
X157969001Y-94914408D01*
X158172197Y-94842702D01*
X158352408Y-94727014D01*
X158506587Y-94578391D01*
X158628809Y-94402545D01*
X158695225Y-94250170D01*
X158845395Y-94100000D01*
X158831253Y-94085858D01*
X158915829Y-94001281D01*
X158915000Y-94005448D01*
X158915000Y-94194552D01*
X158947361Y-94357244D01*
X158552069Y-94752536D01*
X158565677Y-94948270D01*
X158739992Y-95021581D01*
X158925260Y-95059475D01*
X159114361Y-95060497D01*
X159300028Y-95024608D01*
X159450462Y-94963247D01*
X159594978Y-95023108D01*
X159780448Y-95060000D01*
X159969552Y-95060000D01*
X160155022Y-95023108D01*
X160300000Y-94963056D01*
X160444978Y-95023108D01*
X160630448Y-95060000D01*
X160819552Y-95060000D01*
X161005022Y-95023108D01*
X161150000Y-94963056D01*
X161294978Y-95023108D01*
X161480448Y-95060000D01*
X161669552Y-95060000D01*
X161855022Y-95023108D01*
X162000000Y-94963056D01*
X162144978Y-95023108D01*
X162330448Y-95060000D01*
X162519552Y-95060000D01*
X162705022Y-95023108D01*
X162850000Y-94963056D01*
X162994978Y-95023108D01*
X163180448Y-95060000D01*
X163369552Y-95060000D01*
X163555022Y-95023108D01*
X163700000Y-94963056D01*
X163844978Y-95023108D01*
X164030448Y-95060000D01*
X164219552Y-95060000D01*
X164405022Y-95023108D01*
X164550420Y-94962882D01*
X164689992Y-95021581D01*
X164875260Y-95059475D01*
X165064361Y-95060497D01*
X165250028Y-95024608D01*
X165425126Y-94953187D01*
X165434323Y-94948270D01*
X165447931Y-94752536D01*
X165052639Y-94357244D01*
X165085000Y-94194552D01*
X165085000Y-94005448D01*
X165084171Y-94001281D01*
X165168748Y-94085858D01*
X165154605Y-94100000D01*
X165304775Y-94250170D01*
X165371191Y-94402545D01*
X165493413Y-94578391D01*
X165647592Y-94727014D01*
X165827803Y-94842702D01*
X166030999Y-94914408D01*
X166198000Y-94787502D01*
X166198000Y-93247000D01*
X166452000Y-93247000D01*
X166452000Y-94787502D01*
X166619001Y-94914408D01*
X166822197Y-94842702D01*
X167002408Y-94727014D01*
X167156587Y-94578391D01*
X167278809Y-94402545D01*
X167364376Y-94206233D01*
X167410000Y-93997000D01*
X167410000Y-93247000D01*
X166452000Y-93247000D01*
X166198000Y-93247000D01*
X165645927Y-93247000D01*
X165828270Y-93234323D01*
X165901581Y-93060008D01*
X165915287Y-92993000D01*
X166198000Y-92993000D01*
X166198000Y-91452498D01*
X166030999Y-91325592D01*
X165827803Y-91397298D01*
X165647592Y-91512986D01*
X165493413Y-91661609D01*
X165371191Y-91837455D01*
X165348861Y-91888685D01*
X165315921Y-91874831D01*
X165426904Y-91667195D01*
X165506786Y-91403860D01*
X165533759Y-91130000D01*
X165507346Y-90861822D01*
X165647592Y-90997014D01*
X165827803Y-91112702D01*
X166030999Y-91184408D01*
X166198000Y-91057502D01*
X166198000Y-89867000D01*
X165240000Y-89867000D01*
X165240000Y-90267000D01*
X165243990Y-90285296D01*
X165122608Y-90137392D01*
X164909887Y-89962817D01*
X164667195Y-89833096D01*
X164403860Y-89753214D01*
X164198625Y-89733000D01*
X159821375Y-89733000D01*
X159616140Y-89753214D01*
X159352805Y-89833096D01*
X159110113Y-89962817D01*
X158897392Y-90137392D01*
X158748774Y-90318485D01*
X158760000Y-90267000D01*
X158760000Y-89867000D01*
X157802000Y-89867000D01*
X157548000Y-89867000D01*
X157528000Y-89867000D01*
X157528000Y-89613000D01*
X157548000Y-89613000D01*
X157548000Y-88422498D01*
X157802000Y-88422498D01*
X157802000Y-89613000D01*
X158760000Y-89613000D01*
X158760000Y-89213000D01*
X165240000Y-89213000D01*
X165240000Y-89613000D01*
X166198000Y-89613000D01*
X166198000Y-88422498D01*
X166030999Y-88295592D01*
X165827803Y-88367298D01*
X165647592Y-88482986D01*
X165493413Y-88631609D01*
X165371191Y-88807455D01*
X165285624Y-89003767D01*
X165240000Y-89213000D01*
X158760000Y-89213000D01*
X158714376Y-89003767D01*
X158628809Y-88807455D01*
X158506587Y-88631609D01*
X158352408Y-88482986D01*
X158172197Y-88367298D01*
X157969001Y-88295592D01*
X157802000Y-88422498D01*
X157548000Y-88422498D01*
X157380999Y-88295592D01*
X157177803Y-88367298D01*
X157160000Y-88378727D01*
X157160000Y-86532279D01*
X157169580Y-86434576D01*
X157188580Y-86371644D01*
X157219445Y-86313595D01*
X157260989Y-86262657D01*
X157311644Y-86220752D01*
X157369471Y-86189485D01*
X157432272Y-86170044D01*
X157527835Y-86160000D01*
X166467721Y-86160000D01*
X166565424Y-86169580D01*
G36*
X158920000Y-92680448D02*
G01*
X158920000Y-92869552D01*
X158922070Y-92879960D01*
X158831253Y-92789143D01*
X158845395Y-92775000D01*
X158831253Y-92760858D01*
X158922070Y-92670040D01*
X158920000Y-92680448D01*
G37*
X158920000Y-92680448D02*
X158920000Y-92869552D01*
X158922070Y-92879960D01*
X158831253Y-92789143D01*
X158845395Y-92775000D01*
X158831253Y-92760858D01*
X158922070Y-92670040D01*
X158920000Y-92680448D01*
G36*
X165173748Y-92760858D02*
G01*
X165159605Y-92775000D01*
X165173748Y-92789143D01*
X165089171Y-92873719D01*
X165090000Y-92869552D01*
X165090000Y-92680448D01*
X165089171Y-92676281D01*
X165173748Y-92760858D01*
G37*
X165173748Y-92760858D02*
X165159605Y-92775000D01*
X165173748Y-92789143D01*
X165089171Y-92873719D01*
X165090000Y-92869552D01*
X165090000Y-92680448D01*
X165089171Y-92676281D01*
X165173748Y-92760858D01*
%TD*%
M02*
